G04 #@! TF.GenerationSoftware,KiCad,Pcbnew,5.1.10-88a1d61d58~88~ubuntu20.04.1*
G04 #@! TF.CreationDate,2021-06-12T08:26:13-04:00*
G04 #@! TF.ProjectId,stm32l0_mod_source,73746d33-326c-4305-9f6d-6f645f736f75,rev?*
G04 #@! TF.SameCoordinates,Original*
G04 #@! TF.FileFunction,Copper,L2,Inr*
G04 #@! TF.FilePolarity,Positive*
%FSLAX46Y46*%
G04 Gerber Fmt 4.6, Leading zero omitted, Abs format (unit mm)*
G04 Created by KiCad (PCBNEW 5.1.10-88a1d61d58~88~ubuntu20.04.1) date 2021-06-12 08:26:13*
%MOMM*%
%LPD*%
G01*
G04 APERTURE LIST*
G04 #@! TA.AperFunction,ComponentPad*
%ADD10O,1.700000X1.700000*%
G04 #@! TD*
G04 #@! TA.AperFunction,ComponentPad*
%ADD11R,1.700000X1.700000*%
G04 #@! TD*
G04 #@! TA.AperFunction,ViaPad*
%ADD12C,0.800000*%
G04 #@! TD*
G04 #@! TA.AperFunction,Conductor*
%ADD13C,0.254000*%
G04 #@! TD*
G04 #@! TA.AperFunction,Conductor*
%ADD14C,0.100000*%
G04 #@! TD*
G04 APERTURE END LIST*
D10*
X96520000Y-60960000D03*
X93980000Y-60960000D03*
X91440000Y-60960000D03*
X88900000Y-60960000D03*
X86360000Y-60960000D03*
X83820000Y-60960000D03*
X81280000Y-60960000D03*
X78740000Y-60960000D03*
X76200000Y-60960000D03*
D11*
X73660000Y-60960000D03*
D10*
X96520000Y-45720000D03*
X93980000Y-45720000D03*
X91440000Y-45720000D03*
D11*
X88900000Y-45720000D03*
D10*
X81280000Y-45720000D03*
X78740000Y-45720000D03*
X76200000Y-45720000D03*
D11*
X73660000Y-45720000D03*
D12*
X92837000Y-55245000D03*
X94361000Y-54229000D03*
X97409000Y-54864000D03*
X74168000Y-59182000D03*
X80010000Y-48387000D03*
X75692000Y-59182000D03*
X72390000Y-59182000D03*
X88646000Y-56134000D03*
X83185000Y-46736000D03*
X86487000Y-53721000D03*
X97663000Y-49784000D03*
X94133000Y-52171000D03*
X75946000Y-53848000D03*
X80518000Y-51943000D03*
X77216000Y-51181000D03*
X76453992Y-52451008D03*
X84582000Y-59690000D03*
X94996000Y-57912002D03*
X96393000Y-55626000D03*
X93091000Y-49276000D03*
X88265000Y-54229000D03*
X90170000Y-49403000D03*
X98425000Y-56134000D03*
X96393000Y-50419000D03*
X88646000Y-58293000D03*
D13*
X98400001Y-49057290D02*
X98322774Y-48980063D01*
X98153256Y-48866795D01*
X97964898Y-48788774D01*
X97764939Y-48749000D01*
X97561061Y-48749000D01*
X97361102Y-48788774D01*
X97172744Y-48866795D01*
X97003226Y-48980063D01*
X96859063Y-49124226D01*
X96745795Y-49293744D01*
X96692160Y-49423229D01*
X96494939Y-49384000D01*
X96291061Y-49384000D01*
X96091102Y-49423774D01*
X95902744Y-49501795D01*
X95733226Y-49615063D01*
X95589063Y-49759226D01*
X95475795Y-49928744D01*
X95397774Y-50117102D01*
X95358000Y-50317061D01*
X95358000Y-50520939D01*
X95397774Y-50720898D01*
X95475795Y-50909256D01*
X95589063Y-51078774D01*
X95733226Y-51222937D01*
X95902744Y-51336205D01*
X96091102Y-51414226D01*
X96291061Y-51454000D01*
X96494939Y-51454000D01*
X96694898Y-51414226D01*
X96883256Y-51336205D01*
X97052774Y-51222937D01*
X97196937Y-51078774D01*
X97310205Y-50909256D01*
X97363840Y-50779771D01*
X97561061Y-50819000D01*
X97764939Y-50819000D01*
X97964898Y-50779226D01*
X98153256Y-50701205D01*
X98322774Y-50587937D01*
X98400001Y-50510710D01*
X98400000Y-55099000D01*
X98323061Y-55099000D01*
X98123102Y-55138774D01*
X97934744Y-55216795D01*
X97765226Y-55330063D01*
X97621063Y-55474226D01*
X97507795Y-55643744D01*
X97429774Y-55832102D01*
X97390000Y-56032061D01*
X97390000Y-56235939D01*
X97429774Y-56435898D01*
X97507795Y-56624256D01*
X97621063Y-56793774D01*
X97765226Y-56937937D01*
X97934744Y-57051205D01*
X98123102Y-57129226D01*
X98323061Y-57169000D01*
X98400000Y-57169000D01*
X98400000Y-62840000D01*
X71780000Y-62840000D01*
X71780000Y-60110000D01*
X72171928Y-60110000D01*
X72171928Y-61810000D01*
X72184188Y-61934482D01*
X72220498Y-62054180D01*
X72279463Y-62164494D01*
X72358815Y-62261185D01*
X72455506Y-62340537D01*
X72565820Y-62399502D01*
X72685518Y-62435812D01*
X72810000Y-62448072D01*
X74510000Y-62448072D01*
X74634482Y-62435812D01*
X74754180Y-62399502D01*
X74864494Y-62340537D01*
X74961185Y-62261185D01*
X75040537Y-62164494D01*
X75099502Y-62054180D01*
X75121513Y-61981620D01*
X75253368Y-62113475D01*
X75496589Y-62275990D01*
X75766842Y-62387932D01*
X76053740Y-62445000D01*
X76346260Y-62445000D01*
X76633158Y-62387932D01*
X76903411Y-62275990D01*
X77146632Y-62113475D01*
X77353475Y-61906632D01*
X77475195Y-61724466D01*
X77544822Y-61841355D01*
X77739731Y-62057588D01*
X77973080Y-62231641D01*
X78235901Y-62356825D01*
X78383110Y-62401476D01*
X78613000Y-62280155D01*
X78613000Y-61087000D01*
X78593000Y-61087000D01*
X78593000Y-60833000D01*
X78613000Y-60833000D01*
X78613000Y-59639845D01*
X78867000Y-59639845D01*
X78867000Y-60833000D01*
X78887000Y-60833000D01*
X78887000Y-61087000D01*
X78867000Y-61087000D01*
X78867000Y-62280155D01*
X79096890Y-62401476D01*
X79244099Y-62356825D01*
X79506920Y-62231641D01*
X79740269Y-62057588D01*
X79935178Y-61841355D01*
X80004805Y-61724466D01*
X80126525Y-61906632D01*
X80333368Y-62113475D01*
X80576589Y-62275990D01*
X80846842Y-62387932D01*
X81133740Y-62445000D01*
X81426260Y-62445000D01*
X81713158Y-62387932D01*
X81983411Y-62275990D01*
X82226632Y-62113475D01*
X82433475Y-61906632D01*
X82550000Y-61732240D01*
X82666525Y-61906632D01*
X82873368Y-62113475D01*
X83116589Y-62275990D01*
X83386842Y-62387932D01*
X83673740Y-62445000D01*
X83966260Y-62445000D01*
X84253158Y-62387932D01*
X84523411Y-62275990D01*
X84766632Y-62113475D01*
X84973475Y-61906632D01*
X85090000Y-61732240D01*
X85206525Y-61906632D01*
X85413368Y-62113475D01*
X85656589Y-62275990D01*
X85926842Y-62387932D01*
X86213740Y-62445000D01*
X86506260Y-62445000D01*
X86793158Y-62387932D01*
X87063411Y-62275990D01*
X87306632Y-62113475D01*
X87513475Y-61906632D01*
X87630000Y-61732240D01*
X87746525Y-61906632D01*
X87953368Y-62113475D01*
X88196589Y-62275990D01*
X88466842Y-62387932D01*
X88753740Y-62445000D01*
X89046260Y-62445000D01*
X89333158Y-62387932D01*
X89603411Y-62275990D01*
X89846632Y-62113475D01*
X90053475Y-61906632D01*
X90170000Y-61732240D01*
X90286525Y-61906632D01*
X90493368Y-62113475D01*
X90736589Y-62275990D01*
X91006842Y-62387932D01*
X91293740Y-62445000D01*
X91586260Y-62445000D01*
X91873158Y-62387932D01*
X92143411Y-62275990D01*
X92386632Y-62113475D01*
X92593475Y-61906632D01*
X92710000Y-61732240D01*
X92826525Y-61906632D01*
X93033368Y-62113475D01*
X93276589Y-62275990D01*
X93546842Y-62387932D01*
X93833740Y-62445000D01*
X94126260Y-62445000D01*
X94413158Y-62387932D01*
X94683411Y-62275990D01*
X94926632Y-62113475D01*
X95133475Y-61906632D01*
X95255195Y-61724466D01*
X95324822Y-61841355D01*
X95519731Y-62057588D01*
X95753080Y-62231641D01*
X96015901Y-62356825D01*
X96163110Y-62401476D01*
X96393000Y-62280155D01*
X96393000Y-61087000D01*
X96647000Y-61087000D01*
X96647000Y-62280155D01*
X96876890Y-62401476D01*
X97024099Y-62356825D01*
X97286920Y-62231641D01*
X97520269Y-62057588D01*
X97715178Y-61841355D01*
X97864157Y-61591252D01*
X97961481Y-61316891D01*
X97840814Y-61087000D01*
X96647000Y-61087000D01*
X96393000Y-61087000D01*
X96373000Y-61087000D01*
X96373000Y-60833000D01*
X96393000Y-60833000D01*
X96393000Y-59639845D01*
X96647000Y-59639845D01*
X96647000Y-60833000D01*
X97840814Y-60833000D01*
X97961481Y-60603109D01*
X97864157Y-60328748D01*
X97715178Y-60078645D01*
X97520269Y-59862412D01*
X97286920Y-59688359D01*
X97024099Y-59563175D01*
X96876890Y-59518524D01*
X96647000Y-59639845D01*
X96393000Y-59639845D01*
X96163110Y-59518524D01*
X96015901Y-59563175D01*
X95753080Y-59688359D01*
X95519731Y-59862412D01*
X95324822Y-60078645D01*
X95255195Y-60195534D01*
X95133475Y-60013368D01*
X94926632Y-59806525D01*
X94683411Y-59644010D01*
X94413158Y-59532068D01*
X94126260Y-59475000D01*
X93833740Y-59475000D01*
X93546842Y-59532068D01*
X93276589Y-59644010D01*
X93033368Y-59806525D01*
X92826525Y-60013368D01*
X92710000Y-60187760D01*
X92593475Y-60013368D01*
X92386632Y-59806525D01*
X92143411Y-59644010D01*
X91873158Y-59532068D01*
X91586260Y-59475000D01*
X91293740Y-59475000D01*
X91006842Y-59532068D01*
X90736589Y-59644010D01*
X90493368Y-59806525D01*
X90286525Y-60013368D01*
X90170000Y-60187760D01*
X90053475Y-60013368D01*
X89846632Y-59806525D01*
X89603411Y-59644010D01*
X89333158Y-59532068D01*
X89046260Y-59475000D01*
X88753740Y-59475000D01*
X88466842Y-59532068D01*
X88196589Y-59644010D01*
X87953368Y-59806525D01*
X87746525Y-60013368D01*
X87630000Y-60187760D01*
X87513475Y-60013368D01*
X87306632Y-59806525D01*
X87063411Y-59644010D01*
X86793158Y-59532068D01*
X86506260Y-59475000D01*
X86213740Y-59475000D01*
X85926842Y-59532068D01*
X85656589Y-59644010D01*
X85617000Y-59670463D01*
X85617000Y-59588061D01*
X85577226Y-59388102D01*
X85499205Y-59199744D01*
X85385937Y-59030226D01*
X85241774Y-58886063D01*
X85072256Y-58772795D01*
X84883898Y-58694774D01*
X84683939Y-58655000D01*
X84480061Y-58655000D01*
X84280102Y-58694774D01*
X84091744Y-58772795D01*
X83922226Y-58886063D01*
X83778063Y-59030226D01*
X83664795Y-59199744D01*
X83586774Y-59388102D01*
X83565194Y-59496591D01*
X83386842Y-59532068D01*
X83116589Y-59644010D01*
X82873368Y-59806525D01*
X82666525Y-60013368D01*
X82550000Y-60187760D01*
X82433475Y-60013368D01*
X82226632Y-59806525D01*
X81983411Y-59644010D01*
X81713158Y-59532068D01*
X81426260Y-59475000D01*
X81133740Y-59475000D01*
X80846842Y-59532068D01*
X80576589Y-59644010D01*
X80333368Y-59806525D01*
X80126525Y-60013368D01*
X80004805Y-60195534D01*
X79935178Y-60078645D01*
X79740269Y-59862412D01*
X79506920Y-59688359D01*
X79244099Y-59563175D01*
X79096890Y-59518524D01*
X78867000Y-59639845D01*
X78613000Y-59639845D01*
X78383110Y-59518524D01*
X78235901Y-59563175D01*
X77973080Y-59688359D01*
X77739731Y-59862412D01*
X77544822Y-60078645D01*
X77475195Y-60195534D01*
X77353475Y-60013368D01*
X77146632Y-59806525D01*
X76903411Y-59644010D01*
X76633158Y-59532068D01*
X76346260Y-59475000D01*
X76053740Y-59475000D01*
X75766842Y-59532068D01*
X75496589Y-59644010D01*
X75253368Y-59806525D01*
X75121513Y-59938380D01*
X75099502Y-59865820D01*
X75040537Y-59755506D01*
X74961185Y-59658815D01*
X74864494Y-59579463D01*
X74754180Y-59520498D01*
X74634482Y-59484188D01*
X74510000Y-59471928D01*
X72810000Y-59471928D01*
X72685518Y-59484188D01*
X72565820Y-59520498D01*
X72455506Y-59579463D01*
X72358815Y-59658815D01*
X72279463Y-59755506D01*
X72220498Y-59865820D01*
X72184188Y-59985518D01*
X72171928Y-60110000D01*
X71780000Y-60110000D01*
X71780000Y-58191061D01*
X87611000Y-58191061D01*
X87611000Y-58394939D01*
X87650774Y-58594898D01*
X87728795Y-58783256D01*
X87842063Y-58952774D01*
X87986226Y-59096937D01*
X88155744Y-59210205D01*
X88344102Y-59288226D01*
X88544061Y-59328000D01*
X88747939Y-59328000D01*
X88947898Y-59288226D01*
X89136256Y-59210205D01*
X89305774Y-59096937D01*
X89449937Y-58952774D01*
X89563205Y-58783256D01*
X89641226Y-58594898D01*
X89681000Y-58394939D01*
X89681000Y-58191061D01*
X89641226Y-57991102D01*
X89566237Y-57810063D01*
X93961000Y-57810063D01*
X93961000Y-58013941D01*
X94000774Y-58213900D01*
X94078795Y-58402258D01*
X94192063Y-58571776D01*
X94336226Y-58715939D01*
X94505744Y-58829207D01*
X94694102Y-58907228D01*
X94894061Y-58947002D01*
X95097939Y-58947002D01*
X95297898Y-58907228D01*
X95486256Y-58829207D01*
X95655774Y-58715939D01*
X95799937Y-58571776D01*
X95913205Y-58402258D01*
X95991226Y-58213900D01*
X96031000Y-58013941D01*
X96031000Y-57810063D01*
X95991226Y-57610104D01*
X95913205Y-57421746D01*
X95799937Y-57252228D01*
X95655774Y-57108065D01*
X95486256Y-56994797D01*
X95297898Y-56916776D01*
X95097939Y-56877002D01*
X94894061Y-56877002D01*
X94694102Y-56916776D01*
X94505744Y-56994797D01*
X94336226Y-57108065D01*
X94192063Y-57252228D01*
X94078795Y-57421746D01*
X94000774Y-57610104D01*
X93961000Y-57810063D01*
X89566237Y-57810063D01*
X89563205Y-57802744D01*
X89449937Y-57633226D01*
X89305774Y-57489063D01*
X89136256Y-57375795D01*
X88947898Y-57297774D01*
X88747939Y-57258000D01*
X88544061Y-57258000D01*
X88344102Y-57297774D01*
X88155744Y-57375795D01*
X87986226Y-57489063D01*
X87842063Y-57633226D01*
X87728795Y-57802744D01*
X87650774Y-57991102D01*
X87611000Y-58191061D01*
X71780000Y-58191061D01*
X71780000Y-55524061D01*
X95358000Y-55524061D01*
X95358000Y-55727939D01*
X95397774Y-55927898D01*
X95475795Y-56116256D01*
X95589063Y-56285774D01*
X95733226Y-56429937D01*
X95902744Y-56543205D01*
X96091102Y-56621226D01*
X96291061Y-56661000D01*
X96494939Y-56661000D01*
X96694898Y-56621226D01*
X96883256Y-56543205D01*
X97052774Y-56429937D01*
X97196937Y-56285774D01*
X97310205Y-56116256D01*
X97388226Y-55927898D01*
X97428000Y-55727939D01*
X97428000Y-55524061D01*
X97388226Y-55324102D01*
X97310205Y-55135744D01*
X97196937Y-54966226D01*
X97052774Y-54822063D01*
X96883256Y-54708795D01*
X96694898Y-54630774D01*
X96494939Y-54591000D01*
X96291061Y-54591000D01*
X96091102Y-54630774D01*
X95902744Y-54708795D01*
X95733226Y-54822063D01*
X95589063Y-54966226D01*
X95475795Y-55135744D01*
X95397774Y-55324102D01*
X95358000Y-55524061D01*
X71780000Y-55524061D01*
X71780000Y-53746061D01*
X74911000Y-53746061D01*
X74911000Y-53949939D01*
X74950774Y-54149898D01*
X75028795Y-54338256D01*
X75142063Y-54507774D01*
X75286226Y-54651937D01*
X75455744Y-54765205D01*
X75644102Y-54843226D01*
X75844061Y-54883000D01*
X76047939Y-54883000D01*
X76247898Y-54843226D01*
X76436256Y-54765205D01*
X76605774Y-54651937D01*
X76749937Y-54507774D01*
X76863205Y-54338256D01*
X76941226Y-54149898D01*
X76945768Y-54127061D01*
X87230000Y-54127061D01*
X87230000Y-54330939D01*
X87269774Y-54530898D01*
X87347795Y-54719256D01*
X87461063Y-54888774D01*
X87605226Y-55032937D01*
X87774744Y-55146205D01*
X87963102Y-55224226D01*
X88163061Y-55264000D01*
X88366939Y-55264000D01*
X88566898Y-55224226D01*
X88755256Y-55146205D01*
X88924774Y-55032937D01*
X89068937Y-54888774D01*
X89182205Y-54719256D01*
X89260226Y-54530898D01*
X89300000Y-54330939D01*
X89300000Y-54127061D01*
X89260226Y-53927102D01*
X89182205Y-53738744D01*
X89068937Y-53569226D01*
X88924774Y-53425063D01*
X88755256Y-53311795D01*
X88566898Y-53233774D01*
X88366939Y-53194000D01*
X88163061Y-53194000D01*
X87963102Y-53233774D01*
X87774744Y-53311795D01*
X87605226Y-53425063D01*
X87461063Y-53569226D01*
X87347795Y-53738744D01*
X87269774Y-53927102D01*
X87230000Y-54127061D01*
X76945768Y-54127061D01*
X76981000Y-53949939D01*
X76981000Y-53746061D01*
X76941226Y-53546102D01*
X76878775Y-53395333D01*
X76944248Y-53368213D01*
X77113766Y-53254945D01*
X77257929Y-53110782D01*
X77371197Y-52941264D01*
X77449218Y-52752906D01*
X77488992Y-52552947D01*
X77488992Y-52349069D01*
X77457020Y-52188335D01*
X77517898Y-52176226D01*
X77706256Y-52098205D01*
X77875774Y-51984937D01*
X78019650Y-51841061D01*
X79483000Y-51841061D01*
X79483000Y-52044939D01*
X79522774Y-52244898D01*
X79600795Y-52433256D01*
X79714063Y-52602774D01*
X79858226Y-52746937D01*
X80027744Y-52860205D01*
X80216102Y-52938226D01*
X80416061Y-52978000D01*
X80619939Y-52978000D01*
X80819898Y-52938226D01*
X81008256Y-52860205D01*
X81177774Y-52746937D01*
X81321937Y-52602774D01*
X81435205Y-52433256D01*
X81513226Y-52244898D01*
X81548201Y-52069061D01*
X93098000Y-52069061D01*
X93098000Y-52272939D01*
X93137774Y-52472898D01*
X93215795Y-52661256D01*
X93329063Y-52830774D01*
X93473226Y-52974937D01*
X93642744Y-53088205D01*
X93831102Y-53166226D01*
X94031061Y-53206000D01*
X94234939Y-53206000D01*
X94434898Y-53166226D01*
X94623256Y-53088205D01*
X94792774Y-52974937D01*
X94936937Y-52830774D01*
X95050205Y-52661256D01*
X95128226Y-52472898D01*
X95168000Y-52272939D01*
X95168000Y-52069061D01*
X95128226Y-51869102D01*
X95050205Y-51680744D01*
X94936937Y-51511226D01*
X94792774Y-51367063D01*
X94623256Y-51253795D01*
X94434898Y-51175774D01*
X94234939Y-51136000D01*
X94031061Y-51136000D01*
X93831102Y-51175774D01*
X93642744Y-51253795D01*
X93473226Y-51367063D01*
X93329063Y-51511226D01*
X93215795Y-51680744D01*
X93137774Y-51869102D01*
X93098000Y-52069061D01*
X81548201Y-52069061D01*
X81553000Y-52044939D01*
X81553000Y-51841061D01*
X81513226Y-51641102D01*
X81435205Y-51452744D01*
X81321937Y-51283226D01*
X81177774Y-51139063D01*
X81008256Y-51025795D01*
X80819898Y-50947774D01*
X80619939Y-50908000D01*
X80416061Y-50908000D01*
X80216102Y-50947774D01*
X80027744Y-51025795D01*
X79858226Y-51139063D01*
X79714063Y-51283226D01*
X79600795Y-51452744D01*
X79522774Y-51641102D01*
X79483000Y-51841061D01*
X78019650Y-51841061D01*
X78019937Y-51840774D01*
X78133205Y-51671256D01*
X78211226Y-51482898D01*
X78251000Y-51282939D01*
X78251000Y-51079061D01*
X78211226Y-50879102D01*
X78133205Y-50690744D01*
X78019937Y-50521226D01*
X77875774Y-50377063D01*
X77706256Y-50263795D01*
X77517898Y-50185774D01*
X77317939Y-50146000D01*
X77114061Y-50146000D01*
X76914102Y-50185774D01*
X76725744Y-50263795D01*
X76556226Y-50377063D01*
X76412063Y-50521226D01*
X76298795Y-50690744D01*
X76220774Y-50879102D01*
X76181000Y-51079061D01*
X76181000Y-51282939D01*
X76212972Y-51443673D01*
X76152094Y-51455782D01*
X75963736Y-51533803D01*
X75794218Y-51647071D01*
X75650055Y-51791234D01*
X75536787Y-51960752D01*
X75458766Y-52149110D01*
X75418992Y-52349069D01*
X75418992Y-52552947D01*
X75458766Y-52752906D01*
X75521217Y-52903675D01*
X75455744Y-52930795D01*
X75286226Y-53044063D01*
X75142063Y-53188226D01*
X75028795Y-53357744D01*
X74950774Y-53546102D01*
X74911000Y-53746061D01*
X71780000Y-53746061D01*
X71780000Y-49301061D01*
X89135000Y-49301061D01*
X89135000Y-49504939D01*
X89174774Y-49704898D01*
X89252795Y-49893256D01*
X89366063Y-50062774D01*
X89510226Y-50206937D01*
X89679744Y-50320205D01*
X89868102Y-50398226D01*
X90068061Y-50438000D01*
X90271939Y-50438000D01*
X90471898Y-50398226D01*
X90660256Y-50320205D01*
X90829774Y-50206937D01*
X90973937Y-50062774D01*
X91087205Y-49893256D01*
X91165226Y-49704898D01*
X91205000Y-49504939D01*
X91205000Y-49301061D01*
X91179739Y-49174061D01*
X92056000Y-49174061D01*
X92056000Y-49377939D01*
X92095774Y-49577898D01*
X92173795Y-49766256D01*
X92287063Y-49935774D01*
X92431226Y-50079937D01*
X92600744Y-50193205D01*
X92789102Y-50271226D01*
X92989061Y-50311000D01*
X93192939Y-50311000D01*
X93392898Y-50271226D01*
X93581256Y-50193205D01*
X93750774Y-50079937D01*
X93894937Y-49935774D01*
X94008205Y-49766256D01*
X94086226Y-49577898D01*
X94126000Y-49377939D01*
X94126000Y-49174061D01*
X94086226Y-48974102D01*
X94008205Y-48785744D01*
X93894937Y-48616226D01*
X93750774Y-48472063D01*
X93581256Y-48358795D01*
X93392898Y-48280774D01*
X93192939Y-48241000D01*
X92989061Y-48241000D01*
X92789102Y-48280774D01*
X92600744Y-48358795D01*
X92431226Y-48472063D01*
X92287063Y-48616226D01*
X92173795Y-48785744D01*
X92095774Y-48974102D01*
X92056000Y-49174061D01*
X91179739Y-49174061D01*
X91165226Y-49101102D01*
X91087205Y-48912744D01*
X90973937Y-48743226D01*
X90829774Y-48599063D01*
X90660256Y-48485795D01*
X90471898Y-48407774D01*
X90271939Y-48368000D01*
X90068061Y-48368000D01*
X89868102Y-48407774D01*
X89679744Y-48485795D01*
X89510226Y-48599063D01*
X89366063Y-48743226D01*
X89252795Y-48912744D01*
X89174774Y-49101102D01*
X89135000Y-49301061D01*
X71780000Y-49301061D01*
X71780000Y-44870000D01*
X72171928Y-44870000D01*
X72171928Y-46570000D01*
X72184188Y-46694482D01*
X72220498Y-46814180D01*
X72279463Y-46924494D01*
X72358815Y-47021185D01*
X72455506Y-47100537D01*
X72565820Y-47159502D01*
X72685518Y-47195812D01*
X72810000Y-47208072D01*
X74510000Y-47208072D01*
X74634482Y-47195812D01*
X74754180Y-47159502D01*
X74864494Y-47100537D01*
X74961185Y-47021185D01*
X75040537Y-46924494D01*
X75099502Y-46814180D01*
X75121513Y-46741620D01*
X75253368Y-46873475D01*
X75496589Y-47035990D01*
X75766842Y-47147932D01*
X76053740Y-47205000D01*
X76346260Y-47205000D01*
X76633158Y-47147932D01*
X76903411Y-47035990D01*
X77146632Y-46873475D01*
X77353475Y-46666632D01*
X77475195Y-46484466D01*
X77544822Y-46601355D01*
X77739731Y-46817588D01*
X77973080Y-46991641D01*
X78235901Y-47116825D01*
X78383110Y-47161476D01*
X78613000Y-47040155D01*
X78613000Y-45847000D01*
X78593000Y-45847000D01*
X78593000Y-45593000D01*
X78613000Y-45593000D01*
X78613000Y-44399845D01*
X78867000Y-44399845D01*
X78867000Y-45593000D01*
X78887000Y-45593000D01*
X78887000Y-45847000D01*
X78867000Y-45847000D01*
X78867000Y-47040155D01*
X79096890Y-47161476D01*
X79244099Y-47116825D01*
X79506920Y-46991641D01*
X79740269Y-46817588D01*
X79935178Y-46601355D01*
X80004805Y-46484466D01*
X80126525Y-46666632D01*
X80333368Y-46873475D01*
X80576589Y-47035990D01*
X80846842Y-47147932D01*
X81133740Y-47205000D01*
X81426260Y-47205000D01*
X81713158Y-47147932D01*
X81983411Y-47035990D01*
X82226632Y-46873475D01*
X82433475Y-46666632D01*
X82595990Y-46423411D01*
X82707932Y-46153158D01*
X82765000Y-45866260D01*
X82765000Y-45573740D01*
X82707932Y-45286842D01*
X82595990Y-45016589D01*
X82498043Y-44870000D01*
X87411928Y-44870000D01*
X87411928Y-46570000D01*
X87424188Y-46694482D01*
X87460498Y-46814180D01*
X87519463Y-46924494D01*
X87598815Y-47021185D01*
X87695506Y-47100537D01*
X87805820Y-47159502D01*
X87925518Y-47195812D01*
X88050000Y-47208072D01*
X89750000Y-47208072D01*
X89874482Y-47195812D01*
X89994180Y-47159502D01*
X90104494Y-47100537D01*
X90201185Y-47021185D01*
X90280537Y-46924494D01*
X90339502Y-46814180D01*
X90361513Y-46741620D01*
X90493368Y-46873475D01*
X90736589Y-47035990D01*
X91006842Y-47147932D01*
X91293740Y-47205000D01*
X91586260Y-47205000D01*
X91873158Y-47147932D01*
X92143411Y-47035990D01*
X92386632Y-46873475D01*
X92593475Y-46666632D01*
X92710000Y-46492240D01*
X92826525Y-46666632D01*
X93033368Y-46873475D01*
X93276589Y-47035990D01*
X93546842Y-47147932D01*
X93833740Y-47205000D01*
X94126260Y-47205000D01*
X94413158Y-47147932D01*
X94683411Y-47035990D01*
X94926632Y-46873475D01*
X95133475Y-46666632D01*
X95255195Y-46484466D01*
X95324822Y-46601355D01*
X95519731Y-46817588D01*
X95753080Y-46991641D01*
X96015901Y-47116825D01*
X96163110Y-47161476D01*
X96393000Y-47040155D01*
X96393000Y-45847000D01*
X96647000Y-45847000D01*
X96647000Y-47040155D01*
X96876890Y-47161476D01*
X97024099Y-47116825D01*
X97286920Y-46991641D01*
X97520269Y-46817588D01*
X97715178Y-46601355D01*
X97864157Y-46351252D01*
X97961481Y-46076891D01*
X97840814Y-45847000D01*
X96647000Y-45847000D01*
X96393000Y-45847000D01*
X96373000Y-45847000D01*
X96373000Y-45593000D01*
X96393000Y-45593000D01*
X96393000Y-44399845D01*
X96647000Y-44399845D01*
X96647000Y-45593000D01*
X97840814Y-45593000D01*
X97961481Y-45363109D01*
X97864157Y-45088748D01*
X97715178Y-44838645D01*
X97520269Y-44622412D01*
X97286920Y-44448359D01*
X97024099Y-44323175D01*
X96876890Y-44278524D01*
X96647000Y-44399845D01*
X96393000Y-44399845D01*
X96163110Y-44278524D01*
X96015901Y-44323175D01*
X95753080Y-44448359D01*
X95519731Y-44622412D01*
X95324822Y-44838645D01*
X95255195Y-44955534D01*
X95133475Y-44773368D01*
X94926632Y-44566525D01*
X94683411Y-44404010D01*
X94413158Y-44292068D01*
X94126260Y-44235000D01*
X93833740Y-44235000D01*
X93546842Y-44292068D01*
X93276589Y-44404010D01*
X93033368Y-44566525D01*
X92826525Y-44773368D01*
X92710000Y-44947760D01*
X92593475Y-44773368D01*
X92386632Y-44566525D01*
X92143411Y-44404010D01*
X91873158Y-44292068D01*
X91586260Y-44235000D01*
X91293740Y-44235000D01*
X91006842Y-44292068D01*
X90736589Y-44404010D01*
X90493368Y-44566525D01*
X90361513Y-44698380D01*
X90339502Y-44625820D01*
X90280537Y-44515506D01*
X90201185Y-44418815D01*
X90104494Y-44339463D01*
X89994180Y-44280498D01*
X89874482Y-44244188D01*
X89750000Y-44231928D01*
X88050000Y-44231928D01*
X87925518Y-44244188D01*
X87805820Y-44280498D01*
X87695506Y-44339463D01*
X87598815Y-44418815D01*
X87519463Y-44515506D01*
X87460498Y-44625820D01*
X87424188Y-44745518D01*
X87411928Y-44870000D01*
X82498043Y-44870000D01*
X82433475Y-44773368D01*
X82226632Y-44566525D01*
X81983411Y-44404010D01*
X81713158Y-44292068D01*
X81426260Y-44235000D01*
X81133740Y-44235000D01*
X80846842Y-44292068D01*
X80576589Y-44404010D01*
X80333368Y-44566525D01*
X80126525Y-44773368D01*
X80004805Y-44955534D01*
X79935178Y-44838645D01*
X79740269Y-44622412D01*
X79506920Y-44448359D01*
X79244099Y-44323175D01*
X79096890Y-44278524D01*
X78867000Y-44399845D01*
X78613000Y-44399845D01*
X78383110Y-44278524D01*
X78235901Y-44323175D01*
X77973080Y-44448359D01*
X77739731Y-44622412D01*
X77544822Y-44838645D01*
X77475195Y-44955534D01*
X77353475Y-44773368D01*
X77146632Y-44566525D01*
X76903411Y-44404010D01*
X76633158Y-44292068D01*
X76346260Y-44235000D01*
X76053740Y-44235000D01*
X75766842Y-44292068D01*
X75496589Y-44404010D01*
X75253368Y-44566525D01*
X75121513Y-44698380D01*
X75099502Y-44625820D01*
X75040537Y-44515506D01*
X74961185Y-44418815D01*
X74864494Y-44339463D01*
X74754180Y-44280498D01*
X74634482Y-44244188D01*
X74510000Y-44231928D01*
X72810000Y-44231928D01*
X72685518Y-44244188D01*
X72565820Y-44280498D01*
X72455506Y-44339463D01*
X72358815Y-44418815D01*
X72279463Y-44515506D01*
X72220498Y-44625820D01*
X72184188Y-44745518D01*
X72171928Y-44870000D01*
X71780000Y-44870000D01*
X71780000Y-43840000D01*
X98400001Y-43840000D01*
X98400001Y-49057290D01*
G04 #@! TA.AperFunction,Conductor*
D14*
G36*
X98400001Y-49057290D02*
G01*
X98322774Y-48980063D01*
X98153256Y-48866795D01*
X97964898Y-48788774D01*
X97764939Y-48749000D01*
X97561061Y-48749000D01*
X97361102Y-48788774D01*
X97172744Y-48866795D01*
X97003226Y-48980063D01*
X96859063Y-49124226D01*
X96745795Y-49293744D01*
X96692160Y-49423229D01*
X96494939Y-49384000D01*
X96291061Y-49384000D01*
X96091102Y-49423774D01*
X95902744Y-49501795D01*
X95733226Y-49615063D01*
X95589063Y-49759226D01*
X95475795Y-49928744D01*
X95397774Y-50117102D01*
X95358000Y-50317061D01*
X95358000Y-50520939D01*
X95397774Y-50720898D01*
X95475795Y-50909256D01*
X95589063Y-51078774D01*
X95733226Y-51222937D01*
X95902744Y-51336205D01*
X96091102Y-51414226D01*
X96291061Y-51454000D01*
X96494939Y-51454000D01*
X96694898Y-51414226D01*
X96883256Y-51336205D01*
X97052774Y-51222937D01*
X97196937Y-51078774D01*
X97310205Y-50909256D01*
X97363840Y-50779771D01*
X97561061Y-50819000D01*
X97764939Y-50819000D01*
X97964898Y-50779226D01*
X98153256Y-50701205D01*
X98322774Y-50587937D01*
X98400001Y-50510710D01*
X98400000Y-55099000D01*
X98323061Y-55099000D01*
X98123102Y-55138774D01*
X97934744Y-55216795D01*
X97765226Y-55330063D01*
X97621063Y-55474226D01*
X97507795Y-55643744D01*
X97429774Y-55832102D01*
X97390000Y-56032061D01*
X97390000Y-56235939D01*
X97429774Y-56435898D01*
X97507795Y-56624256D01*
X97621063Y-56793774D01*
X97765226Y-56937937D01*
X97934744Y-57051205D01*
X98123102Y-57129226D01*
X98323061Y-57169000D01*
X98400000Y-57169000D01*
X98400000Y-62840000D01*
X71780000Y-62840000D01*
X71780000Y-60110000D01*
X72171928Y-60110000D01*
X72171928Y-61810000D01*
X72184188Y-61934482D01*
X72220498Y-62054180D01*
X72279463Y-62164494D01*
X72358815Y-62261185D01*
X72455506Y-62340537D01*
X72565820Y-62399502D01*
X72685518Y-62435812D01*
X72810000Y-62448072D01*
X74510000Y-62448072D01*
X74634482Y-62435812D01*
X74754180Y-62399502D01*
X74864494Y-62340537D01*
X74961185Y-62261185D01*
X75040537Y-62164494D01*
X75099502Y-62054180D01*
X75121513Y-61981620D01*
X75253368Y-62113475D01*
X75496589Y-62275990D01*
X75766842Y-62387932D01*
X76053740Y-62445000D01*
X76346260Y-62445000D01*
X76633158Y-62387932D01*
X76903411Y-62275990D01*
X77146632Y-62113475D01*
X77353475Y-61906632D01*
X77475195Y-61724466D01*
X77544822Y-61841355D01*
X77739731Y-62057588D01*
X77973080Y-62231641D01*
X78235901Y-62356825D01*
X78383110Y-62401476D01*
X78613000Y-62280155D01*
X78613000Y-61087000D01*
X78593000Y-61087000D01*
X78593000Y-60833000D01*
X78613000Y-60833000D01*
X78613000Y-59639845D01*
X78867000Y-59639845D01*
X78867000Y-60833000D01*
X78887000Y-60833000D01*
X78887000Y-61087000D01*
X78867000Y-61087000D01*
X78867000Y-62280155D01*
X79096890Y-62401476D01*
X79244099Y-62356825D01*
X79506920Y-62231641D01*
X79740269Y-62057588D01*
X79935178Y-61841355D01*
X80004805Y-61724466D01*
X80126525Y-61906632D01*
X80333368Y-62113475D01*
X80576589Y-62275990D01*
X80846842Y-62387932D01*
X81133740Y-62445000D01*
X81426260Y-62445000D01*
X81713158Y-62387932D01*
X81983411Y-62275990D01*
X82226632Y-62113475D01*
X82433475Y-61906632D01*
X82550000Y-61732240D01*
X82666525Y-61906632D01*
X82873368Y-62113475D01*
X83116589Y-62275990D01*
X83386842Y-62387932D01*
X83673740Y-62445000D01*
X83966260Y-62445000D01*
X84253158Y-62387932D01*
X84523411Y-62275990D01*
X84766632Y-62113475D01*
X84973475Y-61906632D01*
X85090000Y-61732240D01*
X85206525Y-61906632D01*
X85413368Y-62113475D01*
X85656589Y-62275990D01*
X85926842Y-62387932D01*
X86213740Y-62445000D01*
X86506260Y-62445000D01*
X86793158Y-62387932D01*
X87063411Y-62275990D01*
X87306632Y-62113475D01*
X87513475Y-61906632D01*
X87630000Y-61732240D01*
X87746525Y-61906632D01*
X87953368Y-62113475D01*
X88196589Y-62275990D01*
X88466842Y-62387932D01*
X88753740Y-62445000D01*
X89046260Y-62445000D01*
X89333158Y-62387932D01*
X89603411Y-62275990D01*
X89846632Y-62113475D01*
X90053475Y-61906632D01*
X90170000Y-61732240D01*
X90286525Y-61906632D01*
X90493368Y-62113475D01*
X90736589Y-62275990D01*
X91006842Y-62387932D01*
X91293740Y-62445000D01*
X91586260Y-62445000D01*
X91873158Y-62387932D01*
X92143411Y-62275990D01*
X92386632Y-62113475D01*
X92593475Y-61906632D01*
X92710000Y-61732240D01*
X92826525Y-61906632D01*
X93033368Y-62113475D01*
X93276589Y-62275990D01*
X93546842Y-62387932D01*
X93833740Y-62445000D01*
X94126260Y-62445000D01*
X94413158Y-62387932D01*
X94683411Y-62275990D01*
X94926632Y-62113475D01*
X95133475Y-61906632D01*
X95255195Y-61724466D01*
X95324822Y-61841355D01*
X95519731Y-62057588D01*
X95753080Y-62231641D01*
X96015901Y-62356825D01*
X96163110Y-62401476D01*
X96393000Y-62280155D01*
X96393000Y-61087000D01*
X96647000Y-61087000D01*
X96647000Y-62280155D01*
X96876890Y-62401476D01*
X97024099Y-62356825D01*
X97286920Y-62231641D01*
X97520269Y-62057588D01*
X97715178Y-61841355D01*
X97864157Y-61591252D01*
X97961481Y-61316891D01*
X97840814Y-61087000D01*
X96647000Y-61087000D01*
X96393000Y-61087000D01*
X96373000Y-61087000D01*
X96373000Y-60833000D01*
X96393000Y-60833000D01*
X96393000Y-59639845D01*
X96647000Y-59639845D01*
X96647000Y-60833000D01*
X97840814Y-60833000D01*
X97961481Y-60603109D01*
X97864157Y-60328748D01*
X97715178Y-60078645D01*
X97520269Y-59862412D01*
X97286920Y-59688359D01*
X97024099Y-59563175D01*
X96876890Y-59518524D01*
X96647000Y-59639845D01*
X96393000Y-59639845D01*
X96163110Y-59518524D01*
X96015901Y-59563175D01*
X95753080Y-59688359D01*
X95519731Y-59862412D01*
X95324822Y-60078645D01*
X95255195Y-60195534D01*
X95133475Y-60013368D01*
X94926632Y-59806525D01*
X94683411Y-59644010D01*
X94413158Y-59532068D01*
X94126260Y-59475000D01*
X93833740Y-59475000D01*
X93546842Y-59532068D01*
X93276589Y-59644010D01*
X93033368Y-59806525D01*
X92826525Y-60013368D01*
X92710000Y-60187760D01*
X92593475Y-60013368D01*
X92386632Y-59806525D01*
X92143411Y-59644010D01*
X91873158Y-59532068D01*
X91586260Y-59475000D01*
X91293740Y-59475000D01*
X91006842Y-59532068D01*
X90736589Y-59644010D01*
X90493368Y-59806525D01*
X90286525Y-60013368D01*
X90170000Y-60187760D01*
X90053475Y-60013368D01*
X89846632Y-59806525D01*
X89603411Y-59644010D01*
X89333158Y-59532068D01*
X89046260Y-59475000D01*
X88753740Y-59475000D01*
X88466842Y-59532068D01*
X88196589Y-59644010D01*
X87953368Y-59806525D01*
X87746525Y-60013368D01*
X87630000Y-60187760D01*
X87513475Y-60013368D01*
X87306632Y-59806525D01*
X87063411Y-59644010D01*
X86793158Y-59532068D01*
X86506260Y-59475000D01*
X86213740Y-59475000D01*
X85926842Y-59532068D01*
X85656589Y-59644010D01*
X85617000Y-59670463D01*
X85617000Y-59588061D01*
X85577226Y-59388102D01*
X85499205Y-59199744D01*
X85385937Y-59030226D01*
X85241774Y-58886063D01*
X85072256Y-58772795D01*
X84883898Y-58694774D01*
X84683939Y-58655000D01*
X84480061Y-58655000D01*
X84280102Y-58694774D01*
X84091744Y-58772795D01*
X83922226Y-58886063D01*
X83778063Y-59030226D01*
X83664795Y-59199744D01*
X83586774Y-59388102D01*
X83565194Y-59496591D01*
X83386842Y-59532068D01*
X83116589Y-59644010D01*
X82873368Y-59806525D01*
X82666525Y-60013368D01*
X82550000Y-60187760D01*
X82433475Y-60013368D01*
X82226632Y-59806525D01*
X81983411Y-59644010D01*
X81713158Y-59532068D01*
X81426260Y-59475000D01*
X81133740Y-59475000D01*
X80846842Y-59532068D01*
X80576589Y-59644010D01*
X80333368Y-59806525D01*
X80126525Y-60013368D01*
X80004805Y-60195534D01*
X79935178Y-60078645D01*
X79740269Y-59862412D01*
X79506920Y-59688359D01*
X79244099Y-59563175D01*
X79096890Y-59518524D01*
X78867000Y-59639845D01*
X78613000Y-59639845D01*
X78383110Y-59518524D01*
X78235901Y-59563175D01*
X77973080Y-59688359D01*
X77739731Y-59862412D01*
X77544822Y-60078645D01*
X77475195Y-60195534D01*
X77353475Y-60013368D01*
X77146632Y-59806525D01*
X76903411Y-59644010D01*
X76633158Y-59532068D01*
X76346260Y-59475000D01*
X76053740Y-59475000D01*
X75766842Y-59532068D01*
X75496589Y-59644010D01*
X75253368Y-59806525D01*
X75121513Y-59938380D01*
X75099502Y-59865820D01*
X75040537Y-59755506D01*
X74961185Y-59658815D01*
X74864494Y-59579463D01*
X74754180Y-59520498D01*
X74634482Y-59484188D01*
X74510000Y-59471928D01*
X72810000Y-59471928D01*
X72685518Y-59484188D01*
X72565820Y-59520498D01*
X72455506Y-59579463D01*
X72358815Y-59658815D01*
X72279463Y-59755506D01*
X72220498Y-59865820D01*
X72184188Y-59985518D01*
X72171928Y-60110000D01*
X71780000Y-60110000D01*
X71780000Y-58191061D01*
X87611000Y-58191061D01*
X87611000Y-58394939D01*
X87650774Y-58594898D01*
X87728795Y-58783256D01*
X87842063Y-58952774D01*
X87986226Y-59096937D01*
X88155744Y-59210205D01*
X88344102Y-59288226D01*
X88544061Y-59328000D01*
X88747939Y-59328000D01*
X88947898Y-59288226D01*
X89136256Y-59210205D01*
X89305774Y-59096937D01*
X89449937Y-58952774D01*
X89563205Y-58783256D01*
X89641226Y-58594898D01*
X89681000Y-58394939D01*
X89681000Y-58191061D01*
X89641226Y-57991102D01*
X89566237Y-57810063D01*
X93961000Y-57810063D01*
X93961000Y-58013941D01*
X94000774Y-58213900D01*
X94078795Y-58402258D01*
X94192063Y-58571776D01*
X94336226Y-58715939D01*
X94505744Y-58829207D01*
X94694102Y-58907228D01*
X94894061Y-58947002D01*
X95097939Y-58947002D01*
X95297898Y-58907228D01*
X95486256Y-58829207D01*
X95655774Y-58715939D01*
X95799937Y-58571776D01*
X95913205Y-58402258D01*
X95991226Y-58213900D01*
X96031000Y-58013941D01*
X96031000Y-57810063D01*
X95991226Y-57610104D01*
X95913205Y-57421746D01*
X95799937Y-57252228D01*
X95655774Y-57108065D01*
X95486256Y-56994797D01*
X95297898Y-56916776D01*
X95097939Y-56877002D01*
X94894061Y-56877002D01*
X94694102Y-56916776D01*
X94505744Y-56994797D01*
X94336226Y-57108065D01*
X94192063Y-57252228D01*
X94078795Y-57421746D01*
X94000774Y-57610104D01*
X93961000Y-57810063D01*
X89566237Y-57810063D01*
X89563205Y-57802744D01*
X89449937Y-57633226D01*
X89305774Y-57489063D01*
X89136256Y-57375795D01*
X88947898Y-57297774D01*
X88747939Y-57258000D01*
X88544061Y-57258000D01*
X88344102Y-57297774D01*
X88155744Y-57375795D01*
X87986226Y-57489063D01*
X87842063Y-57633226D01*
X87728795Y-57802744D01*
X87650774Y-57991102D01*
X87611000Y-58191061D01*
X71780000Y-58191061D01*
X71780000Y-55524061D01*
X95358000Y-55524061D01*
X95358000Y-55727939D01*
X95397774Y-55927898D01*
X95475795Y-56116256D01*
X95589063Y-56285774D01*
X95733226Y-56429937D01*
X95902744Y-56543205D01*
X96091102Y-56621226D01*
X96291061Y-56661000D01*
X96494939Y-56661000D01*
X96694898Y-56621226D01*
X96883256Y-56543205D01*
X97052774Y-56429937D01*
X97196937Y-56285774D01*
X97310205Y-56116256D01*
X97388226Y-55927898D01*
X97428000Y-55727939D01*
X97428000Y-55524061D01*
X97388226Y-55324102D01*
X97310205Y-55135744D01*
X97196937Y-54966226D01*
X97052774Y-54822063D01*
X96883256Y-54708795D01*
X96694898Y-54630774D01*
X96494939Y-54591000D01*
X96291061Y-54591000D01*
X96091102Y-54630774D01*
X95902744Y-54708795D01*
X95733226Y-54822063D01*
X95589063Y-54966226D01*
X95475795Y-55135744D01*
X95397774Y-55324102D01*
X95358000Y-55524061D01*
X71780000Y-55524061D01*
X71780000Y-53746061D01*
X74911000Y-53746061D01*
X74911000Y-53949939D01*
X74950774Y-54149898D01*
X75028795Y-54338256D01*
X75142063Y-54507774D01*
X75286226Y-54651937D01*
X75455744Y-54765205D01*
X75644102Y-54843226D01*
X75844061Y-54883000D01*
X76047939Y-54883000D01*
X76247898Y-54843226D01*
X76436256Y-54765205D01*
X76605774Y-54651937D01*
X76749937Y-54507774D01*
X76863205Y-54338256D01*
X76941226Y-54149898D01*
X76945768Y-54127061D01*
X87230000Y-54127061D01*
X87230000Y-54330939D01*
X87269774Y-54530898D01*
X87347795Y-54719256D01*
X87461063Y-54888774D01*
X87605226Y-55032937D01*
X87774744Y-55146205D01*
X87963102Y-55224226D01*
X88163061Y-55264000D01*
X88366939Y-55264000D01*
X88566898Y-55224226D01*
X88755256Y-55146205D01*
X88924774Y-55032937D01*
X89068937Y-54888774D01*
X89182205Y-54719256D01*
X89260226Y-54530898D01*
X89300000Y-54330939D01*
X89300000Y-54127061D01*
X89260226Y-53927102D01*
X89182205Y-53738744D01*
X89068937Y-53569226D01*
X88924774Y-53425063D01*
X88755256Y-53311795D01*
X88566898Y-53233774D01*
X88366939Y-53194000D01*
X88163061Y-53194000D01*
X87963102Y-53233774D01*
X87774744Y-53311795D01*
X87605226Y-53425063D01*
X87461063Y-53569226D01*
X87347795Y-53738744D01*
X87269774Y-53927102D01*
X87230000Y-54127061D01*
X76945768Y-54127061D01*
X76981000Y-53949939D01*
X76981000Y-53746061D01*
X76941226Y-53546102D01*
X76878775Y-53395333D01*
X76944248Y-53368213D01*
X77113766Y-53254945D01*
X77257929Y-53110782D01*
X77371197Y-52941264D01*
X77449218Y-52752906D01*
X77488992Y-52552947D01*
X77488992Y-52349069D01*
X77457020Y-52188335D01*
X77517898Y-52176226D01*
X77706256Y-52098205D01*
X77875774Y-51984937D01*
X78019650Y-51841061D01*
X79483000Y-51841061D01*
X79483000Y-52044939D01*
X79522774Y-52244898D01*
X79600795Y-52433256D01*
X79714063Y-52602774D01*
X79858226Y-52746937D01*
X80027744Y-52860205D01*
X80216102Y-52938226D01*
X80416061Y-52978000D01*
X80619939Y-52978000D01*
X80819898Y-52938226D01*
X81008256Y-52860205D01*
X81177774Y-52746937D01*
X81321937Y-52602774D01*
X81435205Y-52433256D01*
X81513226Y-52244898D01*
X81548201Y-52069061D01*
X93098000Y-52069061D01*
X93098000Y-52272939D01*
X93137774Y-52472898D01*
X93215795Y-52661256D01*
X93329063Y-52830774D01*
X93473226Y-52974937D01*
X93642744Y-53088205D01*
X93831102Y-53166226D01*
X94031061Y-53206000D01*
X94234939Y-53206000D01*
X94434898Y-53166226D01*
X94623256Y-53088205D01*
X94792774Y-52974937D01*
X94936937Y-52830774D01*
X95050205Y-52661256D01*
X95128226Y-52472898D01*
X95168000Y-52272939D01*
X95168000Y-52069061D01*
X95128226Y-51869102D01*
X95050205Y-51680744D01*
X94936937Y-51511226D01*
X94792774Y-51367063D01*
X94623256Y-51253795D01*
X94434898Y-51175774D01*
X94234939Y-51136000D01*
X94031061Y-51136000D01*
X93831102Y-51175774D01*
X93642744Y-51253795D01*
X93473226Y-51367063D01*
X93329063Y-51511226D01*
X93215795Y-51680744D01*
X93137774Y-51869102D01*
X93098000Y-52069061D01*
X81548201Y-52069061D01*
X81553000Y-52044939D01*
X81553000Y-51841061D01*
X81513226Y-51641102D01*
X81435205Y-51452744D01*
X81321937Y-51283226D01*
X81177774Y-51139063D01*
X81008256Y-51025795D01*
X80819898Y-50947774D01*
X80619939Y-50908000D01*
X80416061Y-50908000D01*
X80216102Y-50947774D01*
X80027744Y-51025795D01*
X79858226Y-51139063D01*
X79714063Y-51283226D01*
X79600795Y-51452744D01*
X79522774Y-51641102D01*
X79483000Y-51841061D01*
X78019650Y-51841061D01*
X78019937Y-51840774D01*
X78133205Y-51671256D01*
X78211226Y-51482898D01*
X78251000Y-51282939D01*
X78251000Y-51079061D01*
X78211226Y-50879102D01*
X78133205Y-50690744D01*
X78019937Y-50521226D01*
X77875774Y-50377063D01*
X77706256Y-50263795D01*
X77517898Y-50185774D01*
X77317939Y-50146000D01*
X77114061Y-50146000D01*
X76914102Y-50185774D01*
X76725744Y-50263795D01*
X76556226Y-50377063D01*
X76412063Y-50521226D01*
X76298795Y-50690744D01*
X76220774Y-50879102D01*
X76181000Y-51079061D01*
X76181000Y-51282939D01*
X76212972Y-51443673D01*
X76152094Y-51455782D01*
X75963736Y-51533803D01*
X75794218Y-51647071D01*
X75650055Y-51791234D01*
X75536787Y-51960752D01*
X75458766Y-52149110D01*
X75418992Y-52349069D01*
X75418992Y-52552947D01*
X75458766Y-52752906D01*
X75521217Y-52903675D01*
X75455744Y-52930795D01*
X75286226Y-53044063D01*
X75142063Y-53188226D01*
X75028795Y-53357744D01*
X74950774Y-53546102D01*
X74911000Y-53746061D01*
X71780000Y-53746061D01*
X71780000Y-49301061D01*
X89135000Y-49301061D01*
X89135000Y-49504939D01*
X89174774Y-49704898D01*
X89252795Y-49893256D01*
X89366063Y-50062774D01*
X89510226Y-50206937D01*
X89679744Y-50320205D01*
X89868102Y-50398226D01*
X90068061Y-50438000D01*
X90271939Y-50438000D01*
X90471898Y-50398226D01*
X90660256Y-50320205D01*
X90829774Y-50206937D01*
X90973937Y-50062774D01*
X91087205Y-49893256D01*
X91165226Y-49704898D01*
X91205000Y-49504939D01*
X91205000Y-49301061D01*
X91179739Y-49174061D01*
X92056000Y-49174061D01*
X92056000Y-49377939D01*
X92095774Y-49577898D01*
X92173795Y-49766256D01*
X92287063Y-49935774D01*
X92431226Y-50079937D01*
X92600744Y-50193205D01*
X92789102Y-50271226D01*
X92989061Y-50311000D01*
X93192939Y-50311000D01*
X93392898Y-50271226D01*
X93581256Y-50193205D01*
X93750774Y-50079937D01*
X93894937Y-49935774D01*
X94008205Y-49766256D01*
X94086226Y-49577898D01*
X94126000Y-49377939D01*
X94126000Y-49174061D01*
X94086226Y-48974102D01*
X94008205Y-48785744D01*
X93894937Y-48616226D01*
X93750774Y-48472063D01*
X93581256Y-48358795D01*
X93392898Y-48280774D01*
X93192939Y-48241000D01*
X92989061Y-48241000D01*
X92789102Y-48280774D01*
X92600744Y-48358795D01*
X92431226Y-48472063D01*
X92287063Y-48616226D01*
X92173795Y-48785744D01*
X92095774Y-48974102D01*
X92056000Y-49174061D01*
X91179739Y-49174061D01*
X91165226Y-49101102D01*
X91087205Y-48912744D01*
X90973937Y-48743226D01*
X90829774Y-48599063D01*
X90660256Y-48485795D01*
X90471898Y-48407774D01*
X90271939Y-48368000D01*
X90068061Y-48368000D01*
X89868102Y-48407774D01*
X89679744Y-48485795D01*
X89510226Y-48599063D01*
X89366063Y-48743226D01*
X89252795Y-48912744D01*
X89174774Y-49101102D01*
X89135000Y-49301061D01*
X71780000Y-49301061D01*
X71780000Y-44870000D01*
X72171928Y-44870000D01*
X72171928Y-46570000D01*
X72184188Y-46694482D01*
X72220498Y-46814180D01*
X72279463Y-46924494D01*
X72358815Y-47021185D01*
X72455506Y-47100537D01*
X72565820Y-47159502D01*
X72685518Y-47195812D01*
X72810000Y-47208072D01*
X74510000Y-47208072D01*
X74634482Y-47195812D01*
X74754180Y-47159502D01*
X74864494Y-47100537D01*
X74961185Y-47021185D01*
X75040537Y-46924494D01*
X75099502Y-46814180D01*
X75121513Y-46741620D01*
X75253368Y-46873475D01*
X75496589Y-47035990D01*
X75766842Y-47147932D01*
X76053740Y-47205000D01*
X76346260Y-47205000D01*
X76633158Y-47147932D01*
X76903411Y-47035990D01*
X77146632Y-46873475D01*
X77353475Y-46666632D01*
X77475195Y-46484466D01*
X77544822Y-46601355D01*
X77739731Y-46817588D01*
X77973080Y-46991641D01*
X78235901Y-47116825D01*
X78383110Y-47161476D01*
X78613000Y-47040155D01*
X78613000Y-45847000D01*
X78593000Y-45847000D01*
X78593000Y-45593000D01*
X78613000Y-45593000D01*
X78613000Y-44399845D01*
X78867000Y-44399845D01*
X78867000Y-45593000D01*
X78887000Y-45593000D01*
X78887000Y-45847000D01*
X78867000Y-45847000D01*
X78867000Y-47040155D01*
X79096890Y-47161476D01*
X79244099Y-47116825D01*
X79506920Y-46991641D01*
X79740269Y-46817588D01*
X79935178Y-46601355D01*
X80004805Y-46484466D01*
X80126525Y-46666632D01*
X80333368Y-46873475D01*
X80576589Y-47035990D01*
X80846842Y-47147932D01*
X81133740Y-47205000D01*
X81426260Y-47205000D01*
X81713158Y-47147932D01*
X81983411Y-47035990D01*
X82226632Y-46873475D01*
X82433475Y-46666632D01*
X82595990Y-46423411D01*
X82707932Y-46153158D01*
X82765000Y-45866260D01*
X82765000Y-45573740D01*
X82707932Y-45286842D01*
X82595990Y-45016589D01*
X82498043Y-44870000D01*
X87411928Y-44870000D01*
X87411928Y-46570000D01*
X87424188Y-46694482D01*
X87460498Y-46814180D01*
X87519463Y-46924494D01*
X87598815Y-47021185D01*
X87695506Y-47100537D01*
X87805820Y-47159502D01*
X87925518Y-47195812D01*
X88050000Y-47208072D01*
X89750000Y-47208072D01*
X89874482Y-47195812D01*
X89994180Y-47159502D01*
X90104494Y-47100537D01*
X90201185Y-47021185D01*
X90280537Y-46924494D01*
X90339502Y-46814180D01*
X90361513Y-46741620D01*
X90493368Y-46873475D01*
X90736589Y-47035990D01*
X91006842Y-47147932D01*
X91293740Y-47205000D01*
X91586260Y-47205000D01*
X91873158Y-47147932D01*
X92143411Y-47035990D01*
X92386632Y-46873475D01*
X92593475Y-46666632D01*
X92710000Y-46492240D01*
X92826525Y-46666632D01*
X93033368Y-46873475D01*
X93276589Y-47035990D01*
X93546842Y-47147932D01*
X93833740Y-47205000D01*
X94126260Y-47205000D01*
X94413158Y-47147932D01*
X94683411Y-47035990D01*
X94926632Y-46873475D01*
X95133475Y-46666632D01*
X95255195Y-46484466D01*
X95324822Y-46601355D01*
X95519731Y-46817588D01*
X95753080Y-46991641D01*
X96015901Y-47116825D01*
X96163110Y-47161476D01*
X96393000Y-47040155D01*
X96393000Y-45847000D01*
X96647000Y-45847000D01*
X96647000Y-47040155D01*
X96876890Y-47161476D01*
X97024099Y-47116825D01*
X97286920Y-46991641D01*
X97520269Y-46817588D01*
X97715178Y-46601355D01*
X97864157Y-46351252D01*
X97961481Y-46076891D01*
X97840814Y-45847000D01*
X96647000Y-45847000D01*
X96393000Y-45847000D01*
X96373000Y-45847000D01*
X96373000Y-45593000D01*
X96393000Y-45593000D01*
X96393000Y-44399845D01*
X96647000Y-44399845D01*
X96647000Y-45593000D01*
X97840814Y-45593000D01*
X97961481Y-45363109D01*
X97864157Y-45088748D01*
X97715178Y-44838645D01*
X97520269Y-44622412D01*
X97286920Y-44448359D01*
X97024099Y-44323175D01*
X96876890Y-44278524D01*
X96647000Y-44399845D01*
X96393000Y-44399845D01*
X96163110Y-44278524D01*
X96015901Y-44323175D01*
X95753080Y-44448359D01*
X95519731Y-44622412D01*
X95324822Y-44838645D01*
X95255195Y-44955534D01*
X95133475Y-44773368D01*
X94926632Y-44566525D01*
X94683411Y-44404010D01*
X94413158Y-44292068D01*
X94126260Y-44235000D01*
X93833740Y-44235000D01*
X93546842Y-44292068D01*
X93276589Y-44404010D01*
X93033368Y-44566525D01*
X92826525Y-44773368D01*
X92710000Y-44947760D01*
X92593475Y-44773368D01*
X92386632Y-44566525D01*
X92143411Y-44404010D01*
X91873158Y-44292068D01*
X91586260Y-44235000D01*
X91293740Y-44235000D01*
X91006842Y-44292068D01*
X90736589Y-44404010D01*
X90493368Y-44566525D01*
X90361513Y-44698380D01*
X90339502Y-44625820D01*
X90280537Y-44515506D01*
X90201185Y-44418815D01*
X90104494Y-44339463D01*
X89994180Y-44280498D01*
X89874482Y-44244188D01*
X89750000Y-44231928D01*
X88050000Y-44231928D01*
X87925518Y-44244188D01*
X87805820Y-44280498D01*
X87695506Y-44339463D01*
X87598815Y-44418815D01*
X87519463Y-44515506D01*
X87460498Y-44625820D01*
X87424188Y-44745518D01*
X87411928Y-44870000D01*
X82498043Y-44870000D01*
X82433475Y-44773368D01*
X82226632Y-44566525D01*
X81983411Y-44404010D01*
X81713158Y-44292068D01*
X81426260Y-44235000D01*
X81133740Y-44235000D01*
X80846842Y-44292068D01*
X80576589Y-44404010D01*
X80333368Y-44566525D01*
X80126525Y-44773368D01*
X80004805Y-44955534D01*
X79935178Y-44838645D01*
X79740269Y-44622412D01*
X79506920Y-44448359D01*
X79244099Y-44323175D01*
X79096890Y-44278524D01*
X78867000Y-44399845D01*
X78613000Y-44399845D01*
X78383110Y-44278524D01*
X78235901Y-44323175D01*
X77973080Y-44448359D01*
X77739731Y-44622412D01*
X77544822Y-44838645D01*
X77475195Y-44955534D01*
X77353475Y-44773368D01*
X77146632Y-44566525D01*
X76903411Y-44404010D01*
X76633158Y-44292068D01*
X76346260Y-44235000D01*
X76053740Y-44235000D01*
X75766842Y-44292068D01*
X75496589Y-44404010D01*
X75253368Y-44566525D01*
X75121513Y-44698380D01*
X75099502Y-44625820D01*
X75040537Y-44515506D01*
X74961185Y-44418815D01*
X74864494Y-44339463D01*
X74754180Y-44280498D01*
X74634482Y-44244188D01*
X74510000Y-44231928D01*
X72810000Y-44231928D01*
X72685518Y-44244188D01*
X72565820Y-44280498D01*
X72455506Y-44339463D01*
X72358815Y-44418815D01*
X72279463Y-44515506D01*
X72220498Y-44625820D01*
X72184188Y-44745518D01*
X72171928Y-44870000D01*
X71780000Y-44870000D01*
X71780000Y-43840000D01*
X98400001Y-43840000D01*
X98400001Y-49057290D01*
G37*
G04 #@! TD.AperFunction*
M02*
