M48
; DRILL file {KiCad 5.1.10-88a1d61d58~88~ubuntu20.04.1} date Sat Jun 12 08:27:09 2021
; FORMAT={-:-/ absolute / metric / decimal}
; #@! TF.CreationDate,2021-06-12T08:27:09-04:00
; #@! TF.GenerationSoftware,Kicad,Pcbnew,5.1.10-88a1d61d58~88~ubuntu20.04.1
; #@! TF.FileFunction,Plated,1,4,PTH
FMAT,2
METRIC
T1C0.400
T2C1.000
%
G90
G05
T1
X72.39Y-59.182
X74.168Y-59.182
X75.692Y-59.182
X75.946Y-53.848
X76.454Y-52.451
X77.216Y-51.181
X80.01Y-48.387
X80.518Y-51.943
X83.185Y-46.736
X84.582Y-59.69
X86.487Y-53.721
X88.265Y-54.229
X88.646Y-56.134
X88.646Y-58.293
X90.17Y-49.403
X92.837Y-55.245
X93.091Y-49.276
X94.133Y-52.171
X94.361Y-54.229
X94.996Y-57.912
X96.393Y-50.419
X96.393Y-55.626
X97.409Y-54.864
X97.663Y-49.784
X98.425Y-56.134
T2
X73.66Y-45.72
X73.66Y-60.96
X76.2Y-45.72
X76.2Y-60.96
X78.74Y-45.72
X78.74Y-60.96
X81.28Y-45.72
X81.28Y-60.96
X83.82Y-60.96
X86.36Y-60.96
X88.9Y-45.72
X88.9Y-60.96
X91.44Y-45.72
X91.44Y-60.96
X93.98Y-45.72
X93.98Y-60.96
X96.52Y-45.72
X96.52Y-60.96
T0
M30
