%FSLAX45Y45*%
G04 Gerber Fmt 4.5, Leading zero omitted, Abs format (unit mm)*
G04 Created by KiCad (PCBNEW 5.1.10-88a1d61d58~88~ubuntu20.04.1) date 2021-06-12 08:27:31*
%MOMM*%
%LPD*%
G01*
G04 APERTURE LIST*
%TA.AperFunction,Profile*%
%ADD10C,0.050000*%
%TD*%
%ADD11C,0.200000*%
%ADD12C,0.300000*%
G04 APERTURE END LIST*
D10*
X7112000Y-6350000D02*
X9906000Y-6350000D01*
X7112000Y-4318000D02*
X7112000Y-6350000D01*
X9906000Y-4318000D02*
X7112000Y-4318000D01*
X9906000Y-6350000D02*
X9906000Y-4318000D01*
D11*
X7219000Y-5898200D02*
X7259000Y-5938200D01*
X7259000Y-5898200D02*
X7219000Y-5938200D01*
X7396800Y-5898200D02*
X7436800Y-5938200D01*
X7436800Y-5898200D02*
X7396800Y-5938200D01*
X7549200Y-5898200D02*
X7589200Y-5938200D01*
X7589200Y-5898200D02*
X7549200Y-5938200D01*
X7574600Y-5364800D02*
X7614600Y-5404800D01*
X7614600Y-5364800D02*
X7574600Y-5404800D01*
X7625399Y-5225101D02*
X7665399Y-5265101D01*
X7665399Y-5225101D02*
X7625399Y-5265101D01*
X7701600Y-5098100D02*
X7741600Y-5138100D01*
X7741600Y-5098100D02*
X7701600Y-5138100D01*
X7981000Y-4818700D02*
X8021000Y-4858700D01*
X8021000Y-4818700D02*
X7981000Y-4858700D01*
X8031800Y-5174300D02*
X8071800Y-5214300D01*
X8071800Y-5174300D02*
X8031800Y-5214300D01*
X8298500Y-4653600D02*
X8338500Y-4693600D01*
X8338500Y-4653600D02*
X8298500Y-4693600D01*
X8438200Y-5949000D02*
X8478200Y-5989000D01*
X8478200Y-5949000D02*
X8438200Y-5989000D01*
X8628700Y-5352100D02*
X8668700Y-5392100D01*
X8668700Y-5352100D02*
X8628700Y-5392100D01*
X8806500Y-5402900D02*
X8846500Y-5442900D01*
X8846500Y-5402900D02*
X8806500Y-5442900D01*
X8844600Y-5593400D02*
X8884600Y-5633400D01*
X8884600Y-5593400D02*
X8844600Y-5633400D01*
X8844600Y-5809300D02*
X8884600Y-5849300D01*
X8884600Y-5809300D02*
X8844600Y-5849300D01*
X8997000Y-4920300D02*
X9037000Y-4960300D01*
X9037000Y-4920300D02*
X8997000Y-4960300D01*
X9263700Y-5504500D02*
X9303700Y-5544500D01*
X9303700Y-5504500D02*
X9263700Y-5544500D01*
X9289100Y-4907600D02*
X9329100Y-4947600D01*
X9329100Y-4907600D02*
X9289100Y-4947600D01*
X9393300Y-5197100D02*
X9433300Y-5237100D01*
X9433300Y-5197100D02*
X9393300Y-5237100D01*
X9416100Y-5402900D02*
X9456100Y-5442900D01*
X9456100Y-5402900D02*
X9416100Y-5442900D01*
X9479600Y-5771200D02*
X9519600Y-5811200D01*
X9519600Y-5771200D02*
X9479600Y-5811200D01*
X9619300Y-5021900D02*
X9659300Y-5061900D01*
X9659300Y-5021900D02*
X9619300Y-5061900D01*
X9619300Y-5542600D02*
X9659300Y-5582600D01*
X9659300Y-5542600D02*
X9619300Y-5582600D01*
X9720900Y-5466400D02*
X9760900Y-5506400D01*
X9760900Y-5466400D02*
X9720900Y-5506400D01*
X9746300Y-4958400D02*
X9786300Y-4998400D01*
X9786300Y-4958400D02*
X9746300Y-4998400D01*
X9822500Y-5593400D02*
X9862500Y-5633400D01*
X9862500Y-5593400D02*
X9822500Y-5633400D01*
X7416000Y-4572000D02*
G75*
G03*
X7416000Y-4572000I-50000J0D01*
G01*
X7416000Y-6096000D02*
G75*
G03*
X7416000Y-6096000I-50000J0D01*
G01*
X7670000Y-4572000D02*
G75*
G03*
X7670000Y-4572000I-50000J0D01*
G01*
X7670000Y-6096000D02*
G75*
G03*
X7670000Y-6096000I-50000J0D01*
G01*
X7924000Y-4572000D02*
G75*
G03*
X7924000Y-4572000I-50000J0D01*
G01*
X7924000Y-6096000D02*
G75*
G03*
X7924000Y-6096000I-50000J0D01*
G01*
X8178000Y-4572000D02*
G75*
G03*
X8178000Y-4572000I-50000J0D01*
G01*
X8178000Y-6096000D02*
G75*
G03*
X8178000Y-6096000I-50000J0D01*
G01*
X8432000Y-6096000D02*
G75*
G03*
X8432000Y-6096000I-50000J0D01*
G01*
X8686000Y-6096000D02*
G75*
G03*
X8686000Y-6096000I-50000J0D01*
G01*
X8940000Y-4572000D02*
G75*
G03*
X8940000Y-4572000I-50000J0D01*
G01*
X8940000Y-6096000D02*
G75*
G03*
X8940000Y-6096000I-50000J0D01*
G01*
X9194000Y-4572000D02*
G75*
G03*
X9194000Y-4572000I-50000J0D01*
G01*
X9194000Y-6096000D02*
G75*
G03*
X9194000Y-6096000I-50000J0D01*
G01*
X9448000Y-4572000D02*
G75*
G03*
X9448000Y-4572000I-50000J0D01*
G01*
X9448000Y-6096000D02*
G75*
G03*
X9448000Y-6096000I-50000J0D01*
G01*
X9702000Y-4572000D02*
G75*
G03*
X9702000Y-4572000I-50000J0D01*
G01*
X9702000Y-6096000D02*
G75*
G03*
X9702000Y-6096000I-50000J0D01*
G01*
D12*
X7395928Y-6818214D02*
X7395928Y-6518214D01*
X7467357Y-6518214D01*
X7510214Y-6532500D01*
X7538786Y-6561071D01*
X7553071Y-6589643D01*
X7567357Y-6646786D01*
X7567357Y-6689643D01*
X7553071Y-6746786D01*
X7538786Y-6775357D01*
X7510214Y-6803929D01*
X7467357Y-6818214D01*
X7395928Y-6818214D01*
X7695928Y-6818214D02*
X7695928Y-6618214D01*
X7695928Y-6675357D02*
X7710214Y-6646786D01*
X7724500Y-6632500D01*
X7753071Y-6618214D01*
X7781643Y-6618214D01*
X7881643Y-6818214D02*
X7881643Y-6618214D01*
X7881643Y-6518214D02*
X7867357Y-6532500D01*
X7881643Y-6546786D01*
X7895928Y-6532500D01*
X7881643Y-6518214D01*
X7881643Y-6546786D01*
X8067357Y-6818214D02*
X8038786Y-6803929D01*
X8024500Y-6775357D01*
X8024500Y-6518214D01*
X8224500Y-6818214D02*
X8195928Y-6803929D01*
X8181643Y-6775357D01*
X8181643Y-6518214D01*
X8567357Y-6818214D02*
X8567357Y-6518214D01*
X8667357Y-6732500D01*
X8767357Y-6518214D01*
X8767357Y-6818214D01*
X9038786Y-6818214D02*
X9038786Y-6661071D01*
X9024500Y-6632500D01*
X8995928Y-6618214D01*
X8938786Y-6618214D01*
X8910214Y-6632500D01*
X9038786Y-6803929D02*
X9010214Y-6818214D01*
X8938786Y-6818214D01*
X8910214Y-6803929D01*
X8895928Y-6775357D01*
X8895928Y-6746786D01*
X8910214Y-6718214D01*
X8938786Y-6703929D01*
X9010214Y-6703929D01*
X9038786Y-6689643D01*
X9181643Y-6618214D02*
X9181643Y-6918214D01*
X9181643Y-6632500D02*
X9210214Y-6618214D01*
X9267357Y-6618214D01*
X9295928Y-6632500D01*
X9310214Y-6646786D01*
X9324500Y-6675357D01*
X9324500Y-6761071D01*
X9310214Y-6789643D01*
X9295928Y-6803929D01*
X9267357Y-6818214D01*
X9210214Y-6818214D01*
X9181643Y-6803929D01*
X9453071Y-6789643D02*
X9467357Y-6803929D01*
X9453071Y-6818214D01*
X9438786Y-6803929D01*
X9453071Y-6789643D01*
X9453071Y-6818214D01*
X9453071Y-6632500D02*
X9467357Y-6646786D01*
X9453071Y-6661071D01*
X9438786Y-6646786D01*
X9453071Y-6632500D01*
X9453071Y-6661071D01*
X7069500Y-7292500D02*
X7109500Y-7332500D01*
X7109500Y-7292500D02*
X7069500Y-7332500D01*
X7453071Y-7148214D02*
X7481643Y-7148214D01*
X7510214Y-7162500D01*
X7524500Y-7176786D01*
X7538786Y-7205357D01*
X7553071Y-7262500D01*
X7553071Y-7333929D01*
X7538786Y-7391071D01*
X7524500Y-7419643D01*
X7510214Y-7433929D01*
X7481643Y-7448214D01*
X7453071Y-7448214D01*
X7424500Y-7433929D01*
X7410214Y-7419643D01*
X7395928Y-7391071D01*
X7381643Y-7333929D01*
X7381643Y-7262500D01*
X7395928Y-7205357D01*
X7410214Y-7176786D01*
X7424500Y-7162500D01*
X7453071Y-7148214D01*
X7681643Y-7419643D02*
X7695928Y-7433929D01*
X7681643Y-7448214D01*
X7667357Y-7433929D01*
X7681643Y-7419643D01*
X7681643Y-7448214D01*
X7953071Y-7248214D02*
X7953071Y-7448214D01*
X7881643Y-7133929D02*
X7810214Y-7348214D01*
X7995928Y-7348214D01*
X8167357Y-7148214D02*
X8195928Y-7148214D01*
X8224500Y-7162500D01*
X8238786Y-7176786D01*
X8253071Y-7205357D01*
X8267357Y-7262500D01*
X8267357Y-7333929D01*
X8253071Y-7391071D01*
X8238786Y-7419643D01*
X8224500Y-7433929D01*
X8195928Y-7448214D01*
X8167357Y-7448214D01*
X8138786Y-7433929D01*
X8124500Y-7419643D01*
X8110214Y-7391071D01*
X8095928Y-7333929D01*
X8095928Y-7262500D01*
X8110214Y-7205357D01*
X8124500Y-7176786D01*
X8138786Y-7162500D01*
X8167357Y-7148214D01*
X8453071Y-7148214D02*
X8481643Y-7148214D01*
X8510214Y-7162500D01*
X8524500Y-7176786D01*
X8538786Y-7205357D01*
X8553071Y-7262500D01*
X8553071Y-7333929D01*
X8538786Y-7391071D01*
X8524500Y-7419643D01*
X8510214Y-7433929D01*
X8481643Y-7448214D01*
X8453071Y-7448214D01*
X8424500Y-7433929D01*
X8410214Y-7419643D01*
X8395928Y-7391071D01*
X8381643Y-7333929D01*
X8381643Y-7262500D01*
X8395928Y-7205357D01*
X8410214Y-7176786D01*
X8424500Y-7162500D01*
X8453071Y-7148214D01*
X8681643Y-7448214D02*
X8681643Y-7248214D01*
X8681643Y-7276786D02*
X8695928Y-7262500D01*
X8724500Y-7248214D01*
X8767357Y-7248214D01*
X8795928Y-7262500D01*
X8810214Y-7291071D01*
X8810214Y-7448214D01*
X8810214Y-7291071D02*
X8824500Y-7262500D01*
X8853071Y-7248214D01*
X8895928Y-7248214D01*
X8924500Y-7262500D01*
X8938786Y-7291071D01*
X8938786Y-7448214D01*
X9081643Y-7448214D02*
X9081643Y-7248214D01*
X9081643Y-7276786D02*
X9095928Y-7262500D01*
X9124500Y-7248214D01*
X9167357Y-7248214D01*
X9195928Y-7262500D01*
X9210214Y-7291071D01*
X9210214Y-7448214D01*
X9210214Y-7291071D02*
X9224500Y-7262500D01*
X9253071Y-7248214D01*
X9295928Y-7248214D01*
X9324500Y-7262500D01*
X9338786Y-7291071D01*
X9338786Y-7448214D01*
X9924500Y-7133929D02*
X9667357Y-7519643D01*
X10310214Y-7148214D02*
X10338786Y-7148214D01*
X10367357Y-7162500D01*
X10381643Y-7176786D01*
X10395928Y-7205357D01*
X10410214Y-7262500D01*
X10410214Y-7333929D01*
X10395928Y-7391071D01*
X10381643Y-7419643D01*
X10367357Y-7433929D01*
X10338786Y-7448214D01*
X10310214Y-7448214D01*
X10281643Y-7433929D01*
X10267357Y-7419643D01*
X10253071Y-7391071D01*
X10238786Y-7333929D01*
X10238786Y-7262500D01*
X10253071Y-7205357D01*
X10267357Y-7176786D01*
X10281643Y-7162500D01*
X10310214Y-7148214D01*
X10538786Y-7419643D02*
X10553071Y-7433929D01*
X10538786Y-7448214D01*
X10524500Y-7433929D01*
X10538786Y-7419643D01*
X10538786Y-7448214D01*
X10738786Y-7148214D02*
X10767357Y-7148214D01*
X10795928Y-7162500D01*
X10810214Y-7176786D01*
X10824500Y-7205357D01*
X10838786Y-7262500D01*
X10838786Y-7333929D01*
X10824500Y-7391071D01*
X10810214Y-7419643D01*
X10795928Y-7433929D01*
X10767357Y-7448214D01*
X10738786Y-7448214D01*
X10710214Y-7433929D01*
X10695928Y-7419643D01*
X10681643Y-7391071D01*
X10667357Y-7333929D01*
X10667357Y-7262500D01*
X10681643Y-7205357D01*
X10695928Y-7176786D01*
X10710214Y-7162500D01*
X10738786Y-7148214D01*
X11124500Y-7448214D02*
X10953071Y-7448214D01*
X11038786Y-7448214D02*
X11038786Y-7148214D01*
X11010214Y-7191071D01*
X10981643Y-7219643D01*
X10953071Y-7233929D01*
X11395928Y-7148214D02*
X11253071Y-7148214D01*
X11238786Y-7291071D01*
X11253071Y-7276786D01*
X11281643Y-7262500D01*
X11353071Y-7262500D01*
X11381643Y-7276786D01*
X11395928Y-7291071D01*
X11410214Y-7319643D01*
X11410214Y-7391071D01*
X11395928Y-7419643D01*
X11381643Y-7433929D01*
X11353071Y-7448214D01*
X11281643Y-7448214D01*
X11253071Y-7433929D01*
X11238786Y-7419643D01*
X11510214Y-7148214D02*
X11710214Y-7148214D01*
X11581643Y-7448214D01*
X11810214Y-7148214D02*
X11810214Y-7205357D01*
X11924500Y-7148214D02*
X11924500Y-7205357D01*
X12367357Y-7562500D02*
X12353071Y-7548214D01*
X12324500Y-7505357D01*
X12310214Y-7476786D01*
X12295928Y-7433929D01*
X12281643Y-7362500D01*
X12281643Y-7305357D01*
X12295928Y-7233929D01*
X12310214Y-7191071D01*
X12324500Y-7162500D01*
X12353071Y-7119643D01*
X12367357Y-7105357D01*
X12467357Y-7176786D02*
X12481643Y-7162500D01*
X12510214Y-7148214D01*
X12581643Y-7148214D01*
X12610214Y-7162500D01*
X12624500Y-7176786D01*
X12638786Y-7205357D01*
X12638786Y-7233929D01*
X12624500Y-7276786D01*
X12453071Y-7448214D01*
X12638786Y-7448214D01*
X12910214Y-7148214D02*
X12767357Y-7148214D01*
X12753071Y-7291071D01*
X12767357Y-7276786D01*
X12795928Y-7262500D01*
X12867357Y-7262500D01*
X12895928Y-7276786D01*
X12910214Y-7291071D01*
X12924500Y-7319643D01*
X12924500Y-7391071D01*
X12910214Y-7419643D01*
X12895928Y-7433929D01*
X12867357Y-7448214D01*
X12795928Y-7448214D01*
X12767357Y-7433929D01*
X12753071Y-7419643D01*
X13281643Y-7448214D02*
X13281643Y-7148214D01*
X13410214Y-7448214D02*
X13410214Y-7291071D01*
X13395928Y-7262500D01*
X13367357Y-7248214D01*
X13324500Y-7248214D01*
X13295928Y-7262500D01*
X13281643Y-7276786D01*
X13595928Y-7448214D02*
X13567357Y-7433929D01*
X13553071Y-7419643D01*
X13538786Y-7391071D01*
X13538786Y-7305357D01*
X13553071Y-7276786D01*
X13567357Y-7262500D01*
X13595928Y-7248214D01*
X13638786Y-7248214D01*
X13667357Y-7262500D01*
X13681643Y-7276786D01*
X13695928Y-7305357D01*
X13695928Y-7391071D01*
X13681643Y-7419643D01*
X13667357Y-7433929D01*
X13638786Y-7448214D01*
X13595928Y-7448214D01*
X13867357Y-7448214D02*
X13838786Y-7433929D01*
X13824500Y-7405357D01*
X13824500Y-7148214D01*
X14095928Y-7433929D02*
X14067357Y-7448214D01*
X14010214Y-7448214D01*
X13981643Y-7433929D01*
X13967357Y-7405357D01*
X13967357Y-7291071D01*
X13981643Y-7262500D01*
X14010214Y-7248214D01*
X14067357Y-7248214D01*
X14095928Y-7262500D01*
X14110214Y-7291071D01*
X14110214Y-7319643D01*
X13967357Y-7348214D01*
X14224500Y-7433929D02*
X14253071Y-7448214D01*
X14310214Y-7448214D01*
X14338786Y-7433929D01*
X14353071Y-7405357D01*
X14353071Y-7391071D01*
X14338786Y-7362500D01*
X14310214Y-7348214D01*
X14267357Y-7348214D01*
X14238786Y-7333929D01*
X14224500Y-7305357D01*
X14224500Y-7291071D01*
X14238786Y-7262500D01*
X14267357Y-7248214D01*
X14310214Y-7248214D01*
X14338786Y-7262500D01*
X14453071Y-7562500D02*
X14467357Y-7548214D01*
X14495928Y-7505357D01*
X14510214Y-7476786D01*
X14524500Y-7433929D01*
X14538786Y-7362500D01*
X14538786Y-7305357D01*
X14524500Y-7233929D01*
X14510214Y-7191071D01*
X14495928Y-7162500D01*
X14467357Y-7119643D01*
X14453071Y-7105357D01*
X7109500Y-7708500D02*
G75*
G03*
X7109500Y-7708500I-50000J0D01*
G01*
X7553071Y-7844214D02*
X7381643Y-7844214D01*
X7467357Y-7844214D02*
X7467357Y-7544214D01*
X7438786Y-7587071D01*
X7410214Y-7615643D01*
X7381643Y-7629929D01*
X7681643Y-7815643D02*
X7695928Y-7829929D01*
X7681643Y-7844214D01*
X7667357Y-7829929D01*
X7681643Y-7815643D01*
X7681643Y-7844214D01*
X7881643Y-7544214D02*
X7910214Y-7544214D01*
X7938786Y-7558500D01*
X7953071Y-7572786D01*
X7967357Y-7601357D01*
X7981643Y-7658500D01*
X7981643Y-7729929D01*
X7967357Y-7787071D01*
X7953071Y-7815643D01*
X7938786Y-7829929D01*
X7910214Y-7844214D01*
X7881643Y-7844214D01*
X7853071Y-7829929D01*
X7838786Y-7815643D01*
X7824500Y-7787071D01*
X7810214Y-7729929D01*
X7810214Y-7658500D01*
X7824500Y-7601357D01*
X7838786Y-7572786D01*
X7853071Y-7558500D01*
X7881643Y-7544214D01*
X8167357Y-7544214D02*
X8195928Y-7544214D01*
X8224500Y-7558500D01*
X8238786Y-7572786D01*
X8253071Y-7601357D01*
X8267357Y-7658500D01*
X8267357Y-7729929D01*
X8253071Y-7787071D01*
X8238786Y-7815643D01*
X8224500Y-7829929D01*
X8195928Y-7844214D01*
X8167357Y-7844214D01*
X8138786Y-7829929D01*
X8124500Y-7815643D01*
X8110214Y-7787071D01*
X8095928Y-7729929D01*
X8095928Y-7658500D01*
X8110214Y-7601357D01*
X8124500Y-7572786D01*
X8138786Y-7558500D01*
X8167357Y-7544214D01*
X8453071Y-7544214D02*
X8481643Y-7544214D01*
X8510214Y-7558500D01*
X8524500Y-7572786D01*
X8538786Y-7601357D01*
X8553071Y-7658500D01*
X8553071Y-7729929D01*
X8538786Y-7787071D01*
X8524500Y-7815643D01*
X8510214Y-7829929D01*
X8481643Y-7844214D01*
X8453071Y-7844214D01*
X8424500Y-7829929D01*
X8410214Y-7815643D01*
X8395928Y-7787071D01*
X8381643Y-7729929D01*
X8381643Y-7658500D01*
X8395928Y-7601357D01*
X8410214Y-7572786D01*
X8424500Y-7558500D01*
X8453071Y-7544214D01*
X8681643Y-7844214D02*
X8681643Y-7644214D01*
X8681643Y-7672786D02*
X8695928Y-7658500D01*
X8724500Y-7644214D01*
X8767357Y-7644214D01*
X8795928Y-7658500D01*
X8810214Y-7687071D01*
X8810214Y-7844214D01*
X8810214Y-7687071D02*
X8824500Y-7658500D01*
X8853071Y-7644214D01*
X8895928Y-7644214D01*
X8924500Y-7658500D01*
X8938786Y-7687071D01*
X8938786Y-7844214D01*
X9081643Y-7844214D02*
X9081643Y-7644214D01*
X9081643Y-7672786D02*
X9095928Y-7658500D01*
X9124500Y-7644214D01*
X9167357Y-7644214D01*
X9195928Y-7658500D01*
X9210214Y-7687071D01*
X9210214Y-7844214D01*
X9210214Y-7687071D02*
X9224500Y-7658500D01*
X9253071Y-7644214D01*
X9295928Y-7644214D01*
X9324500Y-7658500D01*
X9338786Y-7687071D01*
X9338786Y-7844214D01*
X9924500Y-7529929D02*
X9667357Y-7915643D01*
X10310214Y-7544214D02*
X10338786Y-7544214D01*
X10367357Y-7558500D01*
X10381643Y-7572786D01*
X10395928Y-7601357D01*
X10410214Y-7658500D01*
X10410214Y-7729929D01*
X10395928Y-7787071D01*
X10381643Y-7815643D01*
X10367357Y-7829929D01*
X10338786Y-7844214D01*
X10310214Y-7844214D01*
X10281643Y-7829929D01*
X10267357Y-7815643D01*
X10253071Y-7787071D01*
X10238786Y-7729929D01*
X10238786Y-7658500D01*
X10253071Y-7601357D01*
X10267357Y-7572786D01*
X10281643Y-7558500D01*
X10310214Y-7544214D01*
X10538786Y-7815643D02*
X10553071Y-7829929D01*
X10538786Y-7844214D01*
X10524500Y-7829929D01*
X10538786Y-7815643D01*
X10538786Y-7844214D01*
X10738786Y-7544214D02*
X10767357Y-7544214D01*
X10795928Y-7558500D01*
X10810214Y-7572786D01*
X10824500Y-7601357D01*
X10838786Y-7658500D01*
X10838786Y-7729929D01*
X10824500Y-7787071D01*
X10810214Y-7815643D01*
X10795928Y-7829929D01*
X10767357Y-7844214D01*
X10738786Y-7844214D01*
X10710214Y-7829929D01*
X10695928Y-7815643D01*
X10681643Y-7787071D01*
X10667357Y-7729929D01*
X10667357Y-7658500D01*
X10681643Y-7601357D01*
X10695928Y-7572786D01*
X10710214Y-7558500D01*
X10738786Y-7544214D01*
X10938786Y-7544214D02*
X11124500Y-7544214D01*
X11024500Y-7658500D01*
X11067357Y-7658500D01*
X11095928Y-7672786D01*
X11110214Y-7687071D01*
X11124500Y-7715643D01*
X11124500Y-7787071D01*
X11110214Y-7815643D01*
X11095928Y-7829929D01*
X11067357Y-7844214D01*
X10981643Y-7844214D01*
X10953071Y-7829929D01*
X10938786Y-7815643D01*
X11267357Y-7844214D02*
X11324500Y-7844214D01*
X11353071Y-7829929D01*
X11367357Y-7815643D01*
X11395928Y-7772786D01*
X11410214Y-7715643D01*
X11410214Y-7601357D01*
X11395928Y-7572786D01*
X11381643Y-7558500D01*
X11353071Y-7544214D01*
X11295928Y-7544214D01*
X11267357Y-7558500D01*
X11253071Y-7572786D01*
X11238786Y-7601357D01*
X11238786Y-7672786D01*
X11253071Y-7701357D01*
X11267357Y-7715643D01*
X11295928Y-7729929D01*
X11353071Y-7729929D01*
X11381643Y-7715643D01*
X11395928Y-7701357D01*
X11410214Y-7672786D01*
X11667357Y-7644214D02*
X11667357Y-7844214D01*
X11595928Y-7529929D02*
X11524500Y-7744214D01*
X11710214Y-7744214D01*
X11810214Y-7544214D02*
X11810214Y-7601357D01*
X11924500Y-7544214D02*
X11924500Y-7601357D01*
X12367357Y-7958500D02*
X12353071Y-7944214D01*
X12324500Y-7901357D01*
X12310214Y-7872786D01*
X12295928Y-7829929D01*
X12281643Y-7758500D01*
X12281643Y-7701357D01*
X12295928Y-7629929D01*
X12310214Y-7587071D01*
X12324500Y-7558500D01*
X12353071Y-7515643D01*
X12367357Y-7501357D01*
X12638786Y-7844214D02*
X12467357Y-7844214D01*
X12553071Y-7844214D02*
X12553071Y-7544214D01*
X12524500Y-7587071D01*
X12495928Y-7615643D01*
X12467357Y-7629929D01*
X12810214Y-7672786D02*
X12781643Y-7658500D01*
X12767357Y-7644214D01*
X12753071Y-7615643D01*
X12753071Y-7601357D01*
X12767357Y-7572786D01*
X12781643Y-7558500D01*
X12810214Y-7544214D01*
X12867357Y-7544214D01*
X12895928Y-7558500D01*
X12910214Y-7572786D01*
X12924500Y-7601357D01*
X12924500Y-7615643D01*
X12910214Y-7644214D01*
X12895928Y-7658500D01*
X12867357Y-7672786D01*
X12810214Y-7672786D01*
X12781643Y-7687071D01*
X12767357Y-7701357D01*
X12753071Y-7729929D01*
X12753071Y-7787071D01*
X12767357Y-7815643D01*
X12781643Y-7829929D01*
X12810214Y-7844214D01*
X12867357Y-7844214D01*
X12895928Y-7829929D01*
X12910214Y-7815643D01*
X12924500Y-7787071D01*
X12924500Y-7729929D01*
X12910214Y-7701357D01*
X12895928Y-7687071D01*
X12867357Y-7672786D01*
X13281643Y-7844214D02*
X13281643Y-7544214D01*
X13410214Y-7844214D02*
X13410214Y-7687071D01*
X13395928Y-7658500D01*
X13367357Y-7644214D01*
X13324500Y-7644214D01*
X13295928Y-7658500D01*
X13281643Y-7672786D01*
X13595928Y-7844214D02*
X13567357Y-7829929D01*
X13553071Y-7815643D01*
X13538786Y-7787071D01*
X13538786Y-7701357D01*
X13553071Y-7672786D01*
X13567357Y-7658500D01*
X13595928Y-7644214D01*
X13638786Y-7644214D01*
X13667357Y-7658500D01*
X13681643Y-7672786D01*
X13695928Y-7701357D01*
X13695928Y-7787071D01*
X13681643Y-7815643D01*
X13667357Y-7829929D01*
X13638786Y-7844214D01*
X13595928Y-7844214D01*
X13867357Y-7844214D02*
X13838786Y-7829929D01*
X13824500Y-7801357D01*
X13824500Y-7544214D01*
X14095928Y-7829929D02*
X14067357Y-7844214D01*
X14010214Y-7844214D01*
X13981643Y-7829929D01*
X13967357Y-7801357D01*
X13967357Y-7687071D01*
X13981643Y-7658500D01*
X14010214Y-7644214D01*
X14067357Y-7644214D01*
X14095928Y-7658500D01*
X14110214Y-7687071D01*
X14110214Y-7715643D01*
X13967357Y-7744214D01*
X14224500Y-7829929D02*
X14253071Y-7844214D01*
X14310214Y-7844214D01*
X14338786Y-7829929D01*
X14353071Y-7801357D01*
X14353071Y-7787071D01*
X14338786Y-7758500D01*
X14310214Y-7744214D01*
X14267357Y-7744214D01*
X14238786Y-7729929D01*
X14224500Y-7701357D01*
X14224500Y-7687071D01*
X14238786Y-7658500D01*
X14267357Y-7644214D01*
X14310214Y-7644214D01*
X14338786Y-7658500D01*
X14453071Y-7958500D02*
X14467357Y-7944214D01*
X14495928Y-7901357D01*
X14510214Y-7872786D01*
X14524500Y-7829929D01*
X14538786Y-7758500D01*
X14538786Y-7701357D01*
X14524500Y-7629929D01*
X14510214Y-7587071D01*
X14495928Y-7558500D01*
X14467357Y-7515643D01*
X14453071Y-7501357D01*
M02*
