G04 #@! TF.GenerationSoftware,KiCad,Pcbnew,5.1.10-88a1d61d58~88~ubuntu20.04.1*
G04 #@! TF.CreationDate,2021-06-12T08:26:13-04:00*
G04 #@! TF.ProjectId,stm32l0_mod_source,73746d33-326c-4305-9f6d-6f645f736f75,rev?*
G04 #@! TF.SameCoordinates,Original*
G04 #@! TF.FileFunction,Legend,Top*
G04 #@! TF.FilePolarity,Positive*
%FSLAX46Y46*%
G04 Gerber Fmt 4.6, Leading zero omitted, Abs format (unit mm)*
G04 Created by KiCad (PCBNEW 5.1.10-88a1d61d58~88~ubuntu20.04.1) date 2021-06-12 08:26:13*
%MOMM*%
%LPD*%
G01*
G04 APERTURE LIST*
%ADD10C,0.120000*%
%ADD11C,0.150000*%
%ADD12O,1.700000X1.700000*%
%ADD13R,1.700000X1.700000*%
%ADD14R,0.600000X0.450000*%
%ADD15R,0.650000X1.060000*%
G04 APERTURE END LIST*
D10*
X94981500Y-48212742D02*
X94981500Y-48687258D01*
X96026500Y-48212742D02*
X96026500Y-48687258D01*
X91679500Y-48213742D02*
X91679500Y-48688258D01*
X92724500Y-48213742D02*
X92724500Y-48688258D01*
X88377500Y-48213742D02*
X88377500Y-48688258D01*
X89422500Y-48213742D02*
X89422500Y-48688258D01*
X82470258Y-48372500D02*
X81995742Y-48372500D01*
X82470258Y-49417500D02*
X81995742Y-49417500D01*
X81053000Y-57584748D02*
X81053000Y-58107252D01*
X82523000Y-57584748D02*
X82523000Y-58107252D01*
X85571420Y-48897000D02*
X85852580Y-48897000D01*
X85571420Y-47877000D02*
X85852580Y-47877000D01*
X85571420Y-51945000D02*
X85852580Y-51945000D01*
X85571420Y-50925000D02*
X85852580Y-50925000D01*
X96899000Y-52805420D02*
X96899000Y-53086580D01*
X97919000Y-52805420D02*
X97919000Y-53086580D01*
X94740000Y-52805420D02*
X94740000Y-53086580D01*
X95760000Y-52805420D02*
X95760000Y-53086580D01*
X92102000Y-52890748D02*
X92102000Y-53413252D01*
X93572000Y-52890748D02*
X93572000Y-53413252D01*
X77970748Y-50392000D02*
X78493252Y-50392000D01*
X77970748Y-48922000D02*
X78493252Y-48922000D01*
X78459420Y-53088000D02*
X78740580Y-53088000D01*
X78459420Y-52068000D02*
X78740580Y-52068000D01*
X74014420Y-49786000D02*
X74295580Y-49786000D01*
X74014420Y-48766000D02*
X74295580Y-48766000D01*
X73972748Y-52932000D02*
X74495252Y-52932000D01*
X73972748Y-51462000D02*
X74495252Y-51462000D01*
X87122000Y-52622000D02*
X83522000Y-52622000D01*
X87122000Y-52622000D02*
X89322000Y-52622000D01*
X87122000Y-59392000D02*
X84922000Y-59392000D01*
X87122000Y-59392000D02*
X89322000Y-59392000D01*
X95123000Y-56175000D02*
X92198000Y-56175000D01*
X95123000Y-56175000D02*
X96623000Y-56175000D01*
X95123000Y-59395000D02*
X93623000Y-59395000D01*
X95123000Y-59395000D02*
X96623000Y-59395000D01*
X80113000Y-59397000D02*
X77563000Y-59397000D01*
X80113000Y-57697000D02*
X77563000Y-57697000D01*
X80113000Y-59397000D02*
X80113000Y-57697000D01*
X72558000Y-55742000D02*
X72558000Y-58192000D01*
X75778000Y-57542000D02*
X75778000Y-55742000D01*
X82348000Y-53405122D02*
X82348000Y-52605878D01*
X81228000Y-53405122D02*
X81228000Y-52605878D01*
X78213378Y-56059000D02*
X79012622Y-56059000D01*
X78213378Y-54939000D02*
X79012622Y-54939000D01*
D11*
X96861333Y-48839380D02*
X96528000Y-48363190D01*
X96289904Y-48839380D02*
X96289904Y-47839380D01*
X96670857Y-47839380D01*
X96766095Y-47887000D01*
X96813714Y-47934619D01*
X96861333Y-48029857D01*
X96861333Y-48172714D01*
X96813714Y-48267952D01*
X96766095Y-48315571D01*
X96670857Y-48363190D01*
X96289904Y-48363190D01*
X97718476Y-48172714D02*
X97718476Y-48839380D01*
X97480380Y-47791761D02*
X97242285Y-48506047D01*
X97861333Y-48506047D01*
X93559333Y-48839380D02*
X93226000Y-48363190D01*
X92987904Y-48839380D02*
X92987904Y-47839380D01*
X93368857Y-47839380D01*
X93464095Y-47887000D01*
X93511714Y-47934619D01*
X93559333Y-48029857D01*
X93559333Y-48172714D01*
X93511714Y-48267952D01*
X93464095Y-48315571D01*
X93368857Y-48363190D01*
X92987904Y-48363190D01*
X93892666Y-47839380D02*
X94511714Y-47839380D01*
X94178380Y-48220333D01*
X94321238Y-48220333D01*
X94416476Y-48267952D01*
X94464095Y-48315571D01*
X94511714Y-48410809D01*
X94511714Y-48648904D01*
X94464095Y-48744142D01*
X94416476Y-48791761D01*
X94321238Y-48839380D01*
X94035523Y-48839380D01*
X93940285Y-48791761D01*
X93892666Y-48744142D01*
X90257333Y-48839380D02*
X89924000Y-48363190D01*
X89685904Y-48839380D02*
X89685904Y-47839380D01*
X90066857Y-47839380D01*
X90162095Y-47887000D01*
X90209714Y-47934619D01*
X90257333Y-48029857D01*
X90257333Y-48172714D01*
X90209714Y-48267952D01*
X90162095Y-48315571D01*
X90066857Y-48363190D01*
X89685904Y-48363190D01*
X90638285Y-47934619D02*
X90685904Y-47887000D01*
X90781142Y-47839380D01*
X91019238Y-47839380D01*
X91114476Y-47887000D01*
X91162095Y-47934619D01*
X91209714Y-48029857D01*
X91209714Y-48125095D01*
X91162095Y-48267952D01*
X90590666Y-48839380D01*
X91209714Y-48839380D01*
X82066333Y-48077380D02*
X81733000Y-47601190D01*
X81494904Y-48077380D02*
X81494904Y-47077380D01*
X81875857Y-47077380D01*
X81971095Y-47125000D01*
X82018714Y-47172619D01*
X82066333Y-47267857D01*
X82066333Y-47410714D01*
X82018714Y-47505952D01*
X81971095Y-47553571D01*
X81875857Y-47601190D01*
X81494904Y-47601190D01*
X83018714Y-48077380D02*
X82447285Y-48077380D01*
X82733000Y-48077380D02*
X82733000Y-47077380D01*
X82637761Y-47220238D01*
X82542523Y-47315476D01*
X82447285Y-47363095D01*
X81621333Y-55917142D02*
X81573714Y-55964761D01*
X81430857Y-56012380D01*
X81335619Y-56012380D01*
X81192761Y-55964761D01*
X81097523Y-55869523D01*
X81049904Y-55774285D01*
X81002285Y-55583809D01*
X81002285Y-55440952D01*
X81049904Y-55250476D01*
X81097523Y-55155238D01*
X81192761Y-55060000D01*
X81335619Y-55012380D01*
X81430857Y-55012380D01*
X81573714Y-55060000D01*
X81621333Y-55107619D01*
X82192761Y-55440952D02*
X82097523Y-55393333D01*
X82049904Y-55345714D01*
X82002285Y-55250476D01*
X82002285Y-55202857D01*
X82049904Y-55107619D01*
X82097523Y-55060000D01*
X82192761Y-55012380D01*
X82383238Y-55012380D01*
X82478476Y-55060000D01*
X82526095Y-55107619D01*
X82573714Y-55202857D01*
X82573714Y-55250476D01*
X82526095Y-55345714D01*
X82478476Y-55393333D01*
X82383238Y-55440952D01*
X82192761Y-55440952D01*
X82097523Y-55488571D01*
X82049904Y-55536190D01*
X82002285Y-55631428D01*
X82002285Y-55821904D01*
X82049904Y-55917142D01*
X82097523Y-55964761D01*
X82192761Y-56012380D01*
X82383238Y-56012380D01*
X82478476Y-55964761D01*
X82526095Y-55917142D01*
X82573714Y-55821904D01*
X82573714Y-55631428D01*
X82526095Y-55536190D01*
X82478476Y-55488571D01*
X82383238Y-55440952D01*
X85069142Y-47474142D02*
X85021523Y-47521761D01*
X84878666Y-47569380D01*
X84783428Y-47569380D01*
X84640571Y-47521761D01*
X84545333Y-47426523D01*
X84497714Y-47331285D01*
X84450095Y-47140809D01*
X84450095Y-46997952D01*
X84497714Y-46807476D01*
X84545333Y-46712238D01*
X84640571Y-46617000D01*
X84783428Y-46569380D01*
X84878666Y-46569380D01*
X85021523Y-46617000D01*
X85069142Y-46664619D01*
X86021523Y-47569380D02*
X85450095Y-47569380D01*
X85735809Y-47569380D02*
X85735809Y-46569380D01*
X85640571Y-46712238D01*
X85545333Y-46807476D01*
X85450095Y-46855095D01*
X86640571Y-46569380D02*
X86735809Y-46569380D01*
X86831047Y-46617000D01*
X86878666Y-46664619D01*
X86926285Y-46759857D01*
X86973904Y-46950333D01*
X86973904Y-47188428D01*
X86926285Y-47378904D01*
X86878666Y-47474142D01*
X86831047Y-47521761D01*
X86735809Y-47569380D01*
X86640571Y-47569380D01*
X86545333Y-47521761D01*
X86497714Y-47474142D01*
X86450095Y-47378904D01*
X86402476Y-47188428D01*
X86402476Y-46950333D01*
X86450095Y-46759857D01*
X86497714Y-46664619D01*
X86545333Y-46617000D01*
X86640571Y-46569380D01*
X85545333Y-50522142D02*
X85497714Y-50569761D01*
X85354857Y-50617380D01*
X85259619Y-50617380D01*
X85116761Y-50569761D01*
X85021523Y-50474523D01*
X84973904Y-50379285D01*
X84926285Y-50188809D01*
X84926285Y-50045952D01*
X84973904Y-49855476D01*
X85021523Y-49760238D01*
X85116761Y-49665000D01*
X85259619Y-49617380D01*
X85354857Y-49617380D01*
X85497714Y-49665000D01*
X85545333Y-49712619D01*
X86021523Y-50617380D02*
X86212000Y-50617380D01*
X86307238Y-50569761D01*
X86354857Y-50522142D01*
X86450095Y-50379285D01*
X86497714Y-50188809D01*
X86497714Y-49807857D01*
X86450095Y-49712619D01*
X86402476Y-49665000D01*
X86307238Y-49617380D01*
X86116761Y-49617380D01*
X86021523Y-49665000D01*
X85973904Y-49712619D01*
X85926285Y-49807857D01*
X85926285Y-50045952D01*
X85973904Y-50141190D01*
X86021523Y-50188809D01*
X86116761Y-50236428D01*
X86307238Y-50236428D01*
X86402476Y-50188809D01*
X86450095Y-50141190D01*
X86497714Y-50045952D01*
X97242333Y-51284142D02*
X97194714Y-51331761D01*
X97051857Y-51379380D01*
X96956619Y-51379380D01*
X96813761Y-51331761D01*
X96718523Y-51236523D01*
X96670904Y-51141285D01*
X96623285Y-50950809D01*
X96623285Y-50807952D01*
X96670904Y-50617476D01*
X96718523Y-50522238D01*
X96813761Y-50427000D01*
X96956619Y-50379380D01*
X97051857Y-50379380D01*
X97194714Y-50427000D01*
X97242333Y-50474619D01*
X97575666Y-50379380D02*
X98242333Y-50379380D01*
X97813761Y-51379380D01*
X95083333Y-51284142D02*
X95035714Y-51331761D01*
X94892857Y-51379380D01*
X94797619Y-51379380D01*
X94654761Y-51331761D01*
X94559523Y-51236523D01*
X94511904Y-51141285D01*
X94464285Y-50950809D01*
X94464285Y-50807952D01*
X94511904Y-50617476D01*
X94559523Y-50522238D01*
X94654761Y-50427000D01*
X94797619Y-50379380D01*
X94892857Y-50379380D01*
X95035714Y-50427000D01*
X95083333Y-50474619D01*
X95940476Y-50379380D02*
X95750000Y-50379380D01*
X95654761Y-50427000D01*
X95607142Y-50474619D01*
X95511904Y-50617476D01*
X95464285Y-50807952D01*
X95464285Y-51188904D01*
X95511904Y-51284142D01*
X95559523Y-51331761D01*
X95654761Y-51379380D01*
X95845238Y-51379380D01*
X95940476Y-51331761D01*
X95988095Y-51284142D01*
X96035714Y-51188904D01*
X96035714Y-50950809D01*
X95988095Y-50855571D01*
X95940476Y-50807952D01*
X95845238Y-50760333D01*
X95654761Y-50760333D01*
X95559523Y-50807952D01*
X95511904Y-50855571D01*
X95464285Y-50950809D01*
X92670333Y-51284142D02*
X92622714Y-51331761D01*
X92479857Y-51379380D01*
X92384619Y-51379380D01*
X92241761Y-51331761D01*
X92146523Y-51236523D01*
X92098904Y-51141285D01*
X92051285Y-50950809D01*
X92051285Y-50807952D01*
X92098904Y-50617476D01*
X92146523Y-50522238D01*
X92241761Y-50427000D01*
X92384619Y-50379380D01*
X92479857Y-50379380D01*
X92622714Y-50427000D01*
X92670333Y-50474619D01*
X93575095Y-50379380D02*
X93098904Y-50379380D01*
X93051285Y-50855571D01*
X93098904Y-50807952D01*
X93194142Y-50760333D01*
X93432238Y-50760333D01*
X93527476Y-50807952D01*
X93575095Y-50855571D01*
X93622714Y-50950809D01*
X93622714Y-51188904D01*
X93575095Y-51284142D01*
X93527476Y-51331761D01*
X93432238Y-51379380D01*
X93194142Y-51379380D01*
X93098904Y-51331761D01*
X93051285Y-51284142D01*
X78065333Y-48490142D02*
X78017714Y-48537761D01*
X77874857Y-48585380D01*
X77779619Y-48585380D01*
X77636761Y-48537761D01*
X77541523Y-48442523D01*
X77493904Y-48347285D01*
X77446285Y-48156809D01*
X77446285Y-48013952D01*
X77493904Y-47823476D01*
X77541523Y-47728238D01*
X77636761Y-47633000D01*
X77779619Y-47585380D01*
X77874857Y-47585380D01*
X78017714Y-47633000D01*
X78065333Y-47680619D01*
X78922476Y-47918714D02*
X78922476Y-48585380D01*
X78684380Y-47537761D02*
X78446285Y-48252047D01*
X79065333Y-48252047D01*
X78433333Y-51665142D02*
X78385714Y-51712761D01*
X78242857Y-51760380D01*
X78147619Y-51760380D01*
X78004761Y-51712761D01*
X77909523Y-51617523D01*
X77861904Y-51522285D01*
X77814285Y-51331809D01*
X77814285Y-51188952D01*
X77861904Y-50998476D01*
X77909523Y-50903238D01*
X78004761Y-50808000D01*
X78147619Y-50760380D01*
X78242857Y-50760380D01*
X78385714Y-50808000D01*
X78433333Y-50855619D01*
X78766666Y-50760380D02*
X79385714Y-50760380D01*
X79052380Y-51141333D01*
X79195238Y-51141333D01*
X79290476Y-51188952D01*
X79338095Y-51236571D01*
X79385714Y-51331809D01*
X79385714Y-51569904D01*
X79338095Y-51665142D01*
X79290476Y-51712761D01*
X79195238Y-51760380D01*
X78909523Y-51760380D01*
X78814285Y-51712761D01*
X78766666Y-51665142D01*
X74001333Y-48363142D02*
X73953714Y-48410761D01*
X73810857Y-48458380D01*
X73715619Y-48458380D01*
X73572761Y-48410761D01*
X73477523Y-48315523D01*
X73429904Y-48220285D01*
X73382285Y-48029809D01*
X73382285Y-47886952D01*
X73429904Y-47696476D01*
X73477523Y-47601238D01*
X73572761Y-47506000D01*
X73715619Y-47458380D01*
X73810857Y-47458380D01*
X73953714Y-47506000D01*
X74001333Y-47553619D01*
X74382285Y-47553619D02*
X74429904Y-47506000D01*
X74525142Y-47458380D01*
X74763238Y-47458380D01*
X74858476Y-47506000D01*
X74906095Y-47553619D01*
X74953714Y-47648857D01*
X74953714Y-47744095D01*
X74906095Y-47886952D01*
X74334666Y-48458380D01*
X74953714Y-48458380D01*
X74067333Y-51030142D02*
X74019714Y-51077761D01*
X73876857Y-51125380D01*
X73781619Y-51125380D01*
X73638761Y-51077761D01*
X73543523Y-50982523D01*
X73495904Y-50887285D01*
X73448285Y-50696809D01*
X73448285Y-50553952D01*
X73495904Y-50363476D01*
X73543523Y-50268238D01*
X73638761Y-50173000D01*
X73781619Y-50125380D01*
X73876857Y-50125380D01*
X74019714Y-50173000D01*
X74067333Y-50220619D01*
X75019714Y-51125380D02*
X74448285Y-51125380D01*
X74734000Y-51125380D02*
X74734000Y-50125380D01*
X74638761Y-50268238D01*
X74543523Y-50363476D01*
X74448285Y-50411095D01*
X88011095Y-51268380D02*
X88011095Y-52077904D01*
X88058714Y-52173142D01*
X88106333Y-52220761D01*
X88201571Y-52268380D01*
X88392047Y-52268380D01*
X88487285Y-52220761D01*
X88534904Y-52173142D01*
X88582523Y-52077904D01*
X88582523Y-51268380D01*
X89011095Y-51363619D02*
X89058714Y-51316000D01*
X89153952Y-51268380D01*
X89392047Y-51268380D01*
X89487285Y-51316000D01*
X89534904Y-51363619D01*
X89582523Y-51458857D01*
X89582523Y-51554095D01*
X89534904Y-51696952D01*
X88963476Y-52268380D01*
X89582523Y-52268380D01*
X94361095Y-54787380D02*
X94361095Y-55596904D01*
X94408714Y-55692142D01*
X94456333Y-55739761D01*
X94551571Y-55787380D01*
X94742047Y-55787380D01*
X94837285Y-55739761D01*
X94884904Y-55692142D01*
X94932523Y-55596904D01*
X94932523Y-54787380D01*
X95313476Y-54787380D02*
X95932523Y-54787380D01*
X95599190Y-55168333D01*
X95742047Y-55168333D01*
X95837285Y-55215952D01*
X95884904Y-55263571D01*
X95932523Y-55358809D01*
X95932523Y-55596904D01*
X95884904Y-55692142D01*
X95837285Y-55739761D01*
X95742047Y-55787380D01*
X95456333Y-55787380D01*
X95361095Y-55739761D01*
X95313476Y-55692142D01*
X77874904Y-57475380D02*
X77874904Y-56475380D01*
X78113000Y-56475380D01*
X78255857Y-56523000D01*
X78351095Y-56618238D01*
X78398714Y-56713476D01*
X78446333Y-56903952D01*
X78446333Y-57046809D01*
X78398714Y-57237285D01*
X78351095Y-57332523D01*
X78255857Y-57427761D01*
X78113000Y-57475380D01*
X77874904Y-57475380D01*
X79398714Y-57475380D02*
X78827285Y-57475380D01*
X79113000Y-57475380D02*
X79113000Y-56475380D01*
X79017761Y-56618238D01*
X78922523Y-56713476D01*
X78827285Y-56761095D01*
X73406095Y-53511380D02*
X73406095Y-54320904D01*
X73453714Y-54416142D01*
X73501333Y-54463761D01*
X73596571Y-54511380D01*
X73787047Y-54511380D01*
X73882285Y-54463761D01*
X73929904Y-54416142D01*
X73977523Y-54320904D01*
X73977523Y-53511380D01*
X74977523Y-54511380D02*
X74406095Y-54511380D01*
X74691809Y-54511380D02*
X74691809Y-53511380D01*
X74596571Y-53654238D01*
X74501333Y-53749476D01*
X74406095Y-53797095D01*
X80954666Y-50601571D02*
X80621333Y-50601571D01*
X80621333Y-51125380D02*
X80621333Y-50125380D01*
X81097523Y-50125380D01*
X81811809Y-50601571D02*
X81954666Y-50649190D01*
X82002285Y-50696809D01*
X82049904Y-50792047D01*
X82049904Y-50934904D01*
X82002285Y-51030142D01*
X81954666Y-51077761D01*
X81859428Y-51125380D01*
X81478476Y-51125380D01*
X81478476Y-50125380D01*
X81811809Y-50125380D01*
X81907047Y-50173000D01*
X81954666Y-50220619D01*
X82002285Y-50315857D01*
X82002285Y-50411095D01*
X81954666Y-50506333D01*
X81907047Y-50553952D01*
X81811809Y-50601571D01*
X81478476Y-50601571D01*
X82430857Y-50220619D02*
X82478476Y-50173000D01*
X82573714Y-50125380D01*
X82811809Y-50125380D01*
X82907047Y-50173000D01*
X82954666Y-50220619D01*
X83002285Y-50315857D01*
X83002285Y-50411095D01*
X82954666Y-50553952D01*
X82383238Y-51125380D01*
X83002285Y-51125380D01*
X77826166Y-54030571D02*
X77492833Y-54030571D01*
X77492833Y-54554380D02*
X77492833Y-53554380D01*
X77969023Y-53554380D01*
X78683309Y-54030571D02*
X78826166Y-54078190D01*
X78873785Y-54125809D01*
X78921404Y-54221047D01*
X78921404Y-54363904D01*
X78873785Y-54459142D01*
X78826166Y-54506761D01*
X78730928Y-54554380D01*
X78349976Y-54554380D01*
X78349976Y-53554380D01*
X78683309Y-53554380D01*
X78778547Y-53602000D01*
X78826166Y-53649619D01*
X78873785Y-53744857D01*
X78873785Y-53840095D01*
X78826166Y-53935333D01*
X78778547Y-53982952D01*
X78683309Y-54030571D01*
X78349976Y-54030571D01*
X79873785Y-54554380D02*
X79302357Y-54554380D01*
X79588071Y-54554380D02*
X79588071Y-53554380D01*
X79492833Y-53697238D01*
X79397595Y-53792476D01*
X79302357Y-53840095D01*
%LPC*%
D12*
X96520000Y-60960000D03*
X93980000Y-60960000D03*
X91440000Y-60960000D03*
X88900000Y-60960000D03*
X86360000Y-60960000D03*
X83820000Y-60960000D03*
X81280000Y-60960000D03*
X78740000Y-60960000D03*
X76200000Y-60960000D03*
D13*
X73660000Y-60960000D03*
G36*
G01*
X95229000Y-48875000D02*
X95779000Y-48875000D01*
G75*
G02*
X95979000Y-49075000I0J-200000D01*
G01*
X95979000Y-49475000D01*
G75*
G02*
X95779000Y-49675000I-200000J0D01*
G01*
X95229000Y-49675000D01*
G75*
G02*
X95029000Y-49475000I0J200000D01*
G01*
X95029000Y-49075000D01*
G75*
G02*
X95229000Y-48875000I200000J0D01*
G01*
G37*
G36*
G01*
X95229000Y-47225000D02*
X95779000Y-47225000D01*
G75*
G02*
X95979000Y-47425000I0J-200000D01*
G01*
X95979000Y-47825000D01*
G75*
G02*
X95779000Y-48025000I-200000J0D01*
G01*
X95229000Y-48025000D01*
G75*
G02*
X95029000Y-47825000I0J200000D01*
G01*
X95029000Y-47425000D01*
G75*
G02*
X95229000Y-47225000I200000J0D01*
G01*
G37*
G36*
G01*
X91927000Y-48876000D02*
X92477000Y-48876000D01*
G75*
G02*
X92677000Y-49076000I0J-200000D01*
G01*
X92677000Y-49476000D01*
G75*
G02*
X92477000Y-49676000I-200000J0D01*
G01*
X91927000Y-49676000D01*
G75*
G02*
X91727000Y-49476000I0J200000D01*
G01*
X91727000Y-49076000D01*
G75*
G02*
X91927000Y-48876000I200000J0D01*
G01*
G37*
G36*
G01*
X91927000Y-47226000D02*
X92477000Y-47226000D01*
G75*
G02*
X92677000Y-47426000I0J-200000D01*
G01*
X92677000Y-47826000D01*
G75*
G02*
X92477000Y-48026000I-200000J0D01*
G01*
X91927000Y-48026000D01*
G75*
G02*
X91727000Y-47826000I0J200000D01*
G01*
X91727000Y-47426000D01*
G75*
G02*
X91927000Y-47226000I200000J0D01*
G01*
G37*
G36*
G01*
X88625000Y-48876000D02*
X89175000Y-48876000D01*
G75*
G02*
X89375000Y-49076000I0J-200000D01*
G01*
X89375000Y-49476000D01*
G75*
G02*
X89175000Y-49676000I-200000J0D01*
G01*
X88625000Y-49676000D01*
G75*
G02*
X88425000Y-49476000I0J200000D01*
G01*
X88425000Y-49076000D01*
G75*
G02*
X88625000Y-48876000I200000J0D01*
G01*
G37*
G36*
G01*
X88625000Y-47226000D02*
X89175000Y-47226000D01*
G75*
G02*
X89375000Y-47426000I0J-200000D01*
G01*
X89375000Y-47826000D01*
G75*
G02*
X89175000Y-48026000I-200000J0D01*
G01*
X88625000Y-48026000D01*
G75*
G02*
X88425000Y-47826000I0J200000D01*
G01*
X88425000Y-47426000D01*
G75*
G02*
X88625000Y-47226000I200000J0D01*
G01*
G37*
G36*
G01*
X81808000Y-48620000D02*
X81808000Y-49170000D01*
G75*
G02*
X81608000Y-49370000I-200000J0D01*
G01*
X81208000Y-49370000D01*
G75*
G02*
X81008000Y-49170000I0J200000D01*
G01*
X81008000Y-48620000D01*
G75*
G02*
X81208000Y-48420000I200000J0D01*
G01*
X81608000Y-48420000D01*
G75*
G02*
X81808000Y-48620000I0J-200000D01*
G01*
G37*
G36*
G01*
X83458000Y-48620000D02*
X83458000Y-49170000D01*
G75*
G02*
X83258000Y-49370000I-200000J0D01*
G01*
X82858000Y-49370000D01*
G75*
G02*
X82658000Y-49170000I0J200000D01*
G01*
X82658000Y-48620000D01*
G75*
G02*
X82858000Y-48420000I200000J0D01*
G01*
X83258000Y-48420000D01*
G75*
G02*
X83458000Y-48620000I0J-200000D01*
G01*
G37*
G36*
G01*
X81313000Y-58296000D02*
X82263000Y-58296000D01*
G75*
G02*
X82513000Y-58546000I0J-250000D01*
G01*
X82513000Y-59046000D01*
G75*
G02*
X82263000Y-59296000I-250000J0D01*
G01*
X81313000Y-59296000D01*
G75*
G02*
X81063000Y-59046000I0J250000D01*
G01*
X81063000Y-58546000D01*
G75*
G02*
X81313000Y-58296000I250000J0D01*
G01*
G37*
G36*
G01*
X81313000Y-56396000D02*
X82263000Y-56396000D01*
G75*
G02*
X82513000Y-56646000I0J-250000D01*
G01*
X82513000Y-57146000D01*
G75*
G02*
X82263000Y-57396000I-250000J0D01*
G01*
X81313000Y-57396000D01*
G75*
G02*
X81063000Y-57146000I0J250000D01*
G01*
X81063000Y-56646000D01*
G75*
G02*
X81313000Y-56396000I250000J0D01*
G01*
G37*
G36*
G01*
X86037000Y-48637000D02*
X86037000Y-48137000D01*
G75*
G02*
X86262000Y-47912000I225000J0D01*
G01*
X86712000Y-47912000D01*
G75*
G02*
X86937000Y-48137000I0J-225000D01*
G01*
X86937000Y-48637000D01*
G75*
G02*
X86712000Y-48862000I-225000J0D01*
G01*
X86262000Y-48862000D01*
G75*
G02*
X86037000Y-48637000I0J225000D01*
G01*
G37*
G36*
G01*
X84487000Y-48637000D02*
X84487000Y-48137000D01*
G75*
G02*
X84712000Y-47912000I225000J0D01*
G01*
X85162000Y-47912000D01*
G75*
G02*
X85387000Y-48137000I0J-225000D01*
G01*
X85387000Y-48637000D01*
G75*
G02*
X85162000Y-48862000I-225000J0D01*
G01*
X84712000Y-48862000D01*
G75*
G02*
X84487000Y-48637000I0J225000D01*
G01*
G37*
G36*
G01*
X86037000Y-51685000D02*
X86037000Y-51185000D01*
G75*
G02*
X86262000Y-50960000I225000J0D01*
G01*
X86712000Y-50960000D01*
G75*
G02*
X86937000Y-51185000I0J-225000D01*
G01*
X86937000Y-51685000D01*
G75*
G02*
X86712000Y-51910000I-225000J0D01*
G01*
X86262000Y-51910000D01*
G75*
G02*
X86037000Y-51685000I0J225000D01*
G01*
G37*
G36*
G01*
X84487000Y-51685000D02*
X84487000Y-51185000D01*
G75*
G02*
X84712000Y-50960000I225000J0D01*
G01*
X85162000Y-50960000D01*
G75*
G02*
X85387000Y-51185000I0J-225000D01*
G01*
X85387000Y-51685000D01*
G75*
G02*
X85162000Y-51910000I-225000J0D01*
G01*
X84712000Y-51910000D01*
G75*
G02*
X84487000Y-51685000I0J225000D01*
G01*
G37*
G36*
G01*
X97159000Y-53271000D02*
X97659000Y-53271000D01*
G75*
G02*
X97884000Y-53496000I0J-225000D01*
G01*
X97884000Y-53946000D01*
G75*
G02*
X97659000Y-54171000I-225000J0D01*
G01*
X97159000Y-54171000D01*
G75*
G02*
X96934000Y-53946000I0J225000D01*
G01*
X96934000Y-53496000D01*
G75*
G02*
X97159000Y-53271000I225000J0D01*
G01*
G37*
G36*
G01*
X97159000Y-51721000D02*
X97659000Y-51721000D01*
G75*
G02*
X97884000Y-51946000I0J-225000D01*
G01*
X97884000Y-52396000D01*
G75*
G02*
X97659000Y-52621000I-225000J0D01*
G01*
X97159000Y-52621000D01*
G75*
G02*
X96934000Y-52396000I0J225000D01*
G01*
X96934000Y-51946000D01*
G75*
G02*
X97159000Y-51721000I225000J0D01*
G01*
G37*
G36*
G01*
X95000000Y-53271000D02*
X95500000Y-53271000D01*
G75*
G02*
X95725000Y-53496000I0J-225000D01*
G01*
X95725000Y-53946000D01*
G75*
G02*
X95500000Y-54171000I-225000J0D01*
G01*
X95000000Y-54171000D01*
G75*
G02*
X94775000Y-53946000I0J225000D01*
G01*
X94775000Y-53496000D01*
G75*
G02*
X95000000Y-53271000I225000J0D01*
G01*
G37*
G36*
G01*
X95000000Y-51721000D02*
X95500000Y-51721000D01*
G75*
G02*
X95725000Y-51946000I0J-225000D01*
G01*
X95725000Y-52396000D01*
G75*
G02*
X95500000Y-52621000I-225000J0D01*
G01*
X95000000Y-52621000D01*
G75*
G02*
X94775000Y-52396000I0J225000D01*
G01*
X94775000Y-51946000D01*
G75*
G02*
X95000000Y-51721000I225000J0D01*
G01*
G37*
G36*
G01*
X92362000Y-53602000D02*
X93312000Y-53602000D01*
G75*
G02*
X93562000Y-53852000I0J-250000D01*
G01*
X93562000Y-54352000D01*
G75*
G02*
X93312000Y-54602000I-250000J0D01*
G01*
X92362000Y-54602000D01*
G75*
G02*
X92112000Y-54352000I0J250000D01*
G01*
X92112000Y-53852000D01*
G75*
G02*
X92362000Y-53602000I250000J0D01*
G01*
G37*
G36*
G01*
X92362000Y-51702000D02*
X93312000Y-51702000D01*
G75*
G02*
X93562000Y-51952000I0J-250000D01*
G01*
X93562000Y-52452000D01*
G75*
G02*
X93312000Y-52702000I-250000J0D01*
G01*
X92362000Y-52702000D01*
G75*
G02*
X92112000Y-52452000I0J250000D01*
G01*
X92112000Y-51952000D01*
G75*
G02*
X92362000Y-51702000I250000J0D01*
G01*
G37*
G36*
G01*
X78682000Y-50132000D02*
X78682000Y-49182000D01*
G75*
G02*
X78932000Y-48932000I250000J0D01*
G01*
X79432000Y-48932000D01*
G75*
G02*
X79682000Y-49182000I0J-250000D01*
G01*
X79682000Y-50132000D01*
G75*
G02*
X79432000Y-50382000I-250000J0D01*
G01*
X78932000Y-50382000D01*
G75*
G02*
X78682000Y-50132000I0J250000D01*
G01*
G37*
G36*
G01*
X76782000Y-50132000D02*
X76782000Y-49182000D01*
G75*
G02*
X77032000Y-48932000I250000J0D01*
G01*
X77532000Y-48932000D01*
G75*
G02*
X77782000Y-49182000I0J-250000D01*
G01*
X77782000Y-50132000D01*
G75*
G02*
X77532000Y-50382000I-250000J0D01*
G01*
X77032000Y-50382000D01*
G75*
G02*
X76782000Y-50132000I0J250000D01*
G01*
G37*
G36*
G01*
X78925000Y-52828000D02*
X78925000Y-52328000D01*
G75*
G02*
X79150000Y-52103000I225000J0D01*
G01*
X79600000Y-52103000D01*
G75*
G02*
X79825000Y-52328000I0J-225000D01*
G01*
X79825000Y-52828000D01*
G75*
G02*
X79600000Y-53053000I-225000J0D01*
G01*
X79150000Y-53053000D01*
G75*
G02*
X78925000Y-52828000I0J225000D01*
G01*
G37*
G36*
G01*
X77375000Y-52828000D02*
X77375000Y-52328000D01*
G75*
G02*
X77600000Y-52103000I225000J0D01*
G01*
X78050000Y-52103000D01*
G75*
G02*
X78275000Y-52328000I0J-225000D01*
G01*
X78275000Y-52828000D01*
G75*
G02*
X78050000Y-53053000I-225000J0D01*
G01*
X77600000Y-53053000D01*
G75*
G02*
X77375000Y-52828000I0J225000D01*
G01*
G37*
G36*
G01*
X74480000Y-49526000D02*
X74480000Y-49026000D01*
G75*
G02*
X74705000Y-48801000I225000J0D01*
G01*
X75155000Y-48801000D01*
G75*
G02*
X75380000Y-49026000I0J-225000D01*
G01*
X75380000Y-49526000D01*
G75*
G02*
X75155000Y-49751000I-225000J0D01*
G01*
X74705000Y-49751000D01*
G75*
G02*
X74480000Y-49526000I0J225000D01*
G01*
G37*
G36*
G01*
X72930000Y-49526000D02*
X72930000Y-49026000D01*
G75*
G02*
X73155000Y-48801000I225000J0D01*
G01*
X73605000Y-48801000D01*
G75*
G02*
X73830000Y-49026000I0J-225000D01*
G01*
X73830000Y-49526000D01*
G75*
G02*
X73605000Y-49751000I-225000J0D01*
G01*
X73155000Y-49751000D01*
G75*
G02*
X72930000Y-49526000I0J225000D01*
G01*
G37*
G36*
G01*
X74684000Y-52672000D02*
X74684000Y-51722000D01*
G75*
G02*
X74934000Y-51472000I250000J0D01*
G01*
X75434000Y-51472000D01*
G75*
G02*
X75684000Y-51722000I0J-250000D01*
G01*
X75684000Y-52672000D01*
G75*
G02*
X75434000Y-52922000I-250000J0D01*
G01*
X74934000Y-52922000D01*
G75*
G02*
X74684000Y-52672000I0J250000D01*
G01*
G37*
G36*
G01*
X72784000Y-52672000D02*
X72784000Y-51722000D01*
G75*
G02*
X73034000Y-51472000I250000J0D01*
G01*
X73534000Y-51472000D01*
G75*
G02*
X73784000Y-51722000I0J-250000D01*
G01*
X73784000Y-52672000D01*
G75*
G02*
X73534000Y-52922000I-250000J0D01*
G01*
X73034000Y-52922000D01*
G75*
G02*
X72784000Y-52672000I0J250000D01*
G01*
G37*
G36*
G01*
X89247000Y-53182000D02*
X89247000Y-52982000D01*
G75*
G02*
X89347000Y-52882000I100000J0D01*
G01*
X90622000Y-52882000D01*
G75*
G02*
X90722000Y-52982000I0J-100000D01*
G01*
X90722000Y-53182000D01*
G75*
G02*
X90622000Y-53282000I-100000J0D01*
G01*
X89347000Y-53282000D01*
G75*
G02*
X89247000Y-53182000I0J100000D01*
G01*
G37*
G36*
G01*
X89247000Y-53832000D02*
X89247000Y-53632000D01*
G75*
G02*
X89347000Y-53532000I100000J0D01*
G01*
X90622000Y-53532000D01*
G75*
G02*
X90722000Y-53632000I0J-100000D01*
G01*
X90722000Y-53832000D01*
G75*
G02*
X90622000Y-53932000I-100000J0D01*
G01*
X89347000Y-53932000D01*
G75*
G02*
X89247000Y-53832000I0J100000D01*
G01*
G37*
G36*
G01*
X89247000Y-54482000D02*
X89247000Y-54282000D01*
G75*
G02*
X89347000Y-54182000I100000J0D01*
G01*
X90622000Y-54182000D01*
G75*
G02*
X90722000Y-54282000I0J-100000D01*
G01*
X90722000Y-54482000D01*
G75*
G02*
X90622000Y-54582000I-100000J0D01*
G01*
X89347000Y-54582000D01*
G75*
G02*
X89247000Y-54482000I0J100000D01*
G01*
G37*
G36*
G01*
X89247000Y-55132000D02*
X89247000Y-54932000D01*
G75*
G02*
X89347000Y-54832000I100000J0D01*
G01*
X90622000Y-54832000D01*
G75*
G02*
X90722000Y-54932000I0J-100000D01*
G01*
X90722000Y-55132000D01*
G75*
G02*
X90622000Y-55232000I-100000J0D01*
G01*
X89347000Y-55232000D01*
G75*
G02*
X89247000Y-55132000I0J100000D01*
G01*
G37*
G36*
G01*
X89247000Y-55782000D02*
X89247000Y-55582000D01*
G75*
G02*
X89347000Y-55482000I100000J0D01*
G01*
X90622000Y-55482000D01*
G75*
G02*
X90722000Y-55582000I0J-100000D01*
G01*
X90722000Y-55782000D01*
G75*
G02*
X90622000Y-55882000I-100000J0D01*
G01*
X89347000Y-55882000D01*
G75*
G02*
X89247000Y-55782000I0J100000D01*
G01*
G37*
G36*
G01*
X89247000Y-56432000D02*
X89247000Y-56232000D01*
G75*
G02*
X89347000Y-56132000I100000J0D01*
G01*
X90622000Y-56132000D01*
G75*
G02*
X90722000Y-56232000I0J-100000D01*
G01*
X90722000Y-56432000D01*
G75*
G02*
X90622000Y-56532000I-100000J0D01*
G01*
X89347000Y-56532000D01*
G75*
G02*
X89247000Y-56432000I0J100000D01*
G01*
G37*
G36*
G01*
X89247000Y-57082000D02*
X89247000Y-56882000D01*
G75*
G02*
X89347000Y-56782000I100000J0D01*
G01*
X90622000Y-56782000D01*
G75*
G02*
X90722000Y-56882000I0J-100000D01*
G01*
X90722000Y-57082000D01*
G75*
G02*
X90622000Y-57182000I-100000J0D01*
G01*
X89347000Y-57182000D01*
G75*
G02*
X89247000Y-57082000I0J100000D01*
G01*
G37*
G36*
G01*
X89247000Y-57732000D02*
X89247000Y-57532000D01*
G75*
G02*
X89347000Y-57432000I100000J0D01*
G01*
X90622000Y-57432000D01*
G75*
G02*
X90722000Y-57532000I0J-100000D01*
G01*
X90722000Y-57732000D01*
G75*
G02*
X90622000Y-57832000I-100000J0D01*
G01*
X89347000Y-57832000D01*
G75*
G02*
X89247000Y-57732000I0J100000D01*
G01*
G37*
G36*
G01*
X89247000Y-58382000D02*
X89247000Y-58182000D01*
G75*
G02*
X89347000Y-58082000I100000J0D01*
G01*
X90622000Y-58082000D01*
G75*
G02*
X90722000Y-58182000I0J-100000D01*
G01*
X90722000Y-58382000D01*
G75*
G02*
X90622000Y-58482000I-100000J0D01*
G01*
X89347000Y-58482000D01*
G75*
G02*
X89247000Y-58382000I0J100000D01*
G01*
G37*
G36*
G01*
X89247000Y-59032000D02*
X89247000Y-58832000D01*
G75*
G02*
X89347000Y-58732000I100000J0D01*
G01*
X90622000Y-58732000D01*
G75*
G02*
X90722000Y-58832000I0J-100000D01*
G01*
X90722000Y-59032000D01*
G75*
G02*
X90622000Y-59132000I-100000J0D01*
G01*
X89347000Y-59132000D01*
G75*
G02*
X89247000Y-59032000I0J100000D01*
G01*
G37*
G36*
G01*
X83522000Y-59032000D02*
X83522000Y-58832000D01*
G75*
G02*
X83622000Y-58732000I100000J0D01*
G01*
X84897000Y-58732000D01*
G75*
G02*
X84997000Y-58832000I0J-100000D01*
G01*
X84997000Y-59032000D01*
G75*
G02*
X84897000Y-59132000I-100000J0D01*
G01*
X83622000Y-59132000D01*
G75*
G02*
X83522000Y-59032000I0J100000D01*
G01*
G37*
G36*
G01*
X83522000Y-58382000D02*
X83522000Y-58182000D01*
G75*
G02*
X83622000Y-58082000I100000J0D01*
G01*
X84897000Y-58082000D01*
G75*
G02*
X84997000Y-58182000I0J-100000D01*
G01*
X84997000Y-58382000D01*
G75*
G02*
X84897000Y-58482000I-100000J0D01*
G01*
X83622000Y-58482000D01*
G75*
G02*
X83522000Y-58382000I0J100000D01*
G01*
G37*
G36*
G01*
X83522000Y-57732000D02*
X83522000Y-57532000D01*
G75*
G02*
X83622000Y-57432000I100000J0D01*
G01*
X84897000Y-57432000D01*
G75*
G02*
X84997000Y-57532000I0J-100000D01*
G01*
X84997000Y-57732000D01*
G75*
G02*
X84897000Y-57832000I-100000J0D01*
G01*
X83622000Y-57832000D01*
G75*
G02*
X83522000Y-57732000I0J100000D01*
G01*
G37*
G36*
G01*
X83522000Y-57082000D02*
X83522000Y-56882000D01*
G75*
G02*
X83622000Y-56782000I100000J0D01*
G01*
X84897000Y-56782000D01*
G75*
G02*
X84997000Y-56882000I0J-100000D01*
G01*
X84997000Y-57082000D01*
G75*
G02*
X84897000Y-57182000I-100000J0D01*
G01*
X83622000Y-57182000D01*
G75*
G02*
X83522000Y-57082000I0J100000D01*
G01*
G37*
G36*
G01*
X83522000Y-56432000D02*
X83522000Y-56232000D01*
G75*
G02*
X83622000Y-56132000I100000J0D01*
G01*
X84897000Y-56132000D01*
G75*
G02*
X84997000Y-56232000I0J-100000D01*
G01*
X84997000Y-56432000D01*
G75*
G02*
X84897000Y-56532000I-100000J0D01*
G01*
X83622000Y-56532000D01*
G75*
G02*
X83522000Y-56432000I0J100000D01*
G01*
G37*
G36*
G01*
X83522000Y-55782000D02*
X83522000Y-55582000D01*
G75*
G02*
X83622000Y-55482000I100000J0D01*
G01*
X84897000Y-55482000D01*
G75*
G02*
X84997000Y-55582000I0J-100000D01*
G01*
X84997000Y-55782000D01*
G75*
G02*
X84897000Y-55882000I-100000J0D01*
G01*
X83622000Y-55882000D01*
G75*
G02*
X83522000Y-55782000I0J100000D01*
G01*
G37*
G36*
G01*
X83522000Y-55132000D02*
X83522000Y-54932000D01*
G75*
G02*
X83622000Y-54832000I100000J0D01*
G01*
X84897000Y-54832000D01*
G75*
G02*
X84997000Y-54932000I0J-100000D01*
G01*
X84997000Y-55132000D01*
G75*
G02*
X84897000Y-55232000I-100000J0D01*
G01*
X83622000Y-55232000D01*
G75*
G02*
X83522000Y-55132000I0J100000D01*
G01*
G37*
G36*
G01*
X83522000Y-54482000D02*
X83522000Y-54282000D01*
G75*
G02*
X83622000Y-54182000I100000J0D01*
G01*
X84897000Y-54182000D01*
G75*
G02*
X84997000Y-54282000I0J-100000D01*
G01*
X84997000Y-54482000D01*
G75*
G02*
X84897000Y-54582000I-100000J0D01*
G01*
X83622000Y-54582000D01*
G75*
G02*
X83522000Y-54482000I0J100000D01*
G01*
G37*
G36*
G01*
X83522000Y-53832000D02*
X83522000Y-53632000D01*
G75*
G02*
X83622000Y-53532000I100000J0D01*
G01*
X84897000Y-53532000D01*
G75*
G02*
X84997000Y-53632000I0J-100000D01*
G01*
X84997000Y-53832000D01*
G75*
G02*
X84897000Y-53932000I-100000J0D01*
G01*
X83622000Y-53932000D01*
G75*
G02*
X83522000Y-53832000I0J100000D01*
G01*
G37*
G36*
G01*
X83522000Y-53182000D02*
X83522000Y-52982000D01*
G75*
G02*
X83622000Y-52882000I100000J0D01*
G01*
X84897000Y-52882000D01*
G75*
G02*
X84997000Y-52982000I0J-100000D01*
G01*
X84997000Y-53182000D01*
G75*
G02*
X84897000Y-53282000I-100000J0D01*
G01*
X83622000Y-53282000D01*
G75*
G02*
X83522000Y-53182000I0J100000D01*
G01*
G37*
G36*
G01*
X96423000Y-56910000D02*
X96423000Y-56710000D01*
G75*
G02*
X96523000Y-56610000I100000J0D01*
G01*
X97948000Y-56610000D01*
G75*
G02*
X98048000Y-56710000I0J-100000D01*
G01*
X98048000Y-56910000D01*
G75*
G02*
X97948000Y-57010000I-100000J0D01*
G01*
X96523000Y-57010000D01*
G75*
G02*
X96423000Y-56910000I0J100000D01*
G01*
G37*
G36*
G01*
X96423000Y-57560000D02*
X96423000Y-57360000D01*
G75*
G02*
X96523000Y-57260000I100000J0D01*
G01*
X97948000Y-57260000D01*
G75*
G02*
X98048000Y-57360000I0J-100000D01*
G01*
X98048000Y-57560000D01*
G75*
G02*
X97948000Y-57660000I-100000J0D01*
G01*
X96523000Y-57660000D01*
G75*
G02*
X96423000Y-57560000I0J100000D01*
G01*
G37*
G36*
G01*
X96423000Y-58210000D02*
X96423000Y-58010000D01*
G75*
G02*
X96523000Y-57910000I100000J0D01*
G01*
X97948000Y-57910000D01*
G75*
G02*
X98048000Y-58010000I0J-100000D01*
G01*
X98048000Y-58210000D01*
G75*
G02*
X97948000Y-58310000I-100000J0D01*
G01*
X96523000Y-58310000D01*
G75*
G02*
X96423000Y-58210000I0J100000D01*
G01*
G37*
G36*
G01*
X96423000Y-58860000D02*
X96423000Y-58660000D01*
G75*
G02*
X96523000Y-58560000I100000J0D01*
G01*
X97948000Y-58560000D01*
G75*
G02*
X98048000Y-58660000I0J-100000D01*
G01*
X98048000Y-58860000D01*
G75*
G02*
X97948000Y-58960000I-100000J0D01*
G01*
X96523000Y-58960000D01*
G75*
G02*
X96423000Y-58860000I0J100000D01*
G01*
G37*
G36*
G01*
X92198000Y-58860000D02*
X92198000Y-58660000D01*
G75*
G02*
X92298000Y-58560000I100000J0D01*
G01*
X93723000Y-58560000D01*
G75*
G02*
X93823000Y-58660000I0J-100000D01*
G01*
X93823000Y-58860000D01*
G75*
G02*
X93723000Y-58960000I-100000J0D01*
G01*
X92298000Y-58960000D01*
G75*
G02*
X92198000Y-58860000I0J100000D01*
G01*
G37*
G36*
G01*
X92198000Y-58210000D02*
X92198000Y-58010000D01*
G75*
G02*
X92298000Y-57910000I100000J0D01*
G01*
X93723000Y-57910000D01*
G75*
G02*
X93823000Y-58010000I0J-100000D01*
G01*
X93823000Y-58210000D01*
G75*
G02*
X93723000Y-58310000I-100000J0D01*
G01*
X92298000Y-58310000D01*
G75*
G02*
X92198000Y-58210000I0J100000D01*
G01*
G37*
G36*
G01*
X92198000Y-57560000D02*
X92198000Y-57360000D01*
G75*
G02*
X92298000Y-57260000I100000J0D01*
G01*
X93723000Y-57260000D01*
G75*
G02*
X93823000Y-57360000I0J-100000D01*
G01*
X93823000Y-57560000D01*
G75*
G02*
X93723000Y-57660000I-100000J0D01*
G01*
X92298000Y-57660000D01*
G75*
G02*
X92198000Y-57560000I0J100000D01*
G01*
G37*
G36*
G01*
X92198000Y-56910000D02*
X92198000Y-56710000D01*
G75*
G02*
X92298000Y-56610000I100000J0D01*
G01*
X93723000Y-56610000D01*
G75*
G02*
X93823000Y-56710000I0J-100000D01*
G01*
X93823000Y-56910000D01*
G75*
G02*
X93723000Y-57010000I-100000J0D01*
G01*
X92298000Y-57010000D01*
G75*
G02*
X92198000Y-56910000I0J100000D01*
G01*
G37*
D14*
X77563000Y-58547000D03*
X79663000Y-58547000D03*
D15*
X73218000Y-55542000D03*
X75118000Y-55542000D03*
X75118000Y-57742000D03*
X74168000Y-57742000D03*
X73218000Y-57742000D03*
G36*
G01*
X82169250Y-52380500D02*
X81406750Y-52380500D01*
G75*
G02*
X81188000Y-52161750I0J218750D01*
G01*
X81188000Y-51724250D01*
G75*
G02*
X81406750Y-51505500I218750J0D01*
G01*
X82169250Y-51505500D01*
G75*
G02*
X82388000Y-51724250I0J-218750D01*
G01*
X82388000Y-52161750D01*
G75*
G02*
X82169250Y-52380500I-218750J0D01*
G01*
G37*
G36*
G01*
X82169250Y-54505500D02*
X81406750Y-54505500D01*
G75*
G02*
X81188000Y-54286750I0J218750D01*
G01*
X81188000Y-53849250D01*
G75*
G02*
X81406750Y-53630500I218750J0D01*
G01*
X82169250Y-53630500D01*
G75*
G02*
X82388000Y-53849250I0J-218750D01*
G01*
X82388000Y-54286750D01*
G75*
G02*
X82169250Y-54505500I-218750J0D01*
G01*
G37*
G36*
G01*
X79238000Y-55880250D02*
X79238000Y-55117750D01*
G75*
G02*
X79456750Y-54899000I218750J0D01*
G01*
X79894250Y-54899000D01*
G75*
G02*
X80113000Y-55117750I0J-218750D01*
G01*
X80113000Y-55880250D01*
G75*
G02*
X79894250Y-56099000I-218750J0D01*
G01*
X79456750Y-56099000D01*
G75*
G02*
X79238000Y-55880250I0J218750D01*
G01*
G37*
G36*
G01*
X77113000Y-55880250D02*
X77113000Y-55117750D01*
G75*
G02*
X77331750Y-54899000I218750J0D01*
G01*
X77769250Y-54899000D01*
G75*
G02*
X77988000Y-55117750I0J-218750D01*
G01*
X77988000Y-55880250D01*
G75*
G02*
X77769250Y-56099000I-218750J0D01*
G01*
X77331750Y-56099000D01*
G75*
G02*
X77113000Y-55880250I0J218750D01*
G01*
G37*
D12*
X96520000Y-45720000D03*
X93980000Y-45720000D03*
X91440000Y-45720000D03*
D13*
X88900000Y-45720000D03*
D12*
X81280000Y-45720000D03*
X78740000Y-45720000D03*
X76200000Y-45720000D03*
D13*
X73660000Y-45720000D03*
M02*
