%FSLAX45Y45*%
G04 Gerber Fmt 4.5, Leading zero omitted, Abs format (unit mm)*
G04 Created by KiCad (PCBNEW 5.1.10-88a1d61d58~88~ubuntu20.04.1) date 2021-06-12 08:27:31*
%MOMM*%
%LPD*%
G01*
G04 APERTURE LIST*
%TA.AperFunction,Profile*%
%ADD10C,0.050000*%
%TD*%
%ADD11C,0.200000*%
%ADD12C,0.300000*%
G04 APERTURE END LIST*
D10*
X7112000Y-6350000D02*
X9906000Y-6350000D01*
X7112000Y-4318000D02*
X7112000Y-6350000D01*
X9906000Y-4318000D02*
X7112000Y-4318000D01*
X9906000Y-6350000D02*
X9906000Y-4318000D01*
D11*
D12*
X7395928Y-6818214D02*
X7395928Y-6518214D01*
X7467357Y-6518214D01*
X7510214Y-6532500D01*
X7538786Y-6561071D01*
X7553071Y-6589643D01*
X7567357Y-6646786D01*
X7567357Y-6689643D01*
X7553071Y-6746786D01*
X7538786Y-6775357D01*
X7510214Y-6803929D01*
X7467357Y-6818214D01*
X7395928Y-6818214D01*
X7695928Y-6818214D02*
X7695928Y-6618214D01*
X7695928Y-6675357D02*
X7710214Y-6646786D01*
X7724500Y-6632500D01*
X7753071Y-6618214D01*
X7781643Y-6618214D01*
X7881643Y-6818214D02*
X7881643Y-6618214D01*
X7881643Y-6518214D02*
X7867357Y-6532500D01*
X7881643Y-6546786D01*
X7895928Y-6532500D01*
X7881643Y-6518214D01*
X7881643Y-6546786D01*
X8067357Y-6818214D02*
X8038786Y-6803929D01*
X8024500Y-6775357D01*
X8024500Y-6518214D01*
X8224500Y-6818214D02*
X8195928Y-6803929D01*
X8181643Y-6775357D01*
X8181643Y-6518214D01*
X8567357Y-6818214D02*
X8567357Y-6518214D01*
X8667357Y-6732500D01*
X8767357Y-6518214D01*
X8767357Y-6818214D01*
X9038786Y-6818214D02*
X9038786Y-6661071D01*
X9024500Y-6632500D01*
X8995928Y-6618214D01*
X8938786Y-6618214D01*
X8910214Y-6632500D01*
X9038786Y-6803929D02*
X9010214Y-6818214D01*
X8938786Y-6818214D01*
X8910214Y-6803929D01*
X8895928Y-6775357D01*
X8895928Y-6746786D01*
X8910214Y-6718214D01*
X8938786Y-6703929D01*
X9010214Y-6703929D01*
X9038786Y-6689643D01*
X9181643Y-6618214D02*
X9181643Y-6918214D01*
X9181643Y-6632500D02*
X9210214Y-6618214D01*
X9267357Y-6618214D01*
X9295928Y-6632500D01*
X9310214Y-6646786D01*
X9324500Y-6675357D01*
X9324500Y-6761071D01*
X9310214Y-6789643D01*
X9295928Y-6803929D01*
X9267357Y-6818214D01*
X9210214Y-6818214D01*
X9181643Y-6803929D01*
X9453071Y-6789643D02*
X9467357Y-6803929D01*
X9453071Y-6818214D01*
X9438786Y-6803929D01*
X9453071Y-6789643D01*
X9453071Y-6818214D01*
X9453071Y-6632500D02*
X9467357Y-6646786D01*
X9453071Y-6661071D01*
X9438786Y-6646786D01*
X9453071Y-6632500D01*
X9453071Y-6661071D01*
M02*
