G04 #@! TF.GenerationSoftware,KiCad,Pcbnew,5.1.10-88a1d61d58~88~ubuntu20.04.1*
G04 #@! TF.CreationDate,2021-06-12T08:26:13-04:00*
G04 #@! TF.ProjectId,stm32l0_mod_source,73746d33-326c-4305-9f6d-6f645f736f75,rev?*
G04 #@! TF.SameCoordinates,Original*
G04 #@! TF.FileFunction,Copper,L1,Top*
G04 #@! TF.FilePolarity,Positive*
%FSLAX46Y46*%
G04 Gerber Fmt 4.6, Leading zero omitted, Abs format (unit mm)*
G04 Created by KiCad (PCBNEW 5.1.10-88a1d61d58~88~ubuntu20.04.1) date 2021-06-12 08:26:13*
%MOMM*%
%LPD*%
G01*
G04 APERTURE LIST*
G04 #@! TA.AperFunction,ComponentPad*
%ADD10O,1.700000X1.700000*%
G04 #@! TD*
G04 #@! TA.AperFunction,ComponentPad*
%ADD11R,1.700000X1.700000*%
G04 #@! TD*
G04 #@! TA.AperFunction,SMDPad,CuDef*
%ADD12R,0.600000X0.450000*%
G04 #@! TD*
G04 #@! TA.AperFunction,SMDPad,CuDef*
%ADD13R,0.650000X1.060000*%
G04 #@! TD*
G04 #@! TA.AperFunction,ViaPad*
%ADD14C,0.800000*%
G04 #@! TD*
G04 #@! TA.AperFunction,Conductor*
%ADD15C,0.400000*%
G04 #@! TD*
G04 #@! TA.AperFunction,Conductor*
%ADD16C,0.700000*%
G04 #@! TD*
G04 #@! TA.AperFunction,Conductor*
%ADD17C,0.254000*%
G04 #@! TD*
G04 #@! TA.AperFunction,Conductor*
%ADD18C,0.100000*%
G04 #@! TD*
G04 APERTURE END LIST*
D10*
X96520000Y-60960000D03*
X93980000Y-60960000D03*
X91440000Y-60960000D03*
X88900000Y-60960000D03*
X86360000Y-60960000D03*
X83820000Y-60960000D03*
X81280000Y-60960000D03*
X78740000Y-60960000D03*
X76200000Y-60960000D03*
D11*
X73660000Y-60960000D03*
G04 #@! TA.AperFunction,SMDPad,CuDef*
G36*
G01*
X95229000Y-48875000D02*
X95779000Y-48875000D01*
G75*
G02*
X95979000Y-49075000I0J-200000D01*
G01*
X95979000Y-49475000D01*
G75*
G02*
X95779000Y-49675000I-200000J0D01*
G01*
X95229000Y-49675000D01*
G75*
G02*
X95029000Y-49475000I0J200000D01*
G01*
X95029000Y-49075000D01*
G75*
G02*
X95229000Y-48875000I200000J0D01*
G01*
G37*
G04 #@! TD.AperFunction*
G04 #@! TA.AperFunction,SMDPad,CuDef*
G36*
G01*
X95229000Y-47225000D02*
X95779000Y-47225000D01*
G75*
G02*
X95979000Y-47425000I0J-200000D01*
G01*
X95979000Y-47825000D01*
G75*
G02*
X95779000Y-48025000I-200000J0D01*
G01*
X95229000Y-48025000D01*
G75*
G02*
X95029000Y-47825000I0J200000D01*
G01*
X95029000Y-47425000D01*
G75*
G02*
X95229000Y-47225000I200000J0D01*
G01*
G37*
G04 #@! TD.AperFunction*
G04 #@! TA.AperFunction,SMDPad,CuDef*
G36*
G01*
X91927000Y-48876000D02*
X92477000Y-48876000D01*
G75*
G02*
X92677000Y-49076000I0J-200000D01*
G01*
X92677000Y-49476000D01*
G75*
G02*
X92477000Y-49676000I-200000J0D01*
G01*
X91927000Y-49676000D01*
G75*
G02*
X91727000Y-49476000I0J200000D01*
G01*
X91727000Y-49076000D01*
G75*
G02*
X91927000Y-48876000I200000J0D01*
G01*
G37*
G04 #@! TD.AperFunction*
G04 #@! TA.AperFunction,SMDPad,CuDef*
G36*
G01*
X91927000Y-47226000D02*
X92477000Y-47226000D01*
G75*
G02*
X92677000Y-47426000I0J-200000D01*
G01*
X92677000Y-47826000D01*
G75*
G02*
X92477000Y-48026000I-200000J0D01*
G01*
X91927000Y-48026000D01*
G75*
G02*
X91727000Y-47826000I0J200000D01*
G01*
X91727000Y-47426000D01*
G75*
G02*
X91927000Y-47226000I200000J0D01*
G01*
G37*
G04 #@! TD.AperFunction*
G04 #@! TA.AperFunction,SMDPad,CuDef*
G36*
G01*
X88625000Y-48876000D02*
X89175000Y-48876000D01*
G75*
G02*
X89375000Y-49076000I0J-200000D01*
G01*
X89375000Y-49476000D01*
G75*
G02*
X89175000Y-49676000I-200000J0D01*
G01*
X88625000Y-49676000D01*
G75*
G02*
X88425000Y-49476000I0J200000D01*
G01*
X88425000Y-49076000D01*
G75*
G02*
X88625000Y-48876000I200000J0D01*
G01*
G37*
G04 #@! TD.AperFunction*
G04 #@! TA.AperFunction,SMDPad,CuDef*
G36*
G01*
X88625000Y-47226000D02*
X89175000Y-47226000D01*
G75*
G02*
X89375000Y-47426000I0J-200000D01*
G01*
X89375000Y-47826000D01*
G75*
G02*
X89175000Y-48026000I-200000J0D01*
G01*
X88625000Y-48026000D01*
G75*
G02*
X88425000Y-47826000I0J200000D01*
G01*
X88425000Y-47426000D01*
G75*
G02*
X88625000Y-47226000I200000J0D01*
G01*
G37*
G04 #@! TD.AperFunction*
G04 #@! TA.AperFunction,SMDPad,CuDef*
G36*
G01*
X81808000Y-48620000D02*
X81808000Y-49170000D01*
G75*
G02*
X81608000Y-49370000I-200000J0D01*
G01*
X81208000Y-49370000D01*
G75*
G02*
X81008000Y-49170000I0J200000D01*
G01*
X81008000Y-48620000D01*
G75*
G02*
X81208000Y-48420000I200000J0D01*
G01*
X81608000Y-48420000D01*
G75*
G02*
X81808000Y-48620000I0J-200000D01*
G01*
G37*
G04 #@! TD.AperFunction*
G04 #@! TA.AperFunction,SMDPad,CuDef*
G36*
G01*
X83458000Y-48620000D02*
X83458000Y-49170000D01*
G75*
G02*
X83258000Y-49370000I-200000J0D01*
G01*
X82858000Y-49370000D01*
G75*
G02*
X82658000Y-49170000I0J200000D01*
G01*
X82658000Y-48620000D01*
G75*
G02*
X82858000Y-48420000I200000J0D01*
G01*
X83258000Y-48420000D01*
G75*
G02*
X83458000Y-48620000I0J-200000D01*
G01*
G37*
G04 #@! TD.AperFunction*
G04 #@! TA.AperFunction,SMDPad,CuDef*
G36*
G01*
X81313000Y-58296000D02*
X82263000Y-58296000D01*
G75*
G02*
X82513000Y-58546000I0J-250000D01*
G01*
X82513000Y-59046000D01*
G75*
G02*
X82263000Y-59296000I-250000J0D01*
G01*
X81313000Y-59296000D01*
G75*
G02*
X81063000Y-59046000I0J250000D01*
G01*
X81063000Y-58546000D01*
G75*
G02*
X81313000Y-58296000I250000J0D01*
G01*
G37*
G04 #@! TD.AperFunction*
G04 #@! TA.AperFunction,SMDPad,CuDef*
G36*
G01*
X81313000Y-56396000D02*
X82263000Y-56396000D01*
G75*
G02*
X82513000Y-56646000I0J-250000D01*
G01*
X82513000Y-57146000D01*
G75*
G02*
X82263000Y-57396000I-250000J0D01*
G01*
X81313000Y-57396000D01*
G75*
G02*
X81063000Y-57146000I0J250000D01*
G01*
X81063000Y-56646000D01*
G75*
G02*
X81313000Y-56396000I250000J0D01*
G01*
G37*
G04 #@! TD.AperFunction*
G04 #@! TA.AperFunction,SMDPad,CuDef*
G36*
G01*
X86037000Y-48637000D02*
X86037000Y-48137000D01*
G75*
G02*
X86262000Y-47912000I225000J0D01*
G01*
X86712000Y-47912000D01*
G75*
G02*
X86937000Y-48137000I0J-225000D01*
G01*
X86937000Y-48637000D01*
G75*
G02*
X86712000Y-48862000I-225000J0D01*
G01*
X86262000Y-48862000D01*
G75*
G02*
X86037000Y-48637000I0J225000D01*
G01*
G37*
G04 #@! TD.AperFunction*
G04 #@! TA.AperFunction,SMDPad,CuDef*
G36*
G01*
X84487000Y-48637000D02*
X84487000Y-48137000D01*
G75*
G02*
X84712000Y-47912000I225000J0D01*
G01*
X85162000Y-47912000D01*
G75*
G02*
X85387000Y-48137000I0J-225000D01*
G01*
X85387000Y-48637000D01*
G75*
G02*
X85162000Y-48862000I-225000J0D01*
G01*
X84712000Y-48862000D01*
G75*
G02*
X84487000Y-48637000I0J225000D01*
G01*
G37*
G04 #@! TD.AperFunction*
G04 #@! TA.AperFunction,SMDPad,CuDef*
G36*
G01*
X86037000Y-51685000D02*
X86037000Y-51185000D01*
G75*
G02*
X86262000Y-50960000I225000J0D01*
G01*
X86712000Y-50960000D01*
G75*
G02*
X86937000Y-51185000I0J-225000D01*
G01*
X86937000Y-51685000D01*
G75*
G02*
X86712000Y-51910000I-225000J0D01*
G01*
X86262000Y-51910000D01*
G75*
G02*
X86037000Y-51685000I0J225000D01*
G01*
G37*
G04 #@! TD.AperFunction*
G04 #@! TA.AperFunction,SMDPad,CuDef*
G36*
G01*
X84487000Y-51685000D02*
X84487000Y-51185000D01*
G75*
G02*
X84712000Y-50960000I225000J0D01*
G01*
X85162000Y-50960000D01*
G75*
G02*
X85387000Y-51185000I0J-225000D01*
G01*
X85387000Y-51685000D01*
G75*
G02*
X85162000Y-51910000I-225000J0D01*
G01*
X84712000Y-51910000D01*
G75*
G02*
X84487000Y-51685000I0J225000D01*
G01*
G37*
G04 #@! TD.AperFunction*
G04 #@! TA.AperFunction,SMDPad,CuDef*
G36*
G01*
X97159000Y-53271000D02*
X97659000Y-53271000D01*
G75*
G02*
X97884000Y-53496000I0J-225000D01*
G01*
X97884000Y-53946000D01*
G75*
G02*
X97659000Y-54171000I-225000J0D01*
G01*
X97159000Y-54171000D01*
G75*
G02*
X96934000Y-53946000I0J225000D01*
G01*
X96934000Y-53496000D01*
G75*
G02*
X97159000Y-53271000I225000J0D01*
G01*
G37*
G04 #@! TD.AperFunction*
G04 #@! TA.AperFunction,SMDPad,CuDef*
G36*
G01*
X97159000Y-51721000D02*
X97659000Y-51721000D01*
G75*
G02*
X97884000Y-51946000I0J-225000D01*
G01*
X97884000Y-52396000D01*
G75*
G02*
X97659000Y-52621000I-225000J0D01*
G01*
X97159000Y-52621000D01*
G75*
G02*
X96934000Y-52396000I0J225000D01*
G01*
X96934000Y-51946000D01*
G75*
G02*
X97159000Y-51721000I225000J0D01*
G01*
G37*
G04 #@! TD.AperFunction*
G04 #@! TA.AperFunction,SMDPad,CuDef*
G36*
G01*
X95000000Y-53271000D02*
X95500000Y-53271000D01*
G75*
G02*
X95725000Y-53496000I0J-225000D01*
G01*
X95725000Y-53946000D01*
G75*
G02*
X95500000Y-54171000I-225000J0D01*
G01*
X95000000Y-54171000D01*
G75*
G02*
X94775000Y-53946000I0J225000D01*
G01*
X94775000Y-53496000D01*
G75*
G02*
X95000000Y-53271000I225000J0D01*
G01*
G37*
G04 #@! TD.AperFunction*
G04 #@! TA.AperFunction,SMDPad,CuDef*
G36*
G01*
X95000000Y-51721000D02*
X95500000Y-51721000D01*
G75*
G02*
X95725000Y-51946000I0J-225000D01*
G01*
X95725000Y-52396000D01*
G75*
G02*
X95500000Y-52621000I-225000J0D01*
G01*
X95000000Y-52621000D01*
G75*
G02*
X94775000Y-52396000I0J225000D01*
G01*
X94775000Y-51946000D01*
G75*
G02*
X95000000Y-51721000I225000J0D01*
G01*
G37*
G04 #@! TD.AperFunction*
G04 #@! TA.AperFunction,SMDPad,CuDef*
G36*
G01*
X92362000Y-53602000D02*
X93312000Y-53602000D01*
G75*
G02*
X93562000Y-53852000I0J-250000D01*
G01*
X93562000Y-54352000D01*
G75*
G02*
X93312000Y-54602000I-250000J0D01*
G01*
X92362000Y-54602000D01*
G75*
G02*
X92112000Y-54352000I0J250000D01*
G01*
X92112000Y-53852000D01*
G75*
G02*
X92362000Y-53602000I250000J0D01*
G01*
G37*
G04 #@! TD.AperFunction*
G04 #@! TA.AperFunction,SMDPad,CuDef*
G36*
G01*
X92362000Y-51702000D02*
X93312000Y-51702000D01*
G75*
G02*
X93562000Y-51952000I0J-250000D01*
G01*
X93562000Y-52452000D01*
G75*
G02*
X93312000Y-52702000I-250000J0D01*
G01*
X92362000Y-52702000D01*
G75*
G02*
X92112000Y-52452000I0J250000D01*
G01*
X92112000Y-51952000D01*
G75*
G02*
X92362000Y-51702000I250000J0D01*
G01*
G37*
G04 #@! TD.AperFunction*
G04 #@! TA.AperFunction,SMDPad,CuDef*
G36*
G01*
X78682000Y-50132000D02*
X78682000Y-49182000D01*
G75*
G02*
X78932000Y-48932000I250000J0D01*
G01*
X79432000Y-48932000D01*
G75*
G02*
X79682000Y-49182000I0J-250000D01*
G01*
X79682000Y-50132000D01*
G75*
G02*
X79432000Y-50382000I-250000J0D01*
G01*
X78932000Y-50382000D01*
G75*
G02*
X78682000Y-50132000I0J250000D01*
G01*
G37*
G04 #@! TD.AperFunction*
G04 #@! TA.AperFunction,SMDPad,CuDef*
G36*
G01*
X76782000Y-50132000D02*
X76782000Y-49182000D01*
G75*
G02*
X77032000Y-48932000I250000J0D01*
G01*
X77532000Y-48932000D01*
G75*
G02*
X77782000Y-49182000I0J-250000D01*
G01*
X77782000Y-50132000D01*
G75*
G02*
X77532000Y-50382000I-250000J0D01*
G01*
X77032000Y-50382000D01*
G75*
G02*
X76782000Y-50132000I0J250000D01*
G01*
G37*
G04 #@! TD.AperFunction*
G04 #@! TA.AperFunction,SMDPad,CuDef*
G36*
G01*
X78925000Y-52828000D02*
X78925000Y-52328000D01*
G75*
G02*
X79150000Y-52103000I225000J0D01*
G01*
X79600000Y-52103000D01*
G75*
G02*
X79825000Y-52328000I0J-225000D01*
G01*
X79825000Y-52828000D01*
G75*
G02*
X79600000Y-53053000I-225000J0D01*
G01*
X79150000Y-53053000D01*
G75*
G02*
X78925000Y-52828000I0J225000D01*
G01*
G37*
G04 #@! TD.AperFunction*
G04 #@! TA.AperFunction,SMDPad,CuDef*
G36*
G01*
X77375000Y-52828000D02*
X77375000Y-52328000D01*
G75*
G02*
X77600000Y-52103000I225000J0D01*
G01*
X78050000Y-52103000D01*
G75*
G02*
X78275000Y-52328000I0J-225000D01*
G01*
X78275000Y-52828000D01*
G75*
G02*
X78050000Y-53053000I-225000J0D01*
G01*
X77600000Y-53053000D01*
G75*
G02*
X77375000Y-52828000I0J225000D01*
G01*
G37*
G04 #@! TD.AperFunction*
G04 #@! TA.AperFunction,SMDPad,CuDef*
G36*
G01*
X74480000Y-49526000D02*
X74480000Y-49026000D01*
G75*
G02*
X74705000Y-48801000I225000J0D01*
G01*
X75155000Y-48801000D01*
G75*
G02*
X75380000Y-49026000I0J-225000D01*
G01*
X75380000Y-49526000D01*
G75*
G02*
X75155000Y-49751000I-225000J0D01*
G01*
X74705000Y-49751000D01*
G75*
G02*
X74480000Y-49526000I0J225000D01*
G01*
G37*
G04 #@! TD.AperFunction*
G04 #@! TA.AperFunction,SMDPad,CuDef*
G36*
G01*
X72930000Y-49526000D02*
X72930000Y-49026000D01*
G75*
G02*
X73155000Y-48801000I225000J0D01*
G01*
X73605000Y-48801000D01*
G75*
G02*
X73830000Y-49026000I0J-225000D01*
G01*
X73830000Y-49526000D01*
G75*
G02*
X73605000Y-49751000I-225000J0D01*
G01*
X73155000Y-49751000D01*
G75*
G02*
X72930000Y-49526000I0J225000D01*
G01*
G37*
G04 #@! TD.AperFunction*
G04 #@! TA.AperFunction,SMDPad,CuDef*
G36*
G01*
X74684000Y-52672000D02*
X74684000Y-51722000D01*
G75*
G02*
X74934000Y-51472000I250000J0D01*
G01*
X75434000Y-51472000D01*
G75*
G02*
X75684000Y-51722000I0J-250000D01*
G01*
X75684000Y-52672000D01*
G75*
G02*
X75434000Y-52922000I-250000J0D01*
G01*
X74934000Y-52922000D01*
G75*
G02*
X74684000Y-52672000I0J250000D01*
G01*
G37*
G04 #@! TD.AperFunction*
G04 #@! TA.AperFunction,SMDPad,CuDef*
G36*
G01*
X72784000Y-52672000D02*
X72784000Y-51722000D01*
G75*
G02*
X73034000Y-51472000I250000J0D01*
G01*
X73534000Y-51472000D01*
G75*
G02*
X73784000Y-51722000I0J-250000D01*
G01*
X73784000Y-52672000D01*
G75*
G02*
X73534000Y-52922000I-250000J0D01*
G01*
X73034000Y-52922000D01*
G75*
G02*
X72784000Y-52672000I0J250000D01*
G01*
G37*
G04 #@! TD.AperFunction*
G04 #@! TA.AperFunction,SMDPad,CuDef*
G36*
G01*
X89247000Y-53182000D02*
X89247000Y-52982000D01*
G75*
G02*
X89347000Y-52882000I100000J0D01*
G01*
X90622000Y-52882000D01*
G75*
G02*
X90722000Y-52982000I0J-100000D01*
G01*
X90722000Y-53182000D01*
G75*
G02*
X90622000Y-53282000I-100000J0D01*
G01*
X89347000Y-53282000D01*
G75*
G02*
X89247000Y-53182000I0J100000D01*
G01*
G37*
G04 #@! TD.AperFunction*
G04 #@! TA.AperFunction,SMDPad,CuDef*
G36*
G01*
X89247000Y-53832000D02*
X89247000Y-53632000D01*
G75*
G02*
X89347000Y-53532000I100000J0D01*
G01*
X90622000Y-53532000D01*
G75*
G02*
X90722000Y-53632000I0J-100000D01*
G01*
X90722000Y-53832000D01*
G75*
G02*
X90622000Y-53932000I-100000J0D01*
G01*
X89347000Y-53932000D01*
G75*
G02*
X89247000Y-53832000I0J100000D01*
G01*
G37*
G04 #@! TD.AperFunction*
G04 #@! TA.AperFunction,SMDPad,CuDef*
G36*
G01*
X89247000Y-54482000D02*
X89247000Y-54282000D01*
G75*
G02*
X89347000Y-54182000I100000J0D01*
G01*
X90622000Y-54182000D01*
G75*
G02*
X90722000Y-54282000I0J-100000D01*
G01*
X90722000Y-54482000D01*
G75*
G02*
X90622000Y-54582000I-100000J0D01*
G01*
X89347000Y-54582000D01*
G75*
G02*
X89247000Y-54482000I0J100000D01*
G01*
G37*
G04 #@! TD.AperFunction*
G04 #@! TA.AperFunction,SMDPad,CuDef*
G36*
G01*
X89247000Y-55132000D02*
X89247000Y-54932000D01*
G75*
G02*
X89347000Y-54832000I100000J0D01*
G01*
X90622000Y-54832000D01*
G75*
G02*
X90722000Y-54932000I0J-100000D01*
G01*
X90722000Y-55132000D01*
G75*
G02*
X90622000Y-55232000I-100000J0D01*
G01*
X89347000Y-55232000D01*
G75*
G02*
X89247000Y-55132000I0J100000D01*
G01*
G37*
G04 #@! TD.AperFunction*
G04 #@! TA.AperFunction,SMDPad,CuDef*
G36*
G01*
X89247000Y-55782000D02*
X89247000Y-55582000D01*
G75*
G02*
X89347000Y-55482000I100000J0D01*
G01*
X90622000Y-55482000D01*
G75*
G02*
X90722000Y-55582000I0J-100000D01*
G01*
X90722000Y-55782000D01*
G75*
G02*
X90622000Y-55882000I-100000J0D01*
G01*
X89347000Y-55882000D01*
G75*
G02*
X89247000Y-55782000I0J100000D01*
G01*
G37*
G04 #@! TD.AperFunction*
G04 #@! TA.AperFunction,SMDPad,CuDef*
G36*
G01*
X89247000Y-56432000D02*
X89247000Y-56232000D01*
G75*
G02*
X89347000Y-56132000I100000J0D01*
G01*
X90622000Y-56132000D01*
G75*
G02*
X90722000Y-56232000I0J-100000D01*
G01*
X90722000Y-56432000D01*
G75*
G02*
X90622000Y-56532000I-100000J0D01*
G01*
X89347000Y-56532000D01*
G75*
G02*
X89247000Y-56432000I0J100000D01*
G01*
G37*
G04 #@! TD.AperFunction*
G04 #@! TA.AperFunction,SMDPad,CuDef*
G36*
G01*
X89247000Y-57082000D02*
X89247000Y-56882000D01*
G75*
G02*
X89347000Y-56782000I100000J0D01*
G01*
X90622000Y-56782000D01*
G75*
G02*
X90722000Y-56882000I0J-100000D01*
G01*
X90722000Y-57082000D01*
G75*
G02*
X90622000Y-57182000I-100000J0D01*
G01*
X89347000Y-57182000D01*
G75*
G02*
X89247000Y-57082000I0J100000D01*
G01*
G37*
G04 #@! TD.AperFunction*
G04 #@! TA.AperFunction,SMDPad,CuDef*
G36*
G01*
X89247000Y-57732000D02*
X89247000Y-57532000D01*
G75*
G02*
X89347000Y-57432000I100000J0D01*
G01*
X90622000Y-57432000D01*
G75*
G02*
X90722000Y-57532000I0J-100000D01*
G01*
X90722000Y-57732000D01*
G75*
G02*
X90622000Y-57832000I-100000J0D01*
G01*
X89347000Y-57832000D01*
G75*
G02*
X89247000Y-57732000I0J100000D01*
G01*
G37*
G04 #@! TD.AperFunction*
G04 #@! TA.AperFunction,SMDPad,CuDef*
G36*
G01*
X89247000Y-58382000D02*
X89247000Y-58182000D01*
G75*
G02*
X89347000Y-58082000I100000J0D01*
G01*
X90622000Y-58082000D01*
G75*
G02*
X90722000Y-58182000I0J-100000D01*
G01*
X90722000Y-58382000D01*
G75*
G02*
X90622000Y-58482000I-100000J0D01*
G01*
X89347000Y-58482000D01*
G75*
G02*
X89247000Y-58382000I0J100000D01*
G01*
G37*
G04 #@! TD.AperFunction*
G04 #@! TA.AperFunction,SMDPad,CuDef*
G36*
G01*
X89247000Y-59032000D02*
X89247000Y-58832000D01*
G75*
G02*
X89347000Y-58732000I100000J0D01*
G01*
X90622000Y-58732000D01*
G75*
G02*
X90722000Y-58832000I0J-100000D01*
G01*
X90722000Y-59032000D01*
G75*
G02*
X90622000Y-59132000I-100000J0D01*
G01*
X89347000Y-59132000D01*
G75*
G02*
X89247000Y-59032000I0J100000D01*
G01*
G37*
G04 #@! TD.AperFunction*
G04 #@! TA.AperFunction,SMDPad,CuDef*
G36*
G01*
X83522000Y-59032000D02*
X83522000Y-58832000D01*
G75*
G02*
X83622000Y-58732000I100000J0D01*
G01*
X84897000Y-58732000D01*
G75*
G02*
X84997000Y-58832000I0J-100000D01*
G01*
X84997000Y-59032000D01*
G75*
G02*
X84897000Y-59132000I-100000J0D01*
G01*
X83622000Y-59132000D01*
G75*
G02*
X83522000Y-59032000I0J100000D01*
G01*
G37*
G04 #@! TD.AperFunction*
G04 #@! TA.AperFunction,SMDPad,CuDef*
G36*
G01*
X83522000Y-58382000D02*
X83522000Y-58182000D01*
G75*
G02*
X83622000Y-58082000I100000J0D01*
G01*
X84897000Y-58082000D01*
G75*
G02*
X84997000Y-58182000I0J-100000D01*
G01*
X84997000Y-58382000D01*
G75*
G02*
X84897000Y-58482000I-100000J0D01*
G01*
X83622000Y-58482000D01*
G75*
G02*
X83522000Y-58382000I0J100000D01*
G01*
G37*
G04 #@! TD.AperFunction*
G04 #@! TA.AperFunction,SMDPad,CuDef*
G36*
G01*
X83522000Y-57732000D02*
X83522000Y-57532000D01*
G75*
G02*
X83622000Y-57432000I100000J0D01*
G01*
X84897000Y-57432000D01*
G75*
G02*
X84997000Y-57532000I0J-100000D01*
G01*
X84997000Y-57732000D01*
G75*
G02*
X84897000Y-57832000I-100000J0D01*
G01*
X83622000Y-57832000D01*
G75*
G02*
X83522000Y-57732000I0J100000D01*
G01*
G37*
G04 #@! TD.AperFunction*
G04 #@! TA.AperFunction,SMDPad,CuDef*
G36*
G01*
X83522000Y-57082000D02*
X83522000Y-56882000D01*
G75*
G02*
X83622000Y-56782000I100000J0D01*
G01*
X84897000Y-56782000D01*
G75*
G02*
X84997000Y-56882000I0J-100000D01*
G01*
X84997000Y-57082000D01*
G75*
G02*
X84897000Y-57182000I-100000J0D01*
G01*
X83622000Y-57182000D01*
G75*
G02*
X83522000Y-57082000I0J100000D01*
G01*
G37*
G04 #@! TD.AperFunction*
G04 #@! TA.AperFunction,SMDPad,CuDef*
G36*
G01*
X83522000Y-56432000D02*
X83522000Y-56232000D01*
G75*
G02*
X83622000Y-56132000I100000J0D01*
G01*
X84897000Y-56132000D01*
G75*
G02*
X84997000Y-56232000I0J-100000D01*
G01*
X84997000Y-56432000D01*
G75*
G02*
X84897000Y-56532000I-100000J0D01*
G01*
X83622000Y-56532000D01*
G75*
G02*
X83522000Y-56432000I0J100000D01*
G01*
G37*
G04 #@! TD.AperFunction*
G04 #@! TA.AperFunction,SMDPad,CuDef*
G36*
G01*
X83522000Y-55782000D02*
X83522000Y-55582000D01*
G75*
G02*
X83622000Y-55482000I100000J0D01*
G01*
X84897000Y-55482000D01*
G75*
G02*
X84997000Y-55582000I0J-100000D01*
G01*
X84997000Y-55782000D01*
G75*
G02*
X84897000Y-55882000I-100000J0D01*
G01*
X83622000Y-55882000D01*
G75*
G02*
X83522000Y-55782000I0J100000D01*
G01*
G37*
G04 #@! TD.AperFunction*
G04 #@! TA.AperFunction,SMDPad,CuDef*
G36*
G01*
X83522000Y-55132000D02*
X83522000Y-54932000D01*
G75*
G02*
X83622000Y-54832000I100000J0D01*
G01*
X84897000Y-54832000D01*
G75*
G02*
X84997000Y-54932000I0J-100000D01*
G01*
X84997000Y-55132000D01*
G75*
G02*
X84897000Y-55232000I-100000J0D01*
G01*
X83622000Y-55232000D01*
G75*
G02*
X83522000Y-55132000I0J100000D01*
G01*
G37*
G04 #@! TD.AperFunction*
G04 #@! TA.AperFunction,SMDPad,CuDef*
G36*
G01*
X83522000Y-54482000D02*
X83522000Y-54282000D01*
G75*
G02*
X83622000Y-54182000I100000J0D01*
G01*
X84897000Y-54182000D01*
G75*
G02*
X84997000Y-54282000I0J-100000D01*
G01*
X84997000Y-54482000D01*
G75*
G02*
X84897000Y-54582000I-100000J0D01*
G01*
X83622000Y-54582000D01*
G75*
G02*
X83522000Y-54482000I0J100000D01*
G01*
G37*
G04 #@! TD.AperFunction*
G04 #@! TA.AperFunction,SMDPad,CuDef*
G36*
G01*
X83522000Y-53832000D02*
X83522000Y-53632000D01*
G75*
G02*
X83622000Y-53532000I100000J0D01*
G01*
X84897000Y-53532000D01*
G75*
G02*
X84997000Y-53632000I0J-100000D01*
G01*
X84997000Y-53832000D01*
G75*
G02*
X84897000Y-53932000I-100000J0D01*
G01*
X83622000Y-53932000D01*
G75*
G02*
X83522000Y-53832000I0J100000D01*
G01*
G37*
G04 #@! TD.AperFunction*
G04 #@! TA.AperFunction,SMDPad,CuDef*
G36*
G01*
X83522000Y-53182000D02*
X83522000Y-52982000D01*
G75*
G02*
X83622000Y-52882000I100000J0D01*
G01*
X84897000Y-52882000D01*
G75*
G02*
X84997000Y-52982000I0J-100000D01*
G01*
X84997000Y-53182000D01*
G75*
G02*
X84897000Y-53282000I-100000J0D01*
G01*
X83622000Y-53282000D01*
G75*
G02*
X83522000Y-53182000I0J100000D01*
G01*
G37*
G04 #@! TD.AperFunction*
G04 #@! TA.AperFunction,SMDPad,CuDef*
G36*
G01*
X96423000Y-56910000D02*
X96423000Y-56710000D01*
G75*
G02*
X96523000Y-56610000I100000J0D01*
G01*
X97948000Y-56610000D01*
G75*
G02*
X98048000Y-56710000I0J-100000D01*
G01*
X98048000Y-56910000D01*
G75*
G02*
X97948000Y-57010000I-100000J0D01*
G01*
X96523000Y-57010000D01*
G75*
G02*
X96423000Y-56910000I0J100000D01*
G01*
G37*
G04 #@! TD.AperFunction*
G04 #@! TA.AperFunction,SMDPad,CuDef*
G36*
G01*
X96423000Y-57560000D02*
X96423000Y-57360000D01*
G75*
G02*
X96523000Y-57260000I100000J0D01*
G01*
X97948000Y-57260000D01*
G75*
G02*
X98048000Y-57360000I0J-100000D01*
G01*
X98048000Y-57560000D01*
G75*
G02*
X97948000Y-57660000I-100000J0D01*
G01*
X96523000Y-57660000D01*
G75*
G02*
X96423000Y-57560000I0J100000D01*
G01*
G37*
G04 #@! TD.AperFunction*
G04 #@! TA.AperFunction,SMDPad,CuDef*
G36*
G01*
X96423000Y-58210000D02*
X96423000Y-58010000D01*
G75*
G02*
X96523000Y-57910000I100000J0D01*
G01*
X97948000Y-57910000D01*
G75*
G02*
X98048000Y-58010000I0J-100000D01*
G01*
X98048000Y-58210000D01*
G75*
G02*
X97948000Y-58310000I-100000J0D01*
G01*
X96523000Y-58310000D01*
G75*
G02*
X96423000Y-58210000I0J100000D01*
G01*
G37*
G04 #@! TD.AperFunction*
G04 #@! TA.AperFunction,SMDPad,CuDef*
G36*
G01*
X96423000Y-58860000D02*
X96423000Y-58660000D01*
G75*
G02*
X96523000Y-58560000I100000J0D01*
G01*
X97948000Y-58560000D01*
G75*
G02*
X98048000Y-58660000I0J-100000D01*
G01*
X98048000Y-58860000D01*
G75*
G02*
X97948000Y-58960000I-100000J0D01*
G01*
X96523000Y-58960000D01*
G75*
G02*
X96423000Y-58860000I0J100000D01*
G01*
G37*
G04 #@! TD.AperFunction*
G04 #@! TA.AperFunction,SMDPad,CuDef*
G36*
G01*
X92198000Y-58860000D02*
X92198000Y-58660000D01*
G75*
G02*
X92298000Y-58560000I100000J0D01*
G01*
X93723000Y-58560000D01*
G75*
G02*
X93823000Y-58660000I0J-100000D01*
G01*
X93823000Y-58860000D01*
G75*
G02*
X93723000Y-58960000I-100000J0D01*
G01*
X92298000Y-58960000D01*
G75*
G02*
X92198000Y-58860000I0J100000D01*
G01*
G37*
G04 #@! TD.AperFunction*
G04 #@! TA.AperFunction,SMDPad,CuDef*
G36*
G01*
X92198000Y-58210000D02*
X92198000Y-58010000D01*
G75*
G02*
X92298000Y-57910000I100000J0D01*
G01*
X93723000Y-57910000D01*
G75*
G02*
X93823000Y-58010000I0J-100000D01*
G01*
X93823000Y-58210000D01*
G75*
G02*
X93723000Y-58310000I-100000J0D01*
G01*
X92298000Y-58310000D01*
G75*
G02*
X92198000Y-58210000I0J100000D01*
G01*
G37*
G04 #@! TD.AperFunction*
G04 #@! TA.AperFunction,SMDPad,CuDef*
G36*
G01*
X92198000Y-57560000D02*
X92198000Y-57360000D01*
G75*
G02*
X92298000Y-57260000I100000J0D01*
G01*
X93723000Y-57260000D01*
G75*
G02*
X93823000Y-57360000I0J-100000D01*
G01*
X93823000Y-57560000D01*
G75*
G02*
X93723000Y-57660000I-100000J0D01*
G01*
X92298000Y-57660000D01*
G75*
G02*
X92198000Y-57560000I0J100000D01*
G01*
G37*
G04 #@! TD.AperFunction*
G04 #@! TA.AperFunction,SMDPad,CuDef*
G36*
G01*
X92198000Y-56910000D02*
X92198000Y-56710000D01*
G75*
G02*
X92298000Y-56610000I100000J0D01*
G01*
X93723000Y-56610000D01*
G75*
G02*
X93823000Y-56710000I0J-100000D01*
G01*
X93823000Y-56910000D01*
G75*
G02*
X93723000Y-57010000I-100000J0D01*
G01*
X92298000Y-57010000D01*
G75*
G02*
X92198000Y-56910000I0J100000D01*
G01*
G37*
G04 #@! TD.AperFunction*
D12*
X77563000Y-58547000D03*
X79663000Y-58547000D03*
D13*
X73218000Y-55542000D03*
X75118000Y-55542000D03*
X75118000Y-57742000D03*
X74168000Y-57742000D03*
X73218000Y-57742000D03*
G04 #@! TA.AperFunction,SMDPad,CuDef*
G36*
G01*
X82169250Y-52380500D02*
X81406750Y-52380500D01*
G75*
G02*
X81188000Y-52161750I0J218750D01*
G01*
X81188000Y-51724250D01*
G75*
G02*
X81406750Y-51505500I218750J0D01*
G01*
X82169250Y-51505500D01*
G75*
G02*
X82388000Y-51724250I0J-218750D01*
G01*
X82388000Y-52161750D01*
G75*
G02*
X82169250Y-52380500I-218750J0D01*
G01*
G37*
G04 #@! TD.AperFunction*
G04 #@! TA.AperFunction,SMDPad,CuDef*
G36*
G01*
X82169250Y-54505500D02*
X81406750Y-54505500D01*
G75*
G02*
X81188000Y-54286750I0J218750D01*
G01*
X81188000Y-53849250D01*
G75*
G02*
X81406750Y-53630500I218750J0D01*
G01*
X82169250Y-53630500D01*
G75*
G02*
X82388000Y-53849250I0J-218750D01*
G01*
X82388000Y-54286750D01*
G75*
G02*
X82169250Y-54505500I-218750J0D01*
G01*
G37*
G04 #@! TD.AperFunction*
G04 #@! TA.AperFunction,SMDPad,CuDef*
G36*
G01*
X79238000Y-55880250D02*
X79238000Y-55117750D01*
G75*
G02*
X79456750Y-54899000I218750J0D01*
G01*
X79894250Y-54899000D01*
G75*
G02*
X80113000Y-55117750I0J-218750D01*
G01*
X80113000Y-55880250D01*
G75*
G02*
X79894250Y-56099000I-218750J0D01*
G01*
X79456750Y-56099000D01*
G75*
G02*
X79238000Y-55880250I0J218750D01*
G01*
G37*
G04 #@! TD.AperFunction*
G04 #@! TA.AperFunction,SMDPad,CuDef*
G36*
G01*
X77113000Y-55880250D02*
X77113000Y-55117750D01*
G75*
G02*
X77331750Y-54899000I218750J0D01*
G01*
X77769250Y-54899000D01*
G75*
G02*
X77988000Y-55117750I0J-218750D01*
G01*
X77988000Y-55880250D01*
G75*
G02*
X77769250Y-56099000I-218750J0D01*
G01*
X77331750Y-56099000D01*
G75*
G02*
X77113000Y-55880250I0J218750D01*
G01*
G37*
G04 #@! TD.AperFunction*
D10*
X96520000Y-45720000D03*
X93980000Y-45720000D03*
X91440000Y-45720000D03*
D11*
X88900000Y-45720000D03*
D10*
X81280000Y-45720000D03*
X78740000Y-45720000D03*
X76200000Y-45720000D03*
D11*
X73660000Y-45720000D03*
D14*
X92837000Y-55245000D03*
X94361000Y-54229000D03*
X97409000Y-54864000D03*
X74168000Y-59182000D03*
X80010000Y-48387000D03*
X75692000Y-59182000D03*
X72390000Y-59182000D03*
X88646000Y-56134000D03*
X83185000Y-46736000D03*
X86487000Y-53721000D03*
X97663000Y-49784000D03*
X94133000Y-52171000D03*
X75946000Y-53848000D03*
X80518000Y-51943000D03*
X77216000Y-51181000D03*
X76453992Y-52451008D03*
X84582000Y-59690000D03*
X94996000Y-57912002D03*
X96393000Y-55626000D03*
X93091000Y-49276000D03*
X88265000Y-54229000D03*
X90170000Y-49403000D03*
X98425000Y-56134000D03*
X96393000Y-50419000D03*
X88646000Y-58293000D03*
D15*
X92837000Y-54102000D02*
X92837000Y-55245000D01*
X94869000Y-53721000D02*
X94361000Y-54229000D01*
X95250000Y-53721000D02*
X94869000Y-53721000D01*
X97409000Y-53721000D02*
X97409000Y-54864000D01*
X91750000Y-56332000D02*
X92837000Y-55245000D01*
X89984500Y-56332000D02*
X91750000Y-56332000D01*
X80904000Y-58796000D02*
X78740000Y-60960000D01*
X81788000Y-58796000D02*
X80904000Y-58796000D01*
X74168000Y-57742000D02*
X74168000Y-59182000D01*
X80518000Y-48895000D02*
X80010000Y-48387000D01*
X81408000Y-48895000D02*
X80518000Y-48895000D01*
X98105124Y-58760000D02*
X97235500Y-58760000D01*
X98448010Y-57802886D02*
X98448010Y-58417114D01*
X98448010Y-58417114D02*
X98105124Y-58760000D01*
X98105124Y-57460000D02*
X98448010Y-57802886D01*
X97235500Y-57460000D02*
X98105124Y-57460000D01*
X88844000Y-56332000D02*
X88646000Y-56134000D01*
X89984500Y-56332000D02*
X88844000Y-56332000D01*
X97235500Y-58760000D02*
X97235500Y-59262500D01*
X97235500Y-59262500D02*
X97917000Y-59944000D01*
X84836000Y-46736000D02*
X86487000Y-48387000D01*
X83185000Y-46736000D02*
X84836000Y-46736000D01*
D16*
X75118000Y-56846998D02*
X75118000Y-57742000D01*
X74933001Y-56661999D02*
X75118000Y-56846998D01*
X73402999Y-56661999D02*
X74933001Y-56661999D01*
X73218000Y-56846998D02*
X73402999Y-56661999D01*
X73218000Y-57742000D02*
X73218000Y-56846998D01*
X73380000Y-52101000D02*
X73284000Y-52197000D01*
X73380000Y-49276000D02*
X73380000Y-52101000D01*
X72342999Y-56866999D02*
X73218000Y-57742000D01*
X72342999Y-53138001D02*
X72342999Y-56866999D01*
X73284000Y-52197000D02*
X72342999Y-53138001D01*
X77361000Y-55499000D02*
X75118000Y-57742000D01*
X77550500Y-55499000D02*
X77361000Y-55499000D01*
D15*
X96533990Y-53046010D02*
X97409000Y-52171000D01*
X96533990Y-54099010D02*
X96533990Y-53046010D01*
X93823000Y-56810000D02*
X96533990Y-54099010D01*
X93010500Y-56810000D02*
X93823000Y-56810000D01*
X97409000Y-50038000D02*
X97663000Y-49784000D01*
X97409000Y-52171000D02*
X97409000Y-50038000D01*
D16*
X92868000Y-52171000D02*
X92837000Y-52202000D01*
X95250000Y-52171000D02*
X94133000Y-52171000D01*
X94133000Y-52171000D02*
X92868000Y-52171000D01*
D15*
X81788000Y-51943000D02*
X80518000Y-51943000D01*
X91711990Y-53327010D02*
X92837000Y-52202000D01*
X91711990Y-55354010D02*
X91711990Y-53327010D01*
X91384000Y-55682000D02*
X91711990Y-55354010D01*
X89984500Y-55682000D02*
X91384000Y-55682000D01*
D16*
X74323010Y-54461999D02*
X73243009Y-55542000D01*
X75332001Y-54461999D02*
X74323010Y-54461999D01*
X77216000Y-49911000D02*
X77216000Y-51181000D01*
X76453992Y-53340008D02*
X75332001Y-54461999D01*
X77282000Y-49845000D02*
X77216000Y-49911000D01*
X76453992Y-51943008D02*
X76453992Y-52451008D01*
X77216000Y-51181000D02*
X76453992Y-51943008D01*
X77282000Y-49657000D02*
X77282000Y-49845000D01*
X77216000Y-51181000D02*
X77216000Y-51181000D01*
X76453992Y-52451008D02*
X76453992Y-53340008D01*
D15*
X83002000Y-55682000D02*
X81788000Y-56896000D01*
X84259500Y-55682000D02*
X83002000Y-55682000D01*
D16*
X81788000Y-56896000D02*
X81788000Y-54068000D01*
D15*
X85397010Y-51895010D02*
X84937000Y-51435000D01*
X85397010Y-55339114D02*
X85397010Y-51895010D01*
X85054124Y-55682000D02*
X85397010Y-55339114D01*
X84259500Y-55682000D02*
X85054124Y-55682000D01*
D16*
X79663000Y-55511500D02*
X79675500Y-55499000D01*
X79663000Y-58547000D02*
X79663000Y-55511500D01*
D15*
X87337010Y-51904010D02*
X87337010Y-47459010D01*
X87337010Y-47459010D02*
X85598000Y-45720000D01*
X89165000Y-53732000D02*
X87337010Y-51904010D01*
X85598000Y-45720000D02*
X81280000Y-45720000D01*
X89984500Y-53732000D02*
X89165000Y-53732000D01*
X77450001Y-44469999D02*
X76200000Y-45720000D01*
X85196542Y-44469999D02*
X77450001Y-44469999D01*
X87937021Y-47210478D02*
X85196542Y-44469999D01*
X87937021Y-51615021D02*
X87937021Y-47210478D01*
X89404000Y-53082000D02*
X87937021Y-51615021D01*
X89984500Y-53082000D02*
X89404000Y-53082000D01*
X92140876Y-58760000D02*
X93010500Y-58760000D01*
X91012876Y-57632000D02*
X92140876Y-58760000D01*
X89984500Y-57632000D02*
X91012876Y-57632000D01*
X91892344Y-59360010D02*
X93930114Y-59360010D01*
X93930114Y-59360010D02*
X94223010Y-59067114D01*
X93880124Y-58110000D02*
X93010500Y-58110000D01*
X94223010Y-58452886D02*
X93880124Y-58110000D01*
X94223010Y-59067114D02*
X94223010Y-58452886D01*
X89984500Y-58932000D02*
X91464334Y-58932000D01*
X91464334Y-58932000D02*
X91892344Y-59360010D01*
X84259500Y-59367500D02*
X84582000Y-59690000D01*
X84259500Y-58932000D02*
X84259500Y-59367500D01*
X93010500Y-57460000D02*
X94543998Y-57460000D01*
X94543998Y-57460000D02*
X94996000Y-57912002D01*
X95504000Y-47244000D02*
X93980000Y-45720000D01*
X95504000Y-47625000D02*
X95504000Y-47244000D01*
X83058000Y-49784000D02*
X83058000Y-48895000D01*
X83947000Y-50673000D02*
X83058000Y-49784000D01*
X83947000Y-52769500D02*
X83947000Y-50673000D01*
X84259500Y-53082000D02*
X83947000Y-52769500D01*
X96022990Y-57767114D02*
X96022990Y-55996010D01*
X96365876Y-58110000D02*
X96022990Y-57767114D01*
X96022990Y-55996010D02*
X96393000Y-55626000D01*
X97235500Y-58110000D02*
X96365876Y-58110000D01*
X92202000Y-49276000D02*
X93091000Y-49276000D01*
D16*
X75776000Y-55542000D02*
X77825000Y-53493000D01*
X77825000Y-53493000D02*
X77825000Y-52578000D01*
X75118000Y-55542000D02*
X75776000Y-55542000D01*
D15*
X88418000Y-54382000D02*
X88265000Y-54229000D01*
X89984500Y-54382000D02*
X88418000Y-54382000D01*
X87197043Y-55677957D02*
X87843000Y-55032000D01*
X87197043Y-59171045D02*
X87197043Y-55677957D01*
X87626999Y-59601003D02*
X87197043Y-59171045D01*
X87843000Y-55032000D02*
X89984500Y-55032000D01*
X90081003Y-59601003D02*
X87626999Y-59601003D01*
X91440000Y-60960000D02*
X90081003Y-59601003D01*
X88137455Y-60960000D02*
X86597032Y-59419577D01*
X86597032Y-59419577D02*
X86597032Y-57454951D01*
X86597032Y-57454951D02*
X85474081Y-56332000D01*
X88900000Y-60960000D02*
X88137455Y-60960000D01*
X85474081Y-56332000D02*
X84259500Y-56332000D01*
X85252666Y-56982000D02*
X84259500Y-56982000D01*
X85997021Y-57726354D02*
X85252666Y-56982000D01*
X85997021Y-60597021D02*
X85997021Y-57726354D01*
X86360000Y-60960000D02*
X85997021Y-60597021D01*
X85397010Y-57974886D02*
X85054124Y-57632000D01*
X85054124Y-57632000D02*
X84259500Y-57632000D01*
X84455000Y-60960000D02*
X85397010Y-60017990D01*
X83820000Y-60960000D02*
X84455000Y-60960000D01*
X85397010Y-60017990D02*
X85397010Y-57974886D01*
X83464876Y-58282000D02*
X84259500Y-58282000D01*
X82913010Y-58833866D02*
X83464876Y-58282000D01*
X82913010Y-59326990D02*
X82913010Y-58833866D01*
X81280000Y-60960000D02*
X82913010Y-59326990D01*
X92202000Y-46482000D02*
X91440000Y-45720000D01*
X92202000Y-47626000D02*
X92202000Y-46482000D01*
X88900000Y-47626000D02*
X88900000Y-45720000D01*
X88900000Y-49276000D02*
X90043000Y-49276000D01*
X90043000Y-49276000D02*
X90170000Y-49403000D01*
X97235500Y-56769000D02*
X97235500Y-56810000D01*
X97790000Y-56769000D02*
X97235500Y-56769000D01*
X98425000Y-56134000D02*
X97790000Y-56769000D01*
X96393000Y-50164000D02*
X95504000Y-49275000D01*
X96393000Y-50419000D02*
X96393000Y-50164000D01*
X88657000Y-58282000D02*
X88646000Y-58293000D01*
X89984500Y-58282000D02*
X88657000Y-58282000D01*
X83464876Y-55032000D02*
X84259500Y-55032000D01*
X83121990Y-51625990D02*
X83121990Y-54689114D01*
X83121990Y-54689114D02*
X83464876Y-55032000D01*
X82257990Y-50761990D02*
X83121990Y-51625990D01*
X82257990Y-48371466D02*
X82257990Y-50761990D01*
X82609466Y-48019990D02*
X82257990Y-48371466D01*
X84569990Y-48019990D02*
X82609466Y-48019990D01*
X84937000Y-48387000D02*
X84569990Y-48019990D01*
D16*
X77563000Y-59597000D02*
X76200000Y-60960000D01*
X77563000Y-58547000D02*
X77563000Y-59597000D01*
X76200000Y-60960000D02*
X73660000Y-60960000D01*
D17*
X78616392Y-56047408D02*
X78665150Y-56208142D01*
X78678001Y-56232184D01*
X78678000Y-58595379D01*
X78692253Y-58740093D01*
X78735984Y-58884255D01*
X78737188Y-58896482D01*
X78773498Y-59016180D01*
X78832463Y-59126494D01*
X78911815Y-59223185D01*
X79008506Y-59302537D01*
X79072904Y-59336959D01*
X79113116Y-59369960D01*
X79284233Y-59461424D01*
X79469906Y-59517747D01*
X79663000Y-59536765D01*
X79856093Y-59517747D01*
X80041766Y-59461424D01*
X80212884Y-59369960D01*
X80253096Y-59336959D01*
X80317494Y-59302537D01*
X80414185Y-59223185D01*
X80426182Y-59208567D01*
X80424928Y-59296000D01*
X80437188Y-59420482D01*
X80473498Y-59540180D01*
X80532463Y-59650494D01*
X80544654Y-59665348D01*
X80333368Y-59806525D01*
X80126525Y-60013368D01*
X80004805Y-60195534D01*
X79935178Y-60078645D01*
X79740269Y-59862412D01*
X79506920Y-59688359D01*
X79244099Y-59563175D01*
X79096890Y-59518524D01*
X78867000Y-59639845D01*
X78867000Y-60833000D01*
X78887000Y-60833000D01*
X78887000Y-61087000D01*
X78867000Y-61087000D01*
X78867000Y-62280155D01*
X79096890Y-62401476D01*
X79244099Y-62356825D01*
X79506920Y-62231641D01*
X79740269Y-62057588D01*
X79935178Y-61841355D01*
X80004805Y-61724466D01*
X80126525Y-61906632D01*
X80333368Y-62113475D01*
X80576589Y-62275990D01*
X80846842Y-62387932D01*
X81133740Y-62445000D01*
X81426260Y-62445000D01*
X81713158Y-62387932D01*
X81983411Y-62275990D01*
X82226632Y-62113475D01*
X82433475Y-61906632D01*
X82550000Y-61732240D01*
X82666525Y-61906632D01*
X82873368Y-62113475D01*
X83116589Y-62275990D01*
X83386842Y-62387932D01*
X83673740Y-62445000D01*
X83966260Y-62445000D01*
X84253158Y-62387932D01*
X84523411Y-62275990D01*
X84766632Y-62113475D01*
X84973475Y-61906632D01*
X85090000Y-61732240D01*
X85206525Y-61906632D01*
X85413368Y-62113475D01*
X85656589Y-62275990D01*
X85926842Y-62387932D01*
X86213740Y-62445000D01*
X86506260Y-62445000D01*
X86793158Y-62387932D01*
X87063411Y-62275990D01*
X87306632Y-62113475D01*
X87513475Y-61906632D01*
X87630000Y-61732240D01*
X87746525Y-61906632D01*
X87953368Y-62113475D01*
X88196589Y-62275990D01*
X88466842Y-62387932D01*
X88753740Y-62445000D01*
X89046260Y-62445000D01*
X89333158Y-62387932D01*
X89603411Y-62275990D01*
X89846632Y-62113475D01*
X90053475Y-61906632D01*
X90170000Y-61732240D01*
X90286525Y-61906632D01*
X90493368Y-62113475D01*
X90736589Y-62275990D01*
X91006842Y-62387932D01*
X91293740Y-62445000D01*
X91586260Y-62445000D01*
X91873158Y-62387932D01*
X92143411Y-62275990D01*
X92386632Y-62113475D01*
X92593475Y-61906632D01*
X92710000Y-61732240D01*
X92826525Y-61906632D01*
X93033368Y-62113475D01*
X93276589Y-62275990D01*
X93546842Y-62387932D01*
X93833740Y-62445000D01*
X94126260Y-62445000D01*
X94413158Y-62387932D01*
X94683411Y-62275990D01*
X94926632Y-62113475D01*
X95133475Y-61906632D01*
X95255195Y-61724466D01*
X95324822Y-61841355D01*
X95519731Y-62057588D01*
X95753080Y-62231641D01*
X96015901Y-62356825D01*
X96163110Y-62401476D01*
X96393000Y-62280155D01*
X96393000Y-61087000D01*
X96647000Y-61087000D01*
X96647000Y-62280155D01*
X96876890Y-62401476D01*
X97024099Y-62356825D01*
X97286920Y-62231641D01*
X97520269Y-62057588D01*
X97715178Y-61841355D01*
X97864157Y-61591252D01*
X97961481Y-61316891D01*
X97840814Y-61087000D01*
X96647000Y-61087000D01*
X96393000Y-61087000D01*
X96373000Y-61087000D01*
X96373000Y-60833000D01*
X96393000Y-60833000D01*
X96393000Y-60813000D01*
X96647000Y-60813000D01*
X96647000Y-60833000D01*
X97840814Y-60833000D01*
X97961481Y-60603109D01*
X97864157Y-60328748D01*
X97715178Y-60078645D01*
X97520269Y-59862412D01*
X97286920Y-59688359D01*
X97024099Y-59563175D01*
X96991471Y-59553279D01*
X97108500Y-59436250D01*
X97108500Y-58948072D01*
X97362500Y-58948072D01*
X97362500Y-59436250D01*
X97521250Y-59595000D01*
X98039037Y-59598009D01*
X98163678Y-59587499D01*
X98283875Y-59552874D01*
X98395006Y-59495465D01*
X98400000Y-59491482D01*
X98400000Y-62840000D01*
X71780000Y-62840000D01*
X71780000Y-60110000D01*
X72171928Y-60110000D01*
X72171928Y-61810000D01*
X72184188Y-61934482D01*
X72220498Y-62054180D01*
X72279463Y-62164494D01*
X72358815Y-62261185D01*
X72455506Y-62340537D01*
X72565820Y-62399502D01*
X72685518Y-62435812D01*
X72810000Y-62448072D01*
X74510000Y-62448072D01*
X74634482Y-62435812D01*
X74754180Y-62399502D01*
X74864494Y-62340537D01*
X74961185Y-62261185D01*
X75040537Y-62164494D01*
X75099502Y-62054180D01*
X75121513Y-61981620D01*
X75253368Y-62113475D01*
X75496589Y-62275990D01*
X75766842Y-62387932D01*
X76053740Y-62445000D01*
X76346260Y-62445000D01*
X76633158Y-62387932D01*
X76903411Y-62275990D01*
X77146632Y-62113475D01*
X77353475Y-61906632D01*
X77475195Y-61724466D01*
X77544822Y-61841355D01*
X77739731Y-62057588D01*
X77973080Y-62231641D01*
X78235901Y-62356825D01*
X78383110Y-62401476D01*
X78613000Y-62280155D01*
X78613000Y-61087000D01*
X78593000Y-61087000D01*
X78593000Y-60833000D01*
X78613000Y-60833000D01*
X78613000Y-59639845D01*
X78551730Y-59607511D01*
X78552765Y-59597001D01*
X78548000Y-59548621D01*
X78548000Y-58498620D01*
X78533747Y-58353906D01*
X78490016Y-58209744D01*
X78488812Y-58197518D01*
X78452502Y-58077820D01*
X78393537Y-57967506D01*
X78314185Y-57870815D01*
X78217494Y-57791463D01*
X78153096Y-57757041D01*
X78112884Y-57724040D01*
X77941766Y-57632576D01*
X77756093Y-57576253D01*
X77563000Y-57557235D01*
X77369906Y-57576253D01*
X77184233Y-57632576D01*
X77013116Y-57724040D01*
X76972904Y-57757041D01*
X76908506Y-57791463D01*
X76811815Y-57870815D01*
X76732463Y-57967506D01*
X76673498Y-58077820D01*
X76637188Y-58197518D01*
X76635984Y-58209745D01*
X76592253Y-58353907D01*
X76578000Y-58498621D01*
X76578001Y-59188999D01*
X76292000Y-59475000D01*
X76053740Y-59475000D01*
X75766842Y-59532068D01*
X75496589Y-59644010D01*
X75253368Y-59806525D01*
X75121513Y-59938380D01*
X75099502Y-59865820D01*
X75040537Y-59755506D01*
X74961185Y-59658815D01*
X74864494Y-59579463D01*
X74754180Y-59520498D01*
X74634482Y-59484188D01*
X74510000Y-59471928D01*
X72810000Y-59471928D01*
X72685518Y-59484188D01*
X72565820Y-59520498D01*
X72455506Y-59579463D01*
X72358815Y-59658815D01*
X72279463Y-59755506D01*
X72220498Y-59865820D01*
X72184188Y-59985518D01*
X72171928Y-60110000D01*
X71780000Y-60110000D01*
X71780000Y-57697000D01*
X72254928Y-58171928D01*
X72254928Y-58272000D01*
X72267188Y-58396482D01*
X72303498Y-58516180D01*
X72362463Y-58626494D01*
X72441815Y-58723185D01*
X72538506Y-58802537D01*
X72648820Y-58861502D01*
X72768518Y-58897812D01*
X72893000Y-58910072D01*
X73543000Y-58910072D01*
X73667482Y-58897812D01*
X73693000Y-58890071D01*
X73718518Y-58897812D01*
X73843000Y-58910072D01*
X73882250Y-58907000D01*
X74041000Y-58748250D01*
X74041000Y-58666141D01*
X74073537Y-58626494D01*
X74132502Y-58516180D01*
X74168000Y-58399159D01*
X74203498Y-58516180D01*
X74262463Y-58626494D01*
X74295000Y-58666141D01*
X74295000Y-58748250D01*
X74453750Y-58907000D01*
X74493000Y-58910072D01*
X74617482Y-58897812D01*
X74643000Y-58890071D01*
X74668518Y-58897812D01*
X74793000Y-58910072D01*
X75443000Y-58910072D01*
X75567482Y-58897812D01*
X75687180Y-58861502D01*
X75797494Y-58802537D01*
X75894185Y-58723185D01*
X75973537Y-58626494D01*
X76032502Y-58516180D01*
X76068812Y-58396482D01*
X76081072Y-58272000D01*
X76081072Y-58171928D01*
X77515928Y-56737072D01*
X77769250Y-56737072D01*
X77936408Y-56720608D01*
X78097142Y-56671850D01*
X78245275Y-56592671D01*
X78375115Y-56486115D01*
X78481671Y-56356275D01*
X78560850Y-56208142D01*
X78609608Y-56047408D01*
X78613000Y-56012969D01*
X78616392Y-56047408D01*
G04 #@! TA.AperFunction,Conductor*
D18*
G36*
X78616392Y-56047408D02*
G01*
X78665150Y-56208142D01*
X78678001Y-56232184D01*
X78678000Y-58595379D01*
X78692253Y-58740093D01*
X78735984Y-58884255D01*
X78737188Y-58896482D01*
X78773498Y-59016180D01*
X78832463Y-59126494D01*
X78911815Y-59223185D01*
X79008506Y-59302537D01*
X79072904Y-59336959D01*
X79113116Y-59369960D01*
X79284233Y-59461424D01*
X79469906Y-59517747D01*
X79663000Y-59536765D01*
X79856093Y-59517747D01*
X80041766Y-59461424D01*
X80212884Y-59369960D01*
X80253096Y-59336959D01*
X80317494Y-59302537D01*
X80414185Y-59223185D01*
X80426182Y-59208567D01*
X80424928Y-59296000D01*
X80437188Y-59420482D01*
X80473498Y-59540180D01*
X80532463Y-59650494D01*
X80544654Y-59665348D01*
X80333368Y-59806525D01*
X80126525Y-60013368D01*
X80004805Y-60195534D01*
X79935178Y-60078645D01*
X79740269Y-59862412D01*
X79506920Y-59688359D01*
X79244099Y-59563175D01*
X79096890Y-59518524D01*
X78867000Y-59639845D01*
X78867000Y-60833000D01*
X78887000Y-60833000D01*
X78887000Y-61087000D01*
X78867000Y-61087000D01*
X78867000Y-62280155D01*
X79096890Y-62401476D01*
X79244099Y-62356825D01*
X79506920Y-62231641D01*
X79740269Y-62057588D01*
X79935178Y-61841355D01*
X80004805Y-61724466D01*
X80126525Y-61906632D01*
X80333368Y-62113475D01*
X80576589Y-62275990D01*
X80846842Y-62387932D01*
X81133740Y-62445000D01*
X81426260Y-62445000D01*
X81713158Y-62387932D01*
X81983411Y-62275990D01*
X82226632Y-62113475D01*
X82433475Y-61906632D01*
X82550000Y-61732240D01*
X82666525Y-61906632D01*
X82873368Y-62113475D01*
X83116589Y-62275990D01*
X83386842Y-62387932D01*
X83673740Y-62445000D01*
X83966260Y-62445000D01*
X84253158Y-62387932D01*
X84523411Y-62275990D01*
X84766632Y-62113475D01*
X84973475Y-61906632D01*
X85090000Y-61732240D01*
X85206525Y-61906632D01*
X85413368Y-62113475D01*
X85656589Y-62275990D01*
X85926842Y-62387932D01*
X86213740Y-62445000D01*
X86506260Y-62445000D01*
X86793158Y-62387932D01*
X87063411Y-62275990D01*
X87306632Y-62113475D01*
X87513475Y-61906632D01*
X87630000Y-61732240D01*
X87746525Y-61906632D01*
X87953368Y-62113475D01*
X88196589Y-62275990D01*
X88466842Y-62387932D01*
X88753740Y-62445000D01*
X89046260Y-62445000D01*
X89333158Y-62387932D01*
X89603411Y-62275990D01*
X89846632Y-62113475D01*
X90053475Y-61906632D01*
X90170000Y-61732240D01*
X90286525Y-61906632D01*
X90493368Y-62113475D01*
X90736589Y-62275990D01*
X91006842Y-62387932D01*
X91293740Y-62445000D01*
X91586260Y-62445000D01*
X91873158Y-62387932D01*
X92143411Y-62275990D01*
X92386632Y-62113475D01*
X92593475Y-61906632D01*
X92710000Y-61732240D01*
X92826525Y-61906632D01*
X93033368Y-62113475D01*
X93276589Y-62275990D01*
X93546842Y-62387932D01*
X93833740Y-62445000D01*
X94126260Y-62445000D01*
X94413158Y-62387932D01*
X94683411Y-62275990D01*
X94926632Y-62113475D01*
X95133475Y-61906632D01*
X95255195Y-61724466D01*
X95324822Y-61841355D01*
X95519731Y-62057588D01*
X95753080Y-62231641D01*
X96015901Y-62356825D01*
X96163110Y-62401476D01*
X96393000Y-62280155D01*
X96393000Y-61087000D01*
X96647000Y-61087000D01*
X96647000Y-62280155D01*
X96876890Y-62401476D01*
X97024099Y-62356825D01*
X97286920Y-62231641D01*
X97520269Y-62057588D01*
X97715178Y-61841355D01*
X97864157Y-61591252D01*
X97961481Y-61316891D01*
X97840814Y-61087000D01*
X96647000Y-61087000D01*
X96393000Y-61087000D01*
X96373000Y-61087000D01*
X96373000Y-60833000D01*
X96393000Y-60833000D01*
X96393000Y-60813000D01*
X96647000Y-60813000D01*
X96647000Y-60833000D01*
X97840814Y-60833000D01*
X97961481Y-60603109D01*
X97864157Y-60328748D01*
X97715178Y-60078645D01*
X97520269Y-59862412D01*
X97286920Y-59688359D01*
X97024099Y-59563175D01*
X96991471Y-59553279D01*
X97108500Y-59436250D01*
X97108500Y-58948072D01*
X97362500Y-58948072D01*
X97362500Y-59436250D01*
X97521250Y-59595000D01*
X98039037Y-59598009D01*
X98163678Y-59587499D01*
X98283875Y-59552874D01*
X98395006Y-59495465D01*
X98400000Y-59491482D01*
X98400000Y-62840000D01*
X71780000Y-62840000D01*
X71780000Y-60110000D01*
X72171928Y-60110000D01*
X72171928Y-61810000D01*
X72184188Y-61934482D01*
X72220498Y-62054180D01*
X72279463Y-62164494D01*
X72358815Y-62261185D01*
X72455506Y-62340537D01*
X72565820Y-62399502D01*
X72685518Y-62435812D01*
X72810000Y-62448072D01*
X74510000Y-62448072D01*
X74634482Y-62435812D01*
X74754180Y-62399502D01*
X74864494Y-62340537D01*
X74961185Y-62261185D01*
X75040537Y-62164494D01*
X75099502Y-62054180D01*
X75121513Y-61981620D01*
X75253368Y-62113475D01*
X75496589Y-62275990D01*
X75766842Y-62387932D01*
X76053740Y-62445000D01*
X76346260Y-62445000D01*
X76633158Y-62387932D01*
X76903411Y-62275990D01*
X77146632Y-62113475D01*
X77353475Y-61906632D01*
X77475195Y-61724466D01*
X77544822Y-61841355D01*
X77739731Y-62057588D01*
X77973080Y-62231641D01*
X78235901Y-62356825D01*
X78383110Y-62401476D01*
X78613000Y-62280155D01*
X78613000Y-61087000D01*
X78593000Y-61087000D01*
X78593000Y-60833000D01*
X78613000Y-60833000D01*
X78613000Y-59639845D01*
X78551730Y-59607511D01*
X78552765Y-59597001D01*
X78548000Y-59548621D01*
X78548000Y-58498620D01*
X78533747Y-58353906D01*
X78490016Y-58209744D01*
X78488812Y-58197518D01*
X78452502Y-58077820D01*
X78393537Y-57967506D01*
X78314185Y-57870815D01*
X78217494Y-57791463D01*
X78153096Y-57757041D01*
X78112884Y-57724040D01*
X77941766Y-57632576D01*
X77756093Y-57576253D01*
X77563000Y-57557235D01*
X77369906Y-57576253D01*
X77184233Y-57632576D01*
X77013116Y-57724040D01*
X76972904Y-57757041D01*
X76908506Y-57791463D01*
X76811815Y-57870815D01*
X76732463Y-57967506D01*
X76673498Y-58077820D01*
X76637188Y-58197518D01*
X76635984Y-58209745D01*
X76592253Y-58353907D01*
X76578000Y-58498621D01*
X76578001Y-59188999D01*
X76292000Y-59475000D01*
X76053740Y-59475000D01*
X75766842Y-59532068D01*
X75496589Y-59644010D01*
X75253368Y-59806525D01*
X75121513Y-59938380D01*
X75099502Y-59865820D01*
X75040537Y-59755506D01*
X74961185Y-59658815D01*
X74864494Y-59579463D01*
X74754180Y-59520498D01*
X74634482Y-59484188D01*
X74510000Y-59471928D01*
X72810000Y-59471928D01*
X72685518Y-59484188D01*
X72565820Y-59520498D01*
X72455506Y-59579463D01*
X72358815Y-59658815D01*
X72279463Y-59755506D01*
X72220498Y-59865820D01*
X72184188Y-59985518D01*
X72171928Y-60110000D01*
X71780000Y-60110000D01*
X71780000Y-57697000D01*
X72254928Y-58171928D01*
X72254928Y-58272000D01*
X72267188Y-58396482D01*
X72303498Y-58516180D01*
X72362463Y-58626494D01*
X72441815Y-58723185D01*
X72538506Y-58802537D01*
X72648820Y-58861502D01*
X72768518Y-58897812D01*
X72893000Y-58910072D01*
X73543000Y-58910072D01*
X73667482Y-58897812D01*
X73693000Y-58890071D01*
X73718518Y-58897812D01*
X73843000Y-58910072D01*
X73882250Y-58907000D01*
X74041000Y-58748250D01*
X74041000Y-58666141D01*
X74073537Y-58626494D01*
X74132502Y-58516180D01*
X74168000Y-58399159D01*
X74203498Y-58516180D01*
X74262463Y-58626494D01*
X74295000Y-58666141D01*
X74295000Y-58748250D01*
X74453750Y-58907000D01*
X74493000Y-58910072D01*
X74617482Y-58897812D01*
X74643000Y-58890071D01*
X74668518Y-58897812D01*
X74793000Y-58910072D01*
X75443000Y-58910072D01*
X75567482Y-58897812D01*
X75687180Y-58861502D01*
X75797494Y-58802537D01*
X75894185Y-58723185D01*
X75973537Y-58626494D01*
X76032502Y-58516180D01*
X76068812Y-58396482D01*
X76081072Y-58272000D01*
X76081072Y-58171928D01*
X77515928Y-56737072D01*
X77769250Y-56737072D01*
X77936408Y-56720608D01*
X78097142Y-56671850D01*
X78245275Y-56592671D01*
X78375115Y-56486115D01*
X78481671Y-56356275D01*
X78560850Y-56208142D01*
X78609608Y-56047408D01*
X78613000Y-56012969D01*
X78616392Y-56047408D01*
G37*
G04 #@! TD.AperFunction*
D17*
X81915000Y-58669000D02*
X81935000Y-58669000D01*
X81935000Y-58923000D01*
X81915000Y-58923000D01*
X81915000Y-58943000D01*
X81661000Y-58943000D01*
X81661000Y-58923000D01*
X81641000Y-58923000D01*
X81641000Y-58669000D01*
X81661000Y-58669000D01*
X81661000Y-58649000D01*
X81915000Y-58649000D01*
X81915000Y-58669000D01*
G04 #@! TA.AperFunction,Conductor*
D18*
G36*
X81915000Y-58669000D02*
G01*
X81935000Y-58669000D01*
X81935000Y-58923000D01*
X81915000Y-58923000D01*
X81915000Y-58943000D01*
X81661000Y-58943000D01*
X81661000Y-58923000D01*
X81641000Y-58923000D01*
X81641000Y-58669000D01*
X81661000Y-58669000D01*
X81661000Y-58649000D01*
X81915000Y-58649000D01*
X81915000Y-58669000D01*
G37*
G04 #@! TD.AperFunction*
D17*
X88623110Y-55925991D02*
X88634350Y-55963045D01*
X88623132Y-55998117D01*
X88612000Y-56100250D01*
X88770750Y-56259000D01*
X88788259Y-56259000D01*
X88825104Y-56303896D01*
X88859349Y-56332000D01*
X88825104Y-56360104D01*
X88788259Y-56405000D01*
X88770750Y-56405000D01*
X88612000Y-56563750D01*
X88623132Y-56665883D01*
X88634350Y-56700955D01*
X88623110Y-56738009D01*
X88608928Y-56882000D01*
X88608928Y-57082000D01*
X88623110Y-57225991D01*
X88632820Y-57258000D01*
X88544061Y-57258000D01*
X88344102Y-57297774D01*
X88155744Y-57375795D01*
X88032043Y-57458449D01*
X88032043Y-56023824D01*
X88188868Y-55867000D01*
X88617300Y-55867000D01*
X88623110Y-55925991D01*
G04 #@! TA.AperFunction,Conductor*
D18*
G36*
X88623110Y-55925991D02*
G01*
X88634350Y-55963045D01*
X88623132Y-55998117D01*
X88612000Y-56100250D01*
X88770750Y-56259000D01*
X88788259Y-56259000D01*
X88825104Y-56303896D01*
X88859349Y-56332000D01*
X88825104Y-56360104D01*
X88788259Y-56405000D01*
X88770750Y-56405000D01*
X88612000Y-56563750D01*
X88623132Y-56665883D01*
X88634350Y-56700955D01*
X88623110Y-56738009D01*
X88608928Y-56882000D01*
X88608928Y-57082000D01*
X88623110Y-57225991D01*
X88632820Y-57258000D01*
X88544061Y-57258000D01*
X88344102Y-57297774D01*
X88155744Y-57375795D01*
X88032043Y-57458449D01*
X88032043Y-56023824D01*
X88188868Y-55867000D01*
X88617300Y-55867000D01*
X88623110Y-55925991D01*
G37*
G04 #@! TD.AperFunction*
D17*
X86502010Y-51862991D02*
X86497970Y-51904010D01*
X86502010Y-51945028D01*
X86514092Y-52067698D01*
X86561838Y-52225096D01*
X86614000Y-52322684D01*
X86614000Y-52386250D01*
X86772750Y-52545000D01*
X86797598Y-52545465D01*
X87648369Y-53396236D01*
X87605226Y-53425063D01*
X87461063Y-53569226D01*
X87347795Y-53738744D01*
X87269774Y-53927102D01*
X87230000Y-54127061D01*
X87230000Y-54330939D01*
X87251194Y-54437490D01*
X87249709Y-54438709D01*
X87223561Y-54470571D01*
X86635617Y-55058516D01*
X86603753Y-55084666D01*
X86545819Y-55155259D01*
X86499407Y-55211812D01*
X86421871Y-55356871D01*
X86374125Y-55514269D01*
X86358003Y-55677957D01*
X86362044Y-55718985D01*
X86362044Y-56039095D01*
X86106337Y-55783388D01*
X86172182Y-55660201D01*
X86219928Y-55502803D01*
X86232010Y-55380133D01*
X86232010Y-55380132D01*
X86236050Y-55339115D01*
X86232010Y-55298096D01*
X86232010Y-52514240D01*
X86360000Y-52386250D01*
X86360000Y-51562000D01*
X86340000Y-51562000D01*
X86340000Y-51308000D01*
X86360000Y-51308000D01*
X86360000Y-50483750D01*
X86201250Y-50325000D01*
X86037000Y-50321928D01*
X85912518Y-50334188D01*
X85792820Y-50370498D01*
X85682506Y-50429463D01*
X85638351Y-50465700D01*
X85492283Y-50387625D01*
X85330377Y-50338512D01*
X85162000Y-50321928D01*
X84712000Y-50321928D01*
X84706437Y-50322476D01*
X84644636Y-50206854D01*
X84566439Y-50111570D01*
X84566437Y-50111568D01*
X84540291Y-50079709D01*
X84508432Y-50053563D01*
X84002080Y-49547212D01*
X84032278Y-49490716D01*
X84079969Y-49333500D01*
X84089881Y-49232863D01*
X84101716Y-49247284D01*
X84232503Y-49354618D01*
X84381717Y-49434375D01*
X84543623Y-49483488D01*
X84712000Y-49500072D01*
X85162000Y-49500072D01*
X85330377Y-49483488D01*
X85492283Y-49434375D01*
X85638351Y-49356300D01*
X85682506Y-49392537D01*
X85792820Y-49451502D01*
X85912518Y-49487812D01*
X86037000Y-49500072D01*
X86201250Y-49497000D01*
X86360000Y-49338250D01*
X86360000Y-48514000D01*
X86340000Y-48514000D01*
X86340000Y-48260000D01*
X86360000Y-48260000D01*
X86360000Y-48240000D01*
X86502011Y-48240000D01*
X86502010Y-51862991D01*
G04 #@! TA.AperFunction,Conductor*
D18*
G36*
X86502010Y-51862991D02*
G01*
X86497970Y-51904010D01*
X86502010Y-51945028D01*
X86514092Y-52067698D01*
X86561838Y-52225096D01*
X86614000Y-52322684D01*
X86614000Y-52386250D01*
X86772750Y-52545000D01*
X86797598Y-52545465D01*
X87648369Y-53396236D01*
X87605226Y-53425063D01*
X87461063Y-53569226D01*
X87347795Y-53738744D01*
X87269774Y-53927102D01*
X87230000Y-54127061D01*
X87230000Y-54330939D01*
X87251194Y-54437490D01*
X87249709Y-54438709D01*
X87223561Y-54470571D01*
X86635617Y-55058516D01*
X86603753Y-55084666D01*
X86545819Y-55155259D01*
X86499407Y-55211812D01*
X86421871Y-55356871D01*
X86374125Y-55514269D01*
X86358003Y-55677957D01*
X86362044Y-55718985D01*
X86362044Y-56039095D01*
X86106337Y-55783388D01*
X86172182Y-55660201D01*
X86219928Y-55502803D01*
X86232010Y-55380133D01*
X86232010Y-55380132D01*
X86236050Y-55339115D01*
X86232010Y-55298096D01*
X86232010Y-52514240D01*
X86360000Y-52386250D01*
X86360000Y-51562000D01*
X86340000Y-51562000D01*
X86340000Y-51308000D01*
X86360000Y-51308000D01*
X86360000Y-50483750D01*
X86201250Y-50325000D01*
X86037000Y-50321928D01*
X85912518Y-50334188D01*
X85792820Y-50370498D01*
X85682506Y-50429463D01*
X85638351Y-50465700D01*
X85492283Y-50387625D01*
X85330377Y-50338512D01*
X85162000Y-50321928D01*
X84712000Y-50321928D01*
X84706437Y-50322476D01*
X84644636Y-50206854D01*
X84566439Y-50111570D01*
X84566437Y-50111568D01*
X84540291Y-50079709D01*
X84508432Y-50053563D01*
X84002080Y-49547212D01*
X84032278Y-49490716D01*
X84079969Y-49333500D01*
X84089881Y-49232863D01*
X84101716Y-49247284D01*
X84232503Y-49354618D01*
X84381717Y-49434375D01*
X84543623Y-49483488D01*
X84712000Y-49500072D01*
X85162000Y-49500072D01*
X85330377Y-49483488D01*
X85492283Y-49434375D01*
X85638351Y-49356300D01*
X85682506Y-49392537D01*
X85792820Y-49451502D01*
X85912518Y-49487812D01*
X86037000Y-49500072D01*
X86201250Y-49497000D01*
X86360000Y-49338250D01*
X86360000Y-48514000D01*
X86340000Y-48514000D01*
X86340000Y-48260000D01*
X86360000Y-48260000D01*
X86360000Y-48240000D01*
X86502011Y-48240000D01*
X86502010Y-51862991D01*
G37*
G04 #@! TD.AperFunction*
D17*
X92964000Y-53975000D02*
X92984000Y-53975000D01*
X92984000Y-54229000D01*
X92964000Y-54229000D01*
X92964000Y-55078250D01*
X93122750Y-55237000D01*
X93562000Y-55240072D01*
X93686482Y-55227812D01*
X93806180Y-55191502D01*
X93916494Y-55132537D01*
X94013185Y-55053185D01*
X94092537Y-54956494D01*
X94151502Y-54846180D01*
X94187812Y-54726482D01*
X94200072Y-54602000D01*
X94197721Y-54438048D01*
X94244463Y-54525494D01*
X94323815Y-54622185D01*
X94420506Y-54701537D01*
X94530820Y-54760502D01*
X94650518Y-54796812D01*
X94654889Y-54797243D01*
X93480205Y-55971928D01*
X92298000Y-55971928D01*
X92272420Y-55974447D01*
X92273417Y-55973451D01*
X92305281Y-55947301D01*
X92409626Y-55820156D01*
X92487162Y-55675097D01*
X92534908Y-55517699D01*
X92546990Y-55395029D01*
X92546990Y-55395028D01*
X92551030Y-55354010D01*
X92546990Y-55312992D01*
X92546990Y-55237030D01*
X92551250Y-55237000D01*
X92710000Y-55078250D01*
X92710000Y-54229000D01*
X92690000Y-54229000D01*
X92690000Y-53975000D01*
X92710000Y-53975000D01*
X92710000Y-53955000D01*
X92964000Y-53955000D01*
X92964000Y-53975000D01*
G04 #@! TA.AperFunction,Conductor*
D18*
G36*
X92964000Y-53975000D02*
G01*
X92984000Y-53975000D01*
X92984000Y-54229000D01*
X92964000Y-54229000D01*
X92964000Y-55078250D01*
X93122750Y-55237000D01*
X93562000Y-55240072D01*
X93686482Y-55227812D01*
X93806180Y-55191502D01*
X93916494Y-55132537D01*
X94013185Y-55053185D01*
X94092537Y-54956494D01*
X94151502Y-54846180D01*
X94187812Y-54726482D01*
X94200072Y-54602000D01*
X94197721Y-54438048D01*
X94244463Y-54525494D01*
X94323815Y-54622185D01*
X94420506Y-54701537D01*
X94530820Y-54760502D01*
X94650518Y-54796812D01*
X94654889Y-54797243D01*
X93480205Y-55971928D01*
X92298000Y-55971928D01*
X92272420Y-55974447D01*
X92273417Y-55973451D01*
X92305281Y-55947301D01*
X92409626Y-55820156D01*
X92487162Y-55675097D01*
X92534908Y-55517699D01*
X92546990Y-55395029D01*
X92546990Y-55395028D01*
X92551030Y-55354010D01*
X92546990Y-55312992D01*
X92546990Y-55237030D01*
X92551250Y-55237000D01*
X92710000Y-55078250D01*
X92710000Y-54229000D01*
X92690000Y-54229000D01*
X92690000Y-53975000D01*
X92710000Y-53975000D01*
X92710000Y-53955000D01*
X92964000Y-53955000D01*
X92964000Y-53975000D01*
G37*
G04 #@! TD.AperFunction*
D17*
X76856710Y-43876708D02*
X76830559Y-43908573D01*
X76477939Y-44261193D01*
X76346260Y-44235000D01*
X76053740Y-44235000D01*
X75766842Y-44292068D01*
X75496589Y-44404010D01*
X75253368Y-44566525D01*
X75121513Y-44698380D01*
X75099502Y-44625820D01*
X75040537Y-44515506D01*
X74961185Y-44418815D01*
X74864494Y-44339463D01*
X74754180Y-44280498D01*
X74634482Y-44244188D01*
X74510000Y-44231928D01*
X72810000Y-44231928D01*
X72685518Y-44244188D01*
X72565820Y-44280498D01*
X72455506Y-44339463D01*
X72358815Y-44418815D01*
X72279463Y-44515506D01*
X72220498Y-44625820D01*
X72184188Y-44745518D01*
X72171928Y-44870000D01*
X72171928Y-46570000D01*
X72184188Y-46694482D01*
X72220498Y-46814180D01*
X72279463Y-46924494D01*
X72358815Y-47021185D01*
X72455506Y-47100537D01*
X72565820Y-47159502D01*
X72685518Y-47195812D01*
X72810000Y-47208072D01*
X74510000Y-47208072D01*
X74634482Y-47195812D01*
X74754180Y-47159502D01*
X74864494Y-47100537D01*
X74961185Y-47021185D01*
X75040537Y-46924494D01*
X75099502Y-46814180D01*
X75121513Y-46741620D01*
X75253368Y-46873475D01*
X75496589Y-47035990D01*
X75766842Y-47147932D01*
X76053740Y-47205000D01*
X76346260Y-47205000D01*
X76633158Y-47147932D01*
X76903411Y-47035990D01*
X77146632Y-46873475D01*
X77353475Y-46666632D01*
X77475195Y-46484466D01*
X77544822Y-46601355D01*
X77739731Y-46817588D01*
X77973080Y-46991641D01*
X78235901Y-47116825D01*
X78383110Y-47161476D01*
X78613000Y-47040155D01*
X78613000Y-45847000D01*
X78593000Y-45847000D01*
X78593000Y-45593000D01*
X78613000Y-45593000D01*
X78613000Y-45573000D01*
X78867000Y-45573000D01*
X78867000Y-45593000D01*
X78887000Y-45593000D01*
X78887000Y-45847000D01*
X78867000Y-45847000D01*
X78867000Y-47040155D01*
X79096890Y-47161476D01*
X79244099Y-47116825D01*
X79506920Y-46991641D01*
X79740269Y-46817588D01*
X79935178Y-46601355D01*
X80004805Y-46484466D01*
X80126525Y-46666632D01*
X80333368Y-46873475D01*
X80576589Y-47035990D01*
X80846842Y-47147932D01*
X81133740Y-47205000D01*
X81426260Y-47205000D01*
X81713158Y-47147932D01*
X81983411Y-47035990D01*
X82226632Y-46873475D01*
X82433475Y-46666632D01*
X82508065Y-46555000D01*
X85252133Y-46555000D01*
X85976972Y-47279840D01*
X85912518Y-47286188D01*
X85792820Y-47322498D01*
X85682506Y-47381463D01*
X85638351Y-47417700D01*
X85492283Y-47339625D01*
X85330377Y-47290512D01*
X85162000Y-47273928D01*
X84945538Y-47273928D01*
X84891077Y-47244818D01*
X84733679Y-47197072D01*
X84611009Y-47184990D01*
X84611008Y-47184990D01*
X84569990Y-47180950D01*
X84528972Y-47184990D01*
X82650484Y-47184990D01*
X82609465Y-47180950D01*
X82568447Y-47184990D01*
X82445777Y-47197072D01*
X82288379Y-47244818D01*
X82143320Y-47322354D01*
X82016175Y-47426699D01*
X81990020Y-47458569D01*
X81696569Y-47752020D01*
X81664699Y-47778175D01*
X81573368Y-47889463D01*
X81560354Y-47905321D01*
X81545340Y-47933410D01*
X81535000Y-47943750D01*
X81535000Y-47952755D01*
X81482818Y-48050380D01*
X81435072Y-48207778D01*
X81418950Y-48371466D01*
X81422990Y-48412485D01*
X81422991Y-50720962D01*
X81418950Y-50761990D01*
X81429335Y-50867428D01*
X81406750Y-50867428D01*
X81239592Y-50883892D01*
X81078858Y-50932650D01*
X80949854Y-51001604D01*
X80819898Y-50947774D01*
X80619939Y-50908000D01*
X80416061Y-50908000D01*
X80216102Y-50947774D01*
X80027744Y-51025795D01*
X79858226Y-51139063D01*
X79714063Y-51283226D01*
X79600795Y-51452744D01*
X79547612Y-51581138D01*
X79502000Y-51626750D01*
X79502000Y-51745541D01*
X79483000Y-51841061D01*
X79483000Y-52044939D01*
X79502000Y-52140459D01*
X79502000Y-52451000D01*
X79522000Y-52451000D01*
X79522000Y-52705000D01*
X79502000Y-52705000D01*
X79502000Y-53529250D01*
X79660750Y-53688000D01*
X79825000Y-53691072D01*
X79949482Y-53678812D01*
X80069180Y-53642502D01*
X80179494Y-53583537D01*
X80276185Y-53504185D01*
X80355537Y-53407494D01*
X80414502Y-53297180D01*
X80450812Y-53177482D01*
X80463072Y-53053000D01*
X80461855Y-52978000D01*
X80619939Y-52978000D01*
X80819898Y-52938226D01*
X80949854Y-52884396D01*
X81078858Y-52953350D01*
X81239592Y-53002108D01*
X81274031Y-53005500D01*
X81239592Y-53008892D01*
X81078858Y-53057650D01*
X80930725Y-53136829D01*
X80800885Y-53243385D01*
X80694329Y-53373225D01*
X80615150Y-53521358D01*
X80566392Y-53682092D01*
X80549928Y-53849250D01*
X80549928Y-54286750D01*
X80566392Y-54453908D01*
X80615150Y-54614642D01*
X80694329Y-54762775D01*
X80800885Y-54892615D01*
X80803001Y-54894351D01*
X80803000Y-55921229D01*
X80742114Y-55971197D01*
X80751072Y-55880250D01*
X80751072Y-55117750D01*
X80734608Y-54950592D01*
X80685850Y-54789858D01*
X80606671Y-54641725D01*
X80500115Y-54511885D01*
X80370275Y-54405329D01*
X80222142Y-54326150D01*
X80061408Y-54277392D01*
X79894250Y-54260928D01*
X79456750Y-54260928D01*
X79289592Y-54277392D01*
X79128858Y-54326150D01*
X78980725Y-54405329D01*
X78850885Y-54511885D01*
X78744329Y-54641725D01*
X78665150Y-54789858D01*
X78616392Y-54950592D01*
X78613000Y-54985031D01*
X78609608Y-54950592D01*
X78560850Y-54789858D01*
X78481671Y-54641725D01*
X78375115Y-54511885D01*
X78278448Y-54432553D01*
X78487290Y-54223711D01*
X78524870Y-54192870D01*
X78647960Y-54042884D01*
X78739424Y-53871767D01*
X78795747Y-53686094D01*
X78796582Y-53677618D01*
X78800518Y-53678812D01*
X78925000Y-53691072D01*
X79089250Y-53688000D01*
X79248000Y-53529250D01*
X79248000Y-52705000D01*
X79228000Y-52705000D01*
X79228000Y-52451000D01*
X79248000Y-52451000D01*
X79248000Y-51626750D01*
X79089250Y-51468000D01*
X78925000Y-51464928D01*
X78800518Y-51477188D01*
X78680820Y-51513498D01*
X78570506Y-51572463D01*
X78526351Y-51608700D01*
X78380283Y-51530625D01*
X78218377Y-51481512D01*
X78211634Y-51480848D01*
X78251000Y-51282939D01*
X78251000Y-51079061D01*
X78211226Y-50879102D01*
X78201000Y-50854414D01*
X78201000Y-50796855D01*
X78230815Y-50833185D01*
X78327506Y-50912537D01*
X78437820Y-50971502D01*
X78557518Y-51007812D01*
X78682000Y-51020072D01*
X78896250Y-51017000D01*
X79055000Y-50858250D01*
X79055000Y-49784000D01*
X79309000Y-49784000D01*
X79309000Y-50858250D01*
X79467750Y-51017000D01*
X79682000Y-51020072D01*
X79806482Y-51007812D01*
X79926180Y-50971502D01*
X80036494Y-50912537D01*
X80133185Y-50833185D01*
X80212537Y-50736494D01*
X80271502Y-50626180D01*
X80307812Y-50506482D01*
X80320072Y-50382000D01*
X80317000Y-49942750D01*
X80158250Y-49784000D01*
X79309000Y-49784000D01*
X79055000Y-49784000D01*
X79035000Y-49784000D01*
X79035000Y-49530000D01*
X79055000Y-49530000D01*
X79055000Y-48455750D01*
X79309000Y-48455750D01*
X79309000Y-49530000D01*
X80158250Y-49530000D01*
X80317000Y-49371250D01*
X80317008Y-49370000D01*
X80369928Y-49370000D01*
X80382188Y-49494482D01*
X80418498Y-49614180D01*
X80477463Y-49724494D01*
X80556815Y-49821185D01*
X80653506Y-49900537D01*
X80763820Y-49959502D01*
X80883518Y-49995812D01*
X81008000Y-50008072D01*
X81122250Y-50005000D01*
X81281000Y-49846250D01*
X81281000Y-49022000D01*
X80531750Y-49022000D01*
X80373000Y-49180750D01*
X80369928Y-49370000D01*
X80317008Y-49370000D01*
X80320072Y-48932000D01*
X80307812Y-48807518D01*
X80271502Y-48687820D01*
X80212537Y-48577506D01*
X80133185Y-48480815D01*
X80059082Y-48420000D01*
X80369928Y-48420000D01*
X80373000Y-48609250D01*
X80531750Y-48768000D01*
X81281000Y-48768000D01*
X81281000Y-47943750D01*
X81122250Y-47785000D01*
X81008000Y-47781928D01*
X80883518Y-47794188D01*
X80763820Y-47830498D01*
X80653506Y-47889463D01*
X80556815Y-47968815D01*
X80477463Y-48065506D01*
X80418498Y-48175820D01*
X80382188Y-48295518D01*
X80369928Y-48420000D01*
X80059082Y-48420000D01*
X80036494Y-48401463D01*
X79926180Y-48342498D01*
X79806482Y-48306188D01*
X79682000Y-48293928D01*
X79467750Y-48297000D01*
X79309000Y-48455750D01*
X79055000Y-48455750D01*
X78896250Y-48297000D01*
X78682000Y-48293928D01*
X78557518Y-48306188D01*
X78437820Y-48342498D01*
X78327506Y-48401463D01*
X78230815Y-48480815D01*
X78165342Y-48560594D01*
X78159962Y-48554038D01*
X78025386Y-48443595D01*
X77871850Y-48361528D01*
X77705254Y-48310992D01*
X77532000Y-48293928D01*
X77032000Y-48293928D01*
X76858746Y-48310992D01*
X76692150Y-48361528D01*
X76538614Y-48443595D01*
X76404038Y-48554038D01*
X76293595Y-48688614D01*
X76211528Y-48842150D01*
X76160992Y-49008746D01*
X76143928Y-49182000D01*
X76143928Y-50132000D01*
X76160992Y-50305254D01*
X76211528Y-50471850D01*
X76231000Y-50508280D01*
X76231001Y-50772999D01*
X76051700Y-50952300D01*
X76038494Y-50941463D01*
X75928180Y-50882498D01*
X75808482Y-50846188D01*
X75684000Y-50833928D01*
X75469750Y-50837000D01*
X75311000Y-50995750D01*
X75311000Y-52070000D01*
X75331000Y-52070000D01*
X75331000Y-52324000D01*
X75311000Y-52324000D01*
X75311000Y-52344000D01*
X75057000Y-52344000D01*
X75057000Y-52324000D01*
X75037000Y-52324000D01*
X75037000Y-52070000D01*
X75057000Y-52070000D01*
X75057000Y-50995750D01*
X74898250Y-50837000D01*
X74684000Y-50833928D01*
X74559518Y-50846188D01*
X74439820Y-50882498D01*
X74365000Y-50922491D01*
X74365000Y-50377746D01*
X74480000Y-50389072D01*
X74644250Y-50386000D01*
X74803000Y-50227250D01*
X74803000Y-49403000D01*
X75057000Y-49403000D01*
X75057000Y-50227250D01*
X75215750Y-50386000D01*
X75380000Y-50389072D01*
X75504482Y-50376812D01*
X75624180Y-50340502D01*
X75734494Y-50281537D01*
X75831185Y-50202185D01*
X75910537Y-50105494D01*
X75969502Y-49995180D01*
X76005812Y-49875482D01*
X76018072Y-49751000D01*
X76015000Y-49561750D01*
X75856250Y-49403000D01*
X75057000Y-49403000D01*
X74803000Y-49403000D01*
X74783000Y-49403000D01*
X74783000Y-49149000D01*
X74803000Y-49149000D01*
X74803000Y-48324750D01*
X75057000Y-48324750D01*
X75057000Y-49149000D01*
X75856250Y-49149000D01*
X76015000Y-48990250D01*
X76018072Y-48801000D01*
X76005812Y-48676518D01*
X75969502Y-48556820D01*
X75910537Y-48446506D01*
X75831185Y-48349815D01*
X75734494Y-48270463D01*
X75624180Y-48211498D01*
X75504482Y-48175188D01*
X75380000Y-48162928D01*
X75215750Y-48166000D01*
X75057000Y-48324750D01*
X74803000Y-48324750D01*
X74644250Y-48166000D01*
X74480000Y-48162928D01*
X74355518Y-48175188D01*
X74235820Y-48211498D01*
X74125506Y-48270463D01*
X74081351Y-48306700D01*
X73935283Y-48228625D01*
X73773377Y-48179512D01*
X73605000Y-48162928D01*
X73155000Y-48162928D01*
X72986623Y-48179512D01*
X72824717Y-48228625D01*
X72675503Y-48308382D01*
X72544716Y-48415716D01*
X72437382Y-48546503D01*
X72357625Y-48695717D01*
X72308512Y-48857623D01*
X72291928Y-49026000D01*
X72291928Y-49526000D01*
X72308512Y-49694377D01*
X72357625Y-49856283D01*
X72395000Y-49926207D01*
X72395001Y-51107487D01*
X72295595Y-51228614D01*
X72213528Y-51382150D01*
X72162992Y-51548746D01*
X72145928Y-51722000D01*
X72145928Y-51942072D01*
X71780000Y-52308000D01*
X71780000Y-43840000D01*
X76901439Y-43840000D01*
X76856710Y-43876708D01*
G04 #@! TA.AperFunction,Conductor*
D18*
G36*
X76856710Y-43876708D02*
G01*
X76830559Y-43908573D01*
X76477939Y-44261193D01*
X76346260Y-44235000D01*
X76053740Y-44235000D01*
X75766842Y-44292068D01*
X75496589Y-44404010D01*
X75253368Y-44566525D01*
X75121513Y-44698380D01*
X75099502Y-44625820D01*
X75040537Y-44515506D01*
X74961185Y-44418815D01*
X74864494Y-44339463D01*
X74754180Y-44280498D01*
X74634482Y-44244188D01*
X74510000Y-44231928D01*
X72810000Y-44231928D01*
X72685518Y-44244188D01*
X72565820Y-44280498D01*
X72455506Y-44339463D01*
X72358815Y-44418815D01*
X72279463Y-44515506D01*
X72220498Y-44625820D01*
X72184188Y-44745518D01*
X72171928Y-44870000D01*
X72171928Y-46570000D01*
X72184188Y-46694482D01*
X72220498Y-46814180D01*
X72279463Y-46924494D01*
X72358815Y-47021185D01*
X72455506Y-47100537D01*
X72565820Y-47159502D01*
X72685518Y-47195812D01*
X72810000Y-47208072D01*
X74510000Y-47208072D01*
X74634482Y-47195812D01*
X74754180Y-47159502D01*
X74864494Y-47100537D01*
X74961185Y-47021185D01*
X75040537Y-46924494D01*
X75099502Y-46814180D01*
X75121513Y-46741620D01*
X75253368Y-46873475D01*
X75496589Y-47035990D01*
X75766842Y-47147932D01*
X76053740Y-47205000D01*
X76346260Y-47205000D01*
X76633158Y-47147932D01*
X76903411Y-47035990D01*
X77146632Y-46873475D01*
X77353475Y-46666632D01*
X77475195Y-46484466D01*
X77544822Y-46601355D01*
X77739731Y-46817588D01*
X77973080Y-46991641D01*
X78235901Y-47116825D01*
X78383110Y-47161476D01*
X78613000Y-47040155D01*
X78613000Y-45847000D01*
X78593000Y-45847000D01*
X78593000Y-45593000D01*
X78613000Y-45593000D01*
X78613000Y-45573000D01*
X78867000Y-45573000D01*
X78867000Y-45593000D01*
X78887000Y-45593000D01*
X78887000Y-45847000D01*
X78867000Y-45847000D01*
X78867000Y-47040155D01*
X79096890Y-47161476D01*
X79244099Y-47116825D01*
X79506920Y-46991641D01*
X79740269Y-46817588D01*
X79935178Y-46601355D01*
X80004805Y-46484466D01*
X80126525Y-46666632D01*
X80333368Y-46873475D01*
X80576589Y-47035990D01*
X80846842Y-47147932D01*
X81133740Y-47205000D01*
X81426260Y-47205000D01*
X81713158Y-47147932D01*
X81983411Y-47035990D01*
X82226632Y-46873475D01*
X82433475Y-46666632D01*
X82508065Y-46555000D01*
X85252133Y-46555000D01*
X85976972Y-47279840D01*
X85912518Y-47286188D01*
X85792820Y-47322498D01*
X85682506Y-47381463D01*
X85638351Y-47417700D01*
X85492283Y-47339625D01*
X85330377Y-47290512D01*
X85162000Y-47273928D01*
X84945538Y-47273928D01*
X84891077Y-47244818D01*
X84733679Y-47197072D01*
X84611009Y-47184990D01*
X84611008Y-47184990D01*
X84569990Y-47180950D01*
X84528972Y-47184990D01*
X82650484Y-47184990D01*
X82609465Y-47180950D01*
X82568447Y-47184990D01*
X82445777Y-47197072D01*
X82288379Y-47244818D01*
X82143320Y-47322354D01*
X82016175Y-47426699D01*
X81990020Y-47458569D01*
X81696569Y-47752020D01*
X81664699Y-47778175D01*
X81573368Y-47889463D01*
X81560354Y-47905321D01*
X81545340Y-47933410D01*
X81535000Y-47943750D01*
X81535000Y-47952755D01*
X81482818Y-48050380D01*
X81435072Y-48207778D01*
X81418950Y-48371466D01*
X81422990Y-48412485D01*
X81422991Y-50720962D01*
X81418950Y-50761990D01*
X81429335Y-50867428D01*
X81406750Y-50867428D01*
X81239592Y-50883892D01*
X81078858Y-50932650D01*
X80949854Y-51001604D01*
X80819898Y-50947774D01*
X80619939Y-50908000D01*
X80416061Y-50908000D01*
X80216102Y-50947774D01*
X80027744Y-51025795D01*
X79858226Y-51139063D01*
X79714063Y-51283226D01*
X79600795Y-51452744D01*
X79547612Y-51581138D01*
X79502000Y-51626750D01*
X79502000Y-51745541D01*
X79483000Y-51841061D01*
X79483000Y-52044939D01*
X79502000Y-52140459D01*
X79502000Y-52451000D01*
X79522000Y-52451000D01*
X79522000Y-52705000D01*
X79502000Y-52705000D01*
X79502000Y-53529250D01*
X79660750Y-53688000D01*
X79825000Y-53691072D01*
X79949482Y-53678812D01*
X80069180Y-53642502D01*
X80179494Y-53583537D01*
X80276185Y-53504185D01*
X80355537Y-53407494D01*
X80414502Y-53297180D01*
X80450812Y-53177482D01*
X80463072Y-53053000D01*
X80461855Y-52978000D01*
X80619939Y-52978000D01*
X80819898Y-52938226D01*
X80949854Y-52884396D01*
X81078858Y-52953350D01*
X81239592Y-53002108D01*
X81274031Y-53005500D01*
X81239592Y-53008892D01*
X81078858Y-53057650D01*
X80930725Y-53136829D01*
X80800885Y-53243385D01*
X80694329Y-53373225D01*
X80615150Y-53521358D01*
X80566392Y-53682092D01*
X80549928Y-53849250D01*
X80549928Y-54286750D01*
X80566392Y-54453908D01*
X80615150Y-54614642D01*
X80694329Y-54762775D01*
X80800885Y-54892615D01*
X80803001Y-54894351D01*
X80803000Y-55921229D01*
X80742114Y-55971197D01*
X80751072Y-55880250D01*
X80751072Y-55117750D01*
X80734608Y-54950592D01*
X80685850Y-54789858D01*
X80606671Y-54641725D01*
X80500115Y-54511885D01*
X80370275Y-54405329D01*
X80222142Y-54326150D01*
X80061408Y-54277392D01*
X79894250Y-54260928D01*
X79456750Y-54260928D01*
X79289592Y-54277392D01*
X79128858Y-54326150D01*
X78980725Y-54405329D01*
X78850885Y-54511885D01*
X78744329Y-54641725D01*
X78665150Y-54789858D01*
X78616392Y-54950592D01*
X78613000Y-54985031D01*
X78609608Y-54950592D01*
X78560850Y-54789858D01*
X78481671Y-54641725D01*
X78375115Y-54511885D01*
X78278448Y-54432553D01*
X78487290Y-54223711D01*
X78524870Y-54192870D01*
X78647960Y-54042884D01*
X78739424Y-53871767D01*
X78795747Y-53686094D01*
X78796582Y-53677618D01*
X78800518Y-53678812D01*
X78925000Y-53691072D01*
X79089250Y-53688000D01*
X79248000Y-53529250D01*
X79248000Y-52705000D01*
X79228000Y-52705000D01*
X79228000Y-52451000D01*
X79248000Y-52451000D01*
X79248000Y-51626750D01*
X79089250Y-51468000D01*
X78925000Y-51464928D01*
X78800518Y-51477188D01*
X78680820Y-51513498D01*
X78570506Y-51572463D01*
X78526351Y-51608700D01*
X78380283Y-51530625D01*
X78218377Y-51481512D01*
X78211634Y-51480848D01*
X78251000Y-51282939D01*
X78251000Y-51079061D01*
X78211226Y-50879102D01*
X78201000Y-50854414D01*
X78201000Y-50796855D01*
X78230815Y-50833185D01*
X78327506Y-50912537D01*
X78437820Y-50971502D01*
X78557518Y-51007812D01*
X78682000Y-51020072D01*
X78896250Y-51017000D01*
X79055000Y-50858250D01*
X79055000Y-49784000D01*
X79309000Y-49784000D01*
X79309000Y-50858250D01*
X79467750Y-51017000D01*
X79682000Y-51020072D01*
X79806482Y-51007812D01*
X79926180Y-50971502D01*
X80036494Y-50912537D01*
X80133185Y-50833185D01*
X80212537Y-50736494D01*
X80271502Y-50626180D01*
X80307812Y-50506482D01*
X80320072Y-50382000D01*
X80317000Y-49942750D01*
X80158250Y-49784000D01*
X79309000Y-49784000D01*
X79055000Y-49784000D01*
X79035000Y-49784000D01*
X79035000Y-49530000D01*
X79055000Y-49530000D01*
X79055000Y-48455750D01*
X79309000Y-48455750D01*
X79309000Y-49530000D01*
X80158250Y-49530000D01*
X80317000Y-49371250D01*
X80317008Y-49370000D01*
X80369928Y-49370000D01*
X80382188Y-49494482D01*
X80418498Y-49614180D01*
X80477463Y-49724494D01*
X80556815Y-49821185D01*
X80653506Y-49900537D01*
X80763820Y-49959502D01*
X80883518Y-49995812D01*
X81008000Y-50008072D01*
X81122250Y-50005000D01*
X81281000Y-49846250D01*
X81281000Y-49022000D01*
X80531750Y-49022000D01*
X80373000Y-49180750D01*
X80369928Y-49370000D01*
X80317008Y-49370000D01*
X80320072Y-48932000D01*
X80307812Y-48807518D01*
X80271502Y-48687820D01*
X80212537Y-48577506D01*
X80133185Y-48480815D01*
X80059082Y-48420000D01*
X80369928Y-48420000D01*
X80373000Y-48609250D01*
X80531750Y-48768000D01*
X81281000Y-48768000D01*
X81281000Y-47943750D01*
X81122250Y-47785000D01*
X81008000Y-47781928D01*
X80883518Y-47794188D01*
X80763820Y-47830498D01*
X80653506Y-47889463D01*
X80556815Y-47968815D01*
X80477463Y-48065506D01*
X80418498Y-48175820D01*
X80382188Y-48295518D01*
X80369928Y-48420000D01*
X80059082Y-48420000D01*
X80036494Y-48401463D01*
X79926180Y-48342498D01*
X79806482Y-48306188D01*
X79682000Y-48293928D01*
X79467750Y-48297000D01*
X79309000Y-48455750D01*
X79055000Y-48455750D01*
X78896250Y-48297000D01*
X78682000Y-48293928D01*
X78557518Y-48306188D01*
X78437820Y-48342498D01*
X78327506Y-48401463D01*
X78230815Y-48480815D01*
X78165342Y-48560594D01*
X78159962Y-48554038D01*
X78025386Y-48443595D01*
X77871850Y-48361528D01*
X77705254Y-48310992D01*
X77532000Y-48293928D01*
X77032000Y-48293928D01*
X76858746Y-48310992D01*
X76692150Y-48361528D01*
X76538614Y-48443595D01*
X76404038Y-48554038D01*
X76293595Y-48688614D01*
X76211528Y-48842150D01*
X76160992Y-49008746D01*
X76143928Y-49182000D01*
X76143928Y-50132000D01*
X76160992Y-50305254D01*
X76211528Y-50471850D01*
X76231000Y-50508280D01*
X76231001Y-50772999D01*
X76051700Y-50952300D01*
X76038494Y-50941463D01*
X75928180Y-50882498D01*
X75808482Y-50846188D01*
X75684000Y-50833928D01*
X75469750Y-50837000D01*
X75311000Y-50995750D01*
X75311000Y-52070000D01*
X75331000Y-52070000D01*
X75331000Y-52324000D01*
X75311000Y-52324000D01*
X75311000Y-52344000D01*
X75057000Y-52344000D01*
X75057000Y-52324000D01*
X75037000Y-52324000D01*
X75037000Y-52070000D01*
X75057000Y-52070000D01*
X75057000Y-50995750D01*
X74898250Y-50837000D01*
X74684000Y-50833928D01*
X74559518Y-50846188D01*
X74439820Y-50882498D01*
X74365000Y-50922491D01*
X74365000Y-50377746D01*
X74480000Y-50389072D01*
X74644250Y-50386000D01*
X74803000Y-50227250D01*
X74803000Y-49403000D01*
X75057000Y-49403000D01*
X75057000Y-50227250D01*
X75215750Y-50386000D01*
X75380000Y-50389072D01*
X75504482Y-50376812D01*
X75624180Y-50340502D01*
X75734494Y-50281537D01*
X75831185Y-50202185D01*
X75910537Y-50105494D01*
X75969502Y-49995180D01*
X76005812Y-49875482D01*
X76018072Y-49751000D01*
X76015000Y-49561750D01*
X75856250Y-49403000D01*
X75057000Y-49403000D01*
X74803000Y-49403000D01*
X74783000Y-49403000D01*
X74783000Y-49149000D01*
X74803000Y-49149000D01*
X74803000Y-48324750D01*
X75057000Y-48324750D01*
X75057000Y-49149000D01*
X75856250Y-49149000D01*
X76015000Y-48990250D01*
X76018072Y-48801000D01*
X76005812Y-48676518D01*
X75969502Y-48556820D01*
X75910537Y-48446506D01*
X75831185Y-48349815D01*
X75734494Y-48270463D01*
X75624180Y-48211498D01*
X75504482Y-48175188D01*
X75380000Y-48162928D01*
X75215750Y-48166000D01*
X75057000Y-48324750D01*
X74803000Y-48324750D01*
X74644250Y-48166000D01*
X74480000Y-48162928D01*
X74355518Y-48175188D01*
X74235820Y-48211498D01*
X74125506Y-48270463D01*
X74081351Y-48306700D01*
X73935283Y-48228625D01*
X73773377Y-48179512D01*
X73605000Y-48162928D01*
X73155000Y-48162928D01*
X72986623Y-48179512D01*
X72824717Y-48228625D01*
X72675503Y-48308382D01*
X72544716Y-48415716D01*
X72437382Y-48546503D01*
X72357625Y-48695717D01*
X72308512Y-48857623D01*
X72291928Y-49026000D01*
X72291928Y-49526000D01*
X72308512Y-49694377D01*
X72357625Y-49856283D01*
X72395000Y-49926207D01*
X72395001Y-51107487D01*
X72295595Y-51228614D01*
X72213528Y-51382150D01*
X72162992Y-51548746D01*
X72145928Y-51722000D01*
X72145928Y-51942072D01*
X71780000Y-52308000D01*
X71780000Y-43840000D01*
X76901439Y-43840000D01*
X76856710Y-43876708D01*
G37*
G04 #@! TD.AperFunction*
D17*
X97536000Y-53594000D02*
X97556000Y-53594000D01*
X97556000Y-53848000D01*
X97536000Y-53848000D01*
X97536000Y-54647250D01*
X97694750Y-54806000D01*
X97884000Y-54809072D01*
X98008482Y-54796812D01*
X98128180Y-54760502D01*
X98238494Y-54701537D01*
X98335185Y-54622185D01*
X98400000Y-54543207D01*
X98400000Y-55099000D01*
X98323061Y-55099000D01*
X98123102Y-55138774D01*
X97934744Y-55216795D01*
X97765226Y-55330063D01*
X97621063Y-55474226D01*
X97507795Y-55643744D01*
X97429774Y-55832102D01*
X97409505Y-55934000D01*
X97385698Y-55934000D01*
X97388226Y-55927898D01*
X97428000Y-55727939D01*
X97428000Y-55524061D01*
X97388226Y-55324102D01*
X97310205Y-55135744D01*
X97196937Y-54966226D01*
X97052774Y-54822063D01*
X97030976Y-54807498D01*
X97123250Y-54806000D01*
X97282000Y-54647250D01*
X97282000Y-54470913D01*
X97309162Y-54420097D01*
X97356908Y-54262699D01*
X97373030Y-54099010D01*
X97368990Y-54057992D01*
X97368990Y-53574000D01*
X97536000Y-53574000D01*
X97536000Y-53594000D01*
G04 #@! TA.AperFunction,Conductor*
D18*
G36*
X97536000Y-53594000D02*
G01*
X97556000Y-53594000D01*
X97556000Y-53848000D01*
X97536000Y-53848000D01*
X97536000Y-54647250D01*
X97694750Y-54806000D01*
X97884000Y-54809072D01*
X98008482Y-54796812D01*
X98128180Y-54760502D01*
X98238494Y-54701537D01*
X98335185Y-54622185D01*
X98400000Y-54543207D01*
X98400000Y-55099000D01*
X98323061Y-55099000D01*
X98123102Y-55138774D01*
X97934744Y-55216795D01*
X97765226Y-55330063D01*
X97621063Y-55474226D01*
X97507795Y-55643744D01*
X97429774Y-55832102D01*
X97409505Y-55934000D01*
X97385698Y-55934000D01*
X97388226Y-55927898D01*
X97428000Y-55727939D01*
X97428000Y-55524061D01*
X97388226Y-55324102D01*
X97310205Y-55135744D01*
X97196937Y-54966226D01*
X97052774Y-54822063D01*
X97030976Y-54807498D01*
X97123250Y-54806000D01*
X97282000Y-54647250D01*
X97282000Y-54470913D01*
X97309162Y-54420097D01*
X97356908Y-54262699D01*
X97373030Y-54099010D01*
X97368990Y-54057992D01*
X97368990Y-53574000D01*
X97536000Y-53574000D01*
X97536000Y-53594000D01*
G37*
G04 #@! TD.AperFunction*
D17*
X95377000Y-53594000D02*
X95397000Y-53594000D01*
X95397000Y-53848000D01*
X95377000Y-53848000D01*
X95377000Y-53868000D01*
X95123000Y-53868000D01*
X95123000Y-53848000D01*
X95103000Y-53848000D01*
X95103000Y-53594000D01*
X95123000Y-53594000D01*
X95123000Y-53574000D01*
X95377000Y-53574000D01*
X95377000Y-53594000D01*
G04 #@! TA.AperFunction,Conductor*
D18*
G36*
X95377000Y-53594000D02*
G01*
X95397000Y-53594000D01*
X95397000Y-53848000D01*
X95377000Y-53848000D01*
X95377000Y-53868000D01*
X95123000Y-53868000D01*
X95123000Y-53848000D01*
X95103000Y-53848000D01*
X95103000Y-53594000D01*
X95123000Y-53594000D01*
X95123000Y-53574000D01*
X95377000Y-53574000D01*
X95377000Y-53594000D01*
G37*
G04 #@! TD.AperFunction*
D17*
X98400001Y-49057290D02*
X98322774Y-48980063D01*
X98153256Y-48866795D01*
X97964898Y-48788774D01*
X97764939Y-48749000D01*
X97561061Y-48749000D01*
X97361102Y-48788774D01*
X97172744Y-48866795D01*
X97003226Y-48980063D01*
X96859063Y-49124226D01*
X96745795Y-49293744D01*
X96733440Y-49323572D01*
X96617072Y-49207204D01*
X96617072Y-49075000D01*
X96600969Y-48911500D01*
X96553278Y-48754284D01*
X96475831Y-48609392D01*
X96371606Y-48482394D01*
X96332134Y-48450000D01*
X96371606Y-48417606D01*
X96475831Y-48290608D01*
X96553278Y-48145716D01*
X96600969Y-47988500D01*
X96617072Y-47825000D01*
X96617072Y-47425000D01*
X96600969Y-47261500D01*
X96583830Y-47205000D01*
X96647002Y-47205000D01*
X96647002Y-47040156D01*
X96876890Y-47161476D01*
X97024099Y-47116825D01*
X97286920Y-46991641D01*
X97520269Y-46817588D01*
X97715178Y-46601355D01*
X97864157Y-46351252D01*
X97961481Y-46076891D01*
X97840814Y-45847000D01*
X96647000Y-45847000D01*
X96647000Y-45867000D01*
X96393000Y-45867000D01*
X96393000Y-45847000D01*
X96373000Y-45847000D01*
X96373000Y-45593000D01*
X96393000Y-45593000D01*
X96393000Y-44399845D01*
X96647000Y-44399845D01*
X96647000Y-45593000D01*
X97840814Y-45593000D01*
X97961481Y-45363109D01*
X97864157Y-45088748D01*
X97715178Y-44838645D01*
X97520269Y-44622412D01*
X97286920Y-44448359D01*
X97024099Y-44323175D01*
X96876890Y-44278524D01*
X96647000Y-44399845D01*
X96393000Y-44399845D01*
X96163110Y-44278524D01*
X96015901Y-44323175D01*
X95753080Y-44448359D01*
X95519731Y-44622412D01*
X95324822Y-44838645D01*
X95255195Y-44955534D01*
X95133475Y-44773368D01*
X94926632Y-44566525D01*
X94683411Y-44404010D01*
X94413158Y-44292068D01*
X94126260Y-44235000D01*
X93833740Y-44235000D01*
X93546842Y-44292068D01*
X93276589Y-44404010D01*
X93033368Y-44566525D01*
X92826525Y-44773368D01*
X92710000Y-44947760D01*
X92593475Y-44773368D01*
X92386632Y-44566525D01*
X92143411Y-44404010D01*
X91873158Y-44292068D01*
X91586260Y-44235000D01*
X91293740Y-44235000D01*
X91006842Y-44292068D01*
X90736589Y-44404010D01*
X90493368Y-44566525D01*
X90361513Y-44698380D01*
X90339502Y-44625820D01*
X90280537Y-44515506D01*
X90201185Y-44418815D01*
X90104494Y-44339463D01*
X89994180Y-44280498D01*
X89874482Y-44244188D01*
X89750000Y-44231928D01*
X88050000Y-44231928D01*
X87925518Y-44244188D01*
X87805820Y-44280498D01*
X87695506Y-44339463D01*
X87598815Y-44418815D01*
X87519463Y-44515506D01*
X87460498Y-44625820D01*
X87424188Y-44745518D01*
X87411928Y-44870000D01*
X87411928Y-45504517D01*
X85815988Y-43908578D01*
X85789833Y-43876708D01*
X85745104Y-43840000D01*
X98400001Y-43840000D01*
X98400001Y-49057290D01*
G04 #@! TA.AperFunction,Conductor*
D18*
G36*
X98400001Y-49057290D02*
G01*
X98322774Y-48980063D01*
X98153256Y-48866795D01*
X97964898Y-48788774D01*
X97764939Y-48749000D01*
X97561061Y-48749000D01*
X97361102Y-48788774D01*
X97172744Y-48866795D01*
X97003226Y-48980063D01*
X96859063Y-49124226D01*
X96745795Y-49293744D01*
X96733440Y-49323572D01*
X96617072Y-49207204D01*
X96617072Y-49075000D01*
X96600969Y-48911500D01*
X96553278Y-48754284D01*
X96475831Y-48609392D01*
X96371606Y-48482394D01*
X96332134Y-48450000D01*
X96371606Y-48417606D01*
X96475831Y-48290608D01*
X96553278Y-48145716D01*
X96600969Y-47988500D01*
X96617072Y-47825000D01*
X96617072Y-47425000D01*
X96600969Y-47261500D01*
X96583830Y-47205000D01*
X96647002Y-47205000D01*
X96647002Y-47040156D01*
X96876890Y-47161476D01*
X97024099Y-47116825D01*
X97286920Y-46991641D01*
X97520269Y-46817588D01*
X97715178Y-46601355D01*
X97864157Y-46351252D01*
X97961481Y-46076891D01*
X97840814Y-45847000D01*
X96647000Y-45847000D01*
X96647000Y-45867000D01*
X96393000Y-45867000D01*
X96393000Y-45847000D01*
X96373000Y-45847000D01*
X96373000Y-45593000D01*
X96393000Y-45593000D01*
X96393000Y-44399845D01*
X96647000Y-44399845D01*
X96647000Y-45593000D01*
X97840814Y-45593000D01*
X97961481Y-45363109D01*
X97864157Y-45088748D01*
X97715178Y-44838645D01*
X97520269Y-44622412D01*
X97286920Y-44448359D01*
X97024099Y-44323175D01*
X96876890Y-44278524D01*
X96647000Y-44399845D01*
X96393000Y-44399845D01*
X96163110Y-44278524D01*
X96015901Y-44323175D01*
X95753080Y-44448359D01*
X95519731Y-44622412D01*
X95324822Y-44838645D01*
X95255195Y-44955534D01*
X95133475Y-44773368D01*
X94926632Y-44566525D01*
X94683411Y-44404010D01*
X94413158Y-44292068D01*
X94126260Y-44235000D01*
X93833740Y-44235000D01*
X93546842Y-44292068D01*
X93276589Y-44404010D01*
X93033368Y-44566525D01*
X92826525Y-44773368D01*
X92710000Y-44947760D01*
X92593475Y-44773368D01*
X92386632Y-44566525D01*
X92143411Y-44404010D01*
X91873158Y-44292068D01*
X91586260Y-44235000D01*
X91293740Y-44235000D01*
X91006842Y-44292068D01*
X90736589Y-44404010D01*
X90493368Y-44566525D01*
X90361513Y-44698380D01*
X90339502Y-44625820D01*
X90280537Y-44515506D01*
X90201185Y-44418815D01*
X90104494Y-44339463D01*
X89994180Y-44280498D01*
X89874482Y-44244188D01*
X89750000Y-44231928D01*
X88050000Y-44231928D01*
X87925518Y-44244188D01*
X87805820Y-44280498D01*
X87695506Y-44339463D01*
X87598815Y-44418815D01*
X87519463Y-44515506D01*
X87460498Y-44625820D01*
X87424188Y-44745518D01*
X87411928Y-44870000D01*
X87411928Y-45504517D01*
X85815988Y-43908578D01*
X85789833Y-43876708D01*
X85745104Y-43840000D01*
X98400001Y-43840000D01*
X98400001Y-49057290D01*
G37*
G04 #@! TD.AperFunction*
M02*
