  0
SECTION
  2
HEADER
  9
$ANGBASE
  50
0.0
  9
$ANGDIR
  70
1
  9
$MEASUREMENT
  70
1
  0
ENDSEC
  0
SECTION
  2
TABLES
  0
TABLE
  2
LTYPE
  70
4
  0
LTYPE
  5
40F
  2
CONTINUOUS
  70
0
  3
Solid line
  72
65
  73
0
  40
0.0
  0
LTYPE
  5
410
  2
DASHDOT
 70
0
  3
Dash Dot ____ _ ____ _
 72
65
 73
4
 40
2.0
 49
1.25
 49
-0.25
 49
0.25
 49
-0.25
  0
LTYPE
  5
411
  2
DASHED
 70
0
  3
Dashed __ __ __ __ __
 72
65
 73
2
 40
0.75
 49
0.5
 49
-0.25
  0
LTYPE
  5
43B
  2
DOTTED
 70
0
  3
Dotted .  .  .  .
 72
65
 73
2
 40
0.2
 49
0.0
 49
-0.2
  0
ENDTAB
  0
TABLE
  2
STYLE
  70
4
  0
STYLE
  2
KICAD
  70
0
  40
0
  41
1
  42
1
  50
0
  71
0
  3
isocp.shx
  0
STYLE
  2
KICADB
  70
0
  40
0
  41
1
  42
1
  50
0
  71
0
  3
isocp.shx
  0
STYLE
  2
KICADI
  70
0
  40
0
  41
1
  42
1
  50
15
  71
0
  3
isocp.shx
  0
STYLE
  2
KICADBI
  70
0
  40
0
  41
1
  42
1
  50
15
  71
0
  3
isocp.shx
  0
ENDTAB
  0
TABLE
  2
LAYER
  70
1
  0
LAYER
  2
BLACK
  70
0
  62
7
  6
CONTINUOUS
  0
ENDTAB
  0
ENDSEC
  0
SECTION
  2
ENTITIES
0
LINE
8
BLACK
6
CONTINUOUS
10
143.723
20
-104.988
11
143.681
21
-105.006
0
LINE
8
BLACK
6
CONTINUOUS
10
143.681
20
-105.006
11
143.639
21
-104.988
0
LINE
8
BLACK
6
CONTINUOUS
10
143.639
20
-104.988
11
143.621
21
-104.946
0
LINE
8
BLACK
6
CONTINUOUS
10
143.621
20
-104.946
11
143.621
21
-99.146
0
LINE
8
BLACK
6
CONTINUOUS
10
143.621
20
-99.146
11
143.639
21
-99.1036
0
LINE
8
BLACK
6
CONTINUOUS
10
143.639
20
-99.1036
11
143.681
21
-99.086
0
LINE
8
BLACK
6
CONTINUOUS
10
143.681
20
-99.086
11
143.723
21
-99.1036
0
LINE
8
BLACK
6
CONTINUOUS
10
143.723
20
-99.1036
11
143.741
21
-99.146
0
LINE
8
BLACK
6
CONTINUOUS
10
143.741
20
-99.146
11
143.741
21
-104.946
0
LINE
8
BLACK
6
CONTINUOUS
10
143.741
20
-104.946
11
143.723
21
-104.988
0
LINE
8
BLACK
6
CONTINUOUS
10
133.76
20
-104
11
133.808
21
-104.047
0
LINE
8
BLACK
6
CONTINUOUS
10
133.808
20
-104.047
11
133.823
21
-104.069
0
LINE
8
BLACK
6
CONTINUOUS
10
133.823
20
-104.069
11
133.823
21
-104.073
0
LINE
8
BLACK
6
CONTINUOUS
10
133.823
20
-104.073
11
133.826
21
-104.077
0
LINE
8
BLACK
6
CONTINUOUS
10
133.826
20
-104.077
11
133.874
21
-104.219
0
LINE
8
BLACK
6
CONTINUOUS
10
133.874
20
-104.219
11
133.877
21
-104.242
0
LINE
8
BLACK
6
CONTINUOUS
10
133.877
20
-104.242
11
133.877
21
-104.243
0
LINE
8
BLACK
6
CONTINUOUS
10
133.877
20
-104.243
11
133.877
21
-104.338
0
LINE
8
BLACK
6
CONTINUOUS
10
133.877
20
-104.338
11
133.873
21
-104.36
0
LINE
8
BLACK
6
CONTINUOUS
10
133.873
20
-104.36
11
133.874
21
-104.362
0
LINE
8
BLACK
6
CONTINUOUS
10
133.874
20
-104.362
11
133.826
21
-104.505
0
LINE
8
BLACK
6
CONTINUOUS
10
133.826
20
-104.505
11
133.814
21
-104.528
0
LINE
8
BLACK
6
CONTINUOUS
10
133.814
20
-104.528
11
133.81
21
-104.53
0
LINE
8
BLACK
6
CONTINUOUS
10
133.81
20
-104.53
11
133.808
21
-104.534
0
LINE
8
BLACK
6
CONTINUOUS
10
133.808
20
-104.534
11
133.713
21
-104.63
0
LINE
8
BLACK
6
CONTINUOUS
10
133.713
20
-104.63
11
133.694
21
-104.642
0
LINE
8
BLACK
6
CONTINUOUS
10
133.694
20
-104.642
11
133.693
21
-104.644
0
LINE
8
BLACK
6
CONTINUOUS
10
133.693
20
-104.644
11
133.598
21
-104.691
0
LINE
8
BLACK
6
CONTINUOUS
10
133.598
20
-104.691
11
133.585
21
-104.695
0
LINE
8
BLACK
6
CONTINUOUS
10
133.585
20
-104.695
11
133.582
21
-104.697
0
LINE
8
BLACK
6
CONTINUOUS
10
133.582
20
-104.697
11
133.392
21
-104.744
0
LINE
8
BLACK
6
CONTINUOUS
10
133.392
20
-104.744
11
133.377
21
-104.746
0
LINE
8
BLACK
6
CONTINUOUS
10
133.377
20
-104.746
11
133.374
21
-104.747
0
LINE
8
BLACK
6
CONTINUOUS
10
133.374
20
-104.747
11
133.231
21
-104.747
0
LINE
8
BLACK
6
CONTINUOUS
10
133.231
20
-104.747
11
133.216
21
-104.744
0
LINE
8
BLACK
6
CONTINUOUS
10
133.216
20
-104.744
11
133.213
21
-104.744
0
LINE
8
BLACK
6
CONTINUOUS
10
133.213
20
-104.744
11
133.022
21
-104.697
0
LINE
8
BLACK
6
CONTINUOUS
10
133.022
20
-104.697
11
133.01
21
-104.692
0
LINE
8
BLACK
6
CONTINUOUS
10
133.01
20
-104.692
11
133.007
21
-104.691
0
LINE
8
BLACK
6
CONTINUOUS
10
133.007
20
-104.691
11
132.912
21
-104.644
0
LINE
8
BLACK
6
CONTINUOUS
10
132.912
20
-104.644
11
132.894
21
-104.63
0
LINE
8
BLACK
6
CONTINUOUS
10
132.894
20
-104.63
11
132.892
21
-104.63
0
LINE
8
BLACK
6
CONTINUOUS
10
132.892
20
-104.63
11
132.797
21
-104.534
0
LINE
8
BLACK
6
CONTINUOUS
10
132.797
20
-104.534
11
132.782
21
-104.513
0
LINE
8
BLACK
6
CONTINUOUS
10
132.782
20
-104.513
11
132.782
21
-104.508
0
LINE
8
BLACK
6
CONTINUOUS
10
132.782
20
-104.508
11
132.779
21
-104.505
0
LINE
8
BLACK
6
CONTINUOUS
10
132.779
20
-104.505
11
132.731
21
-104.362
0
LINE
8
BLACK
6
CONTINUOUS
10
132.731
20
-104.362
11
132.728
21
-104.34
0
LINE
8
BLACK
6
CONTINUOUS
10
132.728
20
-104.34
11
132.727
21
-104.338
0
LINE
8
BLACK
6
CONTINUOUS
10
132.727
20
-104.338
11
132.727
21
-104.243
0
LINE
8
BLACK
6
CONTINUOUS
10
132.727
20
-104.243
11
132.731
21
-104.221
0
LINE
8
BLACK
6
CONTINUOUS
10
132.731
20
-104.221
11
132.731
21
-104.219
0
LINE
8
BLACK
6
CONTINUOUS
10
132.731
20
-104.219
11
132.779
21
-104.077
0
LINE
8
BLACK
6
CONTINUOUS
10
132.779
20
-104.077
11
132.791
21
-104.054
0
LINE
8
BLACK
6
CONTINUOUS
10
132.791
20
-104.054
11
132.795
21
-104.051
0
LINE
8
BLACK
6
CONTINUOUS
10
132.795
20
-104.051
11
132.797
21
-104.047
0
LINE
8
BLACK
6
CONTINUOUS
10
132.797
20
-104.047
11
132.845
21
-104
0
LINE
8
BLACK
6
CONTINUOUS
10
132.845
20
-104
11
132.866
21
-103.985
0
LINE
8
BLACK
6
CONTINUOUS
10
132.866
20
-103.985
11
132.917
21
-103.98
0
LINE
8
BLACK
6
CONTINUOUS
10
132.917
20
-103.98
11
132.959
21
-104.01
0
LINE
8
BLACK
6
CONTINUOUS
10
132.959
20
-104.01
11
132.972
21
-104.059
0
LINE
8
BLACK
6
CONTINUOUS
10
132.972
20
-104.059
11
132.951
21
-104.106
0
LINE
8
BLACK
6
CONTINUOUS
10
132.951
20
-104.106
11
132.916
21
-104.141
0
LINE
8
BLACK
6
CONTINUOUS
10
132.916
20
-104.141
11
132.877
21
-104.255
0
LINE
8
BLACK
6
CONTINUOUS
10
132.877
20
-104.255
11
132.877
21
-104.326
0
LINE
8
BLACK
6
CONTINUOUS
10
132.877
20
-104.326
11
132.916
21
-104.441
0
LINE
8
BLACK
6
CONTINUOUS
10
132.916
20
-104.441
11
132.99
21
-104.515
0
LINE
8
BLACK
6
CONTINUOUS
10
132.99
20
-104.515
11
133.067
21
-104.553
0
LINE
8
BLACK
6
CONTINUOUS
10
133.067
20
-104.553
11
133.24
21
-104.597
0
LINE
8
BLACK
6
CONTINUOUS
10
133.24
20
-104.597
11
133.365
21
-104.597
0
LINE
8
BLACK
6
CONTINUOUS
10
133.365
20
-104.597
11
133.538
21
-104.553
0
LINE
8
BLACK
6
CONTINUOUS
10
133.538
20
-104.553
11
133.615
21
-104.515
0
LINE
8
BLACK
6
CONTINUOUS
10
133.615
20
-104.515
11
133.689
21
-104.441
0
LINE
8
BLACK
6
CONTINUOUS
10
133.689
20
-104.441
11
133.727
21
-104.326
0
LINE
8
BLACK
6
CONTINUOUS
10
133.727
20
-104.326
11
133.727
21
-104.255
0
LINE
8
BLACK
6
CONTINUOUS
10
133.727
20
-104.255
11
133.689
21
-104.141
0
LINE
8
BLACK
6
CONTINUOUS
10
133.689
20
-104.141
11
133.654
21
-104.106
0
LINE
8
BLACK
6
CONTINUOUS
10
133.654
20
-104.106
11
133.639
21
-104.084
0
LINE
8
BLACK
6
CONTINUOUS
10
133.639
20
-104.084
11
133.635
21
-104.033
0
LINE
8
BLACK
6
CONTINUOUS
10
133.635
20
-104.033
11
133.664
21
-103.991
0
LINE
8
BLACK
6
CONTINUOUS
10
133.664
20
-103.991
11
133.714
21
-103.978
0
LINE
8
BLACK
6
CONTINUOUS
10
133.714
20
-103.978
11
133.76
21
-104
0
LINE
8
BLACK
6
CONTINUOUS
10
135.94
20
-104.579
11
135.957
21
-104.621
0
LINE
8
BLACK
6
CONTINUOUS
10
135.957
20
-104.621
11
135.94
21
-104.663
0
LINE
8
BLACK
6
CONTINUOUS
10
135.94
20
-104.663
11
135.897
21
-104.681
0
LINE
8
BLACK
6
CONTINUOUS
10
135.897
20
-104.681
11
135.375
21
-104.681
0
LINE
8
BLACK
6
CONTINUOUS
10
135.375
20
-104.681
11
135.332
21
-104.663
0
LINE
8
BLACK
6
CONTINUOUS
10
135.332
20
-104.663
11
135.315
21
-104.621
0
LINE
8
BLACK
6
CONTINUOUS
10
135.315
20
-104.621
11
135.332
21
-104.579
0
LINE
8
BLACK
6
CONTINUOUS
10
135.332
20
-104.579
11
135.375
21
-104.561
0
LINE
8
BLACK
6
CONTINUOUS
10
135.375
20
-104.561
11
135.897
21
-104.561
0
LINE
8
BLACK
6
CONTINUOUS
10
135.897
20
-104.561
11
135.94
21
-104.579
0
LINE
8
BLACK
6
CONTINUOUS
10
152.356
20
-104.567
11
152.314
21
-104.585
0
LINE
8
BLACK
6
CONTINUOUS
10
152.314
20
-104.585
11
152.272
21
-104.567
0
LINE
8
BLACK
6
CONTINUOUS
10
152.272
20
-104.567
11
152.254
21
-104.525
0
LINE
8
BLACK
6
CONTINUOUS
10
152.254
20
-104.525
11
152.254
21
-100.1
0
LINE
8
BLACK
6
CONTINUOUS
10
152.254
20
-100.1
11
152.272
21
-100.058
0
LINE
8
BLACK
6
CONTINUOUS
10
152.272
20
-100.058
11
152.314
21
-100.04
0
LINE
8
BLACK
6
CONTINUOUS
10
152.314
20
-100.04
11
152.356
21
-100.058
0
LINE
8
BLACK
6
CONTINUOUS
10
152.356
20
-100.058
11
152.374
21
-100.1
0
LINE
8
BLACK
6
CONTINUOUS
10
152.374
20
-100.1
11
152.374
21
-104.525
0
LINE
8
BLACK
6
CONTINUOUS
10
152.374
20
-104.525
11
152.356
21
-104.567
0
LINE
8
BLACK
6
CONTINUOUS
10
159.316
20
-103.492
11
159.364
21
-103.539
0
LINE
8
BLACK
6
CONTINUOUS
10
159.364
20
-103.539
11
159.379
21
-103.561
0
LINE
8
BLACK
6
CONTINUOUS
10
159.379
20
-103.561
11
159.379
21
-103.565
0
LINE
8
BLACK
6
CONTINUOUS
10
159.379
20
-103.565
11
159.382
21
-103.569
0
LINE
8
BLACK
6
CONTINUOUS
10
159.382
20
-103.569
11
159.43
21
-103.711
0
LINE
8
BLACK
6
CONTINUOUS
10
159.43
20
-103.711
11
159.433
21
-103.734
0
LINE
8
BLACK
6
CONTINUOUS
10
159.433
20
-103.734
11
159.433
21
-103.735
0
LINE
8
BLACK
6
CONTINUOUS
10
159.433
20
-103.735
11
159.433
21
-103.83
0
LINE
8
BLACK
6
CONTINUOUS
10
159.433
20
-103.83
11
159.429
21
-103.852
0
LINE
8
BLACK
6
CONTINUOUS
10
159.429
20
-103.852
11
159.43
21
-103.854
0
LINE
8
BLACK
6
CONTINUOUS
10
159.43
20
-103.854
11
159.382
21
-103.997
0
LINE
8
BLACK
6
CONTINUOUS
10
159.382
20
-103.997
11
159.37
21
-104.02
0
LINE
8
BLACK
6
CONTINUOUS
10
159.37
20
-104.02
11
159.366
21
-104.022
0
LINE
8
BLACK
6
CONTINUOUS
10
159.366
20
-104.022
11
159.364
21
-104.026
0
LINE
8
BLACK
6
CONTINUOUS
10
159.364
20
-104.026
11
159.269
21
-104.122
0
LINE
8
BLACK
6
CONTINUOUS
10
159.269
20
-104.122
11
159.25
21
-104.134
0
LINE
8
BLACK
6
CONTINUOUS
10
159.25
20
-104.134
11
159.249
21
-104.136
0
LINE
8
BLACK
6
CONTINUOUS
10
159.249
20
-104.136
11
159.154
21
-104.183
0
LINE
8
BLACK
6
CONTINUOUS
10
159.154
20
-104.183
11
159.141
21
-104.187
0
LINE
8
BLACK
6
CONTINUOUS
10
159.141
20
-104.187
11
159.138
21
-104.189
0
LINE
8
BLACK
6
CONTINUOUS
10
159.138
20
-104.189
11
158.948
21
-104.236
0
LINE
8
BLACK
6
CONTINUOUS
10
158.948
20
-104.236
11
158.933
21
-104.238
0
LINE
8
BLACK
6
CONTINUOUS
10
158.933
20
-104.238
11
158.93
21
-104.239
0
LINE
8
BLACK
6
CONTINUOUS
10
158.93
20
-104.239
11
158.787
21
-104.239
0
LINE
8
BLACK
6
CONTINUOUS
10
158.787
20
-104.239
11
158.772
21
-104.236
0
LINE
8
BLACK
6
CONTINUOUS
10
158.772
20
-104.236
11
158.769
21
-104.236
0
LINE
8
BLACK
6
CONTINUOUS
10
158.769
20
-104.236
11
158.578
21
-104.189
0
LINE
8
BLACK
6
CONTINUOUS
10
158.578
20
-104.189
11
158.566
21
-104.184
0
LINE
8
BLACK
6
CONTINUOUS
10
158.566
20
-104.184
11
158.563
21
-104.183
0
LINE
8
BLACK
6
CONTINUOUS
10
158.563
20
-104.183
11
158.468
21
-104.136
0
LINE
8
BLACK
6
CONTINUOUS
10
158.468
20
-104.136
11
158.45
21
-104.122
0
LINE
8
BLACK
6
CONTINUOUS
10
158.45
20
-104.122
11
158.448
21
-104.122
0
LINE
8
BLACK
6
CONTINUOUS
10
158.448
20
-104.122
11
158.353
21
-104.026
0
LINE
8
BLACK
6
CONTINUOUS
10
158.353
20
-104.026
11
158.338
21
-104.005
0
LINE
8
BLACK
6
CONTINUOUS
10
158.338
20
-104.005
11
158.338
21
-104
0
LINE
8
BLACK
6
CONTINUOUS
10
158.338
20
-104
11
158.335
21
-103.997
0
LINE
8
BLACK
6
CONTINUOUS
10
158.335
20
-103.997
11
158.287
21
-103.854
0
LINE
8
BLACK
6
CONTINUOUS
10
158.287
20
-103.854
11
158.284
21
-103.832
0
LINE
8
BLACK
6
CONTINUOUS
10
158.284
20
-103.832
11
158.283
21
-103.83
0
LINE
8
BLACK
6
CONTINUOUS
10
158.283
20
-103.83
11
158.283
21
-103.735
0
LINE
8
BLACK
6
CONTINUOUS
10
158.283
20
-103.735
11
158.287
21
-103.713
0
LINE
8
BLACK
6
CONTINUOUS
10
158.287
20
-103.713
11
158.287
21
-103.711
0
LINE
8
BLACK
6
CONTINUOUS
10
158.287
20
-103.711
11
158.335
21
-103.569
0
LINE
8
BLACK
6
CONTINUOUS
10
158.335
20
-103.569
11
158.347
21
-103.546
0
LINE
8
BLACK
6
CONTINUOUS
10
158.347
20
-103.546
11
158.351
21
-103.543
0
LINE
8
BLACK
6
CONTINUOUS
10
158.351
20
-103.543
11
158.353
21
-103.539
0
LINE
8
BLACK
6
CONTINUOUS
10
158.353
20
-103.539
11
158.401
21
-103.492
0
LINE
8
BLACK
6
CONTINUOUS
10
158.401
20
-103.492
11
158.422
21
-103.477
0
LINE
8
BLACK
6
CONTINUOUS
10
158.422
20
-103.477
11
158.473
21
-103.472
0
LINE
8
BLACK
6
CONTINUOUS
10
158.473
20
-103.472
11
158.515
21
-103.502
0
LINE
8
BLACK
6
CONTINUOUS
10
158.515
20
-103.502
11
158.528
21
-103.551
0
LINE
8
BLACK
6
CONTINUOUS
10
158.528
20
-103.551
11
158.507
21
-103.598
0
LINE
8
BLACK
6
CONTINUOUS
10
158.507
20
-103.598
11
158.472
21
-103.633
0
LINE
8
BLACK
6
CONTINUOUS
10
158.472
20
-103.633
11
158.433
21
-103.747
0
LINE
8
BLACK
6
CONTINUOUS
10
158.433
20
-103.747
11
158.433
21
-103.818
0
LINE
8
BLACK
6
CONTINUOUS
10
158.433
20
-103.818
11
158.472
21
-103.933
0
LINE
8
BLACK
6
CONTINUOUS
10
158.472
20
-103.933
11
158.546
21
-104.007
0
LINE
8
BLACK
6
CONTINUOUS
10
158.546
20
-104.007
11
158.623
21
-104.045
0
LINE
8
BLACK
6
CONTINUOUS
10
158.623
20
-104.045
11
158.796
21
-104.089
0
LINE
8
BLACK
6
CONTINUOUS
10
158.796
20
-104.089
11
158.921
21
-104.089
0
LINE
8
BLACK
6
CONTINUOUS
10
158.921
20
-104.089
11
159.094
21
-104.045
0
LINE
8
BLACK
6
CONTINUOUS
10
159.094
20
-104.045
11
159.171
21
-104.007
0
LINE
8
BLACK
6
CONTINUOUS
10
159.171
20
-104.007
11
159.245
21
-103.933
0
LINE
8
BLACK
6
CONTINUOUS
10
159.245
20
-103.933
11
159.283
21
-103.818
0
LINE
8
BLACK
6
CONTINUOUS
10
159.283
20
-103.818
11
159.283
21
-103.747
0
LINE
8
BLACK
6
CONTINUOUS
10
159.283
20
-103.747
11
159.245
21
-103.633
0
LINE
8
BLACK
6
CONTINUOUS
10
159.245
20
-103.633
11
159.21
21
-103.598
0
LINE
8
BLACK
6
CONTINUOUS
10
159.21
20
-103.598
11
159.195
21
-103.576
0
LINE
8
BLACK
6
CONTINUOUS
10
159.195
20
-103.576
11
159.191
21
-103.525
0
LINE
8
BLACK
6
CONTINUOUS
10
159.191
20
-103.525
11
159.22
21
-103.483
0
LINE
8
BLACK
6
CONTINUOUS
10
159.22
20
-103.483
11
159.27
21
-103.47
0
LINE
8
BLACK
6
CONTINUOUS
10
159.27
20
-103.47
11
159.316
21
-103.492
0
LINE
8
BLACK
6
CONTINUOUS
10
140.744
20
-103.543
11
140.761
21
-103.586
0
LINE
8
BLACK
6
CONTINUOUS
10
140.761
20
-103.586
11
140.761
21
-104.06
0
LINE
8
BLACK
6
CONTINUOUS
10
140.761
20
-104.06
11
140.744
21
-104.103
0
LINE
8
BLACK
6
CONTINUOUS
10
140.744
20
-104.103
11
140.701
21
-104.12
0
LINE
8
BLACK
6
CONTINUOUS
10
140.701
20
-104.12
11
140.659
21
-104.103
0
LINE
8
BLACK
6
CONTINUOUS
10
140.659
20
-104.103
11
140.642
21
-104.06
0
LINE
8
BLACK
6
CONTINUOUS
10
140.642
20
-104.06
11
140.642
21
-103.586
0
LINE
8
BLACK
6
CONTINUOUS
10
140.642
20
-103.586
11
140.659
21
-103.543
0
LINE
8
BLACK
6
CONTINUOUS
10
140.659
20
-103.543
11
140.701
21
-103.526
0
LINE
8
BLACK
6
CONTINUOUS
10
140.701
20
-103.526
11
140.744
21
-103.543
0
LINE
8
BLACK
6
CONTINUOUS
10
141.789
20
-103.543
11
141.806
21
-103.586
0
LINE
8
BLACK
6
CONTINUOUS
10
141.806
20
-103.586
11
141.806
21
-104.06
0
LINE
8
BLACK
6
CONTINUOUS
10
141.806
20
-104.06
11
141.789
21
-104.103
0
LINE
8
BLACK
6
CONTINUOUS
10
141.789
20
-104.103
11
141.746
21
-104.12
0
LINE
8
BLACK
6
CONTINUOUS
10
141.746
20
-104.12
11
141.704
21
-104.103
0
LINE
8
BLACK
6
CONTINUOUS
10
141.704
20
-104.103
11
141.686
21
-104.06
0
LINE
8
BLACK
6
CONTINUOUS
10
141.686
20
-104.06
11
141.686
21
-103.586
0
LINE
8
BLACK
6
CONTINUOUS
10
141.686
20
-103.586
11
141.704
21
-103.543
0
LINE
8
BLACK
6
CONTINUOUS
10
141.704
20
-103.543
11
141.746
21
-103.526
0
LINE
8
BLACK
6
CONTINUOUS
10
141.746
20
-103.526
11
141.789
21
-103.543
0
LINE
8
BLACK
6
CONTINUOUS
10
138.245
20
-103.394
11
138.263
21
-103.437
0
LINE
8
BLACK
6
CONTINUOUS
10
138.263
20
-103.437
11
138.263
21
-103.959
0
LINE
8
BLACK
6
CONTINUOUS
10
138.263
20
-103.959
11
138.245
21
-104.002
0
LINE
8
BLACK
6
CONTINUOUS
10
138.245
20
-104.002
11
138.203
21
-104.019
0
LINE
8
BLACK
6
CONTINUOUS
10
138.203
20
-104.019
11
138.161
21
-104.002
0
LINE
8
BLACK
6
CONTINUOUS
10
138.161
20
-104.002
11
138.143
21
-103.959
0
LINE
8
BLACK
6
CONTINUOUS
10
138.143
20
-103.959
11
138.143
21
-103.437
0
LINE
8
BLACK
6
CONTINUOUS
10
138.143
20
-103.437
11
138.161
21
-103.394
0
LINE
8
BLACK
6
CONTINUOUS
10
138.161
20
-103.394
11
138.203
21
-103.377
0
LINE
8
BLACK
6
CONTINUOUS
10
138.203
20
-103.377
11
138.245
21
-103.394
0
LINE
8
BLACK
6
CONTINUOUS
10
139.715
20
-103.394
11
139.733
21
-103.437
0
LINE
8
BLACK
6
CONTINUOUS
10
139.733
20
-103.437
11
139.733
21
-103.959
0
LINE
8
BLACK
6
CONTINUOUS
10
139.733
20
-103.959
11
139.715
21
-104.002
0
LINE
8
BLACK
6
CONTINUOUS
10
139.715
20
-104.002
11
139.673
21
-104.019
0
LINE
8
BLACK
6
CONTINUOUS
10
139.673
20
-104.019
11
139.631
21
-104.002
0
LINE
8
BLACK
6
CONTINUOUS
10
139.631
20
-104.002
11
139.613
21
-103.959
0
LINE
8
BLACK
6
CONTINUOUS
10
139.613
20
-103.959
11
139.613
21
-103.437
0
LINE
8
BLACK
6
CONTINUOUS
10
139.613
20
-103.437
11
139.631
21
-103.394
0
LINE
8
BLACK
6
CONTINUOUS
10
139.631
20
-103.394
11
139.673
21
-103.377
0
LINE
8
BLACK
6
CONTINUOUS
10
139.673
20
-103.377
11
139.715
21
-103.394
0
LINE
8
BLACK
6
CONTINUOUS
10
133.86
20
-103.052
11
133.877
21
-103.1
0
LINE
8
BLACK
6
CONTINUOUS
10
133.877
20
-103.1
11
133.877
21
-103.672
0
LINE
8
BLACK
6
CONTINUOUS
10
133.877
20
-103.672
11
133.873
21
-103.697
0
LINE
8
BLACK
6
CONTINUOUS
10
133.873
20
-103.697
11
133.84
21
-103.737
0
LINE
8
BLACK
6
CONTINUOUS
10
133.84
20
-103.737
11
133.789
21
-103.746
0
LINE
8
BLACK
6
CONTINUOUS
10
133.789
20
-103.746
11
133.745
21
-103.72
0
LINE
8
BLACK
6
CONTINUOUS
10
133.745
20
-103.72
11
133.727
21
-103.672
0
LINE
8
BLACK
6
CONTINUOUS
10
133.727
20
-103.672
11
133.727
21
-103.461
0
LINE
8
BLACK
6
CONTINUOUS
10
133.727
20
-103.461
11
133.031
21
-103.461
0
LINE
8
BLACK
6
CONTINUOUS
10
133.031
20
-103.461
11
133.094
21
-103.523
0
LINE
8
BLACK
6
CONTINUOUS
10
133.094
20
-103.523
11
133.106
21
-103.542
0
LINE
8
BLACK
6
CONTINUOUS
10
133.106
20
-103.542
11
133.108
21
-103.543
0
LINE
8
BLACK
6
CONTINUOUS
10
133.108
20
-103.543
11
133.155
21
-103.638
0
LINE
8
BLACK
6
CONTINUOUS
10
133.155
20
-103.638
11
133.163
21
-103.663
0
LINE
8
BLACK
6
CONTINUOUS
10
133.163
20
-103.663
11
133.151
21
-103.713
0
LINE
8
BLACK
6
CONTINUOUS
10
133.151
20
-103.713
11
133.109
21
-103.744
0
LINE
8
BLACK
6
CONTINUOUS
10
133.109
20
-103.744
11
133.058
21
-103.741
0
LINE
8
BLACK
6
CONTINUOUS
10
133.058
20
-103.741
11
133.021
21
-103.705
0
LINE
8
BLACK
6
CONTINUOUS
10
133.021
20
-103.705
11
132.979
21
-103.621
0
LINE
8
BLACK
6
CONTINUOUS
10
132.979
20
-103.621
11
132.897
21
-103.54
0
LINE
8
BLACK
6
CONTINUOUS
10
132.897
20
-103.54
11
132.761
21
-103.448
0
LINE
8
BLACK
6
CONTINUOUS
10
132.761
20
-103.448
11
132.742
21
-103.43
0
LINE
8
BLACK
6
CONTINUOUS
10
132.742
20
-103.43
11
132.741
21
-103.426
0
LINE
8
BLACK
6
CONTINUOUS
10
132.741
20
-103.426
11
132.737
21
-103.423
0
LINE
8
BLACK
6
CONTINUOUS
10
132.737
20
-103.423
11
132.734
21
-103.402
0
LINE
8
BLACK
6
CONTINUOUS
10
132.734
20
-103.402
11
132.728
21
-103.381
0
LINE
8
BLACK
6
CONTINUOUS
10
132.728
20
-103.381
11
132.729
21
-103.377
0
LINE
8
BLACK
6
CONTINUOUS
10
132.729
20
-103.377
11
132.729
21
-103.373
0
LINE
8
BLACK
6
CONTINUOUS
10
132.729
20
-103.373
11
132.739
21
-103.354
0
LINE
8
BLACK
6
CONTINUOUS
10
132.739
20
-103.354
11
132.748
21
-103.334
0
LINE
8
BLACK
6
CONTINUOUS
10
132.748
20
-103.334
11
132.752
21
-103.332
0
LINE
8
BLACK
6
CONTINUOUS
10
132.752
20
-103.332
11
132.754
21
-103.329
0
LINE
8
BLACK
6
CONTINUOUS
10
132.754
20
-103.329
11
132.775
21
-103.321
0
LINE
8
BLACK
6
CONTINUOUS
10
132.775
20
-103.321
11
132.794
21
-103.311
0
LINE
8
BLACK
6
CONTINUOUS
10
132.794
20
-103.311
11
132.798
21
-103.312
0
LINE
8
BLACK
6
CONTINUOUS
10
132.798
20
-103.312
11
132.802
21
-103.311
0
LINE
8
BLACK
6
CONTINUOUS
10
132.802
20
-103.311
11
133.727
21
-103.311
0
LINE
8
BLACK
6
CONTINUOUS
10
133.727
20
-103.311
11
133.727
21
-103.1
0
LINE
8
BLACK
6
CONTINUOUS
10
133.727
20
-103.1
11
133.732
21
-103.075
0
LINE
8
BLACK
6
CONTINUOUS
10
133.732
20
-103.075
11
133.765
21
-103.035
0
LINE
8
BLACK
6
CONTINUOUS
10
133.765
20
-103.035
11
133.815
21
-103.026
0
LINE
8
BLACK
6
CONTINUOUS
10
133.815
20
-103.026
11
133.86
21
-103.052
0
LINE
8
BLACK
6
CONTINUOUS
10
158.003
20
-103.074
11
158.021
21
-103.117
0
LINE
8
BLACK
6
CONTINUOUS
10
158.021
20
-103.117
11
158.021
21
-103.639
0
LINE
8
BLACK
6
CONTINUOUS
10
158.021
20
-103.639
11
158.003
21
-103.682
0
LINE
8
BLACK
6
CONTINUOUS
10
158.003
20
-103.682
11
157.961
21
-103.699
0
LINE
8
BLACK
6
CONTINUOUS
10
157.961
20
-103.699
11
157.919
21
-103.682
0
LINE
8
BLACK
6
CONTINUOUS
10
157.919
20
-103.682
11
157.901
21
-103.639
0
LINE
8
BLACK
6
CONTINUOUS
10
157.901
20
-103.639
11
157.901
21
-103.117
0
LINE
8
BLACK
6
CONTINUOUS
10
157.901
20
-103.117
11
157.919
21
-103.074
0
LINE
8
BLACK
6
CONTINUOUS
10
157.919
20
-103.074
11
157.961
21
-103.057
0
LINE
8
BLACK
6
CONTINUOUS
10
157.961
20
-103.057
11
158.003
21
-103.074
0
LINE
8
BLACK
6
CONTINUOUS
10
156.533
20
-103.074
11
156.551
21
-103.117
0
LINE
8
BLACK
6
CONTINUOUS
10
156.551
20
-103.117
11
156.551
21
-103.639
0
LINE
8
BLACK
6
CONTINUOUS
10
156.551
20
-103.639
11
156.533
21
-103.682
0
LINE
8
BLACK
6
CONTINUOUS
10
156.533
20
-103.682
11
156.491
21
-103.699
0
LINE
8
BLACK
6
CONTINUOUS
10
156.491
20
-103.699
11
156.449
21
-103.682
0
LINE
8
BLACK
6
CONTINUOUS
10
156.449
20
-103.682
11
156.431
21
-103.639
0
LINE
8
BLACK
6
CONTINUOUS
10
156.431
20
-103.639
11
156.431
21
-103.117
0
LINE
8
BLACK
6
CONTINUOUS
10
156.431
20
-103.117
11
156.449
21
-103.074
0
LINE
8
BLACK
6
CONTINUOUS
10
156.449
20
-103.074
11
156.491
21
-103.057
0
LINE
8
BLACK
6
CONTINUOUS
10
156.491
20
-103.057
11
156.533
21
-103.074
0
LINE
8
BLACK
6
CONTINUOUS
10
150.493
20
-103.588
11
150.451
21
-103.606
0
LINE
8
BLACK
6
CONTINUOUS
10
150.451
20
-103.606
11
150.409
21
-103.588
0
LINE
8
BLACK
6
CONTINUOUS
10
150.409
20
-103.588
11
150.391
21
-103.546
0
LINE
8
BLACK
6
CONTINUOUS
10
150.391
20
-103.546
11
150.391
21
-99.146
0
LINE
8
BLACK
6
CONTINUOUS
10
150.391
20
-99.146
11
150.409
21
-99.1036
0
LINE
8
BLACK
6
CONTINUOUS
10
150.409
20
-99.1036
11
150.451
21
-99.086
0
LINE
8
BLACK
6
CONTINUOUS
10
150.451
20
-99.086
11
150.493
21
-99.1036
0
LINE
8
BLACK
6
CONTINUOUS
10
150.493
20
-99.1036
11
150.511
21
-99.146
0
LINE
8
BLACK
6
CONTINUOUS
10
150.511
20
-99.146
11
150.511
21
-103.546
0
LINE
8
BLACK
6
CONTINUOUS
10
150.511
20
-103.546
11
150.493
21
-103.588
0
LINE
8
BLACK
6
CONTINUOUS
10
158.379
20
-102.475
11
158.388
21
-102.476
0
LINE
8
BLACK
6
CONTINUOUS
10
158.388
20
-102.476
11
159.388
21
-102.904
0
LINE
8
BLACK
6
CONTINUOUS
10
159.388
20
-102.904
11
159.41
21
-102.919
0
LINE
8
BLACK
6
CONTINUOUS
10
159.41
20
-102.919
11
159.433
21
-102.964
0
LINE
8
BLACK
6
CONTINUOUS
10
159.433
20
-102.964
11
159.421
21
-103.014
0
LINE
8
BLACK
6
CONTINUOUS
10
159.421
20
-103.014
11
159.38
21
-103.045
0
LINE
8
BLACK
6
CONTINUOUS
10
159.38
20
-103.045
11
159.329
21
-103.042
0
LINE
8
BLACK
6
CONTINUOUS
10
159.329
20
-103.042
11
158.433
21
-102.658
0
LINE
8
BLACK
6
CONTINUOUS
10
158.433
20
-102.658
11
158.433
21
-103.211
0
LINE
8
BLACK
6
CONTINUOUS
10
158.433
20
-103.211
11
158.429
21
-103.237
0
LINE
8
BLACK
6
CONTINUOUS
10
158.429
20
-103.237
11
158.396
21
-103.276
0
LINE
8
BLACK
6
CONTINUOUS
10
158.396
20
-103.276
11
158.345
21
-103.285
0
LINE
8
BLACK
6
CONTINUOUS
10
158.345
20
-103.285
11
158.301
21
-103.26
0
LINE
8
BLACK
6
CONTINUOUS
10
158.301
20
-103.26
11
158.283
21
-103.211
0
LINE
8
BLACK
6
CONTINUOUS
10
158.283
20
-103.211
11
158.283
21
-102.545
0
LINE
8
BLACK
6
CONTINUOUS
10
158.283
20
-102.545
11
158.288
21
-102.519
0
LINE
8
BLACK
6
CONTINUOUS
10
158.288
20
-102.519
11
158.294
21
-102.512
0
LINE
8
BLACK
6
CONTINUOUS
10
158.294
20
-102.512
11
158.296
21
-102.504
0
LINE
8
BLACK
6
CONTINUOUS
10
158.296
20
-102.504
11
158.31
21
-102.493
0
LINE
8
BLACK
6
CONTINUOUS
10
158.31
20
-102.493
11
158.321
21
-102.48
0
LINE
8
BLACK
6
CONTINUOUS
10
158.321
20
-102.48
11
158.33
21
-102.478
0
LINE
8
BLACK
6
CONTINUOUS
10
158.33
20
-102.478
11
158.337
21
-102.473
0
LINE
8
BLACK
6
CONTINUOUS
10
158.337
20
-102.473
11
158.354
21
-102.474
0
LINE
8
BLACK
6
CONTINUOUS
10
158.354
20
-102.474
11
158.371
21
-102.471
0
LINE
8
BLACK
6
CONTINUOUS
10
158.371
20
-102.471
11
158.379
21
-102.475
0
LINE
8
BLACK
6
CONTINUOUS
10
135.94
20
-103.109
11
135.957
21
-103.151
0
LINE
8
BLACK
6
CONTINUOUS
10
135.957
20
-103.151
11
135.94
21
-103.193
0
LINE
8
BLACK
6
CONTINUOUS
10
135.94
20
-103.193
11
135.897
21
-103.211
0
LINE
8
BLACK
6
CONTINUOUS
10
135.897
20
-103.211
11
135.375
21
-103.211
0
LINE
8
BLACK
6
CONTINUOUS
10
135.375
20
-103.211
11
135.332
21
-103.193
0
LINE
8
BLACK
6
CONTINUOUS
10
135.332
20
-103.193
11
135.315
21
-103.151
0
LINE
8
BLACK
6
CONTINUOUS
10
135.315
20
-103.151
11
135.332
21
-103.109
0
LINE
8
BLACK
6
CONTINUOUS
10
135.332
20
-103.109
11
135.375
21
-103.091
0
LINE
8
BLACK
6
CONTINUOUS
10
135.375
20
-103.091
11
135.897
21
-103.091
0
LINE
8
BLACK
6
CONTINUOUS
10
135.897
20
-103.091
11
135.94
21
-103.109
0
LINE
8
BLACK
6
CONTINUOUS
10
155.576
20
-103.142
11
155.534
21
-103.16
0
LINE
8
BLACK
6
CONTINUOUS
10
155.534
20
-103.16
11
155.492
21
-103.142
0
LINE
8
BLACK
6
CONTINUOUS
10
155.492
20
-103.142
11
155.474
21
-103.1
0
LINE
8
BLACK
6
CONTINUOUS
10
155.474
20
-103.1
11
155.474
21
-100.1
0
LINE
8
BLACK
6
CONTINUOUS
10
155.474
20
-100.1
11
155.492
21
-100.058
0
LINE
8
BLACK
6
CONTINUOUS
10
155.492
20
-100.058
11
155.534
21
-100.04
0
LINE
8
BLACK
6
CONTINUOUS
10
155.534
20
-100.04
11
155.576
21
-100.058
0
LINE
8
BLACK
6
CONTINUOUS
10
155.576
20
-100.058
11
155.594
21
-100.1
0
LINE
8
BLACK
6
CONTINUOUS
10
155.594
20
-100.1
11
155.594
21
-103.1
0
LINE
8
BLACK
6
CONTINUOUS
10
155.594
20
-103.1
11
155.576
21
-103.142
0
LINE
8
BLACK
6
CONTINUOUS
10
151.762
20
-101.72
11
151.765
21
-101.723
0
LINE
8
BLACK
6
CONTINUOUS
10
151.765
20
-101.723
11
151.769
21
-101.723
0
LINE
8
BLACK
6
CONTINUOUS
10
151.769
20
-101.723
11
151.865
21
-101.771
0
LINE
8
BLACK
6
CONTINUOUS
10
151.865
20
-101.771
11
151.883
21
-101.784
0
LINE
8
BLACK
6
CONTINUOUS
10
151.883
20
-101.784
11
151.884
21
-101.785
0
LINE
8
BLACK
6
CONTINUOUS
10
151.884
20
-101.785
11
151.932
21
-101.833
0
LINE
8
BLACK
6
CONTINUOUS
10
151.932
20
-101.833
11
151.945
21
-101.851
0
LINE
8
BLACK
6
CONTINUOUS
10
151.945
20
-101.851
11
151.946
21
-101.852
0
LINE
8
BLACK
6
CONTINUOUS
10
151.946
20
-101.852
11
151.993
21
-101.947
0
LINE
8
BLACK
6
CONTINUOUS
10
151.993
20
-101.947
11
152.001
21
-101.972
0
LINE
8
BLACK
6
CONTINUOUS
10
152.001
20
-101.972
11
152
21
-101.977
0
LINE
8
BLACK
6
CONTINUOUS
10
152
20
-101.977
11
152.001
21
-101.981
0
LINE
8
BLACK
6
CONTINUOUS
10
152.001
20
-101.981
11
152.001
21
-102.171
0
LINE
8
BLACK
6
CONTINUOUS
10
152.001
20
-102.171
11
151.997
21
-102.197
0
LINE
8
BLACK
6
CONTINUOUS
10
151.997
20
-102.197
11
151.994
21
-102.201
0
LINE
8
BLACK
6
CONTINUOUS
10
151.994
20
-102.201
11
151.993
21
-102.205
0
LINE
8
BLACK
6
CONTINUOUS
10
151.993
20
-102.205
11
151.946
21
-102.3
0
LINE
8
BLACK
6
CONTINUOUS
10
151.946
20
-102.3
11
151.932
21
-102.318
0
LINE
8
BLACK
6
CONTINUOUS
10
151.932
20
-102.318
11
151.932
21
-102.32
0
LINE
8
BLACK
6
CONTINUOUS
10
151.932
20
-102.32
11
151.884
21
-102.367
0
LINE
8
BLACK
6
CONTINUOUS
10
151.884
20
-102.367
11
151.866
21
-102.38
0
LINE
8
BLACK
6
CONTINUOUS
10
151.866
20
-102.38
11
151.865
21
-102.381
0
LINE
8
BLACK
6
CONTINUOUS
10
151.865
20
-102.381
11
151.769
21
-102.429
0
LINE
8
BLACK
6
CONTINUOUS
10
151.769
20
-102.429
11
151.744
21
-102.436
0
LINE
8
BLACK
6
CONTINUOUS
10
151.744
20
-102.436
11
151.74
21
-102.435
0
LINE
8
BLACK
6
CONTINUOUS
10
151.74
20
-102.435
11
151.736
21
-102.437
0
LINE
8
BLACK
6
CONTINUOUS
10
151.736
20
-102.437
11
150.926
21
-102.437
0
LINE
8
BLACK
6
CONTINUOUS
10
150.926
20
-102.437
11
150.901
21
-102.432
0
LINE
8
BLACK
6
CONTINUOUS
10
150.901
20
-102.432
11
150.861
21
-102.399
0
LINE
8
BLACK
6
CONTINUOUS
10
150.861
20
-102.399
11
150.853
21
-102.349
0
LINE
8
BLACK
6
CONTINUOUS
10
150.853
20
-102.349
11
150.878
21
-102.304
0
LINE
8
BLACK
6
CONTINUOUS
10
150.878
20
-102.304
11
150.926
21
-102.287
0
LINE
8
BLACK
6
CONTINUOUS
10
150.926
20
-102.287
11
151.718
21
-102.287
0
LINE
8
BLACK
6
CONTINUOUS
10
151.718
20
-102.287
11
151.787
21
-102.253
0
LINE
8
BLACK
6
CONTINUOUS
10
151.787
20
-102.253
11
151.817
21
-102.222
0
LINE
8
BLACK
6
CONTINUOUS
10
151.817
20
-102.222
11
151.851
21
-102.154
0
LINE
8
BLACK
6
CONTINUOUS
10
151.851
20
-102.154
11
151.851
21
-101.999
0
LINE
8
BLACK
6
CONTINUOUS
10
151.851
20
-101.999
11
151.817
21
-101.93
0
LINE
8
BLACK
6
CONTINUOUS
10
151.817
20
-101.93
11
151.787
21
-101.9
0
LINE
8
BLACK
6
CONTINUOUS
10
151.787
20
-101.9
11
151.718
21
-101.865
0
LINE
8
BLACK
6
CONTINUOUS
10
151.718
20
-101.865
11
150.926
21
-101.865
0
LINE
8
BLACK
6
CONTINUOUS
10
150.926
20
-101.865
11
150.901
21
-101.861
0
LINE
8
BLACK
6
CONTINUOUS
10
150.901
20
-101.861
11
150.861
21
-101.828
0
LINE
8
BLACK
6
CONTINUOUS
10
150.861
20
-101.828
11
150.853
21
-101.777
0
LINE
8
BLACK
6
CONTINUOUS
10
150.853
20
-101.777
11
150.878
21
-101.733
0
LINE
8
BLACK
6
CONTINUOUS
10
150.878
20
-101.733
11
150.926
21
-101.715
0
LINE
8
BLACK
6
CONTINUOUS
10
150.926
20
-101.715
11
151.736
21
-101.715
0
LINE
8
BLACK
6
CONTINUOUS
10
151.736
20
-101.715
11
151.762
21
-101.72
0
LINE
8
BLACK
6
CONTINUOUS
10
141.035
20
-101.57
11
141.039
21
-101.573
0
LINE
8
BLACK
6
CONTINUOUS
10
141.039
20
-101.573
11
141.043
21
-101.574
0
LINE
8
BLACK
6
CONTINUOUS
10
141.043
20
-101.574
11
141.138
21
-101.621
0
LINE
8
BLACK
6
CONTINUOUS
10
141.138
20
-101.621
11
141.157
21
-101.635
0
LINE
8
BLACK
6
CONTINUOUS
10
141.157
20
-101.635
11
141.158
21
-101.635
0
LINE
8
BLACK
6
CONTINUOUS
10
141.158
20
-101.635
11
141.206
21
-101.683
0
LINE
8
BLACK
6
CONTINUOUS
10
141.206
20
-101.683
11
141.218
21
-101.701
0
LINE
8
BLACK
6
CONTINUOUS
10
141.218
20
-101.701
11
141.22
21
-101.702
0
LINE
8
BLACK
6
CONTINUOUS
10
141.22
20
-101.702
11
141.267
21
-101.798
0
LINE
8
BLACK
6
CONTINUOUS
10
141.267
20
-101.798
11
141.275
21
-101.823
0
LINE
8
BLACK
6
CONTINUOUS
10
141.275
20
-101.823
11
141.274
21
-101.827
0
LINE
8
BLACK
6
CONTINUOUS
10
141.274
20
-101.827
11
141.275
21
-101.83
0
LINE
8
BLACK
6
CONTINUOUS
10
141.275
20
-101.83
11
141.633
21
-101.579
0
LINE
8
BLACK
6
CONTINUOUS
10
141.633
20
-101.579
11
141.657
21
-101.568
0
LINE
8
BLACK
6
CONTINUOUS
10
141.657
20
-101.568
11
141.708
21
-101.573
0
LINE
8
BLACK
6
CONTINUOUS
10
141.708
20
-101.573
11
141.744
21
-101.609
0
LINE
8
BLACK
6
CONTINUOUS
10
141.744
20
-101.609
11
141.749
21
-101.66
0
LINE
8
BLACK
6
CONTINUOUS
10
141.749
20
-101.66
11
141.719
21
-101.702
0
LINE
8
BLACK
6
CONTINUOUS
10
141.719
20
-101.702
11
141.275
21
-102.013
0
LINE
8
BLACK
6
CONTINUOUS
10
141.275
20
-102.013
11
141.275
21
-102.137
0
LINE
8
BLACK
6
CONTINUOUS
10
141.275
20
-102.137
11
141.676
21
-102.137
0
LINE
8
BLACK
6
CONTINUOUS
10
141.676
20
-102.137
11
141.702
21
-102.142
0
LINE
8
BLACK
6
CONTINUOUS
10
141.702
20
-102.142
11
141.741
21
-102.175
0
LINE
8
BLACK
6
CONTINUOUS
10
141.741
20
-102.175
11
141.75
21
-102.225
0
LINE
8
BLACK
6
CONTINUOUS
10
141.75
20
-102.225
11
141.725
21
-102.27
0
LINE
8
BLACK
6
CONTINUOUS
10
141.725
20
-102.27
11
141.676
21
-102.287
0
LINE
8
BLACK
6
CONTINUOUS
10
141.676
20
-102.287
11
140.676
21
-102.287
0
LINE
8
BLACK
6
CONTINUOUS
10
140.676
20
-102.287
11
140.667
21
-102.285
0
LINE
8
BLACK
6
CONTINUOUS
10
140.667
20
-102.285
11
140.663
21
-102.286
0
LINE
8
BLACK
6
CONTINUOUS
10
140.663
20
-102.286
11
140.66
21
-102.284
0
LINE
8
BLACK
6
CONTINUOUS
10
140.66
20
-102.284
11
140.651
21
-102.283
0
LINE
8
BLACK
6
CONTINUOUS
10
140.651
20
-102.283
11
140.636
21
-102.27
0
LINE
8
BLACK
6
CONTINUOUS
10
140.636
20
-102.27
11
140.619
21
-102.26
0
LINE
8
BLACK
6
CONTINUOUS
10
140.619
20
-102.26
11
140.617
21
-102.254
0
LINE
8
BLACK
6
CONTINUOUS
10
140.617
20
-102.254
11
140.611
21
-102.25
0
LINE
8
BLACK
6
CONTINUOUS
10
140.611
20
-102.25
11
140.608
21
-102.23
0
LINE
8
BLACK
6
CONTINUOUS
10
140.608
20
-102.23
11
140.601
21
-102.212
0
LINE
8
BLACK
6
CONTINUOUS
10
140.601
20
-102.212
11
140.601
21
-101.831
0
LINE
8
BLACK
6
CONTINUOUS
10
140.601
20
-101.831
11
140.606
21
-101.805
0
LINE
8
BLACK
6
CONTINUOUS
10
140.606
20
-101.805
11
140.609
21
-101.802
0
LINE
8
BLACK
6
CONTINUOUS
10
140.609
20
-101.802
11
140.609
21
-101.798
0
LINE
8
BLACK
6
CONTINUOUS
10
140.609
20
-101.798
11
140.657
21
-101.702
0
LINE
8
BLACK
6
CONTINUOUS
10
140.657
20
-101.702
11
140.67
21
-101.684
0
LINE
8
BLACK
6
CONTINUOUS
10
140.67
20
-101.684
11
140.671
21
-101.683
0
LINE
8
BLACK
6
CONTINUOUS
10
140.671
20
-101.683
11
140.719
21
-101.635
0
LINE
8
BLACK
6
CONTINUOUS
10
140.719
20
-101.635
11
140.737
21
-101.622
0
LINE
8
BLACK
6
CONTINUOUS
10
140.737
20
-101.622
11
140.738
21
-101.621
0
LINE
8
BLACK
6
CONTINUOUS
10
140.738
20
-101.621
11
140.833
21
-101.574
0
LINE
8
BLACK
6
CONTINUOUS
10
140.833
20
-101.574
11
140.858
21
-101.566
0
LINE
8
BLACK
6
CONTINUOUS
10
140.858
20
-101.566
11
140.863
21
-101.567
0
LINE
8
BLACK
6
CONTINUOUS
10
140.863
20
-101.567
11
140.867
21
-101.566
0
LINE
8
BLACK
6
CONTINUOUS
10
140.867
20
-101.566
11
141.01
21
-101.566
0
LINE
8
BLACK
6
CONTINUOUS
10
141.01
20
-101.566
11
141.035
21
-101.57
0
LINE
8
BLACK
6
CONTINUOUS
10
140.885
20
-101.716
11
140.816
21
-101.75
0
LINE
8
BLACK
6
CONTINUOUS
10
140.816
20
-101.75
11
140.786
21
-101.78
0
LINE
8
BLACK
6
CONTINUOUS
10
140.786
20
-101.78
11
140.751
21
-101.849
0
LINE
8
BLACK
6
CONTINUOUS
10
140.751
20
-101.849
11
140.751
21
-102.137
0
LINE
8
BLACK
6
CONTINUOUS
10
140.751
20
-102.137
11
141.125
21
-102.137
0
LINE
8
BLACK
6
CONTINUOUS
10
141.125
20
-102.137
11
141.125
21
-101.849
0
LINE
8
BLACK
6
CONTINUOUS
10
141.125
20
-101.849
11
141.091
21
-101.78
0
LINE
8
BLACK
6
CONTINUOUS
10
141.091
20
-101.78
11
141.061
21
-101.75
0
LINE
8
BLACK
6
CONTINUOUS
10
141.061
20
-101.75
11
140.992
21
-101.716
0
LINE
8
BLACK
6
CONTINUOUS
10
140.992
20
-101.716
11
140.885
21
-101.716
0
LINE
8
BLACK
6
CONTINUOUS
10
143.154
20
-101.466
11
143.157
21
-101.469
0
LINE
8
BLACK
6
CONTINUOUS
10
143.157
20
-101.469
11
143.161
21
-101.469
0
LINE
8
BLACK
6
CONTINUOUS
10
143.161
20
-101.469
11
143.257
21
-101.517
0
LINE
8
BLACK
6
CONTINUOUS
10
143.257
20
-101.517
11
143.275
21
-101.53
0
LINE
8
BLACK
6
CONTINUOUS
10
143.275
20
-101.53
11
143.276
21
-101.531
0
LINE
8
BLACK
6
CONTINUOUS
10
143.276
20
-101.531
11
143.324
21
-101.579
0
LINE
8
BLACK
6
CONTINUOUS
10
143.324
20
-101.579
11
143.337
21
-101.597
0
LINE
8
BLACK
6
CONTINUOUS
10
143.337
20
-101.597
11
143.338
21
-101.598
0
LINE
8
BLACK
6
CONTINUOUS
10
143.338
20
-101.598
11
143.385
21
-101.693
0
LINE
8
BLACK
6
CONTINUOUS
10
143.385
20
-101.693
11
143.393
21
-101.718
0
LINE
8
BLACK
6
CONTINUOUS
10
143.393
20
-101.718
11
143.392
21
-101.723
0
LINE
8
BLACK
6
CONTINUOUS
10
143.392
20
-101.723
11
143.393
21
-101.727
0
LINE
8
BLACK
6
CONTINUOUS
10
143.393
20
-101.727
11
143.393
21
-101.917
0
LINE
8
BLACK
6
CONTINUOUS
10
143.393
20
-101.917
11
143.389
21
-101.943
0
LINE
8
BLACK
6
CONTINUOUS
10
143.389
20
-101.943
11
143.386
21
-101.947
0
LINE
8
BLACK
6
CONTINUOUS
10
143.386
20
-101.947
11
143.385
21
-101.951
0
LINE
8
BLACK
6
CONTINUOUS
10
143.385
20
-101.951
11
143.338
21
-102.046
0
LINE
8
BLACK
6
CONTINUOUS
10
143.338
20
-102.046
11
143.324
21
-102.064
0
LINE
8
BLACK
6
CONTINUOUS
10
143.324
20
-102.064
11
143.324
21
-102.066
0
LINE
8
BLACK
6
CONTINUOUS
10
143.324
20
-102.066
11
143.276
21
-102.113
0
LINE
8
BLACK
6
CONTINUOUS
10
143.276
20
-102.113
11
143.258
21
-102.126
0
LINE
8
BLACK
6
CONTINUOUS
10
143.258
20
-102.126
11
143.257
21
-102.127
0
LINE
8
BLACK
6
CONTINUOUS
10
143.257
20
-102.127
11
143.161
21
-102.175
0
LINE
8
BLACK
6
CONTINUOUS
10
143.161
20
-102.175
11
143.136
21
-102.182
0
LINE
8
BLACK
6
CONTINUOUS
10
143.136
20
-102.182
11
143.132
21
-102.181
0
LINE
8
BLACK
6
CONTINUOUS
10
143.132
20
-102.181
11
143.128
21
-102.183
0
LINE
8
BLACK
6
CONTINUOUS
10
143.128
20
-102.183
11
142.318
21
-102.183
0
LINE
8
BLACK
6
CONTINUOUS
10
142.318
20
-102.183
11
142.293
21
-102.178
0
LINE
8
BLACK
6
CONTINUOUS
10
142.293
20
-102.178
11
142.253
21
-102.145
0
LINE
8
BLACK
6
CONTINUOUS
10
142.253
20
-102.145
11
142.245
21
-102.095
0
LINE
8
BLACK
6
CONTINUOUS
10
142.245
20
-102.095
11
142.27
21
-102.05
0
LINE
8
BLACK
6
CONTINUOUS
10
142.27
20
-102.05
11
142.318
21
-102.033
0
LINE
8
BLACK
6
CONTINUOUS
10
142.318
20
-102.033
11
143.11
21
-102.033
0
LINE
8
BLACK
6
CONTINUOUS
10
143.11
20
-102.033
11
143.179
21
-101.999
0
LINE
8
BLACK
6
CONTINUOUS
10
143.179
20
-101.999
11
143.209
21
-101.968
0
LINE
8
BLACK
6
CONTINUOUS
10
143.209
20
-101.968
11
143.243
21
-101.9
0
LINE
8
BLACK
6
CONTINUOUS
10
143.243
20
-101.9
11
143.243
21
-101.745
0
LINE
8
BLACK
6
CONTINUOUS
10
143.243
20
-101.745
11
143.209
21
-101.676
0
LINE
8
BLACK
6
CONTINUOUS
10
143.209
20
-101.676
11
143.179
21
-101.646
0
LINE
8
BLACK
6
CONTINUOUS
10
143.179
20
-101.646
11
143.11
21
-101.611
0
LINE
8
BLACK
6
CONTINUOUS
10
143.11
20
-101.611
11
142.318
21
-101.611
0
LINE
8
BLACK
6
CONTINUOUS
10
142.318
20
-101.611
11
142.293
21
-101.607
0
LINE
8
BLACK
6
CONTINUOUS
10
142.293
20
-101.607
11
142.253
21
-101.574
0
LINE
8
BLACK
6
CONTINUOUS
10
142.253
20
-101.574
11
142.245
21
-101.523
0
LINE
8
BLACK
6
CONTINUOUS
10
142.245
20
-101.523
11
142.27
21
-101.479
0
LINE
8
BLACK
6
CONTINUOUS
10
142.27
20
-101.479
11
142.318
21
-101.461
0
LINE
8
BLACK
6
CONTINUOUS
10
142.318
20
-101.461
11
143.128
21
-101.461
0
LINE
8
BLACK
6
CONTINUOUS
10
143.128
20
-101.461
11
143.154
21
-101.466
0
LINE
8
BLACK
6
CONTINUOUS
10
139.348
20
-101.084
11
139.396
21
-101.131
0
LINE
8
BLACK
6
CONTINUOUS
10
139.396
20
-101.131
11
139.411
21
-101.153
0
LINE
8
BLACK
6
CONTINUOUS
10
139.411
20
-101.153
11
139.411
21
-101.157
0
LINE
8
BLACK
6
CONTINUOUS
10
139.411
20
-101.157
11
139.414
21
-101.161
0
LINE
8
BLACK
6
CONTINUOUS
10
139.414
20
-101.161
11
139.462
21
-101.303
0
LINE
8
BLACK
6
CONTINUOUS
10
139.462
20
-101.303
11
139.465
21
-101.326
0
LINE
8
BLACK
6
CONTINUOUS
10
139.465
20
-101.326
11
139.465
21
-101.327
0
LINE
8
BLACK
6
CONTINUOUS
10
139.465
20
-101.327
11
139.465
21
-101.422
0
LINE
8
BLACK
6
CONTINUOUS
10
139.465
20
-101.422
11
139.461
21
-101.444
0
LINE
8
BLACK
6
CONTINUOUS
10
139.461
20
-101.444
11
139.462
21
-101.446
0
LINE
8
BLACK
6
CONTINUOUS
10
139.462
20
-101.446
11
139.414
21
-101.589
0
LINE
8
BLACK
6
CONTINUOUS
10
139.414
20
-101.589
11
139.402
21
-101.612
0
LINE
8
BLACK
6
CONTINUOUS
10
139.402
20
-101.612
11
139.398
21
-101.614
0
LINE
8
BLACK
6
CONTINUOUS
10
139.398
20
-101.614
11
139.396
21
-101.618
0
LINE
8
BLACK
6
CONTINUOUS
10
139.396
20
-101.618
11
139.301
21
-101.714
0
LINE
8
BLACK
6
CONTINUOUS
10
139.301
20
-101.714
11
139.282
21
-101.726
0
LINE
8
BLACK
6
CONTINUOUS
10
139.282
20
-101.726
11
139.281
21
-101.728
0
LINE
8
BLACK
6
CONTINUOUS
10
139.281
20
-101.728
11
139.186
21
-101.775
0
LINE
8
BLACK
6
CONTINUOUS
10
139.186
20
-101.775
11
139.173
21
-101.779
0
LINE
8
BLACK
6
CONTINUOUS
10
139.173
20
-101.779
11
139.17
21
-101.781
0
LINE
8
BLACK
6
CONTINUOUS
10
139.17
20
-101.781
11
138.98
21
-101.828
0
LINE
8
BLACK
6
CONTINUOUS
10
138.98
20
-101.828
11
138.965
21
-101.83
0
LINE
8
BLACK
6
CONTINUOUS
10
138.965
20
-101.83
11
138.962
21
-101.831
0
LINE
8
BLACK
6
CONTINUOUS
10
138.962
20
-101.831
11
138.819
21
-101.831
0
LINE
8
BLACK
6
CONTINUOUS
10
138.819
20
-101.831
11
138.804
21
-101.828
0
LINE
8
BLACK
6
CONTINUOUS
10
138.804
20
-101.828
11
138.801
21
-101.828
0
LINE
8
BLACK
6
CONTINUOUS
10
138.801
20
-101.828
11
138.61
21
-101.781
0
LINE
8
BLACK
6
CONTINUOUS
10
138.61
20
-101.781
11
138.598
21
-101.776
0
LINE
8
BLACK
6
CONTINUOUS
10
138.598
20
-101.776
11
138.595
21
-101.775
0
LINE
8
BLACK
6
CONTINUOUS
10
138.595
20
-101.775
11
138.5
21
-101.728
0
LINE
8
BLACK
6
CONTINUOUS
10
138.5
20
-101.728
11
138.482
21
-101.714
0
LINE
8
BLACK
6
CONTINUOUS
10
138.482
20
-101.714
11
138.48
21
-101.714
0
LINE
8
BLACK
6
CONTINUOUS
10
138.48
20
-101.714
11
138.385
21
-101.618
0
LINE
8
BLACK
6
CONTINUOUS
10
138.385
20
-101.618
11
138.37
21
-101.597
0
LINE
8
BLACK
6
CONTINUOUS
10
138.37
20
-101.597
11
138.37
21
-101.592
0
LINE
8
BLACK
6
CONTINUOUS
10
138.37
20
-101.592
11
138.367
21
-101.589
0
LINE
8
BLACK
6
CONTINUOUS
10
138.367
20
-101.589
11
138.319
21
-101.446
0
LINE
8
BLACK
6
CONTINUOUS
10
138.319
20
-101.446
11
138.316
21
-101.424
0
LINE
8
BLACK
6
CONTINUOUS
10
138.316
20
-101.424
11
138.315
21
-101.422
0
LINE
8
BLACK
6
CONTINUOUS
10
138.315
20
-101.422
11
138.315
21
-101.327
0
LINE
8
BLACK
6
CONTINUOUS
10
138.315
20
-101.327
11
138.319
21
-101.305
0
LINE
8
BLACK
6
CONTINUOUS
10
138.319
20
-101.305
11
138.319
21
-101.303
0
LINE
8
BLACK
6
CONTINUOUS
10
138.319
20
-101.303
11
138.367
21
-101.161
0
LINE
8
BLACK
6
CONTINUOUS
10
138.367
20
-101.161
11
138.379
21
-101.138
0
LINE
8
BLACK
6
CONTINUOUS
10
138.379
20
-101.138
11
138.383
21
-101.135
0
LINE
8
BLACK
6
CONTINUOUS
10
138.383
20
-101.135
11
138.385
21
-101.131
0
LINE
8
BLACK
6
CONTINUOUS
10
138.385
20
-101.131
11
138.433
21
-101.084
0
LINE
8
BLACK
6
CONTINUOUS
10
138.433
20
-101.084
11
138.454
21
-101.069
0
LINE
8
BLACK
6
CONTINUOUS
10
138.454
20
-101.069
11
138.505
21
-101.064
0
LINE
8
BLACK
6
CONTINUOUS
10
138.505
20
-101.064
11
138.547
21
-101.094
0
LINE
8
BLACK
6
CONTINUOUS
10
138.547
20
-101.094
11
138.56
21
-101.143
0
LINE
8
BLACK
6
CONTINUOUS
10
138.56
20
-101.143
11
138.539
21
-101.19
0
LINE
8
BLACK
6
CONTINUOUS
10
138.539
20
-101.19
11
138.504
21
-101.225
0
LINE
8
BLACK
6
CONTINUOUS
10
138.504
20
-101.225
11
138.465
21
-101.339
0
LINE
8
BLACK
6
CONTINUOUS
10
138.465
20
-101.339
11
138.465
21
-101.41
0
LINE
8
BLACK
6
CONTINUOUS
10
138.465
20
-101.41
11
138.504
21
-101.525
0
LINE
8
BLACK
6
CONTINUOUS
10
138.504
20
-101.525
11
138.578
21
-101.599
0
LINE
8
BLACK
6
CONTINUOUS
10
138.578
20
-101.599
11
138.655
21
-101.637
0
LINE
8
BLACK
6
CONTINUOUS
10
138.655
20
-101.637
11
138.828
21
-101.681
0
LINE
8
BLACK
6
CONTINUOUS
10
138.828
20
-101.681
11
138.953
21
-101.681
0
LINE
8
BLACK
6
CONTINUOUS
10
138.953
20
-101.681
11
139.126
21
-101.637
0
LINE
8
BLACK
6
CONTINUOUS
10
139.126
20
-101.637
11
139.203
21
-101.599
0
LINE
8
BLACK
6
CONTINUOUS
10
139.203
20
-101.599
11
139.277
21
-101.525
0
LINE
8
BLACK
6
CONTINUOUS
10
139.277
20
-101.525
11
139.315
21
-101.41
0
LINE
8
BLACK
6
CONTINUOUS
10
139.315
20
-101.41
11
139.315
21
-101.339
0
LINE
8
BLACK
6
CONTINUOUS
10
139.315
20
-101.339
11
139.277
21
-101.225
0
LINE
8
BLACK
6
CONTINUOUS
10
139.277
20
-101.225
11
139.242
21
-101.19
0
LINE
8
BLACK
6
CONTINUOUS
10
139.242
20
-101.19
11
139.227
21
-101.168
0
LINE
8
BLACK
6
CONTINUOUS
10
139.227
20
-101.168
11
139.223
21
-101.117
0
LINE
8
BLACK
6
CONTINUOUS
10
139.223
20
-101.117
11
139.252
21
-101.075
0
LINE
8
BLACK
6
CONTINUOUS
10
139.252
20
-101.075
11
139.302
21
-101.062
0
LINE
8
BLACK
6
CONTINUOUS
10
139.302
20
-101.062
11
139.348
21
-101.084
0
LINE
8
BLACK
6
CONTINUOUS
10
132.86
20
-100.972
11
132.877
21
-101.02
0
LINE
8
BLACK
6
CONTINUOUS
10
132.877
20
-101.02
11
132.877
21
-101.422
0
LINE
8
BLACK
6
CONTINUOUS
10
132.877
20
-101.422
11
133.204
21
-101.422
0
LINE
8
BLACK
6
CONTINUOUS
10
133.204
20
-101.422
11
133.204
21
-101.163
0
LINE
8
BLACK
6
CONTINUOUS
10
133.204
20
-101.163
11
133.208
21
-101.138
0
LINE
8
BLACK
6
CONTINUOUS
10
133.208
20
-101.138
11
133.241
21
-101.098
0
LINE
8
BLACK
6
CONTINUOUS
10
133.241
20
-101.098
11
133.292
21
-101.089
0
LINE
8
BLACK
6
CONTINUOUS
10
133.292
20
-101.089
11
133.336
21
-101.115
0
LINE
8
BLACK
6
CONTINUOUS
10
133.336
20
-101.115
11
133.354
21
-101.163
0
LINE
8
BLACK
6
CONTINUOUS
10
133.354
20
-101.163
11
133.354
21
-101.422
0
LINE
8
BLACK
6
CONTINUOUS
10
133.354
20
-101.422
11
133.802
21
-101.422
0
LINE
8
BLACK
6
CONTINUOUS
10
133.802
20
-101.422
11
133.828
21
-101.426
0
LINE
8
BLACK
6
CONTINUOUS
10
133.828
20
-101.426
11
133.867
21
-101.459
0
LINE
8
BLACK
6
CONTINUOUS
10
133.867
20
-101.459
11
133.876
21
-101.51
0
LINE
8
BLACK
6
CONTINUOUS
10
133.876
20
-101.51
11
133.851
21
-101.554
0
LINE
8
BLACK
6
CONTINUOUS
10
133.851
20
-101.554
11
133.802
21
-101.572
0
LINE
8
BLACK
6
CONTINUOUS
10
133.802
20
-101.572
11
132.802
21
-101.572
0
LINE
8
BLACK
6
CONTINUOUS
10
132.802
20
-101.572
11
132.793
21
-101.57
0
LINE
8
BLACK
6
CONTINUOUS
10
132.793
20
-101.57
11
132.789
21
-101.571
0
LINE
8
BLACK
6
CONTINUOUS
10
132.789
20
-101.571
11
132.786
21
-101.569
0
LINE
8
BLACK
6
CONTINUOUS
10
132.786
20
-101.569
11
132.777
21
-101.567
0
LINE
8
BLACK
6
CONTINUOUS
10
132.777
20
-101.567
11
132.762
21
-101.555
0
LINE
8
BLACK
6
CONTINUOUS
10
132.762
20
-101.555
11
132.745
21
-101.545
0
LINE
8
BLACK
6
CONTINUOUS
10
132.745
20
-101.545
11
132.743
21
-101.539
0
LINE
8
BLACK
6
CONTINUOUS
10
132.743
20
-101.539
11
132.737
21
-101.534
0
LINE
8
BLACK
6
CONTINUOUS
10
132.737
20
-101.534
11
132.734
21
-101.515
0
LINE
8
BLACK
6
CONTINUOUS
10
132.734
20
-101.515
11
132.727
21
-101.497
0
LINE
8
BLACK
6
CONTINUOUS
10
132.727
20
-101.497
11
132.727
21
-101.02
0
LINE
8
BLACK
6
CONTINUOUS
10
132.727
20
-101.02
11
132.732
21
-100.995
0
LINE
8
BLACK
6
CONTINUOUS
10
132.732
20
-100.995
11
132.765
21
-100.956
0
LINE
8
BLACK
6
CONTINUOUS
10
132.765
20
-100.956
11
132.815
21
-100.947
0
LINE
8
BLACK
6
CONTINUOUS
10
132.815
20
-100.947
11
132.86
21
-100.972
0
LINE
8
BLACK
6
CONTINUOUS
10
151.234
20
-100.719
11
151.236
21
-100.719
0
LINE
8
BLACK
6
CONTINUOUS
10
151.236
20
-100.719
11
151.379
21
-100.767
0
LINE
8
BLACK
6
CONTINUOUS
10
151.379
20
-100.767
11
151.402
21
-100.779
0
LINE
8
BLACK
6
CONTINUOUS
10
151.402
20
-100.779
11
151.404
21
-100.783
0
LINE
8
BLACK
6
CONTINUOUS
10
151.404
20
-100.783
11
151.408
21
-100.785
0
LINE
8
BLACK
6
CONTINUOUS
10
151.408
20
-100.785
11
151.851
21
-101.228
0
LINE
8
BLACK
6
CONTINUOUS
10
151.851
20
-101.228
11
151.851
21
-100.79
0
LINE
8
BLACK
6
CONTINUOUS
10
151.851
20
-100.79
11
151.856
21
-100.765
0
LINE
8
BLACK
6
CONTINUOUS
10
151.856
20
-100.765
11
151.889
21
-100.726
0
LINE
8
BLACK
6
CONTINUOUS
10
151.889
20
-100.726
11
151.939
21
-100.717
0
LINE
8
BLACK
6
CONTINUOUS
10
151.939
20
-100.717
11
151.984
21
-100.742
0
LINE
8
BLACK
6
CONTINUOUS
10
151.984
20
-100.742
11
152.001
21
-100.79
0
LINE
8
BLACK
6
CONTINUOUS
10
152.001
20
-100.79
11
152.001
21
-101.41
0
LINE
8
BLACK
6
CONTINUOUS
10
152.001
20
-101.41
11
151.999
21
-101.426
0
LINE
8
BLACK
6
CONTINUOUS
10
151.999
20
-101.426
11
151.999
21
-101.429
0
LINE
8
BLACK
6
CONTINUOUS
10
151.999
20
-101.429
11
151.998
21
-101.431
0
LINE
8
BLACK
6
CONTINUOUS
10
151.998
20
-101.431
11
151.997
21
-101.435
0
LINE
8
BLACK
6
CONTINUOUS
10
151.997
20
-101.435
11
151.982
21
-101.452
0
LINE
8
BLACK
6
CONTINUOUS
10
151.982
20
-101.452
11
151.969
21
-101.471
0
LINE
8
BLACK
6
CONTINUOUS
10
151.969
20
-101.471
11
151.966
21
-101.472
0
LINE
8
BLACK
6
CONTINUOUS
10
151.966
20
-101.472
11
151.964
21
-101.474
0
LINE
8
BLACK
6
CONTINUOUS
10
151.964
20
-101.474
11
151.942
21
-101.478
0
LINE
8
BLACK
6
CONTINUOUS
10
151.942
20
-101.478
11
151.92
21
-101.484
0
LINE
8
BLACK
6
CONTINUOUS
10
151.92
20
-101.484
11
151.917
21
-101.483
0
LINE
8
BLACK
6
CONTINUOUS
10
151.917
20
-101.483
11
151.913
21
-101.483
0
LINE
8
BLACK
6
CONTINUOUS
10
151.913
20
-101.483
11
151.894
21
-101.472
0
LINE
8
BLACK
6
CONTINUOUS
10
151.894
20
-101.472
11
151.873
21
-101.463
0
LINE
8
BLACK
6
CONTINUOUS
10
151.873
20
-101.463
11
151.314
21
-100.904
0
LINE
8
BLACK
6
CONTINUOUS
10
151.314
20
-100.904
11
151.2
21
-100.865
0
LINE
8
BLACK
6
CONTINUOUS
10
151.2
20
-100.865
11
151.135
21
-100.865
0
LINE
8
BLACK
6
CONTINUOUS
10
151.135
20
-100.865
11
151.066
21
-100.9
0
LINE
8
BLACK
6
CONTINUOUS
10
151.066
20
-100.9
11
151.036
21
-100.93
0
LINE
8
BLACK
6
CONTINUOUS
10
151.036
20
-100.93
11
151.001
21
-100.999
0
LINE
8
BLACK
6
CONTINUOUS
10
151.001
20
-100.999
11
151.001
21
-101.201
0
LINE
8
BLACK
6
CONTINUOUS
10
151.001
20
-101.201
11
151.036
21
-101.27
0
LINE
8
BLACK
6
CONTINUOUS
10
151.036
20
-101.27
11
151.075
21
-101.309
0
LINE
8
BLACK
6
CONTINUOUS
10
151.075
20
-101.309
11
151.09
21
-101.33
0
LINE
8
BLACK
6
CONTINUOUS
10
151.09
20
-101.33
11
151.094
21
-101.381
0
LINE
8
BLACK
6
CONTINUOUS
10
151.094
20
-101.381
11
151.065
21
-101.423
0
LINE
8
BLACK
6
CONTINUOUS
10
151.065
20
-101.423
11
151.015
21
-101.437
0
LINE
8
BLACK
6
CONTINUOUS
10
151.015
20
-101.437
11
150.969
21
-101.415
0
LINE
8
BLACK
6
CONTINUOUS
10
150.969
20
-101.415
11
150.921
21
-101.367
0
LINE
8
BLACK
6
CONTINUOUS
10
150.921
20
-101.367
11
150.908
21
-101.349
0
LINE
8
BLACK
6
CONTINUOUS
10
150.908
20
-101.349
11
150.907
21
-101.348
0
LINE
8
BLACK
6
CONTINUOUS
10
150.907
20
-101.348
11
150.859
21
-101.253
0
LINE
8
BLACK
6
CONTINUOUS
10
150.859
20
-101.253
11
150.852
21
-101.228
0
LINE
8
BLACK
6
CONTINUOUS
10
150.852
20
-101.228
11
150.853
21
-101.223
0
LINE
8
BLACK
6
CONTINUOUS
10
150.853
20
-101.223
11
150.851
21
-101.219
0
LINE
8
BLACK
6
CONTINUOUS
10
150.851
20
-101.219
11
150.851
21
-100.981
0
LINE
8
BLACK
6
CONTINUOUS
10
150.851
20
-100.981
11
150.856
21
-100.955
0
LINE
8
BLACK
6
CONTINUOUS
10
150.856
20
-100.955
11
150.859
21
-100.952
0
LINE
8
BLACK
6
CONTINUOUS
10
150.859
20
-100.952
11
150.859
21
-100.947
0
LINE
8
BLACK
6
CONTINUOUS
10
150.859
20
-100.947
11
150.907
21
-100.852
0
LINE
8
BLACK
6
CONTINUOUS
10
150.907
20
-100.852
11
150.92
21
-100.834
0
LINE
8
BLACK
6
CONTINUOUS
10
150.92
20
-100.834
11
150.921
21
-100.833
0
LINE
8
BLACK
6
CONTINUOUS
10
150.921
20
-100.833
11
150.969
21
-100.785
0
LINE
8
BLACK
6
CONTINUOUS
10
150.969
20
-100.785
11
150.987
21
-100.772
0
LINE
8
BLACK
6
CONTINUOUS
10
150.987
20
-100.772
11
150.988
21
-100.771
0
LINE
8
BLACK
6
CONTINUOUS
10
150.988
20
-100.771
11
151.083
21
-100.723
0
LINE
8
BLACK
6
CONTINUOUS
10
151.083
20
-100.723
11
151.108
21
-100.716
0
LINE
8
BLACK
6
CONTINUOUS
10
151.108
20
-100.716
11
151.113
21
-100.717
0
LINE
8
BLACK
6
CONTINUOUS
10
151.113
20
-100.717
11
151.117
21
-100.715
0
LINE
8
BLACK
6
CONTINUOUS
10
151.117
20
-100.715
11
151.212
21
-100.715
0
LINE
8
BLACK
6
CONTINUOUS
10
151.212
20
-100.715
11
151.234
21
-100.719
0
LINE
8
BLACK
6
CONTINUOUS
10
141.734
20
-100.64
11
141.751
21
-100.688
0
LINE
8
BLACK
6
CONTINUOUS
10
141.751
20
-100.688
11
141.751
21
-101.26
0
LINE
8
BLACK
6
CONTINUOUS
10
141.751
20
-101.26
11
141.747
21
-101.285
0
LINE
8
BLACK
6
CONTINUOUS
10
141.747
20
-101.285
11
141.714
21
-101.325
0
LINE
8
BLACK
6
CONTINUOUS
10
141.714
20
-101.325
11
141.663
21
-101.334
0
LINE
8
BLACK
6
CONTINUOUS
10
141.663
20
-101.334
11
141.619
21
-101.308
0
LINE
8
BLACK
6
CONTINUOUS
10
141.619
20
-101.308
11
141.601
21
-101.26
0
LINE
8
BLACK
6
CONTINUOUS
10
141.601
20
-101.26
11
141.601
21
-101.049
0
LINE
8
BLACK
6
CONTINUOUS
10
141.601
20
-101.049
11
140.905
21
-101.049
0
LINE
8
BLACK
6
CONTINUOUS
10
140.905
20
-101.049
11
140.968
21
-101.111
0
LINE
8
BLACK
6
CONTINUOUS
10
140.968
20
-101.111
11
140.98
21
-101.13
0
LINE
8
BLACK
6
CONTINUOUS
10
140.98
20
-101.13
11
140.982
21
-101.131
0
LINE
8
BLACK
6
CONTINUOUS
10
140.982
20
-101.131
11
141.029
21
-101.226
0
LINE
8
BLACK
6
CONTINUOUS
10
141.029
20
-101.226
11
141.037
21
-101.251
0
LINE
8
BLACK
6
CONTINUOUS
10
141.037
20
-101.251
11
141.025
21
-101.301
0
LINE
8
BLACK
6
CONTINUOUS
10
141.025
20
-101.301
11
140.983
21
-101.332
0
LINE
8
BLACK
6
CONTINUOUS
10
140.983
20
-101.332
11
140.932
21
-101.329
0
LINE
8
BLACK
6
CONTINUOUS
10
140.932
20
-101.329
11
140.895
21
-101.293
0
LINE
8
BLACK
6
CONTINUOUS
10
140.895
20
-101.293
11
140.853
21
-101.209
0
LINE
8
BLACK
6
CONTINUOUS
10
140.853
20
-101.209
11
140.771
21
-101.128
0
LINE
8
BLACK
6
CONTINUOUS
10
140.771
20
-101.128
11
140.635
21
-101.036
0
LINE
8
BLACK
6
CONTINUOUS
10
140.635
20
-101.036
11
140.616
21
-101.018
0
LINE
8
BLACK
6
CONTINUOUS
10
140.616
20
-101.018
11
140.615
21
-101.014
0
LINE
8
BLACK
6
CONTINUOUS
10
140.615
20
-101.014
11
140.611
21
-101.011
0
LINE
8
BLACK
6
CONTINUOUS
10
140.611
20
-101.011
11
140.608
21
-100.99
0
LINE
8
BLACK
6
CONTINUOUS
10
140.608
20
-100.99
11
140.602
21
-100.969
0
LINE
8
BLACK
6
CONTINUOUS
10
140.602
20
-100.969
11
140.603
21
-100.965
0
LINE
8
BLACK
6
CONTINUOUS
10
140.603
20
-100.965
11
140.603
21
-100.961
0
LINE
8
BLACK
6
CONTINUOUS
10
140.603
20
-100.961
11
140.613
21
-100.942
0
LINE
8
BLACK
6
CONTINUOUS
10
140.613
20
-100.942
11
140.622
21
-100.922
0
LINE
8
BLACK
6
CONTINUOUS
10
140.622
20
-100.922
11
140.626
21
-100.92
0
LINE
8
BLACK
6
CONTINUOUS
10
140.626
20
-100.92
11
140.628
21
-100.917
0
LINE
8
BLACK
6
CONTINUOUS
10
140.628
20
-100.917
11
140.649
21
-100.909
0
LINE
8
BLACK
6
CONTINUOUS
10
140.649
20
-100.909
11
140.668
21
-100.899
0
LINE
8
BLACK
6
CONTINUOUS
10
140.668
20
-100.899
11
140.672
21
-100.9
0
LINE
8
BLACK
6
CONTINUOUS
10
140.672
20
-100.9
11
140.676
21
-100.899
0
LINE
8
BLACK
6
CONTINUOUS
10
140.676
20
-100.899
11
141.601
21
-100.899
0
LINE
8
BLACK
6
CONTINUOUS
10
141.601
20
-100.899
11
141.601
21
-100.688
0
LINE
8
BLACK
6
CONTINUOUS
10
141.601
20
-100.688
11
141.606
21
-100.663
0
LINE
8
BLACK
6
CONTINUOUS
10
141.606
20
-100.663
11
141.639
21
-100.623
0
LINE
8
BLACK
6
CONTINUOUS
10
141.639
20
-100.623
11
141.689
21
-100.614
0
LINE
8
BLACK
6
CONTINUOUS
10
141.689
20
-100.614
11
141.734
21
-100.64
0
LINE
8
BLACK
6
CONTINUOUS
10
143.376
20
-100.488
11
143.393
21
-100.536
0
LINE
8
BLACK
6
CONTINUOUS
10
143.393
20
-100.536
11
143.393
21
-101.108
0
LINE
8
BLACK
6
CONTINUOUS
10
143.393
20
-101.108
11
143.389
21
-101.134
0
LINE
8
BLACK
6
CONTINUOUS
10
143.389
20
-101.134
11
143.356
21
-101.173
0
LINE
8
BLACK
6
CONTINUOUS
10
143.356
20
-101.173
11
143.305
21
-101.182
0
LINE
8
BLACK
6
CONTINUOUS
10
143.305
20
-101.182
11
143.261
21
-101.156
0
LINE
8
BLACK
6
CONTINUOUS
10
143.261
20
-101.156
11
143.243
21
-101.108
0
LINE
8
BLACK
6
CONTINUOUS
10
143.243
20
-101.108
11
143.243
21
-100.897
0
LINE
8
BLACK
6
CONTINUOUS
10
143.243
20
-100.897
11
142.547
21
-100.897
0
LINE
8
BLACK
6
CONTINUOUS
10
142.547
20
-100.897
11
142.61
21
-100.96
0
LINE
8
BLACK
6
CONTINUOUS
10
142.61
20
-100.96
11
142.622
21
-100.978
0
LINE
8
BLACK
6
CONTINUOUS
10
142.622
20
-100.978
11
142.624
21
-100.979
0
LINE
8
BLACK
6
CONTINUOUS
10
142.624
20
-100.979
11
142.671
21
-101.074
0
LINE
8
BLACK
6
CONTINUOUS
10
142.671
20
-101.074
11
142.679
21
-101.099
0
LINE
8
BLACK
6
CONTINUOUS
10
142.679
20
-101.099
11
142.667
21
-101.149
0
LINE
8
BLACK
6
CONTINUOUS
10
142.667
20
-101.149
11
142.625
21
-101.18
0
LINE
8
BLACK
6
CONTINUOUS
10
142.625
20
-101.18
11
142.574
21
-101.177
0
LINE
8
BLACK
6
CONTINUOUS
10
142.574
20
-101.177
11
142.537
21
-101.141
0
LINE
8
BLACK
6
CONTINUOUS
10
142.537
20
-101.141
11
142.495
21
-101.057
0
LINE
8
BLACK
6
CONTINUOUS
10
142.495
20
-101.057
11
142.413
21
-100.976
0
LINE
8
BLACK
6
CONTINUOUS
10
142.413
20
-100.976
11
142.277
21
-100.885
0
LINE
8
BLACK
6
CONTINUOUS
10
142.277
20
-100.885
11
142.258
21
-100.867
0
LINE
8
BLACK
6
CONTINUOUS
10
142.258
20
-100.867
11
142.257
21
-100.862
0
LINE
8
BLACK
6
CONTINUOUS
10
142.257
20
-100.862
11
142.253
21
-100.86
0
LINE
8
BLACK
6
CONTINUOUS
10
142.253
20
-100.86
11
142.25
21
-100.838
0
LINE
8
BLACK
6
CONTINUOUS
10
142.25
20
-100.838
11
142.244
21
-100.817
0
LINE
8
BLACK
6
CONTINUOUS
10
142.244
20
-100.817
11
142.245
21
-100.813
0
LINE
8
BLACK
6
CONTINUOUS
10
142.245
20
-100.813
11
142.245
21
-100.809
0
LINE
8
BLACK
6
CONTINUOUS
10
142.245
20
-100.809
11
142.255
21
-100.79
0
LINE
8
BLACK
6
CONTINUOUS
10
142.255
20
-100.79
11
142.264
21
-100.77
0
LINE
8
BLACK
6
CONTINUOUS
10
142.264
20
-100.77
11
142.268
21
-100.768
0
LINE
8
BLACK
6
CONTINUOUS
10
142.268
20
-100.768
11
142.27
21
-100.765
0
LINE
8
BLACK
6
CONTINUOUS
10
142.27
20
-100.765
11
142.291
21
-100.757
0
LINE
8
BLACK
6
CONTINUOUS
10
142.291
20
-100.757
11
142.31
21
-100.748
0
LINE
8
BLACK
6
CONTINUOUS
10
142.31
20
-100.748
11
142.314
21
-100.749
0
LINE
8
BLACK
6
CONTINUOUS
10
142.314
20
-100.749
11
142.318
21
-100.747
0
LINE
8
BLACK
6
CONTINUOUS
10
142.318
20
-100.747
11
143.243
21
-100.747
0
LINE
8
BLACK
6
CONTINUOUS
10
143.243
20
-100.747
11
143.243
21
-100.536
0
LINE
8
BLACK
6
CONTINUOUS
10
143.243
20
-100.536
11
143.248
21
-100.511
0
LINE
8
BLACK
6
CONTINUOUS
10
143.248
20
-100.511
11
143.281
21
-100.472
0
LINE
8
BLACK
6
CONTINUOUS
10
143.281
20
-100.472
11
143.331
21
-100.463
0
LINE
8
BLACK
6
CONTINUOUS
10
143.331
20
-100.463
11
143.376
21
-100.488
0
LINE
8
BLACK
6
CONTINUOUS
10
136.078
20
-100.848
11
136.096
21
-100.89
0
LINE
8
BLACK
6
CONTINUOUS
10
136.096
20
-100.89
11
136.078
21
-100.932
0
LINE
8
BLACK
6
CONTINUOUS
10
136.078
20
-100.932
11
136.036
21
-100.95
0
LINE
8
BLACK
6
CONTINUOUS
10
136.036
20
-100.95
11
135.236
21
-100.95
0
LINE
8
BLACK
6
CONTINUOUS
10
135.236
20
-100.95
11
135.194
21
-100.932
0
LINE
8
BLACK
6
CONTINUOUS
10
135.194
20
-100.932
11
135.176
21
-100.89
0
LINE
8
BLACK
6
CONTINUOUS
10
135.176
20
-100.89
11
135.194
21
-100.848
0
LINE
8
BLACK
6
CONTINUOUS
10
135.194
20
-100.848
11
135.236
21
-100.83
0
LINE
8
BLACK
6
CONTINUOUS
10
135.236
20
-100.83
11
136.036
21
-100.83
0
LINE
8
BLACK
6
CONTINUOUS
10
136.036
20
-100.83
11
136.078
21
-100.848
0
LINE
8
BLACK
6
CONTINUOUS
10
139.226
20
-100.114
11
139.229
21
-100.117
0
LINE
8
BLACK
6
CONTINUOUS
10
139.229
20
-100.117
11
139.233
21
-100.117
0
LINE
8
BLACK
6
CONTINUOUS
10
139.233
20
-100.117
11
139.329
21
-100.165
0
LINE
8
BLACK
6
CONTINUOUS
10
139.329
20
-100.165
11
139.347
21
-100.178
0
LINE
8
BLACK
6
CONTINUOUS
10
139.347
20
-100.178
11
139.348
21
-100.179
0
LINE
8
BLACK
6
CONTINUOUS
10
139.348
20
-100.179
11
139.396
21
-100.226
0
LINE
8
BLACK
6
CONTINUOUS
10
139.396
20
-100.226
11
139.409
21
-100.245
0
LINE
8
BLACK
6
CONTINUOUS
10
139.409
20
-100.245
11
139.41
21
-100.246
0
LINE
8
BLACK
6
CONTINUOUS
10
139.41
20
-100.246
11
139.457
21
-100.341
0
LINE
8
BLACK
6
CONTINUOUS
10
139.457
20
-100.341
11
139.465
21
-100.366
0
LINE
8
BLACK
6
CONTINUOUS
10
139.465
20
-100.366
11
139.464
21
-100.371
0
LINE
8
BLACK
6
CONTINUOUS
10
139.464
20
-100.371
11
139.465
21
-100.375
0
LINE
8
BLACK
6
CONTINUOUS
10
139.465
20
-100.375
11
139.465
21
-100.613
0
LINE
8
BLACK
6
CONTINUOUS
10
139.465
20
-100.613
11
139.461
21
-100.639
0
LINE
8
BLACK
6
CONTINUOUS
10
139.461
20
-100.639
11
139.458
21
-100.642
0
LINE
8
BLACK
6
CONTINUOUS
10
139.458
20
-100.642
11
139.457
21
-100.646
0
LINE
8
BLACK
6
CONTINUOUS
10
139.457
20
-100.646
11
139.41
21
-100.742
0
LINE
8
BLACK
6
CONTINUOUS
10
139.41
20
-100.742
11
139.396
21
-100.76
0
LINE
8
BLACK
6
CONTINUOUS
10
139.396
20
-100.76
11
139.396
21
-100.761
0
LINE
8
BLACK
6
CONTINUOUS
10
139.396
20
-100.761
11
139.348
21
-100.809
0
LINE
8
BLACK
6
CONTINUOUS
10
139.348
20
-100.809
11
139.327
21
-100.824
0
LINE
8
BLACK
6
CONTINUOUS
10
139.327
20
-100.824
11
139.276
21
-100.828
0
LINE
8
BLACK
6
CONTINUOUS
10
139.276
20
-100.828
11
139.234
21
-100.799
0
LINE
8
BLACK
6
CONTINUOUS
10
139.234
20
-100.799
11
139.22
21
-100.749
0
LINE
8
BLACK
6
CONTINUOUS
10
139.22
20
-100.749
11
139.242
21
-100.703
0
LINE
8
BLACK
6
CONTINUOUS
10
139.242
20
-100.703
11
139.281
21
-100.664
0
LINE
8
BLACK
6
CONTINUOUS
10
139.281
20
-100.664
11
139.315
21
-100.595
0
LINE
8
BLACK
6
CONTINUOUS
10
139.315
20
-100.595
11
139.315
21
-100.392
0
LINE
8
BLACK
6
CONTINUOUS
10
139.315
20
-100.392
11
139.281
21
-100.324
0
LINE
8
BLACK
6
CONTINUOUS
10
139.281
20
-100.324
11
139.251
21
-100.294
0
LINE
8
BLACK
6
CONTINUOUS
10
139.251
20
-100.294
11
139.182
21
-100.259
0
LINE
8
BLACK
6
CONTINUOUS
10
139.182
20
-100.259
11
138.98
21
-100.259
0
LINE
8
BLACK
6
CONTINUOUS
10
138.98
20
-100.259
11
138.911
21
-100.294
0
LINE
8
BLACK
6
CONTINUOUS
10
138.911
20
-100.294
11
138.881
21
-100.324
0
LINE
8
BLACK
6
CONTINUOUS
10
138.881
20
-100.324
11
138.846
21
-100.392
0
LINE
8
BLACK
6
CONTINUOUS
10
138.846
20
-100.392
11
138.846
21
-100.595
0
LINE
8
BLACK
6
CONTINUOUS
10
138.846
20
-100.595
11
138.881
21
-100.664
0
LINE
8
BLACK
6
CONTINUOUS
10
138.881
20
-100.664
11
138.92
21
-100.703
0
LINE
8
BLACK
6
CONTINUOUS
10
138.92
20
-100.703
11
138.935
21
-100.724
0
LINE
8
BLACK
6
CONTINUOUS
10
138.935
20
-100.724
11
138.935
21
-100.725
0
LINE
8
BLACK
6
CONTINUOUS
10
138.935
20
-100.725
11
138.935
21
-100.725
0
LINE
8
BLACK
6
CONTINUOUS
10
138.935
20
-100.725
11
138.937
21
-100.75
0
LINE
8
BLACK
6
CONTINUOUS
10
138.937
20
-100.75
11
138.939
21
-100.775
0
LINE
8
BLACK
6
CONTINUOUS
10
138.939
20
-100.775
11
138.939
21
-100.776
0
LINE
8
BLACK
6
CONTINUOUS
10
138.939
20
-100.776
11
138.939
21
-100.776
0
LINE
8
BLACK
6
CONTINUOUS
10
138.939
20
-100.776
11
138.924
21
-100.797
0
LINE
8
BLACK
6
CONTINUOUS
10
138.924
20
-100.797
11
138.91
21
-100.817
0
LINE
8
BLACK
6
CONTINUOUS
10
138.91
20
-100.817
11
138.909
21
-100.817
0
LINE
8
BLACK
6
CONTINUOUS
10
138.909
20
-100.817
11
138.909
21
-100.818
0
LINE
8
BLACK
6
CONTINUOUS
10
138.909
20
-100.818
11
138.884
21
-100.824
0
LINE
8
BLACK
6
CONTINUOUS
10
138.884
20
-100.824
11
138.86
21
-100.83
0
LINE
8
BLACK
6
CONTINUOUS
10
138.86
20
-100.83
11
138.86
21
-100.83
0
LINE
8
BLACK
6
CONTINUOUS
10
138.86
20
-100.83
11
138.859
21
-100.83
0
LINE
8
BLACK
6
CONTINUOUS
10
138.859
20
-100.83
11
138.383
21
-100.783
0
LINE
8
BLACK
6
CONTINUOUS
10
138.383
20
-100.783
11
138.379
21
-100.782
0
LINE
8
BLACK
6
CONTINUOUS
10
138.379
20
-100.782
11
138.377
21
-100.782
0
LINE
8
BLACK
6
CONTINUOUS
10
138.377
20
-100.782
11
138.375
21
-100.78
0
LINE
8
BLACK
6
CONTINUOUS
10
138.375
20
-100.78
11
138.358
21
-100.776
0
LINE
8
BLACK
6
CONTINUOUS
10
138.358
20
-100.776
11
138.347
21
-100.764
0
LINE
8
BLACK
6
CONTINUOUS
10
138.347
20
-100.764
11
138.333
21
-100.756
0
LINE
8
BLACK
6
CONTINUOUS
10
138.333
20
-100.756
11
138.329
21
-100.746
0
LINE
8
BLACK
6
CONTINUOUS
10
138.329
20
-100.746
11
138.322
21
-100.739
0
LINE
8
BLACK
6
CONTINUOUS
10
138.322
20
-100.739
11
138.321
21
-100.723
0
LINE
8
BLACK
6
CONTINUOUS
10
138.321
20
-100.723
11
138.315
21
-100.708
0
LINE
8
BLACK
6
CONTINUOUS
10
138.315
20
-100.708
11
138.315
21
-100.232
0
LINE
8
BLACK
6
CONTINUOUS
10
138.315
20
-100.232
11
138.32
21
-100.206
0
LINE
8
BLACK
6
CONTINUOUS
10
138.32
20
-100.206
11
138.353
21
-100.167
0
LINE
8
BLACK
6
CONTINUOUS
10
138.353
20
-100.167
11
138.403
21
-100.158
0
LINE
8
BLACK
6
CONTINUOUS
10
138.403
20
-100.158
11
138.448
21
-100.184
0
LINE
8
BLACK
6
CONTINUOUS
10
138.448
20
-100.184
11
138.465
21
-100.232
0
LINE
8
BLACK
6
CONTINUOUS
10
138.465
20
-100.232
11
138.465
21
-100.64
0
LINE
8
BLACK
6
CONTINUOUS
10
138.465
20
-100.64
11
138.714
21
-100.665
0
LINE
8
BLACK
6
CONTINUOUS
10
138.714
20
-100.665
11
138.704
21
-100.646
0
LINE
8
BLACK
6
CONTINUOUS
10
138.704
20
-100.646
11
138.697
21
-100.621
0
LINE
8
BLACK
6
CONTINUOUS
10
138.697
20
-100.621
11
138.698
21
-100.617
0
LINE
8
BLACK
6
CONTINUOUS
10
138.698
20
-100.617
11
138.696
21
-100.613
0
LINE
8
BLACK
6
CONTINUOUS
10
138.696
20
-100.613
11
138.696
21
-100.375
0
LINE
8
BLACK
6
CONTINUOUS
10
138.696
20
-100.375
11
138.701
21
-100.349
0
LINE
8
BLACK
6
CONTINUOUS
10
138.701
20
-100.349
11
138.704
21
-100.346
0
LINE
8
BLACK
6
CONTINUOUS
10
138.704
20
-100.346
11
138.704
21
-100.341
0
LINE
8
BLACK
6
CONTINUOUS
10
138.704
20
-100.341
11
138.752
21
-100.246
0
LINE
8
BLACK
6
CONTINUOUS
10
138.752
20
-100.246
11
138.765
21
-100.228
0
LINE
8
BLACK
6
CONTINUOUS
10
138.765
20
-100.228
11
138.766
21
-100.226
0
LINE
8
BLACK
6
CONTINUOUS
10
138.766
20
-100.226
11
138.814
21
-100.179
0
LINE
8
BLACK
6
CONTINUOUS
10
138.814
20
-100.179
11
138.832
21
-100.166
0
LINE
8
BLACK
6
CONTINUOUS
10
138.832
20
-100.166
11
138.833
21
-100.165
0
LINE
8
BLACK
6
CONTINUOUS
10
138.833
20
-100.165
11
138.928
21
-100.117
0
LINE
8
BLACK
6
CONTINUOUS
10
138.928
20
-100.117
11
138.953
21
-100.11
0
LINE
8
BLACK
6
CONTINUOUS
10
138.953
20
-100.11
11
138.958
21
-100.111
0
LINE
8
BLACK
6
CONTINUOUS
10
138.958
20
-100.111
11
138.962
21
-100.109
0
LINE
8
BLACK
6
CONTINUOUS
10
138.962
20
-100.109
11
139.2
21
-100.109
0
LINE
8
BLACK
6
CONTINUOUS
10
139.2
20
-100.109
11
139.226
21
-100.114
0
LINE
8
BLACK
6
CONTINUOUS
10
133.638
20
-99.9976
11
133.641
21
-100.001
0
LINE
8
BLACK
6
CONTINUOUS
10
133.641
20
-100.001
11
133.645
21
-100.001
0
LINE
8
BLACK
6
CONTINUOUS
10
133.645
20
-100.001
11
133.741
21
-100.049
0
LINE
8
BLACK
6
CONTINUOUS
10
133.741
20
-100.049
11
133.759
21
-100.062
0
LINE
8
BLACK
6
CONTINUOUS
10
133.759
20
-100.062
11
133.76
21
-100.063
0
LINE
8
BLACK
6
CONTINUOUS
10
133.76
20
-100.063
11
133.808
21
-100.11
0
LINE
8
BLACK
6
CONTINUOUS
10
133.808
20
-100.11
11
133.821
21
-100.129
0
LINE
8
BLACK
6
CONTINUOUS
10
133.821
20
-100.129
11
133.822
21
-100.13
0
LINE
8
BLACK
6
CONTINUOUS
10
133.822
20
-100.13
11
133.869
21
-100.225
0
LINE
8
BLACK
6
CONTINUOUS
10
133.869
20
-100.225
11
133.877
21
-100.25
0
LINE
8
BLACK
6
CONTINUOUS
10
133.877
20
-100.25
11
133.876
21
-100.254
0
LINE
8
BLACK
6
CONTINUOUS
10
133.876
20
-100.254
11
133.877
21
-100.259
0
LINE
8
BLACK
6
CONTINUOUS
10
133.877
20
-100.259
11
133.877
21
-100.64
0
LINE
8
BLACK
6
CONTINUOUS
10
133.877
20
-100.64
11
133.876
21
-100.649
0
LINE
8
BLACK
6
CONTINUOUS
10
133.876
20
-100.649
11
133.876
21
-100.653
0
LINE
8
BLACK
6
CONTINUOUS
10
133.876
20
-100.653
11
133.875
21
-100.655
0
LINE
8
BLACK
6
CONTINUOUS
10
133.875
20
-100.655
11
133.873
21
-100.665
0
LINE
8
BLACK
6
CONTINUOUS
10
133.873
20
-100.665
11
133.86
21
-100.68
0
LINE
8
BLACK
6
CONTINUOUS
10
133.86
20
-100.68
11
133.851
21
-100.697
0
LINE
8
BLACK
6
CONTINUOUS
10
133.851
20
-100.697
11
133.844
21
-100.699
0
LINE
8
BLACK
6
CONTINUOUS
10
133.844
20
-100.699
11
133.84
21
-100.704
0
LINE
8
BLACK
6
CONTINUOUS
10
133.84
20
-100.704
11
133.821
21
-100.708
0
LINE
8
BLACK
6
CONTINUOUS
10
133.821
20
-100.708
11
133.802
21
-100.715
0
LINE
8
BLACK
6
CONTINUOUS
10
133.802
20
-100.715
11
132.802
21
-100.715
0
LINE
8
BLACK
6
CONTINUOUS
10
132.802
20
-100.715
11
132.793
21
-100.713
0
LINE
8
BLACK
6
CONTINUOUS
10
132.793
20
-100.713
11
132.789
21
-100.713
0
LINE
8
BLACK
6
CONTINUOUS
10
132.789
20
-100.713
11
132.786
21
-100.712
0
LINE
8
BLACK
6
CONTINUOUS
10
132.786
20
-100.712
11
132.777
21
-100.71
0
LINE
8
BLACK
6
CONTINUOUS
10
132.777
20
-100.71
11
132.762
21
-100.697
0
LINE
8
BLACK
6
CONTINUOUS
10
132.762
20
-100.697
11
132.745
21
-100.688
0
LINE
8
BLACK
6
CONTINUOUS
10
132.745
20
-100.688
11
132.743
21
-100.681
0
LINE
8
BLACK
6
CONTINUOUS
10
132.743
20
-100.681
11
132.737
21
-100.677
0
LINE
8
BLACK
6
CONTINUOUS
10
132.737
20
-100.677
11
132.734
21
-100.658
0
LINE
8
BLACK
6
CONTINUOUS
10
132.734
20
-100.658
11
132.727
21
-100.64
0
LINE
8
BLACK
6
CONTINUOUS
10
132.727
20
-100.64
11
132.727
21
-100.306
0
LINE
8
BLACK
6
CONTINUOUS
10
132.727
20
-100.306
11
132.732
21
-100.281
0
LINE
8
BLACK
6
CONTINUOUS
10
132.732
20
-100.281
11
132.735
21
-100.277
0
LINE
8
BLACK
6
CONTINUOUS
10
132.735
20
-100.277
11
132.735
21
-100.273
0
LINE
8
BLACK
6
CONTINUOUS
10
132.735
20
-100.273
11
132.783
21
-100.177
0
LINE
8
BLACK
6
CONTINUOUS
10
132.783
20
-100.177
11
132.796
21
-100.159
0
LINE
8
BLACK
6
CONTINUOUS
10
132.796
20
-100.159
11
132.797
21
-100.158
0
LINE
8
BLACK
6
CONTINUOUS
10
132.797
20
-100.158
11
132.845
21
-100.11
0
LINE
8
BLACK
6
CONTINUOUS
10
132.845
20
-100.11
11
132.863
21
-100.097
0
LINE
8
BLACK
6
CONTINUOUS
10
132.863
20
-100.097
11
132.864
21
-100.096
0
LINE
8
BLACK
6
CONTINUOUS
10
132.864
20
-100.096
11
132.959
21
-100.049
0
LINE
8
BLACK
6
CONTINUOUS
10
132.959
20
-100.049
11
132.984
21
-100.041
0
LINE
8
BLACK
6
CONTINUOUS
10
132.984
20
-100.041
11
132.989
21
-100.042
0
LINE
8
BLACK
6
CONTINUOUS
10
132.989
20
-100.042
11
132.993
21
-100.041
0
LINE
8
BLACK
6
CONTINUOUS
10
132.993
20
-100.041
11
133.088
21
-100.041
0
LINE
8
BLACK
6
CONTINUOUS
10
133.088
20
-100.041
11
133.114
21
-100.045
0
LINE
8
BLACK
6
CONTINUOUS
10
133.114
20
-100.045
11
133.117
21
-100.048
0
LINE
8
BLACK
6
CONTINUOUS
10
133.117
20
-100.048
11
133.122
21
-100.049
0
LINE
8
BLACK
6
CONTINUOUS
10
133.122
20
-100.049
11
133.217
21
-100.096
0
LINE
8
BLACK
6
CONTINUOUS
10
133.217
20
-100.096
11
133.235
21
-100.11
0
LINE
8
BLACK
6
CONTINUOUS
10
133.235
20
-100.11
11
133.236
21
-100.11
0
LINE
8
BLACK
6
CONTINUOUS
10
133.236
20
-100.11
11
133.259
21
-100.133
0
LINE
8
BLACK
6
CONTINUOUS
10
133.259
20
-100.133
11
133.267
21
-100.117
0
LINE
8
BLACK
6
CONTINUOUS
10
133.267
20
-100.117
11
133.271
21
-100.114
0
LINE
8
BLACK
6
CONTINUOUS
10
133.271
20
-100.114
11
133.273
21
-100.11
0
LINE
8
BLACK
6
CONTINUOUS
10
133.273
20
-100.11
11
133.321
21
-100.063
0
LINE
8
BLACK
6
CONTINUOUS
10
133.321
20
-100.063
11
133.339
21
-100.05
0
LINE
8
BLACK
6
CONTINUOUS
10
133.339
20
-100.05
11
133.34
21
-100.049
0
LINE
8
BLACK
6
CONTINUOUS
10
133.34
20
-100.049
11
133.436
21
-100.001
0
LINE
8
BLACK
6
CONTINUOUS
10
133.436
20
-100.001
11
133.46
21
-99.9936
0
LINE
8
BLACK
6
CONTINUOUS
10
133.46
20
-99.9936
11
133.465
21
-99.9946
0
LINE
8
BLACK
6
CONTINUOUS
10
133.465
20
-99.9946
11
133.469
21
-99.9931
0
LINE
8
BLACK
6
CONTINUOUS
10
133.469
20
-99.9931
11
133.612
21
-99.9931
0
LINE
8
BLACK
6
CONTINUOUS
10
133.612
20
-99.9931
11
133.638
21
-99.9976
0
LINE
8
BLACK
6
CONTINUOUS
10
133.011
20
-100.191
11
132.942
21
-100.225
0
LINE
8
BLACK
6
CONTINUOUS
10
132.942
20
-100.225
11
132.912
21
-100.255
0
LINE
8
BLACK
6
CONTINUOUS
10
132.912
20
-100.255
11
132.877
21
-100.324
0
LINE
8
BLACK
6
CONTINUOUS
10
132.877
20
-100.324
11
132.877
21
-100.565
0
LINE
8
BLACK
6
CONTINUOUS
10
132.877
20
-100.565
11
133.204
21
-100.565
0
LINE
8
BLACK
6
CONTINUOUS
10
133.204
20
-100.565
11
133.204
21
-100.324
0
LINE
8
BLACK
6
CONTINUOUS
10
133.204
20
-100.324
11
133.169
21
-100.255
0
LINE
8
BLACK
6
CONTINUOUS
10
133.169
20
-100.255
11
133.139
21
-100.225
0
LINE
8
BLACK
6
CONTINUOUS
10
133.139
20
-100.225
11
133.07
21
-100.191
0
LINE
8
BLACK
6
CONTINUOUS
10
133.07
20
-100.191
11
133.011
21
-100.191
0
LINE
8
BLACK
6
CONTINUOUS
10
133.487
20
-100.143
11
133.418
21
-100.177
0
LINE
8
BLACK
6
CONTINUOUS
10
133.418
20
-100.177
11
133.392
21
-100.204
0
LINE
8
BLACK
6
CONTINUOUS
10
133.392
20
-100.204
11
133.354
21
-100.318
0
LINE
8
BLACK
6
CONTINUOUS
10
133.354
20
-100.318
11
133.354
21
-100.565
0
LINE
8
BLACK
6
CONTINUOUS
10
133.354
20
-100.565
11
133.727
21
-100.565
0
LINE
8
BLACK
6
CONTINUOUS
10
133.727
20
-100.565
11
133.727
21
-100.276
0
LINE
8
BLACK
6
CONTINUOUS
10
133.727
20
-100.276
11
133.693
21
-100.208
0
LINE
8
BLACK
6
CONTINUOUS
10
133.693
20
-100.208
11
133.663
21
-100.177
0
LINE
8
BLACK
6
CONTINUOUS
10
133.663
20
-100.177
11
133.594
21
-100.143
0
LINE
8
BLACK
6
CONTINUOUS
10
133.594
20
-100.143
11
133.487
21
-100.143
0
LINE
8
BLACK
6
CONTINUOUS
10
159.414
20
-99.6816
11
159.462
21
-99.7293
0
LINE
8
BLACK
6
CONTINUOUS
10
159.462
20
-99.7293
11
159.477
21
-99.7506
0
LINE
8
BLACK
6
CONTINUOUS
10
159.477
20
-99.7506
11
159.477
21
-99.7551
0
LINE
8
BLACK
6
CONTINUOUS
10
159.477
20
-99.7551
11
159.48
21
-99.7586
0
LINE
8
BLACK
6
CONTINUOUS
10
159.48
20
-99.7586
11
159.528
21
-99.9014
0
LINE
8
BLACK
6
CONTINUOUS
10
159.528
20
-99.9014
11
159.531
21
-99.9236
0
LINE
8
BLACK
6
CONTINUOUS
10
159.531
20
-99.9236
11
159.531
21
-99.9251
0
LINE
8
BLACK
6
CONTINUOUS
10
159.531
20
-99.9251
11
159.531
21
-100.02
0
LINE
8
BLACK
6
CONTINUOUS
10
159.531
20
-100.02
11
159.527
21
-100.042
0
LINE
8
BLACK
6
CONTINUOUS
10
159.527
20
-100.042
11
159.528
21
-100.044
0
LINE
8
BLACK
6
CONTINUOUS
10
159.528
20
-100.044
11
159.48
21
-100.187
0
LINE
8
BLACK
6
CONTINUOUS
10
159.48
20
-100.187
11
159.468
21
-100.21
0
LINE
8
BLACK
6
CONTINUOUS
10
159.468
20
-100.21
11
159.464
21
-100.212
0
LINE
8
BLACK
6
CONTINUOUS
10
159.464
20
-100.212
11
159.462
21
-100.216
0
LINE
8
BLACK
6
CONTINUOUS
10
159.462
20
-100.216
11
159.367
21
-100.312
0
LINE
8
BLACK
6
CONTINUOUS
10
159.367
20
-100.312
11
159.348
21
-100.324
0
LINE
8
BLACK
6
CONTINUOUS
10
159.348
20
-100.324
11
159.347
21
-100.326
0
LINE
8
BLACK
6
CONTINUOUS
10
159.347
20
-100.326
11
159.252
21
-100.373
0
LINE
8
BLACK
6
CONTINUOUS
10
159.252
20
-100.373
11
159.239
21
-100.377
0
LINE
8
BLACK
6
CONTINUOUS
10
159.239
20
-100.377
11
159.236
21
-100.379
0
LINE
8
BLACK
6
CONTINUOUS
10
159.236
20
-100.379
11
159.046
21
-100.426
0
LINE
8
BLACK
6
CONTINUOUS
10
159.046
20
-100.426
11
159.031
21
-100.428
0
LINE
8
BLACK
6
CONTINUOUS
10
159.031
20
-100.428
11
159.028
21
-100.429
0
LINE
8
BLACK
6
CONTINUOUS
10
159.028
20
-100.429
11
158.885
21
-100.429
0
LINE
8
BLACK
6
CONTINUOUS
10
158.885
20
-100.429
11
158.87
21
-100.426
0
LINE
8
BLACK
6
CONTINUOUS
10
158.87
20
-100.426
11
158.867
21
-100.426
0
LINE
8
BLACK
6
CONTINUOUS
10
158.867
20
-100.426
11
158.676
21
-100.379
0
LINE
8
BLACK
6
CONTINUOUS
10
158.676
20
-100.379
11
158.664
21
-100.374
0
LINE
8
BLACK
6
CONTINUOUS
10
158.664
20
-100.374
11
158.661
21
-100.373
0
LINE
8
BLACK
6
CONTINUOUS
10
158.661
20
-100.373
11
158.566
21
-100.326
0
LINE
8
BLACK
6
CONTINUOUS
10
158.566
20
-100.326
11
158.548
21
-100.312
0
LINE
8
BLACK
6
CONTINUOUS
10
158.548
20
-100.312
11
158.546
21
-100.312
0
LINE
8
BLACK
6
CONTINUOUS
10
158.546
20
-100.312
11
158.451
21
-100.216
0
LINE
8
BLACK
6
CONTINUOUS
10
158.451
20
-100.216
11
158.436
21
-100.195
0
LINE
8
BLACK
6
CONTINUOUS
10
158.436
20
-100.195
11
158.436
21
-100.19
0
LINE
8
BLACK
6
CONTINUOUS
10
158.436
20
-100.19
11
158.433
21
-100.187
0
LINE
8
BLACK
6
CONTINUOUS
10
158.433
20
-100.187
11
158.385
21
-100.044
0
LINE
8
BLACK
6
CONTINUOUS
10
158.385
20
-100.044
11
158.382
21
-100.022
0
LINE
8
BLACK
6
CONTINUOUS
10
158.382
20
-100.022
11
158.381
21
-100.02
0
LINE
8
BLACK
6
CONTINUOUS
10
158.381
20
-100.02
11
158.381
21
-99.9251
0
LINE
8
BLACK
6
CONTINUOUS
10
158.381
20
-99.9251
11
158.385
21
-99.9031
0
LINE
8
BLACK
6
CONTINUOUS
10
158.385
20
-99.9031
11
158.385
21
-99.9014
0
LINE
8
BLACK
6
CONTINUOUS
10
158.385
20
-99.9014
11
158.433
21
-99.7586
0
LINE
8
BLACK
6
CONTINUOUS
10
158.433
20
-99.7586
11
158.445
21
-99.7357
0
LINE
8
BLACK
6
CONTINUOUS
10
158.445
20
-99.7357
11
158.449
21
-99.7333
0
LINE
8
BLACK
6
CONTINUOUS
10
158.449
20
-99.7333
11
158.451
21
-99.7293
0
LINE
8
BLACK
6
CONTINUOUS
10
158.451
20
-99.7293
11
158.499
21
-99.6816
0
LINE
8
BLACK
6
CONTINUOUS
10
158.499
20
-99.6816
11
158.52
21
-99.6667
0
LINE
8
BLACK
6
CONTINUOUS
10
158.52
20
-99.6667
11
158.571
21
-99.6622
0
LINE
8
BLACK
6
CONTINUOUS
10
158.571
20
-99.6622
11
158.613
21
-99.6916
0
LINE
8
BLACK
6
CONTINUOUS
10
158.613
20
-99.6916
11
158.626
21
-99.7412
0
LINE
8
BLACK
6
CONTINUOUS
10
158.626
20
-99.7412
11
158.605
21
-99.7877
0
LINE
8
BLACK
6
CONTINUOUS
10
158.605
20
-99.7877
11
158.57
21
-99.8228
0
LINE
8
BLACK
6
CONTINUOUS
10
158.57
20
-99.8228
11
158.531
21
-99.9373
0
LINE
8
BLACK
6
CONTINUOUS
10
158.531
20
-99.9373
11
158.531
21
-100.008
0
LINE
8
BLACK
6
CONTINUOUS
10
158.531
20
-100.008
11
158.57
21
-100.123
0
LINE
8
BLACK
6
CONTINUOUS
10
158.57
20
-100.123
11
158.644
21
-100.197
0
LINE
8
BLACK
6
CONTINUOUS
10
158.644
20
-100.197
11
158.721
21
-100.235
0
LINE
8
BLACK
6
CONTINUOUS
10
158.721
20
-100.235
11
158.894
21
-100.279
0
LINE
8
BLACK
6
CONTINUOUS
10
158.894
20
-100.279
11
159.019
21
-100.279
0
LINE
8
BLACK
6
CONTINUOUS
10
159.019
20
-100.279
11
159.192
21
-100.235
0
LINE
8
BLACK
6
CONTINUOUS
10
159.192
20
-100.235
11
159.269
21
-100.197
0
LINE
8
BLACK
6
CONTINUOUS
10
159.269
20
-100.197
11
159.343
21
-100.123
0
LINE
8
BLACK
6
CONTINUOUS
10
159.343
20
-100.123
11
159.381
21
-100.008
0
LINE
8
BLACK
6
CONTINUOUS
10
159.381
20
-100.008
11
159.381
21
-99.9373
0
LINE
8
BLACK
6
CONTINUOUS
10
159.381
20
-99.9373
11
159.343
21
-99.8228
0
LINE
8
BLACK
6
CONTINUOUS
10
159.343
20
-99.8228
11
159.308
21
-99.7877
0
LINE
8
BLACK
6
CONTINUOUS
10
159.308
20
-99.7877
11
159.293
21
-99.7664
0
LINE
8
BLACK
6
CONTINUOUS
10
159.293
20
-99.7664
11
159.289
21
-99.7153
0
LINE
8
BLACK
6
CONTINUOUS
10
159.289
20
-99.7153
11
159.318
21
-99.6732
0
LINE
8
BLACK
6
CONTINUOUS
10
159.318
20
-99.6732
11
159.368
21
-99.66
0
LINE
8
BLACK
6
CONTINUOUS
10
159.368
20
-99.66
11
159.414
21
-99.6816
0
LINE
8
BLACK
6
CONTINUOUS
10
136.078
20
-99.7276
11
136.096
21
-99.77
0
LINE
8
BLACK
6
CONTINUOUS
10
136.096
20
-99.77
11
136.078
21
-99.8124
0
LINE
8
BLACK
6
CONTINUOUS
10
136.078
20
-99.8124
11
136.036
21
-99.83
0
LINE
8
BLACK
6
CONTINUOUS
10
136.036
20
-99.83
11
135.236
21
-99.83
0
LINE
8
BLACK
6
CONTINUOUS
10
135.236
20
-99.83
11
135.194
21
-99.8124
0
LINE
8
BLACK
6
CONTINUOUS
10
135.194
20
-99.8124
11
135.176
21
-99.77
0
LINE
8
BLACK
6
CONTINUOUS
10
135.176
20
-99.77
11
135.194
21
-99.7276
0
LINE
8
BLACK
6
CONTINUOUS
10
135.194
20
-99.7276
11
135.236
21
-99.71
0
LINE
8
BLACK
6
CONTINUOUS
10
135.236
20
-99.71
11
136.036
21
-99.71
0
LINE
8
BLACK
6
CONTINUOUS
10
136.036
20
-99.71
11
136.078
21
-99.7276
0
LINE
8
BLACK
6
CONTINUOUS
10
158.032
20
-99.385
11
158.05
21
-99.4274
0
LINE
8
BLACK
6
CONTINUOUS
10
158.05
20
-99.4274
11
158.05
21
-99.7086
0
LINE
8
BLACK
6
CONTINUOUS
10
158.05
20
-99.7086
11
158.032
21
-99.751
0
LINE
8
BLACK
6
CONTINUOUS
10
158.032
20
-99.751
11
157.99
21
-99.7686
0
LINE
8
BLACK
6
CONTINUOUS
10
157.99
20
-99.7686
11
157.948
21
-99.751
0
LINE
8
BLACK
6
CONTINUOUS
10
157.948
20
-99.751
11
157.93
21
-99.7086
0
LINE
8
BLACK
6
CONTINUOUS
10
157.93
20
-99.7086
11
157.93
21
-99.4274
0
LINE
8
BLACK
6
CONTINUOUS
10
157.93
20
-99.4274
11
157.948
21
-99.385
0
LINE
8
BLACK
6
CONTINUOUS
10
157.948
20
-99.385
11
157.99
21
-99.3674
0
LINE
8
BLACK
6
CONTINUOUS
10
157.99
20
-99.3674
11
158.032
21
-99.385
0
LINE
8
BLACK
6
CONTINUOUS
10
157.012
20
-99.385
11
157.03
21
-99.4274
0
LINE
8
BLACK
6
CONTINUOUS
10
157.03
20
-99.4274
11
157.03
21
-99.7086
0
LINE
8
BLACK
6
CONTINUOUS
10
157.03
20
-99.7086
11
157.012
21
-99.751
0
LINE
8
BLACK
6
CONTINUOUS
10
157.012
20
-99.751
11
156.97
21
-99.7686
0
LINE
8
BLACK
6
CONTINUOUS
10
156.97
20
-99.7686
11
156.928
21
-99.751
0
LINE
8
BLACK
6
CONTINUOUS
10
156.928
20
-99.751
11
156.91
21
-99.7086
0
LINE
8
BLACK
6
CONTINUOUS
10
156.91
20
-99.7086
11
156.91
21
-99.4274
0
LINE
8
BLACK
6
CONTINUOUS
10
156.91
20
-99.4274
11
156.928
21
-99.385
0
LINE
8
BLACK
6
CONTINUOUS
10
156.928
20
-99.385
11
156.97
21
-99.3674
0
LINE
8
BLACK
6
CONTINUOUS
10
156.97
20
-99.3674
11
157.012
21
-99.385
0
LINE
8
BLACK
6
CONTINUOUS
10
133.86
20
-99.0675
11
133.877
21
-99.1157
0
LINE
8
BLACK
6
CONTINUOUS
10
133.877
20
-99.1157
11
133.877
21
-99.6871
0
LINE
8
BLACK
6
CONTINUOUS
10
133.877
20
-99.6871
11
133.873
21
-99.7128
0
LINE
8
BLACK
6
CONTINUOUS
10
133.873
20
-99.7128
11
133.84
21
-99.7521
0
LINE
8
BLACK
6
CONTINUOUS
10
133.84
20
-99.7521
11
133.789
21
-99.761
0
LINE
8
BLACK
6
CONTINUOUS
10
133.789
20
-99.761
11
133.745
21
-99.7354
0
LINE
8
BLACK
6
CONTINUOUS
10
133.745
20
-99.7354
11
133.727
21
-99.6871
0
LINE
8
BLACK
6
CONTINUOUS
10
133.727
20
-99.6871
11
133.727
21
-99.4764
0
LINE
8
BLACK
6
CONTINUOUS
10
133.727
20
-99.4764
11
133.031
21
-99.4764
0
LINE
8
BLACK
6
CONTINUOUS
10
133.031
20
-99.4764
11
133.094
21
-99.5389
0
LINE
8
BLACK
6
CONTINUOUS
10
133.094
20
-99.5389
11
133.106
21
-99.5572
0
LINE
8
BLACK
6
CONTINUOUS
10
133.106
20
-99.5572
11
133.108
21
-99.5584
0
LINE
8
BLACK
6
CONTINUOUS
10
133.108
20
-99.5584
11
133.155
21
-99.6536
0
LINE
8
BLACK
6
CONTINUOUS
10
133.155
20
-99.6536
11
133.163
21
-99.6786
0
LINE
8
BLACK
6
CONTINUOUS
10
133.163
20
-99.6786
11
133.151
21
-99.7285
0
LINE
8
BLACK
6
CONTINUOUS
10
133.151
20
-99.7285
11
133.109
21
-99.759
0
LINE
8
BLACK
6
CONTINUOUS
10
133.109
20
-99.759
11
133.058
21
-99.756
0
LINE
8
BLACK
6
CONTINUOUS
10
133.058
20
-99.756
11
133.021
21
-99.7207
0
LINE
8
BLACK
6
CONTINUOUS
10
133.021
20
-99.7207
11
132.979
21
-99.6363
0
LINE
8
BLACK
6
CONTINUOUS
10
132.979
20
-99.6363
11
132.897
21
-99.5549
0
LINE
8
BLACK
6
CONTINUOUS
10
132.897
20
-99.5549
11
132.761
21
-99.4638
0
LINE
8
BLACK
6
CONTINUOUS
10
132.761
20
-99.4638
11
132.742
21
-99.4458
0
LINE
8
BLACK
6
CONTINUOUS
10
132.742
20
-99.4458
11
132.741
21
-99.4417
0
LINE
8
BLACK
6
CONTINUOUS
10
132.741
20
-99.4417
11
132.737
21
-99.4389
0
LINE
8
BLACK
6
CONTINUOUS
10
132.737
20
-99.4389
11
132.734
21
-99.4175
0
LINE
8
BLACK
6
CONTINUOUS
10
132.734
20
-99.4175
11
132.728
21
-99.3966
0
LINE
8
BLACK
6
CONTINUOUS
10
132.728
20
-99.3966
11
132.729
21
-99.3927
0
LINE
8
BLACK
6
CONTINUOUS
10
132.729
20
-99.3927
11
132.729
21
-99.3884
0
LINE
8
BLACK
6
CONTINUOUS
10
132.729
20
-99.3884
11
132.739
21
-99.3696
0
LINE
8
BLACK
6
CONTINUOUS
10
132.739
20
-99.3696
11
132.748
21
-99.3496
0
LINE
8
BLACK
6
CONTINUOUS
10
132.748
20
-99.3496
11
132.752
21
-99.3477
0
LINE
8
BLACK
6
CONTINUOUS
10
132.752
20
-99.3477
11
132.754
21
-99.344
0
LINE
8
BLACK
6
CONTINUOUS
10
132.754
20
-99.344
11
132.775
21
-99.3365
0
LINE
8
BLACK
6
CONTINUOUS
10
132.775
20
-99.3365
11
132.794
21
-99.3269
0
LINE
8
BLACK
6
CONTINUOUS
10
132.794
20
-99.3269
11
132.798
21
-99.3279
0
LINE
8
BLACK
6
CONTINUOUS
10
132.798
20
-99.3279
11
132.802
21
-99.3264
0
LINE
8
BLACK
6
CONTINUOUS
10
132.802
20
-99.3264
11
133.727
21
-99.3264
0
LINE
8
BLACK
6
CONTINUOUS
10
133.727
20
-99.3264
11
133.727
21
-99.1157
0
LINE
8
BLACK
6
CONTINUOUS
10
133.727
20
-99.1157
11
133.732
21
-99.0901
0
LINE
8
BLACK
6
CONTINUOUS
10
133.732
20
-99.0901
11
133.765
21
-99.0508
0
LINE
8
BLACK
6
CONTINUOUS
10
133.765
20
-99.0508
11
133.815
21
-99.0419
0
LINE
8
BLACK
6
CONTINUOUS
10
133.815
20
-99.0419
11
133.86
21
-99.0675
0
LINE
8
BLACK
6
CONTINUOUS
10
158.72
20
-98.7118
11
158.724
21
-98.7147
0
LINE
8
BLACK
6
CONTINUOUS
10
158.724
20
-98.7147
11
158.728
21
-98.7152
0
LINE
8
BLACK
6
CONTINUOUS
10
158.728
20
-98.7152
11
158.823
21
-98.7628
0
LINE
8
BLACK
6
CONTINUOUS
10
158.823
20
-98.7628
11
158.841
21
-98.7762
0
LINE
8
BLACK
6
CONTINUOUS
10
158.841
20
-98.7762
11
158.843
21
-98.7769
0
LINE
8
BLACK
6
CONTINUOUS
10
158.843
20
-98.7769
11
158.885
21
-98.8191
0
LINE
8
BLACK
6
CONTINUOUS
10
158.885
20
-98.8191
11
158.927
21
-98.7769
0
LINE
8
BLACK
6
CONTINUOUS
10
158.927
20
-98.7769
11
158.946
21
-98.764
0
LINE
8
BLACK
6
CONTINUOUS
10
158.946
20
-98.764
11
158.947
21
-98.7628
0
LINE
8
BLACK
6
CONTINUOUS
10
158.947
20
-98.7628
11
159.042
21
-98.7152
0
LINE
8
BLACK
6
CONTINUOUS
10
159.042
20
-98.7152
11
159.067
21
-98.7078
0
LINE
8
BLACK
6
CONTINUOUS
10
159.067
20
-98.7078
11
159.071
21
-98.7088
0
LINE
8
BLACK
6
CONTINUOUS
10
159.071
20
-98.7088
11
159.075
21
-98.7073
0
LINE
8
BLACK
6
CONTINUOUS
10
159.075
20
-98.7073
11
159.266
21
-98.7073
0
LINE
8
BLACK
6
CONTINUOUS
10
159.266
20
-98.7073
11
159.292
21
-98.7118
0
LINE
8
BLACK
6
CONTINUOUS
10
159.292
20
-98.7118
11
159.295
21
-98.7147
0
LINE
8
BLACK
6
CONTINUOUS
10
159.295
20
-98.7147
11
159.299
21
-98.7152
0
LINE
8
BLACK
6
CONTINUOUS
10
159.299
20
-98.7152
11
159.395
21
-98.7628
0
LINE
8
BLACK
6
CONTINUOUS
10
159.395
20
-98.7628
11
159.413
21
-98.7762
0
LINE
8
BLACK
6
CONTINUOUS
10
159.413
20
-98.7762
11
159.414
21
-98.7769
0
LINE
8
BLACK
6
CONTINUOUS
10
159.414
20
-98.7769
11
159.462
21
-98.8245
0
LINE
8
BLACK
6
CONTINUOUS
10
159.462
20
-98.8245
11
159.475
21
-98.8429
0
LINE
8
BLACK
6
CONTINUOUS
10
159.475
20
-98.8429
11
159.476
21
-98.844
0
LINE
8
BLACK
6
CONTINUOUS
10
159.476
20
-98.844
11
159.523
21
-98.9392
0
LINE
8
BLACK
6
CONTINUOUS
10
159.523
20
-98.9392
11
159.531
21
-98.9642
0
LINE
8
BLACK
6
CONTINUOUS
10
159.531
20
-98.9642
11
159.53
21
-98.9685
0
LINE
8
BLACK
6
CONTINUOUS
10
159.53
20
-98.9685
11
159.531
21
-98.9728
0
LINE
8
BLACK
6
CONTINUOUS
10
159.531
20
-98.9728
11
159.531
21
-99.1632
0
LINE
8
BLACK
6
CONTINUOUS
10
159.531
20
-99.1632
11
159.527
21
-99.1889
0
LINE
8
BLACK
6
CONTINUOUS
10
159.527
20
-99.1889
11
159.524
21
-99.1923
0
LINE
8
BLACK
6
CONTINUOUS
10
159.524
20
-99.1923
11
159.523
21
-99.1968
0
LINE
8
BLACK
6
CONTINUOUS
10
159.523
20
-99.1968
11
159.476
21
-99.292
0
LINE
8
BLACK
6
CONTINUOUS
10
159.476
20
-99.292
11
159.462
21
-99.31
0
LINE
8
BLACK
6
CONTINUOUS
10
159.462
20
-99.31
11
159.462
21
-99.3115
0
LINE
8
BLACK
6
CONTINUOUS
10
159.462
20
-99.3115
11
159.414
21
-99.3591
0
LINE
8
BLACK
6
CONTINUOUS
10
159.414
20
-99.3591
11
159.396
21
-99.372
0
LINE
8
BLACK
6
CONTINUOUS
10
159.396
20
-99.372
11
159.395
21
-99.3732
0
LINE
8
BLACK
6
CONTINUOUS
10
159.395
20
-99.3732
11
159.299
21
-99.4208
0
LINE
8
BLACK
6
CONTINUOUS
10
159.299
20
-99.4208
11
159.274
21
-99.4282
0
LINE
8
BLACK
6
CONTINUOUS
10
159.274
20
-99.4282
11
159.27
21
-99.4272
0
LINE
8
BLACK
6
CONTINUOUS
10
159.27
20
-99.4272
11
159.266
21
-99.4287
0
LINE
8
BLACK
6
CONTINUOUS
10
159.266
20
-99.4287
11
159.075
21
-99.4287
0
LINE
8
BLACK
6
CONTINUOUS
10
159.075
20
-99.4287
11
159.05
21
-99.4242
0
LINE
8
BLACK
6
CONTINUOUS
10
159.05
20
-99.4242
11
159.046
21
-99.4213
0
LINE
8
BLACK
6
CONTINUOUS
10
159.046
20
-99.4213
11
159.042
21
-99.4208
0
LINE
8
BLACK
6
CONTINUOUS
10
159.042
20
-99.4208
11
158.947
21
-99.3732
0
LINE
8
BLACK
6
CONTINUOUS
10
158.947
20
-99.3732
11
158.929
21
-99.3598
0
LINE
8
BLACK
6
CONTINUOUS
10
158.929
20
-99.3598
11
158.927
21
-99.3591
0
LINE
8
BLACK
6
CONTINUOUS
10
158.927
20
-99.3591
11
158.885
21
-99.3169
0
LINE
8
BLACK
6
CONTINUOUS
10
158.885
20
-99.3169
11
158.843
21
-99.3591
0
LINE
8
BLACK
6
CONTINUOUS
10
158.843
20
-99.3591
11
158.824
21
-99.372
0
LINE
8
BLACK
6
CONTINUOUS
10
158.824
20
-99.372
11
158.823
21
-99.3732
0
LINE
8
BLACK
6
CONTINUOUS
10
158.823
20
-99.3732
11
158.728
21
-99.4208
0
LINE
8
BLACK
6
CONTINUOUS
10
158.728
20
-99.4208
11
158.703
21
-99.4282
0
LINE
8
BLACK
6
CONTINUOUS
10
158.703
20
-99.4282
11
158.699
21
-99.4272
0
LINE
8
BLACK
6
CONTINUOUS
10
158.699
20
-99.4272
11
158.694
21
-99.4287
0
LINE
8
BLACK
6
CONTINUOUS
10
158.694
20
-99.4287
11
158.647
21
-99.4287
0
LINE
8
BLACK
6
CONTINUOUS
10
158.647
20
-99.4287
11
158.621
21
-99.4242
0
LINE
8
BLACK
6
CONTINUOUS
10
158.621
20
-99.4242
11
158.618
21
-99.4213
0
LINE
8
BLACK
6
CONTINUOUS
10
158.618
20
-99.4213
11
158.613
21
-99.4208
0
LINE
8
BLACK
6
CONTINUOUS
10
158.613
20
-99.4208
11
158.518
21
-99.3732
0
LINE
8
BLACK
6
CONTINUOUS
10
158.518
20
-99.3732
11
158.5
21
-99.3598
0
LINE
8
BLACK
6
CONTINUOUS
10
158.5
20
-99.3598
11
158.499
21
-99.3591
0
LINE
8
BLACK
6
CONTINUOUS
10
158.499
20
-99.3591
11
158.451
21
-99.3115
0
LINE
8
BLACK
6
CONTINUOUS
10
158.451
20
-99.3115
11
158.438
21
-99.2931
0
LINE
8
BLACK
6
CONTINUOUS
10
158.438
20
-99.2931
11
158.437
21
-99.292
0
LINE
8
BLACK
6
CONTINUOUS
10
158.437
20
-99.292
11
158.389
21
-99.1968
0
LINE
8
BLACK
6
CONTINUOUS
10
158.389
20
-99.1968
11
158.382
21
-99.1718
0
LINE
8
BLACK
6
CONTINUOUS
10
158.382
20
-99.1718
11
158.383
21
-99.1675
0
LINE
8
BLACK
6
CONTINUOUS
10
158.383
20
-99.1675
11
158.381
21
-99.1632
0
LINE
8
BLACK
6
CONTINUOUS
10
158.381
20
-99.1632
11
158.381
21
-98.9728
0
LINE
8
BLACK
6
CONTINUOUS
10
158.381
20
-98.9728
11
158.386
21
-98.9471
0
LINE
8
BLACK
6
CONTINUOUS
10
158.386
20
-98.9471
11
158.389
21
-98.9437
0
LINE
8
BLACK
6
CONTINUOUS
10
158.389
20
-98.9437
11
158.389
21
-98.9392
0
LINE
8
BLACK
6
CONTINUOUS
10
158.389
20
-98.9392
11
158.437
21
-98.844
0
LINE
8
BLACK
6
CONTINUOUS
10
158.437
20
-98.844
11
158.45
21
-98.826
0
LINE
8
BLACK
6
CONTINUOUS
10
158.45
20
-98.826
11
158.451
21
-98.8245
0
LINE
8
BLACK
6
CONTINUOUS
10
158.451
20
-98.8245
11
158.499
21
-98.7769
0
LINE
8
BLACK
6
CONTINUOUS
10
158.499
20
-98.7769
11
158.517
21
-98.764
0
LINE
8
BLACK
6
CONTINUOUS
10
158.517
20
-98.764
11
158.518
21
-98.7628
0
LINE
8
BLACK
6
CONTINUOUS
10
158.518
20
-98.7628
11
158.613
21
-98.7152
0
LINE
8
BLACK
6
CONTINUOUS
10
158.613
20
-98.7152
11
158.638
21
-98.7078
0
LINE
8
BLACK
6
CONTINUOUS
10
158.638
20
-98.7078
11
158.643
21
-98.7088
0
LINE
8
BLACK
6
CONTINUOUS
10
158.643
20
-98.7088
11
158.647
21
-98.7073
0
LINE
8
BLACK
6
CONTINUOUS
10
158.647
20
-98.7073
11
158.694
21
-98.7073
0
LINE
8
BLACK
6
CONTINUOUS
10
158.694
20
-98.7073
11
158.72
21
-98.7118
0
LINE
8
BLACK
6
CONTINUOUS
10
159.093
20
-98.8573
11
159.025
21
-98.8915
0
LINE
8
BLACK
6
CONTINUOUS
10
159.025
20
-98.8915
11
158.994
21
-98.9219
0
LINE
8
BLACK
6
CONTINUOUS
10
158.994
20
-98.9219
11
158.96
21
-98.9905
0
LINE
8
BLACK
6
CONTINUOUS
10
158.96
20
-98.9905
11
158.96
21
-99.1455
0
LINE
8
BLACK
6
CONTINUOUS
10
158.96
20
-99.1455
11
158.994
21
-99.214
0
LINE
8
BLACK
6
CONTINUOUS
10
158.994
20
-99.214
11
159.025
21
-99.2445
0
LINE
8
BLACK
6
CONTINUOUS
10
159.025
20
-99.2445
11
159.093
21
-99.2787
0
LINE
8
BLACK
6
CONTINUOUS
10
159.093
20
-99.2787
11
159.248
21
-99.2787
0
LINE
8
BLACK
6
CONTINUOUS
10
159.248
20
-99.2787
11
159.317
21
-99.2445
0
LINE
8
BLACK
6
CONTINUOUS
10
159.317
20
-99.2445
11
159.347
21
-99.214
0
LINE
8
BLACK
6
CONTINUOUS
10
159.347
20
-99.214
11
159.381
21
-99.1455
0
LINE
8
BLACK
6
CONTINUOUS
10
159.381
20
-99.1455
11
159.381
21
-98.9905
0
LINE
8
BLACK
6
CONTINUOUS
10
159.381
20
-98.9905
11
159.347
21
-98.9219
0
LINE
8
BLACK
6
CONTINUOUS
10
159.347
20
-98.9219
11
159.317
21
-98.8915
0
LINE
8
BLACK
6
CONTINUOUS
10
159.317
20
-98.8915
11
159.248
21
-98.8573
0
LINE
8
BLACK
6
CONTINUOUS
10
159.248
20
-98.8573
11
159.093
21
-98.8573
0
LINE
8
BLACK
6
CONTINUOUS
10
158.665
20
-98.8573
11
158.596
21
-98.8915
0
LINE
8
BLACK
6
CONTINUOUS
10
158.596
20
-98.8915
11
158.566
21
-98.9219
0
LINE
8
BLACK
6
CONTINUOUS
10
158.566
20
-98.9219
11
158.531
21
-98.9905
0
LINE
8
BLACK
6
CONTINUOUS
10
158.531
20
-98.9905
11
158.531
21
-99.1455
0
LINE
8
BLACK
6
CONTINUOUS
10
158.531
20
-99.1455
11
158.566
21
-99.214
0
LINE
8
BLACK
6
CONTINUOUS
10
158.566
20
-99.214
11
158.596
21
-99.2445
0
LINE
8
BLACK
6
CONTINUOUS
10
158.596
20
-99.2445
11
158.665
21
-99.2787
0
LINE
8
BLACK
6
CONTINUOUS
10
158.665
20
-99.2787
11
158.677
21
-99.2787
0
LINE
8
BLACK
6
CONTINUOUS
10
158.677
20
-99.2787
11
158.745
21
-99.2445
0
LINE
8
BLACK
6
CONTINUOUS
10
158.745
20
-99.2445
11
158.776
21
-99.214
0
LINE
8
BLACK
6
CONTINUOUS
10
158.776
20
-99.214
11
158.81
21
-99.1455
0
LINE
8
BLACK
6
CONTINUOUS
10
158.81
20
-99.1455
11
158.81
21
-98.9905
0
LINE
8
BLACK
6
CONTINUOUS
10
158.81
20
-98.9905
11
158.776
21
-98.9219
0
LINE
8
BLACK
6
CONTINUOUS
10
158.776
20
-98.9219
11
158.745
21
-98.8915
0
LINE
8
BLACK
6
CONTINUOUS
10
158.745
20
-98.8915
11
158.677
21
-98.8573
0
LINE
8
BLACK
6
CONTINUOUS
10
158.677
20
-98.8573
11
158.665
21
-98.8573
0
LINE
8
BLACK
6
CONTINUOUS
10
140.756
20
-98.61
11
140.774
21
-98.6524
0
LINE
8
BLACK
6
CONTINUOUS
10
140.774
20
-98.6524
11
140.774
21
-98.9336
0
LINE
8
BLACK
6
CONTINUOUS
10
140.774
20
-98.9336
11
140.756
21
-98.976
0
LINE
8
BLACK
6
CONTINUOUS
10
140.756
20
-98.976
11
140.714
21
-98.9936
0
LINE
8
BLACK
6
CONTINUOUS
10
140.714
20
-98.9936
11
140.672
21
-98.976
0
LINE
8
BLACK
6
CONTINUOUS
10
140.672
20
-98.976
11
140.654
21
-98.9336
0
LINE
8
BLACK
6
CONTINUOUS
10
140.654
20
-98.9336
11
140.654
21
-98.6524
0
LINE
8
BLACK
6
CONTINUOUS
10
140.654
20
-98.6524
11
140.672
21
-98.61
0
LINE
8
BLACK
6
CONTINUOUS
10
140.672
20
-98.61
11
140.714
21
-98.5924
0
LINE
8
BLACK
6
CONTINUOUS
10
140.714
20
-98.5924
11
140.756
21
-98.61
0
LINE
8
BLACK
6
CONTINUOUS
10
141.776
20
-98.61
11
141.794
21
-98.6524
0
LINE
8
BLACK
6
CONTINUOUS
10
141.794
20
-98.6524
11
141.794
21
-98.9336
0
LINE
8
BLACK
6
CONTINUOUS
10
141.794
20
-98.9336
11
141.776
21
-98.976
0
LINE
8
BLACK
6
CONTINUOUS
10
141.776
20
-98.976
11
141.734
21
-98.9936
0
LINE
8
BLACK
6
CONTINUOUS
10
141.734
20
-98.9936
11
141.692
21
-98.976
0
LINE
8
BLACK
6
CONTINUOUS
10
141.692
20
-98.976
11
141.674
21
-98.9336
0
LINE
8
BLACK
6
CONTINUOUS
10
141.674
20
-98.9336
11
141.674
21
-98.6524
0
LINE
8
BLACK
6
CONTINUOUS
10
141.674
20
-98.6524
11
141.692
21
-98.61
0
LINE
8
BLACK
6
CONTINUOUS
10
141.692
20
-98.61
11
141.734
21
-98.5924
0
LINE
8
BLACK
6
CONTINUOUS
10
141.734
20
-98.5924
11
141.776
21
-98.61
0
LINE
8
BLACK
6
CONTINUOUS
10
139.49
20
-98.102
11
139.508
21
-98.1444
0
LINE
8
BLACK
6
CONTINUOUS
10
139.508
20
-98.1444
11
139.508
21
-98.4256
0
LINE
8
BLACK
6
CONTINUOUS
10
139.508
20
-98.4256
11
139.49
21
-98.468
0
LINE
8
BLACK
6
CONTINUOUS
10
139.49
20
-98.468
11
139.448
21
-98.4856
0
LINE
8
BLACK
6
CONTINUOUS
10
139.448
20
-98.4856
11
139.406
21
-98.468
0
LINE
8
BLACK
6
CONTINUOUS
10
139.406
20
-98.468
11
139.388
21
-98.4256
0
LINE
8
BLACK
6
CONTINUOUS
10
139.388
20
-98.4256
11
139.388
21
-98.1444
0
LINE
8
BLACK
6
CONTINUOUS
10
139.388
20
-98.1444
11
139.406
21
-98.102
0
LINE
8
BLACK
6
CONTINUOUS
10
139.406
20
-98.102
11
139.448
21
-98.0844
0
LINE
8
BLACK
6
CONTINUOUS
10
139.448
20
-98.0844
11
139.49
21
-98.102
0
LINE
8
BLACK
6
CONTINUOUS
10
138.47
20
-98.102
11
138.488
21
-98.1444
0
LINE
8
BLACK
6
CONTINUOUS
10
138.488
20
-98.1444
11
138.488
21
-98.4256
0
LINE
8
BLACK
6
CONTINUOUS
10
138.488
20
-98.4256
11
138.47
21
-98.468
0
LINE
8
BLACK
6
CONTINUOUS
10
138.47
20
-98.468
11
138.428
21
-98.4856
0
LINE
8
BLACK
6
CONTINUOUS
10
138.428
20
-98.4856
11
138.386
21
-98.468
0
LINE
8
BLACK
6
CONTINUOUS
10
138.386
20
-98.468
11
138.368
21
-98.4256
0
LINE
8
BLACK
6
CONTINUOUS
10
138.368
20
-98.4256
11
138.368
21
-98.1444
0
LINE
8
BLACK
6
CONTINUOUS
10
138.368
20
-98.1444
11
138.386
21
-98.102
0
LINE
8
BLACK
6
CONTINUOUS
10
138.386
20
-98.102
11
138.428
21
-98.0844
0
LINE
8
BLACK
6
CONTINUOUS
10
138.428
20
-98.0844
11
138.47
21
-98.102
0
LINE
8
BLACK
6
CONTINUOUS
10
133.468
20
-96.8876
11
133.516
21
-96.9353
0
LINE
8
BLACK
6
CONTINUOUS
10
133.516
20
-96.9353
11
133.531
21
-96.9566
0
LINE
8
BLACK
6
CONTINUOUS
10
133.531
20
-96.9566
11
133.531
21
-96.9611
0
LINE
8
BLACK
6
CONTINUOUS
10
133.531
20
-96.9611
11
133.534
21
-96.9646
0
LINE
8
BLACK
6
CONTINUOUS
10
133.534
20
-96.9646
11
133.582
21
-97.1074
0
LINE
8
BLACK
6
CONTINUOUS
10
133.582
20
-97.1074
11
133.585
21
-97.1296
0
LINE
8
BLACK
6
CONTINUOUS
10
133.585
20
-97.1296
11
133.586
21
-97.1311
0
LINE
8
BLACK
6
CONTINUOUS
10
133.586
20
-97.1311
11
133.586
21
-97.2264
0
LINE
8
BLACK
6
CONTINUOUS
10
133.586
20
-97.2264
11
133.582
21
-97.2485
0
LINE
8
BLACK
6
CONTINUOUS
10
133.582
20
-97.2485
11
133.582
21
-97.2501
0
LINE
8
BLACK
6
CONTINUOUS
10
133.582
20
-97.2501
11
133.534
21
-97.393
0
LINE
8
BLACK
6
CONTINUOUS
10
133.534
20
-97.393
11
133.522
21
-97.4159
0
LINE
8
BLACK
6
CONTINUOUS
10
133.522
20
-97.4159
11
133.518
21
-97.4182
0
LINE
8
BLACK
6
CONTINUOUS
10
133.518
20
-97.4182
11
133.516
21
-97.4223
0
LINE
8
BLACK
6
CONTINUOUS
10
133.516
20
-97.4223
11
133.421
21
-97.5175
0
LINE
8
BLACK
6
CONTINUOUS
10
133.421
20
-97.5175
11
133.402
21
-97.5304
0
LINE
8
BLACK
6
CONTINUOUS
10
133.402
20
-97.5304
11
133.401
21
-97.5316
0
LINE
8
BLACK
6
CONTINUOUS
10
133.401
20
-97.5316
11
133.306
21
-97.5792
0
LINE
8
BLACK
6
CONTINUOUS
10
133.306
20
-97.5792
11
133.294
21
-97.5829
0
LINE
8
BLACK
6
CONTINUOUS
10
133.294
20
-97.5829
11
133.291
21
-97.5849
0
LINE
8
BLACK
6
CONTINUOUS
10
133.291
20
-97.5849
11
133.1
21
-97.6325
0
LINE
8
BLACK
6
CONTINUOUS
10
133.1
20
-97.6325
11
133.085
21
-97.6335
0
LINE
8
BLACK
6
CONTINUOUS
10
133.085
20
-97.6335
11
133.082
21
-97.6347
0
LINE
8
BLACK
6
CONTINUOUS
10
133.082
20
-97.6347
11
132.939
21
-97.6347
0
LINE
8
BLACK
6
CONTINUOUS
10
132.939
20
-97.6347
11
132.924
21
-97.6321
0
LINE
8
BLACK
6
CONTINUOUS
10
132.924
20
-97.6321
11
132.921
21
-97.6325
0
LINE
8
BLACK
6
CONTINUOUS
10
132.921
20
-97.6325
11
132.73
21
-97.5849
0
LINE
8
BLACK
6
CONTINUOUS
10
132.73
20
-97.5849
11
132.719
21
-97.5796
0
LINE
8
BLACK
6
CONTINUOUS
10
132.719
20
-97.5796
11
132.715
21
-97.5792
0
LINE
8
BLACK
6
CONTINUOUS
10
132.715
20
-97.5792
11
132.62
21
-97.5316
0
LINE
8
BLACK
6
CONTINUOUS
10
132.62
20
-97.5316
11
132.602
21
-97.5182
0
LINE
8
BLACK
6
CONTINUOUS
10
132.602
20
-97.5182
11
132.6
21
-97.5175
0
LINE
8
BLACK
6
CONTINUOUS
10
132.6
20
-97.5175
11
132.505
21
-97.4223
0
LINE
8
BLACK
6
CONTINUOUS
10
132.505
20
-97.4223
11
132.49
21
-97.4009
0
LINE
8
BLACK
6
CONTINUOUS
10
132.49
20
-97.4009
11
132.49
21
-97.3965
0
LINE
8
BLACK
6
CONTINUOUS
10
132.49
20
-97.3965
11
132.487
21
-97.393
0
LINE
8
BLACK
6
CONTINUOUS
10
132.487
20
-97.393
11
132.439
21
-97.2501
0
LINE
8
BLACK
6
CONTINUOUS
10
132.439
20
-97.2501
11
132.436
21
-97.2279
0
LINE
8
BLACK
6
CONTINUOUS
10
132.436
20
-97.2279
11
132.436
21
-97.2264
0
LINE
8
BLACK
6
CONTINUOUS
10
132.436
20
-97.2264
11
132.436
21
-97.1311
0
LINE
8
BLACK
6
CONTINUOUS
10
132.436
20
-97.1311
11
132.439
21
-97.1091
0
LINE
8
BLACK
6
CONTINUOUS
10
132.439
20
-97.1091
11
132.439
21
-97.1074
0
LINE
8
BLACK
6
CONTINUOUS
10
132.439
20
-97.1074
11
132.487
21
-96.9646
0
LINE
8
BLACK
6
CONTINUOUS
10
132.487
20
-96.9646
11
132.499
21
-96.9417
0
LINE
8
BLACK
6
CONTINUOUS
10
132.499
20
-96.9417
11
132.503
21
-96.9393
0
LINE
8
BLACK
6
CONTINUOUS
10
132.503
20
-96.9393
11
132.505
21
-96.9353
0
LINE
8
BLACK
6
CONTINUOUS
10
132.505
20
-96.9353
11
132.553
21
-96.8876
0
LINE
8
BLACK
6
CONTINUOUS
10
132.553
20
-96.8876
11
132.574
21
-96.8727
0
LINE
8
BLACK
6
CONTINUOUS
10
132.574
20
-96.8727
11
132.625
21
-96.8682
0
LINE
8
BLACK
6
CONTINUOUS
10
132.625
20
-96.8682
11
132.667
21
-96.8976
0
LINE
8
BLACK
6
CONTINUOUS
10
132.667
20
-96.8976
11
132.681
21
-96.9472
0
LINE
8
BLACK
6
CONTINUOUS
10
132.681
20
-96.9472
11
132.659
21
-96.9937
0
LINE
8
BLACK
6
CONTINUOUS
10
132.659
20
-96.9937
11
132.624
21
-97.0288
0
LINE
8
BLACK
6
CONTINUOUS
10
132.624
20
-97.0288
11
132.586
21
-97.1433
0
LINE
8
BLACK
6
CONTINUOUS
10
132.586
20
-97.1433
11
132.586
21
-97.2142
0
LINE
8
BLACK
6
CONTINUOUS
10
132.586
20
-97.2142
11
132.624
21
-97.3287
0
LINE
8
BLACK
6
CONTINUOUS
10
132.624
20
-97.3287
11
132.698
21
-97.4028
0
LINE
8
BLACK
6
CONTINUOUS
10
132.698
20
-97.4028
11
132.775
21
-97.4413
0
LINE
8
BLACK
6
CONTINUOUS
10
132.775
20
-97.4413
11
132.948
21
-97.4847
0
LINE
8
BLACK
6
CONTINUOUS
10
132.948
20
-97.4847
11
133.073
21
-97.4847
0
LINE
8
BLACK
6
CONTINUOUS
10
133.073
20
-97.4847
11
133.246
21
-97.4413
0
LINE
8
BLACK
6
CONTINUOUS
10
133.246
20
-97.4413
11
133.323
21
-97.4028
0
LINE
8
BLACK
6
CONTINUOUS
10
133.323
20
-97.4028
11
133.397
21
-97.3287
0
LINE
8
BLACK
6
CONTINUOUS
10
133.397
20
-97.3287
11
133.436
21
-97.2142
0
LINE
8
BLACK
6
CONTINUOUS
10
133.436
20
-97.2142
11
133.436
21
-97.1433
0
LINE
8
BLACK
6
CONTINUOUS
10
133.436
20
-97.1433
11
133.397
21
-97.0288
0
LINE
8
BLACK
6
CONTINUOUS
10
133.397
20
-97.0288
11
133.362
21
-96.9937
0
LINE
8
BLACK
6
CONTINUOUS
10
133.362
20
-96.9937
11
133.347
21
-96.9724
0
LINE
8
BLACK
6
CONTINUOUS
10
133.347
20
-96.9724
11
133.343
21
-96.9213
0
LINE
8
BLACK
6
CONTINUOUS
10
133.343
20
-96.9213
11
133.372
21
-96.8792
0
LINE
8
BLACK
6
CONTINUOUS
10
133.372
20
-96.8792
11
133.422
21
-96.866
0
LINE
8
BLACK
6
CONTINUOUS
10
133.422
20
-96.866
11
133.468
21
-96.8876
0
LINE
8
BLACK
6
CONTINUOUS
10
154.08
20
-96.6336
11
154.128
21
-96.6813
0
LINE
8
BLACK
6
CONTINUOUS
10
154.128
20
-96.6813
11
154.143
21
-96.7026
0
LINE
8
BLACK
6
CONTINUOUS
10
154.143
20
-96.7026
11
154.143
21
-96.7071
0
LINE
8
BLACK
6
CONTINUOUS
10
154.143
20
-96.7071
11
154.146
21
-96.7106
0
LINE
8
BLACK
6
CONTINUOUS
10
154.146
20
-96.7106
11
154.194
21
-96.8534
0
LINE
8
BLACK
6
CONTINUOUS
10
154.194
20
-96.8534
11
154.197
21
-96.8756
0
LINE
8
BLACK
6
CONTINUOUS
10
154.197
20
-96.8756
11
154.197
21
-96.8771
0
LINE
8
BLACK
6
CONTINUOUS
10
154.197
20
-96.8771
11
154.197
21
-96.9724
0
LINE
8
BLACK
6
CONTINUOUS
10
154.197
20
-96.9724
11
154.193
21
-96.9945
0
LINE
8
BLACK
6
CONTINUOUS
10
154.193
20
-96.9945
11
154.194
21
-96.9961
0
LINE
8
BLACK
6
CONTINUOUS
10
154.194
20
-96.9961
11
154.146
21
-97.139
0
LINE
8
BLACK
6
CONTINUOUS
10
154.146
20
-97.139
11
154.134
21
-97.1619
0
LINE
8
BLACK
6
CONTINUOUS
10
154.134
20
-97.1619
11
154.13
21
-97.1642
0
LINE
8
BLACK
6
CONTINUOUS
10
154.13
20
-97.1642
11
154.128
21
-97.1683
0
LINE
8
BLACK
6
CONTINUOUS
10
154.128
20
-97.1683
11
154.033
21
-97.2635
0
LINE
8
BLACK
6
CONTINUOUS
10
154.033
20
-97.2635
11
154.014
21
-97.2764
0
LINE
8
BLACK
6
CONTINUOUS
10
154.014
20
-97.2764
11
154.013
21
-97.2776
0
LINE
8
BLACK
6
CONTINUOUS
10
154.013
20
-97.2776
11
153.918
21
-97.3252
0
LINE
8
BLACK
6
CONTINUOUS
10
153.918
20
-97.3252
11
153.905
21
-97.3289
0
LINE
8
BLACK
6
CONTINUOUS
10
153.905
20
-97.3289
11
153.902
21
-97.3309
0
LINE
8
BLACK
6
CONTINUOUS
10
153.902
20
-97.3309
11
153.712
21
-97.3785
0
LINE
8
BLACK
6
CONTINUOUS
10
153.712
20
-97.3785
11
153.697
21
-97.3795
0
LINE
8
BLACK
6
CONTINUOUS
10
153.697
20
-97.3795
11
153.694
21
-97.3807
0
LINE
8
BLACK
6
CONTINUOUS
10
153.694
20
-97.3807
11
153.551
21
-97.3807
0
LINE
8
BLACK
6
CONTINUOUS
10
153.551
20
-97.3807
11
153.536
21
-97.3781
0
LINE
8
BLACK
6
CONTINUOUS
10
153.536
20
-97.3781
11
153.533
21
-97.3785
0
LINE
8
BLACK
6
CONTINUOUS
10
153.533
20
-97.3785
11
153.342
21
-97.3309
0
LINE
8
BLACK
6
CONTINUOUS
10
153.342
20
-97.3309
11
153.33
21
-97.3256
0
LINE
8
BLACK
6
CONTINUOUS
10
153.33
20
-97.3256
11
153.327
21
-97.3252
0
LINE
8
BLACK
6
CONTINUOUS
10
153.327
20
-97.3252
11
153.232
21
-97.2776
0
LINE
8
BLACK
6
CONTINUOUS
10
153.232
20
-97.2776
11
153.214
21
-97.2642
0
LINE
8
BLACK
6
CONTINUOUS
10
153.214
20
-97.2642
11
153.212
21
-97.2635
0
LINE
8
BLACK
6
CONTINUOUS
10
153.212
20
-97.2635
11
153.117
21
-97.1683
0
LINE
8
BLACK
6
CONTINUOUS
10
153.117
20
-97.1683
11
153.102
21
-97.1469
0
LINE
8
BLACK
6
CONTINUOUS
10
153.102
20
-97.1469
11
153.102
21
-97.1425
0
LINE
8
BLACK
6
CONTINUOUS
10
153.102
20
-97.1425
11
153.099
21
-97.139
0
LINE
8
BLACK
6
CONTINUOUS
10
153.099
20
-97.139
11
153.051
21
-96.9961
0
LINE
8
BLACK
6
CONTINUOUS
10
153.051
20
-96.9961
11
153.048
21
-96.9739
0
LINE
8
BLACK
6
CONTINUOUS
10
153.048
20
-96.9739
11
153.047
21
-96.9724
0
LINE
8
BLACK
6
CONTINUOUS
10
153.047
20
-96.9724
11
153.047
21
-96.8771
0
LINE
8
BLACK
6
CONTINUOUS
10
153.047
20
-96.8771
11
153.051
21
-96.8551
0
LINE
8
BLACK
6
CONTINUOUS
10
153.051
20
-96.8551
11
153.051
21
-96.8534
0
LINE
8
BLACK
6
CONTINUOUS
10
153.051
20
-96.8534
11
153.099
21
-96.7106
0
LINE
8
BLACK
6
CONTINUOUS
10
153.099
20
-96.7106
11
153.111
21
-96.6877
0
LINE
8
BLACK
6
CONTINUOUS
10
153.111
20
-96.6877
11
153.115
21
-96.6853
0
LINE
8
BLACK
6
CONTINUOUS
10
153.115
20
-96.6853
11
153.117
21
-96.6813
0
LINE
8
BLACK
6
CONTINUOUS
10
153.117
20
-96.6813
11
153.165
21
-96.6336
0
LINE
8
BLACK
6
CONTINUOUS
10
153.165
20
-96.6336
11
153.186
21
-96.6187
0
LINE
8
BLACK
6
CONTINUOUS
10
153.186
20
-96.6187
11
153.237
21
-96.6142
0
LINE
8
BLACK
6
CONTINUOUS
10
153.237
20
-96.6142
11
153.279
21
-96.6436
0
LINE
8
BLACK
6
CONTINUOUS
10
153.279
20
-96.6436
11
153.292
21
-96.6932
0
LINE
8
BLACK
6
CONTINUOUS
10
153.292
20
-96.6932
11
153.271
21
-96.7397
0
LINE
8
BLACK
6
CONTINUOUS
10
153.271
20
-96.7397
11
153.236
21
-96.7748
0
LINE
8
BLACK
6
CONTINUOUS
10
153.236
20
-96.7748
11
153.197
21
-96.8893
0
LINE
8
BLACK
6
CONTINUOUS
10
153.197
20
-96.8893
11
153.197
21
-96.9602
0
LINE
8
BLACK
6
CONTINUOUS
10
153.197
20
-96.9602
11
153.236
21
-97.0747
0
LINE
8
BLACK
6
CONTINUOUS
10
153.236
20
-97.0747
11
153.31
21
-97.1488
0
LINE
8
BLACK
6
CONTINUOUS
10
153.31
20
-97.1488
11
153.387
21
-97.1873
0
LINE
8
BLACK
6
CONTINUOUS
10
153.387
20
-97.1873
11
153.56
21
-97.2307
0
LINE
8
BLACK
6
CONTINUOUS
10
153.56
20
-97.2307
11
153.685
21
-97.2307
0
LINE
8
BLACK
6
CONTINUOUS
10
153.685
20
-97.2307
11
153.858
21
-97.1873
0
LINE
8
BLACK
6
CONTINUOUS
10
153.858
20
-97.1873
11
153.935
21
-97.1488
0
LINE
8
BLACK
6
CONTINUOUS
10
153.935
20
-97.1488
11
154.009
21
-97.0747
0
LINE
8
BLACK
6
CONTINUOUS
10
154.009
20
-97.0747
11
154.047
21
-96.9602
0
LINE
8
BLACK
6
CONTINUOUS
10
154.047
20
-96.9602
11
154.047
21
-96.8893
0
LINE
8
BLACK
6
CONTINUOUS
10
154.047
20
-96.8893
11
154.009
21
-96.7748
0
LINE
8
BLACK
6
CONTINUOUS
10
154.009
20
-96.7748
11
153.974
21
-96.7397
0
LINE
8
BLACK
6
CONTINUOUS
10
153.974
20
-96.7397
11
153.959
21
-96.7184
0
LINE
8
BLACK
6
CONTINUOUS
10
153.959
20
-96.7184
11
153.955
21
-96.6673
0
LINE
8
BLACK
6
CONTINUOUS
10
153.955
20
-96.6673
11
153.984
21
-96.6252
0
LINE
8
BLACK
6
CONTINUOUS
10
153.984
20
-96.6252
11
154.034
21
-96.612
0
LINE
8
BLACK
6
CONTINUOUS
10
154.034
20
-96.612
11
154.08
21
-96.6336
0
LINE
8
BLACK
6
CONTINUOUS
10
135.514
20
-97.2416
11
135.532
21
-97.284
0
LINE
8
BLACK
6
CONTINUOUS
10
135.532
20
-97.284
11
135.514
21
-97.3264
0
LINE
8
BLACK
6
CONTINUOUS
10
135.514
20
-97.3264
11
135.472
21
-97.344
0
LINE
8
BLACK
6
CONTINUOUS
10
135.472
20
-97.344
11
135.191
21
-97.344
0
LINE
8
BLACK
6
CONTINUOUS
10
135.191
20
-97.344
11
135.148
21
-97.3264
0
LINE
8
BLACK
6
CONTINUOUS
10
135.148
20
-97.3264
11
135.131
21
-97.284
0
LINE
8
BLACK
6
CONTINUOUS
10
135.131
20
-97.284
11
135.148
21
-97.2416
0
LINE
8
BLACK
6
CONTINUOUS
10
135.148
20
-97.2416
11
135.191
21
-97.224
0
LINE
8
BLACK
6
CONTINUOUS
10
135.191
20
-97.224
11
135.472
21
-97.224
0
LINE
8
BLACK
6
CONTINUOUS
10
135.472
20
-97.224
11
135.514
21
-97.2416
0
LINE
8
BLACK
6
CONTINUOUS
10
156.194
20
-97.2126
11
156.211
21
-97.255
0
LINE
8
BLACK
6
CONTINUOUS
10
156.211
20
-97.255
11
156.194
21
-97.2974
0
LINE
8
BLACK
6
CONTINUOUS
10
156.194
20
-97.2974
11
156.151
21
-97.315
0
LINE
8
BLACK
6
CONTINUOUS
10
156.151
20
-97.315
11
155.629
21
-97.315
0
LINE
8
BLACK
6
CONTINUOUS
10
155.629
20
-97.315
11
155.586
21
-97.2974
0
LINE
8
BLACK
6
CONTINUOUS
10
155.586
20
-97.2974
11
155.569
21
-97.255
0
LINE
8
BLACK
6
CONTINUOUS
10
155.569
20
-97.255
11
155.586
21
-97.2126
0
LINE
8
BLACK
6
CONTINUOUS
10
155.586
20
-97.2126
11
155.629
21
-97.195
0
LINE
8
BLACK
6
CONTINUOUS
10
155.629
20
-97.195
11
156.151
21
-97.195
0
LINE
8
BLACK
6
CONTINUOUS
10
156.151
20
-97.195
11
156.194
21
-97.2126
0
LINE
8
BLACK
6
CONTINUOUS
10
145.444
20
-96.3796
11
145.492
21
-96.4273
0
LINE
8
BLACK
6
CONTINUOUS
10
145.492
20
-96.4273
11
145.507
21
-96.4486
0
LINE
8
BLACK
6
CONTINUOUS
10
145.507
20
-96.4486
11
145.507
21
-96.4531
0
LINE
8
BLACK
6
CONTINUOUS
10
145.507
20
-96.4531
11
145.51
21
-96.4566
0
LINE
8
BLACK
6
CONTINUOUS
10
145.51
20
-96.4566
11
145.558
21
-96.5994
0
LINE
8
BLACK
6
CONTINUOUS
10
145.558
20
-96.5994
11
145.561
21
-96.6216
0
LINE
8
BLACK
6
CONTINUOUS
10
145.561
20
-96.6216
11
145.561
21
-96.6231
0
LINE
8
BLACK
6
CONTINUOUS
10
145.561
20
-96.6231
11
145.561
21
-96.7184
0
LINE
8
BLACK
6
CONTINUOUS
10
145.561
20
-96.7184
11
145.557
21
-96.7405
0
LINE
8
BLACK
6
CONTINUOUS
10
145.557
20
-96.7405
11
145.558
21
-96.7421
0
LINE
8
BLACK
6
CONTINUOUS
10
145.558
20
-96.7421
11
145.51
21
-96.885
0
LINE
8
BLACK
6
CONTINUOUS
10
145.51
20
-96.885
11
145.498
21
-96.9079
0
LINE
8
BLACK
6
CONTINUOUS
10
145.498
20
-96.9079
11
145.494
21
-96.9102
0
LINE
8
BLACK
6
CONTINUOUS
10
145.494
20
-96.9102
11
145.492
21
-96.9143
0
LINE
8
BLACK
6
CONTINUOUS
10
145.492
20
-96.9143
11
145.397
21
-97.0095
0
LINE
8
BLACK
6
CONTINUOUS
10
145.397
20
-97.0095
11
145.378
21
-97.0224
0
LINE
8
BLACK
6
CONTINUOUS
10
145.378
20
-97.0224
11
145.377
21
-97.0236
0
LINE
8
BLACK
6
CONTINUOUS
10
145.377
20
-97.0236
11
145.282
21
-97.0712
0
LINE
8
BLACK
6
CONTINUOUS
10
145.282
20
-97.0712
11
145.269
21
-97.0749
0
LINE
8
BLACK
6
CONTINUOUS
10
145.269
20
-97.0749
11
145.266
21
-97.0769
0
LINE
8
BLACK
6
CONTINUOUS
10
145.266
20
-97.0769
11
145.076
21
-97.1245
0
LINE
8
BLACK
6
CONTINUOUS
10
145.076
20
-97.1245
11
145.061
21
-97.1255
0
LINE
8
BLACK
6
CONTINUOUS
10
145.061
20
-97.1255
11
145.058
21
-97.1267
0
LINE
8
BLACK
6
CONTINUOUS
10
145.058
20
-97.1267
11
144.915
21
-97.1267
0
LINE
8
BLACK
6
CONTINUOUS
10
144.915
20
-97.1267
11
144.9
21
-97.1241
0
LINE
8
BLACK
6
CONTINUOUS
10
144.9
20
-97.1241
11
144.897
21
-97.1245
0
LINE
8
BLACK
6
CONTINUOUS
10
144.897
20
-97.1245
11
144.706
21
-97.0769
0
LINE
8
BLACK
6
CONTINUOUS
10
144.706
20
-97.0769
11
144.694
21
-97.0716
0
LINE
8
BLACK
6
CONTINUOUS
10
144.694
20
-97.0716
11
144.691
21
-97.0712
0
LINE
8
BLACK
6
CONTINUOUS
10
144.691
20
-97.0712
11
144.596
21
-97.0236
0
LINE
8
BLACK
6
CONTINUOUS
10
144.596
20
-97.0236
11
144.578
21
-97.0102
0
LINE
8
BLACK
6
CONTINUOUS
10
144.578
20
-97.0102
11
144.576
21
-97.0095
0
LINE
8
BLACK
6
CONTINUOUS
10
144.576
20
-97.0095
11
144.481
21
-96.9143
0
LINE
8
BLACK
6
CONTINUOUS
10
144.481
20
-96.9143
11
144.466
21
-96.8929
0
LINE
8
BLACK
6
CONTINUOUS
10
144.466
20
-96.8929
11
144.466
21
-96.8885
0
LINE
8
BLACK
6
CONTINUOUS
10
144.466
20
-96.8885
11
144.463
21
-96.885
0
LINE
8
BLACK
6
CONTINUOUS
10
144.463
20
-96.885
11
144.415
21
-96.7421
0
LINE
8
BLACK
6
CONTINUOUS
10
144.415
20
-96.7421
11
144.412
21
-96.7199
0
LINE
8
BLACK
6
CONTINUOUS
10
144.412
20
-96.7199
11
144.411
21
-96.7184
0
LINE
8
BLACK
6
CONTINUOUS
10
144.411
20
-96.7184
11
144.411
21
-96.6231
0
LINE
8
BLACK
6
CONTINUOUS
10
144.411
20
-96.6231
11
144.415
21
-96.6011
0
LINE
8
BLACK
6
CONTINUOUS
10
144.415
20
-96.6011
11
144.415
21
-96.5994
0
LINE
8
BLACK
6
CONTINUOUS
10
144.415
20
-96.5994
11
144.463
21
-96.4566
0
LINE
8
BLACK
6
CONTINUOUS
10
144.463
20
-96.4566
11
144.475
21
-96.4337
0
LINE
8
BLACK
6
CONTINUOUS
10
144.475
20
-96.4337
11
144.479
21
-96.4313
0
LINE
8
BLACK
6
CONTINUOUS
10
144.479
20
-96.4313
11
144.481
21
-96.4273
0
LINE
8
BLACK
6
CONTINUOUS
10
144.481
20
-96.4273
11
144.529
21
-96.3796
0
LINE
8
BLACK
6
CONTINUOUS
10
144.529
20
-96.3796
11
144.55
21
-96.3647
0
LINE
8
BLACK
6
CONTINUOUS
10
144.55
20
-96.3647
11
144.601
21
-96.3602
0
LINE
8
BLACK
6
CONTINUOUS
10
144.601
20
-96.3602
11
144.643
21
-96.3896
0
LINE
8
BLACK
6
CONTINUOUS
10
144.643
20
-96.3896
11
144.656
21
-96.4392
0
LINE
8
BLACK
6
CONTINUOUS
10
144.656
20
-96.4392
11
144.635
21
-96.4857
0
LINE
8
BLACK
6
CONTINUOUS
10
144.635
20
-96.4857
11
144.6
21
-96.5208
0
LINE
8
BLACK
6
CONTINUOUS
10
144.6
20
-96.5208
11
144.561
21
-96.6353
0
LINE
8
BLACK
6
CONTINUOUS
10
144.561
20
-96.6353
11
144.561
21
-96.7062
0
LINE
8
BLACK
6
CONTINUOUS
10
144.561
20
-96.7062
11
144.6
21
-96.8207
0
LINE
8
BLACK
6
CONTINUOUS
10
144.6
20
-96.8207
11
144.674
21
-96.8948
0
LINE
8
BLACK
6
CONTINUOUS
10
144.674
20
-96.8948
11
144.751
21
-96.9333
0
LINE
8
BLACK
6
CONTINUOUS
10
144.751
20
-96.9333
11
144.924
21
-96.9767
0
LINE
8
BLACK
6
CONTINUOUS
10
144.924
20
-96.9767
11
145.049
21
-96.9767
0
LINE
8
BLACK
6
CONTINUOUS
10
145.049
20
-96.9767
11
145.222
21
-96.9333
0
LINE
8
BLACK
6
CONTINUOUS
10
145.222
20
-96.9333
11
145.299
21
-96.8948
0
LINE
8
BLACK
6
CONTINUOUS
10
145.299
20
-96.8948
11
145.373
21
-96.8207
0
LINE
8
BLACK
6
CONTINUOUS
10
145.373
20
-96.8207
11
145.411
21
-96.7062
0
LINE
8
BLACK
6
CONTINUOUS
10
145.411
20
-96.7062
11
145.411
21
-96.6353
0
LINE
8
BLACK
6
CONTINUOUS
10
145.411
20
-96.6353
11
145.373
21
-96.5208
0
LINE
8
BLACK
6
CONTINUOUS
10
145.373
20
-96.5208
11
145.338
21
-96.4857
0
LINE
8
BLACK
6
CONTINUOUS
10
145.338
20
-96.4857
11
145.323
21
-96.4644
0
LINE
8
BLACK
6
CONTINUOUS
10
145.323
20
-96.4644
11
145.319
21
-96.4133
0
LINE
8
BLACK
6
CONTINUOUS
10
145.319
20
-96.4133
11
145.348
21
-96.3712
0
LINE
8
BLACK
6
CONTINUOUS
10
145.348
20
-96.3712
11
145.398
21
-96.358
0
LINE
8
BLACK
6
CONTINUOUS
10
145.398
20
-96.358
11
145.444
21
-96.3796
0
LINE
8
BLACK
6
CONTINUOUS
10
141.634
20
-96.3536
11
141.682
21
-96.4013
0
LINE
8
BLACK
6
CONTINUOUS
10
141.682
20
-96.4013
11
141.697
21
-96.4226
0
LINE
8
BLACK
6
CONTINUOUS
10
141.697
20
-96.4226
11
141.697
21
-96.4271
0
LINE
8
BLACK
6
CONTINUOUS
10
141.697
20
-96.4271
11
141.7
21
-96.4306
0
LINE
8
BLACK
6
CONTINUOUS
10
141.7
20
-96.4306
11
141.748
21
-96.5734
0
LINE
8
BLACK
6
CONTINUOUS
10
141.748
20
-96.5734
11
141.751
21
-96.5956
0
LINE
8
BLACK
6
CONTINUOUS
10
141.751
20
-96.5956
11
141.751
21
-96.5971
0
LINE
8
BLACK
6
CONTINUOUS
10
141.751
20
-96.5971
11
141.751
21
-96.6924
0
LINE
8
BLACK
6
CONTINUOUS
10
141.751
20
-96.6924
11
141.747
21
-96.7145
0
LINE
8
BLACK
6
CONTINUOUS
10
141.747
20
-96.7145
11
141.748
21
-96.7161
0
LINE
8
BLACK
6
CONTINUOUS
10
141.748
20
-96.7161
11
141.7
21
-96.859
0
LINE
8
BLACK
6
CONTINUOUS
10
141.7
20
-96.859
11
141.688
21
-96.8819
0
LINE
8
BLACK
6
CONTINUOUS
10
141.688
20
-96.8819
11
141.684
21
-96.8842
0
LINE
8
BLACK
6
CONTINUOUS
10
141.684
20
-96.8842
11
141.682
21
-96.8883
0
LINE
8
BLACK
6
CONTINUOUS
10
141.682
20
-96.8883
11
141.587
21
-96.9835
0
LINE
8
BLACK
6
CONTINUOUS
10
141.587
20
-96.9835
11
141.568
21
-96.9964
0
LINE
8
BLACK
6
CONTINUOUS
10
141.568
20
-96.9964
11
141.567
21
-96.9976
0
LINE
8
BLACK
6
CONTINUOUS
10
141.567
20
-96.9976
11
141.472
21
-97.0452
0
LINE
8
BLACK
6
CONTINUOUS
10
141.472
20
-97.0452
11
141.459
21
-97.0489
0
LINE
8
BLACK
6
CONTINUOUS
10
141.459
20
-97.0489
11
141.456
21
-97.0509
0
LINE
8
BLACK
6
CONTINUOUS
10
141.456
20
-97.0509
11
141.266
21
-97.0985
0
LINE
8
BLACK
6
CONTINUOUS
10
141.266
20
-97.0985
11
141.251
21
-97.0995
0
LINE
8
BLACK
6
CONTINUOUS
10
141.251
20
-97.0995
11
141.248
21
-97.1007
0
LINE
8
BLACK
6
CONTINUOUS
10
141.248
20
-97.1007
11
141.105
21
-97.1007
0
LINE
8
BLACK
6
CONTINUOUS
10
141.105
20
-97.1007
11
141.09
21
-97.0981
0
LINE
8
BLACK
6
CONTINUOUS
10
141.09
20
-97.0981
11
141.087
21
-97.0985
0
LINE
8
BLACK
6
CONTINUOUS
10
141.087
20
-97.0985
11
140.896
21
-97.0509
0
LINE
8
BLACK
6
CONTINUOUS
10
140.896
20
-97.0509
11
140.884
21
-97.0456
0
LINE
8
BLACK
6
CONTINUOUS
10
140.884
20
-97.0456
11
140.881
21
-97.0452
0
LINE
8
BLACK
6
CONTINUOUS
10
140.881
20
-97.0452
11
140.786
21
-96.9976
0
LINE
8
BLACK
6
CONTINUOUS
10
140.786
20
-96.9976
11
140.768
21
-96.9842
0
LINE
8
BLACK
6
CONTINUOUS
10
140.768
20
-96.9842
11
140.766
21
-96.9835
0
LINE
8
BLACK
6
CONTINUOUS
10
140.766
20
-96.9835
11
140.671
21
-96.8883
0
LINE
8
BLACK
6
CONTINUOUS
10
140.671
20
-96.8883
11
140.656
21
-96.8669
0
LINE
8
BLACK
6
CONTINUOUS
10
140.656
20
-96.8669
11
140.656
21
-96.8625
0
LINE
8
BLACK
6
CONTINUOUS
10
140.656
20
-96.8625
11
140.653
21
-96.859
0
LINE
8
BLACK
6
CONTINUOUS
10
140.653
20
-96.859
11
140.605
21
-96.7161
0
LINE
8
BLACK
6
CONTINUOUS
10
140.605
20
-96.7161
11
140.602
21
-96.6939
0
LINE
8
BLACK
6
CONTINUOUS
10
140.602
20
-96.6939
11
140.601
21
-96.6924
0
LINE
8
BLACK
6
CONTINUOUS
10
140.601
20
-96.6924
11
140.601
21
-96.5971
0
LINE
8
BLACK
6
CONTINUOUS
10
140.601
20
-96.5971
11
140.605
21
-96.5751
0
LINE
8
BLACK
6
CONTINUOUS
10
140.605
20
-96.5751
11
140.605
21
-96.5734
0
LINE
8
BLACK
6
CONTINUOUS
10
140.605
20
-96.5734
11
140.653
21
-96.4306
0
LINE
8
BLACK
6
CONTINUOUS
10
140.653
20
-96.4306
11
140.665
21
-96.4077
0
LINE
8
BLACK
6
CONTINUOUS
10
140.665
20
-96.4077
11
140.669
21
-96.4053
0
LINE
8
BLACK
6
CONTINUOUS
10
140.669
20
-96.4053
11
140.671
21
-96.4013
0
LINE
8
BLACK
6
CONTINUOUS
10
140.671
20
-96.4013
11
140.719
21
-96.3536
0
LINE
8
BLACK
6
CONTINUOUS
10
140.719
20
-96.3536
11
140.74
21
-96.3387
0
LINE
8
BLACK
6
CONTINUOUS
10
140.74
20
-96.3387
11
140.791
21
-96.3342
0
LINE
8
BLACK
6
CONTINUOUS
10
140.791
20
-96.3342
11
140.833
21
-96.3636
0
LINE
8
BLACK
6
CONTINUOUS
10
140.833
20
-96.3636
11
140.846
21
-96.4132
0
LINE
8
BLACK
6
CONTINUOUS
10
140.846
20
-96.4132
11
140.825
21
-96.4597
0
LINE
8
BLACK
6
CONTINUOUS
10
140.825
20
-96.4597
11
140.79
21
-96.4948
0
LINE
8
BLACK
6
CONTINUOUS
10
140.79
20
-96.4948
11
140.751
21
-96.6093
0
LINE
8
BLACK
6
CONTINUOUS
10
140.751
20
-96.6093
11
140.751
21
-96.6802
0
LINE
8
BLACK
6
CONTINUOUS
10
140.751
20
-96.6802
11
140.79
21
-96.7947
0
LINE
8
BLACK
6
CONTINUOUS
10
140.79
20
-96.7947
11
140.864
21
-96.8688
0
LINE
8
BLACK
6
CONTINUOUS
10
140.864
20
-96.8688
11
140.941
21
-96.9073
0
LINE
8
BLACK
6
CONTINUOUS
10
140.941
20
-96.9073
11
141.114
21
-96.9507
0
LINE
8
BLACK
6
CONTINUOUS
10
141.114
20
-96.9507
11
141.239
21
-96.9507
0
LINE
8
BLACK
6
CONTINUOUS
10
141.239
20
-96.9507
11
141.412
21
-96.9073
0
LINE
8
BLACK
6
CONTINUOUS
10
141.412
20
-96.9073
11
141.489
21
-96.8688
0
LINE
8
BLACK
6
CONTINUOUS
10
141.489
20
-96.8688
11
141.563
21
-96.7947
0
LINE
8
BLACK
6
CONTINUOUS
10
141.563
20
-96.7947
11
141.601
21
-96.6802
0
LINE
8
BLACK
6
CONTINUOUS
10
141.601
20
-96.6802
11
141.601
21
-96.6093
0
LINE
8
BLACK
6
CONTINUOUS
10
141.601
20
-96.6093
11
141.563
21
-96.4948
0
LINE
8
BLACK
6
CONTINUOUS
10
141.563
20
-96.4948
11
141.528
21
-96.4597
0
LINE
8
BLACK
6
CONTINUOUS
10
141.528
20
-96.4597
11
141.513
21
-96.4384
0
LINE
8
BLACK
6
CONTINUOUS
10
141.513
20
-96.4384
11
141.509
21
-96.3873
0
LINE
8
BLACK
6
CONTINUOUS
10
141.509
20
-96.3873
11
141.538
21
-96.3452
0
LINE
8
BLACK
6
CONTINUOUS
10
141.538
20
-96.3452
11
141.588
21
-96.332
0
LINE
8
BLACK
6
CONTINUOUS
10
141.588
20
-96.332
11
141.634
21
-96.3536
0
LINE
8
BLACK
6
CONTINUOUS
10
147.249
20
-96.7336
11
147.267
21
-96.776
0
LINE
8
BLACK
6
CONTINUOUS
10
147.267
20
-96.776
11
147.249
21
-96.8184
0
LINE
8
BLACK
6
CONTINUOUS
10
147.249
20
-96.8184
11
147.207
21
-96.836
0
LINE
8
BLACK
6
CONTINUOUS
10
147.207
20
-96.836
11
146.925
21
-96.836
0
LINE
8
BLACK
6
CONTINUOUS
10
146.925
20
-96.836
11
146.883
21
-96.8184
0
LINE
8
BLACK
6
CONTINUOUS
10
146.883
20
-96.8184
11
146.865
21
-96.776
0
LINE
8
BLACK
6
CONTINUOUS
10
146.865
20
-96.776
11
146.883
21
-96.7336
0
LINE
8
BLACK
6
CONTINUOUS
10
146.883
20
-96.7336
11
146.925
21
-96.716
0
LINE
8
BLACK
6
CONTINUOUS
10
146.925
20
-96.716
11
147.207
21
-96.716
0
LINE
8
BLACK
6
CONTINUOUS
10
147.207
20
-96.716
11
147.249
21
-96.7336
0
LINE
8
BLACK
6
CONTINUOUS
10
139.348
20
-95.9986
11
139.396
21
-96.0463
0
LINE
8
BLACK
6
CONTINUOUS
10
139.396
20
-96.0463
11
139.411
21
-96.0676
0
LINE
8
BLACK
6
CONTINUOUS
10
139.411
20
-96.0676
11
139.411
21
-96.0721
0
LINE
8
BLACK
6
CONTINUOUS
10
139.411
20
-96.0721
11
139.414
21
-96.0756
0
LINE
8
BLACK
6
CONTINUOUS
10
139.414
20
-96.0756
11
139.462
21
-96.2184
0
LINE
8
BLACK
6
CONTINUOUS
10
139.462
20
-96.2184
11
139.465
21
-96.2406
0
LINE
8
BLACK
6
CONTINUOUS
10
139.465
20
-96.2406
11
139.465
21
-96.2421
0
LINE
8
BLACK
6
CONTINUOUS
10
139.465
20
-96.2421
11
139.465
21
-96.3374
0
LINE
8
BLACK
6
CONTINUOUS
10
139.465
20
-96.3374
11
139.461
21
-96.3595
0
LINE
8
BLACK
6
CONTINUOUS
10
139.461
20
-96.3595
11
139.462
21
-96.3611
0
LINE
8
BLACK
6
CONTINUOUS
10
139.462
20
-96.3611
11
139.414
21
-96.504
0
LINE
8
BLACK
6
CONTINUOUS
10
139.414
20
-96.504
11
139.402
21
-96.5269
0
LINE
8
BLACK
6
CONTINUOUS
10
139.402
20
-96.5269
11
139.398
21
-96.5292
0
LINE
8
BLACK
6
CONTINUOUS
10
139.398
20
-96.5292
11
139.396
21
-96.5333
0
LINE
8
BLACK
6
CONTINUOUS
10
139.396
20
-96.5333
11
139.301
21
-96.6285
0
LINE
8
BLACK
6
CONTINUOUS
10
139.301
20
-96.6285
11
139.282
21
-96.6414
0
LINE
8
BLACK
6
CONTINUOUS
10
139.282
20
-96.6414
11
139.281
21
-96.6426
0
LINE
8
BLACK
6
CONTINUOUS
10
139.281
20
-96.6426
11
139.186
21
-96.6902
0
LINE
8
BLACK
6
CONTINUOUS
10
139.186
20
-96.6902
11
139.173
21
-96.6939
0
LINE
8
BLACK
6
CONTINUOUS
10
139.173
20
-96.6939
11
139.17
21
-96.6959
0
LINE
8
BLACK
6
CONTINUOUS
10
139.17
20
-96.6959
11
138.98
21
-96.7435
0
LINE
8
BLACK
6
CONTINUOUS
10
138.98
20
-96.7435
11
138.965
21
-96.7445
0
LINE
8
BLACK
6
CONTINUOUS
10
138.965
20
-96.7445
11
138.962
21
-96.7457
0
LINE
8
BLACK
6
CONTINUOUS
10
138.962
20
-96.7457
11
138.819
21
-96.7457
0
LINE
8
BLACK
6
CONTINUOUS
10
138.819
20
-96.7457
11
138.804
21
-96.7431
0
LINE
8
BLACK
6
CONTINUOUS
10
138.804
20
-96.7431
11
138.801
21
-96.7435
0
LINE
8
BLACK
6
CONTINUOUS
10
138.801
20
-96.7435
11
138.61
21
-96.6959
0
LINE
8
BLACK
6
CONTINUOUS
10
138.61
20
-96.6959
11
138.598
21
-96.6906
0
LINE
8
BLACK
6
CONTINUOUS
10
138.598
20
-96.6906
11
138.595
21
-96.6902
0
LINE
8
BLACK
6
CONTINUOUS
10
138.595
20
-96.6902
11
138.5
21
-96.6426
0
LINE
8
BLACK
6
CONTINUOUS
10
138.5
20
-96.6426
11
138.482
21
-96.6292
0
LINE
8
BLACK
6
CONTINUOUS
10
138.482
20
-96.6292
11
138.48
21
-96.6285
0
LINE
8
BLACK
6
CONTINUOUS
10
138.48
20
-96.6285
11
138.385
21
-96.5333
0
LINE
8
BLACK
6
CONTINUOUS
10
138.385
20
-96.5333
11
138.37
21
-96.5119
0
LINE
8
BLACK
6
CONTINUOUS
10
138.37
20
-96.5119
11
138.37
21
-96.5075
0
LINE
8
BLACK
6
CONTINUOUS
10
138.37
20
-96.5075
11
138.367
21
-96.504
0
LINE
8
BLACK
6
CONTINUOUS
10
138.367
20
-96.504
11
138.319
21
-96.3611
0
LINE
8
BLACK
6
CONTINUOUS
10
138.319
20
-96.3611
11
138.316
21
-96.3389
0
LINE
8
BLACK
6
CONTINUOUS
10
138.316
20
-96.3389
11
138.315
21
-96.3374
0
LINE
8
BLACK
6
CONTINUOUS
10
138.315
20
-96.3374
11
138.315
21
-96.2421
0
LINE
8
BLACK
6
CONTINUOUS
10
138.315
20
-96.2421
11
138.319
21
-96.2201
0
LINE
8
BLACK
6
CONTINUOUS
10
138.319
20
-96.2201
11
138.319
21
-96.2184
0
LINE
8
BLACK
6
CONTINUOUS
10
138.319
20
-96.2184
11
138.367
21
-96.0756
0
LINE
8
BLACK
6
CONTINUOUS
10
138.367
20
-96.0756
11
138.379
21
-96.0527
0
LINE
8
BLACK
6
CONTINUOUS
10
138.379
20
-96.0527
11
138.383
21
-96.0503
0
LINE
8
BLACK
6
CONTINUOUS
10
138.383
20
-96.0503
11
138.385
21
-96.0463
0
LINE
8
BLACK
6
CONTINUOUS
10
138.385
20
-96.0463
11
138.433
21
-95.9986
0
LINE
8
BLACK
6
CONTINUOUS
10
138.433
20
-95.9986
11
138.454
21
-95.9837
0
LINE
8
BLACK
6
CONTINUOUS
10
138.454
20
-95.9837
11
138.505
21
-95.9792
0
LINE
8
BLACK
6
CONTINUOUS
10
138.505
20
-95.9792
11
138.547
21
-96.0086
0
LINE
8
BLACK
6
CONTINUOUS
10
138.547
20
-96.0086
11
138.56
21
-96.0582
0
LINE
8
BLACK
6
CONTINUOUS
10
138.56
20
-96.0582
11
138.539
21
-96.1047
0
LINE
8
BLACK
6
CONTINUOUS
10
138.539
20
-96.1047
11
138.504
21
-96.1398
0
LINE
8
BLACK
6
CONTINUOUS
10
138.504
20
-96.1398
11
138.465
21
-96.2543
0
LINE
8
BLACK
6
CONTINUOUS
10
138.465
20
-96.2543
11
138.465
21
-96.3252
0
LINE
8
BLACK
6
CONTINUOUS
10
138.465
20
-96.3252
11
138.504
21
-96.4397
0
LINE
8
BLACK
6
CONTINUOUS
10
138.504
20
-96.4397
11
138.578
21
-96.5138
0
LINE
8
BLACK
6
CONTINUOUS
10
138.578
20
-96.5138
11
138.655
21
-96.5523
0
LINE
8
BLACK
6
CONTINUOUS
10
138.655
20
-96.5523
11
138.828
21
-96.5957
0
LINE
8
BLACK
6
CONTINUOUS
10
138.828
20
-96.5957
11
138.953
21
-96.5957
0
LINE
8
BLACK
6
CONTINUOUS
10
138.953
20
-96.5957
11
139.126
21
-96.5523
0
LINE
8
BLACK
6
CONTINUOUS
10
139.126
20
-96.5523
11
139.203
21
-96.5138
0
LINE
8
BLACK
6
CONTINUOUS
10
139.203
20
-96.5138
11
139.277
21
-96.4397
0
LINE
8
BLACK
6
CONTINUOUS
10
139.277
20
-96.4397
11
139.315
21
-96.3252
0
LINE
8
BLACK
6
CONTINUOUS
10
139.315
20
-96.3252
11
139.315
21
-96.2543
0
LINE
8
BLACK
6
CONTINUOUS
10
139.315
20
-96.2543
11
139.277
21
-96.1398
0
LINE
8
BLACK
6
CONTINUOUS
10
139.277
20
-96.1398
11
139.242
21
-96.1047
0
LINE
8
BLACK
6
CONTINUOUS
10
139.242
20
-96.1047
11
139.227
21
-96.0834
0
LINE
8
BLACK
6
CONTINUOUS
10
139.227
20
-96.0834
11
139.223
21
-96.0323
0
LINE
8
BLACK
6
CONTINUOUS
10
139.223
20
-96.0323
11
139.252
21
-95.9902
0
LINE
8
BLACK
6
CONTINUOUS
10
139.252
20
-95.9902
11
139.302
21
-95.977
0
LINE
8
BLACK
6
CONTINUOUS
10
139.302
20
-95.977
11
139.348
21
-95.9986
0
LINE
8
BLACK
6
CONTINUOUS
10
132.818
20
-95.9172
11
132.82
21
-95.9171
0
LINE
8
BLACK
6
CONTINUOUS
10
132.82
20
-95.9171
11
132.963
21
-95.9648
0
LINE
8
BLACK
6
CONTINUOUS
10
132.963
20
-95.9648
11
132.986
21
-95.9772
0
LINE
8
BLACK
6
CONTINUOUS
10
132.986
20
-95.9772
11
132.988
21
-95.981
0
LINE
8
BLACK
6
CONTINUOUS
10
132.988
20
-95.981
11
132.992
21
-95.9829
0
LINE
8
BLACK
6
CONTINUOUS
10
132.992
20
-95.9829
11
133.436
21
-96.4263
0
LINE
8
BLACK
6
CONTINUOUS
10
133.436
20
-96.4263
11
133.436
21
-95.9883
0
LINE
8
BLACK
6
CONTINUOUS
10
133.436
20
-95.9883
11
133.44
21
-95.9626
0
LINE
8
BLACK
6
CONTINUOUS
10
133.44
20
-95.9626
11
133.473
21
-95.9233
0
LINE
8
BLACK
6
CONTINUOUS
10
133.473
20
-95.9233
11
133.524
21
-95.9144
0
LINE
8
BLACK
6
CONTINUOUS
10
133.524
20
-95.9144
11
133.568
21
-95.9401
0
LINE
8
BLACK
6
CONTINUOUS
10
133.568
20
-95.9401
11
133.586
21
-95.9883
0
LINE
8
BLACK
6
CONTINUOUS
10
133.586
20
-95.9883
11
133.586
21
-96.6073
0
LINE
8
BLACK
6
CONTINUOUS
10
133.586
20
-96.6073
11
133.583
21
-96.6235
0
LINE
8
BLACK
6
CONTINUOUS
10
133.583
20
-96.6235
11
133.583
21
-96.6267
0
LINE
8
BLACK
6
CONTINUOUS
10
133.583
20
-96.6267
11
133.582
21
-96.6284
0
LINE
8
BLACK
6
CONTINUOUS
10
133.582
20
-96.6284
11
133.581
21
-96.633
0
LINE
8
BLACK
6
CONTINUOUS
10
133.581
20
-96.633
11
133.567
21
-96.6503
0
LINE
8
BLACK
6
CONTINUOUS
10
133.567
20
-96.6503
11
133.554
21
-96.6688
0
LINE
8
BLACK
6
CONTINUOUS
10
133.554
20
-96.6688
11
133.55
21
-96.6697
0
LINE
8
BLACK
6
CONTINUOUS
10
133.55
20
-96.6697
11
133.548
21
-96.6723
0
LINE
8
BLACK
6
CONTINUOUS
10
133.548
20
-96.6723
11
133.526
21
-96.6762
0
LINE
8
BLACK
6
CONTINUOUS
10
133.526
20
-96.6762
11
133.504
21
-96.682
0
LINE
8
BLACK
6
CONTINUOUS
10
133.504
20
-96.682
11
133.501
21
-96.6806
0
LINE
8
BLACK
6
CONTINUOUS
10
133.501
20
-96.6806
11
133.498
21
-96.6812
0
LINE
8
BLACK
6
CONTINUOUS
10
133.498
20
-96.6812
11
133.478
21
-96.6699
0
LINE
8
BLACK
6
CONTINUOUS
10
133.478
20
-96.6699
11
133.458
21
-96.6604
0
LINE
8
BLACK
6
CONTINUOUS
10
133.458
20
-96.6604
11
132.899
21
-96.1015
0
LINE
8
BLACK
6
CONTINUOUS
10
132.899
20
-96.1015
11
132.784
21
-96.0633
0
LINE
8
BLACK
6
CONTINUOUS
10
132.784
20
-96.0633
11
132.719
21
-96.0633
0
LINE
8
BLACK
6
CONTINUOUS
10
132.719
20
-96.0633
11
132.65
21
-96.0975
0
LINE
8
BLACK
6
CONTINUOUS
10
132.65
20
-96.0975
11
132.62
21
-96.1279
0
LINE
8
BLACK
6
CONTINUOUS
10
132.62
20
-96.1279
11
132.586
21
-96.1965
0
LINE
8
BLACK
6
CONTINUOUS
10
132.586
20
-96.1965
11
132.586
21
-96.3992
0
LINE
8
BLACK
6
CONTINUOUS
10
132.586
20
-96.3992
11
132.62
21
-96.4677
0
LINE
8
BLACK
6
CONTINUOUS
10
132.62
20
-96.4677
11
132.659
21
-96.5067
0
LINE
8
BLACK
6
CONTINUOUS
10
132.659
20
-96.5067
11
132.674
21
-96.528
0
LINE
8
BLACK
6
CONTINUOUS
10
132.674
20
-96.528
11
132.678
21
-96.5791
0
LINE
8
BLACK
6
CONTINUOUS
10
132.678
20
-96.5791
11
132.649
21
-96.6212
0
LINE
8
BLACK
6
CONTINUOUS
10
132.649
20
-96.6212
11
132.599
21
-96.6344
0
LINE
8
BLACK
6
CONTINUOUS
10
132.599
20
-96.6344
11
132.553
21
-96.6127
0
LINE
8
BLACK
6
CONTINUOUS
10
132.553
20
-96.6127
11
132.505
21
-96.5651
0
LINE
8
BLACK
6
CONTINUOUS
10
132.505
20
-96.5651
11
132.492
21
-96.5468
0
LINE
8
BLACK
6
CONTINUOUS
10
132.492
20
-96.5468
11
132.491
21
-96.5456
0
LINE
8
BLACK
6
CONTINUOUS
10
132.491
20
-96.5456
11
132.443
21
-96.4504
0
LINE
8
BLACK
6
CONTINUOUS
10
132.443
20
-96.4504
11
132.436
21
-96.4254
0
LINE
8
BLACK
6
CONTINUOUS
10
132.436
20
-96.4254
11
132.437
21
-96.4211
0
LINE
8
BLACK
6
CONTINUOUS
10
132.437
20
-96.4211
11
132.436
21
-96.4169
0
LINE
8
BLACK
6
CONTINUOUS
10
132.436
20
-96.4169
11
132.436
21
-96.1788
0
LINE
8
BLACK
6
CONTINUOUS
10
132.436
20
-96.1788
11
132.44
21
-96.1531
0
LINE
8
BLACK
6
CONTINUOUS
10
132.44
20
-96.1531
11
132.443
21
-96.1497
0
LINE
8
BLACK
6
CONTINUOUS
10
132.443
20
-96.1497
11
132.443
21
-96.1452
0
LINE
8
BLACK
6
CONTINUOUS
10
132.443
20
-96.1452
11
132.491
21
-96.05
0
LINE
8
BLACK
6
CONTINUOUS
10
132.491
20
-96.05
11
132.504
21
-96.032
0
LINE
8
BLACK
6
CONTINUOUS
10
132.504
20
-96.032
11
132.505
21
-96.0305
0
LINE
8
BLACK
6
CONTINUOUS
10
132.505
20
-96.0305
11
132.553
21
-95.9829
0
LINE
8
BLACK
6
CONTINUOUS
10
132.553
20
-95.9829
11
132.571
21
-95.97
0
LINE
8
BLACK
6
CONTINUOUS
10
132.571
20
-95.97
11
132.572
21
-95.9688
0
LINE
8
BLACK
6
CONTINUOUS
10
132.572
20
-95.9688
11
132.668
21
-95.9212
0
LINE
8
BLACK
6
CONTINUOUS
10
132.668
20
-95.9212
11
132.692
21
-95.9138
0
LINE
8
BLACK
6
CONTINUOUS
10
132.692
20
-95.9138
11
132.697
21
-95.9148
0
LINE
8
BLACK
6
CONTINUOUS
10
132.697
20
-95.9148
11
132.701
21
-95.9133
0
LINE
8
BLACK
6
CONTINUOUS
10
132.701
20
-95.9133
11
132.796
21
-95.9133
0
LINE
8
BLACK
6
CONTINUOUS
10
132.796
20
-95.9133
11
132.818
21
-95.9172
0
LINE
8
BLACK
6
CONTINUOUS
10
153.709
20
-95.6619
11
153.712
21
-95.6615
0
LINE
8
BLACK
6
CONTINUOUS
10
153.712
20
-95.6615
11
153.902
21
-95.7091
0
LINE
8
BLACK
6
CONTINUOUS
10
153.902
20
-95.7091
11
153.925
21
-95.7194
0
LINE
8
BLACK
6
CONTINUOUS
10
153.925
20
-95.7194
11
153.926
21
-95.7195
0
LINE
8
BLACK
6
CONTINUOUS
10
153.926
20
-95.7195
11
154.069
21
-95.8147
0
LINE
8
BLACK
6
CONTINUOUS
10
154.069
20
-95.8147
11
154.077
21
-95.8226
0
LINE
8
BLACK
6
CONTINUOUS
10
154.077
20
-95.8226
11
154.08
21
-95.8241
0
LINE
8
BLACK
6
CONTINUOUS
10
154.08
20
-95.8241
11
154.128
21
-95.8717
0
LINE
8
BLACK
6
CONTINUOUS
10
154.128
20
-95.8717
11
154.141
21
-95.8901
0
LINE
8
BLACK
6
CONTINUOUS
10
154.141
20
-95.8901
11
154.142
21
-95.8912
0
LINE
8
BLACK
6
CONTINUOUS
10
154.142
20
-95.8912
11
154.189
21
-95.9865
0
LINE
8
BLACK
6
CONTINUOUS
10
154.189
20
-95.9865
11
154.197
21
-96.0114
0
LINE
8
BLACK
6
CONTINUOUS
10
154.197
20
-96.0114
11
154.196
21
-96.0158
0
LINE
8
BLACK
6
CONTINUOUS
10
154.196
20
-96.0158
11
154.197
21
-96.02
0
LINE
8
BLACK
6
CONTINUOUS
10
154.197
20
-96.02
11
154.197
21
-96.2105
0
LINE
8
BLACK
6
CONTINUOUS
10
154.197
20
-96.2105
11
154.193
21
-96.2361
0
LINE
8
BLACK
6
CONTINUOUS
10
154.193
20
-96.2361
11
154.16
21
-96.2754
0
LINE
8
BLACK
6
CONTINUOUS
10
154.16
20
-96.2754
11
154.109
21
-96.2843
0
LINE
8
BLACK
6
CONTINUOUS
10
154.109
20
-96.2843
11
154.065
21
-96.2587
0
LINE
8
BLACK
6
CONTINUOUS
10
154.065
20
-96.2587
11
154.047
21
-96.2105
0
LINE
8
BLACK
6
CONTINUOUS
10
154.047
20
-96.2105
11
154.047
21
-96.0377
0
LINE
8
BLACK
6
CONTINUOUS
10
154.047
20
-96.0377
11
154.013
21
-95.9692
0
LINE
8
BLACK
6
CONTINUOUS
10
154.013
20
-95.9692
11
153.979
21
-95.9354
0
LINE
8
BLACK
6
CONTINUOUS
10
153.979
20
-95.9354
11
153.853
21
-95.8515
0
LINE
8
BLACK
6
CONTINUOUS
10
153.853
20
-95.8515
11
153.779
21
-95.833
0
LINE
8
BLACK
6
CONTINUOUS
10
153.779
20
-95.833
11
153.809
21
-95.8912
0
LINE
8
BLACK
6
CONTINUOUS
10
153.809
20
-95.8912
11
153.816
21
-95.9162
0
LINE
8
BLACK
6
CONTINUOUS
10
153.816
20
-95.9162
11
153.815
21
-95.9205
0
LINE
8
BLACK
6
CONTINUOUS
10
153.815
20
-95.9205
11
153.816
21
-95.9248
0
LINE
8
BLACK
6
CONTINUOUS
10
153.816
20
-95.9248
11
153.816
21
-96.1152
0
LINE
8
BLACK
6
CONTINUOUS
10
153.816
20
-96.1152
11
153.812
21
-96.1409
0
LINE
8
BLACK
6
CONTINUOUS
10
153.812
20
-96.1409
11
153.809
21
-96.1443
0
LINE
8
BLACK
6
CONTINUOUS
10
153.809
20
-96.1443
11
153.809
21
-96.1488
0
LINE
8
BLACK
6
CONTINUOUS
10
153.809
20
-96.1488
11
153.761
21
-96.244
0
LINE
8
BLACK
6
CONTINUOUS
10
153.761
20
-96.244
11
153.748
21
-96.262
0
LINE
8
BLACK
6
CONTINUOUS
10
153.748
20
-96.262
11
153.747
21
-96.2635
0
LINE
8
BLACK
6
CONTINUOUS
10
153.747
20
-96.2635
11
153.699
21
-96.3111
0
LINE
8
BLACK
6
CONTINUOUS
10
153.699
20
-96.3111
11
153.681
21
-96.324
0
LINE
8
BLACK
6
CONTINUOUS
10
153.681
20
-96.324
11
153.68
21
-96.3252
0
LINE
8
BLACK
6
CONTINUOUS
10
153.68
20
-96.3252
11
153.584
21
-96.3728
0
LINE
8
BLACK
6
CONTINUOUS
10
153.584
20
-96.3728
11
153.56
21
-96.3802
0
LINE
8
BLACK
6
CONTINUOUS
10
153.56
20
-96.3802
11
153.555
21
-96.3792
0
LINE
8
BLACK
6
CONTINUOUS
10
153.555
20
-96.3792
11
153.551
21
-96.3807
0
LINE
8
BLACK
6
CONTINUOUS
10
153.551
20
-96.3807
11
153.313
21
-96.3807
0
LINE
8
BLACK
6
CONTINUOUS
10
153.313
20
-96.3807
11
153.287
21
-96.3762
0
LINE
8
BLACK
6
CONTINUOUS
10
153.287
20
-96.3762
11
153.284
21
-96.3733
0
LINE
8
BLACK
6
CONTINUOUS
10
153.284
20
-96.3733
11
153.279
21
-96.3728
0
LINE
8
BLACK
6
CONTINUOUS
10
153.279
20
-96.3728
11
153.184
21
-96.3252
0
LINE
8
BLACK
6
CONTINUOUS
10
153.184
20
-96.3252
11
153.166
21
-96.3118
0
LINE
8
BLACK
6
CONTINUOUS
10
153.166
20
-96.3118
11
153.165
21
-96.3111
0
LINE
8
BLACK
6
CONTINUOUS
10
153.165
20
-96.3111
11
153.117
21
-96.2635
0
LINE
8
BLACK
6
CONTINUOUS
10
153.117
20
-96.2635
11
153.104
21
-96.2451
0
LINE
8
BLACK
6
CONTINUOUS
10
153.104
20
-96.2451
11
153.103
21
-96.244
0
LINE
8
BLACK
6
CONTINUOUS
10
153.103
20
-96.244
11
153.055
21
-96.1488
0
LINE
8
BLACK
6
CONTINUOUS
10
153.055
20
-96.1488
11
153.048
21
-96.1238
0
LINE
8
BLACK
6
CONTINUOUS
10
153.048
20
-96.1238
11
153.049
21
-96.1195
0
LINE
8
BLACK
6
CONTINUOUS
10
153.049
20
-96.1195
11
153.047
21
-96.1152
0
LINE
8
BLACK
6
CONTINUOUS
10
153.047
20
-96.1152
11
153.047
21
-95.9248
0
LINE
8
BLACK
6
CONTINUOUS
10
153.047
20
-95.9248
11
153.052
21
-95.8991
0
LINE
8
BLACK
6
CONTINUOUS
10
153.052
20
-95.8991
11
153.055
21
-95.8957
0
LINE
8
BLACK
6
CONTINUOUS
10
153.055
20
-95.8957
11
153.055
21
-95.8912
0
LINE
8
BLACK
6
CONTINUOUS
10
153.055
20
-95.8912
11
153.103
21
-95.796
0
LINE
8
BLACK
6
CONTINUOUS
10
153.103
20
-95.796
11
153.116
21
-95.778
0
LINE
8
BLACK
6
CONTINUOUS
10
153.116
20
-95.778
11
153.117
21
-95.7765
0
LINE
8
BLACK
6
CONTINUOUS
10
153.117
20
-95.7765
11
153.165
21
-95.7289
0
LINE
8
BLACK
6
CONTINUOUS
10
153.165
20
-95.7289
11
153.183
21
-95.716
0
LINE
8
BLACK
6
CONTINUOUS
10
153.183
20
-95.716
11
153.184
21
-95.7148
0
LINE
8
BLACK
6
CONTINUOUS
10
153.184
20
-95.7148
11
153.279
21
-95.6672
0
LINE
8
BLACK
6
CONTINUOUS
10
153.279
20
-95.6672
11
153.304
21
-95.6598
0
LINE
8
BLACK
6
CONTINUOUS
10
153.304
20
-95.6598
11
153.309
21
-95.6608
0
LINE
8
BLACK
6
CONTINUOUS
10
153.309
20
-95.6608
11
153.313
21
-95.6593
0
LINE
8
BLACK
6
CONTINUOUS
10
153.313
20
-95.6593
11
153.694
21
-95.6593
0
LINE
8
BLACK
6
CONTINUOUS
10
153.694
20
-95.6593
11
153.709
21
-95.6619
0
LINE
8
BLACK
6
CONTINUOUS
10
153.331
20
-95.8093
11
153.262
21
-95.8435
0
LINE
8
BLACK
6
CONTINUOUS
10
153.262
20
-95.8435
11
153.232
21
-95.8739
0
LINE
8
BLACK
6
CONTINUOUS
10
153.232
20
-95.8739
11
153.197
21
-95.9425
0
LINE
8
BLACK
6
CONTINUOUS
10
153.197
20
-95.9425
11
153.197
21
-96.0975
0
LINE
8
BLACK
6
CONTINUOUS
10
153.197
20
-96.0975
11
153.232
21
-96.166
0
LINE
8
BLACK
6
CONTINUOUS
10
153.232
20
-96.166
11
153.262
21
-96.1965
0
LINE
8
BLACK
6
CONTINUOUS
10
153.262
20
-96.1965
11
153.331
21
-96.2307
0
LINE
8
BLACK
6
CONTINUOUS
10
153.331
20
-96.2307
11
153.533
21
-96.2307
0
LINE
8
BLACK
6
CONTINUOUS
10
153.533
20
-96.2307
11
153.602
21
-96.1965
0
LINE
8
BLACK
6
CONTINUOUS
10
153.602
20
-96.1965
11
153.632
21
-96.166
0
LINE
8
BLACK
6
CONTINUOUS
10
153.632
20
-96.166
11
153.666
21
-96.0975
0
LINE
8
BLACK
6
CONTINUOUS
10
153.666
20
-96.0975
11
153.666
21
-95.9425
0
LINE
8
BLACK
6
CONTINUOUS
10
153.666
20
-95.9425
11
153.632
21
-95.8739
0
LINE
8
BLACK
6
CONTINUOUS
10
153.632
20
-95.8739
11
153.602
21
-95.8435
0
LINE
8
BLACK
6
CONTINUOUS
10
153.602
20
-95.8435
11
153.533
21
-95.8093
0
LINE
8
BLACK
6
CONTINUOUS
10
153.533
20
-95.8093
11
153.331
21
-95.8093
0
LINE
8
BLACK
6
CONTINUOUS
10
135.514
20
-96.2216
11
135.532
21
-96.264
0
LINE
8
BLACK
6
CONTINUOUS
10
135.532
20
-96.264
11
135.514
21
-96.3064
0
LINE
8
BLACK
6
CONTINUOUS
10
135.514
20
-96.3064
11
135.472
21
-96.324
0
LINE
8
BLACK
6
CONTINUOUS
10
135.472
20
-96.324
11
135.191
21
-96.324
0
LINE
8
BLACK
6
CONTINUOUS
10
135.191
20
-96.324
11
135.148
21
-96.3064
0
LINE
8
BLACK
6
CONTINUOUS
10
135.148
20
-96.3064
11
135.131
21
-96.264
0
LINE
8
BLACK
6
CONTINUOUS
10
135.131
20
-96.264
11
135.148
21
-96.2216
0
LINE
8
BLACK
6
CONTINUOUS
10
135.148
20
-96.2216
11
135.191
21
-96.204
0
LINE
8
BLACK
6
CONTINUOUS
10
135.191
20
-96.204
11
135.472
21
-96.204
0
LINE
8
BLACK
6
CONTINUOUS
10
135.472
20
-96.204
11
135.514
21
-96.2216
0
LINE
8
BLACK
6
CONTINUOUS
10
145.322
20
-95.4098
11
145.325
21
-95.4127
0
LINE
8
BLACK
6
CONTINUOUS
10
145.325
20
-95.4127
11
145.329
21
-95.4132
0
LINE
8
BLACK
6
CONTINUOUS
10
145.329
20
-95.4132
11
145.425
21
-95.4608
0
LINE
8
BLACK
6
CONTINUOUS
10
145.425
20
-95.4608
11
145.443
21
-95.4742
0
LINE
8
BLACK
6
CONTINUOUS
10
145.443
20
-95.4742
11
145.444
21
-95.4749
0
LINE
8
BLACK
6
CONTINUOUS
10
145.444
20
-95.4749
11
145.492
21
-95.5225
0
LINE
8
BLACK
6
CONTINUOUS
10
145.492
20
-95.5225
11
145.505
21
-95.5409
0
LINE
8
BLACK
6
CONTINUOUS
10
145.505
20
-95.5409
11
145.506
21
-95.542
0
LINE
8
BLACK
6
CONTINUOUS
10
145.506
20
-95.542
11
145.553
21
-95.6372
0
LINE
8
BLACK
6
CONTINUOUS
10
145.553
20
-95.6372
11
145.561
21
-95.6622
0
LINE
8
BLACK
6
CONTINUOUS
10
145.561
20
-95.6622
11
145.56
21
-95.6665
0
LINE
8
BLACK
6
CONTINUOUS
10
145.56
20
-95.6665
11
145.561
21
-95.6708
0
LINE
8
BLACK
6
CONTINUOUS
10
145.561
20
-95.6708
11
145.561
21
-95.9565
0
LINE
8
BLACK
6
CONTINUOUS
10
145.561
20
-95.9565
11
145.557
21
-95.9821
0
LINE
8
BLACK
6
CONTINUOUS
10
145.557
20
-95.9821
11
145.554
21
-95.9856
0
LINE
8
BLACK
6
CONTINUOUS
10
145.554
20
-95.9856
11
145.553
21
-95.99
0
LINE
8
BLACK
6
CONTINUOUS
10
145.553
20
-95.99
11
145.506
21
-96.0853
0
LINE
8
BLACK
6
CONTINUOUS
10
145.506
20
-96.0853
11
145.492
21
-96.1033
0
LINE
8
BLACK
6
CONTINUOUS
10
145.492
20
-96.1033
11
145.492
21
-96.1047
0
LINE
8
BLACK
6
CONTINUOUS
10
145.492
20
-96.1047
11
145.444
21
-96.1524
0
LINE
8
BLACK
6
CONTINUOUS
10
145.444
20
-96.1524
11
145.423
21
-96.1673
0
LINE
8
BLACK
6
CONTINUOUS
10
145.423
20
-96.1673
11
145.372
21
-96.1718
0
LINE
8
BLACK
6
CONTINUOUS
10
145.372
20
-96.1718
11
145.33
21
-96.1424
0
LINE
8
BLACK
6
CONTINUOUS
10
145.33
20
-96.1424
11
145.316
21
-96.0928
0
LINE
8
BLACK
6
CONTINUOUS
10
145.316
20
-96.0928
11
145.338
21
-96.0463
0
LINE
8
BLACK
6
CONTINUOUS
10
145.338
20
-96.0463
11
145.377
21
-96.0073
0
LINE
8
BLACK
6
CONTINUOUS
10
145.377
20
-96.0073
11
145.411
21
-95.9388
0
LINE
8
BLACK
6
CONTINUOUS
10
145.411
20
-95.9388
11
145.411
21
-95.6885
0
LINE
8
BLACK
6
CONTINUOUS
10
145.411
20
-95.6885
11
145.377
21
-95.6199
0
LINE
8
BLACK
6
CONTINUOUS
10
145.377
20
-95.6199
11
145.347
21
-95.5895
0
LINE
8
BLACK
6
CONTINUOUS
10
145.347
20
-95.5895
11
145.278
21
-95.5553
0
LINE
8
BLACK
6
CONTINUOUS
10
145.278
20
-95.5553
11
145.076
21
-95.5553
0
LINE
8
BLACK
6
CONTINUOUS
10
145.076
20
-95.5553
11
145.007
21
-95.5895
0
LINE
8
BLACK
6
CONTINUOUS
10
145.007
20
-95.5895
11
144.977
21
-95.6199
0
LINE
8
BLACK
6
CONTINUOUS
10
144.977
20
-95.6199
11
144.942
21
-95.6885
0
LINE
8
BLACK
6
CONTINUOUS
10
144.942
20
-95.6885
11
144.942
21
-95.8136
0
LINE
8
BLACK
6
CONTINUOUS
10
144.942
20
-95.8136
11
144.94
21
-95.8247
0
LINE
8
BLACK
6
CONTINUOUS
10
144.94
20
-95.8247
11
144.941
21
-95.8282
0
LINE
8
BLACK
6
CONTINUOUS
10
144.941
20
-95.8282
11
144.939
21
-95.8308
0
LINE
8
BLACK
6
CONTINUOUS
10
144.939
20
-95.8308
11
144.938
21
-95.8393
0
LINE
8
BLACK
6
CONTINUOUS
10
144.938
20
-95.8393
11
144.925
21
-95.8548
0
LINE
8
BLACK
6
CONTINUOUS
10
144.925
20
-95.8548
11
144.914
21
-95.8721
0
LINE
8
BLACK
6
CONTINUOUS
10
144.914
20
-95.8721
11
144.909
21
-95.874
0
LINE
8
BLACK
6
CONTINUOUS
10
144.909
20
-95.874
11
144.905
21
-95.8786
0
LINE
8
BLACK
6
CONTINUOUS
10
144.905
20
-95.8786
11
144.885
21
-95.8821
0
LINE
8
BLACK
6
CONTINUOUS
10
144.885
20
-95.8821
11
144.866
21
-95.8886
0
LINE
8
BLACK
6
CONTINUOUS
10
144.866
20
-95.8886
11
144.86
21
-95.8864
0
LINE
8
BLACK
6
CONTINUOUS
10
144.86
20
-95.8864
11
144.854
21
-95.8875
0
LINE
8
BLACK
6
CONTINUOUS
10
144.854
20
-95.8875
11
144.837
21
-95.8774
0
LINE
8
BLACK
6
CONTINUOUS
10
144.837
20
-95.8774
11
144.818
21
-95.8701
0
LINE
8
BLACK
6
CONTINUOUS
10
144.818
20
-95.8701
11
144.561
21
-95.6456
0
LINE
8
BLACK
6
CONTINUOUS
10
144.561
20
-95.6456
11
144.561
21
-96.0993
0
LINE
8
BLACK
6
CONTINUOUS
10
144.561
20
-96.0993
11
144.557
21
-96.125
0
LINE
8
BLACK
6
CONTINUOUS
10
144.557
20
-96.125
11
144.524
21
-96.1643
0
LINE
8
BLACK
6
CONTINUOUS
10
144.524
20
-96.1643
11
144.473
21
-96.1732
0
LINE
8
BLACK
6
CONTINUOUS
10
144.473
20
-96.1732
11
144.429
21
-96.1475
0
LINE
8
BLACK
6
CONTINUOUS
10
144.429
20
-96.1475
11
144.411
21
-96.0993
0
LINE
8
BLACK
6
CONTINUOUS
10
144.411
20
-96.0993
11
144.411
21
-95.4803
0
LINE
8
BLACK
6
CONTINUOUS
10
144.411
20
-95.4803
11
144.413
21
-95.4692
0
LINE
8
BLACK
6
CONTINUOUS
10
144.413
20
-95.4692
11
144.413
21
-95.4657
0
LINE
8
BLACK
6
CONTINUOUS
10
144.413
20
-95.4657
11
144.414
21
-95.4631
0
LINE
8
BLACK
6
CONTINUOUS
10
144.414
20
-95.4631
11
144.416
21
-95.4546
0
LINE
8
BLACK
6
CONTINUOUS
10
144.416
20
-95.4546
11
144.429
21
-95.4391
0
LINE
8
BLACK
6
CONTINUOUS
10
144.429
20
-95.4391
11
144.439
21
-95.4218
0
LINE
8
BLACK
6
CONTINUOUS
10
144.439
20
-95.4218
11
144.445
21
-95.4199
0
LINE
8
BLACK
6
CONTINUOUS
10
144.445
20
-95.4199
11
144.449
21
-95.4153
0
LINE
8
BLACK
6
CONTINUOUS
10
144.449
20
-95.4153
11
144.469
21
-95.4118
0
LINE
8
BLACK
6
CONTINUOUS
10
144.469
20
-95.4118
11
144.488
21
-95.4053
0
LINE
8
BLACK
6
CONTINUOUS
10
144.488
20
-95.4053
11
144.494
21
-95.4075
0
LINE
8
BLACK
6
CONTINUOUS
10
144.494
20
-95.4075
11
144.499
21
-95.4064
0
LINE
8
BLACK
6
CONTINUOUS
10
144.499
20
-95.4064
11
144.517
21
-95.4165
0
LINE
8
BLACK
6
CONTINUOUS
10
144.517
20
-95.4165
11
144.536
21
-95.4238
0
LINE
8
BLACK
6
CONTINUOUS
10
144.536
20
-95.4238
11
144.796
21
-95.6513
0
LINE
8
BLACK
6
CONTINUOUS
10
144.796
20
-95.6513
11
144.797
21
-95.6451
0
LINE
8
BLACK
6
CONTINUOUS
10
144.797
20
-95.6451
11
144.8
21
-95.6417
0
LINE
8
BLACK
6
CONTINUOUS
10
144.8
20
-95.6417
11
144.8
21
-95.6372
0
LINE
8
BLACK
6
CONTINUOUS
10
144.8
20
-95.6372
11
144.848
21
-95.542
0
LINE
8
BLACK
6
CONTINUOUS
10
144.848
20
-95.542
11
144.861
21
-95.524
0
LINE
8
BLACK
6
CONTINUOUS
10
144.861
20
-95.524
11
144.862
21
-95.5225
0
LINE
8
BLACK
6
CONTINUOUS
10
144.862
20
-95.5225
11
144.91
21
-95.4749
0
LINE
8
BLACK
6
CONTINUOUS
10
144.91
20
-95.4749
11
144.928
21
-95.462
0
LINE
8
BLACK
6
CONTINUOUS
10
144.928
20
-95.462
11
144.929
21
-95.4608
0
LINE
8
BLACK
6
CONTINUOUS
10
144.929
20
-95.4608
11
145.024
21
-95.4132
0
LINE
8
BLACK
6
CONTINUOUS
10
145.024
20
-95.4132
11
145.049
21
-95.4058
0
LINE
8
BLACK
6
CONTINUOUS
10
145.049
20
-95.4058
11
145.054
21
-95.4068
0
LINE
8
BLACK
6
CONTINUOUS
10
145.054
20
-95.4068
11
145.058
21
-95.4053
0
LINE
8
BLACK
6
CONTINUOUS
10
145.058
20
-95.4053
11
145.296
21
-95.4053
0
LINE
8
BLACK
6
CONTINUOUS
10
145.296
20
-95.4053
11
145.322
21
-95.4098
0
LINE
8
BLACK
6
CONTINUOUS
10
141.4
20
-95.3585
11
141.418
21
-95.4067
0
LINE
8
BLACK
6
CONTINUOUS
10
141.418
20
-95.4067
11
141.418
21
-95.4745
0
LINE
8
BLACK
6
CONTINUOUS
10
141.418
20
-95.4745
11
141.676
21
-95.4745
0
LINE
8
BLACK
6
CONTINUOUS
10
141.676
20
-95.4745
11
141.702
21
-95.479
0
LINE
8
BLACK
6
CONTINUOUS
10
141.702
20
-95.479
11
141.741
21
-95.512
0
LINE
8
BLACK
6
CONTINUOUS
10
141.741
20
-95.512
11
141.75
21
-95.5625
0
LINE
8
BLACK
6
CONTINUOUS
10
141.75
20
-95.5625
11
141.725
21
-95.607
0
LINE
8
BLACK
6
CONTINUOUS
10
141.725
20
-95.607
11
141.676
21
-95.6245
0
LINE
8
BLACK
6
CONTINUOUS
10
141.676
20
-95.6245
11
141.418
21
-95.6245
0
LINE
8
BLACK
6
CONTINUOUS
10
141.418
20
-95.6245
11
141.418
21
-96.0257
0
LINE
8
BLACK
6
CONTINUOUS
10
141.418
20
-96.0257
11
141.414
21
-96.0514
0
LINE
8
BLACK
6
CONTINUOUS
10
141.414
20
-96.0514
11
141.41
21
-96.0558
0
LINE
8
BLACK
6
CONTINUOUS
10
141.41
20
-96.0558
11
141.409
21
-96.0614
0
LINE
8
BLACK
6
CONTINUOUS
10
141.409
20
-96.0614
11
141.394
21
-96.075
0
LINE
8
BLACK
6
CONTINUOUS
10
141.394
20
-96.075
11
141.381
21
-96.0907
0
LINE
8
BLACK
6
CONTINUOUS
10
141.381
20
-96.0907
11
141.375
21
-96.0917
0
LINE
8
BLACK
6
CONTINUOUS
10
141.375
20
-96.0917
11
141.371
21
-96.0955
0
LINE
8
BLACK
6
CONTINUOUS
10
141.371
20
-96.0955
11
141.35
21
-96.096
0
LINE
8
BLACK
6
CONTINUOUS
10
141.35
20
-96.096
11
141.33
21
-96.0996
0
LINE
8
BLACK
6
CONTINUOUS
10
141.33
20
-96.0996
11
141.325
21
-96.0967
0
LINE
8
BLACK
6
CONTINUOUS
10
141.325
20
-96.0967
11
141.319
21
-96.0969
0
LINE
8
BLACK
6
CONTINUOUS
10
141.319
20
-96.0969
11
140.605
21
-95.8588
0
LINE
8
BLACK
6
CONTINUOUS
10
140.605
20
-95.8588
11
140.582
21
-95.8464
0
LINE
8
BLACK
6
CONTINUOUS
10
140.582
20
-95.8464
11
140.555
21
-95.8027
0
LINE
8
BLACK
6
CONTINUOUS
10
140.555
20
-95.8027
11
140.563
21
-95.7519
0
LINE
8
BLACK
6
CONTINUOUS
10
140.563
20
-95.7519
11
140.601
21
-95.7179
0
LINE
8
BLACK
6
CONTINUOUS
10
140.601
20
-95.7179
11
140.652
21
-95.7165
0
LINE
8
BLACK
6
CONTINUOUS
10
140.652
20
-95.7165
11
141.268
21
-95.9217
0
LINE
8
BLACK
6
CONTINUOUS
10
141.268
20
-95.9217
11
141.268
21
-95.6245
0
LINE
8
BLACK
6
CONTINUOUS
10
141.268
20
-95.6245
11
141.01
21
-95.6245
0
LINE
8
BLACK
6
CONTINUOUS
10
141.01
20
-95.6245
11
140.984
21
-95.62
0
LINE
8
BLACK
6
CONTINUOUS
10
140.984
20
-95.62
11
140.945
21
-95.587
0
LINE
8
BLACK
6
CONTINUOUS
10
140.945
20
-95.587
11
140.936
21
-95.5365
0
LINE
8
BLACK
6
CONTINUOUS
10
140.936
20
-95.5365
11
140.962
21
-95.4921
0
LINE
8
BLACK
6
CONTINUOUS
10
140.962
20
-95.4921
11
141.01
21
-95.4745
0
LINE
8
BLACK
6
CONTINUOUS
10
141.01
20
-95.4745
11
141.268
21
-95.4745
0
LINE
8
BLACK
6
CONTINUOUS
10
141.268
20
-95.4745
11
141.268
21
-95.4067
0
LINE
8
BLACK
6
CONTINUOUS
10
141.268
20
-95.4067
11
141.273
21
-95.381
0
LINE
8
BLACK
6
CONTINUOUS
10
141.273
20
-95.381
11
141.306
21
-95.3417
0
LINE
8
BLACK
6
CONTINUOUS
10
141.306
20
-95.3417
11
141.356
21
-95.3328
0
LINE
8
BLACK
6
CONTINUOUS
10
141.356
20
-95.3328
11
141.4
21
-95.3585
0
LINE
8
BLACK
6
CONTINUOUS
10
156.194
20
-95.7426
11
156.211
21
-95.785
0
LINE
8
BLACK
6
CONTINUOUS
10
156.211
20
-95.785
11
156.194
21
-95.8274
0
LINE
8
BLACK
6
CONTINUOUS
10
156.194
20
-95.8274
11
156.151
21
-95.845
0
LINE
8
BLACK
6
CONTINUOUS
10
156.151
20
-95.845
11
155.629
21
-95.845
0
LINE
8
BLACK
6
CONTINUOUS
10
155.629
20
-95.845
11
155.586
21
-95.8274
0
LINE
8
BLACK
6
CONTINUOUS
10
155.586
20
-95.8274
11
155.569
21
-95.785
0
LINE
8
BLACK
6
CONTINUOUS
10
155.569
20
-95.785
11
155.586
21
-95.7426
0
LINE
8
BLACK
6
CONTINUOUS
10
155.586
20
-95.7426
11
155.629
21
-95.725
0
LINE
8
BLACK
6
CONTINUOUS
10
155.629
20
-95.725
11
156.151
21
-95.725
0
LINE
8
BLACK
6
CONTINUOUS
10
156.151
20
-95.725
11
156.194
21
-95.7426
0
LINE
8
BLACK
6
CONTINUOUS
10
147.249
20
-95.7136
11
147.267
21
-95.756
0
LINE
8
BLACK
6
CONTINUOUS
10
147.267
20
-95.756
11
147.249
21
-95.7984
0
LINE
8
BLACK
6
CONTINUOUS
10
147.249
20
-95.7984
11
147.207
21
-95.816
0
LINE
8
BLACK
6
CONTINUOUS
10
147.207
20
-95.816
11
146.925
21
-95.816
0
LINE
8
BLACK
6
CONTINUOUS
10
146.925
20
-95.816
11
146.883
21
-95.7984
0
LINE
8
BLACK
6
CONTINUOUS
10
146.883
20
-95.7984
11
146.865
21
-95.756
0
LINE
8
BLACK
6
CONTINUOUS
10
146.865
20
-95.756
11
146.883
21
-95.7136
0
LINE
8
BLACK
6
CONTINUOUS
10
146.883
20
-95.7136
11
146.925
21
-95.696
0
LINE
8
BLACK
6
CONTINUOUS
10
146.925
20
-95.696
11
147.207
21
-95.696
0
LINE
8
BLACK
6
CONTINUOUS
10
147.207
20
-95.696
11
147.249
21
-95.7136
0
LINE
8
BLACK
6
CONTINUOUS
10
139.226
20
-95.0288
11
139.229
21
-95.0317
0
LINE
8
BLACK
6
CONTINUOUS
10
139.229
20
-95.0317
11
139.233
21
-95.0322
0
LINE
8
BLACK
6
CONTINUOUS
10
139.233
20
-95.0322
11
139.329
21
-95.0798
0
LINE
8
BLACK
6
CONTINUOUS
10
139.329
20
-95.0798
11
139.347
21
-95.0932
0
LINE
8
BLACK
6
CONTINUOUS
10
139.347
20
-95.0932
11
139.348
21
-95.0939
0
LINE
8
BLACK
6
CONTINUOUS
10
139.348
20
-95.0939
11
139.396
21
-95.1415
0
LINE
8
BLACK
6
CONTINUOUS
10
139.396
20
-95.1415
11
139.409
21
-95.1599
0
LINE
8
BLACK
6
CONTINUOUS
10
139.409
20
-95.1599
11
139.41
21
-95.161
0
LINE
8
BLACK
6
CONTINUOUS
10
139.41
20
-95.161
11
139.457
21
-95.2562
0
LINE
8
BLACK
6
CONTINUOUS
10
139.457
20
-95.2562
11
139.465
21
-95.2812
0
LINE
8
BLACK
6
CONTINUOUS
10
139.465
20
-95.2812
11
139.464
21
-95.2855
0
LINE
8
BLACK
6
CONTINUOUS
10
139.464
20
-95.2855
11
139.465
21
-95.2898
0
LINE
8
BLACK
6
CONTINUOUS
10
139.465
20
-95.2898
11
139.465
21
-95.4802
0
LINE
8
BLACK
6
CONTINUOUS
10
139.465
20
-95.4802
11
139.461
21
-95.5059
0
LINE
8
BLACK
6
CONTINUOUS
10
139.461
20
-95.5059
11
139.458
21
-95.5093
0
LINE
8
BLACK
6
CONTINUOUS
10
139.458
20
-95.5093
11
139.457
21
-95.5138
0
LINE
8
BLACK
6
CONTINUOUS
10
139.457
20
-95.5138
11
139.41
21
-95.609
0
LINE
8
BLACK
6
CONTINUOUS
10
139.41
20
-95.609
11
139.396
21
-95.627
0
LINE
8
BLACK
6
CONTINUOUS
10
139.396
20
-95.627
11
139.396
21
-95.6285
0
LINE
8
BLACK
6
CONTINUOUS
10
139.396
20
-95.6285
11
139.348
21
-95.6761
0
LINE
8
BLACK
6
CONTINUOUS
10
139.348
20
-95.6761
11
139.33
21
-95.689
0
LINE
8
BLACK
6
CONTINUOUS
10
139.33
20
-95.689
11
139.329
21
-95.6902
0
LINE
8
BLACK
6
CONTINUOUS
10
139.329
20
-95.6902
11
139.233
21
-95.7378
0
LINE
8
BLACK
6
CONTINUOUS
10
139.233
20
-95.7378
11
139.208
21
-95.7452
0
LINE
8
BLACK
6
CONTINUOUS
10
139.208
20
-95.7452
11
139.204
21
-95.7442
0
LINE
8
BLACK
6
CONTINUOUS
10
139.204
20
-95.7442
11
139.2
21
-95.7457
0
LINE
8
BLACK
6
CONTINUOUS
10
139.2
20
-95.7457
11
138.819
21
-95.7457
0
LINE
8
BLACK
6
CONTINUOUS
10
138.819
20
-95.7457
11
138.804
21
-95.7431
0
LINE
8
BLACK
6
CONTINUOUS
10
138.804
20
-95.7431
11
138.801
21
-95.7435
0
LINE
8
BLACK
6
CONTINUOUS
10
138.801
20
-95.7435
11
138.61
21
-95.6959
0
LINE
8
BLACK
6
CONTINUOUS
10
138.61
20
-95.6959
11
138.587
21
-95.6856
0
LINE
8
BLACK
6
CONTINUOUS
10
138.587
20
-95.6856
11
138.587
21
-95.6855
0
LINE
8
BLACK
6
CONTINUOUS
10
138.587
20
-95.6855
11
138.444
21
-95.5903
0
LINE
8
BLACK
6
CONTINUOUS
10
138.444
20
-95.5903
11
138.436
21
-95.5824
0
LINE
8
BLACK
6
CONTINUOUS
10
138.436
20
-95.5824
11
138.433
21
-95.5809
0
LINE
8
BLACK
6
CONTINUOUS
10
138.433
20
-95.5809
11
138.385
21
-95.5333
0
LINE
8
BLACK
6
CONTINUOUS
10
138.385
20
-95.5333
11
138.372
21
-95.5149
0
LINE
8
BLACK
6
CONTINUOUS
10
138.372
20
-95.5149
11
138.371
21
-95.5138
0
LINE
8
BLACK
6
CONTINUOUS
10
138.371
20
-95.5138
11
138.323
21
-95.4185
0
LINE
8
BLACK
6
CONTINUOUS
10
138.323
20
-95.4185
11
138.316
21
-95.3936
0
LINE
8
BLACK
6
CONTINUOUS
10
138.316
20
-95.3936
11
138.317
21
-95.3892
0
LINE
8
BLACK
6
CONTINUOUS
10
138.317
20
-95.3892
11
138.315
21
-95.385
0
LINE
8
BLACK
6
CONTINUOUS
10
138.315
20
-95.385
11
138.315
21
-95.1945
0
LINE
8
BLACK
6
CONTINUOUS
10
138.315
20
-95.1945
11
138.32
21
-95.1689
0
LINE
8
BLACK
6
CONTINUOUS
10
138.32
20
-95.1689
11
138.353
21
-95.1296
0
LINE
8
BLACK
6
CONTINUOUS
10
138.353
20
-95.1296
11
138.403
21
-95.1207
0
LINE
8
BLACK
6
CONTINUOUS
10
138.403
20
-95.1207
11
138.448
21
-95.1463
0
LINE
8
BLACK
6
CONTINUOUS
10
138.448
20
-95.1463
11
138.465
21
-95.1945
0
LINE
8
BLACK
6
CONTINUOUS
10
138.465
20
-95.1945
11
138.465
21
-95.3673
0
LINE
8
BLACK
6
CONTINUOUS
10
138.465
20
-95.3673
11
138.5
21
-95.4358
0
LINE
8
BLACK
6
CONTINUOUS
10
138.5
20
-95.4358
11
138.533
21
-95.4696
0
LINE
8
BLACK
6
CONTINUOUS
10
138.533
20
-95.4696
11
138.659
21
-95.5535
0
LINE
8
BLACK
6
CONTINUOUS
10
138.659
20
-95.5535
11
138.733
21
-95.572
0
LINE
8
BLACK
6
CONTINUOUS
10
138.733
20
-95.572
11
138.704
21
-95.5138
0
LINE
8
BLACK
6
CONTINUOUS
10
138.704
20
-95.5138
11
138.697
21
-95.4888
0
LINE
8
BLACK
6
CONTINUOUS
10
138.697
20
-95.4888
11
138.698
21
-95.4845
0
LINE
8
BLACK
6
CONTINUOUS
10
138.698
20
-95.4845
11
138.696
21
-95.4802
0
LINE
8
BLACK
6
CONTINUOUS
10
138.696
20
-95.4802
11
138.696
21
-95.2898
0
LINE
8
BLACK
6
CONTINUOUS
10
138.696
20
-95.2898
11
138.701
21
-95.2641
0
LINE
8
BLACK
6
CONTINUOUS
10
138.701
20
-95.2641
11
138.704
21
-95.2607
0
LINE
8
BLACK
6
CONTINUOUS
10
138.704
20
-95.2607
11
138.704
21
-95.2562
0
LINE
8
BLACK
6
CONTINUOUS
10
138.704
20
-95.2562
11
138.752
21
-95.161
0
LINE
8
BLACK
6
CONTINUOUS
10
138.752
20
-95.161
11
138.765
21
-95.143
0
LINE
8
BLACK
6
CONTINUOUS
10
138.765
20
-95.143
11
138.766
21
-95.1415
0
LINE
8
BLACK
6
CONTINUOUS
10
138.766
20
-95.1415
11
138.814
21
-95.0939
0
LINE
8
BLACK
6
CONTINUOUS
10
138.814
20
-95.0939
11
138.832
21
-95.081
0
LINE
8
BLACK
6
CONTINUOUS
10
138.832
20
-95.081
11
138.833
21
-95.0798
0
LINE
8
BLACK
6
CONTINUOUS
10
138.833
20
-95.0798
11
138.928
21
-95.0322
0
LINE
8
BLACK
6
CONTINUOUS
10
138.928
20
-95.0322
11
138.953
21
-95.0248
0
LINE
8
BLACK
6
CONTINUOUS
10
138.953
20
-95.0248
11
138.958
21
-95.0258
0
LINE
8
BLACK
6
CONTINUOUS
10
138.958
20
-95.0258
11
138.962
21
-95.0243
0
LINE
8
BLACK
6
CONTINUOUS
10
138.962
20
-95.0243
11
139.2
21
-95.0243
0
LINE
8
BLACK
6
CONTINUOUS
10
139.2
20
-95.0243
11
139.226
21
-95.0288
0
LINE
8
BLACK
6
CONTINUOUS
10
138.98
20
-95.1743
11
138.911
21
-95.2085
0
LINE
8
BLACK
6
CONTINUOUS
10
138.911
20
-95.2085
11
138.881
21
-95.239
0
LINE
8
BLACK
6
CONTINUOUS
10
138.881
20
-95.239
11
138.846
21
-95.3075
0
LINE
8
BLACK
6
CONTINUOUS
10
138.846
20
-95.3075
11
138.846
21
-95.4625
0
LINE
8
BLACK
6
CONTINUOUS
10
138.846
20
-95.4625
11
138.881
21
-95.531
0
LINE
8
BLACK
6
CONTINUOUS
10
138.881
20
-95.531
11
138.911
21
-95.5615
0
LINE
8
BLACK
6
CONTINUOUS
10
138.911
20
-95.5615
11
138.98
21
-95.5957
0
LINE
8
BLACK
6
CONTINUOUS
10
138.98
20
-95.5957
11
139.182
21
-95.5957
0
LINE
8
BLACK
6
CONTINUOUS
10
139.182
20
-95.5957
11
139.251
21
-95.5615
0
LINE
8
BLACK
6
CONTINUOUS
10
139.251
20
-95.5615
11
139.281
21
-95.531
0
LINE
8
BLACK
6
CONTINUOUS
10
139.281
20
-95.531
11
139.315
21
-95.4625
0
LINE
8
BLACK
6
CONTINUOUS
10
139.315
20
-95.4625
11
139.315
21
-95.3075
0
LINE
8
BLACK
6
CONTINUOUS
10
139.315
20
-95.3075
11
139.281
21
-95.239
0
LINE
8
BLACK
6
CONTINUOUS
10
139.281
20
-95.239
11
139.251
21
-95.2085
0
LINE
8
BLACK
6
CONTINUOUS
10
139.251
20
-95.2085
11
139.182
21
-95.1743
0
LINE
8
BLACK
6
CONTINUOUS
10
139.182
20
-95.1743
11
138.98
21
-95.1743
0
LINE
8
BLACK
6
CONTINUOUS
10
144.682
20
-94.5698
11
144.73
21
-94.6174
0
LINE
8
BLACK
6
CONTINUOUS
10
144.73
20
-94.6174
11
144.745
21
-94.6388
0
LINE
8
BLACK
6
CONTINUOUS
10
144.745
20
-94.6388
11
144.745
21
-94.6432
0
LINE
8
BLACK
6
CONTINUOUS
10
144.745
20
-94.6432
11
144.748
21
-94.6468
0
LINE
8
BLACK
6
CONTINUOUS
10
144.748
20
-94.6468
11
144.796
21
-94.7896
0
LINE
8
BLACK
6
CONTINUOUS
10
144.796
20
-94.7896
11
144.799
21
-94.8118
0
LINE
8
BLACK
6
CONTINUOUS
10
144.799
20
-94.8118
11
144.799
21
-94.8133
0
LINE
8
BLACK
6
CONTINUOUS
10
144.799
20
-94.8133
11
144.799
21
-94.9086
0
LINE
8
BLACK
6
CONTINUOUS
10
144.799
20
-94.9086
11
144.795
21
-94.9307
0
LINE
8
BLACK
6
CONTINUOUS
10
144.795
20
-94.9307
11
144.796
21
-94.9323
0
LINE
8
BLACK
6
CONTINUOUS
10
144.796
20
-94.9323
11
144.748
21
-95.0751
0
LINE
8
BLACK
6
CONTINUOUS
10
144.748
20
-95.0751
11
144.736
21
-95.0981
0
LINE
8
BLACK
6
CONTINUOUS
10
144.736
20
-95.0981
11
144.732
21
-95.1004
0
LINE
8
BLACK
6
CONTINUOUS
10
144.732
20
-95.1004
11
144.73
21
-95.1045
0
LINE
8
BLACK
6
CONTINUOUS
10
144.73
20
-95.1045
11
144.635
21
-95.1997
0
LINE
8
BLACK
6
CONTINUOUS
10
144.635
20
-95.1997
11
144.616
21
-95.2126
0
LINE
8
BLACK
6
CONTINUOUS
10
144.616
20
-95.2126
11
144.615
21
-95.2137
0
LINE
8
BLACK
6
CONTINUOUS
10
144.615
20
-95.2137
11
144.52
21
-95.2614
0
LINE
8
BLACK
6
CONTINUOUS
10
144.52
20
-95.2614
11
144.507
21
-95.2651
0
LINE
8
BLACK
6
CONTINUOUS
10
144.507
20
-95.2651
11
144.504
21
-95.267
0
LINE
8
BLACK
6
CONTINUOUS
10
144.504
20
-95.267
11
144.314
21
-95.3147
0
LINE
8
BLACK
6
CONTINUOUS
10
144.314
20
-95.3147
11
144.299
21
-95.3157
0
LINE
8
BLACK
6
CONTINUOUS
10
144.299
20
-95.3157
11
144.296
21
-95.3169
0
LINE
8
BLACK
6
CONTINUOUS
10
144.296
20
-95.3169
11
144.153
21
-95.3169
0
LINE
8
BLACK
6
CONTINUOUS
10
144.153
20
-95.3169
11
144.138
21
-95.3143
0
LINE
8
BLACK
6
CONTINUOUS
10
144.138
20
-95.3143
11
144.135
21
-95.3147
0
LINE
8
BLACK
6
CONTINUOUS
10
144.135
20
-95.3147
11
143.944
21
-95.267
0
LINE
8
BLACK
6
CONTINUOUS
10
143.944
20
-95.267
11
143.932
21
-95.2618
0
LINE
8
BLACK
6
CONTINUOUS
10
143.932
20
-95.2618
11
143.929
21
-95.2614
0
LINE
8
BLACK
6
CONTINUOUS
10
143.929
20
-95.2614
11
143.834
21
-95.2137
0
LINE
8
BLACK
6
CONTINUOUS
10
143.834
20
-95.2137
11
143.816
21
-95.2004
0
LINE
8
BLACK
6
CONTINUOUS
10
143.816
20
-95.2004
11
143.814
21
-95.1997
0
LINE
8
BLACK
6
CONTINUOUS
10
143.814
20
-95.1997
11
143.719
21
-95.1045
0
LINE
8
BLACK
6
CONTINUOUS
10
143.719
20
-95.1045
11
143.704
21
-95.0831
0
LINE
8
BLACK
6
CONTINUOUS
10
143.704
20
-95.0831
11
143.704
21
-95.0787
0
LINE
8
BLACK
6
CONTINUOUS
10
143.704
20
-95.0787
11
143.701
21
-95.0751
0
LINE
8
BLACK
6
CONTINUOUS
10
143.701
20
-95.0751
11
143.653
21
-94.9323
0
LINE
8
BLACK
6
CONTINUOUS
10
143.653
20
-94.9323
11
143.65
21
-94.9101
0
LINE
8
BLACK
6
CONTINUOUS
10
143.65
20
-94.9101
11
143.649
21
-94.9086
0
LINE
8
BLACK
6
CONTINUOUS
10
143.649
20
-94.9086
11
143.649
21
-94.8133
0
LINE
8
BLACK
6
CONTINUOUS
10
143.649
20
-94.8133
11
143.653
21
-94.7912
0
LINE
8
BLACK
6
CONTINUOUS
10
143.653
20
-94.7912
11
143.653
21
-94.7896
0
LINE
8
BLACK
6
CONTINUOUS
10
143.653
20
-94.7896
11
143.701
21
-94.6468
0
LINE
8
BLACK
6
CONTINUOUS
10
143.701
20
-94.6468
11
143.713
21
-94.6239
0
LINE
8
BLACK
6
CONTINUOUS
10
143.713
20
-94.6239
11
143.717
21
-94.6215
0
LINE
8
BLACK
6
CONTINUOUS
10
143.717
20
-94.6215
11
143.719
21
-94.6174
0
LINE
8
BLACK
6
CONTINUOUS
10
143.719
20
-94.6174
11
143.767
21
-94.5698
0
LINE
8
BLACK
6
CONTINUOUS
10
143.767
20
-94.5698
11
143.788
21
-94.5549
0
LINE
8
BLACK
6
CONTINUOUS
10
143.788
20
-94.5549
11
143.839
21
-94.5504
0
LINE
8
BLACK
6
CONTINUOUS
10
143.839
20
-94.5504
11
143.881
21
-94.5798
0
LINE
8
BLACK
6
CONTINUOUS
10
143.881
20
-94.5798
11
143.894
21
-94.6294
0
LINE
8
BLACK
6
CONTINUOUS
10
143.894
20
-94.6294
11
143.873
21
-94.6759
0
LINE
8
BLACK
6
CONTINUOUS
10
143.873
20
-94.6759
11
143.838
21
-94.711
0
LINE
8
BLACK
6
CONTINUOUS
10
143.838
20
-94.711
11
143.799
21
-94.8255
0
LINE
8
BLACK
6
CONTINUOUS
10
143.799
20
-94.8255
11
143.799
21
-94.8964
0
LINE
8
BLACK
6
CONTINUOUS
10
143.799
20
-94.8964
11
143.838
21
-95.0109
0
LINE
8
BLACK
6
CONTINUOUS
10
143.838
20
-95.0109
11
143.912
21
-95.085
0
LINE
8
BLACK
6
CONTINUOUS
10
143.912
20
-95.085
11
143.989
21
-95.1235
0
LINE
8
BLACK
6
CONTINUOUS
10
143.989
20
-95.1235
11
144.162
21
-95.1669
0
LINE
8
BLACK
6
CONTINUOUS
10
144.162
20
-95.1669
11
144.287
21
-95.1669
0
LINE
8
BLACK
6
CONTINUOUS
10
144.287
20
-95.1669
11
144.46
21
-95.1235
0
LINE
8
BLACK
6
CONTINUOUS
10
144.46
20
-95.1235
11
144.537
21
-95.085
0
LINE
8
BLACK
6
CONTINUOUS
10
144.537
20
-95.085
11
144.611
21
-95.0109
0
LINE
8
BLACK
6
CONTINUOUS
10
144.611
20
-95.0109
11
144.649
21
-94.8964
0
LINE
8
BLACK
6
CONTINUOUS
10
144.649
20
-94.8964
11
144.649
21
-94.8255
0
LINE
8
BLACK
6
CONTINUOUS
10
144.649
20
-94.8255
11
144.611
21
-94.711
0
LINE
8
BLACK
6
CONTINUOUS
10
144.611
20
-94.711
11
144.576
21
-94.6759
0
LINE
8
BLACK
6
CONTINUOUS
10
144.576
20
-94.6759
11
144.561
21
-94.6546
0
LINE
8
BLACK
6
CONTINUOUS
10
144.561
20
-94.6546
11
144.557
21
-94.6034
0
LINE
8
BLACK
6
CONTINUOUS
10
144.557
20
-94.6034
11
144.586
21
-94.5614
0
LINE
8
BLACK
6
CONTINUOUS
10
144.586
20
-94.5614
11
144.636
21
-94.5481
0
LINE
8
BLACK
6
CONTINUOUS
10
144.636
20
-94.5481
11
144.682
21
-94.5698
0
LINE
8
BLACK
6
CONTINUOUS
10
146.796
20
-94.6726
11
146.813
21
-94.715
0
LINE
8
BLACK
6
CONTINUOUS
10
146.813
20
-94.715
11
146.796
21
-94.7574
0
LINE
8
BLACK
6
CONTINUOUS
10
146.796
20
-94.7574
11
146.753
21
-94.775
0
LINE
8
BLACK
6
CONTINUOUS
10
146.753
20
-94.775
11
146.231
21
-94.775
0
LINE
8
BLACK
6
CONTINUOUS
10
146.231
20
-94.775
11
146.188
21
-94.7574
0
LINE
8
BLACK
6
CONTINUOUS
10
146.188
20
-94.7574
11
146.171
21
-94.715
0
LINE
8
BLACK
6
CONTINUOUS
10
146.171
20
-94.715
11
146.188
21
-94.6726
0
LINE
8
BLACK
6
CONTINUOUS
10
146.188
20
-94.6726
11
146.231
21
-94.655
0
LINE
8
BLACK
6
CONTINUOUS
10
146.231
20
-94.655
11
146.753
21
-94.655
0
LINE
8
BLACK
6
CONTINUOUS
10
146.753
20
-94.655
11
146.796
21
-94.6726
0
LINE
8
BLACK
6
CONTINUOUS
10
144.782
20
-93.6223
11
144.799
21
-93.6705
0
LINE
8
BLACK
6
CONTINUOUS
10
144.799
20
-93.6705
11
144.799
21
-94.2419
0
LINE
8
BLACK
6
CONTINUOUS
10
144.799
20
-94.2419
11
144.795
21
-94.2676
0
LINE
8
BLACK
6
CONTINUOUS
10
144.795
20
-94.2676
11
144.762
21
-94.3069
0
LINE
8
BLACK
6
CONTINUOUS
10
144.762
20
-94.3069
11
144.711
21
-94.3158
0
LINE
8
BLACK
6
CONTINUOUS
10
144.711
20
-94.3158
11
144.667
21
-94.2901
0
LINE
8
BLACK
6
CONTINUOUS
10
144.667
20
-94.2901
11
144.649
21
-94.2419
0
LINE
8
BLACK
6
CONTINUOUS
10
144.649
20
-94.2419
11
144.649
21
-94.0312
0
LINE
8
BLACK
6
CONTINUOUS
10
144.649
20
-94.0312
11
143.953
21
-94.0312
0
LINE
8
BLACK
6
CONTINUOUS
10
143.953
20
-94.0312
11
144.016
21
-94.0936
0
LINE
8
BLACK
6
CONTINUOUS
10
144.016
20
-94.0936
11
144.028
21
-94.112
0
LINE
8
BLACK
6
CONTINUOUS
10
144.028
20
-94.112
11
144.03
21
-94.1131
0
LINE
8
BLACK
6
CONTINUOUS
10
144.03
20
-94.1131
11
144.077
21
-94.2084
0
LINE
8
BLACK
6
CONTINUOUS
10
144.077
20
-94.2084
11
144.085
21
-94.2333
0
LINE
8
BLACK
6
CONTINUOUS
10
144.085
20
-94.2333
11
144.073
21
-94.2832
0
LINE
8
BLACK
6
CONTINUOUS
10
144.073
20
-94.2832
11
144.031
21
-94.3138
0
LINE
8
BLACK
6
CONTINUOUS
10
144.031
20
-94.3138
11
143.98
21
-94.3107
0
LINE
8
BLACK
6
CONTINUOUS
10
143.98
20
-94.3107
11
143.943
21
-94.2754
0
LINE
8
BLACK
6
CONTINUOUS
10
143.943
20
-94.2754
11
143.901
21
-94.1911
0
LINE
8
BLACK
6
CONTINUOUS
10
143.901
20
-94.1911
11
143.819
21
-94.1097
0
LINE
8
BLACK
6
CONTINUOUS
10
143.819
20
-94.1097
11
143.683
21
-94.0186
0
LINE
8
BLACK
6
CONTINUOUS
10
143.683
20
-94.0186
11
143.664
21
-94.0006
0
LINE
8
BLACK
6
CONTINUOUS
10
143.664
20
-94.0006
11
143.663
21
-93.9965
0
LINE
8
BLACK
6
CONTINUOUS
10
143.663
20
-93.9965
11
143.659
21
-93.9937
0
LINE
8
BLACK
6
CONTINUOUS
10
143.659
20
-93.9937
11
143.656
21
-93.9723
0
LINE
8
BLACK
6
CONTINUOUS
10
143.656
20
-93.9723
11
143.65
21
-93.9514
0
LINE
8
BLACK
6
CONTINUOUS
10
143.65
20
-93.9514
11
143.651
21
-93.9474
0
LINE
8
BLACK
6
CONTINUOUS
10
143.651
20
-93.9474
11
143.651
21
-93.9432
0
LINE
8
BLACK
6
CONTINUOUS
10
143.651
20
-93.9432
11
143.661
21
-93.9243
0
LINE
8
BLACK
6
CONTINUOUS
10
143.661
20
-93.9243
11
143.67
21
-93.9044
0
LINE
8
BLACK
6
CONTINUOUS
10
143.67
20
-93.9044
11
143.674
21
-93.9025
0
LINE
8
BLACK
6
CONTINUOUS
10
143.674
20
-93.9025
11
143.676
21
-93.8987
0
LINE
8
BLACK
6
CONTINUOUS
10
143.676
20
-93.8987
11
143.697
21
-93.8913
0
LINE
8
BLACK
6
CONTINUOUS
10
143.697
20
-93.8913
11
143.716
21
-93.8816
0
LINE
8
BLACK
6
CONTINUOUS
10
143.716
20
-93.8816
11
143.72
21
-93.8827
0
LINE
8
BLACK
6
CONTINUOUS
10
143.72
20
-93.8827
11
143.724
21
-93.8812
0
LINE
8
BLACK
6
CONTINUOUS
10
143.724
20
-93.8812
11
144.649
21
-93.8812
0
LINE
8
BLACK
6
CONTINUOUS
10
144.649
20
-93.8812
11
144.649
21
-93.6705
0
LINE
8
BLACK
6
CONTINUOUS
10
144.649
20
-93.6705
11
144.654
21
-93.6448
0
LINE
8
BLACK
6
CONTINUOUS
10
144.654
20
-93.6448
11
144.687
21
-93.6055
0
LINE
8
BLACK
6
CONTINUOUS
10
144.687
20
-93.6055
11
144.737
21
-93.5966
0
LINE
8
BLACK
6
CONTINUOUS
10
144.737
20
-93.5966
11
144.782
21
-93.6223
0
LINE
8
BLACK
6
CONTINUOUS
10
144.358
20
-92.6457
11
144.362
21
-92.6453
0
LINE
8
BLACK
6
CONTINUOUS
10
144.362
20
-92.6453
11
144.552
21
-92.693
0
LINE
8
BLACK
6
CONTINUOUS
10
144.552
20
-92.693
11
144.564
21
-92.6982
0
LINE
8
BLACK
6
CONTINUOUS
10
144.564
20
-92.6982
11
144.567
21
-92.6986
0
LINE
8
BLACK
6
CONTINUOUS
10
144.567
20
-92.6986
11
144.663
21
-92.7463
0
LINE
8
BLACK
6
CONTINUOUS
10
144.663
20
-92.7463
11
144.681
21
-92.7596
0
LINE
8
BLACK
6
CONTINUOUS
10
144.681
20
-92.7596
11
144.682
21
-92.7603
0
LINE
8
BLACK
6
CONTINUOUS
10
144.682
20
-92.7603
11
144.73
21
-92.8079
0
LINE
8
BLACK
6
CONTINUOUS
10
144.73
20
-92.8079
11
144.743
21
-92.8263
0
LINE
8
BLACK
6
CONTINUOUS
10
144.743
20
-92.8263
11
144.744
21
-92.8274
0
LINE
8
BLACK
6
CONTINUOUS
10
144.744
20
-92.8274
11
144.791
21
-92.9226
0
LINE
8
BLACK
6
CONTINUOUS
10
144.791
20
-92.9226
11
144.799
21
-92.9476
0
LINE
8
BLACK
6
CONTINUOUS
10
144.799
20
-92.9476
11
144.798
21
-92.952
0
LINE
8
BLACK
6
CONTINUOUS
10
144.798
20
-92.952
11
144.799
21
-92.9562
0
LINE
8
BLACK
6
CONTINUOUS
10
144.799
20
-92.9562
11
144.799
21
-93.0514
0
LINE
8
BLACK
6
CONTINUOUS
10
144.799
20
-93.0514
11
144.795
21
-93.0771
0
LINE
8
BLACK
6
CONTINUOUS
10
144.795
20
-93.0771
11
144.792
21
-93.0805
0
LINE
8
BLACK
6
CONTINUOUS
10
144.792
20
-93.0805
11
144.791
21
-93.085
0
LINE
8
BLACK
6
CONTINUOUS
10
144.791
20
-93.085
11
144.744
21
-93.1802
0
LINE
8
BLACK
6
CONTINUOUS
10
144.744
20
-93.1802
11
144.73
21
-93.1982
0
LINE
8
BLACK
6
CONTINUOUS
10
144.73
20
-93.1982
11
144.73
21
-93.1997
0
LINE
8
BLACK
6
CONTINUOUS
10
144.73
20
-93.1997
11
144.682
21
-93.2473
0
LINE
8
BLACK
6
CONTINUOUS
10
144.682
20
-93.2473
11
144.664
21
-93.2602
0
LINE
8
BLACK
6
CONTINUOUS
10
144.664
20
-93.2602
11
144.663
21
-93.2614
0
LINE
8
BLACK
6
CONTINUOUS
10
144.663
20
-93.2614
11
144.567
21
-93.309
0
LINE
8
BLACK
6
CONTINUOUS
10
144.567
20
-93.309
11
144.555
21
-93.3127
0
LINE
8
BLACK
6
CONTINUOUS
10
144.555
20
-93.3127
11
144.552
21
-93.3147
0
LINE
8
BLACK
6
CONTINUOUS
10
144.552
20
-93.3147
11
144.362
21
-93.3623
0
LINE
8
BLACK
6
CONTINUOUS
10
144.362
20
-93.3623
11
144.347
21
-93.3633
0
LINE
8
BLACK
6
CONTINUOUS
10
144.347
20
-93.3633
11
144.343
21
-93.3645
0
LINE
8
BLACK
6
CONTINUOUS
10
144.343
20
-93.3645
11
144.105
21
-93.3645
0
LINE
8
BLACK
6
CONTINUOUS
10
144.105
20
-93.3645
11
144.091
21
-93.3619
0
LINE
8
BLACK
6
CONTINUOUS
10
144.091
20
-93.3619
11
144.087
21
-93.3623
0
LINE
8
BLACK
6
CONTINUOUS
10
144.087
20
-93.3623
11
143.897
21
-93.3147
0
LINE
8
BLACK
6
CONTINUOUS
10
143.897
20
-93.3147
11
143.885
21
-93.3094
0
LINE
8
BLACK
6
CONTINUOUS
10
143.885
20
-93.3094
11
143.881
21
-93.309
0
LINE
8
BLACK
6
CONTINUOUS
10
143.881
20
-93.309
11
143.786
21
-93.2614
0
LINE
8
BLACK
6
CONTINUOUS
10
143.786
20
-93.2614
11
143.768
21
-93.248
0
LINE
8
BLACK
6
CONTINUOUS
10
143.768
20
-93.248
11
143.767
21
-93.2473
0
LINE
8
BLACK
6
CONTINUOUS
10
143.767
20
-93.2473
11
143.719
21
-93.1997
0
LINE
8
BLACK
6
CONTINUOUS
10
143.719
20
-93.1997
11
143.706
21
-93.1813
0
LINE
8
BLACK
6
CONTINUOUS
10
143.706
20
-93.1813
11
143.705
21
-93.1802
0
LINE
8
BLACK
6
CONTINUOUS
10
143.705
20
-93.1802
11
143.657
21
-93.085
0
LINE
8
BLACK
6
CONTINUOUS
10
143.657
20
-93.085
11
143.65
21
-93.06
0
LINE
8
BLACK
6
CONTINUOUS
10
143.65
20
-93.06
11
143.651
21
-93.0556
0
LINE
8
BLACK
6
CONTINUOUS
10
143.651
20
-93.0556
11
143.649
21
-93.0514
0
LINE
8
BLACK
6
CONTINUOUS
10
143.649
20
-93.0514
11
143.649
21
-92.9562
0
LINE
8
BLACK
6
CONTINUOUS
10
143.649
20
-92.9562
11
143.654
21
-92.9305
0
LINE
8
BLACK
6
CONTINUOUS
10
143.654
20
-92.9305
11
143.657
21
-92.9271
0
LINE
8
BLACK
6
CONTINUOUS
10
143.657
20
-92.9271
11
143.657
21
-92.9226
0
LINE
8
BLACK
6
CONTINUOUS
10
143.657
20
-92.9226
11
143.705
21
-92.8274
0
LINE
8
BLACK
6
CONTINUOUS
10
143.705
20
-92.8274
11
143.718
21
-92.8094
0
LINE
8
BLACK
6
CONTINUOUS
10
143.718
20
-92.8094
11
143.719
21
-92.8079
0
LINE
8
BLACK
6
CONTINUOUS
10
143.719
20
-92.8079
11
143.767
21
-92.7603
0
LINE
8
BLACK
6
CONTINUOUS
10
143.767
20
-92.7603
11
143.785
21
-92.7474
0
LINE
8
BLACK
6
CONTINUOUS
10
143.785
20
-92.7474
11
143.786
21
-92.7463
0
LINE
8
BLACK
6
CONTINUOUS
10
143.786
20
-92.7463
11
143.881
21
-92.6986
0
LINE
8
BLACK
6
CONTINUOUS
10
143.881
20
-92.6986
11
143.894
21
-92.6949
0
LINE
8
BLACK
6
CONTINUOUS
10
143.894
20
-92.6949
11
143.897
21
-92.693
0
LINE
8
BLACK
6
CONTINUOUS
10
143.897
20
-92.693
11
144.087
21
-92.6453
0
LINE
8
BLACK
6
CONTINUOUS
10
144.087
20
-92.6453
11
144.102
21
-92.6443
0
LINE
8
BLACK
6
CONTINUOUS
10
144.102
20
-92.6443
11
144.105
21
-92.6431
0
LINE
8
BLACK
6
CONTINUOUS
10
144.105
20
-92.6431
11
144.343
21
-92.6431
0
LINE
8
BLACK
6
CONTINUOUS
10
144.343
20
-92.6431
11
144.358
21
-92.6457
0
LINE
8
BLACK
6
CONTINUOUS
10
144.115
20
-92.7931
11
143.941
21
-92.8365
0
LINE
8
BLACK
6
CONTINUOUS
10
143.941
20
-92.8365
11
143.864
21
-92.875
0
LINE
8
BLACK
6
CONTINUOUS
10
143.864
20
-92.875
11
143.834
21
-92.9054
0
LINE
8
BLACK
6
CONTINUOUS
10
143.834
20
-92.9054
11
143.799
21
-92.9739
0
LINE
8
BLACK
6
CONTINUOUS
10
143.799
20
-92.9739
11
143.799
21
-93.0337
0
LINE
8
BLACK
6
CONTINUOUS
10
143.799
20
-93.0337
11
143.834
21
-93.1022
0
LINE
8
BLACK
6
CONTINUOUS
10
143.834
20
-93.1022
11
143.864
21
-93.1326
0
LINE
8
BLACK
6
CONTINUOUS
10
143.864
20
-93.1326
11
143.941
21
-93.1711
0
LINE
8
BLACK
6
CONTINUOUS
10
143.941
20
-93.1711
11
144.115
21
-93.2145
0
LINE
8
BLACK
6
CONTINUOUS
10
144.115
20
-93.2145
11
144.334
21
-93.2145
0
LINE
8
BLACK
6
CONTINUOUS
10
144.334
20
-93.2145
11
144.508
21
-93.1711
0
LINE
8
BLACK
6
CONTINUOUS
10
144.508
20
-93.1711
11
144.585
21
-93.1326
0
LINE
8
BLACK
6
CONTINUOUS
10
144.585
20
-93.1326
11
144.615
21
-93.1022
0
LINE
8
BLACK
6
CONTINUOUS
10
144.615
20
-93.1022
11
144.649
21
-93.0337
0
LINE
8
BLACK
6
CONTINUOUS
10
144.649
20
-93.0337
11
144.649
21
-92.9739
0
LINE
8
BLACK
6
CONTINUOUS
10
144.649
20
-92.9739
11
144.615
21
-92.9054
0
LINE
8
BLACK
6
CONTINUOUS
10
144.615
20
-92.9054
11
144.585
21
-92.875
0
LINE
8
BLACK
6
CONTINUOUS
10
144.585
20
-92.875
11
144.508
21
-92.8365
0
LINE
8
BLACK
6
CONTINUOUS
10
144.508
20
-92.8365
11
144.334
21
-92.7931
0
LINE
8
BLACK
6
CONTINUOUS
10
144.334
20
-92.7931
11
144.115
21
-92.7931
0
LINE
8
BLACK
6
CONTINUOUS
10
146.796
20
-93.2026
11
146.813
21
-93.245
0
LINE
8
BLACK
6
CONTINUOUS
10
146.813
20
-93.245
11
146.796
21
-93.2874
0
LINE
8
BLACK
6
CONTINUOUS
10
146.796
20
-93.2874
11
146.753
21
-93.305
0
LINE
8
BLACK
6
CONTINUOUS
10
146.753
20
-93.305
11
146.231
21
-93.305
0
LINE
8
BLACK
6
CONTINUOUS
10
146.231
20
-93.305
11
146.188
21
-93.2874
0
LINE
8
BLACK
6
CONTINUOUS
10
146.188
20
-93.2874
11
146.171
21
-93.245
0
LINE
8
BLACK
6
CONTINUOUS
10
146.171
20
-93.245
11
146.188
21
-93.2026
0
LINE
8
BLACK
6
CONTINUOUS
10
146.188
20
-93.2026
11
146.231
21
-93.185
0
LINE
8
BLACK
6
CONTINUOUS
10
146.231
20
-93.185
11
146.753
21
-93.185
0
LINE
8
BLACK
6
CONTINUOUS
10
146.753
20
-93.185
11
146.796
21
-93.2026
0
CIRCLE
8
BLACK
10
149.86
20
-93.98
40
0.5
0
CIRCLE
8
BLACK
10
152.4
20
-93.98
40
0.5
0
CIRCLE
8
BLACK
10
154.94
20
-93.98
40
0.5
0
CIRCLE
8
BLACK
10
157.48
20
-93.98
40
0.5
0
CIRCLE
8
BLACK
10
134.62
20
-93.98
40
0.5
0
CIRCLE
8
BLACK
10
137.16
20
-93.98
40
0.5
0
CIRCLE
8
BLACK
10
139.7
20
-93.98
40
0.5
0
CIRCLE
8
BLACK
10
142.24
20
-93.98
40
0.5
0
CIRCLE
8
BLACK
10
134.62
20
-106.68
40
0.5
0
CIRCLE
8
BLACK
10
137.16
20
-106.68
40
0.5
0
CIRCLE
8
BLACK
10
139.7
20
-106.68
40
0.5
0
CIRCLE
8
BLACK
10
142.24
20
-106.68
40
0.5
0
CIRCLE
8
BLACK
10
144.78
20
-106.68
40
0.5
0
CIRCLE
8
BLACK
10
147.32
20
-106.68
40
0.5
0
CIRCLE
8
BLACK
10
149.86
20
-106.68
40
0.5
0
CIRCLE
8
BLACK
10
152.4
20
-106.68
40
0.5
0
CIRCLE
8
BLACK
10
154.94
20
-106.68
40
0.5
0
CIRCLE
8
BLACK
10
157.48
20
-106.68
40
0.5
  0
ENDSEC
  0
EOF
