  0
SECTION
  2
HEADER
  9
$ANGBASE
  50
0.0
  9
$ANGDIR
  70
1
  9
$MEASUREMENT
  70
1
  0
ENDSEC
  0
SECTION
  2
TABLES
  0
TABLE
  2
LTYPE
  70
4
  0
LTYPE
  5
40F
  2
CONTINUOUS
  70
0
  3
Solid line
  72
65
  73
0
  40
0.0
  0
LTYPE
  5
410
  2
DASHDOT
 70
0
  3
Dash Dot ____ _ ____ _
 72
65
 73
4
 40
2.0
 49
1.25
 49
-0.25
 49
0.25
 49
-0.25
  0
LTYPE
  5
411
  2
DASHED
 70
0
  3
Dashed __ __ __ __ __
 72
65
 73
2
 40
0.75
 49
0.5
 49
-0.25
  0
LTYPE
  5
43B
  2
DOTTED
 70
0
  3
Dotted .  .  .  .
 72
65
 73
2
 40
0.2
 49
0.0
 49
-0.2
  0
ENDTAB
  0
TABLE
  2
STYLE
  70
4
  0
STYLE
  2
KICAD
  70
0
  40
0
  41
1
  42
1
  50
0
  71
0
  3
isocp.shx
  0
STYLE
  2
KICADB
  70
0
  40
0
  41
1
  42
1
  50
0
  71
0
  3
isocp.shx
  0
STYLE
  2
KICADI
  70
0
  40
0
  41
1
  42
1
  50
15
  71
0
  3
isocp.shx
  0
STYLE
  2
KICADBI
  70
0
  40
0
  41
1
  42
1
  50
15
  71
0
  3
isocp.shx
  0
ENDTAB
  0
TABLE
  2
LAYER
  70
1
  0
LAYER
  2
BLACK
  70
0
  62
7
  6
CONTINUOUS
  0
ENDTAB
  0
ENDSEC
  0
SECTION
  2
ENTITIES
0
LINE
8
BLACK
6
CONTINUOUS
10
135.47
20
-107.53
11
133.77
21
-107.53
0
LINE
8
BLACK
6
CONTINUOUS
10
133.77
20
-107.53
11
133.77
21
-105.83
0
LINE
8
BLACK
6
CONTINUOUS
10
133.77
20
-105.83
11
135.47
21
-105.83
0
LINE
8
BLACK
6
CONTINUOUS
10
135.47
20
-105.83
11
135.47
21
-107.53
0
LINE
8
BLACK
6
CONTINUOUS
10
137.423
20
-105.872
11
137.585
21
-105.944
0
LINE
8
BLACK
6
CONTINUOUS
10
137.585
20
-105.944
11
137.729
21
-106.048
0
LINE
8
BLACK
6
CONTINUOUS
10
137.729
20
-106.048
11
137.848
21
-106.18
0
LINE
8
BLACK
6
CONTINUOUS
10
137.848
20
-106.18
11
137.937
21
-106.334
0
LINE
8
BLACK
6
CONTINUOUS
10
137.937
20
-106.334
11
137.991
21
-106.503
0
LINE
8
BLACK
6
CONTINUOUS
10
137.991
20
-106.503
11
138.01
21
-106.68
0
LINE
8
BLACK
6
CONTINUOUS
10
138.01
20
-106.68
11
137.991
21
-106.857
0
LINE
8
BLACK
6
CONTINUOUS
10
137.991
20
-106.857
11
137.937
21
-107.026
0
LINE
8
BLACK
6
CONTINUOUS
10
137.937
20
-107.026
11
137.848
21
-107.18
0
LINE
8
BLACK
6
CONTINUOUS
10
137.848
20
-107.18
11
137.729
21
-107.312
0
LINE
8
BLACK
6
CONTINUOUS
10
137.729
20
-107.312
11
137.585
21
-107.416
0
LINE
8
BLACK
6
CONTINUOUS
10
137.585
20
-107.416
11
137.423
21
-107.488
0
LINE
8
BLACK
6
CONTINUOUS
10
137.423
20
-107.488
11
137.249
21
-107.525
0
LINE
8
BLACK
6
CONTINUOUS
10
137.249
20
-107.525
11
137.071
21
-107.525
0
LINE
8
BLACK
6
CONTINUOUS
10
137.071
20
-107.525
11
136.897
21
-107.488
0
LINE
8
BLACK
6
CONTINUOUS
10
136.897
20
-107.488
11
136.735
21
-107.416
0
LINE
8
BLACK
6
CONTINUOUS
10
136.735
20
-107.416
11
136.591
21
-107.312
0
LINE
8
BLACK
6
CONTINUOUS
10
136.591
20
-107.312
11
136.472
21
-107.18
0
LINE
8
BLACK
6
CONTINUOUS
10
136.472
20
-107.18
11
136.383
21
-107.026
0
LINE
8
BLACK
6
CONTINUOUS
10
136.383
20
-107.026
11
136.329
21
-106.857
0
LINE
8
BLACK
6
CONTINUOUS
10
136.329
20
-106.857
11
136.31
21
-106.68
0
LINE
8
BLACK
6
CONTINUOUS
10
136.31
20
-106.68
11
136.329
21
-106.503
0
LINE
8
BLACK
6
CONTINUOUS
10
136.329
20
-106.503
11
136.383
21
-106.334
0
LINE
8
BLACK
6
CONTINUOUS
10
136.383
20
-106.334
11
136.472
21
-106.18
0
LINE
8
BLACK
6
CONTINUOUS
10
136.472
20
-106.18
11
136.591
21
-106.048
0
LINE
8
BLACK
6
CONTINUOUS
10
136.591
20
-106.048
11
136.735
21
-105.944
0
LINE
8
BLACK
6
CONTINUOUS
10
136.735
20
-105.944
11
136.897
21
-105.872
0
LINE
8
BLACK
6
CONTINUOUS
10
136.897
20
-105.872
11
137.071
21
-105.835
0
LINE
8
BLACK
6
CONTINUOUS
10
137.071
20
-105.835
11
137.249
21
-105.835
0
LINE
8
BLACK
6
CONTINUOUS
10
137.249
20
-105.835
11
137.423
21
-105.872
0
LINE
8
BLACK
6
CONTINUOUS
10
157.743
20
-105.872
11
157.905
21
-105.944
0
LINE
8
BLACK
6
CONTINUOUS
10
157.905
20
-105.944
11
158.049
21
-106.048
0
LINE
8
BLACK
6
CONTINUOUS
10
158.049
20
-106.048
11
158.168
21
-106.18
0
LINE
8
BLACK
6
CONTINUOUS
10
158.168
20
-106.18
11
158.257
21
-106.334
0
LINE
8
BLACK
6
CONTINUOUS
10
158.257
20
-106.334
11
158.311
21
-106.503
0
LINE
8
BLACK
6
CONTINUOUS
10
158.311
20
-106.503
11
158.33
21
-106.68
0
LINE
8
BLACK
6
CONTINUOUS
10
158.33
20
-106.68
11
158.311
21
-106.857
0
LINE
8
BLACK
6
CONTINUOUS
10
158.311
20
-106.857
11
158.257
21
-107.026
0
LINE
8
BLACK
6
CONTINUOUS
10
158.257
20
-107.026
11
158.168
21
-107.18
0
LINE
8
BLACK
6
CONTINUOUS
10
158.168
20
-107.18
11
158.049
21
-107.312
0
LINE
8
BLACK
6
CONTINUOUS
10
158.049
20
-107.312
11
157.905
21
-107.416
0
LINE
8
BLACK
6
CONTINUOUS
10
157.905
20
-107.416
11
157.743
21
-107.488
0
LINE
8
BLACK
6
CONTINUOUS
10
157.743
20
-107.488
11
157.569
21
-107.525
0
LINE
8
BLACK
6
CONTINUOUS
10
157.569
20
-107.525
11
157.391
21
-107.525
0
LINE
8
BLACK
6
CONTINUOUS
10
157.391
20
-107.525
11
157.217
21
-107.488
0
LINE
8
BLACK
6
CONTINUOUS
10
157.217
20
-107.488
11
157.055
21
-107.416
0
LINE
8
BLACK
6
CONTINUOUS
10
157.055
20
-107.416
11
156.911
21
-107.312
0
LINE
8
BLACK
6
CONTINUOUS
10
156.911
20
-107.312
11
156.792
21
-107.18
0
LINE
8
BLACK
6
CONTINUOUS
10
156.792
20
-107.18
11
156.703
21
-107.026
0
LINE
8
BLACK
6
CONTINUOUS
10
156.703
20
-107.026
11
156.649
21
-106.857
0
LINE
8
BLACK
6
CONTINUOUS
10
156.649
20
-106.857
11
156.63
21
-106.68
0
LINE
8
BLACK
6
CONTINUOUS
10
156.63
20
-106.68
11
156.649
21
-106.503
0
LINE
8
BLACK
6
CONTINUOUS
10
156.649
20
-106.503
11
156.703
21
-106.334
0
LINE
8
BLACK
6
CONTINUOUS
10
156.703
20
-106.334
11
156.792
21
-106.18
0
LINE
8
BLACK
6
CONTINUOUS
10
156.792
20
-106.18
11
156.911
21
-106.048
0
LINE
8
BLACK
6
CONTINUOUS
10
156.911
20
-106.048
11
157.055
21
-105.944
0
LINE
8
BLACK
6
CONTINUOUS
10
157.055
20
-105.944
11
157.217
21
-105.872
0
LINE
8
BLACK
6
CONTINUOUS
10
157.217
20
-105.872
11
157.391
21
-105.835
0
LINE
8
BLACK
6
CONTINUOUS
10
157.391
20
-105.835
11
157.569
21
-105.835
0
LINE
8
BLACK
6
CONTINUOUS
10
157.569
20
-105.835
11
157.743
21
-105.872
0
LINE
8
BLACK
6
CONTINUOUS
10
155.203
20
-105.872
11
155.365
21
-105.944
0
LINE
8
BLACK
6
CONTINUOUS
10
155.365
20
-105.944
11
155.509
21
-106.048
0
LINE
8
BLACK
6
CONTINUOUS
10
155.509
20
-106.048
11
155.628
21
-106.18
0
LINE
8
BLACK
6
CONTINUOUS
10
155.628
20
-106.18
11
155.717
21
-106.334
0
LINE
8
BLACK
6
CONTINUOUS
10
155.717
20
-106.334
11
155.771
21
-106.503
0
LINE
8
BLACK
6
CONTINUOUS
10
155.771
20
-106.503
11
155.79
21
-106.68
0
LINE
8
BLACK
6
CONTINUOUS
10
155.79
20
-106.68
11
155.771
21
-106.857
0
LINE
8
BLACK
6
CONTINUOUS
10
155.771
20
-106.857
11
155.717
21
-107.026
0
LINE
8
BLACK
6
CONTINUOUS
10
155.717
20
-107.026
11
155.628
21
-107.18
0
LINE
8
BLACK
6
CONTINUOUS
10
155.628
20
-107.18
11
155.509
21
-107.312
0
LINE
8
BLACK
6
CONTINUOUS
10
155.509
20
-107.312
11
155.365
21
-107.416
0
LINE
8
BLACK
6
CONTINUOUS
10
155.365
20
-107.416
11
155.203
21
-107.488
0
LINE
8
BLACK
6
CONTINUOUS
10
155.203
20
-107.488
11
155.029
21
-107.525
0
LINE
8
BLACK
6
CONTINUOUS
10
155.029
20
-107.525
11
154.851
21
-107.525
0
LINE
8
BLACK
6
CONTINUOUS
10
154.851
20
-107.525
11
154.677
21
-107.488
0
LINE
8
BLACK
6
CONTINUOUS
10
154.677
20
-107.488
11
154.515
21
-107.416
0
LINE
8
BLACK
6
CONTINUOUS
10
154.515
20
-107.416
11
154.371
21
-107.312
0
LINE
8
BLACK
6
CONTINUOUS
10
154.371
20
-107.312
11
154.252
21
-107.18
0
LINE
8
BLACK
6
CONTINUOUS
10
154.252
20
-107.18
11
154.163
21
-107.026
0
LINE
8
BLACK
6
CONTINUOUS
10
154.163
20
-107.026
11
154.109
21
-106.857
0
LINE
8
BLACK
6
CONTINUOUS
10
154.109
20
-106.857
11
154.09
21
-106.68
0
LINE
8
BLACK
6
CONTINUOUS
10
154.09
20
-106.68
11
154.109
21
-106.503
0
LINE
8
BLACK
6
CONTINUOUS
10
154.109
20
-106.503
11
154.163
21
-106.334
0
LINE
8
BLACK
6
CONTINUOUS
10
154.163
20
-106.334
11
154.252
21
-106.18
0
LINE
8
BLACK
6
CONTINUOUS
10
154.252
20
-106.18
11
154.371
21
-106.048
0
LINE
8
BLACK
6
CONTINUOUS
10
154.371
20
-106.048
11
154.515
21
-105.944
0
LINE
8
BLACK
6
CONTINUOUS
10
154.515
20
-105.944
11
154.677
21
-105.872
0
LINE
8
BLACK
6
CONTINUOUS
10
154.677
20
-105.872
11
154.851
21
-105.835
0
LINE
8
BLACK
6
CONTINUOUS
10
154.851
20
-105.835
11
155.029
21
-105.835
0
LINE
8
BLACK
6
CONTINUOUS
10
155.029
20
-105.835
11
155.203
21
-105.872
0
LINE
8
BLACK
6
CONTINUOUS
10
152.663
20
-105.872
11
152.825
21
-105.944
0
LINE
8
BLACK
6
CONTINUOUS
10
152.825
20
-105.944
11
152.969
21
-106.048
0
LINE
8
BLACK
6
CONTINUOUS
10
152.969
20
-106.048
11
153.088
21
-106.18
0
LINE
8
BLACK
6
CONTINUOUS
10
153.088
20
-106.18
11
153.177
21
-106.334
0
LINE
8
BLACK
6
CONTINUOUS
10
153.177
20
-106.334
11
153.231
21
-106.503
0
LINE
8
BLACK
6
CONTINUOUS
10
153.231
20
-106.503
11
153.25
21
-106.68
0
LINE
8
BLACK
6
CONTINUOUS
10
153.25
20
-106.68
11
153.231
21
-106.857
0
LINE
8
BLACK
6
CONTINUOUS
10
153.231
20
-106.857
11
153.177
21
-107.026
0
LINE
8
BLACK
6
CONTINUOUS
10
153.177
20
-107.026
11
153.088
21
-107.18
0
LINE
8
BLACK
6
CONTINUOUS
10
153.088
20
-107.18
11
152.969
21
-107.312
0
LINE
8
BLACK
6
CONTINUOUS
10
152.969
20
-107.312
11
152.825
21
-107.416
0
LINE
8
BLACK
6
CONTINUOUS
10
152.825
20
-107.416
11
152.663
21
-107.488
0
LINE
8
BLACK
6
CONTINUOUS
10
152.663
20
-107.488
11
152.489
21
-107.525
0
LINE
8
BLACK
6
CONTINUOUS
10
152.489
20
-107.525
11
152.311
21
-107.525
0
LINE
8
BLACK
6
CONTINUOUS
10
152.311
20
-107.525
11
152.137
21
-107.488
0
LINE
8
BLACK
6
CONTINUOUS
10
152.137
20
-107.488
11
151.975
21
-107.416
0
LINE
8
BLACK
6
CONTINUOUS
10
151.975
20
-107.416
11
151.831
21
-107.312
0
LINE
8
BLACK
6
CONTINUOUS
10
151.831
20
-107.312
11
151.712
21
-107.18
0
LINE
8
BLACK
6
CONTINUOUS
10
151.712
20
-107.18
11
151.623
21
-107.026
0
LINE
8
BLACK
6
CONTINUOUS
10
151.623
20
-107.026
11
151.569
21
-106.857
0
LINE
8
BLACK
6
CONTINUOUS
10
151.569
20
-106.857
11
151.55
21
-106.68
0
LINE
8
BLACK
6
CONTINUOUS
10
151.55
20
-106.68
11
151.569
21
-106.503
0
LINE
8
BLACK
6
CONTINUOUS
10
151.569
20
-106.503
11
151.623
21
-106.334
0
LINE
8
BLACK
6
CONTINUOUS
10
151.623
20
-106.334
11
151.712
21
-106.18
0
LINE
8
BLACK
6
CONTINUOUS
10
151.712
20
-106.18
11
151.831
21
-106.048
0
LINE
8
BLACK
6
CONTINUOUS
10
151.831
20
-106.048
11
151.975
21
-105.944
0
LINE
8
BLACK
6
CONTINUOUS
10
151.975
20
-105.944
11
152.137
21
-105.872
0
LINE
8
BLACK
6
CONTINUOUS
10
152.137
20
-105.872
11
152.311
21
-105.835
0
LINE
8
BLACK
6
CONTINUOUS
10
152.311
20
-105.835
11
152.489
21
-105.835
0
LINE
8
BLACK
6
CONTINUOUS
10
152.489
20
-105.835
11
152.663
21
-105.872
0
LINE
8
BLACK
6
CONTINUOUS
10
150.123
20
-105.872
11
150.285
21
-105.944
0
LINE
8
BLACK
6
CONTINUOUS
10
150.285
20
-105.944
11
150.429
21
-106.048
0
LINE
8
BLACK
6
CONTINUOUS
10
150.429
20
-106.048
11
150.548
21
-106.18
0
LINE
8
BLACK
6
CONTINUOUS
10
150.548
20
-106.18
11
150.637
21
-106.334
0
LINE
8
BLACK
6
CONTINUOUS
10
150.637
20
-106.334
11
150.691
21
-106.503
0
LINE
8
BLACK
6
CONTINUOUS
10
150.691
20
-106.503
11
150.71
21
-106.68
0
LINE
8
BLACK
6
CONTINUOUS
10
150.71
20
-106.68
11
150.691
21
-106.857
0
LINE
8
BLACK
6
CONTINUOUS
10
150.691
20
-106.857
11
150.637
21
-107.026
0
LINE
8
BLACK
6
CONTINUOUS
10
150.637
20
-107.026
11
150.548
21
-107.18
0
LINE
8
BLACK
6
CONTINUOUS
10
150.548
20
-107.18
11
150.429
21
-107.312
0
LINE
8
BLACK
6
CONTINUOUS
10
150.429
20
-107.312
11
150.285
21
-107.416
0
LINE
8
BLACK
6
CONTINUOUS
10
150.285
20
-107.416
11
150.123
21
-107.488
0
LINE
8
BLACK
6
CONTINUOUS
10
150.123
20
-107.488
11
149.949
21
-107.525
0
LINE
8
BLACK
6
CONTINUOUS
10
149.949
20
-107.525
11
149.771
21
-107.525
0
LINE
8
BLACK
6
CONTINUOUS
10
149.771
20
-107.525
11
149.597
21
-107.488
0
LINE
8
BLACK
6
CONTINUOUS
10
149.597
20
-107.488
11
149.435
21
-107.416
0
LINE
8
BLACK
6
CONTINUOUS
10
149.435
20
-107.416
11
149.291
21
-107.312
0
LINE
8
BLACK
6
CONTINUOUS
10
149.291
20
-107.312
11
149.172
21
-107.18
0
LINE
8
BLACK
6
CONTINUOUS
10
149.172
20
-107.18
11
149.083
21
-107.026
0
LINE
8
BLACK
6
CONTINUOUS
10
149.083
20
-107.026
11
149.029
21
-106.857
0
LINE
8
BLACK
6
CONTINUOUS
10
149.029
20
-106.857
11
149.01
21
-106.68
0
LINE
8
BLACK
6
CONTINUOUS
10
149.01
20
-106.68
11
149.029
21
-106.503
0
LINE
8
BLACK
6
CONTINUOUS
10
149.029
20
-106.503
11
149.083
21
-106.334
0
LINE
8
BLACK
6
CONTINUOUS
10
149.083
20
-106.334
11
149.172
21
-106.18
0
LINE
8
BLACK
6
CONTINUOUS
10
149.172
20
-106.18
11
149.291
21
-106.048
0
LINE
8
BLACK
6
CONTINUOUS
10
149.291
20
-106.048
11
149.435
21
-105.944
0
LINE
8
BLACK
6
CONTINUOUS
10
149.435
20
-105.944
11
149.597
21
-105.872
0
LINE
8
BLACK
6
CONTINUOUS
10
149.597
20
-105.872
11
149.771
21
-105.835
0
LINE
8
BLACK
6
CONTINUOUS
10
149.771
20
-105.835
11
149.949
21
-105.835
0
LINE
8
BLACK
6
CONTINUOUS
10
149.949
20
-105.835
11
150.123
21
-105.872
0
LINE
8
BLACK
6
CONTINUOUS
10
147.583
20
-105.872
11
147.745
21
-105.944
0
LINE
8
BLACK
6
CONTINUOUS
10
147.745
20
-105.944
11
147.889
21
-106.048
0
LINE
8
BLACK
6
CONTINUOUS
10
147.889
20
-106.048
11
148.008
21
-106.18
0
LINE
8
BLACK
6
CONTINUOUS
10
148.008
20
-106.18
11
148.097
21
-106.334
0
LINE
8
BLACK
6
CONTINUOUS
10
148.097
20
-106.334
11
148.151
21
-106.503
0
LINE
8
BLACK
6
CONTINUOUS
10
148.151
20
-106.503
11
148.17
21
-106.68
0
LINE
8
BLACK
6
CONTINUOUS
10
148.17
20
-106.68
11
148.151
21
-106.857
0
LINE
8
BLACK
6
CONTINUOUS
10
148.151
20
-106.857
11
148.097
21
-107.026
0
LINE
8
BLACK
6
CONTINUOUS
10
148.097
20
-107.026
11
148.008
21
-107.18
0
LINE
8
BLACK
6
CONTINUOUS
10
148.008
20
-107.18
11
147.889
21
-107.312
0
LINE
8
BLACK
6
CONTINUOUS
10
147.889
20
-107.312
11
147.745
21
-107.416
0
LINE
8
BLACK
6
CONTINUOUS
10
147.745
20
-107.416
11
147.583
21
-107.488
0
LINE
8
BLACK
6
CONTINUOUS
10
147.583
20
-107.488
11
147.409
21
-107.525
0
LINE
8
BLACK
6
CONTINUOUS
10
147.409
20
-107.525
11
147.231
21
-107.525
0
LINE
8
BLACK
6
CONTINUOUS
10
147.231
20
-107.525
11
147.057
21
-107.488
0
LINE
8
BLACK
6
CONTINUOUS
10
147.057
20
-107.488
11
146.895
21
-107.416
0
LINE
8
BLACK
6
CONTINUOUS
10
146.895
20
-107.416
11
146.751
21
-107.312
0
LINE
8
BLACK
6
CONTINUOUS
10
146.751
20
-107.312
11
146.632
21
-107.18
0
LINE
8
BLACK
6
CONTINUOUS
10
146.632
20
-107.18
11
146.543
21
-107.026
0
LINE
8
BLACK
6
CONTINUOUS
10
146.543
20
-107.026
11
146.489
21
-106.857
0
LINE
8
BLACK
6
CONTINUOUS
10
146.489
20
-106.857
11
146.47
21
-106.68
0
LINE
8
BLACK
6
CONTINUOUS
10
146.47
20
-106.68
11
146.489
21
-106.503
0
LINE
8
BLACK
6
CONTINUOUS
10
146.489
20
-106.503
11
146.543
21
-106.334
0
LINE
8
BLACK
6
CONTINUOUS
10
146.543
20
-106.334
11
146.632
21
-106.18
0
LINE
8
BLACK
6
CONTINUOUS
10
146.632
20
-106.18
11
146.751
21
-106.048
0
LINE
8
BLACK
6
CONTINUOUS
10
146.751
20
-106.048
11
146.895
21
-105.944
0
LINE
8
BLACK
6
CONTINUOUS
10
146.895
20
-105.944
11
147.057
21
-105.872
0
LINE
8
BLACK
6
CONTINUOUS
10
147.057
20
-105.872
11
147.231
21
-105.835
0
LINE
8
BLACK
6
CONTINUOUS
10
147.231
20
-105.835
11
147.409
21
-105.835
0
LINE
8
BLACK
6
CONTINUOUS
10
147.409
20
-105.835
11
147.583
21
-105.872
0
LINE
8
BLACK
6
CONTINUOUS
10
145.043
20
-105.872
11
145.205
21
-105.944
0
LINE
8
BLACK
6
CONTINUOUS
10
145.205
20
-105.944
11
145.349
21
-106.048
0
LINE
8
BLACK
6
CONTINUOUS
10
145.349
20
-106.048
11
145.468
21
-106.18
0
LINE
8
BLACK
6
CONTINUOUS
10
145.468
20
-106.18
11
145.557
21
-106.334
0
LINE
8
BLACK
6
CONTINUOUS
10
145.557
20
-106.334
11
145.611
21
-106.503
0
LINE
8
BLACK
6
CONTINUOUS
10
145.611
20
-106.503
11
145.63
21
-106.68
0
LINE
8
BLACK
6
CONTINUOUS
10
145.63
20
-106.68
11
145.611
21
-106.857
0
LINE
8
BLACK
6
CONTINUOUS
10
145.611
20
-106.857
11
145.557
21
-107.026
0
LINE
8
BLACK
6
CONTINUOUS
10
145.557
20
-107.026
11
145.468
21
-107.18
0
LINE
8
BLACK
6
CONTINUOUS
10
145.468
20
-107.18
11
145.349
21
-107.312
0
LINE
8
BLACK
6
CONTINUOUS
10
145.349
20
-107.312
11
145.205
21
-107.416
0
LINE
8
BLACK
6
CONTINUOUS
10
145.205
20
-107.416
11
145.043
21
-107.488
0
LINE
8
BLACK
6
CONTINUOUS
10
145.043
20
-107.488
11
144.869
21
-107.525
0
LINE
8
BLACK
6
CONTINUOUS
10
144.869
20
-107.525
11
144.691
21
-107.525
0
LINE
8
BLACK
6
CONTINUOUS
10
144.691
20
-107.525
11
144.517
21
-107.488
0
LINE
8
BLACK
6
CONTINUOUS
10
144.517
20
-107.488
11
144.355
21
-107.416
0
LINE
8
BLACK
6
CONTINUOUS
10
144.355
20
-107.416
11
144.211
21
-107.312
0
LINE
8
BLACK
6
CONTINUOUS
10
144.211
20
-107.312
11
144.092
21
-107.18
0
LINE
8
BLACK
6
CONTINUOUS
10
144.092
20
-107.18
11
144.003
21
-107.026
0
LINE
8
BLACK
6
CONTINUOUS
10
144.003
20
-107.026
11
143.949
21
-106.857
0
LINE
8
BLACK
6
CONTINUOUS
10
143.949
20
-106.857
11
143.93
21
-106.68
0
LINE
8
BLACK
6
CONTINUOUS
10
143.93
20
-106.68
11
143.949
21
-106.503
0
LINE
8
BLACK
6
CONTINUOUS
10
143.949
20
-106.503
11
144.003
21
-106.334
0
LINE
8
BLACK
6
CONTINUOUS
10
144.003
20
-106.334
11
144.092
21
-106.18
0
LINE
8
BLACK
6
CONTINUOUS
10
144.092
20
-106.18
11
144.211
21
-106.048
0
LINE
8
BLACK
6
CONTINUOUS
10
144.211
20
-106.048
11
144.355
21
-105.944
0
LINE
8
BLACK
6
CONTINUOUS
10
144.355
20
-105.944
11
144.517
21
-105.872
0
LINE
8
BLACK
6
CONTINUOUS
10
144.517
20
-105.872
11
144.691
21
-105.835
0
LINE
8
BLACK
6
CONTINUOUS
10
144.691
20
-105.835
11
144.869
21
-105.835
0
LINE
8
BLACK
6
CONTINUOUS
10
144.869
20
-105.835
11
145.043
21
-105.872
0
LINE
8
BLACK
6
CONTINUOUS
10
142.503
20
-105.872
11
142.665
21
-105.944
0
LINE
8
BLACK
6
CONTINUOUS
10
142.665
20
-105.944
11
142.809
21
-106.048
0
LINE
8
BLACK
6
CONTINUOUS
10
142.809
20
-106.048
11
142.928
21
-106.18
0
LINE
8
BLACK
6
CONTINUOUS
10
142.928
20
-106.18
11
143.017
21
-106.334
0
LINE
8
BLACK
6
CONTINUOUS
10
143.017
20
-106.334
11
143.071
21
-106.503
0
LINE
8
BLACK
6
CONTINUOUS
10
143.071
20
-106.503
11
143.09
21
-106.68
0
LINE
8
BLACK
6
CONTINUOUS
10
143.09
20
-106.68
11
143.071
21
-106.857
0
LINE
8
BLACK
6
CONTINUOUS
10
143.071
20
-106.857
11
143.017
21
-107.026
0
LINE
8
BLACK
6
CONTINUOUS
10
143.017
20
-107.026
11
142.928
21
-107.18
0
LINE
8
BLACK
6
CONTINUOUS
10
142.928
20
-107.18
11
142.809
21
-107.312
0
LINE
8
BLACK
6
CONTINUOUS
10
142.809
20
-107.312
11
142.665
21
-107.416
0
LINE
8
BLACK
6
CONTINUOUS
10
142.665
20
-107.416
11
142.503
21
-107.488
0
LINE
8
BLACK
6
CONTINUOUS
10
142.503
20
-107.488
11
142.329
21
-107.525
0
LINE
8
BLACK
6
CONTINUOUS
10
142.329
20
-107.525
11
142.151
21
-107.525
0
LINE
8
BLACK
6
CONTINUOUS
10
142.151
20
-107.525
11
141.977
21
-107.488
0
LINE
8
BLACK
6
CONTINUOUS
10
141.977
20
-107.488
11
141.815
21
-107.416
0
LINE
8
BLACK
6
CONTINUOUS
10
141.815
20
-107.416
11
141.671
21
-107.312
0
LINE
8
BLACK
6
CONTINUOUS
10
141.671
20
-107.312
11
141.552
21
-107.18
0
LINE
8
BLACK
6
CONTINUOUS
10
141.552
20
-107.18
11
141.463
21
-107.026
0
LINE
8
BLACK
6
CONTINUOUS
10
141.463
20
-107.026
11
141.409
21
-106.857
0
LINE
8
BLACK
6
CONTINUOUS
10
141.409
20
-106.857
11
141.39
21
-106.68
0
LINE
8
BLACK
6
CONTINUOUS
10
141.39
20
-106.68
11
141.409
21
-106.503
0
LINE
8
BLACK
6
CONTINUOUS
10
141.409
20
-106.503
11
141.463
21
-106.334
0
LINE
8
BLACK
6
CONTINUOUS
10
141.463
20
-106.334
11
141.552
21
-106.18
0
LINE
8
BLACK
6
CONTINUOUS
10
141.552
20
-106.18
11
141.671
21
-106.048
0
LINE
8
BLACK
6
CONTINUOUS
10
141.671
20
-106.048
11
141.815
21
-105.944
0
LINE
8
BLACK
6
CONTINUOUS
10
141.815
20
-105.944
11
141.977
21
-105.872
0
LINE
8
BLACK
6
CONTINUOUS
10
141.977
20
-105.872
11
142.151
21
-105.835
0
LINE
8
BLACK
6
CONTINUOUS
10
142.151
20
-105.835
11
142.329
21
-105.835
0
LINE
8
BLACK
6
CONTINUOUS
10
142.329
20
-105.835
11
142.503
21
-105.872
0
LINE
8
BLACK
6
CONTINUOUS
10
139.963
20
-105.872
11
140.125
21
-105.944
0
LINE
8
BLACK
6
CONTINUOUS
10
140.125
20
-105.944
11
140.269
21
-106.048
0
LINE
8
BLACK
6
CONTINUOUS
10
140.269
20
-106.048
11
140.388
21
-106.18
0
LINE
8
BLACK
6
CONTINUOUS
10
140.388
20
-106.18
11
140.477
21
-106.334
0
LINE
8
BLACK
6
CONTINUOUS
10
140.477
20
-106.334
11
140.531
21
-106.503
0
LINE
8
BLACK
6
CONTINUOUS
10
140.531
20
-106.503
11
140.55
21
-106.68
0
LINE
8
BLACK
6
CONTINUOUS
10
140.55
20
-106.68
11
140.531
21
-106.857
0
LINE
8
BLACK
6
CONTINUOUS
10
140.531
20
-106.857
11
140.477
21
-107.026
0
LINE
8
BLACK
6
CONTINUOUS
10
140.477
20
-107.026
11
140.388
21
-107.18
0
LINE
8
BLACK
6
CONTINUOUS
10
140.388
20
-107.18
11
140.269
21
-107.312
0
LINE
8
BLACK
6
CONTINUOUS
10
140.269
20
-107.312
11
140.125
21
-107.416
0
LINE
8
BLACK
6
CONTINUOUS
10
140.125
20
-107.416
11
139.963
21
-107.488
0
LINE
8
BLACK
6
CONTINUOUS
10
139.963
20
-107.488
11
139.789
21
-107.525
0
LINE
8
BLACK
6
CONTINUOUS
10
139.789
20
-107.525
11
139.611
21
-107.525
0
LINE
8
BLACK
6
CONTINUOUS
10
139.611
20
-107.525
11
139.437
21
-107.488
0
LINE
8
BLACK
6
CONTINUOUS
10
139.437
20
-107.488
11
139.275
21
-107.416
0
LINE
8
BLACK
6
CONTINUOUS
10
139.275
20
-107.416
11
139.131
21
-107.312
0
LINE
8
BLACK
6
CONTINUOUS
10
139.131
20
-107.312
11
139.012
21
-107.18
0
LINE
8
BLACK
6
CONTINUOUS
10
139.012
20
-107.18
11
138.923
21
-107.026
0
LINE
8
BLACK
6
CONTINUOUS
10
138.923
20
-107.026
11
138.869
21
-106.857
0
LINE
8
BLACK
6
CONTINUOUS
10
138.869
20
-106.857
11
138.85
21
-106.68
0
LINE
8
BLACK
6
CONTINUOUS
10
138.85
20
-106.68
11
138.869
21
-106.503
0
LINE
8
BLACK
6
CONTINUOUS
10
138.869
20
-106.503
11
138.923
21
-106.334
0
LINE
8
BLACK
6
CONTINUOUS
10
138.923
20
-106.334
11
139.012
21
-106.18
0
LINE
8
BLACK
6
CONTINUOUS
10
139.012
20
-106.18
11
139.131
21
-106.048
0
LINE
8
BLACK
6
CONTINUOUS
10
139.131
20
-106.048
11
139.275
21
-105.944
0
LINE
8
BLACK
6
CONTINUOUS
10
139.275
20
-105.944
11
139.437
21
-105.872
0
LINE
8
BLACK
6
CONTINUOUS
10
139.437
20
-105.872
11
139.611
21
-105.835
0
LINE
8
BLACK
6
CONTINUOUS
10
139.611
20
-105.835
11
139.789
21
-105.835
0
LINE
8
BLACK
6
CONTINUOUS
10
139.789
20
-105.835
11
139.963
21
-105.872
0
LINE
8
BLACK
6
CONTINUOUS
10
150.71
20
-94.83
11
149.01
21
-94.83
0
LINE
8
BLACK
6
CONTINUOUS
10
149.01
20
-94.83
11
149.01
21
-93.13
0
LINE
8
BLACK
6
CONTINUOUS
10
149.01
20
-93.13
11
150.71
21
-93.13
0
LINE
8
BLACK
6
CONTINUOUS
10
150.71
20
-93.13
11
150.71
21
-94.83
0
LINE
8
BLACK
6
CONTINUOUS
10
135.47
20
-94.83
11
133.77
21
-94.83
0
LINE
8
BLACK
6
CONTINUOUS
10
133.77
20
-94.83
11
133.77
21
-93.13
0
LINE
8
BLACK
6
CONTINUOUS
10
133.77
20
-93.13
11
135.47
21
-93.13
0
LINE
8
BLACK
6
CONTINUOUS
10
135.47
20
-93.13
11
135.47
21
-94.83
0
LINE
8
BLACK
6
CONTINUOUS
10
142.503
20
-93.1716
11
142.665
21
-93.2439
0
LINE
8
BLACK
6
CONTINUOUS
10
142.665
20
-93.2439
11
142.809
21
-93.3483
0
LINE
8
BLACK
6
CONTINUOUS
10
142.809
20
-93.3483
11
142.928
21
-93.4804
0
LINE
8
BLACK
6
CONTINUOUS
10
142.928
20
-93.4804
11
143.017
21
-93.6343
0
LINE
8
BLACK
6
CONTINUOUS
10
143.017
20
-93.6343
11
143.071
21
-93.8033
0
LINE
8
BLACK
6
CONTINUOUS
10
143.071
20
-93.8033
11
143.09
21
-93.98
0
LINE
8
BLACK
6
CONTINUOUS
10
143.09
20
-93.98
11
143.071
21
-94.1567
0
LINE
8
BLACK
6
CONTINUOUS
10
143.071
20
-94.1567
11
143.017
21
-94.3257
0
LINE
8
BLACK
6
CONTINUOUS
10
143.017
20
-94.3257
11
142.928
21
-94.4796
0
LINE
8
BLACK
6
CONTINUOUS
10
142.928
20
-94.4796
11
142.809
21
-94.6117
0
LINE
8
BLACK
6
CONTINUOUS
10
142.809
20
-94.6117
11
142.665
21
-94.7161
0
LINE
8
BLACK
6
CONTINUOUS
10
142.665
20
-94.7161
11
142.503
21
-94.7884
0
LINE
8
BLACK
6
CONTINUOUS
10
142.503
20
-94.7884
11
142.329
21
-94.8253
0
LINE
8
BLACK
6
CONTINUOUS
10
142.329
20
-94.8253
11
142.151
21
-94.8253
0
LINE
8
BLACK
6
CONTINUOUS
10
142.151
20
-94.8253
11
141.977
21
-94.7884
0
LINE
8
BLACK
6
CONTINUOUS
10
141.977
20
-94.7884
11
141.815
21
-94.7161
0
LINE
8
BLACK
6
CONTINUOUS
10
141.815
20
-94.7161
11
141.671
21
-94.6117
0
LINE
8
BLACK
6
CONTINUOUS
10
141.671
20
-94.6117
11
141.552
21
-94.4796
0
LINE
8
BLACK
6
CONTINUOUS
10
141.552
20
-94.4796
11
141.463
21
-94.3257
0
LINE
8
BLACK
6
CONTINUOUS
10
141.463
20
-94.3257
11
141.409
21
-94.1567
0
LINE
8
BLACK
6
CONTINUOUS
10
141.409
20
-94.1567
11
141.39
21
-93.98
0
LINE
8
BLACK
6
CONTINUOUS
10
141.39
20
-93.98
11
141.409
21
-93.8033
0
LINE
8
BLACK
6
CONTINUOUS
10
141.409
20
-93.8033
11
141.463
21
-93.6343
0
LINE
8
BLACK
6
CONTINUOUS
10
141.463
20
-93.6343
11
141.552
21
-93.4804
0
LINE
8
BLACK
6
CONTINUOUS
10
141.552
20
-93.4804
11
141.671
21
-93.3483
0
LINE
8
BLACK
6
CONTINUOUS
10
141.671
20
-93.3483
11
141.815
21
-93.2439
0
LINE
8
BLACK
6
CONTINUOUS
10
141.815
20
-93.2439
11
141.977
21
-93.1716
0
LINE
8
BLACK
6
CONTINUOUS
10
141.977
20
-93.1716
11
142.151
21
-93.1347
0
LINE
8
BLACK
6
CONTINUOUS
10
142.151
20
-93.1347
11
142.329
21
-93.1347
0
LINE
8
BLACK
6
CONTINUOUS
10
142.329
20
-93.1347
11
142.503
21
-93.1716
0
LINE
8
BLACK
6
CONTINUOUS
10
139.963
20
-93.1716
11
140.125
21
-93.2439
0
LINE
8
BLACK
6
CONTINUOUS
10
140.125
20
-93.2439
11
140.269
21
-93.3483
0
LINE
8
BLACK
6
CONTINUOUS
10
140.269
20
-93.3483
11
140.388
21
-93.4804
0
LINE
8
BLACK
6
CONTINUOUS
10
140.388
20
-93.4804
11
140.477
21
-93.6343
0
LINE
8
BLACK
6
CONTINUOUS
10
140.477
20
-93.6343
11
140.531
21
-93.8033
0
LINE
8
BLACK
6
CONTINUOUS
10
140.531
20
-93.8033
11
140.55
21
-93.98
0
LINE
8
BLACK
6
CONTINUOUS
10
140.55
20
-93.98
11
140.531
21
-94.1567
0
LINE
8
BLACK
6
CONTINUOUS
10
140.531
20
-94.1567
11
140.477
21
-94.3257
0
LINE
8
BLACK
6
CONTINUOUS
10
140.477
20
-94.3257
11
140.388
21
-94.4796
0
LINE
8
BLACK
6
CONTINUOUS
10
140.388
20
-94.4796
11
140.269
21
-94.6117
0
LINE
8
BLACK
6
CONTINUOUS
10
140.269
20
-94.6117
11
140.125
21
-94.7161
0
LINE
8
BLACK
6
CONTINUOUS
10
140.125
20
-94.7161
11
139.963
21
-94.7884
0
LINE
8
BLACK
6
CONTINUOUS
10
139.963
20
-94.7884
11
139.789
21
-94.8253
0
LINE
8
BLACK
6
CONTINUOUS
10
139.789
20
-94.8253
11
139.611
21
-94.8253
0
LINE
8
BLACK
6
CONTINUOUS
10
139.611
20
-94.8253
11
139.437
21
-94.7884
0
LINE
8
BLACK
6
CONTINUOUS
10
139.437
20
-94.7884
11
139.275
21
-94.7161
0
LINE
8
BLACK
6
CONTINUOUS
10
139.275
20
-94.7161
11
139.131
21
-94.6117
0
LINE
8
BLACK
6
CONTINUOUS
10
139.131
20
-94.6117
11
139.012
21
-94.4796
0
LINE
8
BLACK
6
CONTINUOUS
10
139.012
20
-94.4796
11
138.923
21
-94.3257
0
LINE
8
BLACK
6
CONTINUOUS
10
138.923
20
-94.3257
11
138.869
21
-94.1567
0
LINE
8
BLACK
6
CONTINUOUS
10
138.869
20
-94.1567
11
138.85
21
-93.98
0
LINE
8
BLACK
6
CONTINUOUS
10
138.85
20
-93.98
11
138.869
21
-93.8033
0
LINE
8
BLACK
6
CONTINUOUS
10
138.869
20
-93.8033
11
138.923
21
-93.6343
0
LINE
8
BLACK
6
CONTINUOUS
10
138.923
20
-93.6343
11
139.012
21
-93.4804
0
LINE
8
BLACK
6
CONTINUOUS
10
139.012
20
-93.4804
11
139.131
21
-93.3483
0
LINE
8
BLACK
6
CONTINUOUS
10
139.131
20
-93.3483
11
139.275
21
-93.2439
0
LINE
8
BLACK
6
CONTINUOUS
10
139.275
20
-93.2439
11
139.437
21
-93.1716
0
LINE
8
BLACK
6
CONTINUOUS
10
139.437
20
-93.1716
11
139.611
21
-93.1347
0
LINE
8
BLACK
6
CONTINUOUS
10
139.611
20
-93.1347
11
139.789
21
-93.1347
0
LINE
8
BLACK
6
CONTINUOUS
10
139.789
20
-93.1347
11
139.963
21
-93.1716
0
LINE
8
BLACK
6
CONTINUOUS
10
137.423
20
-93.1716
11
137.585
21
-93.2439
0
LINE
8
BLACK
6
CONTINUOUS
10
137.585
20
-93.2439
11
137.729
21
-93.3483
0
LINE
8
BLACK
6
CONTINUOUS
10
137.729
20
-93.3483
11
137.848
21
-93.4804
0
LINE
8
BLACK
6
CONTINUOUS
10
137.848
20
-93.4804
11
137.937
21
-93.6343
0
LINE
8
BLACK
6
CONTINUOUS
10
137.937
20
-93.6343
11
137.991
21
-93.8033
0
LINE
8
BLACK
6
CONTINUOUS
10
137.991
20
-93.8033
11
138.01
21
-93.98
0
LINE
8
BLACK
6
CONTINUOUS
10
138.01
20
-93.98
11
137.991
21
-94.1567
0
LINE
8
BLACK
6
CONTINUOUS
10
137.991
20
-94.1567
11
137.937
21
-94.3257
0
LINE
8
BLACK
6
CONTINUOUS
10
137.937
20
-94.3257
11
137.848
21
-94.4796
0
LINE
8
BLACK
6
CONTINUOUS
10
137.848
20
-94.4796
11
137.729
21
-94.6117
0
LINE
8
BLACK
6
CONTINUOUS
10
137.729
20
-94.6117
11
137.585
21
-94.7161
0
LINE
8
BLACK
6
CONTINUOUS
10
137.585
20
-94.7161
11
137.423
21
-94.7884
0
LINE
8
BLACK
6
CONTINUOUS
10
137.423
20
-94.7884
11
137.249
21
-94.8253
0
LINE
8
BLACK
6
CONTINUOUS
10
137.249
20
-94.8253
11
137.071
21
-94.8253
0
LINE
8
BLACK
6
CONTINUOUS
10
137.071
20
-94.8253
11
136.897
21
-94.7884
0
LINE
8
BLACK
6
CONTINUOUS
10
136.897
20
-94.7884
11
136.735
21
-94.7161
0
LINE
8
BLACK
6
CONTINUOUS
10
136.735
20
-94.7161
11
136.591
21
-94.6117
0
LINE
8
BLACK
6
CONTINUOUS
10
136.591
20
-94.6117
11
136.472
21
-94.4796
0
LINE
8
BLACK
6
CONTINUOUS
10
136.472
20
-94.4796
11
136.383
21
-94.3257
0
LINE
8
BLACK
6
CONTINUOUS
10
136.383
20
-94.3257
11
136.329
21
-94.1567
0
LINE
8
BLACK
6
CONTINUOUS
10
136.329
20
-94.1567
11
136.31
21
-93.98
0
LINE
8
BLACK
6
CONTINUOUS
10
136.31
20
-93.98
11
136.329
21
-93.8033
0
LINE
8
BLACK
6
CONTINUOUS
10
136.329
20
-93.8033
11
136.383
21
-93.6343
0
LINE
8
BLACK
6
CONTINUOUS
10
136.383
20
-93.6343
11
136.472
21
-93.4804
0
LINE
8
BLACK
6
CONTINUOUS
10
136.472
20
-93.4804
11
136.591
21
-93.3483
0
LINE
8
BLACK
6
CONTINUOUS
10
136.591
20
-93.3483
11
136.735
21
-93.2439
0
LINE
8
BLACK
6
CONTINUOUS
10
136.735
20
-93.2439
11
136.897
21
-93.1716
0
LINE
8
BLACK
6
CONTINUOUS
10
136.897
20
-93.1716
11
137.071
21
-93.1347
0
LINE
8
BLACK
6
CONTINUOUS
10
137.071
20
-93.1347
11
137.249
21
-93.1347
0
LINE
8
BLACK
6
CONTINUOUS
10
137.249
20
-93.1347
11
137.423
21
-93.1716
0
LINE
8
BLACK
6
CONTINUOUS
10
157.743
20
-93.1716
11
157.905
21
-93.2439
0
LINE
8
BLACK
6
CONTINUOUS
10
157.905
20
-93.2439
11
158.049
21
-93.3483
0
LINE
8
BLACK
6
CONTINUOUS
10
158.049
20
-93.3483
11
158.168
21
-93.4804
0
LINE
8
BLACK
6
CONTINUOUS
10
158.168
20
-93.4804
11
158.257
21
-93.6343
0
LINE
8
BLACK
6
CONTINUOUS
10
158.257
20
-93.6343
11
158.311
21
-93.8033
0
LINE
8
BLACK
6
CONTINUOUS
10
158.311
20
-93.8033
11
158.33
21
-93.98
0
LINE
8
BLACK
6
CONTINUOUS
10
158.33
20
-93.98
11
158.311
21
-94.1567
0
LINE
8
BLACK
6
CONTINUOUS
10
158.311
20
-94.1567
11
158.257
21
-94.3257
0
LINE
8
BLACK
6
CONTINUOUS
10
158.257
20
-94.3257
11
158.168
21
-94.4796
0
LINE
8
BLACK
6
CONTINUOUS
10
158.168
20
-94.4796
11
158.049
21
-94.6117
0
LINE
8
BLACK
6
CONTINUOUS
10
158.049
20
-94.6117
11
157.905
21
-94.7161
0
LINE
8
BLACK
6
CONTINUOUS
10
157.905
20
-94.7161
11
157.743
21
-94.7884
0
LINE
8
BLACK
6
CONTINUOUS
10
157.743
20
-94.7884
11
157.569
21
-94.8253
0
LINE
8
BLACK
6
CONTINUOUS
10
157.569
20
-94.8253
11
157.391
21
-94.8253
0
LINE
8
BLACK
6
CONTINUOUS
10
157.391
20
-94.8253
11
157.217
21
-94.7884
0
LINE
8
BLACK
6
CONTINUOUS
10
157.217
20
-94.7884
11
157.055
21
-94.7161
0
LINE
8
BLACK
6
CONTINUOUS
10
157.055
20
-94.7161
11
156.911
21
-94.6117
0
LINE
8
BLACK
6
CONTINUOUS
10
156.911
20
-94.6117
11
156.792
21
-94.4796
0
LINE
8
BLACK
6
CONTINUOUS
10
156.792
20
-94.4796
11
156.703
21
-94.3257
0
LINE
8
BLACK
6
CONTINUOUS
10
156.703
20
-94.3257
11
156.649
21
-94.1567
0
LINE
8
BLACK
6
CONTINUOUS
10
156.649
20
-94.1567
11
156.63
21
-93.98
0
LINE
8
BLACK
6
CONTINUOUS
10
156.63
20
-93.98
11
156.649
21
-93.8033
0
LINE
8
BLACK
6
CONTINUOUS
10
156.649
20
-93.8033
11
156.703
21
-93.6343
0
LINE
8
BLACK
6
CONTINUOUS
10
156.703
20
-93.6343
11
156.792
21
-93.4804
0
LINE
8
BLACK
6
CONTINUOUS
10
156.792
20
-93.4804
11
156.911
21
-93.3483
0
LINE
8
BLACK
6
CONTINUOUS
10
156.911
20
-93.3483
11
157.055
21
-93.2439
0
LINE
8
BLACK
6
CONTINUOUS
10
157.055
20
-93.2439
11
157.217
21
-93.1716
0
LINE
8
BLACK
6
CONTINUOUS
10
157.217
20
-93.1716
11
157.391
21
-93.1347
0
LINE
8
BLACK
6
CONTINUOUS
10
157.391
20
-93.1347
11
157.569
21
-93.1347
0
LINE
8
BLACK
6
CONTINUOUS
10
157.569
20
-93.1347
11
157.743
21
-93.1716
0
LINE
8
BLACK
6
CONTINUOUS
10
155.203
20
-93.1716
11
155.365
21
-93.2439
0
LINE
8
BLACK
6
CONTINUOUS
10
155.365
20
-93.2439
11
155.509
21
-93.3483
0
LINE
8
BLACK
6
CONTINUOUS
10
155.509
20
-93.3483
11
155.628
21
-93.4804
0
LINE
8
BLACK
6
CONTINUOUS
10
155.628
20
-93.4804
11
155.717
21
-93.6343
0
LINE
8
BLACK
6
CONTINUOUS
10
155.717
20
-93.6343
11
155.771
21
-93.8033
0
LINE
8
BLACK
6
CONTINUOUS
10
155.771
20
-93.8033
11
155.79
21
-93.98
0
LINE
8
BLACK
6
CONTINUOUS
10
155.79
20
-93.98
11
155.771
21
-94.1567
0
LINE
8
BLACK
6
CONTINUOUS
10
155.771
20
-94.1567
11
155.717
21
-94.3257
0
LINE
8
BLACK
6
CONTINUOUS
10
155.717
20
-94.3257
11
155.628
21
-94.4796
0
LINE
8
BLACK
6
CONTINUOUS
10
155.628
20
-94.4796
11
155.509
21
-94.6117
0
LINE
8
BLACK
6
CONTINUOUS
10
155.509
20
-94.6117
11
155.365
21
-94.7161
0
LINE
8
BLACK
6
CONTINUOUS
10
155.365
20
-94.7161
11
155.203
21
-94.7884
0
LINE
8
BLACK
6
CONTINUOUS
10
155.203
20
-94.7884
11
155.029
21
-94.8253
0
LINE
8
BLACK
6
CONTINUOUS
10
155.029
20
-94.8253
11
154.851
21
-94.8253
0
LINE
8
BLACK
6
CONTINUOUS
10
154.851
20
-94.8253
11
154.677
21
-94.7884
0
LINE
8
BLACK
6
CONTINUOUS
10
154.677
20
-94.7884
11
154.515
21
-94.7161
0
LINE
8
BLACK
6
CONTINUOUS
10
154.515
20
-94.7161
11
154.371
21
-94.6117
0
LINE
8
BLACK
6
CONTINUOUS
10
154.371
20
-94.6117
11
154.252
21
-94.4796
0
LINE
8
BLACK
6
CONTINUOUS
10
154.252
20
-94.4796
11
154.163
21
-94.3257
0
LINE
8
BLACK
6
CONTINUOUS
10
154.163
20
-94.3257
11
154.109
21
-94.1567
0
LINE
8
BLACK
6
CONTINUOUS
10
154.109
20
-94.1567
11
154.09
21
-93.98
0
LINE
8
BLACK
6
CONTINUOUS
10
154.09
20
-93.98
11
154.109
21
-93.8033
0
LINE
8
BLACK
6
CONTINUOUS
10
154.109
20
-93.8033
11
154.163
21
-93.6343
0
LINE
8
BLACK
6
CONTINUOUS
10
154.163
20
-93.6343
11
154.252
21
-93.4804
0
LINE
8
BLACK
6
CONTINUOUS
10
154.252
20
-93.4804
11
154.371
21
-93.3483
0
LINE
8
BLACK
6
CONTINUOUS
10
154.371
20
-93.3483
11
154.515
21
-93.2439
0
LINE
8
BLACK
6
CONTINUOUS
10
154.515
20
-93.2439
11
154.677
21
-93.1716
0
LINE
8
BLACK
6
CONTINUOUS
10
154.677
20
-93.1716
11
154.851
21
-93.1347
0
LINE
8
BLACK
6
CONTINUOUS
10
154.851
20
-93.1347
11
155.029
21
-93.1347
0
LINE
8
BLACK
6
CONTINUOUS
10
155.029
20
-93.1347
11
155.203
21
-93.1716
0
LINE
8
BLACK
6
CONTINUOUS
10
152.663
20
-93.1716
11
152.825
21
-93.2439
0
LINE
8
BLACK
6
CONTINUOUS
10
152.825
20
-93.2439
11
152.969
21
-93.3483
0
LINE
8
BLACK
6
CONTINUOUS
10
152.969
20
-93.3483
11
153.088
21
-93.4804
0
LINE
8
BLACK
6
CONTINUOUS
10
153.088
20
-93.4804
11
153.177
21
-93.6343
0
LINE
8
BLACK
6
CONTINUOUS
10
153.177
20
-93.6343
11
153.231
21
-93.8033
0
LINE
8
BLACK
6
CONTINUOUS
10
153.231
20
-93.8033
11
153.25
21
-93.98
0
LINE
8
BLACK
6
CONTINUOUS
10
153.25
20
-93.98
11
153.231
21
-94.1567
0
LINE
8
BLACK
6
CONTINUOUS
10
153.231
20
-94.1567
11
153.177
21
-94.3257
0
LINE
8
BLACK
6
CONTINUOUS
10
153.177
20
-94.3257
11
153.088
21
-94.4796
0
LINE
8
BLACK
6
CONTINUOUS
10
153.088
20
-94.4796
11
152.969
21
-94.6117
0
LINE
8
BLACK
6
CONTINUOUS
10
152.969
20
-94.6117
11
152.825
21
-94.7161
0
LINE
8
BLACK
6
CONTINUOUS
10
152.825
20
-94.7161
11
152.663
21
-94.7884
0
LINE
8
BLACK
6
CONTINUOUS
10
152.663
20
-94.7884
11
152.489
21
-94.8253
0
LINE
8
BLACK
6
CONTINUOUS
10
152.489
20
-94.8253
11
152.311
21
-94.8253
0
LINE
8
BLACK
6
CONTINUOUS
10
152.311
20
-94.8253
11
152.137
21
-94.7884
0
LINE
8
BLACK
6
CONTINUOUS
10
152.137
20
-94.7884
11
151.975
21
-94.7161
0
LINE
8
BLACK
6
CONTINUOUS
10
151.975
20
-94.7161
11
151.831
21
-94.6117
0
LINE
8
BLACK
6
CONTINUOUS
10
151.831
20
-94.6117
11
151.712
21
-94.4796
0
LINE
8
BLACK
6
CONTINUOUS
10
151.712
20
-94.4796
11
151.623
21
-94.3257
0
LINE
8
BLACK
6
CONTINUOUS
10
151.623
20
-94.3257
11
151.569
21
-94.1567
0
LINE
8
BLACK
6
CONTINUOUS
10
151.569
20
-94.1567
11
151.55
21
-93.98
0
LINE
8
BLACK
6
CONTINUOUS
10
151.55
20
-93.98
11
151.569
21
-93.8033
0
LINE
8
BLACK
6
CONTINUOUS
10
151.569
20
-93.8033
11
151.623
21
-93.6343
0
LINE
8
BLACK
6
CONTINUOUS
10
151.623
20
-93.6343
11
151.712
21
-93.4804
0
LINE
8
BLACK
6
CONTINUOUS
10
151.712
20
-93.4804
11
151.831
21
-93.3483
0
LINE
8
BLACK
6
CONTINUOUS
10
151.831
20
-93.3483
11
151.975
21
-93.2439
0
LINE
8
BLACK
6
CONTINUOUS
10
151.975
20
-93.2439
11
152.137
21
-93.1716
0
LINE
8
BLACK
6
CONTINUOUS
10
152.137
20
-93.1716
11
152.311
21
-93.1347
0
LINE
8
BLACK
6
CONTINUOUS
10
152.311
20
-93.1347
11
152.489
21
-93.1347
0
LINE
8
BLACK
6
CONTINUOUS
10
152.489
20
-93.1347
11
152.663
21
-93.1716
  0
ENDSEC
  0
EOF
