  0
SECTION
  2
HEADER
  9
$ANGBASE
  50
0.0
  9
$ANGDIR
  70
1
  9
$MEASUREMENT
  70
1
  0
ENDSEC
  0
SECTION
  2
TABLES
  0
TABLE
  2
LTYPE
  70
4
  0
LTYPE
  5
40F
  2
CONTINUOUS
  70
0
  3
Solid line
  72
65
  73
0
  40
0.0
  0
LTYPE
  5
410
  2
DASHDOT
 70
0
  3
Dash Dot ____ _ ____ _
 72
65
 73
4
 40
2.0
 49
1.25
 49
-0.25
 49
0.25
 49
-0.25
  0
LTYPE
  5
411
  2
DASHED
 70
0
  3
Dashed __ __ __ __ __
 72
65
 73
2
 40
0.75
 49
0.5
 49
-0.25
  0
LTYPE
  5
43B
  2
DOTTED
 70
0
  3
Dotted .  .  .  .
 72
65
 73
2
 40
0.2
 49
0.0
 49
-0.2
  0
ENDTAB
  0
TABLE
  2
STYLE
  70
4
  0
STYLE
  2
KICAD
  70
0
  40
0
  41
1
  42
1
  50
0
  71
0
  3
isocp.shx
  0
STYLE
  2
KICADB
  70
0
  40
0
  41
1
  42
1
  50
0
  71
0
  3
isocp.shx
  0
STYLE
  2
KICADI
  70
0
  40
0
  41
1
  42
1
  50
15
  71
0
  3
isocp.shx
  0
STYLE
  2
KICADBI
  70
0
  40
0
  41
1
  42
1
  50
15
  71
0
  3
isocp.shx
  0
ENDTAB
  0
TABLE
  2
LAYER
  70
1
  0
LAYER
  2
BLACK
  70
0
  62
7
  6
CONTINUOUS
  0
ENDTAB
  0
ENDSEC
  0
SECTION
  2
ENTITIES
0
LINE
8
BLACK
6
CONTINUOUS
10
135.47
20
-107.53
11
133.77
21
-107.53
0
LINE
8
BLACK
6
CONTINUOUS
10
133.77
20
-107.53
11
133.77
21
-105.83
0
LINE
8
BLACK
6
CONTINUOUS
10
133.77
20
-105.83
11
135.47
21
-105.83
0
LINE
8
BLACK
6
CONTINUOUS
10
135.47
20
-105.83
11
135.47
21
-107.53
0
LINE
8
BLACK
6
CONTINUOUS
10
157.743
20
-105.872
11
157.905
21
-105.944
0
LINE
8
BLACK
6
CONTINUOUS
10
157.905
20
-105.944
11
158.049
21
-106.048
0
LINE
8
BLACK
6
CONTINUOUS
10
158.049
20
-106.048
11
158.168
21
-106.18
0
LINE
8
BLACK
6
CONTINUOUS
10
158.168
20
-106.18
11
158.257
21
-106.334
0
LINE
8
BLACK
6
CONTINUOUS
10
158.257
20
-106.334
11
158.311
21
-106.503
0
LINE
8
BLACK
6
CONTINUOUS
10
158.311
20
-106.503
11
158.33
21
-106.68
0
LINE
8
BLACK
6
CONTINUOUS
10
158.33
20
-106.68
11
158.311
21
-106.857
0
LINE
8
BLACK
6
CONTINUOUS
10
158.311
20
-106.857
11
158.257
21
-107.026
0
LINE
8
BLACK
6
CONTINUOUS
10
158.257
20
-107.026
11
158.168
21
-107.18
0
LINE
8
BLACK
6
CONTINUOUS
10
158.168
20
-107.18
11
158.049
21
-107.312
0
LINE
8
BLACK
6
CONTINUOUS
10
158.049
20
-107.312
11
157.905
21
-107.416
0
LINE
8
BLACK
6
CONTINUOUS
10
157.905
20
-107.416
11
157.743
21
-107.488
0
LINE
8
BLACK
6
CONTINUOUS
10
157.743
20
-107.488
11
157.569
21
-107.525
0
LINE
8
BLACK
6
CONTINUOUS
10
157.569
20
-107.525
11
157.391
21
-107.525
0
LINE
8
BLACK
6
CONTINUOUS
10
157.391
20
-107.525
11
157.217
21
-107.488
0
LINE
8
BLACK
6
CONTINUOUS
10
157.217
20
-107.488
11
157.055
21
-107.416
0
LINE
8
BLACK
6
CONTINUOUS
10
157.055
20
-107.416
11
156.911
21
-107.312
0
LINE
8
BLACK
6
CONTINUOUS
10
156.911
20
-107.312
11
156.792
21
-107.18
0
LINE
8
BLACK
6
CONTINUOUS
10
156.792
20
-107.18
11
156.703
21
-107.026
0
LINE
8
BLACK
6
CONTINUOUS
10
156.703
20
-107.026
11
156.649
21
-106.857
0
LINE
8
BLACK
6
CONTINUOUS
10
156.649
20
-106.857
11
156.63
21
-106.68
0
LINE
8
BLACK
6
CONTINUOUS
10
156.63
20
-106.68
11
156.649
21
-106.503
0
LINE
8
BLACK
6
CONTINUOUS
10
156.649
20
-106.503
11
156.703
21
-106.334
0
LINE
8
BLACK
6
CONTINUOUS
10
156.703
20
-106.334
11
156.792
21
-106.18
0
LINE
8
BLACK
6
CONTINUOUS
10
156.792
20
-106.18
11
156.911
21
-106.048
0
LINE
8
BLACK
6
CONTINUOUS
10
156.911
20
-106.048
11
157.055
21
-105.944
0
LINE
8
BLACK
6
CONTINUOUS
10
157.055
20
-105.944
11
157.217
21
-105.872
0
LINE
8
BLACK
6
CONTINUOUS
10
157.217
20
-105.872
11
157.391
21
-105.835
0
LINE
8
BLACK
6
CONTINUOUS
10
157.391
20
-105.835
11
157.569
21
-105.835
0
LINE
8
BLACK
6
CONTINUOUS
10
157.569
20
-105.835
11
157.743
21
-105.872
0
LINE
8
BLACK
6
CONTINUOUS
10
137.423
20
-105.872
11
137.585
21
-105.944
0
LINE
8
BLACK
6
CONTINUOUS
10
137.585
20
-105.944
11
137.729
21
-106.048
0
LINE
8
BLACK
6
CONTINUOUS
10
137.729
20
-106.048
11
137.848
21
-106.18
0
LINE
8
BLACK
6
CONTINUOUS
10
137.848
20
-106.18
11
137.937
21
-106.334
0
LINE
8
BLACK
6
CONTINUOUS
10
137.937
20
-106.334
11
137.991
21
-106.503
0
LINE
8
BLACK
6
CONTINUOUS
10
137.991
20
-106.503
11
138.01
21
-106.68
0
LINE
8
BLACK
6
CONTINUOUS
10
138.01
20
-106.68
11
137.991
21
-106.857
0
LINE
8
BLACK
6
CONTINUOUS
10
137.991
20
-106.857
11
137.937
21
-107.026
0
LINE
8
BLACK
6
CONTINUOUS
10
137.937
20
-107.026
11
137.848
21
-107.18
0
LINE
8
BLACK
6
CONTINUOUS
10
137.848
20
-107.18
11
137.729
21
-107.312
0
LINE
8
BLACK
6
CONTINUOUS
10
137.729
20
-107.312
11
137.585
21
-107.416
0
LINE
8
BLACK
6
CONTINUOUS
10
137.585
20
-107.416
11
137.423
21
-107.488
0
LINE
8
BLACK
6
CONTINUOUS
10
137.423
20
-107.488
11
137.249
21
-107.525
0
LINE
8
BLACK
6
CONTINUOUS
10
137.249
20
-107.525
11
137.071
21
-107.525
0
LINE
8
BLACK
6
CONTINUOUS
10
137.071
20
-107.525
11
136.897
21
-107.488
0
LINE
8
BLACK
6
CONTINUOUS
10
136.897
20
-107.488
11
136.735
21
-107.416
0
LINE
8
BLACK
6
CONTINUOUS
10
136.735
20
-107.416
11
136.591
21
-107.312
0
LINE
8
BLACK
6
CONTINUOUS
10
136.591
20
-107.312
11
136.472
21
-107.18
0
LINE
8
BLACK
6
CONTINUOUS
10
136.472
20
-107.18
11
136.383
21
-107.026
0
LINE
8
BLACK
6
CONTINUOUS
10
136.383
20
-107.026
11
136.329
21
-106.857
0
LINE
8
BLACK
6
CONTINUOUS
10
136.329
20
-106.857
11
136.31
21
-106.68
0
LINE
8
BLACK
6
CONTINUOUS
10
136.31
20
-106.68
11
136.329
21
-106.503
0
LINE
8
BLACK
6
CONTINUOUS
10
136.329
20
-106.503
11
136.383
21
-106.334
0
LINE
8
BLACK
6
CONTINUOUS
10
136.383
20
-106.334
11
136.472
21
-106.18
0
LINE
8
BLACK
6
CONTINUOUS
10
136.472
20
-106.18
11
136.591
21
-106.048
0
LINE
8
BLACK
6
CONTINUOUS
10
136.591
20
-106.048
11
136.735
21
-105.944
0
LINE
8
BLACK
6
CONTINUOUS
10
136.735
20
-105.944
11
136.897
21
-105.872
0
LINE
8
BLACK
6
CONTINUOUS
10
136.897
20
-105.872
11
137.071
21
-105.835
0
LINE
8
BLACK
6
CONTINUOUS
10
137.071
20
-105.835
11
137.249
21
-105.835
0
LINE
8
BLACK
6
CONTINUOUS
10
137.249
20
-105.835
11
137.423
21
-105.872
0
LINE
8
BLACK
6
CONTINUOUS
10
139.963
20
-105.872
11
140.125
21
-105.944
0
LINE
8
BLACK
6
CONTINUOUS
10
140.125
20
-105.944
11
140.269
21
-106.048
0
LINE
8
BLACK
6
CONTINUOUS
10
140.269
20
-106.048
11
140.388
21
-106.18
0
LINE
8
BLACK
6
CONTINUOUS
10
140.388
20
-106.18
11
140.477
21
-106.334
0
LINE
8
BLACK
6
CONTINUOUS
10
140.477
20
-106.334
11
140.531
21
-106.503
0
LINE
8
BLACK
6
CONTINUOUS
10
140.531
20
-106.503
11
140.55
21
-106.68
0
LINE
8
BLACK
6
CONTINUOUS
10
140.55
20
-106.68
11
140.531
21
-106.857
0
LINE
8
BLACK
6
CONTINUOUS
10
140.531
20
-106.857
11
140.477
21
-107.026
0
LINE
8
BLACK
6
CONTINUOUS
10
140.477
20
-107.026
11
140.388
21
-107.18
0
LINE
8
BLACK
6
CONTINUOUS
10
140.388
20
-107.18
11
140.269
21
-107.312
0
LINE
8
BLACK
6
CONTINUOUS
10
140.269
20
-107.312
11
140.125
21
-107.416
0
LINE
8
BLACK
6
CONTINUOUS
10
140.125
20
-107.416
11
139.963
21
-107.488
0
LINE
8
BLACK
6
CONTINUOUS
10
139.963
20
-107.488
11
139.789
21
-107.525
0
LINE
8
BLACK
6
CONTINUOUS
10
139.789
20
-107.525
11
139.611
21
-107.525
0
LINE
8
BLACK
6
CONTINUOUS
10
139.611
20
-107.525
11
139.437
21
-107.488
0
LINE
8
BLACK
6
CONTINUOUS
10
139.437
20
-107.488
11
139.275
21
-107.416
0
LINE
8
BLACK
6
CONTINUOUS
10
139.275
20
-107.416
11
139.131
21
-107.312
0
LINE
8
BLACK
6
CONTINUOUS
10
139.131
20
-107.312
11
139.012
21
-107.18
0
LINE
8
BLACK
6
CONTINUOUS
10
139.012
20
-107.18
11
138.923
21
-107.026
0
LINE
8
BLACK
6
CONTINUOUS
10
138.923
20
-107.026
11
138.869
21
-106.857
0
LINE
8
BLACK
6
CONTINUOUS
10
138.869
20
-106.857
11
138.85
21
-106.68
0
LINE
8
BLACK
6
CONTINUOUS
10
138.85
20
-106.68
11
138.869
21
-106.503
0
LINE
8
BLACK
6
CONTINUOUS
10
138.869
20
-106.503
11
138.923
21
-106.334
0
LINE
8
BLACK
6
CONTINUOUS
10
138.923
20
-106.334
11
139.012
21
-106.18
0
LINE
8
BLACK
6
CONTINUOUS
10
139.012
20
-106.18
11
139.131
21
-106.048
0
LINE
8
BLACK
6
CONTINUOUS
10
139.131
20
-106.048
11
139.275
21
-105.944
0
LINE
8
BLACK
6
CONTINUOUS
10
139.275
20
-105.944
11
139.437
21
-105.872
0
LINE
8
BLACK
6
CONTINUOUS
10
139.437
20
-105.872
11
139.611
21
-105.835
0
LINE
8
BLACK
6
CONTINUOUS
10
139.611
20
-105.835
11
139.789
21
-105.835
0
LINE
8
BLACK
6
CONTINUOUS
10
139.789
20
-105.835
11
139.963
21
-105.872
0
LINE
8
BLACK
6
CONTINUOUS
10
142.503
20
-105.872
11
142.665
21
-105.944
0
LINE
8
BLACK
6
CONTINUOUS
10
142.665
20
-105.944
11
142.809
21
-106.048
0
LINE
8
BLACK
6
CONTINUOUS
10
142.809
20
-106.048
11
142.928
21
-106.18
0
LINE
8
BLACK
6
CONTINUOUS
10
142.928
20
-106.18
11
143.017
21
-106.334
0
LINE
8
BLACK
6
CONTINUOUS
10
143.017
20
-106.334
11
143.071
21
-106.503
0
LINE
8
BLACK
6
CONTINUOUS
10
143.071
20
-106.503
11
143.09
21
-106.68
0
LINE
8
BLACK
6
CONTINUOUS
10
143.09
20
-106.68
11
143.071
21
-106.857
0
LINE
8
BLACK
6
CONTINUOUS
10
143.071
20
-106.857
11
143.017
21
-107.026
0
LINE
8
BLACK
6
CONTINUOUS
10
143.017
20
-107.026
11
142.928
21
-107.18
0
LINE
8
BLACK
6
CONTINUOUS
10
142.928
20
-107.18
11
142.809
21
-107.312
0
LINE
8
BLACK
6
CONTINUOUS
10
142.809
20
-107.312
11
142.665
21
-107.416
0
LINE
8
BLACK
6
CONTINUOUS
10
142.665
20
-107.416
11
142.503
21
-107.488
0
LINE
8
BLACK
6
CONTINUOUS
10
142.503
20
-107.488
11
142.329
21
-107.525
0
LINE
8
BLACK
6
CONTINUOUS
10
142.329
20
-107.525
11
142.151
21
-107.525
0
LINE
8
BLACK
6
CONTINUOUS
10
142.151
20
-107.525
11
141.977
21
-107.488
0
LINE
8
BLACK
6
CONTINUOUS
10
141.977
20
-107.488
11
141.815
21
-107.416
0
LINE
8
BLACK
6
CONTINUOUS
10
141.815
20
-107.416
11
141.671
21
-107.312
0
LINE
8
BLACK
6
CONTINUOUS
10
141.671
20
-107.312
11
141.552
21
-107.18
0
LINE
8
BLACK
6
CONTINUOUS
10
141.552
20
-107.18
11
141.463
21
-107.026
0
LINE
8
BLACK
6
CONTINUOUS
10
141.463
20
-107.026
11
141.409
21
-106.857
0
LINE
8
BLACK
6
CONTINUOUS
10
141.409
20
-106.857
11
141.39
21
-106.68
0
LINE
8
BLACK
6
CONTINUOUS
10
141.39
20
-106.68
11
141.409
21
-106.503
0
LINE
8
BLACK
6
CONTINUOUS
10
141.409
20
-106.503
11
141.463
21
-106.334
0
LINE
8
BLACK
6
CONTINUOUS
10
141.463
20
-106.334
11
141.552
21
-106.18
0
LINE
8
BLACK
6
CONTINUOUS
10
141.552
20
-106.18
11
141.671
21
-106.048
0
LINE
8
BLACK
6
CONTINUOUS
10
141.671
20
-106.048
11
141.815
21
-105.944
0
LINE
8
BLACK
6
CONTINUOUS
10
141.815
20
-105.944
11
141.977
21
-105.872
0
LINE
8
BLACK
6
CONTINUOUS
10
141.977
20
-105.872
11
142.151
21
-105.835
0
LINE
8
BLACK
6
CONTINUOUS
10
142.151
20
-105.835
11
142.329
21
-105.835
0
LINE
8
BLACK
6
CONTINUOUS
10
142.329
20
-105.835
11
142.503
21
-105.872
0
LINE
8
BLACK
6
CONTINUOUS
10
145.043
20
-105.872
11
145.205
21
-105.944
0
LINE
8
BLACK
6
CONTINUOUS
10
145.205
20
-105.944
11
145.349
21
-106.048
0
LINE
8
BLACK
6
CONTINUOUS
10
145.349
20
-106.048
11
145.468
21
-106.18
0
LINE
8
BLACK
6
CONTINUOUS
10
145.468
20
-106.18
11
145.557
21
-106.334
0
LINE
8
BLACK
6
CONTINUOUS
10
145.557
20
-106.334
11
145.611
21
-106.503
0
LINE
8
BLACK
6
CONTINUOUS
10
145.611
20
-106.503
11
145.63
21
-106.68
0
LINE
8
BLACK
6
CONTINUOUS
10
145.63
20
-106.68
11
145.611
21
-106.857
0
LINE
8
BLACK
6
CONTINUOUS
10
145.611
20
-106.857
11
145.557
21
-107.026
0
LINE
8
BLACK
6
CONTINUOUS
10
145.557
20
-107.026
11
145.468
21
-107.18
0
LINE
8
BLACK
6
CONTINUOUS
10
145.468
20
-107.18
11
145.349
21
-107.312
0
LINE
8
BLACK
6
CONTINUOUS
10
145.349
20
-107.312
11
145.205
21
-107.416
0
LINE
8
BLACK
6
CONTINUOUS
10
145.205
20
-107.416
11
145.043
21
-107.488
0
LINE
8
BLACK
6
CONTINUOUS
10
145.043
20
-107.488
11
144.869
21
-107.525
0
LINE
8
BLACK
6
CONTINUOUS
10
144.869
20
-107.525
11
144.691
21
-107.525
0
LINE
8
BLACK
6
CONTINUOUS
10
144.691
20
-107.525
11
144.517
21
-107.488
0
LINE
8
BLACK
6
CONTINUOUS
10
144.517
20
-107.488
11
144.355
21
-107.416
0
LINE
8
BLACK
6
CONTINUOUS
10
144.355
20
-107.416
11
144.211
21
-107.312
0
LINE
8
BLACK
6
CONTINUOUS
10
144.211
20
-107.312
11
144.092
21
-107.18
0
LINE
8
BLACK
6
CONTINUOUS
10
144.092
20
-107.18
11
144.003
21
-107.026
0
LINE
8
BLACK
6
CONTINUOUS
10
144.003
20
-107.026
11
143.949
21
-106.857
0
LINE
8
BLACK
6
CONTINUOUS
10
143.949
20
-106.857
11
143.93
21
-106.68
0
LINE
8
BLACK
6
CONTINUOUS
10
143.93
20
-106.68
11
143.949
21
-106.503
0
LINE
8
BLACK
6
CONTINUOUS
10
143.949
20
-106.503
11
144.003
21
-106.334
0
LINE
8
BLACK
6
CONTINUOUS
10
144.003
20
-106.334
11
144.092
21
-106.18
0
LINE
8
BLACK
6
CONTINUOUS
10
144.092
20
-106.18
11
144.211
21
-106.048
0
LINE
8
BLACK
6
CONTINUOUS
10
144.211
20
-106.048
11
144.355
21
-105.944
0
LINE
8
BLACK
6
CONTINUOUS
10
144.355
20
-105.944
11
144.517
21
-105.872
0
LINE
8
BLACK
6
CONTINUOUS
10
144.517
20
-105.872
11
144.691
21
-105.835
0
LINE
8
BLACK
6
CONTINUOUS
10
144.691
20
-105.835
11
144.869
21
-105.835
0
LINE
8
BLACK
6
CONTINUOUS
10
144.869
20
-105.835
11
145.043
21
-105.872
0
LINE
8
BLACK
6
CONTINUOUS
10
147.583
20
-105.872
11
147.745
21
-105.944
0
LINE
8
BLACK
6
CONTINUOUS
10
147.745
20
-105.944
11
147.889
21
-106.048
0
LINE
8
BLACK
6
CONTINUOUS
10
147.889
20
-106.048
11
148.008
21
-106.18
0
LINE
8
BLACK
6
CONTINUOUS
10
148.008
20
-106.18
11
148.097
21
-106.334
0
LINE
8
BLACK
6
CONTINUOUS
10
148.097
20
-106.334
11
148.151
21
-106.503
0
LINE
8
BLACK
6
CONTINUOUS
10
148.151
20
-106.503
11
148.17
21
-106.68
0
LINE
8
BLACK
6
CONTINUOUS
10
148.17
20
-106.68
11
148.151
21
-106.857
0
LINE
8
BLACK
6
CONTINUOUS
10
148.151
20
-106.857
11
148.097
21
-107.026
0
LINE
8
BLACK
6
CONTINUOUS
10
148.097
20
-107.026
11
148.008
21
-107.18
0
LINE
8
BLACK
6
CONTINUOUS
10
148.008
20
-107.18
11
147.889
21
-107.312
0
LINE
8
BLACK
6
CONTINUOUS
10
147.889
20
-107.312
11
147.745
21
-107.416
0
LINE
8
BLACK
6
CONTINUOUS
10
147.745
20
-107.416
11
147.583
21
-107.488
0
LINE
8
BLACK
6
CONTINUOUS
10
147.583
20
-107.488
11
147.409
21
-107.525
0
LINE
8
BLACK
6
CONTINUOUS
10
147.409
20
-107.525
11
147.231
21
-107.525
0
LINE
8
BLACK
6
CONTINUOUS
10
147.231
20
-107.525
11
147.057
21
-107.488
0
LINE
8
BLACK
6
CONTINUOUS
10
147.057
20
-107.488
11
146.895
21
-107.416
0
LINE
8
BLACK
6
CONTINUOUS
10
146.895
20
-107.416
11
146.751
21
-107.312
0
LINE
8
BLACK
6
CONTINUOUS
10
146.751
20
-107.312
11
146.632
21
-107.18
0
LINE
8
BLACK
6
CONTINUOUS
10
146.632
20
-107.18
11
146.543
21
-107.026
0
LINE
8
BLACK
6
CONTINUOUS
10
146.543
20
-107.026
11
146.489
21
-106.857
0
LINE
8
BLACK
6
CONTINUOUS
10
146.489
20
-106.857
11
146.47
21
-106.68
0
LINE
8
BLACK
6
CONTINUOUS
10
146.47
20
-106.68
11
146.489
21
-106.503
0
LINE
8
BLACK
6
CONTINUOUS
10
146.489
20
-106.503
11
146.543
21
-106.334
0
LINE
8
BLACK
6
CONTINUOUS
10
146.543
20
-106.334
11
146.632
21
-106.18
0
LINE
8
BLACK
6
CONTINUOUS
10
146.632
20
-106.18
11
146.751
21
-106.048
0
LINE
8
BLACK
6
CONTINUOUS
10
146.751
20
-106.048
11
146.895
21
-105.944
0
LINE
8
BLACK
6
CONTINUOUS
10
146.895
20
-105.944
11
147.057
21
-105.872
0
LINE
8
BLACK
6
CONTINUOUS
10
147.057
20
-105.872
11
147.231
21
-105.835
0
LINE
8
BLACK
6
CONTINUOUS
10
147.231
20
-105.835
11
147.409
21
-105.835
0
LINE
8
BLACK
6
CONTINUOUS
10
147.409
20
-105.835
11
147.583
21
-105.872
0
LINE
8
BLACK
6
CONTINUOUS
10
150.123
20
-105.872
11
150.285
21
-105.944
0
LINE
8
BLACK
6
CONTINUOUS
10
150.285
20
-105.944
11
150.429
21
-106.048
0
LINE
8
BLACK
6
CONTINUOUS
10
150.429
20
-106.048
11
150.548
21
-106.18
0
LINE
8
BLACK
6
CONTINUOUS
10
150.548
20
-106.18
11
150.637
21
-106.334
0
LINE
8
BLACK
6
CONTINUOUS
10
150.637
20
-106.334
11
150.691
21
-106.503
0
LINE
8
BLACK
6
CONTINUOUS
10
150.691
20
-106.503
11
150.71
21
-106.68
0
LINE
8
BLACK
6
CONTINUOUS
10
150.71
20
-106.68
11
150.691
21
-106.857
0
LINE
8
BLACK
6
CONTINUOUS
10
150.691
20
-106.857
11
150.637
21
-107.026
0
LINE
8
BLACK
6
CONTINUOUS
10
150.637
20
-107.026
11
150.548
21
-107.18
0
LINE
8
BLACK
6
CONTINUOUS
10
150.548
20
-107.18
11
150.429
21
-107.312
0
LINE
8
BLACK
6
CONTINUOUS
10
150.429
20
-107.312
11
150.285
21
-107.416
0
LINE
8
BLACK
6
CONTINUOUS
10
150.285
20
-107.416
11
150.123
21
-107.488
0
LINE
8
BLACK
6
CONTINUOUS
10
150.123
20
-107.488
11
149.949
21
-107.525
0
LINE
8
BLACK
6
CONTINUOUS
10
149.949
20
-107.525
11
149.771
21
-107.525
0
LINE
8
BLACK
6
CONTINUOUS
10
149.771
20
-107.525
11
149.597
21
-107.488
0
LINE
8
BLACK
6
CONTINUOUS
10
149.597
20
-107.488
11
149.435
21
-107.416
0
LINE
8
BLACK
6
CONTINUOUS
10
149.435
20
-107.416
11
149.291
21
-107.312
0
LINE
8
BLACK
6
CONTINUOUS
10
149.291
20
-107.312
11
149.172
21
-107.18
0
LINE
8
BLACK
6
CONTINUOUS
10
149.172
20
-107.18
11
149.083
21
-107.026
0
LINE
8
BLACK
6
CONTINUOUS
10
149.083
20
-107.026
11
149.029
21
-106.857
0
LINE
8
BLACK
6
CONTINUOUS
10
149.029
20
-106.857
11
149.01
21
-106.68
0
LINE
8
BLACK
6
CONTINUOUS
10
149.01
20
-106.68
11
149.029
21
-106.503
0
LINE
8
BLACK
6
CONTINUOUS
10
149.029
20
-106.503
11
149.083
21
-106.334
0
LINE
8
BLACK
6
CONTINUOUS
10
149.083
20
-106.334
11
149.172
21
-106.18
0
LINE
8
BLACK
6
CONTINUOUS
10
149.172
20
-106.18
11
149.291
21
-106.048
0
LINE
8
BLACK
6
CONTINUOUS
10
149.291
20
-106.048
11
149.435
21
-105.944
0
LINE
8
BLACK
6
CONTINUOUS
10
149.435
20
-105.944
11
149.597
21
-105.872
0
LINE
8
BLACK
6
CONTINUOUS
10
149.597
20
-105.872
11
149.771
21
-105.835
0
LINE
8
BLACK
6
CONTINUOUS
10
149.771
20
-105.835
11
149.949
21
-105.835
0
LINE
8
BLACK
6
CONTINUOUS
10
149.949
20
-105.835
11
150.123
21
-105.872
0
LINE
8
BLACK
6
CONTINUOUS
10
152.663
20
-105.872
11
152.825
21
-105.944
0
LINE
8
BLACK
6
CONTINUOUS
10
152.825
20
-105.944
11
152.969
21
-106.048
0
LINE
8
BLACK
6
CONTINUOUS
10
152.969
20
-106.048
11
153.088
21
-106.18
0
LINE
8
BLACK
6
CONTINUOUS
10
153.088
20
-106.18
11
153.177
21
-106.334
0
LINE
8
BLACK
6
CONTINUOUS
10
153.177
20
-106.334
11
153.231
21
-106.503
0
LINE
8
BLACK
6
CONTINUOUS
10
153.231
20
-106.503
11
153.25
21
-106.68
0
LINE
8
BLACK
6
CONTINUOUS
10
153.25
20
-106.68
11
153.231
21
-106.857
0
LINE
8
BLACK
6
CONTINUOUS
10
153.231
20
-106.857
11
153.177
21
-107.026
0
LINE
8
BLACK
6
CONTINUOUS
10
153.177
20
-107.026
11
153.088
21
-107.18
0
LINE
8
BLACK
6
CONTINUOUS
10
153.088
20
-107.18
11
152.969
21
-107.312
0
LINE
8
BLACK
6
CONTINUOUS
10
152.969
20
-107.312
11
152.825
21
-107.416
0
LINE
8
BLACK
6
CONTINUOUS
10
152.825
20
-107.416
11
152.663
21
-107.488
0
LINE
8
BLACK
6
CONTINUOUS
10
152.663
20
-107.488
11
152.489
21
-107.525
0
LINE
8
BLACK
6
CONTINUOUS
10
152.489
20
-107.525
11
152.311
21
-107.525
0
LINE
8
BLACK
6
CONTINUOUS
10
152.311
20
-107.525
11
152.137
21
-107.488
0
LINE
8
BLACK
6
CONTINUOUS
10
152.137
20
-107.488
11
151.975
21
-107.416
0
LINE
8
BLACK
6
CONTINUOUS
10
151.975
20
-107.416
11
151.831
21
-107.312
0
LINE
8
BLACK
6
CONTINUOUS
10
151.831
20
-107.312
11
151.712
21
-107.18
0
LINE
8
BLACK
6
CONTINUOUS
10
151.712
20
-107.18
11
151.623
21
-107.026
0
LINE
8
BLACK
6
CONTINUOUS
10
151.623
20
-107.026
11
151.569
21
-106.857
0
LINE
8
BLACK
6
CONTINUOUS
10
151.569
20
-106.857
11
151.55
21
-106.68
0
LINE
8
BLACK
6
CONTINUOUS
10
151.55
20
-106.68
11
151.569
21
-106.503
0
LINE
8
BLACK
6
CONTINUOUS
10
151.569
20
-106.503
11
151.623
21
-106.334
0
LINE
8
BLACK
6
CONTINUOUS
10
151.623
20
-106.334
11
151.712
21
-106.18
0
LINE
8
BLACK
6
CONTINUOUS
10
151.712
20
-106.18
11
151.831
21
-106.048
0
LINE
8
BLACK
6
CONTINUOUS
10
151.831
20
-106.048
11
151.975
21
-105.944
0
LINE
8
BLACK
6
CONTINUOUS
10
151.975
20
-105.944
11
152.137
21
-105.872
0
LINE
8
BLACK
6
CONTINUOUS
10
152.137
20
-105.872
11
152.311
21
-105.835
0
LINE
8
BLACK
6
CONTINUOUS
10
152.311
20
-105.835
11
152.489
21
-105.835
0
LINE
8
BLACK
6
CONTINUOUS
10
152.489
20
-105.835
11
152.663
21
-105.872
0
LINE
8
BLACK
6
CONTINUOUS
10
155.203
20
-105.872
11
155.365
21
-105.944
0
LINE
8
BLACK
6
CONTINUOUS
10
155.365
20
-105.944
11
155.509
21
-106.048
0
LINE
8
BLACK
6
CONTINUOUS
10
155.509
20
-106.048
11
155.628
21
-106.18
0
LINE
8
BLACK
6
CONTINUOUS
10
155.628
20
-106.18
11
155.717
21
-106.334
0
LINE
8
BLACK
6
CONTINUOUS
10
155.717
20
-106.334
11
155.771
21
-106.503
0
LINE
8
BLACK
6
CONTINUOUS
10
155.771
20
-106.503
11
155.79
21
-106.68
0
LINE
8
BLACK
6
CONTINUOUS
10
155.79
20
-106.68
11
155.771
21
-106.857
0
LINE
8
BLACK
6
CONTINUOUS
10
155.771
20
-106.857
11
155.717
21
-107.026
0
LINE
8
BLACK
6
CONTINUOUS
10
155.717
20
-107.026
11
155.628
21
-107.18
0
LINE
8
BLACK
6
CONTINUOUS
10
155.628
20
-107.18
11
155.509
21
-107.312
0
LINE
8
BLACK
6
CONTINUOUS
10
155.509
20
-107.312
11
155.365
21
-107.416
0
LINE
8
BLACK
6
CONTINUOUS
10
155.365
20
-107.416
11
155.203
21
-107.488
0
LINE
8
BLACK
6
CONTINUOUS
10
155.203
20
-107.488
11
155.029
21
-107.525
0
LINE
8
BLACK
6
CONTINUOUS
10
155.029
20
-107.525
11
154.851
21
-107.525
0
LINE
8
BLACK
6
CONTINUOUS
10
154.851
20
-107.525
11
154.677
21
-107.488
0
LINE
8
BLACK
6
CONTINUOUS
10
154.677
20
-107.488
11
154.515
21
-107.416
0
LINE
8
BLACK
6
CONTINUOUS
10
154.515
20
-107.416
11
154.371
21
-107.312
0
LINE
8
BLACK
6
CONTINUOUS
10
154.371
20
-107.312
11
154.252
21
-107.18
0
LINE
8
BLACK
6
CONTINUOUS
10
154.252
20
-107.18
11
154.163
21
-107.026
0
LINE
8
BLACK
6
CONTINUOUS
10
154.163
20
-107.026
11
154.109
21
-106.857
0
LINE
8
BLACK
6
CONTINUOUS
10
154.109
20
-106.857
11
154.09
21
-106.68
0
LINE
8
BLACK
6
CONTINUOUS
10
154.09
20
-106.68
11
154.109
21
-106.503
0
LINE
8
BLACK
6
CONTINUOUS
10
154.109
20
-106.503
11
154.163
21
-106.334
0
LINE
8
BLACK
6
CONTINUOUS
10
154.163
20
-106.334
11
154.252
21
-106.18
0
LINE
8
BLACK
6
CONTINUOUS
10
154.252
20
-106.18
11
154.371
21
-106.048
0
LINE
8
BLACK
6
CONTINUOUS
10
154.371
20
-106.048
11
154.515
21
-105.944
0
LINE
8
BLACK
6
CONTINUOUS
10
154.515
20
-105.944
11
154.677
21
-105.872
0
LINE
8
BLACK
6
CONTINUOUS
10
154.677
20
-105.872
11
154.851
21
-105.835
0
LINE
8
BLACK
6
CONTINUOUS
10
154.851
20
-105.835
11
155.029
21
-105.835
0
LINE
8
BLACK
6
CONTINUOUS
10
155.029
20
-105.835
11
155.203
21
-105.872
0
LINE
8
BLACK
6
CONTINUOUS
10
139.509
20
-104.167
11
139.59
21
-104.221
0
LINE
8
BLACK
6
CONTINUOUS
10
139.59
20
-104.221
11
139.644
21
-104.302
0
LINE
8
BLACK
6
CONTINUOUS
10
139.644
20
-104.302
11
139.663
21
-104.398
0
LINE
8
BLACK
6
CONTINUOUS
10
139.663
20
-104.398
11
139.663
21
-104.898
0
LINE
8
BLACK
6
CONTINUOUS
10
139.663
20
-104.898
11
139.644
21
-104.994
0
LINE
8
BLACK
6
CONTINUOUS
10
139.644
20
-104.994
11
139.59
21
-105.075
0
LINE
8
BLACK
6
CONTINUOUS
10
139.59
20
-105.075
11
139.509
21
-105.129
0
LINE
8
BLACK
6
CONTINUOUS
10
139.509
20
-105.129
11
139.413
21
-105.148
0
LINE
8
BLACK
6
CONTINUOUS
10
139.413
20
-105.148
11
138.463
21
-105.148
0
LINE
8
BLACK
6
CONTINUOUS
10
138.463
20
-105.148
11
138.367
21
-105.129
0
LINE
8
BLACK
6
CONTINUOUS
10
138.367
20
-105.129
11
138.286
21
-105.075
0
LINE
8
BLACK
6
CONTINUOUS
10
138.286
20
-105.075
11
138.232
21
-104.994
0
LINE
8
BLACK
6
CONTINUOUS
10
138.232
20
-104.994
11
138.213
21
-104.898
0
LINE
8
BLACK
6
CONTINUOUS
10
138.213
20
-104.898
11
138.213
21
-104.398
0
LINE
8
BLACK
6
CONTINUOUS
10
138.213
20
-104.398
11
138.232
21
-104.302
0
LINE
8
BLACK
6
CONTINUOUS
10
138.232
20
-104.302
11
138.286
21
-104.221
0
LINE
8
BLACK
6
CONTINUOUS
10
138.286
20
-104.221
11
138.367
21
-104.167
0
LINE
8
BLACK
6
CONTINUOUS
10
138.367
20
-104.167
11
138.463
21
-104.148
0
LINE
8
BLACK
6
CONTINUOUS
10
138.463
20
-104.148
11
139.413
21
-104.148
0
LINE
8
BLACK
6
CONTINUOUS
10
139.413
20
-104.148
11
139.509
21
-104.167
0
LINE
8
BLACK
6
CONTINUOUS
10
141.576
20
-104.263
11
141.64
21
-104.307
0
LINE
8
BLACK
6
CONTINUOUS
10
141.64
20
-104.307
11
141.684
21
-104.371
0
LINE
8
BLACK
6
CONTINUOUS
10
141.684
20
-104.371
11
141.699
21
-104.448
0
LINE
8
BLACK
6
CONTINUOUS
10
141.699
20
-104.448
11
141.699
21
-104.848
0
LINE
8
BLACK
6
CONTINUOUS
10
141.699
20
-104.848
11
141.684
21
-104.925
0
LINE
8
BLACK
6
CONTINUOUS
10
141.684
20
-104.925
11
141.64
21
-104.989
0
LINE
8
BLACK
6
CONTINUOUS
10
141.64
20
-104.989
11
141.576
21
-105.033
0
LINE
8
BLACK
6
CONTINUOUS
10
141.576
20
-105.033
11
141.499
21
-105.048
0
LINE
8
BLACK
6
CONTINUOUS
10
141.499
20
-105.048
11
140.949
21
-105.048
0
LINE
8
BLACK
6
CONTINUOUS
10
140.949
20
-105.048
11
140.872
21
-105.033
0
LINE
8
BLACK
6
CONTINUOUS
10
140.872
20
-105.033
11
140.808
21
-104.989
0
LINE
8
BLACK
6
CONTINUOUS
10
140.808
20
-104.989
11
140.764
21
-104.925
0
LINE
8
BLACK
6
CONTINUOUS
10
140.764
20
-104.925
11
140.749
21
-104.848
0
LINE
8
BLACK
6
CONTINUOUS
10
140.749
20
-104.848
11
140.749
21
-104.448
0
LINE
8
BLACK
6
CONTINUOUS
10
140.749
20
-104.448
11
140.764
21
-104.371
0
LINE
8
BLACK
6
CONTINUOUS
10
140.764
20
-104.371
11
140.808
21
-104.307
0
LINE
8
BLACK
6
CONTINUOUS
10
140.808
20
-104.307
11
140.872
21
-104.263
0
LINE
8
BLACK
6
CONTINUOUS
10
140.872
20
-104.263
11
140.949
21
-104.248
0
LINE
8
BLACK
6
CONTINUOUS
10
140.949
20
-104.248
11
141.499
21
-104.248
0
LINE
8
BLACK
6
CONTINUOUS
10
141.499
20
-104.248
11
141.576
21
-104.263
0
LINE
8
BLACK
6
CONTINUOUS
10
144.279
20
-103.479
11
144.312
21
-103.5
0
LINE
8
BLACK
6
CONTINUOUS
10
144.312
20
-103.5
11
144.333
21
-103.533
0
LINE
8
BLACK
6
CONTINUOUS
10
144.333
20
-103.533
11
144.341
21
-103.571
0
LINE
8
BLACK
6
CONTINUOUS
10
144.341
20
-103.571
11
144.341
21
-104.846
0
LINE
8
BLACK
6
CONTINUOUS
10
144.341
20
-104.846
11
144.333
21
-104.884
0
LINE
8
BLACK
6
CONTINUOUS
10
144.333
20
-104.884
11
144.312
21
-104.917
0
LINE
8
BLACK
6
CONTINUOUS
10
144.312
20
-104.917
11
144.279
21
-104.938
0
LINE
8
BLACK
6
CONTINUOUS
10
144.279
20
-104.938
11
144.241
21
-104.946
0
LINE
8
BLACK
6
CONTINUOUS
10
144.241
20
-104.946
11
144.041
21
-104.946
0
LINE
8
BLACK
6
CONTINUOUS
10
144.041
20
-104.946
11
144.003
21
-104.938
0
LINE
8
BLACK
6
CONTINUOUS
10
144.003
20
-104.938
11
143.97
21
-104.917
0
LINE
8
BLACK
6
CONTINUOUS
10
143.97
20
-104.917
11
143.949
21
-104.884
0
LINE
8
BLACK
6
CONTINUOUS
10
143.949
20
-104.884
11
143.941
21
-104.846
0
LINE
8
BLACK
6
CONTINUOUS
10
143.941
20
-104.846
11
143.941
21
-103.571
0
LINE
8
BLACK
6
CONTINUOUS
10
143.941
20
-103.571
11
143.949
21
-103.533
0
LINE
8
BLACK
6
CONTINUOUS
10
143.949
20
-103.533
11
143.97
21
-103.5
0
LINE
8
BLACK
6
CONTINUOUS
10
143.97
20
-103.5
11
144.003
21
-103.479
0
LINE
8
BLACK
6
CONTINUOUS
10
144.003
20
-103.479
11
144.041
21
-103.471
0
LINE
8
BLACK
6
CONTINUOUS
10
144.041
20
-103.471
11
144.241
21
-103.471
0
LINE
8
BLACK
6
CONTINUOUS
10
144.241
20
-103.471
11
144.279
21
-103.479
0
LINE
8
BLACK
6
CONTINUOUS
10
150.129
20
-103.479
11
150.162
21
-103.5
0
LINE
8
BLACK
6
CONTINUOUS
10
150.162
20
-103.5
11
150.183
21
-103.533
0
LINE
8
BLACK
6
CONTINUOUS
10
150.183
20
-103.533
11
150.191
21
-103.571
0
LINE
8
BLACK
6
CONTINUOUS
10
150.191
20
-103.571
11
150.191
21
-104.846
0
LINE
8
BLACK
6
CONTINUOUS
10
150.191
20
-104.846
11
150.183
21
-104.884
0
LINE
8
BLACK
6
CONTINUOUS
10
150.183
20
-104.884
11
150.162
21
-104.917
0
LINE
8
BLACK
6
CONTINUOUS
10
150.162
20
-104.917
11
150.129
21
-104.938
0
LINE
8
BLACK
6
CONTINUOUS
10
150.129
20
-104.938
11
150.091
21
-104.946
0
LINE
8
BLACK
6
CONTINUOUS
10
150.091
20
-104.946
11
149.891
21
-104.946
0
LINE
8
BLACK
6
CONTINUOUS
10
149.891
20
-104.946
11
149.853
21
-104.938
0
LINE
8
BLACK
6
CONTINUOUS
10
149.853
20
-104.938
11
149.82
21
-104.917
0
LINE
8
BLACK
6
CONTINUOUS
10
149.82
20
-104.917
11
149.799
21
-104.884
0
LINE
8
BLACK
6
CONTINUOUS
10
149.799
20
-104.884
11
149.791
21
-104.846
0
LINE
8
BLACK
6
CONTINUOUS
10
149.791
20
-104.846
11
149.791
21
-103.571
0
LINE
8
BLACK
6
CONTINUOUS
10
149.791
20
-103.571
11
149.799
21
-103.533
0
LINE
8
BLACK
6
CONTINUOUS
10
149.799
20
-103.533
11
149.82
21
-103.5
0
LINE
8
BLACK
6
CONTINUOUS
10
149.82
20
-103.5
11
149.853
21
-103.479
0
LINE
8
BLACK
6
CONTINUOUS
10
149.853
20
-103.479
11
149.891
21
-103.471
0
LINE
8
BLACK
6
CONTINUOUS
10
149.891
20
-103.471
11
150.091
21
-103.471
0
LINE
8
BLACK
6
CONTINUOUS
10
150.091
20
-103.471
11
150.129
21
-103.479
0
LINE
8
BLACK
6
CONTINUOUS
10
149.479
20
-103.479
11
149.512
21
-103.5
0
LINE
8
BLACK
6
CONTINUOUS
10
149.512
20
-103.5
11
149.533
21
-103.533
0
LINE
8
BLACK
6
CONTINUOUS
10
149.533
20
-103.533
11
149.541
21
-103.571
0
LINE
8
BLACK
6
CONTINUOUS
10
149.541
20
-103.571
11
149.541
21
-104.846
0
LINE
8
BLACK
6
CONTINUOUS
10
149.541
20
-104.846
11
149.533
21
-104.884
0
LINE
8
BLACK
6
CONTINUOUS
10
149.533
20
-104.884
11
149.512
21
-104.917
0
LINE
8
BLACK
6
CONTINUOUS
10
149.512
20
-104.917
11
149.479
21
-104.938
0
LINE
8
BLACK
6
CONTINUOUS
10
149.479
20
-104.938
11
149.441
21
-104.946
0
LINE
8
BLACK
6
CONTINUOUS
10
149.441
20
-104.946
11
149.241
21
-104.946
0
LINE
8
BLACK
6
CONTINUOUS
10
149.241
20
-104.946
11
149.203
21
-104.938
0
LINE
8
BLACK
6
CONTINUOUS
10
149.203
20
-104.938
11
149.17
21
-104.917
0
LINE
8
BLACK
6
CONTINUOUS
10
149.17
20
-104.917
11
149.149
21
-104.884
0
LINE
8
BLACK
6
CONTINUOUS
10
149.149
20
-104.884
11
149.141
21
-104.846
0
LINE
8
BLACK
6
CONTINUOUS
10
149.141
20
-104.846
11
149.141
21
-103.571
0
LINE
8
BLACK
6
CONTINUOUS
10
149.141
20
-103.571
11
149.149
21
-103.533
0
LINE
8
BLACK
6
CONTINUOUS
10
149.149
20
-103.533
11
149.17
21
-103.5
0
LINE
8
BLACK
6
CONTINUOUS
10
149.17
20
-103.5
11
149.203
21
-103.479
0
LINE
8
BLACK
6
CONTINUOUS
10
149.203
20
-103.479
11
149.241
21
-103.471
0
LINE
8
BLACK
6
CONTINUOUS
10
149.241
20
-103.471
11
149.441
21
-103.471
0
LINE
8
BLACK
6
CONTINUOUS
10
149.441
20
-103.471
11
149.479
21
-103.479
0
LINE
8
BLACK
6
CONTINUOUS
10
148.829
20
-103.479
11
148.862
21
-103.5
0
LINE
8
BLACK
6
CONTINUOUS
10
148.862
20
-103.5
11
148.883
21
-103.533
0
LINE
8
BLACK
6
CONTINUOUS
10
148.883
20
-103.533
11
148.891
21
-103.571
0
LINE
8
BLACK
6
CONTINUOUS
10
148.891
20
-103.571
11
148.891
21
-104.846
0
LINE
8
BLACK
6
CONTINUOUS
10
148.891
20
-104.846
11
148.883
21
-104.884
0
LINE
8
BLACK
6
CONTINUOUS
10
148.883
20
-104.884
11
148.862
21
-104.917
0
LINE
8
BLACK
6
CONTINUOUS
10
148.862
20
-104.917
11
148.829
21
-104.938
0
LINE
8
BLACK
6
CONTINUOUS
10
148.829
20
-104.938
11
148.791
21
-104.946
0
LINE
8
BLACK
6
CONTINUOUS
10
148.791
20
-104.946
11
148.591
21
-104.946
0
LINE
8
BLACK
6
CONTINUOUS
10
148.591
20
-104.946
11
148.553
21
-104.938
0
LINE
8
BLACK
6
CONTINUOUS
10
148.553
20
-104.938
11
148.52
21
-104.917
0
LINE
8
BLACK
6
CONTINUOUS
10
148.52
20
-104.917
11
148.499
21
-104.884
0
LINE
8
BLACK
6
CONTINUOUS
10
148.499
20
-104.884
11
148.491
21
-104.846
0
LINE
8
BLACK
6
CONTINUOUS
10
148.491
20
-104.846
11
148.491
21
-103.571
0
LINE
8
BLACK
6
CONTINUOUS
10
148.491
20
-103.571
11
148.499
21
-103.533
0
LINE
8
BLACK
6
CONTINUOUS
10
148.499
20
-103.533
11
148.52
21
-103.5
0
LINE
8
BLACK
6
CONTINUOUS
10
148.52
20
-103.5
11
148.553
21
-103.479
0
LINE
8
BLACK
6
CONTINUOUS
10
148.553
20
-103.479
11
148.591
21
-103.471
0
LINE
8
BLACK
6
CONTINUOUS
10
148.591
20
-103.471
11
148.791
21
-103.471
0
LINE
8
BLACK
6
CONTINUOUS
10
148.791
20
-103.471
11
148.829
21
-103.479
0
LINE
8
BLACK
6
CONTINUOUS
10
148.179
20
-103.479
11
148.212
21
-103.5
0
LINE
8
BLACK
6
CONTINUOUS
10
148.212
20
-103.5
11
148.233
21
-103.533
0
LINE
8
BLACK
6
CONTINUOUS
10
148.233
20
-103.533
11
148.241
21
-103.571
0
LINE
8
BLACK
6
CONTINUOUS
10
148.241
20
-103.571
11
148.241
21
-104.846
0
LINE
8
BLACK
6
CONTINUOUS
10
148.241
20
-104.846
11
148.233
21
-104.884
0
LINE
8
BLACK
6
CONTINUOUS
10
148.233
20
-104.884
11
148.212
21
-104.917
0
LINE
8
BLACK
6
CONTINUOUS
10
148.212
20
-104.917
11
148.179
21
-104.938
0
LINE
8
BLACK
6
CONTINUOUS
10
148.179
20
-104.938
11
148.141
21
-104.946
0
LINE
8
BLACK
6
CONTINUOUS
10
148.141
20
-104.946
11
147.941
21
-104.946
0
LINE
8
BLACK
6
CONTINUOUS
10
147.941
20
-104.946
11
147.903
21
-104.938
0
LINE
8
BLACK
6
CONTINUOUS
10
147.903
20
-104.938
11
147.87
21
-104.917
0
LINE
8
BLACK
6
CONTINUOUS
10
147.87
20
-104.917
11
147.849
21
-104.884
0
LINE
8
BLACK
6
CONTINUOUS
10
147.849
20
-104.884
11
147.841
21
-104.846
0
LINE
8
BLACK
6
CONTINUOUS
10
147.841
20
-104.846
11
147.841
21
-103.571
0
LINE
8
BLACK
6
CONTINUOUS
10
147.841
20
-103.571
11
147.849
21
-103.533
0
LINE
8
BLACK
6
CONTINUOUS
10
147.849
20
-103.533
11
147.87
21
-103.5
0
LINE
8
BLACK
6
CONTINUOUS
10
147.87
20
-103.5
11
147.903
21
-103.479
0
LINE
8
BLACK
6
CONTINUOUS
10
147.903
20
-103.479
11
147.941
21
-103.471
0
LINE
8
BLACK
6
CONTINUOUS
10
147.941
20
-103.471
11
148.141
21
-103.471
0
LINE
8
BLACK
6
CONTINUOUS
10
148.141
20
-103.471
11
148.179
21
-103.479
0
LINE
8
BLACK
6
CONTINUOUS
10
147.529
20
-103.479
11
147.562
21
-103.5
0
LINE
8
BLACK
6
CONTINUOUS
10
147.562
20
-103.5
11
147.583
21
-103.533
0
LINE
8
BLACK
6
CONTINUOUS
10
147.583
20
-103.533
11
147.591
21
-103.571
0
LINE
8
BLACK
6
CONTINUOUS
10
147.591
20
-103.571
11
147.591
21
-104.846
0
LINE
8
BLACK
6
CONTINUOUS
10
147.591
20
-104.846
11
147.583
21
-104.884
0
LINE
8
BLACK
6
CONTINUOUS
10
147.583
20
-104.884
11
147.562
21
-104.917
0
LINE
8
BLACK
6
CONTINUOUS
10
147.562
20
-104.917
11
147.529
21
-104.938
0
LINE
8
BLACK
6
CONTINUOUS
10
147.529
20
-104.938
11
147.491
21
-104.946
0
LINE
8
BLACK
6
CONTINUOUS
10
147.491
20
-104.946
11
147.291
21
-104.946
0
LINE
8
BLACK
6
CONTINUOUS
10
147.291
20
-104.946
11
147.253
21
-104.938
0
LINE
8
BLACK
6
CONTINUOUS
10
147.253
20
-104.938
11
147.22
21
-104.917
0
LINE
8
BLACK
6
CONTINUOUS
10
147.22
20
-104.917
11
147.199
21
-104.884
0
LINE
8
BLACK
6
CONTINUOUS
10
147.199
20
-104.884
11
147.191
21
-104.846
0
LINE
8
BLACK
6
CONTINUOUS
10
147.191
20
-104.846
11
147.191
21
-103.571
0
LINE
8
BLACK
6
CONTINUOUS
10
147.191
20
-103.571
11
147.199
21
-103.533
0
LINE
8
BLACK
6
CONTINUOUS
10
147.199
20
-103.533
11
147.22
21
-103.5
0
LINE
8
BLACK
6
CONTINUOUS
10
147.22
20
-103.5
11
147.253
21
-103.479
0
LINE
8
BLACK
6
CONTINUOUS
10
147.253
20
-103.479
11
147.291
21
-103.471
0
LINE
8
BLACK
6
CONTINUOUS
10
147.291
20
-103.471
11
147.491
21
-103.471
0
LINE
8
BLACK
6
CONTINUOUS
10
147.491
20
-103.471
11
147.529
21
-103.479
0
LINE
8
BLACK
6
CONTINUOUS
10
146.879
20
-103.479
11
146.912
21
-103.5
0
LINE
8
BLACK
6
CONTINUOUS
10
146.912
20
-103.5
11
146.933
21
-103.533
0
LINE
8
BLACK
6
CONTINUOUS
10
146.933
20
-103.533
11
146.941
21
-103.571
0
LINE
8
BLACK
6
CONTINUOUS
10
146.941
20
-103.571
11
146.941
21
-104.846
0
LINE
8
BLACK
6
CONTINUOUS
10
146.941
20
-104.846
11
146.933
21
-104.884
0
LINE
8
BLACK
6
CONTINUOUS
10
146.933
20
-104.884
11
146.912
21
-104.917
0
LINE
8
BLACK
6
CONTINUOUS
10
146.912
20
-104.917
11
146.879
21
-104.938
0
LINE
8
BLACK
6
CONTINUOUS
10
146.879
20
-104.938
11
146.841
21
-104.946
0
LINE
8
BLACK
6
CONTINUOUS
10
146.841
20
-104.946
11
146.641
21
-104.946
0
LINE
8
BLACK
6
CONTINUOUS
10
146.641
20
-104.946
11
146.603
21
-104.938
0
LINE
8
BLACK
6
CONTINUOUS
10
146.603
20
-104.938
11
146.57
21
-104.917
0
LINE
8
BLACK
6
CONTINUOUS
10
146.57
20
-104.917
11
146.549
21
-104.884
0
LINE
8
BLACK
6
CONTINUOUS
10
146.549
20
-104.884
11
146.541
21
-104.846
0
LINE
8
BLACK
6
CONTINUOUS
10
146.541
20
-104.846
11
146.541
21
-103.571
0
LINE
8
BLACK
6
CONTINUOUS
10
146.541
20
-103.571
11
146.549
21
-103.533
0
LINE
8
BLACK
6
CONTINUOUS
10
146.549
20
-103.533
11
146.57
21
-103.5
0
LINE
8
BLACK
6
CONTINUOUS
10
146.57
20
-103.5
11
146.603
21
-103.479
0
LINE
8
BLACK
6
CONTINUOUS
10
146.603
20
-103.479
11
146.641
21
-103.471
0
LINE
8
BLACK
6
CONTINUOUS
10
146.641
20
-103.471
11
146.841
21
-103.471
0
LINE
8
BLACK
6
CONTINUOUS
10
146.841
20
-103.471
11
146.879
21
-103.479
0
LINE
8
BLACK
6
CONTINUOUS
10
146.229
20
-103.479
11
146.262
21
-103.5
0
LINE
8
BLACK
6
CONTINUOUS
10
146.262
20
-103.5
11
146.283
21
-103.533
0
LINE
8
BLACK
6
CONTINUOUS
10
146.283
20
-103.533
11
146.291
21
-103.571
0
LINE
8
BLACK
6
CONTINUOUS
10
146.291
20
-103.571
11
146.291
21
-104.846
0
LINE
8
BLACK
6
CONTINUOUS
10
146.291
20
-104.846
11
146.283
21
-104.884
0
LINE
8
BLACK
6
CONTINUOUS
10
146.283
20
-104.884
11
146.262
21
-104.917
0
LINE
8
BLACK
6
CONTINUOUS
10
146.262
20
-104.917
11
146.229
21
-104.938
0
LINE
8
BLACK
6
CONTINUOUS
10
146.229
20
-104.938
11
146.191
21
-104.946
0
LINE
8
BLACK
6
CONTINUOUS
10
146.191
20
-104.946
11
145.991
21
-104.946
0
LINE
8
BLACK
6
CONTINUOUS
10
145.991
20
-104.946
11
145.953
21
-104.938
0
LINE
8
BLACK
6
CONTINUOUS
10
145.953
20
-104.938
11
145.92
21
-104.917
0
LINE
8
BLACK
6
CONTINUOUS
10
145.92
20
-104.917
11
145.899
21
-104.884
0
LINE
8
BLACK
6
CONTINUOUS
10
145.899
20
-104.884
11
145.891
21
-104.846
0
LINE
8
BLACK
6
CONTINUOUS
10
145.891
20
-104.846
11
145.891
21
-103.571
0
LINE
8
BLACK
6
CONTINUOUS
10
145.891
20
-103.571
11
145.899
21
-103.533
0
LINE
8
BLACK
6
CONTINUOUS
10
145.899
20
-103.533
11
145.92
21
-103.5
0
LINE
8
BLACK
6
CONTINUOUS
10
145.92
20
-103.5
11
145.953
21
-103.479
0
LINE
8
BLACK
6
CONTINUOUS
10
145.953
20
-103.479
11
145.991
21
-103.471
0
LINE
8
BLACK
6
CONTINUOUS
10
145.991
20
-103.471
11
146.191
21
-103.471
0
LINE
8
BLACK
6
CONTINUOUS
10
146.191
20
-103.471
11
146.229
21
-103.479
0
LINE
8
BLACK
6
CONTINUOUS
10
145.579
20
-103.479
11
145.612
21
-103.5
0
LINE
8
BLACK
6
CONTINUOUS
10
145.612
20
-103.5
11
145.633
21
-103.533
0
LINE
8
BLACK
6
CONTINUOUS
10
145.633
20
-103.533
11
145.641
21
-103.571
0
LINE
8
BLACK
6
CONTINUOUS
10
145.641
20
-103.571
11
145.641
21
-104.846
0
LINE
8
BLACK
6
CONTINUOUS
10
145.641
20
-104.846
11
145.633
21
-104.884
0
LINE
8
BLACK
6
CONTINUOUS
10
145.633
20
-104.884
11
145.612
21
-104.917
0
LINE
8
BLACK
6
CONTINUOUS
10
145.612
20
-104.917
11
145.579
21
-104.938
0
LINE
8
BLACK
6
CONTINUOUS
10
145.579
20
-104.938
11
145.541
21
-104.946
0
LINE
8
BLACK
6
CONTINUOUS
10
145.541
20
-104.946
11
145.341
21
-104.946
0
LINE
8
BLACK
6
CONTINUOUS
10
145.341
20
-104.946
11
145.303
21
-104.938
0
LINE
8
BLACK
6
CONTINUOUS
10
145.303
20
-104.938
11
145.27
21
-104.917
0
LINE
8
BLACK
6
CONTINUOUS
10
145.27
20
-104.917
11
145.249
21
-104.884
0
LINE
8
BLACK
6
CONTINUOUS
10
145.249
20
-104.884
11
145.241
21
-104.846
0
LINE
8
BLACK
6
CONTINUOUS
10
145.241
20
-104.846
11
145.241
21
-103.571
0
LINE
8
BLACK
6
CONTINUOUS
10
145.241
20
-103.571
11
145.249
21
-103.533
0
LINE
8
BLACK
6
CONTINUOUS
10
145.249
20
-103.533
11
145.27
21
-103.5
0
LINE
8
BLACK
6
CONTINUOUS
10
145.27
20
-103.5
11
145.303
21
-103.479
0
LINE
8
BLACK
6
CONTINUOUS
10
145.303
20
-103.479
11
145.341
21
-103.471
0
LINE
8
BLACK
6
CONTINUOUS
10
145.341
20
-103.471
11
145.541
21
-103.471
0
LINE
8
BLACK
6
CONTINUOUS
10
145.541
20
-103.471
11
145.579
21
-103.479
0
LINE
8
BLACK
6
CONTINUOUS
10
144.929
20
-103.479
11
144.962
21
-103.5
0
LINE
8
BLACK
6
CONTINUOUS
10
144.962
20
-103.5
11
144.983
21
-103.533
0
LINE
8
BLACK
6
CONTINUOUS
10
144.983
20
-103.533
11
144.991
21
-103.571
0
LINE
8
BLACK
6
CONTINUOUS
10
144.991
20
-103.571
11
144.991
21
-104.846
0
LINE
8
BLACK
6
CONTINUOUS
10
144.991
20
-104.846
11
144.983
21
-104.884
0
LINE
8
BLACK
6
CONTINUOUS
10
144.983
20
-104.884
11
144.962
21
-104.917
0
LINE
8
BLACK
6
CONTINUOUS
10
144.962
20
-104.917
11
144.929
21
-104.938
0
LINE
8
BLACK
6
CONTINUOUS
10
144.929
20
-104.938
11
144.891
21
-104.946
0
LINE
8
BLACK
6
CONTINUOUS
10
144.891
20
-104.946
11
144.691
21
-104.946
0
LINE
8
BLACK
6
CONTINUOUS
10
144.691
20
-104.946
11
144.653
21
-104.938
0
LINE
8
BLACK
6
CONTINUOUS
10
144.653
20
-104.938
11
144.62
21
-104.917
0
LINE
8
BLACK
6
CONTINUOUS
10
144.62
20
-104.917
11
144.599
21
-104.884
0
LINE
8
BLACK
6
CONTINUOUS
10
144.599
20
-104.884
11
144.591
21
-104.846
0
LINE
8
BLACK
6
CONTINUOUS
10
144.591
20
-104.846
11
144.591
21
-103.571
0
LINE
8
BLACK
6
CONTINUOUS
10
144.591
20
-103.571
11
144.599
21
-103.533
0
LINE
8
BLACK
6
CONTINUOUS
10
144.599
20
-103.533
11
144.62
21
-103.5
0
LINE
8
BLACK
6
CONTINUOUS
10
144.62
20
-103.5
11
144.653
21
-103.479
0
LINE
8
BLACK
6
CONTINUOUS
10
144.653
20
-103.479
11
144.691
21
-103.471
0
LINE
8
BLACK
6
CONTINUOUS
10
144.691
20
-103.471
11
144.891
21
-103.471
0
LINE
8
BLACK
6
CONTINUOUS
10
144.891
20
-103.471
11
144.929
21
-103.479
0
LINE
8
BLACK
6
CONTINUOUS
10
157.797
20
-103.847
11
157.878
21
-103.901
0
LINE
8
BLACK
6
CONTINUOUS
10
157.878
20
-103.901
11
157.932
21
-103.982
0
LINE
8
BLACK
6
CONTINUOUS
10
157.932
20
-103.982
11
157.951
21
-104.078
0
LINE
8
BLACK
6
CONTINUOUS
10
157.951
20
-104.078
11
157.951
21
-104.578
0
LINE
8
BLACK
6
CONTINUOUS
10
157.951
20
-104.578
11
157.932
21
-104.674
0
LINE
8
BLACK
6
CONTINUOUS
10
157.932
20
-104.674
11
157.878
21
-104.755
0
LINE
8
BLACK
6
CONTINUOUS
10
157.878
20
-104.755
11
157.797
21
-104.809
0
LINE
8
BLACK
6
CONTINUOUS
10
157.797
20
-104.809
11
157.701
21
-104.828
0
LINE
8
BLACK
6
CONTINUOUS
10
157.701
20
-104.828
11
156.751
21
-104.828
0
LINE
8
BLACK
6
CONTINUOUS
10
156.751
20
-104.828
11
156.655
21
-104.809
0
LINE
8
BLACK
6
CONTINUOUS
10
156.655
20
-104.809
11
156.574
21
-104.755
0
LINE
8
BLACK
6
CONTINUOUS
10
156.574
20
-104.755
11
156.52
21
-104.674
0
LINE
8
BLACK
6
CONTINUOUS
10
156.52
20
-104.674
11
156.501
21
-104.578
0
LINE
8
BLACK
6
CONTINUOUS
10
156.501
20
-104.578
11
156.501
21
-104.078
0
LINE
8
BLACK
6
CONTINUOUS
10
156.501
20
-104.078
11
156.52
21
-103.982
0
LINE
8
BLACK
6
CONTINUOUS
10
156.52
20
-103.982
11
156.574
21
-103.901
0
LINE
8
BLACK
6
CONTINUOUS
10
156.574
20
-103.901
11
156.655
21
-103.847
0
LINE
8
BLACK
6
CONTINUOUS
10
156.655
20
-103.847
11
156.751
21
-103.828
0
LINE
8
BLACK
6
CONTINUOUS
10
156.751
20
-103.828
11
157.701
21
-103.828
0
LINE
8
BLACK
6
CONTINUOUS
10
157.701
20
-103.828
11
157.797
21
-103.847
0
LINE
8
BLACK
6
CONTINUOUS
10
136.932
20
-103.18
11
137.013
21
-103.234
0
LINE
8
BLACK
6
CONTINUOUS
10
137.013
20
-103.234
11
137.067
21
-103.315
0
LINE
8
BLACK
6
CONTINUOUS
10
137.067
20
-103.315
11
137.086
21
-103.411
0
LINE
8
BLACK
6
CONTINUOUS
10
137.086
20
-103.411
11
137.086
21
-104.361
0
LINE
8
BLACK
6
CONTINUOUS
10
137.086
20
-104.361
11
137.067
21
-104.457
0
LINE
8
BLACK
6
CONTINUOUS
10
137.067
20
-104.457
11
137.013
21
-104.538
0
LINE
8
BLACK
6
CONTINUOUS
10
137.013
20
-104.538
11
136.932
21
-104.592
0
LINE
8
BLACK
6
CONTINUOUS
10
136.932
20
-104.592
11
136.836
21
-104.611
0
LINE
8
BLACK
6
CONTINUOUS
10
136.836
20
-104.611
11
136.336
21
-104.611
0
LINE
8
BLACK
6
CONTINUOUS
10
136.336
20
-104.611
11
136.24
21
-104.592
0
LINE
8
BLACK
6
CONTINUOUS
10
136.24
20
-104.592
11
136.159
21
-104.538
0
LINE
8
BLACK
6
CONTINUOUS
10
136.159
20
-104.538
11
136.105
21
-104.457
0
LINE
8
BLACK
6
CONTINUOUS
10
136.105
20
-104.457
11
136.086
21
-104.361
0
LINE
8
BLACK
6
CONTINUOUS
10
136.086
20
-104.361
11
136.086
21
-103.411
0
LINE
8
BLACK
6
CONTINUOUS
10
136.086
20
-103.411
11
136.105
21
-103.315
0
LINE
8
BLACK
6
CONTINUOUS
10
136.105
20
-103.315
11
136.159
21
-103.234
0
LINE
8
BLACK
6
CONTINUOUS
10
136.159
20
-103.234
11
136.24
21
-103.18
0
LINE
8
BLACK
6
CONTINUOUS
10
136.24
20
-103.18
11
136.336
21
-103.161
0
LINE
8
BLACK
6
CONTINUOUS
10
136.336
20
-103.161
11
136.836
21
-103.161
0
LINE
8
BLACK
6
CONTINUOUS
10
136.836
20
-103.161
11
136.932
21
-103.18
0
LINE
8
BLACK
6
CONTINUOUS
10
135.032
20
-103.18
11
135.113
21
-103.234
0
LINE
8
BLACK
6
CONTINUOUS
10
135.113
20
-103.234
11
135.167
21
-103.315
0
LINE
8
BLACK
6
CONTINUOUS
10
135.167
20
-103.315
11
135.186
21
-103.411
0
LINE
8
BLACK
6
CONTINUOUS
10
135.186
20
-103.411
11
135.186
21
-104.361
0
LINE
8
BLACK
6
CONTINUOUS
10
135.186
20
-104.361
11
135.167
21
-104.457
0
LINE
8
BLACK
6
CONTINUOUS
10
135.167
20
-104.457
11
135.113
21
-104.538
0
LINE
8
BLACK
6
CONTINUOUS
10
135.113
20
-104.538
11
135.032
21
-104.592
0
LINE
8
BLACK
6
CONTINUOUS
10
135.032
20
-104.592
11
134.936
21
-104.611
0
LINE
8
BLACK
6
CONTINUOUS
10
134.936
20
-104.611
11
134.436
21
-104.611
0
LINE
8
BLACK
6
CONTINUOUS
10
134.436
20
-104.611
11
134.34
21
-104.592
0
LINE
8
BLACK
6
CONTINUOUS
10
134.34
20
-104.592
11
134.259
21
-104.538
0
LINE
8
BLACK
6
CONTINUOUS
10
134.259
20
-104.538
11
134.205
21
-104.457
0
LINE
8
BLACK
6
CONTINUOUS
10
134.205
20
-104.457
11
134.186
21
-104.361
0
LINE
8
BLACK
6
CONTINUOUS
10
134.186
20
-104.361
11
134.186
21
-103.411
0
LINE
8
BLACK
6
CONTINUOUS
10
134.186
20
-103.411
11
134.205
21
-103.315
0
LINE
8
BLACK
6
CONTINUOUS
10
134.205
20
-103.315
11
134.259
21
-103.234
0
LINE
8
BLACK
6
CONTINUOUS
10
134.259
20
-103.234
11
134.34
21
-103.18
0
LINE
8
BLACK
6
CONTINUOUS
10
134.34
20
-103.18
11
134.436
21
-103.161
0
LINE
8
BLACK
6
CONTINUOUS
10
134.436
20
-103.161
11
134.936
21
-103.161
0
LINE
8
BLACK
6
CONTINUOUS
10
134.936
20
-103.161
11
135.032
21
-103.18
0
LINE
8
BLACK
6
CONTINUOUS
10
153.737
20
-102.908
11
153.77
21
-102.929
0
LINE
8
BLACK
6
CONTINUOUS
10
153.77
20
-102.929
11
153.791
21
-102.962
0
LINE
8
BLACK
6
CONTINUOUS
10
153.791
20
-102.962
11
153.799
21
-103
0
LINE
8
BLACK
6
CONTINUOUS
10
153.799
20
-103
11
153.799
21
-104.425
0
LINE
8
BLACK
6
CONTINUOUS
10
153.799
20
-104.425
11
153.791
21
-104.463
0
LINE
8
BLACK
6
CONTINUOUS
10
153.791
20
-104.463
11
153.77
21
-104.496
0
LINE
8
BLACK
6
CONTINUOUS
10
153.77
20
-104.496
11
153.737
21
-104.517
0
LINE
8
BLACK
6
CONTINUOUS
10
153.737
20
-104.517
11
153.699
21
-104.525
0
LINE
8
BLACK
6
CONTINUOUS
10
153.699
20
-104.525
11
153.499
21
-104.525
0
LINE
8
BLACK
6
CONTINUOUS
10
153.499
20
-104.525
11
153.461
21
-104.517
0
LINE
8
BLACK
6
CONTINUOUS
10
153.461
20
-104.517
11
153.428
21
-104.496
0
LINE
8
BLACK
6
CONTINUOUS
10
153.428
20
-104.496
11
153.407
21
-104.463
0
LINE
8
BLACK
6
CONTINUOUS
10
153.407
20
-104.463
11
153.399
21
-104.425
0
LINE
8
BLACK
6
CONTINUOUS
10
153.399
20
-104.425
11
153.399
21
-103
0
LINE
8
BLACK
6
CONTINUOUS
10
153.399
20
-103
11
153.407
21
-102.962
0
LINE
8
BLACK
6
CONTINUOUS
10
153.407
20
-102.962
11
153.428
21
-102.929
0
LINE
8
BLACK
6
CONTINUOUS
10
153.428
20
-102.929
11
153.461
21
-102.908
0
LINE
8
BLACK
6
CONTINUOUS
10
153.461
20
-102.908
11
153.499
21
-102.9
0
LINE
8
BLACK
6
CONTINUOUS
10
153.499
20
-102.9
11
153.699
21
-102.9
0
LINE
8
BLACK
6
CONTINUOUS
10
153.699
20
-102.9
11
153.737
21
-102.908
0
LINE
8
BLACK
6
CONTINUOUS
10
155.037
20
-102.908
11
155.07
21
-102.929
0
LINE
8
BLACK
6
CONTINUOUS
10
155.07
20
-102.929
11
155.091
21
-102.962
0
LINE
8
BLACK
6
CONTINUOUS
10
155.091
20
-102.962
11
155.099
21
-103
0
LINE
8
BLACK
6
CONTINUOUS
10
155.099
20
-103
11
155.099
21
-104.425
0
LINE
8
BLACK
6
CONTINUOUS
10
155.099
20
-104.425
11
155.091
21
-104.463
0
LINE
8
BLACK
6
CONTINUOUS
10
155.091
20
-104.463
11
155.07
21
-104.496
0
LINE
8
BLACK
6
CONTINUOUS
10
155.07
20
-104.496
11
155.037
21
-104.517
0
LINE
8
BLACK
6
CONTINUOUS
10
155.037
20
-104.517
11
154.999
21
-104.525
0
LINE
8
BLACK
6
CONTINUOUS
10
154.999
20
-104.525
11
154.799
21
-104.525
0
LINE
8
BLACK
6
CONTINUOUS
10
154.799
20
-104.525
11
154.761
21
-104.517
0
LINE
8
BLACK
6
CONTINUOUS
10
154.761
20
-104.517
11
154.728
21
-104.496
0
LINE
8
BLACK
6
CONTINUOUS
10
154.728
20
-104.496
11
154.707
21
-104.463
0
LINE
8
BLACK
6
CONTINUOUS
10
154.707
20
-104.463
11
154.699
21
-104.425
0
LINE
8
BLACK
6
CONTINUOUS
10
154.699
20
-104.425
11
154.699
21
-103
0
LINE
8
BLACK
6
CONTINUOUS
10
154.699
20
-103
11
154.707
21
-102.962
0
LINE
8
BLACK
6
CONTINUOUS
10
154.707
20
-102.962
11
154.728
21
-102.929
0
LINE
8
BLACK
6
CONTINUOUS
10
154.728
20
-102.929
11
154.761
21
-102.908
0
LINE
8
BLACK
6
CONTINUOUS
10
154.761
20
-102.908
11
154.799
21
-102.9
0
LINE
8
BLACK
6
CONTINUOUS
10
154.799
20
-102.9
11
154.999
21
-102.9
0
LINE
8
BLACK
6
CONTINUOUS
10
154.999
20
-102.9
11
155.037
21
-102.908
0
LINE
8
BLACK
6
CONTINUOUS
10
154.387
20
-102.908
11
154.42
21
-102.929
0
LINE
8
BLACK
6
CONTINUOUS
10
154.42
20
-102.929
11
154.441
21
-102.962
0
LINE
8
BLACK
6
CONTINUOUS
10
154.441
20
-102.962
11
154.449
21
-103
0
LINE
8
BLACK
6
CONTINUOUS
10
154.449
20
-103
11
154.449
21
-104.425
0
LINE
8
BLACK
6
CONTINUOUS
10
154.449
20
-104.425
11
154.441
21
-104.463
0
LINE
8
BLACK
6
CONTINUOUS
10
154.441
20
-104.463
11
154.42
21
-104.496
0
LINE
8
BLACK
6
CONTINUOUS
10
154.42
20
-104.496
11
154.387
21
-104.517
0
LINE
8
BLACK
6
CONTINUOUS
10
154.387
20
-104.517
11
154.349
21
-104.525
0
LINE
8
BLACK
6
CONTINUOUS
10
154.349
20
-104.525
11
154.149
21
-104.525
0
LINE
8
BLACK
6
CONTINUOUS
10
154.149
20
-104.525
11
154.111
21
-104.517
0
LINE
8
BLACK
6
CONTINUOUS
10
154.111
20
-104.517
11
154.078
21
-104.496
0
LINE
8
BLACK
6
CONTINUOUS
10
154.078
20
-104.496
11
154.057
21
-104.463
0
LINE
8
BLACK
6
CONTINUOUS
10
154.057
20
-104.463
11
154.049
21
-104.425
0
LINE
8
BLACK
6
CONTINUOUS
10
154.049
20
-104.425
11
154.049
21
-103
0
LINE
8
BLACK
6
CONTINUOUS
10
154.049
20
-103
11
154.057
21
-102.962
0
LINE
8
BLACK
6
CONTINUOUS
10
154.057
20
-102.962
11
154.078
21
-102.929
0
LINE
8
BLACK
6
CONTINUOUS
10
154.078
20
-102.929
11
154.111
21
-102.908
0
LINE
8
BLACK
6
CONTINUOUS
10
154.111
20
-102.908
11
154.149
21
-102.9
0
LINE
8
BLACK
6
CONTINUOUS
10
154.149
20
-102.9
11
154.349
21
-102.9
0
LINE
8
BLACK
6
CONTINUOUS
10
154.349
20
-102.9
11
154.387
21
-102.908
0
LINE
8
BLACK
6
CONTINUOUS
10
153.087
20
-102.908
11
153.12
21
-102.929
0
LINE
8
BLACK
6
CONTINUOUS
10
153.12
20
-102.929
11
153.141
21
-102.962
0
LINE
8
BLACK
6
CONTINUOUS
10
153.141
20
-102.962
11
153.149
21
-103
0
LINE
8
BLACK
6
CONTINUOUS
10
153.149
20
-103
11
153.149
21
-104.425
0
LINE
8
BLACK
6
CONTINUOUS
10
153.149
20
-104.425
11
153.141
21
-104.463
0
LINE
8
BLACK
6
CONTINUOUS
10
153.141
20
-104.463
11
153.12
21
-104.496
0
LINE
8
BLACK
6
CONTINUOUS
10
153.12
20
-104.496
11
153.087
21
-104.517
0
LINE
8
BLACK
6
CONTINUOUS
10
153.087
20
-104.517
11
153.049
21
-104.525
0
LINE
8
BLACK
6
CONTINUOUS
10
153.049
20
-104.525
11
152.849
21
-104.525
0
LINE
8
BLACK
6
CONTINUOUS
10
152.849
20
-104.525
11
152.811
21
-104.517
0
LINE
8
BLACK
6
CONTINUOUS
10
152.811
20
-104.517
11
152.778
21
-104.496
0
LINE
8
BLACK
6
CONTINUOUS
10
152.778
20
-104.496
11
152.757
21
-104.463
0
LINE
8
BLACK
6
CONTINUOUS
10
152.757
20
-104.463
11
152.749
21
-104.425
0
LINE
8
BLACK
6
CONTINUOUS
10
152.749
20
-104.425
11
152.749
21
-103
0
LINE
8
BLACK
6
CONTINUOUS
10
152.749
20
-103
11
152.757
21
-102.962
0
LINE
8
BLACK
6
CONTINUOUS
10
152.757
20
-102.962
11
152.778
21
-102.929
0
LINE
8
BLACK
6
CONTINUOUS
10
152.778
20
-102.929
11
152.811
21
-102.908
0
LINE
8
BLACK
6
CONTINUOUS
10
152.811
20
-102.908
11
152.849
21
-102.9
0
LINE
8
BLACK
6
CONTINUOUS
10
152.849
20
-102.9
11
153.049
21
-102.9
0
LINE
8
BLACK
6
CONTINUOUS
10
153.049
20
-102.9
11
153.087
21
-102.908
0
LINE
8
BLACK
6
CONTINUOUS
10
141.576
20
-102.613
11
141.64
21
-102.657
0
LINE
8
BLACK
6
CONTINUOUS
10
141.64
20
-102.657
11
141.684
21
-102.721
0
LINE
8
BLACK
6
CONTINUOUS
10
141.684
20
-102.721
11
141.699
21
-102.798
0
LINE
8
BLACK
6
CONTINUOUS
10
141.699
20
-102.798
11
141.699
21
-103.198
0
LINE
8
BLACK
6
CONTINUOUS
10
141.699
20
-103.198
11
141.684
21
-103.275
0
LINE
8
BLACK
6
CONTINUOUS
10
141.684
20
-103.275
11
141.64
21
-103.339
0
LINE
8
BLACK
6
CONTINUOUS
10
141.64
20
-103.339
11
141.576
21
-103.383
0
LINE
8
BLACK
6
CONTINUOUS
10
141.576
20
-103.383
11
141.499
21
-103.398
0
LINE
8
BLACK
6
CONTINUOUS
10
141.499
20
-103.398
11
140.949
21
-103.398
0
LINE
8
BLACK
6
CONTINUOUS
10
140.949
20
-103.398
11
140.872
21
-103.383
0
LINE
8
BLACK
6
CONTINUOUS
10
140.872
20
-103.383
11
140.808
21
-103.339
0
LINE
8
BLACK
6
CONTINUOUS
10
140.808
20
-103.339
11
140.764
21
-103.275
0
LINE
8
BLACK
6
CONTINUOUS
10
140.764
20
-103.275
11
140.749
21
-103.198
0
LINE
8
BLACK
6
CONTINUOUS
10
140.749
20
-103.198
11
140.749
21
-102.798
0
LINE
8
BLACK
6
CONTINUOUS
10
140.749
20
-102.798
11
140.764
21
-102.721
0
LINE
8
BLACK
6
CONTINUOUS
10
140.764
20
-102.721
11
140.808
21
-102.657
0
LINE
8
BLACK
6
CONTINUOUS
10
140.808
20
-102.657
11
140.872
21
-102.613
0
LINE
8
BLACK
6
CONTINUOUS
10
140.872
20
-102.613
11
140.949
21
-102.598
0
LINE
8
BLACK
6
CONTINUOUS
10
140.949
20
-102.598
11
141.499
21
-102.598
0
LINE
8
BLACK
6
CONTINUOUS
10
141.499
20
-102.598
11
141.576
21
-102.613
0
LINE
8
BLACK
6
CONTINUOUS
10
139.509
20
-102.267
11
139.59
21
-102.321
0
LINE
8
BLACK
6
CONTINUOUS
10
139.59
20
-102.321
11
139.644
21
-102.402
0
LINE
8
BLACK
6
CONTINUOUS
10
139.644
20
-102.402
11
139.663
21
-102.498
0
LINE
8
BLACK
6
CONTINUOUS
10
139.663
20
-102.498
11
139.663
21
-102.998
0
LINE
8
BLACK
6
CONTINUOUS
10
139.663
20
-102.998
11
139.644
21
-103.094
0
LINE
8
BLACK
6
CONTINUOUS
10
139.644
20
-103.094
11
139.59
21
-103.175
0
LINE
8
BLACK
6
CONTINUOUS
10
139.59
20
-103.175
11
139.509
21
-103.229
0
LINE
8
BLACK
6
CONTINUOUS
10
139.509
20
-103.229
11
139.413
21
-103.248
0
LINE
8
BLACK
6
CONTINUOUS
10
139.413
20
-103.248
11
138.463
21
-103.248
0
LINE
8
BLACK
6
CONTINUOUS
10
138.463
20
-103.248
11
138.367
21
-103.229
0
LINE
8
BLACK
6
CONTINUOUS
10
138.367
20
-103.229
11
138.286
21
-103.175
0
LINE
8
BLACK
6
CONTINUOUS
10
138.286
20
-103.175
11
138.232
21
-103.094
0
LINE
8
BLACK
6
CONTINUOUS
10
138.232
20
-103.094
11
138.213
21
-102.998
0
LINE
8
BLACK
6
CONTINUOUS
10
138.213
20
-102.998
11
138.213
21
-102.498
0
LINE
8
BLACK
6
CONTINUOUS
10
138.213
20
-102.498
11
138.232
21
-102.402
0
LINE
8
BLACK
6
CONTINUOUS
10
138.232
20
-102.402
11
138.286
21
-102.321
0
LINE
8
BLACK
6
CONTINUOUS
10
138.286
20
-102.321
11
138.367
21
-102.267
0
LINE
8
BLACK
6
CONTINUOUS
10
138.367
20
-102.267
11
138.463
21
-102.248
0
LINE
8
BLACK
6
CONTINUOUS
10
138.463
20
-102.248
11
139.413
21
-102.248
0
LINE
8
BLACK
6
CONTINUOUS
10
139.413
20
-102.248
11
139.509
21
-102.267
0
LINE
8
BLACK
6
CONTINUOUS
10
157.797
20
-101.947
11
157.878
21
-102.001
0
LINE
8
BLACK
6
CONTINUOUS
10
157.878
20
-102.001
11
157.932
21
-102.082
0
LINE
8
BLACK
6
CONTINUOUS
10
157.932
20
-102.082
11
157.951
21
-102.178
0
LINE
8
BLACK
6
CONTINUOUS
10
157.951
20
-102.178
11
157.951
21
-102.678
0
LINE
8
BLACK
6
CONTINUOUS
10
157.951
20
-102.678
11
157.932
21
-102.774
0
LINE
8
BLACK
6
CONTINUOUS
10
157.932
20
-102.774
11
157.878
21
-102.855
0
LINE
8
BLACK
6
CONTINUOUS
10
157.878
20
-102.855
11
157.797
21
-102.909
0
LINE
8
BLACK
6
CONTINUOUS
10
157.797
20
-102.909
11
157.701
21
-102.928
0
LINE
8
BLACK
6
CONTINUOUS
10
157.701
20
-102.928
11
156.751
21
-102.928
0
LINE
8
BLACK
6
CONTINUOUS
10
156.751
20
-102.928
11
156.655
21
-102.909
0
LINE
8
BLACK
6
CONTINUOUS
10
156.655
20
-102.909
11
156.574
21
-102.855
0
LINE
8
BLACK
6
CONTINUOUS
10
156.574
20
-102.855
11
156.52
21
-102.774
0
LINE
8
BLACK
6
CONTINUOUS
10
156.52
20
-102.774
11
156.501
21
-102.678
0
LINE
8
BLACK
6
CONTINUOUS
10
156.501
20
-102.678
11
156.501
21
-102.178
0
LINE
8
BLACK
6
CONTINUOUS
10
156.501
20
-102.178
11
156.52
21
-102.082
0
LINE
8
BLACK
6
CONTINUOUS
10
156.52
20
-102.082
11
156.574
21
-102.001
0
LINE
8
BLACK
6
CONTINUOUS
10
156.574
20
-102.001
11
156.655
21
-101.947
0
LINE
8
BLACK
6
CONTINUOUS
10
156.655
20
-101.947
11
156.751
21
-101.928
0
LINE
8
BLACK
6
CONTINUOUS
10
156.751
20
-101.928
11
157.701
21
-101.928
0
LINE
8
BLACK
6
CONTINUOUS
10
157.701
20
-101.928
11
157.797
21
-101.947
0
LINE
8
BLACK
6
CONTINUOUS
10
137.001
20
-99.7467
11
137.072
21
-99.7941
0
LINE
8
BLACK
6
CONTINUOUS
10
137.072
20
-99.7941
11
137.119
21
-99.865
0
LINE
8
BLACK
6
CONTINUOUS
10
137.119
20
-99.865
11
137.136
21
-99.9487
0
LINE
8
BLACK
6
CONTINUOUS
10
137.136
20
-99.9487
11
137.136
21
-100.711
0
LINE
8
BLACK
6
CONTINUOUS
10
137.136
20
-100.711
11
137.119
21
-100.795
0
LINE
8
BLACK
6
CONTINUOUS
10
137.119
20
-100.795
11
137.072
21
-100.866
0
LINE
8
BLACK
6
CONTINUOUS
10
137.072
20
-100.866
11
137.001
21
-100.913
0
LINE
8
BLACK
6
CONTINUOUS
10
137.001
20
-100.913
11
136.917
21
-100.93
0
LINE
8
BLACK
6
CONTINUOUS
10
136.917
20
-100.93
11
136.48
21
-100.93
0
LINE
8
BLACK
6
CONTINUOUS
10
136.48
20
-100.93
11
136.396
21
-100.913
0
LINE
8
BLACK
6
CONTINUOUS
10
136.396
20
-100.913
11
136.325
21
-100.866
0
LINE
8
BLACK
6
CONTINUOUS
10
136.325
20
-100.866
11
136.278
21
-100.795
0
LINE
8
BLACK
6
CONTINUOUS
10
136.278
20
-100.795
11
136.261
21
-100.711
0
LINE
8
BLACK
6
CONTINUOUS
10
136.261
20
-100.711
11
136.261
21
-99.9487
0
LINE
8
BLACK
6
CONTINUOUS
10
136.261
20
-99.9487
11
136.278
21
-99.865
0
LINE
8
BLACK
6
CONTINUOUS
10
136.278
20
-99.865
11
136.325
21
-99.7941
0
LINE
8
BLACK
6
CONTINUOUS
10
136.325
20
-99.7941
11
136.396
21
-99.7467
0
LINE
8
BLACK
6
CONTINUOUS
10
136.396
20
-99.7467
11
136.48
21
-99.73
0
LINE
8
BLACK
6
CONTINUOUS
10
136.48
20
-99.73
11
136.917
21
-99.73
0
LINE
8
BLACK
6
CONTINUOUS
10
136.917
20
-99.73
11
137.001
21
-99.7467
0
LINE
8
BLACK
6
CONTINUOUS
10
134.876
20
-99.7467
11
134.947
21
-99.7941
0
LINE
8
BLACK
6
CONTINUOUS
10
134.947
20
-99.7941
11
134.994
21
-99.865
0
LINE
8
BLACK
6
CONTINUOUS
10
134.994
20
-99.865
11
135.011
21
-99.9487
0
LINE
8
BLACK
6
CONTINUOUS
10
135.011
20
-99.9487
11
135.011
21
-100.711
0
LINE
8
BLACK
6
CONTINUOUS
10
135.011
20
-100.711
11
134.994
21
-100.795
0
LINE
8
BLACK
6
CONTINUOUS
10
134.994
20
-100.795
11
134.947
21
-100.866
0
LINE
8
BLACK
6
CONTINUOUS
10
134.947
20
-100.866
11
134.876
21
-100.913
0
LINE
8
BLACK
6
CONTINUOUS
10
134.876
20
-100.913
11
134.792
21
-100.93
0
LINE
8
BLACK
6
CONTINUOUS
10
134.792
20
-100.93
11
134.355
21
-100.93
0
LINE
8
BLACK
6
CONTINUOUS
10
134.355
20
-100.93
11
134.271
21
-100.913
0
LINE
8
BLACK
6
CONTINUOUS
10
134.271
20
-100.913
11
134.2
21
-100.866
0
LINE
8
BLACK
6
CONTINUOUS
10
134.2
20
-100.866
11
134.153
21
-100.795
0
LINE
8
BLACK
6
CONTINUOUS
10
134.153
20
-100.795
11
134.136
21
-100.711
0
LINE
8
BLACK
6
CONTINUOUS
10
134.136
20
-100.711
11
134.136
21
-99.9487
0
LINE
8
BLACK
6
CONTINUOUS
10
134.136
20
-99.9487
11
134.153
21
-99.865
0
LINE
8
BLACK
6
CONTINUOUS
10
134.153
20
-99.865
11
134.2
21
-99.7941
0
LINE
8
BLACK
6
CONTINUOUS
10
134.2
20
-99.7941
11
134.271
21
-99.7467
0
LINE
8
BLACK
6
CONTINUOUS
10
134.271
20
-99.7467
11
134.355
21
-99.73
0
LINE
8
BLACK
6
CONTINUOUS
10
134.355
20
-99.73
11
134.792
21
-99.73
0
LINE
8
BLACK
6
CONTINUOUS
10
134.792
20
-99.73
11
134.876
21
-99.7467
0
LINE
8
BLACK
6
CONTINUOUS
10
157.816
20
-99.9101
11
157.889
21
-99.9589
0
LINE
8
BLACK
6
CONTINUOUS
10
157.889
20
-99.9589
11
157.938
21
-100.032
0
LINE
8
BLACK
6
CONTINUOUS
10
157.938
20
-100.032
11
157.955
21
-100.118
0
LINE
8
BLACK
6
CONTINUOUS
10
157.955
20
-100.118
11
157.955
21
-100.568
0
LINE
8
BLACK
6
CONTINUOUS
10
157.955
20
-100.568
11
157.938
21
-100.654
0
LINE
8
BLACK
6
CONTINUOUS
10
157.938
20
-100.654
11
157.889
21
-100.727
0
LINE
8
BLACK
6
CONTINUOUS
10
157.889
20
-100.727
11
157.816
21
-100.776
0
LINE
8
BLACK
6
CONTINUOUS
10
157.816
20
-100.776
11
157.73
21
-100.793
0
LINE
8
BLACK
6
CONTINUOUS
10
157.73
20
-100.793
11
157.23
21
-100.793
0
LINE
8
BLACK
6
CONTINUOUS
10
157.23
20
-100.793
11
157.144
21
-100.776
0
LINE
8
BLACK
6
CONTINUOUS
10
157.144
20
-100.776
11
157.071
21
-100.727
0
LINE
8
BLACK
6
CONTINUOUS
10
157.071
20
-100.727
11
157.022
21
-100.654
0
LINE
8
BLACK
6
CONTINUOUS
10
157.022
20
-100.654
11
157.005
21
-100.568
0
LINE
8
BLACK
6
CONTINUOUS
10
157.005
20
-100.568
11
157.005
21
-100.118
0
LINE
8
BLACK
6
CONTINUOUS
10
157.005
20
-100.118
11
157.022
21
-100.032
0
LINE
8
BLACK
6
CONTINUOUS
10
157.022
20
-100.032
11
157.071
21
-99.9589
0
LINE
8
BLACK
6
CONTINUOUS
10
157.071
20
-99.9589
11
157.144
21
-99.9101
0
LINE
8
BLACK
6
CONTINUOUS
10
157.144
20
-99.9101
11
157.23
21
-99.893
0
LINE
8
BLACK
6
CONTINUOUS
10
157.23
20
-99.893
11
157.73
21
-99.893
0
LINE
8
BLACK
6
CONTINUOUS
10
157.73
20
-99.893
11
157.816
21
-99.9101
0
LINE
8
BLACK
6
CONTINUOUS
10
155.037
20
-98.6826
11
155.07
21
-98.7043
0
LINE
8
BLACK
6
CONTINUOUS
10
155.07
20
-98.7043
11
155.091
21
-98.7367
0
LINE
8
BLACK
6
CONTINUOUS
10
155.091
20
-98.7367
11
155.099
21
-98.775
0
LINE
8
BLACK
6
CONTINUOUS
10
155.099
20
-98.775
11
155.099
21
-100.2
0
LINE
8
BLACK
6
CONTINUOUS
10
155.099
20
-100.2
11
155.091
21
-100.238
0
LINE
8
BLACK
6
CONTINUOUS
10
155.091
20
-100.238
11
155.07
21
-100.271
0
LINE
8
BLACK
6
CONTINUOUS
10
155.07
20
-100.271
11
155.037
21
-100.292
0
LINE
8
BLACK
6
CONTINUOUS
10
155.037
20
-100.292
11
154.999
21
-100.3
0
LINE
8
BLACK
6
CONTINUOUS
10
154.999
20
-100.3
11
154.799
21
-100.3
0
LINE
8
BLACK
6
CONTINUOUS
10
154.799
20
-100.3
11
154.761
21
-100.292
0
LINE
8
BLACK
6
CONTINUOUS
10
154.761
20
-100.292
11
154.728
21
-100.271
0
LINE
8
BLACK
6
CONTINUOUS
10
154.728
20
-100.271
11
154.707
21
-100.238
0
LINE
8
BLACK
6
CONTINUOUS
10
154.707
20
-100.238
11
154.699
21
-100.2
0
LINE
8
BLACK
6
CONTINUOUS
10
154.699
20
-100.2
11
154.699
21
-98.775
0
LINE
8
BLACK
6
CONTINUOUS
10
154.699
20
-98.775
11
154.707
21
-98.7367
0
LINE
8
BLACK
6
CONTINUOUS
10
154.707
20
-98.7367
11
154.728
21
-98.7043
0
LINE
8
BLACK
6
CONTINUOUS
10
154.728
20
-98.7043
11
154.761
21
-98.6826
0
LINE
8
BLACK
6
CONTINUOUS
10
154.761
20
-98.6826
11
154.799
21
-98.675
0
LINE
8
BLACK
6
CONTINUOUS
10
154.799
20
-98.675
11
154.999
21
-98.675
0
LINE
8
BLACK
6
CONTINUOUS
10
154.999
20
-98.675
11
155.037
21
-98.6826
0
LINE
8
BLACK
6
CONTINUOUS
10
154.387
20
-98.6826
11
154.42
21
-98.7043
0
LINE
8
BLACK
6
CONTINUOUS
10
154.42
20
-98.7043
11
154.441
21
-98.7367
0
LINE
8
BLACK
6
CONTINUOUS
10
154.441
20
-98.7367
11
154.449
21
-98.775
0
LINE
8
BLACK
6
CONTINUOUS
10
154.449
20
-98.775
11
154.449
21
-100.2
0
LINE
8
BLACK
6
CONTINUOUS
10
154.449
20
-100.2
11
154.441
21
-100.238
0
LINE
8
BLACK
6
CONTINUOUS
10
154.441
20
-100.238
11
154.42
21
-100.271
0
LINE
8
BLACK
6
CONTINUOUS
10
154.42
20
-100.271
11
154.387
21
-100.292
0
LINE
8
BLACK
6
CONTINUOUS
10
154.387
20
-100.292
11
154.349
21
-100.3
0
LINE
8
BLACK
6
CONTINUOUS
10
154.349
20
-100.3
11
154.149
21
-100.3
0
LINE
8
BLACK
6
CONTINUOUS
10
154.149
20
-100.3
11
154.111
21
-100.292
0
LINE
8
BLACK
6
CONTINUOUS
10
154.111
20
-100.292
11
154.078
21
-100.271
0
LINE
8
BLACK
6
CONTINUOUS
10
154.078
20
-100.271
11
154.057
21
-100.238
0
LINE
8
BLACK
6
CONTINUOUS
10
154.057
20
-100.238
11
154.049
21
-100.2
0
LINE
8
BLACK
6
CONTINUOUS
10
154.049
20
-100.2
11
154.049
21
-98.775
0
LINE
8
BLACK
6
CONTINUOUS
10
154.049
20
-98.775
11
154.057
21
-98.7367
0
LINE
8
BLACK
6
CONTINUOUS
10
154.057
20
-98.7367
11
154.078
21
-98.7043
0
LINE
8
BLACK
6
CONTINUOUS
10
154.078
20
-98.7043
11
154.111
21
-98.6826
0
LINE
8
BLACK
6
CONTINUOUS
10
154.111
20
-98.6826
11
154.149
21
-98.675
0
LINE
8
BLACK
6
CONTINUOUS
10
154.149
20
-98.675
11
154.349
21
-98.675
0
LINE
8
BLACK
6
CONTINUOUS
10
154.349
20
-98.675
11
154.387
21
-98.6826
0
LINE
8
BLACK
6
CONTINUOUS
10
153.737
20
-98.6826
11
153.77
21
-98.7043
0
LINE
8
BLACK
6
CONTINUOUS
10
153.77
20
-98.7043
11
153.791
21
-98.7367
0
LINE
8
BLACK
6
CONTINUOUS
10
153.791
20
-98.7367
11
153.799
21
-98.775
0
LINE
8
BLACK
6
CONTINUOUS
10
153.799
20
-98.775
11
153.799
21
-100.2
0
LINE
8
BLACK
6
CONTINUOUS
10
153.799
20
-100.2
11
153.791
21
-100.238
0
LINE
8
BLACK
6
CONTINUOUS
10
153.791
20
-100.238
11
153.77
21
-100.271
0
LINE
8
BLACK
6
CONTINUOUS
10
153.77
20
-100.271
11
153.737
21
-100.292
0
LINE
8
BLACK
6
CONTINUOUS
10
153.737
20
-100.292
11
153.699
21
-100.3
0
LINE
8
BLACK
6
CONTINUOUS
10
153.699
20
-100.3
11
153.499
21
-100.3
0
LINE
8
BLACK
6
CONTINUOUS
10
153.499
20
-100.3
11
153.461
21
-100.292
0
LINE
8
BLACK
6
CONTINUOUS
10
153.461
20
-100.292
11
153.428
21
-100.271
0
LINE
8
BLACK
6
CONTINUOUS
10
153.428
20
-100.271
11
153.407
21
-100.238
0
LINE
8
BLACK
6
CONTINUOUS
10
153.407
20
-100.238
11
153.399
21
-100.2
0
LINE
8
BLACK
6
CONTINUOUS
10
153.399
20
-100.2
11
153.399
21
-98.775
0
LINE
8
BLACK
6
CONTINUOUS
10
153.399
20
-98.775
11
153.407
21
-98.7367
0
LINE
8
BLACK
6
CONTINUOUS
10
153.407
20
-98.7367
11
153.428
21
-98.7043
0
LINE
8
BLACK
6
CONTINUOUS
10
153.428
20
-98.7043
11
153.461
21
-98.6826
0
LINE
8
BLACK
6
CONTINUOUS
10
153.461
20
-98.6826
11
153.499
21
-98.675
0
LINE
8
BLACK
6
CONTINUOUS
10
153.499
20
-98.675
11
153.699
21
-98.675
0
LINE
8
BLACK
6
CONTINUOUS
10
153.699
20
-98.675
11
153.737
21
-98.6826
0
LINE
8
BLACK
6
CONTINUOUS
10
153.087
20
-98.6826
11
153.12
21
-98.7043
0
LINE
8
BLACK
6
CONTINUOUS
10
153.12
20
-98.7043
11
153.141
21
-98.7367
0
LINE
8
BLACK
6
CONTINUOUS
10
153.141
20
-98.7367
11
153.149
21
-98.775
0
LINE
8
BLACK
6
CONTINUOUS
10
153.149
20
-98.775
11
153.149
21
-100.2
0
LINE
8
BLACK
6
CONTINUOUS
10
153.149
20
-100.2
11
153.141
21
-100.238
0
LINE
8
BLACK
6
CONTINUOUS
10
153.141
20
-100.238
11
153.12
21
-100.271
0
LINE
8
BLACK
6
CONTINUOUS
10
153.12
20
-100.271
11
153.087
21
-100.292
0
LINE
8
BLACK
6
CONTINUOUS
10
153.087
20
-100.292
11
153.049
21
-100.3
0
LINE
8
BLACK
6
CONTINUOUS
10
153.049
20
-100.3
11
152.849
21
-100.3
0
LINE
8
BLACK
6
CONTINUOUS
10
152.849
20
-100.3
11
152.811
21
-100.292
0
LINE
8
BLACK
6
CONTINUOUS
10
152.811
20
-100.292
11
152.778
21
-100.271
0
LINE
8
BLACK
6
CONTINUOUS
10
152.778
20
-100.271
11
152.757
21
-100.238
0
LINE
8
BLACK
6
CONTINUOUS
10
152.757
20
-100.238
11
152.749
21
-100.2
0
LINE
8
BLACK
6
CONTINUOUS
10
152.749
20
-100.2
11
152.749
21
-98.775
0
LINE
8
BLACK
6
CONTINUOUS
10
152.749
20
-98.775
11
152.757
21
-98.7367
0
LINE
8
BLACK
6
CONTINUOUS
10
152.757
20
-98.7367
11
152.778
21
-98.7043
0
LINE
8
BLACK
6
CONTINUOUS
10
152.778
20
-98.7043
11
152.811
21
-98.6826
0
LINE
8
BLACK
6
CONTINUOUS
10
152.811
20
-98.6826
11
152.849
21
-98.675
0
LINE
8
BLACK
6
CONTINUOUS
10
152.849
20
-98.675
11
153.049
21
-98.675
0
LINE
8
BLACK
6
CONTINUOUS
10
153.049
20
-98.675
11
153.087
21
-98.6826
0
LINE
8
BLACK
6
CONTINUOUS
10
141.56
20
-99.1351
11
141.633
21
-99.1839
0
LINE
8
BLACK
6
CONTINUOUS
10
141.633
20
-99.1839
11
141.682
21
-99.2569
0
LINE
8
BLACK
6
CONTINUOUS
10
141.682
20
-99.2569
11
141.699
21
-99.343
0
LINE
8
BLACK
6
CONTINUOUS
10
141.699
20
-99.343
11
141.699
21
-99.793
0
LINE
8
BLACK
6
CONTINUOUS
10
141.699
20
-99.793
11
141.682
21
-99.8791
0
LINE
8
BLACK
6
CONTINUOUS
10
141.682
20
-99.8791
11
141.633
21
-99.9521
0
LINE
8
BLACK
6
CONTINUOUS
10
141.633
20
-99.9521
11
141.56
21
-100.001
0
LINE
8
BLACK
6
CONTINUOUS
10
141.56
20
-100.001
11
141.474
21
-100.018
0
LINE
8
BLACK
6
CONTINUOUS
10
141.474
20
-100.018
11
140.974
21
-100.018
0
LINE
8
BLACK
6
CONTINUOUS
10
140.974
20
-100.018
11
140.888
21
-100.001
0
LINE
8
BLACK
6
CONTINUOUS
10
140.888
20
-100.001
11
140.815
21
-99.9521
0
LINE
8
BLACK
6
CONTINUOUS
10
140.815
20
-99.9521
11
140.766
21
-99.8791
0
LINE
8
BLACK
6
CONTINUOUS
10
140.766
20
-99.8791
11
140.749
21
-99.793
0
LINE
8
BLACK
6
CONTINUOUS
10
140.749
20
-99.793
11
140.749
21
-99.343
0
LINE
8
BLACK
6
CONTINUOUS
10
140.749
20
-99.343
11
140.766
21
-99.2569
0
LINE
8
BLACK
6
CONTINUOUS
10
140.766
20
-99.2569
11
140.815
21
-99.1839
0
LINE
8
BLACK
6
CONTINUOUS
10
140.815
20
-99.1839
11
140.888
21
-99.1351
0
LINE
8
BLACK
6
CONTINUOUS
10
140.888
20
-99.1351
11
140.974
21
-99.118
0
LINE
8
BLACK
6
CONTINUOUS
10
140.974
20
-99.118
11
141.474
21
-99.118
0
LINE
8
BLACK
6
CONTINUOUS
10
141.474
20
-99.118
11
141.56
21
-99.1351
0
LINE
8
BLACK
6
CONTINUOUS
10
139.274
20
-98.6271
11
139.347
21
-98.6759
0
LINE
8
BLACK
6
CONTINUOUS
10
139.347
20
-98.6759
11
139.396
21
-98.7489
0
LINE
8
BLACK
6
CONTINUOUS
10
139.396
20
-98.7489
11
139.413
21
-98.835
0
LINE
8
BLACK
6
CONTINUOUS
10
139.413
20
-98.835
11
139.413
21
-99.285
0
LINE
8
BLACK
6
CONTINUOUS
10
139.413
20
-99.285
11
139.396
21
-99.3711
0
LINE
8
BLACK
6
CONTINUOUS
10
139.396
20
-99.3711
11
139.347
21
-99.4441
0
LINE
8
BLACK
6
CONTINUOUS
10
139.347
20
-99.4441
11
139.274
21
-99.4929
0
LINE
8
BLACK
6
CONTINUOUS
10
139.274
20
-99.4929
11
139.188
21
-99.51
0
LINE
8
BLACK
6
CONTINUOUS
10
139.188
20
-99.51
11
138.688
21
-99.51
0
LINE
8
BLACK
6
CONTINUOUS
10
138.688
20
-99.51
11
138.602
21
-99.4929
0
LINE
8
BLACK
6
CONTINUOUS
10
138.602
20
-99.4929
11
138.529
21
-99.4441
0
LINE
8
BLACK
6
CONTINUOUS
10
138.529
20
-99.4441
11
138.48
21
-99.3711
0
LINE
8
BLACK
6
CONTINUOUS
10
138.48
20
-99.3711
11
138.463
21
-99.285
0
LINE
8
BLACK
6
CONTINUOUS
10
138.463
20
-99.285
11
138.463
21
-98.835
0
LINE
8
BLACK
6
CONTINUOUS
10
138.463
20
-98.835
11
138.48
21
-98.7489
0
LINE
8
BLACK
6
CONTINUOUS
10
138.48
20
-98.7489
11
138.529
21
-98.6759
0
LINE
8
BLACK
6
CONTINUOUS
10
138.529
20
-98.6759
11
138.602
21
-98.6271
0
LINE
8
BLACK
6
CONTINUOUS
10
138.602
20
-98.6271
11
138.688
21
-98.61
0
LINE
8
BLACK
6
CONTINUOUS
10
138.688
20
-98.61
11
139.188
21
-98.61
0
LINE
8
BLACK
6
CONTINUOUS
10
139.188
20
-98.61
11
139.274
21
-98.6271
0
LINE
8
BLACK
6
CONTINUOUS
10
157.816
20
-98.3601
11
157.889
21
-98.4089
0
LINE
8
BLACK
6
CONTINUOUS
10
157.889
20
-98.4089
11
157.938
21
-98.4819
0
LINE
8
BLACK
6
CONTINUOUS
10
157.938
20
-98.4819
11
157.955
21
-98.568
0
LINE
8
BLACK
6
CONTINUOUS
10
157.955
20
-98.568
11
157.955
21
-99.018
0
LINE
8
BLACK
6
CONTINUOUS
10
157.955
20
-99.018
11
157.938
21
-99.1041
0
LINE
8
BLACK
6
CONTINUOUS
10
157.938
20
-99.1041
11
157.889
21
-99.1771
0
LINE
8
BLACK
6
CONTINUOUS
10
157.889
20
-99.1771
11
157.816
21
-99.2259
0
LINE
8
BLACK
6
CONTINUOUS
10
157.816
20
-99.2259
11
157.73
21
-99.243
0
LINE
8
BLACK
6
CONTINUOUS
10
157.73
20
-99.243
11
157.23
21
-99.243
0
LINE
8
BLACK
6
CONTINUOUS
10
157.23
20
-99.243
11
157.144
21
-99.2259
0
LINE
8
BLACK
6
CONTINUOUS
10
157.144
20
-99.2259
11
157.071
21
-99.1771
0
LINE
8
BLACK
6
CONTINUOUS
10
157.071
20
-99.1771
11
157.022
21
-99.1041
0
LINE
8
BLACK
6
CONTINUOUS
10
157.022
20
-99.1041
11
157.005
21
-99.018
0
LINE
8
BLACK
6
CONTINUOUS
10
157.005
20
-99.018
11
157.005
21
-98.568
0
LINE
8
BLACK
6
CONTINUOUS
10
157.005
20
-98.568
11
157.022
21
-98.4819
0
LINE
8
BLACK
6
CONTINUOUS
10
157.022
20
-98.4819
11
157.071
21
-98.4089
0
LINE
8
BLACK
6
CONTINUOUS
10
157.071
20
-98.4089
11
157.144
21
-98.3601
0
LINE
8
BLACK
6
CONTINUOUS
10
157.144
20
-98.3601
11
157.23
21
-98.343
0
LINE
8
BLACK
6
CONTINUOUS
10
157.23
20
-98.343
11
157.73
21
-98.343
0
LINE
8
BLACK
6
CONTINUOUS
10
157.73
20
-98.343
11
157.816
21
-98.3601
0
LINE
8
BLACK
6
CONTINUOUS
10
148.829
20
-97.7536
11
148.862
21
-97.7753
0
LINE
8
BLACK
6
CONTINUOUS
10
148.862
20
-97.7753
11
148.883
21
-97.8077
0
LINE
8
BLACK
6
CONTINUOUS
10
148.883
20
-97.8077
11
148.891
21
-97.846
0
LINE
8
BLACK
6
CONTINUOUS
10
148.891
20
-97.846
11
148.891
21
-99.121
0
LINE
8
BLACK
6
CONTINUOUS
10
148.891
20
-99.121
11
148.883
21
-99.1593
0
LINE
8
BLACK
6
CONTINUOUS
10
148.883
20
-99.1593
11
148.862
21
-99.1917
0
LINE
8
BLACK
6
CONTINUOUS
10
148.862
20
-99.1917
11
148.829
21
-99.2134
0
LINE
8
BLACK
6
CONTINUOUS
10
148.829
20
-99.2134
11
148.791
21
-99.221
0
LINE
8
BLACK
6
CONTINUOUS
10
148.791
20
-99.221
11
148.591
21
-99.221
0
LINE
8
BLACK
6
CONTINUOUS
10
148.591
20
-99.221
11
148.553
21
-99.2134
0
LINE
8
BLACK
6
CONTINUOUS
10
148.553
20
-99.2134
11
148.52
21
-99.1917
0
LINE
8
BLACK
6
CONTINUOUS
10
148.52
20
-99.1917
11
148.499
21
-99.1593
0
LINE
8
BLACK
6
CONTINUOUS
10
148.499
20
-99.1593
11
148.491
21
-99.121
0
LINE
8
BLACK
6
CONTINUOUS
10
148.491
20
-99.121
11
148.491
21
-97.846
0
LINE
8
BLACK
6
CONTINUOUS
10
148.491
20
-97.846
11
148.499
21
-97.8077
0
LINE
8
BLACK
6
CONTINUOUS
10
148.499
20
-97.8077
11
148.52
21
-97.7753
0
LINE
8
BLACK
6
CONTINUOUS
10
148.52
20
-97.7753
11
148.553
21
-97.7536
0
LINE
8
BLACK
6
CONTINUOUS
10
148.553
20
-97.7536
11
148.591
21
-97.746
0
LINE
8
BLACK
6
CONTINUOUS
10
148.591
20
-97.746
11
148.791
21
-97.746
0
LINE
8
BLACK
6
CONTINUOUS
10
148.791
20
-97.746
11
148.829
21
-97.7536
0
LINE
8
BLACK
6
CONTINUOUS
10
149.479
20
-97.7536
11
149.512
21
-97.7753
0
LINE
8
BLACK
6
CONTINUOUS
10
149.512
20
-97.7753
11
149.533
21
-97.8077
0
LINE
8
BLACK
6
CONTINUOUS
10
149.533
20
-97.8077
11
149.541
21
-97.846
0
LINE
8
BLACK
6
CONTINUOUS
10
149.541
20
-97.846
11
149.541
21
-99.121
0
LINE
8
BLACK
6
CONTINUOUS
10
149.541
20
-99.121
11
149.533
21
-99.1593
0
LINE
8
BLACK
6
CONTINUOUS
10
149.533
20
-99.1593
11
149.512
21
-99.1917
0
LINE
8
BLACK
6
CONTINUOUS
10
149.512
20
-99.1917
11
149.479
21
-99.2134
0
LINE
8
BLACK
6
CONTINUOUS
10
149.479
20
-99.2134
11
149.441
21
-99.221
0
LINE
8
BLACK
6
CONTINUOUS
10
149.441
20
-99.221
11
149.241
21
-99.221
0
LINE
8
BLACK
6
CONTINUOUS
10
149.241
20
-99.221
11
149.203
21
-99.2134
0
LINE
8
BLACK
6
CONTINUOUS
10
149.203
20
-99.2134
11
149.17
21
-99.1917
0
LINE
8
BLACK
6
CONTINUOUS
10
149.17
20
-99.1917
11
149.149
21
-99.1593
0
LINE
8
BLACK
6
CONTINUOUS
10
149.149
20
-99.1593
11
149.141
21
-99.121
0
LINE
8
BLACK
6
CONTINUOUS
10
149.141
20
-99.121
11
149.141
21
-97.846
0
LINE
8
BLACK
6
CONTINUOUS
10
149.141
20
-97.846
11
149.149
21
-97.8077
0
LINE
8
BLACK
6
CONTINUOUS
10
149.149
20
-97.8077
11
149.17
21
-97.7753
0
LINE
8
BLACK
6
CONTINUOUS
10
149.17
20
-97.7753
11
149.203
21
-97.7536
0
LINE
8
BLACK
6
CONTINUOUS
10
149.203
20
-97.7536
11
149.241
21
-97.746
0
LINE
8
BLACK
6
CONTINUOUS
10
149.241
20
-97.746
11
149.441
21
-97.746
0
LINE
8
BLACK
6
CONTINUOUS
10
149.441
20
-97.746
11
149.479
21
-97.7536
0
LINE
8
BLACK
6
CONTINUOUS
10
148.179
20
-97.7536
11
148.212
21
-97.7753
0
LINE
8
BLACK
6
CONTINUOUS
10
148.212
20
-97.7753
11
148.233
21
-97.8077
0
LINE
8
BLACK
6
CONTINUOUS
10
148.233
20
-97.8077
11
148.241
21
-97.846
0
LINE
8
BLACK
6
CONTINUOUS
10
148.241
20
-97.846
11
148.241
21
-99.121
0
LINE
8
BLACK
6
CONTINUOUS
10
148.241
20
-99.121
11
148.233
21
-99.1593
0
LINE
8
BLACK
6
CONTINUOUS
10
148.233
20
-99.1593
11
148.212
21
-99.1917
0
LINE
8
BLACK
6
CONTINUOUS
10
148.212
20
-99.1917
11
148.179
21
-99.2134
0
LINE
8
BLACK
6
CONTINUOUS
10
148.179
20
-99.2134
11
148.141
21
-99.221
0
LINE
8
BLACK
6
CONTINUOUS
10
148.141
20
-99.221
11
147.941
21
-99.221
0
LINE
8
BLACK
6
CONTINUOUS
10
147.941
20
-99.221
11
147.903
21
-99.2134
0
LINE
8
BLACK
6
CONTINUOUS
10
147.903
20
-99.2134
11
147.87
21
-99.1917
0
LINE
8
BLACK
6
CONTINUOUS
10
147.87
20
-99.1917
11
147.849
21
-99.1593
0
LINE
8
BLACK
6
CONTINUOUS
10
147.849
20
-99.1593
11
147.841
21
-99.121
0
LINE
8
BLACK
6
CONTINUOUS
10
147.841
20
-99.121
11
147.841
21
-97.846
0
LINE
8
BLACK
6
CONTINUOUS
10
147.841
20
-97.846
11
147.849
21
-97.8077
0
LINE
8
BLACK
6
CONTINUOUS
10
147.849
20
-97.8077
11
147.87
21
-97.7753
0
LINE
8
BLACK
6
CONTINUOUS
10
147.87
20
-97.7753
11
147.903
21
-97.7536
0
LINE
8
BLACK
6
CONTINUOUS
10
147.903
20
-97.7536
11
147.941
21
-97.746
0
LINE
8
BLACK
6
CONTINUOUS
10
147.941
20
-97.746
11
148.141
21
-97.746
0
LINE
8
BLACK
6
CONTINUOUS
10
148.141
20
-97.746
11
148.179
21
-97.7536
0
LINE
8
BLACK
6
CONTINUOUS
10
150.129
20
-97.7536
11
150.162
21
-97.7753
0
LINE
8
BLACK
6
CONTINUOUS
10
150.162
20
-97.7753
11
150.183
21
-97.8077
0
LINE
8
BLACK
6
CONTINUOUS
10
150.183
20
-97.8077
11
150.191
21
-97.846
0
LINE
8
BLACK
6
CONTINUOUS
10
150.191
20
-97.846
11
150.191
21
-99.121
0
LINE
8
BLACK
6
CONTINUOUS
10
150.191
20
-99.121
11
150.183
21
-99.1593
0
LINE
8
BLACK
6
CONTINUOUS
10
150.183
20
-99.1593
11
150.162
21
-99.1917
0
LINE
8
BLACK
6
CONTINUOUS
10
150.162
20
-99.1917
11
150.129
21
-99.2134
0
LINE
8
BLACK
6
CONTINUOUS
10
150.129
20
-99.2134
11
150.091
21
-99.221
0
LINE
8
BLACK
6
CONTINUOUS
10
150.091
20
-99.221
11
149.891
21
-99.221
0
LINE
8
BLACK
6
CONTINUOUS
10
149.891
20
-99.221
11
149.853
21
-99.2134
0
LINE
8
BLACK
6
CONTINUOUS
10
149.853
20
-99.2134
11
149.82
21
-99.1917
0
LINE
8
BLACK
6
CONTINUOUS
10
149.82
20
-99.1917
11
149.799
21
-99.1593
0
LINE
8
BLACK
6
CONTINUOUS
10
149.799
20
-99.1593
11
149.791
21
-99.121
0
LINE
8
BLACK
6
CONTINUOUS
10
149.791
20
-99.121
11
149.791
21
-97.846
0
LINE
8
BLACK
6
CONTINUOUS
10
149.791
20
-97.846
11
149.799
21
-97.8077
0
LINE
8
BLACK
6
CONTINUOUS
10
149.799
20
-97.8077
11
149.82
21
-97.7753
0
LINE
8
BLACK
6
CONTINUOUS
10
149.82
20
-97.7753
11
149.853
21
-97.7536
0
LINE
8
BLACK
6
CONTINUOUS
10
149.853
20
-97.7536
11
149.891
21
-97.746
0
LINE
8
BLACK
6
CONTINUOUS
10
149.891
20
-97.746
11
150.091
21
-97.746
0
LINE
8
BLACK
6
CONTINUOUS
10
150.091
20
-97.746
11
150.129
21
-97.7536
0
LINE
8
BLACK
6
CONTINUOUS
10
147.529
20
-97.7536
11
147.562
21
-97.7753
0
LINE
8
BLACK
6
CONTINUOUS
10
147.562
20
-97.7753
11
147.583
21
-97.8077
0
LINE
8
BLACK
6
CONTINUOUS
10
147.583
20
-97.8077
11
147.591
21
-97.846
0
LINE
8
BLACK
6
CONTINUOUS
10
147.591
20
-97.846
11
147.591
21
-99.121
0
LINE
8
BLACK
6
CONTINUOUS
10
147.591
20
-99.121
11
147.583
21
-99.1593
0
LINE
8
BLACK
6
CONTINUOUS
10
147.583
20
-99.1593
11
147.562
21
-99.1917
0
LINE
8
BLACK
6
CONTINUOUS
10
147.562
20
-99.1917
11
147.529
21
-99.2134
0
LINE
8
BLACK
6
CONTINUOUS
10
147.529
20
-99.2134
11
147.491
21
-99.221
0
LINE
8
BLACK
6
CONTINUOUS
10
147.491
20
-99.221
11
147.291
21
-99.221
0
LINE
8
BLACK
6
CONTINUOUS
10
147.291
20
-99.221
11
147.253
21
-99.2134
0
LINE
8
BLACK
6
CONTINUOUS
10
147.253
20
-99.2134
11
147.22
21
-99.1917
0
LINE
8
BLACK
6
CONTINUOUS
10
147.22
20
-99.1917
11
147.199
21
-99.1593
0
LINE
8
BLACK
6
CONTINUOUS
10
147.199
20
-99.1593
11
147.191
21
-99.121
0
LINE
8
BLACK
6
CONTINUOUS
10
147.191
20
-99.121
11
147.191
21
-97.846
0
LINE
8
BLACK
6
CONTINUOUS
10
147.191
20
-97.846
11
147.199
21
-97.8077
0
LINE
8
BLACK
6
CONTINUOUS
10
147.199
20
-97.8077
11
147.22
21
-97.7753
0
LINE
8
BLACK
6
CONTINUOUS
10
147.22
20
-97.7753
11
147.253
21
-97.7536
0
LINE
8
BLACK
6
CONTINUOUS
10
147.253
20
-97.7536
11
147.291
21
-97.746
0
LINE
8
BLACK
6
CONTINUOUS
10
147.291
20
-97.746
11
147.491
21
-97.746
0
LINE
8
BLACK
6
CONTINUOUS
10
147.491
20
-97.746
11
147.529
21
-97.7536
0
LINE
8
BLACK
6
CONTINUOUS
10
146.879
20
-97.7536
11
146.912
21
-97.7753
0
LINE
8
BLACK
6
CONTINUOUS
10
146.912
20
-97.7753
11
146.933
21
-97.8077
0
LINE
8
BLACK
6
CONTINUOUS
10
146.933
20
-97.8077
11
146.941
21
-97.846
0
LINE
8
BLACK
6
CONTINUOUS
10
146.941
20
-97.846
11
146.941
21
-99.121
0
LINE
8
BLACK
6
CONTINUOUS
10
146.941
20
-99.121
11
146.933
21
-99.1593
0
LINE
8
BLACK
6
CONTINUOUS
10
146.933
20
-99.1593
11
146.912
21
-99.1917
0
LINE
8
BLACK
6
CONTINUOUS
10
146.912
20
-99.1917
11
146.879
21
-99.2134
0
LINE
8
BLACK
6
CONTINUOUS
10
146.879
20
-99.2134
11
146.841
21
-99.221
0
LINE
8
BLACK
6
CONTINUOUS
10
146.841
20
-99.221
11
146.641
21
-99.221
0
LINE
8
BLACK
6
CONTINUOUS
10
146.641
20
-99.221
11
146.603
21
-99.2134
0
LINE
8
BLACK
6
CONTINUOUS
10
146.603
20
-99.2134
11
146.57
21
-99.1917
0
LINE
8
BLACK
6
CONTINUOUS
10
146.57
20
-99.1917
11
146.549
21
-99.1593
0
LINE
8
BLACK
6
CONTINUOUS
10
146.549
20
-99.1593
11
146.541
21
-99.121
0
LINE
8
BLACK
6
CONTINUOUS
10
146.541
20
-99.121
11
146.541
21
-97.846
0
LINE
8
BLACK
6
CONTINUOUS
10
146.541
20
-97.846
11
146.549
21
-97.8077
0
LINE
8
BLACK
6
CONTINUOUS
10
146.549
20
-97.8077
11
146.57
21
-97.7753
0
LINE
8
BLACK
6
CONTINUOUS
10
146.57
20
-97.7753
11
146.603
21
-97.7536
0
LINE
8
BLACK
6
CONTINUOUS
10
146.603
20
-97.7536
11
146.641
21
-97.746
0
LINE
8
BLACK
6
CONTINUOUS
10
146.641
20
-97.746
11
146.841
21
-97.746
0
LINE
8
BLACK
6
CONTINUOUS
10
146.841
20
-97.746
11
146.879
21
-97.7536
0
LINE
8
BLACK
6
CONTINUOUS
10
144.279
20
-97.7536
11
144.312
21
-97.7753
0
LINE
8
BLACK
6
CONTINUOUS
10
144.312
20
-97.7753
11
144.333
21
-97.8077
0
LINE
8
BLACK
6
CONTINUOUS
10
144.333
20
-97.8077
11
144.341
21
-97.846
0
LINE
8
BLACK
6
CONTINUOUS
10
144.341
20
-97.846
11
144.341
21
-99.121
0
LINE
8
BLACK
6
CONTINUOUS
10
144.341
20
-99.121
11
144.333
21
-99.1593
0
LINE
8
BLACK
6
CONTINUOUS
10
144.333
20
-99.1593
11
144.312
21
-99.1917
0
LINE
8
BLACK
6
CONTINUOUS
10
144.312
20
-99.1917
11
144.279
21
-99.2134
0
LINE
8
BLACK
6
CONTINUOUS
10
144.279
20
-99.2134
11
144.241
21
-99.221
0
LINE
8
BLACK
6
CONTINUOUS
10
144.241
20
-99.221
11
144.041
21
-99.221
0
LINE
8
BLACK
6
CONTINUOUS
10
144.041
20
-99.221
11
144.003
21
-99.2134
0
LINE
8
BLACK
6
CONTINUOUS
10
144.003
20
-99.2134
11
143.97
21
-99.1917
0
LINE
8
BLACK
6
CONTINUOUS
10
143.97
20
-99.1917
11
143.949
21
-99.1593
0
LINE
8
BLACK
6
CONTINUOUS
10
143.949
20
-99.1593
11
143.941
21
-99.121
0
LINE
8
BLACK
6
CONTINUOUS
10
143.941
20
-99.121
11
143.941
21
-97.846
0
LINE
8
BLACK
6
CONTINUOUS
10
143.941
20
-97.846
11
143.949
21
-97.8077
0
LINE
8
BLACK
6
CONTINUOUS
10
143.949
20
-97.8077
11
143.97
21
-97.7753
0
LINE
8
BLACK
6
CONTINUOUS
10
143.97
20
-97.7753
11
144.003
21
-97.7536
0
LINE
8
BLACK
6
CONTINUOUS
10
144.003
20
-97.7536
11
144.041
21
-97.746
0
LINE
8
BLACK
6
CONTINUOUS
10
144.041
20
-97.746
11
144.241
21
-97.746
0
LINE
8
BLACK
6
CONTINUOUS
10
144.241
20
-97.746
11
144.279
21
-97.7536
0
LINE
8
BLACK
6
CONTINUOUS
10
144.929
20
-97.7536
11
144.962
21
-97.7753
0
LINE
8
BLACK
6
CONTINUOUS
10
144.962
20
-97.7753
11
144.983
21
-97.8077
0
LINE
8
BLACK
6
CONTINUOUS
10
144.983
20
-97.8077
11
144.991
21
-97.846
0
LINE
8
BLACK
6
CONTINUOUS
10
144.991
20
-97.846
11
144.991
21
-99.121
0
LINE
8
BLACK
6
CONTINUOUS
10
144.991
20
-99.121
11
144.983
21
-99.1593
0
LINE
8
BLACK
6
CONTINUOUS
10
144.983
20
-99.1593
11
144.962
21
-99.1917
0
LINE
8
BLACK
6
CONTINUOUS
10
144.962
20
-99.1917
11
144.929
21
-99.2134
0
LINE
8
BLACK
6
CONTINUOUS
10
144.929
20
-99.2134
11
144.891
21
-99.221
0
LINE
8
BLACK
6
CONTINUOUS
10
144.891
20
-99.221
11
144.691
21
-99.221
0
LINE
8
BLACK
6
CONTINUOUS
10
144.691
20
-99.221
11
144.653
21
-99.2134
0
LINE
8
BLACK
6
CONTINUOUS
10
144.653
20
-99.2134
11
144.62
21
-99.1917
0
LINE
8
BLACK
6
CONTINUOUS
10
144.62
20
-99.1917
11
144.599
21
-99.1593
0
LINE
8
BLACK
6
CONTINUOUS
10
144.599
20
-99.1593
11
144.591
21
-99.121
0
LINE
8
BLACK
6
CONTINUOUS
10
144.591
20
-99.121
11
144.591
21
-97.846
0
LINE
8
BLACK
6
CONTINUOUS
10
144.591
20
-97.846
11
144.599
21
-97.8077
0
LINE
8
BLACK
6
CONTINUOUS
10
144.599
20
-97.8077
11
144.62
21
-97.7753
0
LINE
8
BLACK
6
CONTINUOUS
10
144.62
20
-97.7753
11
144.653
21
-97.7536
0
LINE
8
BLACK
6
CONTINUOUS
10
144.653
20
-97.7536
11
144.691
21
-97.746
0
LINE
8
BLACK
6
CONTINUOUS
10
144.691
20
-97.746
11
144.891
21
-97.746
0
LINE
8
BLACK
6
CONTINUOUS
10
144.891
20
-97.746
11
144.929
21
-97.7536
0
LINE
8
BLACK
6
CONTINUOUS
10
145.579
20
-97.7536
11
145.612
21
-97.7753
0
LINE
8
BLACK
6
CONTINUOUS
10
145.612
20
-97.7753
11
145.633
21
-97.8077
0
LINE
8
BLACK
6
CONTINUOUS
10
145.633
20
-97.8077
11
145.641
21
-97.846
0
LINE
8
BLACK
6
CONTINUOUS
10
145.641
20
-97.846
11
145.641
21
-99.121
0
LINE
8
BLACK
6
CONTINUOUS
10
145.641
20
-99.121
11
145.633
21
-99.1593
0
LINE
8
BLACK
6
CONTINUOUS
10
145.633
20
-99.1593
11
145.612
21
-99.1917
0
LINE
8
BLACK
6
CONTINUOUS
10
145.612
20
-99.1917
11
145.579
21
-99.2134
0
LINE
8
BLACK
6
CONTINUOUS
10
145.579
20
-99.2134
11
145.541
21
-99.221
0
LINE
8
BLACK
6
CONTINUOUS
10
145.541
20
-99.221
11
145.341
21
-99.221
0
LINE
8
BLACK
6
CONTINUOUS
10
145.341
20
-99.221
11
145.303
21
-99.2134
0
LINE
8
BLACK
6
CONTINUOUS
10
145.303
20
-99.2134
11
145.27
21
-99.1917
0
LINE
8
BLACK
6
CONTINUOUS
10
145.27
20
-99.1917
11
145.249
21
-99.1593
0
LINE
8
BLACK
6
CONTINUOUS
10
145.249
20
-99.1593
11
145.241
21
-99.121
0
LINE
8
BLACK
6
CONTINUOUS
10
145.241
20
-99.121
11
145.241
21
-97.846
0
LINE
8
BLACK
6
CONTINUOUS
10
145.241
20
-97.846
11
145.249
21
-97.8077
0
LINE
8
BLACK
6
CONTINUOUS
10
145.249
20
-97.8077
11
145.27
21
-97.7753
0
LINE
8
BLACK
6
CONTINUOUS
10
145.27
20
-97.7753
11
145.303
21
-97.7536
0
LINE
8
BLACK
6
CONTINUOUS
10
145.303
20
-97.7536
11
145.341
21
-97.746
0
LINE
8
BLACK
6
CONTINUOUS
10
145.341
20
-97.746
11
145.541
21
-97.746
0
LINE
8
BLACK
6
CONTINUOUS
10
145.541
20
-97.746
11
145.579
21
-97.7536
0
LINE
8
BLACK
6
CONTINUOUS
10
146.229
20
-97.7536
11
146.262
21
-97.7753
0
LINE
8
BLACK
6
CONTINUOUS
10
146.262
20
-97.7753
11
146.283
21
-97.8077
0
LINE
8
BLACK
6
CONTINUOUS
10
146.283
20
-97.8077
11
146.291
21
-97.846
0
LINE
8
BLACK
6
CONTINUOUS
10
146.291
20
-97.846
11
146.291
21
-99.121
0
LINE
8
BLACK
6
CONTINUOUS
10
146.291
20
-99.121
11
146.283
21
-99.1593
0
LINE
8
BLACK
6
CONTINUOUS
10
146.283
20
-99.1593
11
146.262
21
-99.1917
0
LINE
8
BLACK
6
CONTINUOUS
10
146.262
20
-99.1917
11
146.229
21
-99.2134
0
LINE
8
BLACK
6
CONTINUOUS
10
146.229
20
-99.2134
11
146.191
21
-99.221
0
LINE
8
BLACK
6
CONTINUOUS
10
146.191
20
-99.221
11
145.991
21
-99.221
0
LINE
8
BLACK
6
CONTINUOUS
10
145.991
20
-99.221
11
145.953
21
-99.2134
0
LINE
8
BLACK
6
CONTINUOUS
10
145.953
20
-99.2134
11
145.92
21
-99.1917
0
LINE
8
BLACK
6
CONTINUOUS
10
145.92
20
-99.1917
11
145.899
21
-99.1593
0
LINE
8
BLACK
6
CONTINUOUS
10
145.899
20
-99.1593
11
145.891
21
-99.121
0
LINE
8
BLACK
6
CONTINUOUS
10
145.891
20
-99.121
11
145.891
21
-97.846
0
LINE
8
BLACK
6
CONTINUOUS
10
145.891
20
-97.846
11
145.899
21
-97.8077
0
LINE
8
BLACK
6
CONTINUOUS
10
145.899
20
-97.8077
11
145.92
21
-97.7753
0
LINE
8
BLACK
6
CONTINUOUS
10
145.92
20
-97.7753
11
145.953
21
-97.7536
0
LINE
8
BLACK
6
CONTINUOUS
10
145.953
20
-97.7536
11
145.991
21
-97.746
0
LINE
8
BLACK
6
CONTINUOUS
10
145.991
20
-97.746
11
146.191
21
-97.746
0
LINE
8
BLACK
6
CONTINUOUS
10
146.191
20
-97.746
11
146.229
21
-97.7536
0
LINE
8
BLACK
6
CONTINUOUS
10
141.56
20
-97.5851
11
141.633
21
-97.6339
0
LINE
8
BLACK
6
CONTINUOUS
10
141.633
20
-97.6339
11
141.682
21
-97.7069
0
LINE
8
BLACK
6
CONTINUOUS
10
141.682
20
-97.7069
11
141.699
21
-97.793
0
LINE
8
BLACK
6
CONTINUOUS
10
141.699
20
-97.793
11
141.699
21
-98.243
0
LINE
8
BLACK
6
CONTINUOUS
10
141.699
20
-98.243
11
141.682
21
-98.3291
0
LINE
8
BLACK
6
CONTINUOUS
10
141.682
20
-98.3291
11
141.633
21
-98.4021
0
LINE
8
BLACK
6
CONTINUOUS
10
141.633
20
-98.4021
11
141.56
21
-98.4509
0
LINE
8
BLACK
6
CONTINUOUS
10
141.56
20
-98.4509
11
141.474
21
-98.468
0
LINE
8
BLACK
6
CONTINUOUS
10
141.474
20
-98.468
11
140.974
21
-98.468
0
LINE
8
BLACK
6
CONTINUOUS
10
140.974
20
-98.468
11
140.888
21
-98.4509
0
LINE
8
BLACK
6
CONTINUOUS
10
140.888
20
-98.4509
11
140.815
21
-98.4021
0
LINE
8
BLACK
6
CONTINUOUS
10
140.815
20
-98.4021
11
140.766
21
-98.3291
0
LINE
8
BLACK
6
CONTINUOUS
10
140.766
20
-98.3291
11
140.749
21
-98.243
0
LINE
8
BLACK
6
CONTINUOUS
10
140.749
20
-98.243
11
140.749
21
-97.793
0
LINE
8
BLACK
6
CONTINUOUS
10
140.749
20
-97.793
11
140.766
21
-97.7069
0
LINE
8
BLACK
6
CONTINUOUS
10
140.766
20
-97.7069
11
140.815
21
-97.6339
0
LINE
8
BLACK
6
CONTINUOUS
10
140.815
20
-97.6339
11
140.888
21
-97.5851
0
LINE
8
BLACK
6
CONTINUOUS
10
140.888
20
-97.5851
11
140.974
21
-97.568
0
LINE
8
BLACK
6
CONTINUOUS
10
140.974
20
-97.568
11
141.474
21
-97.568
0
LINE
8
BLACK
6
CONTINUOUS
10
141.474
20
-97.568
11
141.56
21
-97.5851
0
LINE
8
BLACK
6
CONTINUOUS
10
139.274
20
-97.0771
11
139.347
21
-97.1259
0
LINE
8
BLACK
6
CONTINUOUS
10
139.347
20
-97.1259
11
139.396
21
-97.1989
0
LINE
8
BLACK
6
CONTINUOUS
10
139.396
20
-97.1989
11
139.413
21
-97.285
0
LINE
8
BLACK
6
CONTINUOUS
10
139.413
20
-97.285
11
139.413
21
-97.735
0
LINE
8
BLACK
6
CONTINUOUS
10
139.413
20
-97.735
11
139.396
21
-97.8211
0
LINE
8
BLACK
6
CONTINUOUS
10
139.396
20
-97.8211
11
139.347
21
-97.8941
0
LINE
8
BLACK
6
CONTINUOUS
10
139.347
20
-97.8941
11
139.274
21
-97.9429
0
LINE
8
BLACK
6
CONTINUOUS
10
139.274
20
-97.9429
11
139.188
21
-97.96
0
LINE
8
BLACK
6
CONTINUOUS
10
139.188
20
-97.96
11
138.688
21
-97.96
0
LINE
8
BLACK
6
CONTINUOUS
10
138.688
20
-97.96
11
138.602
21
-97.9429
0
LINE
8
BLACK
6
CONTINUOUS
10
138.602
20
-97.9429
11
138.529
21
-97.8941
0
LINE
8
BLACK
6
CONTINUOUS
10
138.529
20
-97.8941
11
138.48
21
-97.8211
0
LINE
8
BLACK
6
CONTINUOUS
10
138.48
20
-97.8211
11
138.463
21
-97.735
0
LINE
8
BLACK
6
CONTINUOUS
10
138.463
20
-97.735
11
138.463
21
-97.285
0
LINE
8
BLACK
6
CONTINUOUS
10
138.463
20
-97.285
11
138.48
21
-97.1989
0
LINE
8
BLACK
6
CONTINUOUS
10
138.48
20
-97.1989
11
138.529
21
-97.1259
0
LINE
8
BLACK
6
CONTINUOUS
10
138.529
20
-97.1259
11
138.602
21
-97.0771
0
LINE
8
BLACK
6
CONTINUOUS
10
138.602
20
-97.0771
11
138.688
21
-97.06
0
LINE
8
BLACK
6
CONTINUOUS
10
138.688
20
-97.06
11
139.188
21
-97.06
0
LINE
8
BLACK
6
CONTINUOUS
10
139.188
20
-97.06
11
139.274
21
-97.0771
0
LINE
8
BLACK
6
CONTINUOUS
10
136.417
20
-96.3161
11
136.49
21
-96.3649
0
LINE
8
BLACK
6
CONTINUOUS
10
136.49
20
-96.3649
11
136.539
21
-96.4379
0
LINE
8
BLACK
6
CONTINUOUS
10
136.539
20
-96.4379
11
136.556
21
-96.524
0
LINE
8
BLACK
6
CONTINUOUS
10
136.556
20
-96.524
11
136.556
21
-97.024
0
LINE
8
BLACK
6
CONTINUOUS
10
136.556
20
-97.024
11
136.539
21
-97.1101
0
LINE
8
BLACK
6
CONTINUOUS
10
136.539
20
-97.1101
11
136.49
21
-97.1831
0
LINE
8
BLACK
6
CONTINUOUS
10
136.49
20
-97.1831
11
136.417
21
-97.2319
0
LINE
8
BLACK
6
CONTINUOUS
10
136.417
20
-97.2319
11
136.331
21
-97.249
0
LINE
8
BLACK
6
CONTINUOUS
10
136.331
20
-97.249
11
135.881
21
-97.249
0
LINE
8
BLACK
6
CONTINUOUS
10
135.881
20
-97.249
11
135.795
21
-97.2319
0
LINE
8
BLACK
6
CONTINUOUS
10
135.795
20
-97.2319
11
135.722
21
-97.1831
0
LINE
8
BLACK
6
CONTINUOUS
10
135.722
20
-97.1831
11
135.673
21
-97.1101
0
LINE
8
BLACK
6
CONTINUOUS
10
135.673
20
-97.1101
11
135.656
21
-97.024
0
LINE
8
BLACK
6
CONTINUOUS
10
135.656
20
-97.024
11
135.656
21
-96.524
0
LINE
8
BLACK
6
CONTINUOUS
10
135.656
20
-96.524
11
135.673
21
-96.4379
0
LINE
8
BLACK
6
CONTINUOUS
10
135.673
20
-96.4379
11
135.722
21
-96.3649
0
LINE
8
BLACK
6
CONTINUOUS
10
135.722
20
-96.3649
11
135.795
21
-96.3161
0
LINE
8
BLACK
6
CONTINUOUS
10
135.795
20
-96.3161
11
135.881
21
-96.299
0
LINE
8
BLACK
6
CONTINUOUS
10
135.881
20
-96.299
11
136.331
21
-96.299
0
LINE
8
BLACK
6
CONTINUOUS
10
136.331
20
-96.299
11
136.417
21
-96.3161
0
LINE
8
BLACK
6
CONTINUOUS
10
134.867
20
-96.3161
11
134.94
21
-96.3649
0
LINE
8
BLACK
6
CONTINUOUS
10
134.94
20
-96.3649
11
134.989
21
-96.4379
0
LINE
8
BLACK
6
CONTINUOUS
10
134.989
20
-96.4379
11
135.006
21
-96.524
0
LINE
8
BLACK
6
CONTINUOUS
10
135.006
20
-96.524
11
135.006
21
-97.024
0
LINE
8
BLACK
6
CONTINUOUS
10
135.006
20
-97.024
11
134.989
21
-97.1101
0
LINE
8
BLACK
6
CONTINUOUS
10
134.989
20
-97.1101
11
134.94
21
-97.1831
0
LINE
8
BLACK
6
CONTINUOUS
10
134.94
20
-97.1831
11
134.867
21
-97.2319
0
LINE
8
BLACK
6
CONTINUOUS
10
134.867
20
-97.2319
11
134.781
21
-97.249
0
LINE
8
BLACK
6
CONTINUOUS
10
134.781
20
-97.249
11
134.331
21
-97.249
0
LINE
8
BLACK
6
CONTINUOUS
10
134.331
20
-97.249
11
134.245
21
-97.2319
0
LINE
8
BLACK
6
CONTINUOUS
10
134.245
20
-97.2319
11
134.172
21
-97.1831
0
LINE
8
BLACK
6
CONTINUOUS
10
134.172
20
-97.1831
11
134.123
21
-97.1101
0
LINE
8
BLACK
6
CONTINUOUS
10
134.123
20
-97.1101
11
134.106
21
-97.024
0
LINE
8
BLACK
6
CONTINUOUS
10
134.106
20
-97.024
11
134.106
21
-96.524
0
LINE
8
BLACK
6
CONTINUOUS
10
134.106
20
-96.524
11
134.123
21
-96.4379
0
LINE
8
BLACK
6
CONTINUOUS
10
134.123
20
-96.4379
11
134.172
21
-96.3649
0
LINE
8
BLACK
6
CONTINUOUS
10
134.172
20
-96.3649
11
134.245
21
-96.3161
0
LINE
8
BLACK
6
CONTINUOUS
10
134.245
20
-96.3161
11
134.331
21
-96.299
0
LINE
8
BLACK
6
CONTINUOUS
10
134.331
20
-96.299
11
134.781
21
-96.299
0
LINE
8
BLACK
6
CONTINUOUS
10
134.781
20
-96.299
11
134.867
21
-96.3161
0
LINE
8
BLACK
6
CONTINUOUS
10
157.186
20
-95.814
11
157.267
21
-95.8682
0
LINE
8
BLACK
6
CONTINUOUS
10
157.267
20
-95.8682
11
157.321
21
-95.9493
0
LINE
8
BLACK
6
CONTINUOUS
10
157.321
20
-95.9493
11
157.34
21
-96.045
0
LINE
8
BLACK
6
CONTINUOUS
10
157.34
20
-96.045
11
157.34
21
-96.995
0
LINE
8
BLACK
6
CONTINUOUS
10
157.34
20
-96.995
11
157.321
21
-97.0907
0
LINE
8
BLACK
6
CONTINUOUS
10
157.321
20
-97.0907
11
157.267
21
-97.1718
0
LINE
8
BLACK
6
CONTINUOUS
10
157.267
20
-97.1718
11
157.186
21
-97.226
0
LINE
8
BLACK
6
CONTINUOUS
10
157.186
20
-97.226
11
157.09
21
-97.245
0
LINE
8
BLACK
6
CONTINUOUS
10
157.09
20
-97.245
11
156.59
21
-97.245
0
LINE
8
BLACK
6
CONTINUOUS
10
156.59
20
-97.245
11
156.494
21
-97.226
0
LINE
8
BLACK
6
CONTINUOUS
10
156.494
20
-97.226
11
156.413
21
-97.1718
0
LINE
8
BLACK
6
CONTINUOUS
10
156.413
20
-97.1718
11
156.359
21
-97.0907
0
LINE
8
BLACK
6
CONTINUOUS
10
156.359
20
-97.0907
11
156.34
21
-96.995
0
LINE
8
BLACK
6
CONTINUOUS
10
156.34
20
-96.995
11
156.34
21
-96.045
0
LINE
8
BLACK
6
CONTINUOUS
10
156.34
20
-96.045
11
156.359
21
-95.9493
0
LINE
8
BLACK
6
CONTINUOUS
10
156.359
20
-95.9493
11
156.413
21
-95.8682
0
LINE
8
BLACK
6
CONTINUOUS
10
156.413
20
-95.8682
11
156.494
21
-95.814
0
LINE
8
BLACK
6
CONTINUOUS
10
156.494
20
-95.814
11
156.59
21
-95.795
0
LINE
8
BLACK
6
CONTINUOUS
10
156.59
20
-95.795
11
157.09
21
-95.795
0
LINE
8
BLACK
6
CONTINUOUS
10
157.09
20
-95.795
11
157.186
21
-95.814
0
LINE
8
BLACK
6
CONTINUOUS
10
155.286
20
-95.814
11
155.367
21
-95.8682
0
LINE
8
BLACK
6
CONTINUOUS
10
155.367
20
-95.8682
11
155.421
21
-95.9493
0
LINE
8
BLACK
6
CONTINUOUS
10
155.421
20
-95.9493
11
155.44
21
-96.045
0
LINE
8
BLACK
6
CONTINUOUS
10
155.44
20
-96.045
11
155.44
21
-96.995
0
LINE
8
BLACK
6
CONTINUOUS
10
155.44
20
-96.995
11
155.421
21
-97.0907
0
LINE
8
BLACK
6
CONTINUOUS
10
155.421
20
-97.0907
11
155.367
21
-97.1718
0
LINE
8
BLACK
6
CONTINUOUS
10
155.367
20
-97.1718
11
155.286
21
-97.226
0
LINE
8
BLACK
6
CONTINUOUS
10
155.286
20
-97.226
11
155.19
21
-97.245
0
LINE
8
BLACK
6
CONTINUOUS
10
155.19
20
-97.245
11
154.69
21
-97.245
0
LINE
8
BLACK
6
CONTINUOUS
10
154.69
20
-97.245
11
154.594
21
-97.226
0
LINE
8
BLACK
6
CONTINUOUS
10
154.594
20
-97.226
11
154.513
21
-97.1718
0
LINE
8
BLACK
6
CONTINUOUS
10
154.513
20
-97.1718
11
154.459
21
-97.0907
0
LINE
8
BLACK
6
CONTINUOUS
10
154.459
20
-97.0907
11
154.44
21
-96.995
0
LINE
8
BLACK
6
CONTINUOUS
10
154.44
20
-96.995
11
154.44
21
-96.045
0
LINE
8
BLACK
6
CONTINUOUS
10
154.44
20
-96.045
11
154.459
21
-95.9493
0
LINE
8
BLACK
6
CONTINUOUS
10
154.459
20
-95.9493
11
154.513
21
-95.8682
0
LINE
8
BLACK
6
CONTINUOUS
10
154.513
20
-95.8682
11
154.594
21
-95.814
0
LINE
8
BLACK
6
CONTINUOUS
10
154.594
20
-95.814
11
154.69
21
-95.795
0
LINE
8
BLACK
6
CONTINUOUS
10
154.69
20
-95.795
11
155.19
21
-95.795
0
LINE
8
BLACK
6
CONTINUOUS
10
155.19
20
-95.795
11
155.286
21
-95.814
0
LINE
8
BLACK
6
CONTINUOUS
10
146.602
20
-95.8081
11
146.675
21
-95.8569
0
LINE
8
BLACK
6
CONTINUOUS
10
146.675
20
-95.8569
11
146.724
21
-95.9299
0
LINE
8
BLACK
6
CONTINUOUS
10
146.724
20
-95.9299
11
146.741
21
-96.016
0
LINE
8
BLACK
6
CONTINUOUS
10
146.741
20
-96.016
11
146.741
21
-96.516
0
LINE
8
BLACK
6
CONTINUOUS
10
146.741
20
-96.516
11
146.724
21
-96.6021
0
LINE
8
BLACK
6
CONTINUOUS
10
146.724
20
-96.6021
11
146.675
21
-96.6751
0
LINE
8
BLACK
6
CONTINUOUS
10
146.675
20
-96.6751
11
146.602
21
-96.7239
0
LINE
8
BLACK
6
CONTINUOUS
10
146.602
20
-96.7239
11
146.516
21
-96.741
0
LINE
8
BLACK
6
CONTINUOUS
10
146.516
20
-96.741
11
146.066
21
-96.741
0
LINE
8
BLACK
6
CONTINUOUS
10
146.066
20
-96.741
11
145.98
21
-96.7239
0
LINE
8
BLACK
6
CONTINUOUS
10
145.98
20
-96.7239
11
145.907
21
-96.6751
0
LINE
8
BLACK
6
CONTINUOUS
10
145.907
20
-96.6751
11
145.858
21
-96.6021
0
LINE
8
BLACK
6
CONTINUOUS
10
145.858
20
-96.6021
11
145.841
21
-96.516
0
LINE
8
BLACK
6
CONTINUOUS
10
145.841
20
-96.516
11
145.841
21
-96.016
0
LINE
8
BLACK
6
CONTINUOUS
10
145.841
20
-96.016
11
145.858
21
-95.9299
0
LINE
8
BLACK
6
CONTINUOUS
10
145.858
20
-95.9299
11
145.907
21
-95.8569
0
LINE
8
BLACK
6
CONTINUOUS
10
145.907
20
-95.8569
11
145.98
21
-95.8081
0
LINE
8
BLACK
6
CONTINUOUS
10
145.98
20
-95.8081
11
146.066
21
-95.791
0
LINE
8
BLACK
6
CONTINUOUS
10
146.066
20
-95.791
11
146.516
21
-95.791
0
LINE
8
BLACK
6
CONTINUOUS
10
146.516
20
-95.791
11
146.602
21
-95.8081
0
LINE
8
BLACK
6
CONTINUOUS
10
148.152
20
-95.8081
11
148.225
21
-95.8569
0
LINE
8
BLACK
6
CONTINUOUS
10
148.225
20
-95.8569
11
148.274
21
-95.9299
0
LINE
8
BLACK
6
CONTINUOUS
10
148.274
20
-95.9299
11
148.291
21
-96.016
0
LINE
8
BLACK
6
CONTINUOUS
10
148.291
20
-96.016
11
148.291
21
-96.516
0
LINE
8
BLACK
6
CONTINUOUS
10
148.291
20
-96.516
11
148.274
21
-96.6021
0
LINE
8
BLACK
6
CONTINUOUS
10
148.274
20
-96.6021
11
148.225
21
-96.6751
0
LINE
8
BLACK
6
CONTINUOUS
10
148.225
20
-96.6751
11
148.152
21
-96.7239
0
LINE
8
BLACK
6
CONTINUOUS
10
148.152
20
-96.7239
11
148.066
21
-96.741
0
LINE
8
BLACK
6
CONTINUOUS
10
148.066
20
-96.741
11
147.616
21
-96.741
0
LINE
8
BLACK
6
CONTINUOUS
10
147.616
20
-96.741
11
147.53
21
-96.7239
0
LINE
8
BLACK
6
CONTINUOUS
10
147.53
20
-96.7239
11
147.457
21
-96.6751
0
LINE
8
BLACK
6
CONTINUOUS
10
147.457
20
-96.6751
11
147.408
21
-96.6021
0
LINE
8
BLACK
6
CONTINUOUS
10
147.408
20
-96.6021
11
147.391
21
-96.516
0
LINE
8
BLACK
6
CONTINUOUS
10
147.391
20
-96.516
11
147.391
21
-96.016
0
LINE
8
BLACK
6
CONTINUOUS
10
147.391
20
-96.016
11
147.408
21
-95.9299
0
LINE
8
BLACK
6
CONTINUOUS
10
147.408
20
-95.9299
11
147.457
21
-95.8569
0
LINE
8
BLACK
6
CONTINUOUS
10
147.457
20
-95.8569
11
147.53
21
-95.8081
0
LINE
8
BLACK
6
CONTINUOUS
10
147.53
20
-95.8081
11
147.616
21
-95.791
0
LINE
8
BLACK
6
CONTINUOUS
10
147.616
20
-95.791
11
148.066
21
-95.791
0
LINE
8
BLACK
6
CONTINUOUS
10
148.066
20
-95.791
11
148.152
21
-95.8081
0
LINE
8
BLACK
6
CONTINUOUS
10
135.47
20
-94.83
11
133.77
21
-94.83
0
LINE
8
BLACK
6
CONTINUOUS
10
133.77
20
-94.83
11
133.77
21
-93.13
0
LINE
8
BLACK
6
CONTINUOUS
10
133.77
20
-93.13
11
135.47
21
-93.13
0
LINE
8
BLACK
6
CONTINUOUS
10
135.47
20
-93.13
11
135.47
21
-94.83
0
LINE
8
BLACK
6
CONTINUOUS
10
150.71
20
-94.83
11
149.01
21
-94.83
0
LINE
8
BLACK
6
CONTINUOUS
10
149.01
20
-94.83
11
149.01
21
-93.13
0
LINE
8
BLACK
6
CONTINUOUS
10
149.01
20
-93.13
11
150.71
21
-93.13
0
LINE
8
BLACK
6
CONTINUOUS
10
150.71
20
-93.13
11
150.71
21
-94.83
0
LINE
8
BLACK
6
CONTINUOUS
10
157.743
20
-93.1716
11
157.905
21
-93.2439
0
LINE
8
BLACK
6
CONTINUOUS
10
157.905
20
-93.2439
11
158.049
21
-93.3483
0
LINE
8
BLACK
6
CONTINUOUS
10
158.049
20
-93.3483
11
158.168
21
-93.4804
0
LINE
8
BLACK
6
CONTINUOUS
10
158.168
20
-93.4804
11
158.257
21
-93.6343
0
LINE
8
BLACK
6
CONTINUOUS
10
158.257
20
-93.6343
11
158.311
21
-93.8033
0
LINE
8
BLACK
6
CONTINUOUS
10
158.311
20
-93.8033
11
158.33
21
-93.98
0
LINE
8
BLACK
6
CONTINUOUS
10
158.33
20
-93.98
11
158.311
21
-94.1567
0
LINE
8
BLACK
6
CONTINUOUS
10
158.311
20
-94.1567
11
158.257
21
-94.3257
0
LINE
8
BLACK
6
CONTINUOUS
10
158.257
20
-94.3257
11
158.168
21
-94.4796
0
LINE
8
BLACK
6
CONTINUOUS
10
158.168
20
-94.4796
11
158.049
21
-94.6117
0
LINE
8
BLACK
6
CONTINUOUS
10
158.049
20
-94.6117
11
157.905
21
-94.7161
0
LINE
8
BLACK
6
CONTINUOUS
10
157.905
20
-94.7161
11
157.743
21
-94.7884
0
LINE
8
BLACK
6
CONTINUOUS
10
157.743
20
-94.7884
11
157.569
21
-94.8253
0
LINE
8
BLACK
6
CONTINUOUS
10
157.569
20
-94.8253
11
157.391
21
-94.8253
0
LINE
8
BLACK
6
CONTINUOUS
10
157.391
20
-94.8253
11
157.217
21
-94.7884
0
LINE
8
BLACK
6
CONTINUOUS
10
157.217
20
-94.7884
11
157.055
21
-94.7161
0
LINE
8
BLACK
6
CONTINUOUS
10
157.055
20
-94.7161
11
156.911
21
-94.6117
0
LINE
8
BLACK
6
CONTINUOUS
10
156.911
20
-94.6117
11
156.792
21
-94.4796
0
LINE
8
BLACK
6
CONTINUOUS
10
156.792
20
-94.4796
11
156.703
21
-94.3257
0
LINE
8
BLACK
6
CONTINUOUS
10
156.703
20
-94.3257
11
156.649
21
-94.1567
0
LINE
8
BLACK
6
CONTINUOUS
10
156.649
20
-94.1567
11
156.63
21
-93.98
0
LINE
8
BLACK
6
CONTINUOUS
10
156.63
20
-93.98
11
156.649
21
-93.8033
0
LINE
8
BLACK
6
CONTINUOUS
10
156.649
20
-93.8033
11
156.703
21
-93.6343
0
LINE
8
BLACK
6
CONTINUOUS
10
156.703
20
-93.6343
11
156.792
21
-93.4804
0
LINE
8
BLACK
6
CONTINUOUS
10
156.792
20
-93.4804
11
156.911
21
-93.3483
0
LINE
8
BLACK
6
CONTINUOUS
10
156.911
20
-93.3483
11
157.055
21
-93.2439
0
LINE
8
BLACK
6
CONTINUOUS
10
157.055
20
-93.2439
11
157.217
21
-93.1716
0
LINE
8
BLACK
6
CONTINUOUS
10
157.217
20
-93.1716
11
157.391
21
-93.1347
0
LINE
8
BLACK
6
CONTINUOUS
10
157.391
20
-93.1347
11
157.569
21
-93.1347
0
LINE
8
BLACK
6
CONTINUOUS
10
157.569
20
-93.1347
11
157.743
21
-93.1716
0
LINE
8
BLACK
6
CONTINUOUS
10
137.423
20
-93.1716
11
137.585
21
-93.2439
0
LINE
8
BLACK
6
CONTINUOUS
10
137.585
20
-93.2439
11
137.729
21
-93.3483
0
LINE
8
BLACK
6
CONTINUOUS
10
137.729
20
-93.3483
11
137.848
21
-93.4804
0
LINE
8
BLACK
6
CONTINUOUS
10
137.848
20
-93.4804
11
137.937
21
-93.6343
0
LINE
8
BLACK
6
CONTINUOUS
10
137.937
20
-93.6343
11
137.991
21
-93.8033
0
LINE
8
BLACK
6
CONTINUOUS
10
137.991
20
-93.8033
11
138.01
21
-93.98
0
LINE
8
BLACK
6
CONTINUOUS
10
138.01
20
-93.98
11
137.991
21
-94.1567
0
LINE
8
BLACK
6
CONTINUOUS
10
137.991
20
-94.1567
11
137.937
21
-94.3257
0
LINE
8
BLACK
6
CONTINUOUS
10
137.937
20
-94.3257
11
137.848
21
-94.4796
0
LINE
8
BLACK
6
CONTINUOUS
10
137.848
20
-94.4796
11
137.729
21
-94.6117
0
LINE
8
BLACK
6
CONTINUOUS
10
137.729
20
-94.6117
11
137.585
21
-94.7161
0
LINE
8
BLACK
6
CONTINUOUS
10
137.585
20
-94.7161
11
137.423
21
-94.7884
0
LINE
8
BLACK
6
CONTINUOUS
10
137.423
20
-94.7884
11
137.249
21
-94.8253
0
LINE
8
BLACK
6
CONTINUOUS
10
137.249
20
-94.8253
11
137.071
21
-94.8253
0
LINE
8
BLACK
6
CONTINUOUS
10
137.071
20
-94.8253
11
136.897
21
-94.7884
0
LINE
8
BLACK
6
CONTINUOUS
10
136.897
20
-94.7884
11
136.735
21
-94.7161
0
LINE
8
BLACK
6
CONTINUOUS
10
136.735
20
-94.7161
11
136.591
21
-94.6117
0
LINE
8
BLACK
6
CONTINUOUS
10
136.591
20
-94.6117
11
136.472
21
-94.4796
0
LINE
8
BLACK
6
CONTINUOUS
10
136.472
20
-94.4796
11
136.383
21
-94.3257
0
LINE
8
BLACK
6
CONTINUOUS
10
136.383
20
-94.3257
11
136.329
21
-94.1567
0
LINE
8
BLACK
6
CONTINUOUS
10
136.329
20
-94.1567
11
136.31
21
-93.98
0
LINE
8
BLACK
6
CONTINUOUS
10
136.31
20
-93.98
11
136.329
21
-93.8033
0
LINE
8
BLACK
6
CONTINUOUS
10
136.329
20
-93.8033
11
136.383
21
-93.6343
0
LINE
8
BLACK
6
CONTINUOUS
10
136.383
20
-93.6343
11
136.472
21
-93.4804
0
LINE
8
BLACK
6
CONTINUOUS
10
136.472
20
-93.4804
11
136.591
21
-93.3483
0
LINE
8
BLACK
6
CONTINUOUS
10
136.591
20
-93.3483
11
136.735
21
-93.2439
0
LINE
8
BLACK
6
CONTINUOUS
10
136.735
20
-93.2439
11
136.897
21
-93.1716
0
LINE
8
BLACK
6
CONTINUOUS
10
136.897
20
-93.1716
11
137.071
21
-93.1347
0
LINE
8
BLACK
6
CONTINUOUS
10
137.071
20
-93.1347
11
137.249
21
-93.1347
0
LINE
8
BLACK
6
CONTINUOUS
10
137.249
20
-93.1347
11
137.423
21
-93.1716
0
LINE
8
BLACK
6
CONTINUOUS
10
139.963
20
-93.1716
11
140.125
21
-93.2439
0
LINE
8
BLACK
6
CONTINUOUS
10
140.125
20
-93.2439
11
140.269
21
-93.3483
0
LINE
8
BLACK
6
CONTINUOUS
10
140.269
20
-93.3483
11
140.388
21
-93.4804
0
LINE
8
BLACK
6
CONTINUOUS
10
140.388
20
-93.4804
11
140.477
21
-93.6343
0
LINE
8
BLACK
6
CONTINUOUS
10
140.477
20
-93.6343
11
140.531
21
-93.8033
0
LINE
8
BLACK
6
CONTINUOUS
10
140.531
20
-93.8033
11
140.55
21
-93.98
0
LINE
8
BLACK
6
CONTINUOUS
10
140.55
20
-93.98
11
140.531
21
-94.1567
0
LINE
8
BLACK
6
CONTINUOUS
10
140.531
20
-94.1567
11
140.477
21
-94.3257
0
LINE
8
BLACK
6
CONTINUOUS
10
140.477
20
-94.3257
11
140.388
21
-94.4796
0
LINE
8
BLACK
6
CONTINUOUS
10
140.388
20
-94.4796
11
140.269
21
-94.6117
0
LINE
8
BLACK
6
CONTINUOUS
10
140.269
20
-94.6117
11
140.125
21
-94.7161
0
LINE
8
BLACK
6
CONTINUOUS
10
140.125
20
-94.7161
11
139.963
21
-94.7884
0
LINE
8
BLACK
6
CONTINUOUS
10
139.963
20
-94.7884
11
139.789
21
-94.8253
0
LINE
8
BLACK
6
CONTINUOUS
10
139.789
20
-94.8253
11
139.611
21
-94.8253
0
LINE
8
BLACK
6
CONTINUOUS
10
139.611
20
-94.8253
11
139.437
21
-94.7884
0
LINE
8
BLACK
6
CONTINUOUS
10
139.437
20
-94.7884
11
139.275
21
-94.7161
0
LINE
8
BLACK
6
CONTINUOUS
10
139.275
20
-94.7161
11
139.131
21
-94.6117
0
LINE
8
BLACK
6
CONTINUOUS
10
139.131
20
-94.6117
11
139.012
21
-94.4796
0
LINE
8
BLACK
6
CONTINUOUS
10
139.012
20
-94.4796
11
138.923
21
-94.3257
0
LINE
8
BLACK
6
CONTINUOUS
10
138.923
20
-94.3257
11
138.869
21
-94.1567
0
LINE
8
BLACK
6
CONTINUOUS
10
138.869
20
-94.1567
11
138.85
21
-93.98
0
LINE
8
BLACK
6
CONTINUOUS
10
138.85
20
-93.98
11
138.869
21
-93.8033
0
LINE
8
BLACK
6
CONTINUOUS
10
138.869
20
-93.8033
11
138.923
21
-93.6343
0
LINE
8
BLACK
6
CONTINUOUS
10
138.923
20
-93.6343
11
139.012
21
-93.4804
0
LINE
8
BLACK
6
CONTINUOUS
10
139.012
20
-93.4804
11
139.131
21
-93.3483
0
LINE
8
BLACK
6
CONTINUOUS
10
139.131
20
-93.3483
11
139.275
21
-93.2439
0
LINE
8
BLACK
6
CONTINUOUS
10
139.275
20
-93.2439
11
139.437
21
-93.1716
0
LINE
8
BLACK
6
CONTINUOUS
10
139.437
20
-93.1716
11
139.611
21
-93.1347
0
LINE
8
BLACK
6
CONTINUOUS
10
139.611
20
-93.1347
11
139.789
21
-93.1347
0
LINE
8
BLACK
6
CONTINUOUS
10
139.789
20
-93.1347
11
139.963
21
-93.1716
0
LINE
8
BLACK
6
CONTINUOUS
10
142.503
20
-93.1716
11
142.665
21
-93.2439
0
LINE
8
BLACK
6
CONTINUOUS
10
142.665
20
-93.2439
11
142.809
21
-93.3483
0
LINE
8
BLACK
6
CONTINUOUS
10
142.809
20
-93.3483
11
142.928
21
-93.4804
0
LINE
8
BLACK
6
CONTINUOUS
10
142.928
20
-93.4804
11
143.017
21
-93.6343
0
LINE
8
BLACK
6
CONTINUOUS
10
143.017
20
-93.6343
11
143.071
21
-93.8033
0
LINE
8
BLACK
6
CONTINUOUS
10
143.071
20
-93.8033
11
143.09
21
-93.98
0
LINE
8
BLACK
6
CONTINUOUS
10
143.09
20
-93.98
11
143.071
21
-94.1567
0
LINE
8
BLACK
6
CONTINUOUS
10
143.071
20
-94.1567
11
143.017
21
-94.3257
0
LINE
8
BLACK
6
CONTINUOUS
10
143.017
20
-94.3257
11
142.928
21
-94.4796
0
LINE
8
BLACK
6
CONTINUOUS
10
142.928
20
-94.4796
11
142.809
21
-94.6117
0
LINE
8
BLACK
6
CONTINUOUS
10
142.809
20
-94.6117
11
142.665
21
-94.7161
0
LINE
8
BLACK
6
CONTINUOUS
10
142.665
20
-94.7161
11
142.503
21
-94.7884
0
LINE
8
BLACK
6
CONTINUOUS
10
142.503
20
-94.7884
11
142.329
21
-94.8253
0
LINE
8
BLACK
6
CONTINUOUS
10
142.329
20
-94.8253
11
142.151
21
-94.8253
0
LINE
8
BLACK
6
CONTINUOUS
10
142.151
20
-94.8253
11
141.977
21
-94.7884
0
LINE
8
BLACK
6
CONTINUOUS
10
141.977
20
-94.7884
11
141.815
21
-94.7161
0
LINE
8
BLACK
6
CONTINUOUS
10
141.815
20
-94.7161
11
141.671
21
-94.6117
0
LINE
8
BLACK
6
CONTINUOUS
10
141.671
20
-94.6117
11
141.552
21
-94.4796
0
LINE
8
BLACK
6
CONTINUOUS
10
141.552
20
-94.4796
11
141.463
21
-94.3257
0
LINE
8
BLACK
6
CONTINUOUS
10
141.463
20
-94.3257
11
141.409
21
-94.1567
0
LINE
8
BLACK
6
CONTINUOUS
10
141.409
20
-94.1567
11
141.39
21
-93.98
0
LINE
8
BLACK
6
CONTINUOUS
10
141.39
20
-93.98
11
141.409
21
-93.8033
0
LINE
8
BLACK
6
CONTINUOUS
10
141.409
20
-93.8033
11
141.463
21
-93.6343
0
LINE
8
BLACK
6
CONTINUOUS
10
141.463
20
-93.6343
11
141.552
21
-93.4804
0
LINE
8
BLACK
6
CONTINUOUS
10
141.552
20
-93.4804
11
141.671
21
-93.3483
0
LINE
8
BLACK
6
CONTINUOUS
10
141.671
20
-93.3483
11
141.815
21
-93.2439
0
LINE
8
BLACK
6
CONTINUOUS
10
141.815
20
-93.2439
11
141.977
21
-93.1716
0
LINE
8
BLACK
6
CONTINUOUS
10
141.977
20
-93.1716
11
142.151
21
-93.1347
0
LINE
8
BLACK
6
CONTINUOUS
10
142.151
20
-93.1347
11
142.329
21
-93.1347
0
LINE
8
BLACK
6
CONTINUOUS
10
142.329
20
-93.1347
11
142.503
21
-93.1716
0
LINE
8
BLACK
6
CONTINUOUS
10
155.203
20
-93.1716
11
155.365
21
-93.2439
0
LINE
8
BLACK
6
CONTINUOUS
10
155.365
20
-93.2439
11
155.509
21
-93.3483
0
LINE
8
BLACK
6
CONTINUOUS
10
155.509
20
-93.3483
11
155.628
21
-93.4804
0
LINE
8
BLACK
6
CONTINUOUS
10
155.628
20
-93.4804
11
155.717
21
-93.6343
0
LINE
8
BLACK
6
CONTINUOUS
10
155.717
20
-93.6343
11
155.771
21
-93.8033
0
LINE
8
BLACK
6
CONTINUOUS
10
155.771
20
-93.8033
11
155.79
21
-93.98
0
LINE
8
BLACK
6
CONTINUOUS
10
155.79
20
-93.98
11
155.771
21
-94.1567
0
LINE
8
BLACK
6
CONTINUOUS
10
155.771
20
-94.1567
11
155.717
21
-94.3257
0
LINE
8
BLACK
6
CONTINUOUS
10
155.717
20
-94.3257
11
155.628
21
-94.4796
0
LINE
8
BLACK
6
CONTINUOUS
10
155.628
20
-94.4796
11
155.509
21
-94.6117
0
LINE
8
BLACK
6
CONTINUOUS
10
155.509
20
-94.6117
11
155.365
21
-94.7161
0
LINE
8
BLACK
6
CONTINUOUS
10
155.365
20
-94.7161
11
155.203
21
-94.7884
0
LINE
8
BLACK
6
CONTINUOUS
10
155.203
20
-94.7884
11
155.029
21
-94.8253
0
LINE
8
BLACK
6
CONTINUOUS
10
155.029
20
-94.8253
11
154.851
21
-94.8253
0
LINE
8
BLACK
6
CONTINUOUS
10
154.851
20
-94.8253
11
154.677
21
-94.7884
0
LINE
8
BLACK
6
CONTINUOUS
10
154.677
20
-94.7884
11
154.515
21
-94.7161
0
LINE
8
BLACK
6
CONTINUOUS
10
154.515
20
-94.7161
11
154.371
21
-94.6117
0
LINE
8
BLACK
6
CONTINUOUS
10
154.371
20
-94.6117
11
154.252
21
-94.4796
0
LINE
8
BLACK
6
CONTINUOUS
10
154.252
20
-94.4796
11
154.163
21
-94.3257
0
LINE
8
BLACK
6
CONTINUOUS
10
154.163
20
-94.3257
11
154.109
21
-94.1567
0
LINE
8
BLACK
6
CONTINUOUS
10
154.109
20
-94.1567
11
154.09
21
-93.98
0
LINE
8
BLACK
6
CONTINUOUS
10
154.09
20
-93.98
11
154.109
21
-93.8033
0
LINE
8
BLACK
6
CONTINUOUS
10
154.109
20
-93.8033
11
154.163
21
-93.6343
0
LINE
8
BLACK
6
CONTINUOUS
10
154.163
20
-93.6343
11
154.252
21
-93.4804
0
LINE
8
BLACK
6
CONTINUOUS
10
154.252
20
-93.4804
11
154.371
21
-93.3483
0
LINE
8
BLACK
6
CONTINUOUS
10
154.371
20
-93.3483
11
154.515
21
-93.2439
0
LINE
8
BLACK
6
CONTINUOUS
10
154.515
20
-93.2439
11
154.677
21
-93.1716
0
LINE
8
BLACK
6
CONTINUOUS
10
154.677
20
-93.1716
11
154.851
21
-93.1347
0
LINE
8
BLACK
6
CONTINUOUS
10
154.851
20
-93.1347
11
155.029
21
-93.1347
0
LINE
8
BLACK
6
CONTINUOUS
10
155.029
20
-93.1347
11
155.203
21
-93.1716
0
LINE
8
BLACK
6
CONTINUOUS
10
152.663
20
-93.1716
11
152.825
21
-93.2439
0
LINE
8
BLACK
6
CONTINUOUS
10
152.825
20
-93.2439
11
152.969
21
-93.3483
0
LINE
8
BLACK
6
CONTINUOUS
10
152.969
20
-93.3483
11
153.088
21
-93.4804
0
LINE
8
BLACK
6
CONTINUOUS
10
153.088
20
-93.4804
11
153.177
21
-93.6343
0
LINE
8
BLACK
6
CONTINUOUS
10
153.177
20
-93.6343
11
153.231
21
-93.8033
0
LINE
8
BLACK
6
CONTINUOUS
10
153.231
20
-93.8033
11
153.25
21
-93.98
0
LINE
8
BLACK
6
CONTINUOUS
10
153.25
20
-93.98
11
153.231
21
-94.1567
0
LINE
8
BLACK
6
CONTINUOUS
10
153.231
20
-94.1567
11
153.177
21
-94.3257
0
LINE
8
BLACK
6
CONTINUOUS
10
153.177
20
-94.3257
11
153.088
21
-94.4796
0
LINE
8
BLACK
6
CONTINUOUS
10
153.088
20
-94.4796
11
152.969
21
-94.6117
0
LINE
8
BLACK
6
CONTINUOUS
10
152.969
20
-94.6117
11
152.825
21
-94.7161
0
LINE
8
BLACK
6
CONTINUOUS
10
152.825
20
-94.7161
11
152.663
21
-94.7884
0
LINE
8
BLACK
6
CONTINUOUS
10
152.663
20
-94.7884
11
152.489
21
-94.8253
0
LINE
8
BLACK
6
CONTINUOUS
10
152.489
20
-94.8253
11
152.311
21
-94.8253
0
LINE
8
BLACK
6
CONTINUOUS
10
152.311
20
-94.8253
11
152.137
21
-94.7884
0
LINE
8
BLACK
6
CONTINUOUS
10
152.137
20
-94.7884
11
151.975
21
-94.7161
0
LINE
8
BLACK
6
CONTINUOUS
10
151.975
20
-94.7161
11
151.831
21
-94.6117
0
LINE
8
BLACK
6
CONTINUOUS
10
151.831
20
-94.6117
11
151.712
21
-94.4796
0
LINE
8
BLACK
6
CONTINUOUS
10
151.712
20
-94.4796
11
151.623
21
-94.3257
0
LINE
8
BLACK
6
CONTINUOUS
10
151.623
20
-94.3257
11
151.569
21
-94.1567
0
LINE
8
BLACK
6
CONTINUOUS
10
151.569
20
-94.1567
11
151.55
21
-93.98
0
LINE
8
BLACK
6
CONTINUOUS
10
151.55
20
-93.98
11
151.569
21
-93.8033
0
LINE
8
BLACK
6
CONTINUOUS
10
151.569
20
-93.8033
11
151.623
21
-93.6343
0
LINE
8
BLACK
6
CONTINUOUS
10
151.623
20
-93.6343
11
151.712
21
-93.4804
0
LINE
8
BLACK
6
CONTINUOUS
10
151.712
20
-93.4804
11
151.831
21
-93.3483
0
LINE
8
BLACK
6
CONTINUOUS
10
151.831
20
-93.3483
11
151.975
21
-93.2439
0
LINE
8
BLACK
6
CONTINUOUS
10
151.975
20
-93.2439
11
152.137
21
-93.1716
0
LINE
8
BLACK
6
CONTINUOUS
10
152.137
20
-93.1716
11
152.311
21
-93.1347
0
LINE
8
BLACK
6
CONTINUOUS
10
152.311
20
-93.1347
11
152.489
21
-93.1347
0
LINE
8
BLACK
6
CONTINUOUS
10
152.489
20
-93.1347
11
152.663
21
-93.1716
0
LINE
8
BLACK
6
CONTINUOUS
10
147.788
20
-93.274
11
147.869
21
-93.3282
0
LINE
8
BLACK
6
CONTINUOUS
10
147.869
20
-93.3282
11
147.923
21
-93.4093
0
LINE
8
BLACK
6
CONTINUOUS
10
147.923
20
-93.4093
11
147.942
21
-93.505
0
LINE
8
BLACK
6
CONTINUOUS
10
147.942
20
-93.505
11
147.942
21
-94.455
0
LINE
8
BLACK
6
CONTINUOUS
10
147.942
20
-94.455
11
147.923
21
-94.5507
0
LINE
8
BLACK
6
CONTINUOUS
10
147.923
20
-94.5507
11
147.869
21
-94.6318
0
LINE
8
BLACK
6
CONTINUOUS
10
147.869
20
-94.6318
11
147.788
21
-94.686
0
LINE
8
BLACK
6
CONTINUOUS
10
147.788
20
-94.686
11
147.692
21
-94.705
0
LINE
8
BLACK
6
CONTINUOUS
10
147.692
20
-94.705
11
147.192
21
-94.705
0
LINE
8
BLACK
6
CONTINUOUS
10
147.192
20
-94.705
11
147.096
21
-94.686
0
LINE
8
BLACK
6
CONTINUOUS
10
147.096
20
-94.686
11
147.015
21
-94.6318
0
LINE
8
BLACK
6
CONTINUOUS
10
147.015
20
-94.6318
11
146.961
21
-94.5507
0
LINE
8
BLACK
6
CONTINUOUS
10
146.961
20
-94.5507
11
146.942
21
-94.455
0
LINE
8
BLACK
6
CONTINUOUS
10
146.942
20
-94.455
11
146.942
21
-93.505
0
LINE
8
BLACK
6
CONTINUOUS
10
146.942
20
-93.505
11
146.961
21
-93.4093
0
LINE
8
BLACK
6
CONTINUOUS
10
146.961
20
-93.4093
11
147.015
21
-93.3282
0
LINE
8
BLACK
6
CONTINUOUS
10
147.015
20
-93.3282
11
147.096
21
-93.274
0
LINE
8
BLACK
6
CONTINUOUS
10
147.096
20
-93.274
11
147.192
21
-93.255
0
LINE
8
BLACK
6
CONTINUOUS
10
147.192
20
-93.255
11
147.692
21
-93.255
0
LINE
8
BLACK
6
CONTINUOUS
10
147.692
20
-93.255
11
147.788
21
-93.274
0
LINE
8
BLACK
6
CONTINUOUS
10
145.888
20
-93.274
11
145.969
21
-93.3282
0
LINE
8
BLACK
6
CONTINUOUS
10
145.969
20
-93.3282
11
146.023
21
-93.4093
0
LINE
8
BLACK
6
CONTINUOUS
10
146.023
20
-93.4093
11
146.042
21
-93.505
0
LINE
8
BLACK
6
CONTINUOUS
10
146.042
20
-93.505
11
146.042
21
-94.455
0
LINE
8
BLACK
6
CONTINUOUS
10
146.042
20
-94.455
11
146.023
21
-94.5507
0
LINE
8
BLACK
6
CONTINUOUS
10
146.023
20
-94.5507
11
145.969
21
-94.6318
0
LINE
8
BLACK
6
CONTINUOUS
10
145.969
20
-94.6318
11
145.888
21
-94.686
0
LINE
8
BLACK
6
CONTINUOUS
10
145.888
20
-94.686
11
145.792
21
-94.705
0
LINE
8
BLACK
6
CONTINUOUS
10
145.792
20
-94.705
11
145.292
21
-94.705
0
LINE
8
BLACK
6
CONTINUOUS
10
145.292
20
-94.705
11
145.196
21
-94.686
0
LINE
8
BLACK
6
CONTINUOUS
10
145.196
20
-94.686
11
145.115
21
-94.6318
0
LINE
8
BLACK
6
CONTINUOUS
10
145.115
20
-94.6318
11
145.061
21
-94.5507
0
LINE
8
BLACK
6
CONTINUOUS
10
145.061
20
-94.5507
11
145.042
21
-94.455
0
LINE
8
BLACK
6
CONTINUOUS
10
145.042
20
-94.455
11
145.042
21
-93.505
0
LINE
8
BLACK
6
CONTINUOUS
10
145.042
20
-93.505
11
145.061
21
-93.4093
0
LINE
8
BLACK
6
CONTINUOUS
10
145.061
20
-93.4093
11
145.115
21
-93.3282
0
LINE
8
BLACK
6
CONTINUOUS
10
145.115
20
-93.3282
11
145.196
21
-93.274
0
LINE
8
BLACK
6
CONTINUOUS
10
145.196
20
-93.274
11
145.292
21
-93.255
0
LINE
8
BLACK
6
CONTINUOUS
10
145.292
20
-93.255
11
145.792
21
-93.255
0
LINE
8
BLACK
6
CONTINUOUS
10
145.792
20
-93.255
11
145.888
21
-93.274
  0
ENDSEC
  0
EOF
