  0
SECTION
  2
HEADER
  9
$ANGBASE
  50
0.0
  9
$ANGDIR
  70
1
  9
$MEASUREMENT
  70
1
  0
ENDSEC
  0
SECTION
  2
TABLES
  0
TABLE
  2
LTYPE
  70
4
  0
LTYPE
  5
40F
  2
CONTINUOUS
  70
0
  3
Solid line
  72
65
  73
0
  40
0.0
  0
LTYPE
  5
410
  2
DASHDOT
 70
0
  3
Dash Dot ____ _ ____ _
 72
65
 73
4
 40
2.0
 49
1.25
 49
-0.25
 49
0.25
 49
-0.25
  0
LTYPE
  5
411
  2
DASHED
 70
0
  3
Dashed __ __ __ __ __
 72
65
 73
2
 40
0.75
 49
0.5
 49
-0.25
  0
LTYPE
  5
43B
  2
DOTTED
 70
0
  3
Dotted .  .  .  .
 72
65
 73
2
 40
0.2
 49
0.0
 49
-0.2
  0
ENDTAB
  0
TABLE
  2
STYLE
  70
4
  0
STYLE
  2
KICAD
  70
0
  40
0
  41
1
  42
1
  50
0
  71
0
  3
isocp.shx
  0
STYLE
  2
KICADB
  70
0
  40
0
  41
1
  42
1
  50
0
  71
0
  3
isocp.shx
  0
STYLE
  2
KICADI
  70
0
  40
0
  41
1
  42
1
  50
15
  71
0
  3
isocp.shx
  0
STYLE
  2
KICADBI
  70
0
  40
0
  41
1
  42
1
  50
15
  71
0
  3
isocp.shx
  0
ENDTAB
  0
TABLE
  2
LAYER
  70
1
  0
LAYER
  2
BLACK
  70
0
  62
7
  6
CONTINUOUS
  0
ENDTAB
  0
ENDSEC
  0
SECTION
  2
ENTITIES
0
LINE
8
BLACK
6
CONTINUOUS
10
135.47
20
-94.83
11
134.923
21
-94.83
0
LINE
8
BLACK
6
CONTINUOUS
10
134.923
20
-94.83
11
134.923
21
-96.3537
0
LINE
8
BLACK
6
CONTINUOUS
10
134.923
20
-96.3537
11
134.94
21
-96.3649
0
LINE
8
BLACK
6
CONTINUOUS
10
134.94
20
-96.3649
11
134.989
21
-96.4379
0
LINE
8
BLACK
6
CONTINUOUS
10
134.989
20
-96.4379
11
135.006
21
-96.524
0
LINE
8
BLACK
6
CONTINUOUS
10
135.006
20
-96.524
11
135.006
21
-97.024
0
LINE
8
BLACK
6
CONTINUOUS
10
135.006
20
-97.024
11
134.989
21
-97.1101
0
LINE
8
BLACK
6
CONTINUOUS
10
134.989
20
-97.1101
11
134.94
21
-97.1831
0
LINE
8
BLACK
6
CONTINUOUS
10
134.94
20
-97.1831
11
134.923
21
-97.1943
0
LINE
8
BLACK
6
CONTINUOUS
10
134.923
20
-97.1943
11
134.923
21
-99.7784
0
LINE
8
BLACK
6
CONTINUOUS
10
134.923
20
-99.7784
11
134.947
21
-99.7941
0
LINE
8
BLACK
6
CONTINUOUS
10
134.947
20
-99.7941
11
134.994
21
-99.865
0
LINE
8
BLACK
6
CONTINUOUS
10
134.994
20
-99.865
11
135.011
21
-99.9487
0
LINE
8
BLACK
6
CONTINUOUS
10
135.011
20
-99.9487
11
135.011
21
-100.318
0
LINE
8
BLACK
6
CONTINUOUS
10
135.011
20
-100.318
11
135.017
21
-100.329
0
LINE
8
BLACK
6
CONTINUOUS
10
135.017
20
-100.329
11
135.018
21
-100.337
0
LINE
8
BLACK
6
CONTINUOUS
10
135.018
20
-100.337
11
135.022
21
-100.345
0
LINE
8
BLACK
6
CONTINUOUS
10
135.022
20
-100.345
11
135.028
21
-100.394
0
LINE
8
BLACK
6
CONTINUOUS
10
135.028
20
-100.394
11
135.036
21
-100.442
0
LINE
8
BLACK
6
CONTINUOUS
10
135.036
20
-100.442
11
135.036
21
-103.183
0
LINE
8
BLACK
6
CONTINUOUS
10
135.036
20
-103.183
11
135.113
21
-103.234
0
LINE
8
BLACK
6
CONTINUOUS
10
135.113
20
-103.234
11
135.167
21
-103.315
0
LINE
8
BLACK
6
CONTINUOUS
10
135.167
20
-103.315
11
135.186
21
-103.411
0
LINE
8
BLACK
6
CONTINUOUS
10
135.186
20
-103.411
11
135.186
21
-104.361
0
LINE
8
BLACK
6
CONTINUOUS
10
135.186
20
-104.361
11
135.167
21
-104.457
0
LINE
8
BLACK
6
CONTINUOUS
10
135.167
20
-104.457
11
135.113
21
-104.538
0
LINE
8
BLACK
6
CONTINUOUS
10
135.113
20
-104.538
11
135.032
21
-104.592
0
LINE
8
BLACK
6
CONTINUOUS
10
135.032
20
-104.592
11
134.97
21
-104.604
0
LINE
8
BLACK
6
CONTINUOUS
10
134.97
20
-104.604
11
134.97
21
-105.83
0
LINE
8
BLACK
6
CONTINUOUS
10
134.97
20
-105.83
11
135.47
21
-105.83
0
LINE
8
BLACK
6
CONTINUOUS
10
135.47
20
-105.83
11
135.47
21
-107.53
0
LINE
8
BLACK
6
CONTINUOUS
10
135.47
20
-107.53
11
133.77
21
-107.53
0
LINE
8
BLACK
6
CONTINUOUS
10
133.77
20
-107.53
11
133.77
21
-105.83
0
LINE
8
BLACK
6
CONTINUOUS
10
133.77
20
-105.83
11
134.27
21
-105.83
0
LINE
8
BLACK
6
CONTINUOUS
10
134.27
20
-105.83
11
134.27
21
-104.545
0
LINE
8
BLACK
6
CONTINUOUS
10
134.27
20
-104.545
11
134.259
21
-104.538
0
LINE
8
BLACK
6
CONTINUOUS
10
134.259
20
-104.538
11
134.205
21
-104.457
0
LINE
8
BLACK
6
CONTINUOUS
10
134.205
20
-104.457
11
134.186
21
-104.361
0
LINE
8
BLACK
6
CONTINUOUS
10
134.186
20
-104.361
11
134.186
21
-103.411
0
LINE
8
BLACK
6
CONTINUOUS
10
134.186
20
-103.411
11
134.205
21
-103.315
0
LINE
8
BLACK
6
CONTINUOUS
10
134.205
20
-103.315
11
134.259
21
-103.234
0
LINE
8
BLACK
6
CONTINUOUS
10
134.259
20
-103.234
11
134.336
21
-103.183
0
LINE
8
BLACK
6
CONTINUOUS
10
134.336
20
-103.183
11
134.336
21
-100.926
0
LINE
8
BLACK
6
CONTINUOUS
10
134.336
20
-100.926
11
134.271
21
-100.913
0
LINE
8
BLACK
6
CONTINUOUS
10
134.271
20
-100.913
11
134.2
21
-100.866
0
LINE
8
BLACK
6
CONTINUOUS
10
134.2
20
-100.866
11
134.153
21
-100.795
0
LINE
8
BLACK
6
CONTINUOUS
10
134.153
20
-100.795
11
134.136
21
-100.711
0
LINE
8
BLACK
6
CONTINUOUS
10
134.136
20
-100.711
11
134.136
21
-99.9487
0
LINE
8
BLACK
6
CONTINUOUS
10
134.136
20
-99.9487
11
134.153
21
-99.865
0
LINE
8
BLACK
6
CONTINUOUS
10
134.153
20
-99.865
11
134.2
21
-99.7941
0
LINE
8
BLACK
6
CONTINUOUS
10
134.2
20
-99.7941
11
134.224
21
-99.7784
0
LINE
8
BLACK
6
CONTINUOUS
10
134.224
20
-99.7784
11
134.224
21
-97.2174
0
LINE
8
BLACK
6
CONTINUOUS
10
134.224
20
-97.2174
11
134.172
21
-97.1831
0
LINE
8
BLACK
6
CONTINUOUS
10
134.172
20
-97.1831
11
134.123
21
-97.1101
0
LINE
8
BLACK
6
CONTINUOUS
10
134.123
20
-97.1101
11
134.106
21
-97.024
0
LINE
8
BLACK
6
CONTINUOUS
10
134.106
20
-97.024
11
134.106
21
-96.524
0
LINE
8
BLACK
6
CONTINUOUS
10
134.106
20
-96.524
11
134.123
21
-96.4379
0
LINE
8
BLACK
6
CONTINUOUS
10
134.123
20
-96.4379
11
134.172
21
-96.3649
0
LINE
8
BLACK
6
CONTINUOUS
10
134.172
20
-96.3649
11
134.224
21
-96.3306
0
LINE
8
BLACK
6
CONTINUOUS
10
134.224
20
-96.3306
11
134.224
21
-94.83
0
LINE
8
BLACK
6
CONTINUOUS
10
134.224
20
-94.83
11
133.77
21
-94.83
0
LINE
8
BLACK
6
CONTINUOUS
10
133.77
20
-94.83
11
133.77
21
-93.13
0
LINE
8
BLACK
6
CONTINUOUS
10
133.77
20
-93.13
11
135.47
21
-93.13
0
LINE
8
BLACK
6
CONTINUOUS
10
135.47
20
-93.13
11
135.47
21
-94.83
0
LINE
8
BLACK
6
CONTINUOUS
10
153.407
20
-98.7367
11
153.428
21
-98.7043
0
LINE
8
BLACK
6
CONTINUOUS
10
153.428
20
-98.7043
11
153.461
21
-98.6826
0
LINE
8
BLACK
6
CONTINUOUS
10
153.461
20
-98.6826
11
153.499
21
-98.675
0
LINE
8
BLACK
6
CONTINUOUS
10
153.499
20
-98.675
11
153.699
21
-98.675
0
LINE
8
BLACK
6
CONTINUOUS
10
153.699
20
-98.675
11
153.737
21
-98.6826
0
LINE
8
BLACK
6
CONTINUOUS
10
153.737
20
-98.6826
11
153.77
21
-98.7043
0
LINE
8
BLACK
6
CONTINUOUS
10
153.77
20
-98.7043
11
153.791
21
-98.7367
0
LINE
8
BLACK
6
CONTINUOUS
10
153.791
20
-98.7367
11
153.799
21
-98.775
0
LINE
8
BLACK
6
CONTINUOUS
10
153.799
20
-98.775
11
153.799
21
-100.274
0
LINE
8
BLACK
6
CONTINUOUS
10
153.799
20
-100.274
11
154.025
21
-100.5
0
LINE
8
BLACK
6
CONTINUOUS
10
154.025
20
-100.5
11
154.473
21
-100.5
0
LINE
8
BLACK
6
CONTINUOUS
10
154.473
20
-100.5
11
154.699
21
-100.274
0
LINE
8
BLACK
6
CONTINUOUS
10
154.699
20
-100.274
11
154.699
21
-98.775
0
LINE
8
BLACK
6
CONTINUOUS
10
154.699
20
-98.775
11
154.707
21
-98.7367
0
LINE
8
BLACK
6
CONTINUOUS
10
154.707
20
-98.7367
11
154.728
21
-98.7043
0
LINE
8
BLACK
6
CONTINUOUS
10
154.728
20
-98.7043
11
154.761
21
-98.6826
0
LINE
8
BLACK
6
CONTINUOUS
10
154.761
20
-98.6826
11
154.799
21
-98.675
0
LINE
8
BLACK
6
CONTINUOUS
10
154.799
20
-98.675
11
154.999
21
-98.675
0
LINE
8
BLACK
6
CONTINUOUS
10
154.999
20
-98.675
11
155.037
21
-98.6826
0
LINE
8
BLACK
6
CONTINUOUS
10
155.037
20
-98.6826
11
155.07
21
-98.7043
0
LINE
8
BLACK
6
CONTINUOUS
10
155.07
20
-98.7043
11
155.091
21
-98.7367
0
LINE
8
BLACK
6
CONTINUOUS
10
155.091
20
-98.7367
11
155.099
21
-98.775
0
LINE
8
BLACK
6
CONTINUOUS
10
155.099
20
-98.775
11
155.099
21
-99.2875
0
LINE
8
BLACK
6
CONTINUOUS
10
155.099
20
-99.2875
11
156.703
21
-99.2875
0
LINE
8
BLACK
6
CONTINUOUS
10
156.703
20
-99.2875
11
157.005
21
-98.9852
0
LINE
8
BLACK
6
CONTINUOUS
10
157.005
20
-98.9852
11
157.005
21
-98.568
0
LINE
8
BLACK
6
CONTINUOUS
10
157.005
20
-98.568
11
157.022
21
-98.4819
0
LINE
8
BLACK
6
CONTINUOUS
10
157.022
20
-98.4819
11
157.071
21
-98.4089
0
LINE
8
BLACK
6
CONTINUOUS
10
157.071
20
-98.4089
11
157.144
21
-98.3601
0
LINE
8
BLACK
6
CONTINUOUS
10
157.144
20
-98.3601
11
157.23
21
-98.343
0
LINE
8
BLACK
6
CONTINUOUS
10
157.23
20
-98.343
11
157.73
21
-98.343
0
LINE
8
BLACK
6
CONTINUOUS
10
157.73
20
-98.343
11
157.816
21
-98.3601
0
LINE
8
BLACK
6
CONTINUOUS
10
157.816
20
-98.3601
11
157.889
21
-98.4089
0
LINE
8
BLACK
6
CONTINUOUS
10
157.889
20
-98.4089
11
157.912
21
-98.443
0
LINE
8
BLACK
6
CONTINUOUS
10
157.912
20
-98.443
11
157.955
21
-98.443
0
LINE
8
BLACK
6
CONTINUOUS
10
157.955
20
-98.443
11
157.991
21
-98.4461
0
LINE
8
BLACK
6
CONTINUOUS
10
157.991
20
-98.4461
11
157.999
21
-98.4458
0
LINE
8
BLACK
6
CONTINUOUS
10
157.999
20
-98.4458
11
158.004
21
-98.4472
0
LINE
8
BLACK
6
CONTINUOUS
10
158.004
20
-98.4472
11
158.015
21
-98.4482
0
LINE
8
BLACK
6
CONTINUOUS
10
158.015
20
-98.4482
11
158.062
21
-98.4646
0
LINE
8
BLACK
6
CONTINUOUS
10
158.062
20
-98.4646
11
158.109
21
-98.4787
0
LINE
8
BLACK
6
CONTINUOUS
10
158.109
20
-98.4787
11
158.116
21
-98.4835
0
LINE
8
BLACK
6
CONTINUOUS
10
158.116
20
-98.4835
11
158.124
21
-98.4863
0
LINE
8
BLACK
6
CONTINUOUS
10
158.124
20
-98.4863
11
158.162
21
-98.5168
0
LINE
8
BLACK
6
CONTINUOUS
10
158.162
20
-98.5168
11
158.202
21
-98.5455
0
LINE
8
BLACK
6
CONTINUOUS
10
158.202
20
-98.5455
11
159.124
21
-99.4675
0
LINE
8
BLACK
6
CONTINUOUS
10
159.124
20
-99.4675
11
159.147
21
-99.4949
0
LINE
8
BLACK
6
CONTINUOUS
10
159.147
20
-99.4949
11
159.154
21
-99.5005
0
LINE
8
BLACK
6
CONTINUOUS
10
159.154
20
-99.5005
11
159.156
21
-99.505
0
LINE
8
BLACK
6
CONTINUOUS
10
159.156
20
-99.505
11
159.163
21
-99.5137
0
LINE
8
BLACK
6
CONTINUOUS
10
159.163
20
-99.5137
11
159.185
21
-99.5582
0
LINE
8
BLACK
6
CONTINUOUS
10
159.185
20
-99.5582
11
159.208
21
-99.6016
0
LINE
8
BLACK
6
CONTINUOUS
10
159.208
20
-99.6016
11
159.209
21
-99.6098
0
LINE
8
BLACK
6
CONTINUOUS
10
159.209
20
-99.6098
11
159.213
21
-99.6174
0
LINE
8
BLACK
6
CONTINUOUS
10
159.213
20
-99.6174
11
159.219
21
-99.6663
0
LINE
8
BLACK
6
CONTINUOUS
10
159.219
20
-99.6663
11
159.227
21
-99.715
0
LINE
8
BLACK
6
CONTINUOUS
10
159.227
20
-99.715
11
159.227
21
-105.283
0
LINE
8
BLACK
6
CONTINUOUS
10
159.227
20
-105.283
11
159.224
21
-105.319
0
LINE
8
BLACK
6
CONTINUOUS
10
159.224
20
-105.319
11
159.224
21
-105.327
0
LINE
8
BLACK
6
CONTINUOUS
10
159.224
20
-105.327
11
159.223
21
-105.332
0
LINE
8
BLACK
6
CONTINUOUS
10
159.223
20
-105.332
11
159.222
21
-105.343
0
LINE
8
BLACK
6
CONTINUOUS
10
159.222
20
-105.343
11
159.205
21
-105.39
0
LINE
8
BLACK
6
CONTINUOUS
10
159.205
20
-105.39
11
159.191
21
-105.437
0
LINE
8
BLACK
6
CONTINUOUS
10
159.191
20
-105.437
11
159.186
21
-105.444
0
LINE
8
BLACK
6
CONTINUOUS
10
159.186
20
-105.444
11
159.184
21
-105.452
0
LINE
8
BLACK
6
CONTINUOUS
10
159.184
20
-105.452
11
159.153
21
-105.49
0
LINE
8
BLACK
6
CONTINUOUS
10
159.153
20
-105.49
11
159.124
21
-105.53
0
LINE
8
BLACK
6
CONTINUOUS
10
159.124
20
-105.53
11
158.272
21
-106.383
0
LINE
8
BLACK
6
CONTINUOUS
10
158.272
20
-106.383
11
158.311
21
-106.503
0
LINE
8
BLACK
6
CONTINUOUS
10
158.311
20
-106.503
11
158.33
21
-106.68
0
LINE
8
BLACK
6
CONTINUOUS
10
158.33
20
-106.68
11
158.311
21
-106.857
0
LINE
8
BLACK
6
CONTINUOUS
10
158.311
20
-106.857
11
158.257
21
-107.026
0
LINE
8
BLACK
6
CONTINUOUS
10
158.257
20
-107.026
11
158.168
21
-107.18
0
LINE
8
BLACK
6
CONTINUOUS
10
158.168
20
-107.18
11
158.049
21
-107.312
0
LINE
8
BLACK
6
CONTINUOUS
10
158.049
20
-107.312
11
157.905
21
-107.416
0
LINE
8
BLACK
6
CONTINUOUS
10
157.905
20
-107.416
11
157.743
21
-107.488
0
LINE
8
BLACK
6
CONTINUOUS
10
157.743
20
-107.488
11
157.569
21
-107.525
0
LINE
8
BLACK
6
CONTINUOUS
10
157.569
20
-107.525
11
157.391
21
-107.525
0
LINE
8
BLACK
6
CONTINUOUS
10
157.391
20
-107.525
11
157.217
21
-107.488
0
LINE
8
BLACK
6
CONTINUOUS
10
157.217
20
-107.488
11
157.055
21
-107.416
0
LINE
8
BLACK
6
CONTINUOUS
10
157.055
20
-107.416
11
156.911
21
-107.312
0
LINE
8
BLACK
6
CONTINUOUS
10
156.911
20
-107.312
11
156.792
21
-107.18
0
LINE
8
BLACK
6
CONTINUOUS
10
156.792
20
-107.18
11
156.703
21
-107.026
0
LINE
8
BLACK
6
CONTINUOUS
10
156.703
20
-107.026
11
156.649
21
-106.857
0
LINE
8
BLACK
6
CONTINUOUS
10
156.649
20
-106.857
11
156.63
21
-106.68
0
LINE
8
BLACK
6
CONTINUOUS
10
156.63
20
-106.68
11
156.649
21
-106.503
0
LINE
8
BLACK
6
CONTINUOUS
10
156.649
20
-106.503
11
156.703
21
-106.334
0
LINE
8
BLACK
6
CONTINUOUS
10
156.703
20
-106.334
11
156.792
21
-106.18
0
LINE
8
BLACK
6
CONTINUOUS
10
156.792
20
-106.18
11
156.876
21
-106.087
0
LINE
8
BLACK
6
CONTINUOUS
10
156.876
20
-106.087
11
156.876
21
-104.828
0
LINE
8
BLACK
6
CONTINUOUS
10
156.876
20
-104.828
11
156.751
21
-104.828
0
LINE
8
BLACK
6
CONTINUOUS
10
156.751
20
-104.828
11
156.655
21
-104.809
0
LINE
8
BLACK
6
CONTINUOUS
10
156.655
20
-104.809
11
156.574
21
-104.755
0
LINE
8
BLACK
6
CONTINUOUS
10
156.574
20
-104.755
11
156.52
21
-104.674
0
LINE
8
BLACK
6
CONTINUOUS
10
156.52
20
-104.674
11
156.501
21
-104.578
0
LINE
8
BLACK
6
CONTINUOUS
10
156.501
20
-104.578
11
156.501
21
-104.078
0
LINE
8
BLACK
6
CONTINUOUS
10
156.501
20
-104.078
11
156.52
21
-103.982
0
LINE
8
BLACK
6
CONTINUOUS
10
156.52
20
-103.982
11
156.574
21
-103.901
0
LINE
8
BLACK
6
CONTINUOUS
10
156.574
20
-103.901
11
156.655
21
-103.847
0
LINE
8
BLACK
6
CONTINUOUS
10
156.655
20
-103.847
11
156.751
21
-103.828
0
LINE
8
BLACK
6
CONTINUOUS
10
156.751
20
-103.828
11
157.701
21
-103.828
0
LINE
8
BLACK
6
CONTINUOUS
10
157.701
20
-103.828
11
157.797
21
-103.847
0
LINE
8
BLACK
6
CONTINUOUS
10
157.797
20
-103.847
11
157.878
21
-103.901
0
LINE
8
BLACK
6
CONTINUOUS
10
157.878
20
-103.901
11
157.932
21
-103.982
0
LINE
8
BLACK
6
CONTINUOUS
10
157.932
20
-103.982
11
157.951
21
-104.078
0
LINE
8
BLACK
6
CONTINUOUS
10
157.951
20
-104.078
11
157.951
21
-104.578
0
LINE
8
BLACK
6
CONTINUOUS
10
157.951
20
-104.578
11
157.932
21
-104.674
0
LINE
8
BLACK
6
CONTINUOUS
10
157.932
20
-104.674
11
157.878
21
-104.755
0
LINE
8
BLACK
6
CONTINUOUS
10
157.878
20
-104.755
11
157.797
21
-104.809
0
LINE
8
BLACK
6
CONTINUOUS
10
157.797
20
-104.809
11
157.701
21
-104.828
0
LINE
8
BLACK
6
CONTINUOUS
10
157.701
20
-104.828
11
157.576
21
-104.828
0
LINE
8
BLACK
6
CONTINUOUS
10
157.576
20
-104.828
11
157.576
21
-105.836
0
LINE
8
BLACK
6
CONTINUOUS
10
157.576
20
-105.836
11
157.743
21
-105.872
0
LINE
8
BLACK
6
CONTINUOUS
10
157.743
20
-105.872
11
157.778
21
-105.887
0
LINE
8
BLACK
6
CONTINUOUS
10
157.778
20
-105.887
11
158.527
21
-105.138
0
LINE
8
BLACK
6
CONTINUOUS
10
158.527
20
-105.138
11
158.527
21
-99.86
0
LINE
8
BLACK
6
CONTINUOUS
10
158.527
20
-99.86
11
157.862
21
-99.1951
0
LINE
8
BLACK
6
CONTINUOUS
10
157.862
20
-99.1951
11
157.816
21
-99.2259
0
LINE
8
BLACK
6
CONTINUOUS
10
157.816
20
-99.2259
11
157.73
21
-99.243
0
LINE
8
BLACK
6
CONTINUOUS
10
157.73
20
-99.243
11
157.313
21
-99.243
0
LINE
8
BLACK
6
CONTINUOUS
10
157.313
20
-99.243
11
156.927
21
-99.6292
0
LINE
8
BLACK
6
CONTINUOUS
10
156.927
20
-99.6292
11
156.898
21
-99.6469
0
LINE
8
BLACK
6
CONTINUOUS
10
156.898
20
-99.6469
11
156.872
21
-99.6677
0
LINE
8
BLACK
6
CONTINUOUS
10
156.872
20
-99.6677
11
156.861
21
-99.6703
0
LINE
8
BLACK
6
CONTINUOUS
10
156.861
20
-99.6703
11
156.851
21
-99.6764
0
LINE
8
BLACK
6
CONTINUOUS
10
156.851
20
-99.6764
11
156.818
21
-99.6801
0
LINE
8
BLACK
6
CONTINUOUS
10
156.818
20
-99.6801
11
156.785
21
-99.6875
0
LINE
8
BLACK
6
CONTINUOUS
10
156.785
20
-99.6875
11
155.099
21
-99.6875
0
LINE
8
BLACK
6
CONTINUOUS
10
155.099
20
-99.6875
11
155.099
21
-100.357
0
LINE
8
BLACK
6
CONTINUOUS
10
155.099
20
-100.357
11
155.092
21
-100.39
0
LINE
8
BLACK
6
CONTINUOUS
10
155.092
20
-100.39
11
155.088
21
-100.423
0
LINE
8
BLACK
6
CONTINUOUS
10
155.088
20
-100.423
11
155.082
21
-100.433
0
LINE
8
BLACK
6
CONTINUOUS
10
155.082
20
-100.433
11
155.079
21
-100.444
0
LINE
8
BLACK
6
CONTINUOUS
10
155.079
20
-100.444
11
155.058
21
-100.47
0
LINE
8
BLACK
6
CONTINUOUS
10
155.058
20
-100.47
11
155.04
21
-100.499
0
LINE
8
BLACK
6
CONTINUOUS
10
155.04
20
-100.499
11
154.697
21
-100.842
0
LINE
8
BLACK
6
CONTINUOUS
10
154.697
20
-100.842
11
154.669
21
-100.859
0
LINE
8
BLACK
6
CONTINUOUS
10
154.669
20
-100.859
11
154.643
21
-100.88
0
LINE
8
BLACK
6
CONTINUOUS
10
154.643
20
-100.88
11
154.632
21
-100.883
0
LINE
8
BLACK
6
CONTINUOUS
10
154.632
20
-100.883
11
154.622
21
-100.889
0
LINE
8
BLACK
6
CONTINUOUS
10
154.622
20
-100.889
11
154.589
21
-100.893
0
LINE
8
BLACK
6
CONTINUOUS
10
154.589
20
-100.893
11
154.556
21
-100.9
0
LINE
8
BLACK
6
CONTINUOUS
10
154.556
20
-100.9
11
153.942
21
-100.9
0
LINE
8
BLACK
6
CONTINUOUS
10
153.942
20
-100.9
11
153.909
21
-100.893
0
LINE
8
BLACK
6
CONTINUOUS
10
153.909
20
-100.893
11
153.876
21
-100.889
0
LINE
8
BLACK
6
CONTINUOUS
10
153.876
20
-100.889
11
153.866
21
-100.883
0
LINE
8
BLACK
6
CONTINUOUS
10
153.866
20
-100.883
11
153.855
21
-100.88
0
LINE
8
BLACK
6
CONTINUOUS
10
153.855
20
-100.88
11
153.829
21
-100.859
0
LINE
8
BLACK
6
CONTINUOUS
10
153.829
20
-100.859
11
153.8
21
-100.841
0
LINE
8
BLACK
6
CONTINUOUS
10
153.8
20
-100.841
11
153.457
21
-100.498
0
LINE
8
BLACK
6
CONTINUOUS
10
153.457
20
-100.498
11
153.44
21
-100.47
0
LINE
8
BLACK
6
CONTINUOUS
10
153.44
20
-100.47
11
153.419
21
-100.444
0
LINE
8
BLACK
6
CONTINUOUS
10
153.419
20
-100.444
11
153.416
21
-100.433
0
LINE
8
BLACK
6
CONTINUOUS
10
153.416
20
-100.433
11
153.41
21
-100.423
0
LINE
8
BLACK
6
CONTINUOUS
10
153.41
20
-100.423
11
153.406
21
-100.39
0
LINE
8
BLACK
6
CONTINUOUS
10
153.406
20
-100.39
11
153.399
21
-100.357
0
LINE
8
BLACK
6
CONTINUOUS
10
153.399
20
-100.357
11
153.399
21
-98.775
0
LINE
8
BLACK
6
CONTINUOUS
10
153.399
20
-98.775
11
153.407
21
-98.7367
0
LINE
8
BLACK
6
CONTINUOUS
10
137.423
20
-105.872
11
137.585
21
-105.944
0
LINE
8
BLACK
6
CONTINUOUS
10
137.585
20
-105.944
11
137.729
21
-106.048
0
LINE
8
BLACK
6
CONTINUOUS
10
137.729
20
-106.048
11
137.848
21
-106.18
0
LINE
8
BLACK
6
CONTINUOUS
10
137.848
20
-106.18
11
137.937
21
-106.334
0
LINE
8
BLACK
6
CONTINUOUS
10
137.937
20
-106.334
11
137.991
21
-106.503
0
LINE
8
BLACK
6
CONTINUOUS
10
137.991
20
-106.503
11
138.01
21
-106.68
0
LINE
8
BLACK
6
CONTINUOUS
10
138.01
20
-106.68
11
137.991
21
-106.857
0
LINE
8
BLACK
6
CONTINUOUS
10
137.991
20
-106.857
11
137.937
21
-107.026
0
LINE
8
BLACK
6
CONTINUOUS
10
137.937
20
-107.026
11
137.848
21
-107.18
0
LINE
8
BLACK
6
CONTINUOUS
10
137.848
20
-107.18
11
137.729
21
-107.312
0
LINE
8
BLACK
6
CONTINUOUS
10
137.729
20
-107.312
11
137.585
21
-107.416
0
LINE
8
BLACK
6
CONTINUOUS
10
137.585
20
-107.416
11
137.423
21
-107.488
0
LINE
8
BLACK
6
CONTINUOUS
10
137.423
20
-107.488
11
137.249
21
-107.525
0
LINE
8
BLACK
6
CONTINUOUS
10
137.249
20
-107.525
11
137.071
21
-107.525
0
LINE
8
BLACK
6
CONTINUOUS
10
137.071
20
-107.525
11
136.897
21
-107.488
0
LINE
8
BLACK
6
CONTINUOUS
10
136.897
20
-107.488
11
136.735
21
-107.416
0
LINE
8
BLACK
6
CONTINUOUS
10
136.735
20
-107.416
11
136.591
21
-107.312
0
LINE
8
BLACK
6
CONTINUOUS
10
136.591
20
-107.312
11
136.472
21
-107.18
0
LINE
8
BLACK
6
CONTINUOUS
10
136.472
20
-107.18
11
136.383
21
-107.026
0
LINE
8
BLACK
6
CONTINUOUS
10
136.383
20
-107.026
11
136.329
21
-106.857
0
LINE
8
BLACK
6
CONTINUOUS
10
136.329
20
-106.857
11
136.31
21
-106.68
0
LINE
8
BLACK
6
CONTINUOUS
10
136.31
20
-106.68
11
136.329
21
-106.503
0
LINE
8
BLACK
6
CONTINUOUS
10
136.329
20
-106.503
11
136.383
21
-106.334
0
LINE
8
BLACK
6
CONTINUOUS
10
136.383
20
-106.334
11
136.472
21
-106.18
0
LINE
8
BLACK
6
CONTINUOUS
10
136.472
20
-106.18
11
136.591
21
-106.048
0
LINE
8
BLACK
6
CONTINUOUS
10
136.591
20
-106.048
11
136.735
21
-105.944
0
LINE
8
BLACK
6
CONTINUOUS
10
136.735
20
-105.944
11
136.897
21
-105.872
0
LINE
8
BLACK
6
CONTINUOUS
10
136.897
20
-105.872
11
137.071
21
-105.835
0
LINE
8
BLACK
6
CONTINUOUS
10
137.071
20
-105.835
11
137.249
21
-105.835
0
LINE
8
BLACK
6
CONTINUOUS
10
137.249
20
-105.835
11
137.423
21
-105.872
0
LINE
8
BLACK
6
CONTINUOUS
10
136.932
20
-103.18
11
137.013
21
-103.234
0
LINE
8
BLACK
6
CONTINUOUS
10
137.013
20
-103.234
11
137.067
21
-103.315
0
LINE
8
BLACK
6
CONTINUOUS
10
137.067
20
-103.315
11
137.086
21
-103.411
0
LINE
8
BLACK
6
CONTINUOUS
10
137.086
20
-103.411
11
137.086
21
-103.536
0
LINE
8
BLACK
6
CONTINUOUS
10
137.086
20
-103.536
11
138.176
21
-103.536
0
LINE
8
BLACK
6
CONTINUOUS
10
138.176
20
-103.536
11
138.212
21
-103.539
0
LINE
8
BLACK
6
CONTINUOUS
10
138.212
20
-103.539
11
138.22
21
-103.539
0
LINE
8
BLACK
6
CONTINUOUS
10
138.22
20
-103.539
11
138.225
21
-103.54
0
LINE
8
BLACK
6
CONTINUOUS
10
138.225
20
-103.54
11
138.236
21
-103.541
0
LINE
8
BLACK
6
CONTINUOUS
10
138.236
20
-103.541
11
138.283
21
-103.558
0
LINE
8
BLACK
6
CONTINUOUS
10
138.283
20
-103.558
11
138.33
21
-103.572
0
LINE
8
BLACK
6
CONTINUOUS
10
138.33
20
-103.572
11
138.337
21
-103.577
0
LINE
8
BLACK
6
CONTINUOUS
10
138.337
20
-103.577
11
138.345
21
-103.579
0
LINE
8
BLACK
6
CONTINUOUS
10
138.345
20
-103.579
11
138.383
21
-103.61
0
LINE
8
BLACK
6
CONTINUOUS
10
138.383
20
-103.61
11
138.423
21
-103.639
0
LINE
8
BLACK
6
CONTINUOUS
10
138.423
20
-103.639
11
138.933
21
-104.148
0
LINE
8
BLACK
6
CONTINUOUS
10
138.933
20
-104.148
11
139.413
21
-104.148
0
LINE
8
BLACK
6
CONTINUOUS
10
139.413
20
-104.148
11
139.509
21
-104.167
0
LINE
8
BLACK
6
CONTINUOUS
10
139.509
20
-104.167
11
139.59
21
-104.221
0
LINE
8
BLACK
6
CONTINUOUS
10
139.59
20
-104.221
11
139.641
21
-104.298
0
LINE
8
BLACK
6
CONTINUOUS
10
139.641
20
-104.298
11
140.82
21
-104.298
0
LINE
8
BLACK
6
CONTINUOUS
10
140.82
20
-104.298
11
140.872
21
-104.263
0
LINE
8
BLACK
6
CONTINUOUS
10
140.872
20
-104.263
11
140.949
21
-104.248
0
LINE
8
BLACK
6
CONTINUOUS
10
140.949
20
-104.248
11
141.499
21
-104.248
0
LINE
8
BLACK
6
CONTINUOUS
10
141.499
20
-104.248
11
141.576
21
-104.263
0
LINE
8
BLACK
6
CONTINUOUS
10
141.576
20
-104.263
11
141.64
21
-104.307
0
LINE
8
BLACK
6
CONTINUOUS
10
141.64
20
-104.307
11
141.684
21
-104.371
0
LINE
8
BLACK
6
CONTINUOUS
10
141.684
20
-104.371
11
141.699
21
-104.448
0
LINE
8
BLACK
6
CONTINUOUS
10
141.699
20
-104.448
11
141.699
21
-104.848
0
LINE
8
BLACK
6
CONTINUOUS
10
141.699
20
-104.848
11
141.684
21
-104.925
0
LINE
8
BLACK
6
CONTINUOUS
10
141.684
20
-104.925
11
141.64
21
-104.989
0
LINE
8
BLACK
6
CONTINUOUS
10
141.64
20
-104.989
11
141.576
21
-105.033
0
LINE
8
BLACK
6
CONTINUOUS
10
141.576
20
-105.033
11
141.499
21
-105.048
0
LINE
8
BLACK
6
CONTINUOUS
10
141.499
20
-105.048
11
140.949
21
-105.048
0
LINE
8
BLACK
6
CONTINUOUS
10
140.949
20
-105.048
11
140.872
21
-105.033
0
LINE
8
BLACK
6
CONTINUOUS
10
140.872
20
-105.033
11
140.82
21
-104.998
0
LINE
8
BLACK
6
CONTINUOUS
10
140.82
20
-104.998
11
139.641
21
-104.998
0
LINE
8
BLACK
6
CONTINUOUS
10
139.641
20
-104.998
11
139.59
21
-105.075
0
LINE
8
BLACK
6
CONTINUOUS
10
139.59
20
-105.075
11
139.509
21
-105.129
0
LINE
8
BLACK
6
CONTINUOUS
10
139.509
20
-105.129
11
139.413
21
-105.148
0
LINE
8
BLACK
6
CONTINUOUS
10
139.413
20
-105.148
11
139.288
21
-105.148
0
LINE
8
BLACK
6
CONTINUOUS
10
139.288
20
-105.148
11
139.288
21
-105.773
0
LINE
8
BLACK
6
CONTINUOUS
10
139.288
20
-105.773
11
139.402
21
-105.887
0
LINE
8
BLACK
6
CONTINUOUS
10
139.402
20
-105.887
11
139.437
21
-105.872
0
LINE
8
BLACK
6
CONTINUOUS
10
139.437
20
-105.872
11
139.611
21
-105.835
0
LINE
8
BLACK
6
CONTINUOUS
10
139.611
20
-105.835
11
139.789
21
-105.835
0
LINE
8
BLACK
6
CONTINUOUS
10
139.789
20
-105.835
11
139.963
21
-105.872
0
LINE
8
BLACK
6
CONTINUOUS
10
139.963
20
-105.872
11
140.125
21
-105.944
0
LINE
8
BLACK
6
CONTINUOUS
10
140.125
20
-105.944
11
140.269
21
-106.048
0
LINE
8
BLACK
6
CONTINUOUS
10
140.269
20
-106.048
11
140.388
21
-106.18
0
LINE
8
BLACK
6
CONTINUOUS
10
140.388
20
-106.18
11
140.477
21
-106.334
0
LINE
8
BLACK
6
CONTINUOUS
10
140.477
20
-106.334
11
140.531
21
-106.503
0
LINE
8
BLACK
6
CONTINUOUS
10
140.531
20
-106.503
11
140.55
21
-106.68
0
LINE
8
BLACK
6
CONTINUOUS
10
140.55
20
-106.68
11
140.531
21
-106.857
0
LINE
8
BLACK
6
CONTINUOUS
10
140.531
20
-106.857
11
140.477
21
-107.026
0
LINE
8
BLACK
6
CONTINUOUS
10
140.477
20
-107.026
11
140.388
21
-107.18
0
LINE
8
BLACK
6
CONTINUOUS
10
140.388
20
-107.18
11
140.269
21
-107.312
0
LINE
8
BLACK
6
CONTINUOUS
10
140.269
20
-107.312
11
140.125
21
-107.416
0
LINE
8
BLACK
6
CONTINUOUS
10
140.125
20
-107.416
11
139.963
21
-107.488
0
LINE
8
BLACK
6
CONTINUOUS
10
139.963
20
-107.488
11
139.789
21
-107.525
0
LINE
8
BLACK
6
CONTINUOUS
10
139.789
20
-107.525
11
139.611
21
-107.525
0
LINE
8
BLACK
6
CONTINUOUS
10
139.611
20
-107.525
11
139.437
21
-107.488
0
LINE
8
BLACK
6
CONTINUOUS
10
139.437
20
-107.488
11
139.275
21
-107.416
0
LINE
8
BLACK
6
CONTINUOUS
10
139.275
20
-107.416
11
139.131
21
-107.312
0
LINE
8
BLACK
6
CONTINUOUS
10
139.131
20
-107.312
11
139.012
21
-107.18
0
LINE
8
BLACK
6
CONTINUOUS
10
139.012
20
-107.18
11
138.923
21
-107.026
0
LINE
8
BLACK
6
CONTINUOUS
10
138.923
20
-107.026
11
138.869
21
-106.857
0
LINE
8
BLACK
6
CONTINUOUS
10
138.869
20
-106.857
11
138.85
21
-106.68
0
LINE
8
BLACK
6
CONTINUOUS
10
138.85
20
-106.68
11
138.869
21
-106.503
0
LINE
8
BLACK
6
CONTINUOUS
10
138.869
20
-106.503
11
138.908
21
-106.383
0
LINE
8
BLACK
6
CONTINUOUS
10
138.908
20
-106.383
11
138.691
21
-106.165
0
LINE
8
BLACK
6
CONTINUOUS
10
138.691
20
-106.165
11
138.668
21
-106.138
0
LINE
8
BLACK
6
CONTINUOUS
10
138.668
20
-106.138
11
138.661
21
-106.133
0
LINE
8
BLACK
6
CONTINUOUS
10
138.661
20
-106.133
11
138.659
21
-106.128
0
LINE
8
BLACK
6
CONTINUOUS
10
138.659
20
-106.128
11
138.652
21
-106.119
0
LINE
8
BLACK
6
CONTINUOUS
10
138.652
20
-106.119
11
138.63
21
-106.075
0
LINE
8
BLACK
6
CONTINUOUS
10
138.63
20
-106.075
11
138.607
21
-106.031
0
LINE
8
BLACK
6
CONTINUOUS
10
138.607
20
-106.031
11
138.606
21
-106.023
0
LINE
8
BLACK
6
CONTINUOUS
10
138.606
20
-106.023
11
138.602
21
-106.016
0
LINE
8
BLACK
6
CONTINUOUS
10
138.602
20
-106.016
11
138.596
21
-105.967
0
LINE
8
BLACK
6
CONTINUOUS
10
138.596
20
-105.967
11
138.588
21
-105.918
0
LINE
8
BLACK
6
CONTINUOUS
10
138.588
20
-105.918
11
138.588
21
-105.148
0
LINE
8
BLACK
6
CONTINUOUS
10
138.588
20
-105.148
11
138.463
21
-105.148
0
LINE
8
BLACK
6
CONTINUOUS
10
138.463
20
-105.148
11
138.367
21
-105.129
0
LINE
8
BLACK
6
CONTINUOUS
10
138.367
20
-105.129
11
138.286
21
-105.075
0
LINE
8
BLACK
6
CONTINUOUS
10
138.286
20
-105.075
11
138.232
21
-104.994
0
LINE
8
BLACK
6
CONTINUOUS
10
138.232
20
-104.994
11
138.213
21
-104.898
0
LINE
8
BLACK
6
CONTINUOUS
10
138.213
20
-104.898
11
138.213
21
-104.418
0
LINE
8
BLACK
6
CONTINUOUS
10
138.213
20
-104.418
11
138.031
21
-104.236
0
LINE
8
BLACK
6
CONTINUOUS
10
138.031
20
-104.236
11
137.086
21
-104.236
0
LINE
8
BLACK
6
CONTINUOUS
10
137.086
20
-104.236
11
137.086
21
-104.361
0
LINE
8
BLACK
6
CONTINUOUS
10
137.086
20
-104.361
11
137.067
21
-104.457
0
LINE
8
BLACK
6
CONTINUOUS
10
137.067
20
-104.457
11
137.013
21
-104.538
0
LINE
8
BLACK
6
CONTINUOUS
10
137.013
20
-104.538
11
136.932
21
-104.592
0
LINE
8
BLACK
6
CONTINUOUS
10
136.932
20
-104.592
11
136.836
21
-104.611
0
LINE
8
BLACK
6
CONTINUOUS
10
136.836
20
-104.611
11
136.336
21
-104.611
0
LINE
8
BLACK
6
CONTINUOUS
10
136.336
20
-104.611
11
136.24
21
-104.592
0
LINE
8
BLACK
6
CONTINUOUS
10
136.24
20
-104.592
11
136.159
21
-104.538
0
LINE
8
BLACK
6
CONTINUOUS
10
136.159
20
-104.538
11
136.105
21
-104.457
0
LINE
8
BLACK
6
CONTINUOUS
10
136.105
20
-104.457
11
136.086
21
-104.361
0
LINE
8
BLACK
6
CONTINUOUS
10
136.086
20
-104.361
11
136.086
21
-103.411
0
LINE
8
BLACK
6
CONTINUOUS
10
136.086
20
-103.411
11
136.105
21
-103.315
0
LINE
8
BLACK
6
CONTINUOUS
10
136.105
20
-103.315
11
136.159
21
-103.234
0
LINE
8
BLACK
6
CONTINUOUS
10
136.159
20
-103.234
11
136.24
21
-103.18
0
LINE
8
BLACK
6
CONTINUOUS
10
136.24
20
-103.18
11
136.336
21
-103.161
0
LINE
8
BLACK
6
CONTINUOUS
10
136.336
20
-103.161
11
136.836
21
-103.161
0
LINE
8
BLACK
6
CONTINUOUS
10
136.836
20
-103.161
11
136.932
21
-103.18
0
LINE
8
BLACK
6
CONTINUOUS
10
147.584
20
-105.036
11
147.58
21
-105.069
0
LINE
8
BLACK
6
CONTINUOUS
10
147.58
20
-105.069
11
147.574
21
-105.079
0
LINE
8
BLACK
6
CONTINUOUS
10
147.574
20
-105.079
11
147.571
21
-105.09
0
LINE
8
BLACK
6
CONTINUOUS
10
147.571
20
-105.09
11
147.55
21
-105.116
0
LINE
8
BLACK
6
CONTINUOUS
10
147.55
20
-105.116
11
147.532
21
-105.145
0
LINE
8
BLACK
6
CONTINUOUS
10
147.532
20
-105.145
11
147.105
21
-105.572
0
LINE
8
BLACK
6
CONTINUOUS
10
147.105
20
-105.572
11
147.077
21
-105.589
0
LINE
8
BLACK
6
CONTINUOUS
10
147.077
20
-105.589
11
147.051
21
-105.61
0
LINE
8
BLACK
6
CONTINUOUS
10
147.051
20
-105.61
11
147.04
21
-105.613
0
LINE
8
BLACK
6
CONTINUOUS
10
147.04
20
-105.613
11
147.03
21
-105.619
0
LINE
8
BLACK
6
CONTINUOUS
10
147.03
20
-105.619
11
146.997
21
-105.623
0
LINE
8
BLACK
6
CONTINUOUS
10
146.997
20
-105.623
11
146.964
21
-105.63
0
LINE
8
BLACK
6
CONTINUOUS
10
146.964
20
-105.63
11
143.573
21
-105.63
0
LINE
8
BLACK
6
CONTINUOUS
10
143.573
20
-105.63
11
142.962
21
-106.24
0
LINE
8
BLACK
6
CONTINUOUS
10
142.962
20
-106.24
11
143.017
21
-106.334
0
LINE
8
BLACK
6
CONTINUOUS
10
143.017
20
-106.334
11
143.071
21
-106.503
0
LINE
8
BLACK
6
CONTINUOUS
10
143.071
20
-106.503
11
143.09
21
-106.68
0
LINE
8
BLACK
6
CONTINUOUS
10
143.09
20
-106.68
11
143.071
21
-106.857
0
LINE
8
BLACK
6
CONTINUOUS
10
143.071
20
-106.857
11
143.017
21
-107.026
0
LINE
8
BLACK
6
CONTINUOUS
10
143.017
20
-107.026
11
142.928
21
-107.18
0
LINE
8
BLACK
6
CONTINUOUS
10
142.928
20
-107.18
11
142.809
21
-107.312
0
LINE
8
BLACK
6
CONTINUOUS
10
142.809
20
-107.312
11
142.665
21
-107.416
0
LINE
8
BLACK
6
CONTINUOUS
10
142.665
20
-107.416
11
142.503
21
-107.488
0
LINE
8
BLACK
6
CONTINUOUS
10
142.503
20
-107.488
11
142.329
21
-107.525
0
LINE
8
BLACK
6
CONTINUOUS
10
142.329
20
-107.525
11
142.151
21
-107.525
0
LINE
8
BLACK
6
CONTINUOUS
10
142.151
20
-107.525
11
141.977
21
-107.488
0
LINE
8
BLACK
6
CONTINUOUS
10
141.977
20
-107.488
11
141.815
21
-107.416
0
LINE
8
BLACK
6
CONTINUOUS
10
141.815
20
-107.416
11
141.671
21
-107.312
0
LINE
8
BLACK
6
CONTINUOUS
10
141.671
20
-107.312
11
141.552
21
-107.18
0
LINE
8
BLACK
6
CONTINUOUS
10
141.552
20
-107.18
11
141.463
21
-107.026
0
LINE
8
BLACK
6
CONTINUOUS
10
141.463
20
-107.026
11
141.409
21
-106.857
0
LINE
8
BLACK
6
CONTINUOUS
10
141.409
20
-106.857
11
141.39
21
-106.68
0
LINE
8
BLACK
6
CONTINUOUS
10
141.39
20
-106.68
11
141.409
21
-106.503
0
LINE
8
BLACK
6
CONTINUOUS
10
141.409
20
-106.503
11
141.463
21
-106.334
0
LINE
8
BLACK
6
CONTINUOUS
10
141.463
20
-106.334
11
141.552
21
-106.18
0
LINE
8
BLACK
6
CONTINUOUS
10
141.552
20
-106.18
11
141.671
21
-106.048
0
LINE
8
BLACK
6
CONTINUOUS
10
141.671
20
-106.048
11
141.815
21
-105.944
0
LINE
8
BLACK
6
CONTINUOUS
10
141.815
20
-105.944
11
141.977
21
-105.872
0
LINE
8
BLACK
6
CONTINUOUS
10
141.977
20
-105.872
11
142.151
21
-105.835
0
LINE
8
BLACK
6
CONTINUOUS
10
142.151
20
-105.835
11
142.329
21
-105.835
0
LINE
8
BLACK
6
CONTINUOUS
10
142.329
20
-105.835
11
142.503
21
-105.872
0
LINE
8
BLACK
6
CONTINUOUS
10
142.503
20
-105.872
11
142.665
21
-105.944
0
LINE
8
BLACK
6
CONTINUOUS
10
142.665
20
-105.944
11
142.681
21
-105.956
0
LINE
8
BLACK
6
CONTINUOUS
10
142.681
20
-105.956
11
143.349
21
-105.288
0
LINE
8
BLACK
6
CONTINUOUS
10
143.349
20
-105.288
11
143.377
21
-105.271
0
LINE
8
BLACK
6
CONTINUOUS
10
143.377
20
-105.271
11
143.403
21
-105.25
0
LINE
8
BLACK
6
CONTINUOUS
10
143.403
20
-105.25
11
143.414
21
-105.247
0
LINE
8
BLACK
6
CONTINUOUS
10
143.414
20
-105.247
11
143.424
21
-105.241
0
LINE
8
BLACK
6
CONTINUOUS
10
143.424
20
-105.241
11
143.457
21
-105.237
0
LINE
8
BLACK
6
CONTINUOUS
10
143.457
20
-105.237
11
143.49
21
-105.23
0
LINE
8
BLACK
6
CONTINUOUS
10
143.49
20
-105.23
11
146.881
21
-105.23
0
LINE
8
BLACK
6
CONTINUOUS
10
146.881
20
-105.23
11
147.191
21
-104.92
0
LINE
8
BLACK
6
CONTINUOUS
10
147.191
20
-104.92
11
147.191
21
-103.571
0
LINE
8
BLACK
6
CONTINUOUS
10
147.191
20
-103.571
11
147.199
21
-103.533
0
LINE
8
BLACK
6
CONTINUOUS
10
147.199
20
-103.533
11
147.22
21
-103.5
0
LINE
8
BLACK
6
CONTINUOUS
10
147.22
20
-103.5
11
147.253
21
-103.479
0
LINE
8
BLACK
6
CONTINUOUS
10
147.253
20
-103.479
11
147.291
21
-103.471
0
LINE
8
BLACK
6
CONTINUOUS
10
147.291
20
-103.471
11
147.491
21
-103.471
0
LINE
8
BLACK
6
CONTINUOUS
10
147.491
20
-103.471
11
147.529
21
-103.479
0
LINE
8
BLACK
6
CONTINUOUS
10
147.529
20
-103.479
11
147.562
21
-103.5
0
LINE
8
BLACK
6
CONTINUOUS
10
147.562
20
-103.5
11
147.583
21
-103.533
0
LINE
8
BLACK
6
CONTINUOUS
10
147.583
20
-103.533
11
147.591
21
-103.571
0
LINE
8
BLACK
6
CONTINUOUS
10
147.591
20
-103.571
11
147.591
21
-105.003
0
LINE
8
BLACK
6
CONTINUOUS
10
147.591
20
-105.003
11
147.584
21
-105.036
0
LINE
8
BLACK
6
CONTINUOUS
10
145.043
20
-105.872
11
145.205
21
-105.944
0
LINE
8
BLACK
6
CONTINUOUS
10
145.205
20
-105.944
11
145.349
21
-106.048
0
LINE
8
BLACK
6
CONTINUOUS
10
145.349
20
-106.048
11
145.468
21
-106.18
0
LINE
8
BLACK
6
CONTINUOUS
10
145.468
20
-106.18
11
145.557
21
-106.334
0
LINE
8
BLACK
6
CONTINUOUS
10
145.557
20
-106.334
11
145.611
21
-106.503
0
LINE
8
BLACK
6
CONTINUOUS
10
145.611
20
-106.503
11
145.63
21
-106.68
0
LINE
8
BLACK
6
CONTINUOUS
10
145.63
20
-106.68
11
145.611
21
-106.857
0
LINE
8
BLACK
6
CONTINUOUS
10
145.611
20
-106.857
11
145.557
21
-107.026
0
LINE
8
BLACK
6
CONTINUOUS
10
145.557
20
-107.026
11
145.468
21
-107.18
0
LINE
8
BLACK
6
CONTINUOUS
10
145.468
20
-107.18
11
145.349
21
-107.312
0
LINE
8
BLACK
6
CONTINUOUS
10
145.349
20
-107.312
11
145.205
21
-107.416
0
LINE
8
BLACK
6
CONTINUOUS
10
145.205
20
-107.416
11
145.043
21
-107.488
0
LINE
8
BLACK
6
CONTINUOUS
10
145.043
20
-107.488
11
144.869
21
-107.525
0
LINE
8
BLACK
6
CONTINUOUS
10
144.869
20
-107.525
11
144.691
21
-107.525
0
LINE
8
BLACK
6
CONTINUOUS
10
144.691
20
-107.525
11
144.517
21
-107.488
0
LINE
8
BLACK
6
CONTINUOUS
10
144.517
20
-107.488
11
144.355
21
-107.416
0
LINE
8
BLACK
6
CONTINUOUS
10
144.355
20
-107.416
11
144.211
21
-107.312
0
LINE
8
BLACK
6
CONTINUOUS
10
144.211
20
-107.312
11
144.092
21
-107.18
0
LINE
8
BLACK
6
CONTINUOUS
10
144.092
20
-107.18
11
144.003
21
-107.026
0
LINE
8
BLACK
6
CONTINUOUS
10
144.003
20
-107.026
11
143.949
21
-106.857
0
LINE
8
BLACK
6
CONTINUOUS
10
143.949
20
-106.857
11
143.93
21
-106.68
0
LINE
8
BLACK
6
CONTINUOUS
10
143.93
20
-106.68
11
143.949
21
-106.503
0
LINE
8
BLACK
6
CONTINUOUS
10
143.949
20
-106.503
11
144.003
21
-106.334
0
LINE
8
BLACK
6
CONTINUOUS
10
144.003
20
-106.334
11
144.092
21
-106.18
0
LINE
8
BLACK
6
CONTINUOUS
10
144.092
20
-106.18
11
144.211
21
-106.048
0
LINE
8
BLACK
6
CONTINUOUS
10
144.211
20
-106.048
11
144.355
21
-105.944
0
LINE
8
BLACK
6
CONTINUOUS
10
144.355
20
-105.944
11
144.517
21
-105.872
0
LINE
8
BLACK
6
CONTINUOUS
10
144.517
20
-105.872
11
144.691
21
-105.835
0
LINE
8
BLACK
6
CONTINUOUS
10
144.691
20
-105.835
11
144.869
21
-105.835
0
LINE
8
BLACK
6
CONTINUOUS
10
144.869
20
-105.835
11
145.043
21
-105.872
0
LINE
8
BLACK
6
CONTINUOUS
10
148.884
20
-105.342
11
148.88
21
-105.375
0
LINE
8
BLACK
6
CONTINUOUS
10
148.88
20
-105.375
11
148.874
21
-105.385
0
LINE
8
BLACK
6
CONTINUOUS
10
148.874
20
-105.385
11
148.871
21
-105.396
0
LINE
8
BLACK
6
CONTINUOUS
10
148.871
20
-105.396
11
148.85
21
-105.422
0
LINE
8
BLACK
6
CONTINUOUS
10
148.85
20
-105.422
11
148.832
21
-105.45
0
LINE
8
BLACK
6
CONTINUOUS
10
148.832
20
-105.45
11
148.042
21
-106.24
0
LINE
8
BLACK
6
CONTINUOUS
10
148.042
20
-106.24
11
148.097
21
-106.334
0
LINE
8
BLACK
6
CONTINUOUS
10
148.097
20
-106.334
11
148.151
21
-106.503
0
LINE
8
BLACK
6
CONTINUOUS
10
148.151
20
-106.503
11
148.17
21
-106.68
0
LINE
8
BLACK
6
CONTINUOUS
10
148.17
20
-106.68
11
148.151
21
-106.857
0
LINE
8
BLACK
6
CONTINUOUS
10
148.151
20
-106.857
11
148.097
21
-107.026
0
LINE
8
BLACK
6
CONTINUOUS
10
148.097
20
-107.026
11
148.008
21
-107.18
0
LINE
8
BLACK
6
CONTINUOUS
10
148.008
20
-107.18
11
147.889
21
-107.312
0
LINE
8
BLACK
6
CONTINUOUS
10
147.889
20
-107.312
11
147.745
21
-107.416
0
LINE
8
BLACK
6
CONTINUOUS
10
147.745
20
-107.416
11
147.583
21
-107.488
0
LINE
8
BLACK
6
CONTINUOUS
10
147.583
20
-107.488
11
147.409
21
-107.525
0
LINE
8
BLACK
6
CONTINUOUS
10
147.409
20
-107.525
11
147.231
21
-107.525
0
LINE
8
BLACK
6
CONTINUOUS
10
147.231
20
-107.525
11
147.057
21
-107.488
0
LINE
8
BLACK
6
CONTINUOUS
10
147.057
20
-107.488
11
146.895
21
-107.416
0
LINE
8
BLACK
6
CONTINUOUS
10
146.895
20
-107.416
11
146.751
21
-107.312
0
LINE
8
BLACK
6
CONTINUOUS
10
146.751
20
-107.312
11
146.632
21
-107.18
0
LINE
8
BLACK
6
CONTINUOUS
10
146.632
20
-107.18
11
146.543
21
-107.026
0
LINE
8
BLACK
6
CONTINUOUS
10
146.543
20
-107.026
11
146.489
21
-106.857
0
LINE
8
BLACK
6
CONTINUOUS
10
146.489
20
-106.857
11
146.47
21
-106.68
0
LINE
8
BLACK
6
CONTINUOUS
10
146.47
20
-106.68
11
146.489
21
-106.503
0
LINE
8
BLACK
6
CONTINUOUS
10
146.489
20
-106.503
11
146.543
21
-106.334
0
LINE
8
BLACK
6
CONTINUOUS
10
146.543
20
-106.334
11
146.632
21
-106.18
0
LINE
8
BLACK
6
CONTINUOUS
10
146.632
20
-106.18
11
146.751
21
-106.048
0
LINE
8
BLACK
6
CONTINUOUS
10
146.751
20
-106.048
11
146.895
21
-105.944
0
LINE
8
BLACK
6
CONTINUOUS
10
146.895
20
-105.944
11
147.057
21
-105.872
0
LINE
8
BLACK
6
CONTINUOUS
10
147.057
20
-105.872
11
147.231
21
-105.835
0
LINE
8
BLACK
6
CONTINUOUS
10
147.231
20
-105.835
11
147.409
21
-105.835
0
LINE
8
BLACK
6
CONTINUOUS
10
147.409
20
-105.835
11
147.583
21
-105.872
0
LINE
8
BLACK
6
CONTINUOUS
10
147.583
20
-105.872
11
147.745
21
-105.944
0
LINE
8
BLACK
6
CONTINUOUS
10
147.745
20
-105.944
11
147.761
21
-105.956
0
LINE
8
BLACK
6
CONTINUOUS
10
147.761
20
-105.956
11
148.491
21
-105.226
0
LINE
8
BLACK
6
CONTINUOUS
10
148.491
20
-105.226
11
148.491
21
-103.571
0
LINE
8
BLACK
6
CONTINUOUS
10
148.491
20
-103.571
11
148.499
21
-103.533
0
LINE
8
BLACK
6
CONTINUOUS
10
148.499
20
-103.533
11
148.52
21
-103.5
0
LINE
8
BLACK
6
CONTINUOUS
10
148.52
20
-103.5
11
148.553
21
-103.479
0
LINE
8
BLACK
6
CONTINUOUS
10
148.553
20
-103.479
11
148.591
21
-103.471
0
LINE
8
BLACK
6
CONTINUOUS
10
148.591
20
-103.471
11
148.791
21
-103.471
0
LINE
8
BLACK
6
CONTINUOUS
10
148.791
20
-103.471
11
148.829
21
-103.479
0
LINE
8
BLACK
6
CONTINUOUS
10
148.829
20
-103.479
11
148.862
21
-103.5
0
LINE
8
BLACK
6
CONTINUOUS
10
148.862
20
-103.5
11
148.883
21
-103.533
0
LINE
8
BLACK
6
CONTINUOUS
10
148.883
20
-103.533
11
148.891
21
-103.571
0
LINE
8
BLACK
6
CONTINUOUS
10
148.891
20
-103.571
11
148.891
21
-105.309
0
LINE
8
BLACK
6
CONTINUOUS
10
148.891
20
-105.309
11
148.884
21
-105.342
0
LINE
8
BLACK
6
CONTINUOUS
10
149.597
20
-105.872
11
149.771
21
-105.835
0
LINE
8
BLACK
6
CONTINUOUS
10
149.771
20
-105.835
11
149.949
21
-105.835
0
LINE
8
BLACK
6
CONTINUOUS
10
149.949
20
-105.835
11
150.123
21
-105.872
0
LINE
8
BLACK
6
CONTINUOUS
10
150.123
20
-105.872
11
150.285
21
-105.944
0
LINE
8
BLACK
6
CONTINUOUS
10
150.285
20
-105.944
11
150.429
21
-106.048
0
LINE
8
BLACK
6
CONTINUOUS
10
150.429
20
-106.048
11
150.548
21
-106.18
0
LINE
8
BLACK
6
CONTINUOUS
10
150.548
20
-106.18
11
150.637
21
-106.334
0
LINE
8
BLACK
6
CONTINUOUS
10
150.637
20
-106.334
11
150.691
21
-106.503
0
LINE
8
BLACK
6
CONTINUOUS
10
150.691
20
-106.503
11
150.71
21
-106.68
0
LINE
8
BLACK
6
CONTINUOUS
10
150.71
20
-106.68
11
150.691
21
-106.857
0
LINE
8
BLACK
6
CONTINUOUS
10
150.691
20
-106.857
11
150.637
21
-107.026
0
LINE
8
BLACK
6
CONTINUOUS
10
150.637
20
-107.026
11
150.548
21
-107.18
0
LINE
8
BLACK
6
CONTINUOUS
10
150.548
20
-107.18
11
150.429
21
-107.312
0
LINE
8
BLACK
6
CONTINUOUS
10
150.429
20
-107.312
11
150.285
21
-107.416
0
LINE
8
BLACK
6
CONTINUOUS
10
150.285
20
-107.416
11
150.123
21
-107.488
0
LINE
8
BLACK
6
CONTINUOUS
10
150.123
20
-107.488
11
149.949
21
-107.525
0
LINE
8
BLACK
6
CONTINUOUS
10
149.949
20
-107.525
11
149.771
21
-107.525
0
LINE
8
BLACK
6
CONTINUOUS
10
149.771
20
-107.525
11
149.597
21
-107.488
0
LINE
8
BLACK
6
CONTINUOUS
10
149.597
20
-107.488
11
149.435
21
-107.416
0
LINE
8
BLACK
6
CONTINUOUS
10
149.435
20
-107.416
11
149.291
21
-107.312
0
LINE
8
BLACK
6
CONTINUOUS
10
149.291
20
-107.312
11
149.172
21
-107.18
0
LINE
8
BLACK
6
CONTINUOUS
10
149.172
20
-107.18
11
149.083
21
-107.026
0
LINE
8
BLACK
6
CONTINUOUS
10
149.083
20
-107.026
11
149.029
21
-106.857
0
LINE
8
BLACK
6
CONTINUOUS
10
149.029
20
-106.857
11
149.01
21
-106.68
0
LINE
8
BLACK
6
CONTINUOUS
10
149.01
20
-106.68
11
149.029
21
-106.503
0
LINE
8
BLACK
6
CONTINUOUS
10
149.029
20
-106.503
11
149.083
21
-106.334
0
LINE
8
BLACK
6
CONTINUOUS
10
149.083
20
-106.334
11
149.151
21
-106.217
0
LINE
8
BLACK
6
CONTINUOUS
10
149.151
20
-106.217
11
149.148
21
-106.194
0
LINE
8
BLACK
6
CONTINUOUS
10
149.148
20
-106.194
11
149.141
21
-106.161
0
LINE
8
BLACK
6
CONTINUOUS
10
149.141
20
-106.161
11
149.141
21
-103.571
0
LINE
8
BLACK
6
CONTINUOUS
10
149.141
20
-103.571
11
149.149
21
-103.533
0
LINE
8
BLACK
6
CONTINUOUS
10
149.149
20
-103.533
11
149.17
21
-103.5
0
LINE
8
BLACK
6
CONTINUOUS
10
149.17
20
-103.5
11
149.203
21
-103.479
0
LINE
8
BLACK
6
CONTINUOUS
10
149.203
20
-103.479
11
149.241
21
-103.471
0
LINE
8
BLACK
6
CONTINUOUS
10
149.241
20
-103.471
11
149.441
21
-103.471
0
LINE
8
BLACK
6
CONTINUOUS
10
149.441
20
-103.471
11
149.479
21
-103.479
0
LINE
8
BLACK
6
CONTINUOUS
10
149.479
20
-103.479
11
149.512
21
-103.5
0
LINE
8
BLACK
6
CONTINUOUS
10
149.512
20
-103.5
11
149.533
21
-103.533
0
LINE
8
BLACK
6
CONTINUOUS
10
149.533
20
-103.533
11
149.541
21
-103.571
0
LINE
8
BLACK
6
CONTINUOUS
10
149.541
20
-103.571
11
149.541
21
-105.897
0
LINE
8
BLACK
6
CONTINUOUS
10
149.541
20
-105.897
11
149.597
21
-105.872
0
LINE
8
BLACK
6
CONTINUOUS
10
152.663
20
-105.872
11
152.825
21
-105.944
0
LINE
8
BLACK
6
CONTINUOUS
10
152.825
20
-105.944
11
152.969
21
-106.048
0
LINE
8
BLACK
6
CONTINUOUS
10
152.969
20
-106.048
11
153.088
21
-106.18
0
LINE
8
BLACK
6
CONTINUOUS
10
153.088
20
-106.18
11
153.177
21
-106.334
0
LINE
8
BLACK
6
CONTINUOUS
10
153.177
20
-106.334
11
153.231
21
-106.503
0
LINE
8
BLACK
6
CONTINUOUS
10
153.231
20
-106.503
11
153.25
21
-106.68
0
LINE
8
BLACK
6
CONTINUOUS
10
153.25
20
-106.68
11
153.231
21
-106.857
0
LINE
8
BLACK
6
CONTINUOUS
10
153.231
20
-106.857
11
153.177
21
-107.026
0
LINE
8
BLACK
6
CONTINUOUS
10
153.177
20
-107.026
11
153.088
21
-107.18
0
LINE
8
BLACK
6
CONTINUOUS
10
153.088
20
-107.18
11
152.969
21
-107.312
0
LINE
8
BLACK
6
CONTINUOUS
10
152.969
20
-107.312
11
152.825
21
-107.416
0
LINE
8
BLACK
6
CONTINUOUS
10
152.825
20
-107.416
11
152.663
21
-107.488
0
LINE
8
BLACK
6
CONTINUOUS
10
152.663
20
-107.488
11
152.489
21
-107.525
0
LINE
8
BLACK
6
CONTINUOUS
10
152.489
20
-107.525
11
152.311
21
-107.525
0
LINE
8
BLACK
6
CONTINUOUS
10
152.311
20
-107.525
11
152.137
21
-107.488
0
LINE
8
BLACK
6
CONTINUOUS
10
152.137
20
-107.488
11
151.975
21
-107.416
0
LINE
8
BLACK
6
CONTINUOUS
10
151.975
20
-107.416
11
151.831
21
-107.312
0
LINE
8
BLACK
6
CONTINUOUS
10
151.831
20
-107.312
11
151.712
21
-107.18
0
LINE
8
BLACK
6
CONTINUOUS
10
151.712
20
-107.18
11
151.623
21
-107.026
0
LINE
8
BLACK
6
CONTINUOUS
10
151.623
20
-107.026
11
151.569
21
-106.857
0
LINE
8
BLACK
6
CONTINUOUS
10
151.569
20
-106.857
11
151.55
21
-106.68
0
LINE
8
BLACK
6
CONTINUOUS
10
151.55
20
-106.68
11
151.569
21
-106.503
0
LINE
8
BLACK
6
CONTINUOUS
10
151.569
20
-106.503
11
151.623
21
-106.334
0
LINE
8
BLACK
6
CONTINUOUS
10
151.623
20
-106.334
11
151.712
21
-106.18
0
LINE
8
BLACK
6
CONTINUOUS
10
151.712
20
-106.18
11
151.831
21
-106.048
0
LINE
8
BLACK
6
CONTINUOUS
10
151.831
20
-106.048
11
151.975
21
-105.944
0
LINE
8
BLACK
6
CONTINUOUS
10
151.975
20
-105.944
11
152.137
21
-105.872
0
LINE
8
BLACK
6
CONTINUOUS
10
152.137
20
-105.872
11
152.311
21
-105.835
0
LINE
8
BLACK
6
CONTINUOUS
10
152.311
20
-105.835
11
152.489
21
-105.835
0
LINE
8
BLACK
6
CONTINUOUS
10
152.489
20
-105.835
11
152.663
21
-105.872
0
LINE
8
BLACK
6
CONTINUOUS
10
155.203
20
-105.872
11
155.365
21
-105.944
0
LINE
8
BLACK
6
CONTINUOUS
10
155.365
20
-105.944
11
155.509
21
-106.048
0
LINE
8
BLACK
6
CONTINUOUS
10
155.509
20
-106.048
11
155.628
21
-106.18
0
LINE
8
BLACK
6
CONTINUOUS
10
155.628
20
-106.18
11
155.717
21
-106.334
0
LINE
8
BLACK
6
CONTINUOUS
10
155.717
20
-106.334
11
155.771
21
-106.503
0
LINE
8
BLACK
6
CONTINUOUS
10
155.771
20
-106.503
11
155.79
21
-106.68
0
LINE
8
BLACK
6
CONTINUOUS
10
155.79
20
-106.68
11
155.771
21
-106.857
0
LINE
8
BLACK
6
CONTINUOUS
10
155.771
20
-106.857
11
155.717
21
-107.026
0
LINE
8
BLACK
6
CONTINUOUS
10
155.717
20
-107.026
11
155.628
21
-107.18
0
LINE
8
BLACK
6
CONTINUOUS
10
155.628
20
-107.18
11
155.509
21
-107.312
0
LINE
8
BLACK
6
CONTINUOUS
10
155.509
20
-107.312
11
155.365
21
-107.416
0
LINE
8
BLACK
6
CONTINUOUS
10
155.365
20
-107.416
11
155.203
21
-107.488
0
LINE
8
BLACK
6
CONTINUOUS
10
155.203
20
-107.488
11
155.029
21
-107.525
0
LINE
8
BLACK
6
CONTINUOUS
10
155.029
20
-107.525
11
154.851
21
-107.525
0
LINE
8
BLACK
6
CONTINUOUS
10
154.851
20
-107.525
11
154.677
21
-107.488
0
LINE
8
BLACK
6
CONTINUOUS
10
154.677
20
-107.488
11
154.515
21
-107.416
0
LINE
8
BLACK
6
CONTINUOUS
10
154.515
20
-107.416
11
154.371
21
-107.312
0
LINE
8
BLACK
6
CONTINUOUS
10
154.371
20
-107.312
11
154.252
21
-107.18
0
LINE
8
BLACK
6
CONTINUOUS
10
154.252
20
-107.18
11
154.163
21
-107.026
0
LINE
8
BLACK
6
CONTINUOUS
10
154.163
20
-107.026
11
154.109
21
-106.857
0
LINE
8
BLACK
6
CONTINUOUS
10
154.109
20
-106.857
11
154.09
21
-106.68
0
LINE
8
BLACK
6
CONTINUOUS
10
154.09
20
-106.68
11
154.109
21
-106.503
0
LINE
8
BLACK
6
CONTINUOUS
10
154.109
20
-106.503
11
154.163
21
-106.334
0
LINE
8
BLACK
6
CONTINUOUS
10
154.163
20
-106.334
11
154.252
21
-106.18
0
LINE
8
BLACK
6
CONTINUOUS
10
154.252
20
-106.18
11
154.371
21
-106.048
0
LINE
8
BLACK
6
CONTINUOUS
10
154.371
20
-106.048
11
154.515
21
-105.944
0
LINE
8
BLACK
6
CONTINUOUS
10
154.515
20
-105.944
11
154.677
21
-105.872
0
LINE
8
BLACK
6
CONTINUOUS
10
154.677
20
-105.872
11
154.851
21
-105.835
0
LINE
8
BLACK
6
CONTINUOUS
10
154.851
20
-105.835
11
155.029
21
-105.835
0
LINE
8
BLACK
6
CONTINUOUS
10
155.029
20
-105.835
11
155.203
21
-105.872
0
LINE
8
BLACK
6
CONTINUOUS
10
152.757
20
-102.962
11
152.778
21
-102.929
0
LINE
8
BLACK
6
CONTINUOUS
10
152.778
20
-102.929
11
152.811
21
-102.908
0
LINE
8
BLACK
6
CONTINUOUS
10
152.811
20
-102.908
11
152.849
21
-102.9
0
LINE
8
BLACK
6
CONTINUOUS
10
152.849
20
-102.9
11
153.049
21
-102.9
0
LINE
8
BLACK
6
CONTINUOUS
10
153.049
20
-102.9
11
153.087
21
-102.908
0
LINE
8
BLACK
6
CONTINUOUS
10
153.087
20
-102.908
11
153.12
21
-102.929
0
LINE
8
BLACK
6
CONTINUOUS
10
153.12
20
-102.929
11
153.141
21
-102.962
0
LINE
8
BLACK
6
CONTINUOUS
10
153.141
20
-102.962
11
153.149
21
-103
0
LINE
8
BLACK
6
CONTINUOUS
10
153.149
20
-103
11
153.149
21
-104.499
0
LINE
8
BLACK
6
CONTINUOUS
10
153.149
20
-104.499
11
153.375
21
-104.725
0
LINE
8
BLACK
6
CONTINUOUS
10
153.375
20
-104.725
11
155.123
21
-104.725
0
LINE
8
BLACK
6
CONTINUOUS
10
155.123
20
-104.725
11
155.901
21
-103.947
0
LINE
8
BLACK
6
CONTINUOUS
10
155.901
20
-103.947
11
155.901
21
-103.553
0
LINE
8
BLACK
6
CONTINUOUS
10
155.901
20
-103.553
11
155.908
21
-103.52
0
LINE
8
BLACK
6
CONTINUOUS
10
155.908
20
-103.52
11
155.912
21
-103.487
0
LINE
8
BLACK
6
CONTINUOUS
10
155.912
20
-103.487
11
155.918
21
-103.477
0
LINE
8
BLACK
6
CONTINUOUS
10
155.918
20
-103.477
11
155.921
21
-103.466
0
LINE
8
BLACK
6
CONTINUOUS
10
155.921
20
-103.466
11
155.942
21
-103.44
0
LINE
8
BLACK
6
CONTINUOUS
10
155.942
20
-103.44
11
155.96
21
-103.412
0
LINE
8
BLACK
6
CONTINUOUS
10
155.96
20
-103.412
11
156.551
21
-102.82
0
LINE
8
BLACK
6
CONTINUOUS
10
156.551
20
-102.82
11
156.52
21
-102.774
0
LINE
8
BLACK
6
CONTINUOUS
10
156.52
20
-102.774
11
156.501
21
-102.678
0
LINE
8
BLACK
6
CONTINUOUS
10
156.501
20
-102.678
11
156.501
21
-102.178
0
LINE
8
BLACK
6
CONTINUOUS
10
156.501
20
-102.178
11
156.52
21
-102.082
0
LINE
8
BLACK
6
CONTINUOUS
10
156.52
20
-102.082
11
156.574
21
-102.001
0
LINE
8
BLACK
6
CONTINUOUS
10
156.574
20
-102.001
11
156.655
21
-101.947
0
LINE
8
BLACK
6
CONTINUOUS
10
156.655
20
-101.947
11
156.751
21
-101.928
0
LINE
8
BLACK
6
CONTINUOUS
10
156.751
20
-101.928
11
157.13
21
-101.928
0
LINE
8
BLACK
6
CONTINUOUS
10
157.13
20
-101.928
11
157.13
21
-100.767
0
LINE
8
BLACK
6
CONTINUOUS
10
157.13
20
-100.767
11
157.071
21
-100.727
0
LINE
8
BLACK
6
CONTINUOUS
10
157.071
20
-100.727
11
157.022
21
-100.654
0
LINE
8
BLACK
6
CONTINUOUS
10
157.022
20
-100.654
11
157.005
21
-100.568
0
LINE
8
BLACK
6
CONTINUOUS
10
157.005
20
-100.568
11
157.005
21
-100.543
0
LINE
8
BLACK
6
CONTINUOUS
10
157.005
20
-100.543
11
156.723
21
-100.543
0
LINE
8
BLACK
6
CONTINUOUS
10
156.723
20
-100.543
11
156.717
21
-100.581
0
LINE
8
BLACK
6
CONTINUOUS
10
156.717
20
-100.581
11
156.661
21
-100.692
0
LINE
8
BLACK
6
CONTINUOUS
10
156.661
20
-100.692
11
156.572
21
-100.781
0
LINE
8
BLACK
6
CONTINUOUS
10
156.572
20
-100.781
11
156.461
21
-100.837
0
LINE
8
BLACK
6
CONTINUOUS
10
156.461
20
-100.837
11
156.337
21
-100.857
0
LINE
8
BLACK
6
CONTINUOUS
10
156.337
20
-100.857
11
156.213
21
-100.837
0
LINE
8
BLACK
6
CONTINUOUS
10
156.213
20
-100.837
11
156.102
21
-100.781
0
LINE
8
BLACK
6
CONTINUOUS
10
156.102
20
-100.781
11
156.013
21
-100.692
0
LINE
8
BLACK
6
CONTINUOUS
10
156.013
20
-100.692
11
155.957
21
-100.581
0
LINE
8
BLACK
6
CONTINUOUS
10
155.957
20
-100.581
11
155.937
21
-100.457
0
LINE
8
BLACK
6
CONTINUOUS
10
155.937
20
-100.457
11
155.957
21
-100.333
0
LINE
8
BLACK
6
CONTINUOUS
10
155.957
20
-100.333
11
156.013
21
-100.222
0
LINE
8
BLACK
6
CONTINUOUS
10
156.013
20
-100.222
11
156.102
21
-100.133
0
LINE
8
BLACK
6
CONTINUOUS
10
156.102
20
-100.133
11
156.213
21
-100.077
0
LINE
8
BLACK
6
CONTINUOUS
10
156.213
20
-100.077
11
156.337
21
-100.057
0
LINE
8
BLACK
6
CONTINUOUS
10
156.337
20
-100.057
11
156.461
21
-100.077
0
LINE
8
BLACK
6
CONTINUOUS
10
156.461
20
-100.077
11
156.572
21
-100.133
0
LINE
8
BLACK
6
CONTINUOUS
10
156.572
20
-100.133
11
156.582
21
-100.143
0
LINE
8
BLACK
6
CONTINUOUS
10
156.582
20
-100.143
11
157.005
21
-100.143
0
LINE
8
BLACK
6
CONTINUOUS
10
157.005
20
-100.143
11
157.005
21
-100.118
0
LINE
8
BLACK
6
CONTINUOUS
10
157.005
20
-100.118
11
157.022
21
-100.032
0
LINE
8
BLACK
6
CONTINUOUS
10
157.022
20
-100.032
11
157.071
21
-99.9589
0
LINE
8
BLACK
6
CONTINUOUS
10
157.071
20
-99.9589
11
157.144
21
-99.9101
0
LINE
8
BLACK
6
CONTINUOUS
10
157.144
20
-99.9101
11
157.23
21
-99.893
0
LINE
8
BLACK
6
CONTINUOUS
10
157.23
20
-99.893
11
157.73
21
-99.893
0
LINE
8
BLACK
6
CONTINUOUS
10
157.73
20
-99.893
11
157.816
21
-99.9101
0
LINE
8
BLACK
6
CONTINUOUS
10
157.816
20
-99.9101
11
157.889
21
-99.9589
0
LINE
8
BLACK
6
CONTINUOUS
10
157.889
20
-99.9589
11
157.938
21
-100.032
0
LINE
8
BLACK
6
CONTINUOUS
10
157.938
20
-100.032
11
157.955
21
-100.118
0
LINE
8
BLACK
6
CONTINUOUS
10
157.955
20
-100.118
11
157.955
21
-100.568
0
LINE
8
BLACK
6
CONTINUOUS
10
157.955
20
-100.568
11
157.938
21
-100.654
0
LINE
8
BLACK
6
CONTINUOUS
10
157.938
20
-100.654
11
157.889
21
-100.727
0
LINE
8
BLACK
6
CONTINUOUS
10
157.889
20
-100.727
11
157.83
21
-100.767
0
LINE
8
BLACK
6
CONTINUOUS
10
157.83
20
-100.767
11
157.83
21
-101.969
0
LINE
8
BLACK
6
CONTINUOUS
10
157.83
20
-101.969
11
157.878
21
-102.001
0
LINE
8
BLACK
6
CONTINUOUS
10
157.878
20
-102.001
11
157.932
21
-102.082
0
LINE
8
BLACK
6
CONTINUOUS
10
157.932
20
-102.082
11
157.951
21
-102.178
0
LINE
8
BLACK
6
CONTINUOUS
10
157.951
20
-102.178
11
157.951
21
-102.678
0
LINE
8
BLACK
6
CONTINUOUS
10
157.951
20
-102.678
11
157.932
21
-102.774
0
LINE
8
BLACK
6
CONTINUOUS
10
157.932
20
-102.774
11
157.878
21
-102.855
0
LINE
8
BLACK
6
CONTINUOUS
10
157.878
20
-102.855
11
157.797
21
-102.909
0
LINE
8
BLACK
6
CONTINUOUS
10
157.797
20
-102.909
11
157.701
21
-102.928
0
LINE
8
BLACK
6
CONTINUOUS
10
157.701
20
-102.928
11
157.009
21
-102.928
0
LINE
8
BLACK
6
CONTINUOUS
10
157.009
20
-102.928
11
156.301
21
-103.636
0
LINE
8
BLACK
6
CONTINUOUS
10
156.301
20
-103.636
11
156.301
21
-104.03
0
LINE
8
BLACK
6
CONTINUOUS
10
156.301
20
-104.03
11
156.294
21
-104.063
0
LINE
8
BLACK
6
CONTINUOUS
10
156.294
20
-104.063
11
156.29
21
-104.096
0
LINE
8
BLACK
6
CONTINUOUS
10
156.29
20
-104.096
11
156.284
21
-104.106
0
LINE
8
BLACK
6
CONTINUOUS
10
156.284
20
-104.106
11
156.281
21
-104.117
0
LINE
8
BLACK
6
CONTINUOUS
10
156.281
20
-104.117
11
156.26
21
-104.143
0
LINE
8
BLACK
6
CONTINUOUS
10
156.26
20
-104.143
11
156.242
21
-104.172
0
LINE
8
BLACK
6
CONTINUOUS
10
156.242
20
-104.172
11
155.347
21
-105.067
0
LINE
8
BLACK
6
CONTINUOUS
10
155.347
20
-105.067
11
155.319
21
-105.084
0
LINE
8
BLACK
6
CONTINUOUS
10
155.319
20
-105.084
11
155.293
21
-105.105
0
LINE
8
BLACK
6
CONTINUOUS
10
155.293
20
-105.105
11
155.282
21
-105.108
0
LINE
8
BLACK
6
CONTINUOUS
10
155.282
20
-105.108
11
155.272
21
-105.114
0
LINE
8
BLACK
6
CONTINUOUS
10
155.272
20
-105.114
11
155.239
21
-105.118
0
LINE
8
BLACK
6
CONTINUOUS
10
155.239
20
-105.118
11
155.206
21
-105.125
0
LINE
8
BLACK
6
CONTINUOUS
10
155.206
20
-105.125
11
153.292
21
-105.125
0
LINE
8
BLACK
6
CONTINUOUS
10
153.292
20
-105.125
11
153.259
21
-105.118
0
LINE
8
BLACK
6
CONTINUOUS
10
153.259
20
-105.118
11
153.226
21
-105.114
0
LINE
8
BLACK
6
CONTINUOUS
10
153.226
20
-105.114
11
153.216
21
-105.108
0
LINE
8
BLACK
6
CONTINUOUS
10
153.216
20
-105.108
11
153.205
21
-105.105
0
LINE
8
BLACK
6
CONTINUOUS
10
153.205
20
-105.105
11
153.179
21
-105.084
0
LINE
8
BLACK
6
CONTINUOUS
10
153.179
20
-105.084
11
153.15
21
-105.066
0
LINE
8
BLACK
6
CONTINUOUS
10
153.15
20
-105.066
11
152.807
21
-104.723
0
LINE
8
BLACK
6
CONTINUOUS
10
152.807
20
-104.723
11
152.79
21
-104.695
0
LINE
8
BLACK
6
CONTINUOUS
10
152.79
20
-104.695
11
152.769
21
-104.669
0
LINE
8
BLACK
6
CONTINUOUS
10
152.769
20
-104.669
11
152.766
21
-104.658
0
LINE
8
BLACK
6
CONTINUOUS
10
152.766
20
-104.658
11
152.76
21
-104.648
0
LINE
8
BLACK
6
CONTINUOUS
10
152.76
20
-104.648
11
152.756
21
-104.615
0
LINE
8
BLACK
6
CONTINUOUS
10
152.756
20
-104.615
11
152.749
21
-104.582
0
LINE
8
BLACK
6
CONTINUOUS
10
152.749
20
-104.582
11
152.749
21
-103
0
LINE
8
BLACK
6
CONTINUOUS
10
152.749
20
-103
11
152.757
21
-102.962
0
LINE
8
BLACK
6
CONTINUOUS
10
144.929
20
-103.479
11
144.962
21
-103.5
0
LINE
8
BLACK
6
CONTINUOUS
10
144.962
20
-103.5
11
144.983
21
-103.533
0
LINE
8
BLACK
6
CONTINUOUS
10
144.983
20
-103.533
11
144.991
21
-103.571
0
LINE
8
BLACK
6
CONTINUOUS
10
144.991
20
-103.571
11
144.991
21
-104.846
0
LINE
8
BLACK
6
CONTINUOUS
10
144.991
20
-104.846
11
144.983
21
-104.884
0
LINE
8
BLACK
6
CONTINUOUS
10
144.983
20
-104.884
11
144.962
21
-104.917
0
LINE
8
BLACK
6
CONTINUOUS
10
144.962
20
-104.917
11
144.929
21
-104.938
0
LINE
8
BLACK
6
CONTINUOUS
10
144.929
20
-104.938
11
144.891
21
-104.946
0
LINE
8
BLACK
6
CONTINUOUS
10
144.891
20
-104.946
11
144.691
21
-104.946
0
LINE
8
BLACK
6
CONTINUOUS
10
144.691
20
-104.946
11
144.653
21
-104.938
0
LINE
8
BLACK
6
CONTINUOUS
10
144.653
20
-104.938
11
144.62
21
-104.917
0
LINE
8
BLACK
6
CONTINUOUS
10
144.62
20
-104.917
11
144.599
21
-104.884
0
LINE
8
BLACK
6
CONTINUOUS
10
144.599
20
-104.884
11
144.591
21
-104.846
0
LINE
8
BLACK
6
CONTINUOUS
10
144.591
20
-104.846
11
144.591
21
-103.571
0
LINE
8
BLACK
6
CONTINUOUS
10
144.591
20
-103.571
11
144.599
21
-103.533
0
LINE
8
BLACK
6
CONTINUOUS
10
144.599
20
-103.533
11
144.62
21
-103.5
0
LINE
8
BLACK
6
CONTINUOUS
10
144.62
20
-103.5
11
144.653
21
-103.479
0
LINE
8
BLACK
6
CONTINUOUS
10
144.653
20
-103.479
11
144.691
21
-103.471
0
LINE
8
BLACK
6
CONTINUOUS
10
144.691
20
-103.471
11
144.891
21
-103.471
0
LINE
8
BLACK
6
CONTINUOUS
10
144.891
20
-103.471
11
144.929
21
-103.479
0
LINE
8
BLACK
6
CONTINUOUS
10
141.576
20
-102.613
11
141.64
21
-102.657
0
LINE
8
BLACK
6
CONTINUOUS
10
141.64
20
-102.657
11
141.684
21
-102.721
0
LINE
8
BLACK
6
CONTINUOUS
10
141.684
20
-102.721
11
141.699
21
-102.798
0
LINE
8
BLACK
6
CONTINUOUS
10
141.699
20
-102.798
11
141.699
21
-103.19
0
LINE
8
BLACK
6
CONTINUOUS
10
141.699
20
-103.19
11
142.517
21
-104.008
0
LINE
8
BLACK
6
CONTINUOUS
10
142.517
20
-104.008
11
143.941
21
-104.008
0
LINE
8
BLACK
6
CONTINUOUS
10
143.941
20
-104.008
11
143.941
21
-103.571
0
LINE
8
BLACK
6
CONTINUOUS
10
143.941
20
-103.571
11
143.949
21
-103.533
0
LINE
8
BLACK
6
CONTINUOUS
10
143.949
20
-103.533
11
143.97
21
-103.5
0
LINE
8
BLACK
6
CONTINUOUS
10
143.97
20
-103.5
11
144.003
21
-103.479
0
LINE
8
BLACK
6
CONTINUOUS
10
144.003
20
-103.479
11
144.041
21
-103.471
0
LINE
8
BLACK
6
CONTINUOUS
10
144.041
20
-103.471
11
144.241
21
-103.471
0
LINE
8
BLACK
6
CONTINUOUS
10
144.241
20
-103.471
11
144.279
21
-103.479
0
LINE
8
BLACK
6
CONTINUOUS
10
144.279
20
-103.479
11
144.312
21
-103.5
0
LINE
8
BLACK
6
CONTINUOUS
10
144.312
20
-103.5
11
144.333
21
-103.533
0
LINE
8
BLACK
6
CONTINUOUS
10
144.333
20
-103.533
11
144.341
21
-103.571
0
LINE
8
BLACK
6
CONTINUOUS
10
144.341
20
-103.571
11
144.341
21
-104.846
0
LINE
8
BLACK
6
CONTINUOUS
10
144.341
20
-104.846
11
144.333
21
-104.884
0
LINE
8
BLACK
6
CONTINUOUS
10
144.333
20
-104.884
11
144.312
21
-104.917
0
LINE
8
BLACK
6
CONTINUOUS
10
144.312
20
-104.917
11
144.279
21
-104.938
0
LINE
8
BLACK
6
CONTINUOUS
10
144.279
20
-104.938
11
144.241
21
-104.946
0
LINE
8
BLACK
6
CONTINUOUS
10
144.241
20
-104.946
11
144.041
21
-104.946
0
LINE
8
BLACK
6
CONTINUOUS
10
144.041
20
-104.946
11
144.003
21
-104.938
0
LINE
8
BLACK
6
CONTINUOUS
10
144.003
20
-104.938
11
143.97
21
-104.917
0
LINE
8
BLACK
6
CONTINUOUS
10
143.97
20
-104.917
11
143.949
21
-104.884
0
LINE
8
BLACK
6
CONTINUOUS
10
143.949
20
-104.884
11
143.941
21
-104.846
0
LINE
8
BLACK
6
CONTINUOUS
10
143.941
20
-104.846
11
143.941
21
-104.408
0
LINE
8
BLACK
6
CONTINUOUS
10
143.941
20
-104.408
11
142.434
21
-104.408
0
LINE
8
BLACK
6
CONTINUOUS
10
142.434
20
-104.408
11
142.402
21
-104.401
0
LINE
8
BLACK
6
CONTINUOUS
10
142.402
20
-104.401
11
142.368
21
-104.397
0
LINE
8
BLACK
6
CONTINUOUS
10
142.368
20
-104.397
11
142.359
21
-104.391
0
LINE
8
BLACK
6
CONTINUOUS
10
142.359
20
-104.391
11
142.347
21
-104.389
0
LINE
8
BLACK
6
CONTINUOUS
10
142.347
20
-104.389
11
142.321
21
-104.368
0
LINE
8
BLACK
6
CONTINUOUS
10
142.321
20
-104.368
11
142.293
21
-104.35
0
LINE
8
BLACK
6
CONTINUOUS
10
142.293
20
-104.35
11
141.341
21
-103.398
0
LINE
8
BLACK
6
CONTINUOUS
10
141.341
20
-103.398
11
140.949
21
-103.398
0
LINE
8
BLACK
6
CONTINUOUS
10
140.949
20
-103.398
11
140.872
21
-103.383
0
LINE
8
BLACK
6
CONTINUOUS
10
140.872
20
-103.383
11
140.808
21
-103.339
0
LINE
8
BLACK
6
CONTINUOUS
10
140.808
20
-103.339
11
140.764
21
-103.275
0
LINE
8
BLACK
6
CONTINUOUS
10
140.764
20
-103.275
11
140.749
21
-103.198
0
LINE
8
BLACK
6
CONTINUOUS
10
140.749
20
-103.198
11
140.749
21
-102.798
0
LINE
8
BLACK
6
CONTINUOUS
10
140.749
20
-102.798
11
140.764
21
-102.721
0
LINE
8
BLACK
6
CONTINUOUS
10
140.764
20
-102.721
11
140.808
21
-102.657
0
LINE
8
BLACK
6
CONTINUOUS
10
140.808
20
-102.657
11
140.872
21
-102.613
0
LINE
8
BLACK
6
CONTINUOUS
10
140.872
20
-102.613
11
140.949
21
-102.598
0
LINE
8
BLACK
6
CONTINUOUS
10
140.949
20
-102.598
11
141.499
21
-102.598
0
LINE
8
BLACK
6
CONTINUOUS
10
141.499
20
-102.598
11
141.576
21
-102.613
0
LINE
8
BLACK
6
CONTINUOUS
10
145.579
20
-103.479
11
145.612
21
-103.5
0
LINE
8
BLACK
6
CONTINUOUS
10
145.612
20
-103.5
11
145.633
21
-103.533
0
LINE
8
BLACK
6
CONTINUOUS
10
145.633
20
-103.533
11
145.641
21
-103.571
0
LINE
8
BLACK
6
CONTINUOUS
10
145.641
20
-103.571
11
145.641
21
-104.846
0
LINE
8
BLACK
6
CONTINUOUS
10
145.641
20
-104.846
11
145.633
21
-104.884
0
LINE
8
BLACK
6
CONTINUOUS
10
145.633
20
-104.884
11
145.612
21
-104.917
0
LINE
8
BLACK
6
CONTINUOUS
10
145.612
20
-104.917
11
145.579
21
-104.938
0
LINE
8
BLACK
6
CONTINUOUS
10
145.579
20
-104.938
11
145.541
21
-104.946
0
LINE
8
BLACK
6
CONTINUOUS
10
145.541
20
-104.946
11
145.341
21
-104.946
0
LINE
8
BLACK
6
CONTINUOUS
10
145.341
20
-104.946
11
145.303
21
-104.938
0
LINE
8
BLACK
6
CONTINUOUS
10
145.303
20
-104.938
11
145.27
21
-104.917
0
LINE
8
BLACK
6
CONTINUOUS
10
145.27
20
-104.917
11
145.249
21
-104.884
0
LINE
8
BLACK
6
CONTINUOUS
10
145.249
20
-104.884
11
145.241
21
-104.846
0
LINE
8
BLACK
6
CONTINUOUS
10
145.241
20
-104.846
11
145.241
21
-103.571
0
LINE
8
BLACK
6
CONTINUOUS
10
145.241
20
-103.571
11
145.249
21
-103.533
0
LINE
8
BLACK
6
CONTINUOUS
10
145.249
20
-103.533
11
145.27
21
-103.5
0
LINE
8
BLACK
6
CONTINUOUS
10
145.27
20
-103.5
11
145.303
21
-103.479
0
LINE
8
BLACK
6
CONTINUOUS
10
145.303
20
-103.479
11
145.341
21
-103.471
0
LINE
8
BLACK
6
CONTINUOUS
10
145.341
20
-103.471
11
145.541
21
-103.471
0
LINE
8
BLACK
6
CONTINUOUS
10
145.541
20
-103.471
11
145.579
21
-103.479
0
LINE
8
BLACK
6
CONTINUOUS
10
146.283
20
-104.884
11
146.262
21
-104.917
0
LINE
8
BLACK
6
CONTINUOUS
10
146.262
20
-104.917
11
146.229
21
-104.938
0
LINE
8
BLACK
6
CONTINUOUS
10
146.229
20
-104.938
11
146.191
21
-104.946
0
LINE
8
BLACK
6
CONTINUOUS
10
146.191
20
-104.946
11
145.991
21
-104.946
0
LINE
8
BLACK
6
CONTINUOUS
10
145.991
20
-104.946
11
145.953
21
-104.938
0
LINE
8
BLACK
6
CONTINUOUS
10
145.953
20
-104.938
11
145.92
21
-104.917
0
LINE
8
BLACK
6
CONTINUOUS
10
145.92
20
-104.917
11
145.899
21
-104.884
0
LINE
8
BLACK
6
CONTINUOUS
10
145.899
20
-104.884
11
145.891
21
-104.846
0
LINE
8
BLACK
6
CONTINUOUS
10
145.891
20
-104.846
11
145.891
21
-103.497
0
LINE
8
BLACK
6
CONTINUOUS
10
145.891
20
-103.497
11
145.267
21
-102.872
0
LINE
8
BLACK
6
CONTINUOUS
10
145.267
20
-102.872
11
145.161
21
-102.889
0
LINE
8
BLACK
6
CONTINUOUS
10
145.161
20
-102.889
11
145.037
21
-102.869
0
LINE
8
BLACK
6
CONTINUOUS
10
145.037
20
-102.869
11
144.926
21
-102.813
0
LINE
8
BLACK
6
CONTINUOUS
10
144.926
20
-102.813
11
144.837
21
-102.724
0
LINE
8
BLACK
6
CONTINUOUS
10
144.837
20
-102.724
11
144.781
21
-102.613
0
LINE
8
BLACK
6
CONTINUOUS
10
144.781
20
-102.613
11
144.761
21
-102.489
0
LINE
8
BLACK
6
CONTINUOUS
10
144.761
20
-102.489
11
144.781
21
-102.365
0
LINE
8
BLACK
6
CONTINUOUS
10
144.781
20
-102.365
11
144.837
21
-102.254
0
LINE
8
BLACK
6
CONTINUOUS
10
144.837
20
-102.254
11
144.926
21
-102.165
0
LINE
8
BLACK
6
CONTINUOUS
10
144.926
20
-102.165
11
145.037
21
-102.109
0
LINE
8
BLACK
6
CONTINUOUS
10
145.037
20
-102.109
11
145.161
21
-102.089
0
LINE
8
BLACK
6
CONTINUOUS
10
145.161
20
-102.089
11
145.285
21
-102.109
0
LINE
8
BLACK
6
CONTINUOUS
10
145.285
20
-102.109
11
145.396
21
-102.165
0
LINE
8
BLACK
6
CONTINUOUS
10
145.396
20
-102.165
11
145.485
21
-102.254
0
LINE
8
BLACK
6
CONTINUOUS
10
145.485
20
-102.254
11
145.541
21
-102.365
0
LINE
8
BLACK
6
CONTINUOUS
10
145.541
20
-102.365
11
145.561
21
-102.489
0
LINE
8
BLACK
6
CONTINUOUS
10
145.561
20
-102.489
11
145.546
21
-102.586
0
LINE
8
BLACK
6
CONTINUOUS
10
145.546
20
-102.586
11
146.233
21
-103.273
0
LINE
8
BLACK
6
CONTINUOUS
10
146.233
20
-103.273
11
146.25
21
-103.301
0
LINE
8
BLACK
6
CONTINUOUS
10
146.25
20
-103.301
11
146.271
21
-103.327
0
LINE
8
BLACK
6
CONTINUOUS
10
146.271
20
-103.327
11
146.274
21
-103.338
0
LINE
8
BLACK
6
CONTINUOUS
10
146.274
20
-103.338
11
146.28
21
-103.348
0
LINE
8
BLACK
6
CONTINUOUS
10
146.28
20
-103.348
11
146.284
21
-103.381
0
LINE
8
BLACK
6
CONTINUOUS
10
146.284
20
-103.381
11
146.291
21
-103.414
0
LINE
8
BLACK
6
CONTINUOUS
10
146.291
20
-103.414
11
146.291
21
-104.846
0
LINE
8
BLACK
6
CONTINUOUS
10
146.291
20
-104.846
11
146.283
21
-104.884
0
LINE
8
BLACK
6
CONTINUOUS
10
148.233
20
-104.884
11
148.212
21
-104.917
0
LINE
8
BLACK
6
CONTINUOUS
10
148.212
20
-104.917
11
148.179
21
-104.938
0
LINE
8
BLACK
6
CONTINUOUS
10
148.179
20
-104.938
11
148.141
21
-104.946
0
LINE
8
BLACK
6
CONTINUOUS
10
148.141
20
-104.946
11
147.941
21
-104.946
0
LINE
8
BLACK
6
CONTINUOUS
10
147.941
20
-104.946
11
147.903
21
-104.938
0
LINE
8
BLACK
6
CONTINUOUS
10
147.903
20
-104.938
11
147.87
21
-104.917
0
LINE
8
BLACK
6
CONTINUOUS
10
147.87
20
-104.917
11
147.849
21
-104.884
0
LINE
8
BLACK
6
CONTINUOUS
10
147.849
20
-104.884
11
147.841
21
-104.846
0
LINE
8
BLACK
6
CONTINUOUS
10
147.841
20
-104.846
11
147.841
21
-103.038
0
LINE
8
BLACK
6
CONTINUOUS
10
147.841
20
-103.038
11
147.848
21
-103.005
0
LINE
8
BLACK
6
CONTINUOUS
10
147.848
20
-103.005
11
147.852
21
-102.972
0
LINE
8
BLACK
6
CONTINUOUS
10
147.852
20
-102.972
11
147.858
21
-102.962
0
LINE
8
BLACK
6
CONTINUOUS
10
147.858
20
-102.962
11
147.861
21
-102.951
0
LINE
8
BLACK
6
CONTINUOUS
10
147.861
20
-102.951
11
147.882
21
-102.925
0
LINE
8
BLACK
6
CONTINUOUS
10
147.882
20
-102.925
11
147.9
21
-102.897
0
LINE
8
BLACK
6
CONTINUOUS
10
147.9
20
-102.897
11
148.079
21
-102.717
0
LINE
8
BLACK
6
CONTINUOUS
10
148.079
20
-102.717
11
148.063
21
-102.616
0
LINE
8
BLACK
6
CONTINUOUS
10
148.063
20
-102.616
11
148.083
21
-102.492
0
LINE
8
BLACK
6
CONTINUOUS
10
148.083
20
-102.492
11
148.139
21
-102.381
0
LINE
8
BLACK
6
CONTINUOUS
10
148.139
20
-102.381
11
148.228
21
-102.292
0
LINE
8
BLACK
6
CONTINUOUS
10
148.228
20
-102.292
11
148.339
21
-102.236
0
LINE
8
BLACK
6
CONTINUOUS
10
148.339
20
-102.236
11
148.463
21
-102.216
0
LINE
8
BLACK
6
CONTINUOUS
10
148.463
20
-102.216
11
148.587
21
-102.236
0
LINE
8
BLACK
6
CONTINUOUS
10
148.587
20
-102.236
11
148.698
21
-102.292
0
LINE
8
BLACK
6
CONTINUOUS
10
148.698
20
-102.292
11
148.787
21
-102.381
0
LINE
8
BLACK
6
CONTINUOUS
10
148.787
20
-102.381
11
148.843
21
-102.492
0
LINE
8
BLACK
6
CONTINUOUS
10
148.843
20
-102.492
11
148.863
21
-102.616
0
LINE
8
BLACK
6
CONTINUOUS
10
148.863
20
-102.616
11
148.843
21
-102.74
0
LINE
8
BLACK
6
CONTINUOUS
10
148.843
20
-102.74
11
148.787
21
-102.851
0
LINE
8
BLACK
6
CONTINUOUS
10
148.787
20
-102.851
11
148.698
21
-102.94
0
LINE
8
BLACK
6
CONTINUOUS
10
148.698
20
-102.94
11
148.587
21
-102.996
0
LINE
8
BLACK
6
CONTINUOUS
10
148.587
20
-102.996
11
148.463
21
-103.016
0
LINE
8
BLACK
6
CONTINUOUS
10
148.463
20
-103.016
11
148.362
21
-103
0
LINE
8
BLACK
6
CONTINUOUS
10
148.362
20
-103
11
148.241
21
-103.121
0
LINE
8
BLACK
6
CONTINUOUS
10
148.241
20
-103.121
11
148.241
21
-104.846
0
LINE
8
BLACK
6
CONTINUOUS
10
148.241
20
-104.846
11
148.233
21
-104.884
0
LINE
8
BLACK
6
CONTINUOUS
10
146.933
20
-104.884
11
146.912
21
-104.917
0
LINE
8
BLACK
6
CONTINUOUS
10
146.912
20
-104.917
11
146.879
21
-104.938
0
LINE
8
BLACK
6
CONTINUOUS
10
146.879
20
-104.938
11
146.841
21
-104.946
0
LINE
8
BLACK
6
CONTINUOUS
10
146.841
20
-104.946
11
146.641
21
-104.946
0
LINE
8
BLACK
6
CONTINUOUS
10
146.641
20
-104.946
11
146.603
21
-104.938
0
LINE
8
BLACK
6
CONTINUOUS
10
146.603
20
-104.938
11
146.57
21
-104.917
0
LINE
8
BLACK
6
CONTINUOUS
10
146.57
20
-104.917
11
146.549
21
-104.884
0
LINE
8
BLACK
6
CONTINUOUS
10
146.549
20
-104.884
11
146.541
21
-104.846
0
LINE
8
BLACK
6
CONTINUOUS
10
146.541
20
-104.846
11
146.541
21
-102.628
0
LINE
8
BLACK
6
CONTINUOUS
10
146.541
20
-102.628
11
145.459
21
-101.546
0
LINE
8
BLACK
6
CONTINUOUS
10
145.459
20
-101.546
11
141.224
21
-101.546
0
LINE
8
BLACK
6
CONTINUOUS
10
141.224
20
-101.546
11
141.191
21
-101.539
0
LINE
8
BLACK
6
CONTINUOUS
10
141.191
20
-101.539
11
141.158
21
-101.535
0
LINE
8
BLACK
6
CONTINUOUS
10
141.158
20
-101.535
11
141.148
21
-101.529
0
LINE
8
BLACK
6
CONTINUOUS
10
141.148
20
-101.529
11
141.137
21
-101.526
0
LINE
8
BLACK
6
CONTINUOUS
10
141.137
20
-101.526
11
141.111
21
-101.505
0
LINE
8
BLACK
6
CONTINUOUS
10
141.111
20
-101.505
11
141.083
21
-101.487
0
LINE
8
BLACK
6
CONTINUOUS
10
141.083
20
-101.487
11
139.288
21
-99.6928
0
LINE
8
BLACK
6
CONTINUOUS
10
139.288
20
-99.6928
11
139.288
21
-102.248
0
LINE
8
BLACK
6
CONTINUOUS
10
139.288
20
-102.248
11
139.413
21
-102.248
0
LINE
8
BLACK
6
CONTINUOUS
10
139.413
20
-102.248
11
139.509
21
-102.267
0
LINE
8
BLACK
6
CONTINUOUS
10
139.509
20
-102.267
11
139.59
21
-102.321
0
LINE
8
BLACK
6
CONTINUOUS
10
139.59
20
-102.321
11
139.644
21
-102.402
0
LINE
8
BLACK
6
CONTINUOUS
10
139.644
20
-102.402
11
139.663
21
-102.498
0
LINE
8
BLACK
6
CONTINUOUS
10
139.663
20
-102.498
11
139.663
21
-102.998
0
LINE
8
BLACK
6
CONTINUOUS
10
139.663
20
-102.998
11
139.644
21
-103.094
0
LINE
8
BLACK
6
CONTINUOUS
10
139.644
20
-103.094
11
139.59
21
-103.175
0
LINE
8
BLACK
6
CONTINUOUS
10
139.59
20
-103.175
11
139.509
21
-103.229
0
LINE
8
BLACK
6
CONTINUOUS
10
139.509
20
-103.229
11
139.413
21
-103.248
0
LINE
8
BLACK
6
CONTINUOUS
10
139.413
20
-103.248
11
138.463
21
-103.248
0
LINE
8
BLACK
6
CONTINUOUS
10
138.463
20
-103.248
11
138.367
21
-103.229
0
LINE
8
BLACK
6
CONTINUOUS
10
138.367
20
-103.229
11
138.286
21
-103.175
0
LINE
8
BLACK
6
CONTINUOUS
10
138.286
20
-103.175
11
138.232
21
-103.094
0
LINE
8
BLACK
6
CONTINUOUS
10
138.232
20
-103.094
11
138.213
21
-102.998
0
LINE
8
BLACK
6
CONTINUOUS
10
138.213
20
-102.998
11
138.213
21
-102.518
0
LINE
8
BLACK
6
CONTINUOUS
10
138.213
20
-102.518
11
136.625
21
-100.93
0
LINE
8
BLACK
6
CONTINUOUS
10
136.625
20
-100.93
11
136.48
21
-100.93
0
LINE
8
BLACK
6
CONTINUOUS
10
136.48
20
-100.93
11
136.396
21
-100.913
0
LINE
8
BLACK
6
CONTINUOUS
10
136.396
20
-100.913
11
136.325
21
-100.866
0
LINE
8
BLACK
6
CONTINUOUS
10
136.325
20
-100.866
11
136.278
21
-100.795
0
LINE
8
BLACK
6
CONTINUOUS
10
136.278
20
-100.795
11
136.261
21
-100.711
0
LINE
8
BLACK
6
CONTINUOUS
10
136.261
20
-100.711
11
136.261
21
-99.9487
0
LINE
8
BLACK
6
CONTINUOUS
10
136.261
20
-99.9487
11
136.278
21
-99.865
0
LINE
8
BLACK
6
CONTINUOUS
10
136.278
20
-99.865
11
136.325
21
-99.7941
0
LINE
8
BLACK
6
CONTINUOUS
10
136.325
20
-99.7941
11
136.396
21
-99.7467
0
LINE
8
BLACK
6
CONTINUOUS
10
136.396
20
-99.7467
11
136.48
21
-99.73
0
LINE
8
BLACK
6
CONTINUOUS
10
136.48
20
-99.73
11
136.917
21
-99.73
0
LINE
8
BLACK
6
CONTINUOUS
10
136.917
20
-99.73
11
137.001
21
-99.7467
0
LINE
8
BLACK
6
CONTINUOUS
10
137.001
20
-99.7467
11
137.072
21
-99.7941
0
LINE
8
BLACK
6
CONTINUOUS
10
137.072
20
-99.7941
11
137.119
21
-99.865
0
LINE
8
BLACK
6
CONTINUOUS
10
137.119
20
-99.865
11
137.136
21
-99.9487
0
LINE
8
BLACK
6
CONTINUOUS
10
137.136
20
-99.9487
11
137.136
21
-100.451
0
LINE
8
BLACK
6
CONTINUOUS
10
137.136
20
-100.451
11
138.588
21
-101.903
0
LINE
8
BLACK
6
CONTINUOUS
10
138.588
20
-101.903
11
138.588
21
-99.4836
0
LINE
8
BLACK
6
CONTINUOUS
10
138.588
20
-99.4836
11
138.529
21
-99.4441
0
LINE
8
BLACK
6
CONTINUOUS
10
138.529
20
-99.4441
11
138.48
21
-99.3711
0
LINE
8
BLACK
6
CONTINUOUS
10
138.48
20
-99.3711
11
138.463
21
-99.285
0
LINE
8
BLACK
6
CONTINUOUS
10
138.463
20
-99.285
11
138.463
21
-98.835
0
LINE
8
BLACK
6
CONTINUOUS
10
138.463
20
-98.835
11
138.48
21
-98.7489
0
LINE
8
BLACK
6
CONTINUOUS
10
138.48
20
-98.7489
11
138.529
21
-98.6759
0
LINE
8
BLACK
6
CONTINUOUS
10
138.529
20
-98.6759
11
138.602
21
-98.6271
0
LINE
8
BLACK
6
CONTINUOUS
10
138.602
20
-98.6271
11
138.688
21
-98.61
0
LINE
8
BLACK
6
CONTINUOUS
10
138.688
20
-98.61
11
139.188
21
-98.61
0
LINE
8
BLACK
6
CONTINUOUS
10
139.188
20
-98.61
11
139.274
21
-98.6271
0
LINE
8
BLACK
6
CONTINUOUS
10
139.274
20
-98.6271
11
139.347
21
-98.6759
0
LINE
8
BLACK
6
CONTINUOUS
10
139.347
20
-98.6759
11
139.396
21
-98.7489
0
LINE
8
BLACK
6
CONTINUOUS
10
139.396
20
-98.7489
11
139.413
21
-98.835
0
LINE
8
BLACK
6
CONTINUOUS
10
139.413
20
-98.835
11
139.413
21
-99.2522
0
LINE
8
BLACK
6
CONTINUOUS
10
139.413
20
-99.2522
11
141.307
21
-101.146
0
LINE
8
BLACK
6
CONTINUOUS
10
141.307
20
-101.146
11
145.542
21
-101.146
0
LINE
8
BLACK
6
CONTINUOUS
10
145.542
20
-101.146
11
145.575
21
-101.153
0
LINE
8
BLACK
6
CONTINUOUS
10
145.575
20
-101.153
11
145.608
21
-101.157
0
LINE
8
BLACK
6
CONTINUOUS
10
145.608
20
-101.157
11
145.618
21
-101.163
0
LINE
8
BLACK
6
CONTINUOUS
10
145.618
20
-101.163
11
145.629
21
-101.166
0
LINE
8
BLACK
6
CONTINUOUS
10
145.629
20
-101.166
11
145.655
21
-101.187
0
LINE
8
BLACK
6
CONTINUOUS
10
145.655
20
-101.187
11
145.683
21
-101.205
0
LINE
8
BLACK
6
CONTINUOUS
10
145.683
20
-101.205
11
146.883
21
-102.404
0
LINE
8
BLACK
6
CONTINUOUS
10
146.883
20
-102.404
11
146.9
21
-102.432
0
LINE
8
BLACK
6
CONTINUOUS
10
146.9
20
-102.432
11
146.921
21
-102.458
0
LINE
8
BLACK
6
CONTINUOUS
10
146.921
20
-102.458
11
146.924
21
-102.469
0
LINE
8
BLACK
6
CONTINUOUS
10
146.924
20
-102.469
11
146.93
21
-102.479
0
LINE
8
BLACK
6
CONTINUOUS
10
146.93
20
-102.479
11
146.934
21
-102.512
0
LINE
8
BLACK
6
CONTINUOUS
10
146.934
20
-102.512
11
146.941
21
-102.545
0
LINE
8
BLACK
6
CONTINUOUS
10
146.941
20
-102.545
11
146.941
21
-104.846
0
LINE
8
BLACK
6
CONTINUOUS
10
146.941
20
-104.846
11
146.933
21
-104.884
0
LINE
8
BLACK
6
CONTINUOUS
10
153.791
20
-104.463
11
153.77
21
-104.496
0
LINE
8
BLACK
6
CONTINUOUS
10
153.77
20
-104.496
11
153.737
21
-104.517
0
LINE
8
BLACK
6
CONTINUOUS
10
153.737
20
-104.517
11
153.699
21
-104.525
0
LINE
8
BLACK
6
CONTINUOUS
10
153.699
20
-104.525
11
153.499
21
-104.525
0
LINE
8
BLACK
6
CONTINUOUS
10
153.499
20
-104.525
11
153.461
21
-104.517
0
LINE
8
BLACK
6
CONTINUOUS
10
153.461
20
-104.517
11
153.428
21
-104.496
0
LINE
8
BLACK
6
CONTINUOUS
10
153.428
20
-104.496
11
153.407
21
-104.463
0
LINE
8
BLACK
6
CONTINUOUS
10
153.407
20
-104.463
11
153.399
21
-104.425
0
LINE
8
BLACK
6
CONTINUOUS
10
153.399
20
-104.425
11
153.399
21
-102.926
0
LINE
8
BLACK
6
CONTINUOUS
10
153.399
20
-102.926
11
153.162
21
-102.689
0
LINE
8
BLACK
6
CONTINUOUS
10
153.162
20
-102.689
11
150.578
21
-102.689
0
LINE
8
BLACK
6
CONTINUOUS
10
150.578
20
-102.689
11
150.191
21
-103.076
0
LINE
8
BLACK
6
CONTINUOUS
10
150.191
20
-103.076
11
150.191
21
-104.846
0
LINE
8
BLACK
6
CONTINUOUS
10
150.191
20
-104.846
11
150.183
21
-104.884
0
LINE
8
BLACK
6
CONTINUOUS
10
150.183
20
-104.884
11
150.162
21
-104.917
0
LINE
8
BLACK
6
CONTINUOUS
10
150.162
20
-104.917
11
150.129
21
-104.938
0
LINE
8
BLACK
6
CONTINUOUS
10
150.129
20
-104.938
11
150.091
21
-104.946
0
LINE
8
BLACK
6
CONTINUOUS
10
150.091
20
-104.946
11
149.891
21
-104.946
0
LINE
8
BLACK
6
CONTINUOUS
10
149.891
20
-104.946
11
149.853
21
-104.938
0
LINE
8
BLACK
6
CONTINUOUS
10
149.853
20
-104.938
11
149.82
21
-104.917
0
LINE
8
BLACK
6
CONTINUOUS
10
149.82
20
-104.917
11
149.799
21
-104.884
0
LINE
8
BLACK
6
CONTINUOUS
10
149.799
20
-104.884
11
149.791
21
-104.846
0
LINE
8
BLACK
6
CONTINUOUS
10
149.791
20
-104.846
11
149.791
21
-102.993
0
LINE
8
BLACK
6
CONTINUOUS
10
149.791
20
-102.993
11
149.798
21
-102.96
0
LINE
8
BLACK
6
CONTINUOUS
10
149.798
20
-102.96
11
149.802
21
-102.927
0
LINE
8
BLACK
6
CONTINUOUS
10
149.802
20
-102.927
11
149.808
21
-102.917
0
LINE
8
BLACK
6
CONTINUOUS
10
149.808
20
-102.917
11
149.811
21
-102.906
0
LINE
8
BLACK
6
CONTINUOUS
10
149.811
20
-102.906
11
149.832
21
-102.88
0
LINE
8
BLACK
6
CONTINUOUS
10
149.832
20
-102.88
11
149.85
21
-102.852
0
LINE
8
BLACK
6
CONTINUOUS
10
149.85
20
-102.852
11
150.354
21
-102.347
0
LINE
8
BLACK
6
CONTINUOUS
10
150.354
20
-102.347
11
150.382
21
-102.33
0
LINE
8
BLACK
6
CONTINUOUS
10
150.382
20
-102.33
11
150.408
21
-102.309
0
LINE
8
BLACK
6
CONTINUOUS
10
150.408
20
-102.309
11
150.419
21
-102.306
0
LINE
8
BLACK
6
CONTINUOUS
10
150.419
20
-102.306
11
150.429
21
-102.3
0
LINE
8
BLACK
6
CONTINUOUS
10
150.429
20
-102.3
11
150.462
21
-102.296
0
LINE
8
BLACK
6
CONTINUOUS
10
150.462
20
-102.296
11
150.495
21
-102.289
0
LINE
8
BLACK
6
CONTINUOUS
10
150.495
20
-102.289
11
153.245
21
-102.289
0
LINE
8
BLACK
6
CONTINUOUS
10
153.245
20
-102.289
11
153.278
21
-102.296
0
LINE
8
BLACK
6
CONTINUOUS
10
153.278
20
-102.296
11
153.311
21
-102.3
0
LINE
8
BLACK
6
CONTINUOUS
10
153.311
20
-102.3
11
153.321
21
-102.306
0
LINE
8
BLACK
6
CONTINUOUS
10
153.321
20
-102.306
11
153.332
21
-102.309
0
LINE
8
BLACK
6
CONTINUOUS
10
153.332
20
-102.309
11
153.358
21
-102.33
0
LINE
8
BLACK
6
CONTINUOUS
10
153.358
20
-102.33
11
153.387
21
-102.348
0
LINE
8
BLACK
6
CONTINUOUS
10
153.387
20
-102.348
11
153.741
21
-102.702
0
LINE
8
BLACK
6
CONTINUOUS
10
153.741
20
-102.702
11
153.758
21
-102.73
0
LINE
8
BLACK
6
CONTINUOUS
10
153.758
20
-102.73
11
153.779
21
-102.756
0
LINE
8
BLACK
6
CONTINUOUS
10
153.779
20
-102.756
11
153.782
21
-102.767
0
LINE
8
BLACK
6
CONTINUOUS
10
153.782
20
-102.767
11
153.788
21
-102.777
0
LINE
8
BLACK
6
CONTINUOUS
10
153.788
20
-102.777
11
153.792
21
-102.81
0
LINE
8
BLACK
6
CONTINUOUS
10
153.792
20
-102.81
11
153.799
21
-102.843
0
LINE
8
BLACK
6
CONTINUOUS
10
153.799
20
-102.843
11
153.799
21
-104.425
0
LINE
8
BLACK
6
CONTINUOUS
10
153.799
20
-104.425
11
153.791
21
-104.463
0
LINE
8
BLACK
6
CONTINUOUS
10
151.086
20
-101.527
11
153.272
21
-101.527
0
LINE
8
BLACK
6
CONTINUOUS
10
153.272
20
-101.527
11
153.305
21
-101.534
0
LINE
8
BLACK
6
CONTINUOUS
10
153.305
20
-101.534
11
153.338
21
-101.538
0
LINE
8
BLACK
6
CONTINUOUS
10
153.338
20
-101.538
11
153.348
21
-101.544
0
LINE
8
BLACK
6
CONTINUOUS
10
153.348
20
-101.544
11
153.359
21
-101.547
0
LINE
8
BLACK
6
CONTINUOUS
10
153.359
20
-101.547
11
153.385
21
-101.568
0
LINE
8
BLACK
6
CONTINUOUS
10
153.385
20
-101.568
11
153.413
21
-101.586
0
LINE
8
BLACK
6
CONTINUOUS
10
153.413
20
-101.586
11
153.528
21
-101.7
0
LINE
8
BLACK
6
CONTINUOUS
10
153.528
20
-101.7
11
153.716
21
-101.7
0
LINE
8
BLACK
6
CONTINUOUS
10
153.716
20
-101.7
11
153.749
21
-101.708
0
LINE
8
BLACK
6
CONTINUOUS
10
153.749
20
-101.708
11
153.782
21
-101.711
0
LINE
8
BLACK
6
CONTINUOUS
10
153.782
20
-101.711
11
153.792
21
-101.717
0
LINE
8
BLACK
6
CONTINUOUS
10
153.792
20
-101.717
11
153.803
21
-101.72
0
LINE
8
BLACK
6
CONTINUOUS
10
153.803
20
-101.72
11
153.829
21
-101.741
0
LINE
8
BLACK
6
CONTINUOUS
10
153.829
20
-101.741
11
153.857
21
-101.759
0
LINE
8
BLACK
6
CONTINUOUS
10
153.857
20
-101.759
11
154.391
21
-102.292
0
LINE
8
BLACK
6
CONTINUOUS
10
154.391
20
-102.292
11
154.408
21
-102.32
0
LINE
8
BLACK
6
CONTINUOUS
10
154.408
20
-102.32
11
154.429
21
-102.346
0
LINE
8
BLACK
6
CONTINUOUS
10
154.429
20
-102.346
11
154.432
21
-102.357
0
LINE
8
BLACK
6
CONTINUOUS
10
154.432
20
-102.357
11
154.438
21
-102.367
0
LINE
8
BLACK
6
CONTINUOUS
10
154.438
20
-102.367
11
154.442
21
-102.4
0
LINE
8
BLACK
6
CONTINUOUS
10
154.442
20
-102.4
11
154.449
21
-102.433
0
LINE
8
BLACK
6
CONTINUOUS
10
154.449
20
-102.433
11
154.449
21
-104.425
0
LINE
8
BLACK
6
CONTINUOUS
10
154.449
20
-104.425
11
154.441
21
-104.463
0
LINE
8
BLACK
6
CONTINUOUS
10
154.441
20
-104.463
11
154.42
21
-104.496
0
LINE
8
BLACK
6
CONTINUOUS
10
154.42
20
-104.496
11
154.387
21
-104.517
0
LINE
8
BLACK
6
CONTINUOUS
10
154.387
20
-104.517
11
154.349
21
-104.525
0
LINE
8
BLACK
6
CONTINUOUS
10
154.349
20
-104.525
11
154.149
21
-104.525
0
LINE
8
BLACK
6
CONTINUOUS
10
154.149
20
-104.525
11
154.111
21
-104.517
0
LINE
8
BLACK
6
CONTINUOUS
10
154.111
20
-104.517
11
154.078
21
-104.496
0
LINE
8
BLACK
6
CONTINUOUS
10
154.078
20
-104.496
11
154.057
21
-104.463
0
LINE
8
BLACK
6
CONTINUOUS
10
154.057
20
-104.463
11
154.049
21
-104.425
0
LINE
8
BLACK
6
CONTINUOUS
10
154.049
20
-104.425
11
154.049
21
-102.516
0
LINE
8
BLACK
6
CONTINUOUS
10
154.049
20
-102.516
11
153.633
21
-102.1
0
LINE
8
BLACK
6
CONTINUOUS
10
153.633
20
-102.1
11
153.444
21
-102.1
0
LINE
8
BLACK
6
CONTINUOUS
10
153.444
20
-102.1
11
153.412
21
-102.093
0
LINE
8
BLACK
6
CONTINUOUS
10
153.412
20
-102.093
11
153.379
21
-102.089
0
LINE
8
BLACK
6
CONTINUOUS
10
153.379
20
-102.089
11
153.369
21
-102.083
0
LINE
8
BLACK
6
CONTINUOUS
10
153.369
20
-102.083
11
153.358
21
-102.08
0
LINE
8
BLACK
6
CONTINUOUS
10
153.358
20
-102.08
11
153.332
21
-102.059
0
LINE
8
BLACK
6
CONTINUOUS
10
153.332
20
-102.059
11
153.303
21
-102.041
0
LINE
8
BLACK
6
CONTINUOUS
10
153.303
20
-102.041
11
153.189
21
-101.927
0
LINE
8
BLACK
6
CONTINUOUS
10
153.189
20
-101.927
11
151.003
21
-101.927
0
LINE
8
BLACK
6
CONTINUOUS
10
151.003
20
-101.927
11
150.97
21
-101.92
0
LINE
8
BLACK
6
CONTINUOUS
10
150.97
20
-101.92
11
150.937
21
-101.916
0
LINE
8
BLACK
6
CONTINUOUS
10
150.937
20
-101.916
11
150.927
21
-101.91
0
LINE
8
BLACK
6
CONTINUOUS
10
150.927
20
-101.91
11
150.916
21
-101.907
0
LINE
8
BLACK
6
CONTINUOUS
10
150.916
20
-101.907
11
150.89
21
-101.886
0
LINE
8
BLACK
6
CONTINUOUS
10
150.89
20
-101.886
11
150.862
21
-101.868
0
LINE
8
BLACK
6
CONTINUOUS
10
150.862
20
-101.868
11
149.849
21
-100.856
0
LINE
8
BLACK
6
CONTINUOUS
10
149.849
20
-100.856
11
149.832
21
-100.828
0
LINE
8
BLACK
6
CONTINUOUS
10
149.832
20
-100.828
11
149.811
21
-100.802
0
LINE
8
BLACK
6
CONTINUOUS
10
149.811
20
-100.802
11
149.808
21
-100.791
0
LINE
8
BLACK
6
CONTINUOUS
10
149.808
20
-100.791
11
149.802
21
-100.781
0
LINE
8
BLACK
6
CONTINUOUS
10
149.802
20
-100.781
11
149.798
21
-100.748
0
LINE
8
BLACK
6
CONTINUOUS
10
149.798
20
-100.748
11
149.791
21
-100.715
0
LINE
8
BLACK
6
CONTINUOUS
10
149.791
20
-100.715
11
149.791
21
-97.846
0
LINE
8
BLACK
6
CONTINUOUS
10
149.791
20
-97.846
11
149.799
21
-97.8077
0
LINE
8
BLACK
6
CONTINUOUS
10
149.799
20
-97.8077
11
149.82
21
-97.7753
0
LINE
8
BLACK
6
CONTINUOUS
10
149.82
20
-97.7753
11
149.853
21
-97.7536
0
LINE
8
BLACK
6
CONTINUOUS
10
149.853
20
-97.7536
11
149.891
21
-97.746
0
LINE
8
BLACK
6
CONTINUOUS
10
149.891
20
-97.746
11
150.091
21
-97.746
0
LINE
8
BLACK
6
CONTINUOUS
10
150.091
20
-97.746
11
150.129
21
-97.7536
0
LINE
8
BLACK
6
CONTINUOUS
10
150.129
20
-97.7536
11
150.162
21
-97.7753
0
LINE
8
BLACK
6
CONTINUOUS
10
150.162
20
-97.7753
11
150.183
21
-97.8077
0
LINE
8
BLACK
6
CONTINUOUS
10
150.183
20
-97.8077
11
150.191
21
-97.846
0
LINE
8
BLACK
6
CONTINUOUS
10
150.191
20
-97.846
11
150.191
21
-100.632
0
LINE
8
BLACK
6
CONTINUOUS
10
150.191
20
-100.632
11
151.086
21
-101.527
0
LINE
8
BLACK
6
CONTINUOUS
10
155.091
20
-104.463
11
155.07
21
-104.496
0
LINE
8
BLACK
6
CONTINUOUS
10
155.07
20
-104.496
11
155.037
21
-104.517
0
LINE
8
BLACK
6
CONTINUOUS
10
155.037
20
-104.517
11
154.999
21
-104.525
0
LINE
8
BLACK
6
CONTINUOUS
10
154.999
20
-104.525
11
154.799
21
-104.525
0
LINE
8
BLACK
6
CONTINUOUS
10
154.799
20
-104.525
11
154.761
21
-104.517
0
LINE
8
BLACK
6
CONTINUOUS
10
154.761
20
-104.517
11
154.728
21
-104.496
0
LINE
8
BLACK
6
CONTINUOUS
10
154.728
20
-104.496
11
154.707
21
-104.463
0
LINE
8
BLACK
6
CONTINUOUS
10
154.707
20
-104.463
11
154.699
21
-104.425
0
LINE
8
BLACK
6
CONTINUOUS
10
154.699
20
-104.425
11
154.699
21
-102.317
0
LINE
8
BLACK
6
CONTINUOUS
10
154.699
20
-102.317
11
153.882
21
-101.5
0
LINE
8
BLACK
6
CONTINUOUS
10
153.882
20
-101.5
11
153.693
21
-101.5
0
LINE
8
BLACK
6
CONTINUOUS
10
153.693
20
-101.5
11
153.66
21
-101.493
0
LINE
8
BLACK
6
CONTINUOUS
10
153.66
20
-101.493
11
153.627
21
-101.489
0
LINE
8
BLACK
6
CONTINUOUS
10
153.627
20
-101.489
11
153.618
21
-101.483
0
LINE
8
BLACK
6
CONTINUOUS
10
153.618
20
-101.483
11
153.606
21
-101.48
0
LINE
8
BLACK
6
CONTINUOUS
10
153.606
20
-101.48
11
153.58
21
-101.459
0
LINE
8
BLACK
6
CONTINUOUS
10
153.58
20
-101.459
11
153.552
21
-101.441
0
LINE
8
BLACK
6
CONTINUOUS
10
153.552
20
-101.441
11
153.285
21
-101.174
0
LINE
8
BLACK
6
CONTINUOUS
10
153.285
20
-101.174
11
151.257
21
-101.174
0
LINE
8
BLACK
6
CONTINUOUS
10
151.257
20
-101.174
11
151.224
21
-101.167
0
LINE
8
BLACK
6
CONTINUOUS
10
151.224
20
-101.167
11
151.191
21
-101.163
0
LINE
8
BLACK
6
CONTINUOUS
10
151.191
20
-101.163
11
151.181
21
-101.157
0
LINE
8
BLACK
6
CONTINUOUS
10
151.181
20
-101.157
11
151.17
21
-101.155
0
LINE
8
BLACK
6
CONTINUOUS
10
151.17
20
-101.155
11
151.144
21
-101.134
0
LINE
8
BLACK
6
CONTINUOUS
10
151.144
20
-101.134
11
151.116
21
-101.116
0
LINE
8
BLACK
6
CONTINUOUS
10
151.116
20
-101.116
11
150.449
21
-100.45
0
LINE
8
BLACK
6
CONTINUOUS
10
150.449
20
-100.45
11
150.432
21
-100.421
0
LINE
8
BLACK
6
CONTINUOUS
10
150.432
20
-100.421
11
150.411
21
-100.395
0
LINE
8
BLACK
6
CONTINUOUS
10
150.411
20
-100.395
11
150.408
21
-100.384
0
LINE
8
BLACK
6
CONTINUOUS
10
150.408
20
-100.384
11
150.402
21
-100.374
0
LINE
8
BLACK
6
CONTINUOUS
10
150.402
20
-100.374
11
150.398
21
-100.341
0
LINE
8
BLACK
6
CONTINUOUS
10
150.398
20
-100.341
11
150.391
21
-100.308
0
LINE
8
BLACK
6
CONTINUOUS
10
150.391
20
-100.308
11
150.391
21
-97.7217
0
LINE
8
BLACK
6
CONTINUOUS
10
150.391
20
-97.7217
11
150.215
21
-97.546
0
LINE
8
BLACK
6
CONTINUOUS
10
150.215
20
-97.546
11
149.117
21
-97.546
0
LINE
8
BLACK
6
CONTINUOUS
10
149.117
20
-97.546
11
148.891
21
-97.7717
0
LINE
8
BLACK
6
CONTINUOUS
10
148.891
20
-97.7717
11
148.891
21
-99.121
0
LINE
8
BLACK
6
CONTINUOUS
10
148.891
20
-99.121
11
148.883
21
-99.1593
0
LINE
8
BLACK
6
CONTINUOUS
10
148.883
20
-99.1593
11
148.862
21
-99.1917
0
LINE
8
BLACK
6
CONTINUOUS
10
148.862
20
-99.1917
11
148.829
21
-99.2134
0
LINE
8
BLACK
6
CONTINUOUS
10
148.829
20
-99.2134
11
148.791
21
-99.221
0
LINE
8
BLACK
6
CONTINUOUS
10
148.791
20
-99.221
11
148.591
21
-99.221
0
LINE
8
BLACK
6
CONTINUOUS
10
148.591
20
-99.221
11
148.553
21
-99.2134
0
LINE
8
BLACK
6
CONTINUOUS
10
148.553
20
-99.2134
11
148.52
21
-99.1917
0
LINE
8
BLACK
6
CONTINUOUS
10
148.52
20
-99.1917
11
148.499
21
-99.1593
0
LINE
8
BLACK
6
CONTINUOUS
10
148.499
20
-99.1593
11
148.491
21
-99.121
0
LINE
8
BLACK
6
CONTINUOUS
10
148.491
20
-99.121
11
148.491
21
-97.6885
0
LINE
8
BLACK
6
CONTINUOUS
10
148.491
20
-97.6885
11
148.498
21
-97.656
0
LINE
8
BLACK
6
CONTINUOUS
10
148.498
20
-97.656
11
148.502
21
-97.6228
0
LINE
8
BLACK
6
CONTINUOUS
10
148.502
20
-97.6228
11
148.508
21
-97.613
0
LINE
8
BLACK
6
CONTINUOUS
10
148.508
20
-97.613
11
148.511
21
-97.6018
0
LINE
8
BLACK
6
CONTINUOUS
10
148.511
20
-97.6018
11
148.532
21
-97.5757
0
LINE
8
BLACK
6
CONTINUOUS
10
148.532
20
-97.5757
11
148.55
21
-97.5475
0
LINE
8
BLACK
6
CONTINUOUS
10
148.55
20
-97.5475
11
148.893
21
-97.2043
0
LINE
8
BLACK
6
CONTINUOUS
10
148.893
20
-97.2043
11
148.921
21
-97.1866
0
LINE
8
BLACK
6
CONTINUOUS
10
148.921
20
-97.1866
11
148.947
21
-97.1658
0
LINE
8
BLACK
6
CONTINUOUS
10
148.947
20
-97.1658
11
148.958
21
-97.1632
0
LINE
8
BLACK
6
CONTINUOUS
10
148.958
20
-97.1632
11
148.968
21
-97.1571
0
LINE
8
BLACK
6
CONTINUOUS
10
148.968
20
-97.1571
11
149.001
21
-97.1534
0
LINE
8
BLACK
6
CONTINUOUS
10
149.001
20
-97.1534
11
149.034
21
-97.146
0
LINE
8
BLACK
6
CONTINUOUS
10
149.034
20
-97.146
11
150.298
21
-97.146
0
LINE
8
BLACK
6
CONTINUOUS
10
150.298
20
-97.146
11
150.331
21
-97.1535
0
LINE
8
BLACK
6
CONTINUOUS
10
150.331
20
-97.1535
11
150.364
21
-97.1572
0
LINE
8
BLACK
6
CONTINUOUS
10
150.364
20
-97.1572
11
150.374
21
-97.1633
0
LINE
8
BLACK
6
CONTINUOUS
10
150.374
20
-97.1633
11
150.385
21
-97.1659
0
LINE
8
BLACK
6
CONTINUOUS
10
150.385
20
-97.1659
11
150.411
21
-97.1868
0
LINE
8
BLACK
6
CONTINUOUS
10
150.411
20
-97.1868
11
150.44
21
-97.2046
0
LINE
8
BLACK
6
CONTINUOUS
10
150.44
20
-97.2046
11
150.733
21
-97.4977
0
LINE
8
BLACK
6
CONTINUOUS
10
150.733
20
-97.4977
11
150.75
21
-97.526
0
LINE
8
BLACK
6
CONTINUOUS
10
150.75
20
-97.526
11
150.771
21
-97.5522
0
LINE
8
BLACK
6
CONTINUOUS
10
150.771
20
-97.5522
11
150.774
21
-97.5634
0
LINE
8
BLACK
6
CONTINUOUS
10
150.774
20
-97.5634
11
150.78
21
-97.5731
0
LINE
8
BLACK
6
CONTINUOUS
10
150.78
20
-97.5731
11
150.784
21
-97.6063
0
LINE
8
BLACK
6
CONTINUOUS
10
150.784
20
-97.6063
11
150.791
21
-97.6389
0
LINE
8
BLACK
6
CONTINUOUS
10
150.791
20
-97.6389
11
150.791
21
-100.226
0
LINE
8
BLACK
6
CONTINUOUS
10
150.791
20
-100.226
11
151.34
21
-100.774
0
LINE
8
BLACK
6
CONTINUOUS
10
151.34
20
-100.774
11
153.368
21
-100.774
0
LINE
8
BLACK
6
CONTINUOUS
10
153.368
20
-100.774
11
153.401
21
-100.782
0
LINE
8
BLACK
6
CONTINUOUS
10
153.401
20
-100.782
11
153.434
21
-100.786
0
LINE
8
BLACK
6
CONTINUOUS
10
153.434
20
-100.786
11
153.444
21
-100.792
0
LINE
8
BLACK
6
CONTINUOUS
10
153.444
20
-100.792
11
153.455
21
-100.794
0
LINE
8
BLACK
6
CONTINUOUS
10
153.455
20
-100.794
11
153.481
21
-100.815
0
LINE
8
BLACK
6
CONTINUOUS
10
153.481
20
-100.815
11
153.509
21
-100.833
0
LINE
8
BLACK
6
CONTINUOUS
10
153.509
20
-100.833
11
153.776
21
-101.1
0
LINE
8
BLACK
6
CONTINUOUS
10
153.776
20
-101.1
11
153.965
21
-101.1
0
LINE
8
BLACK
6
CONTINUOUS
10
153.965
20
-101.1
11
153.997
21
-101.108
0
LINE
8
BLACK
6
CONTINUOUS
10
153.997
20
-101.108
11
154.031
21
-101.111
0
LINE
8
BLACK
6
CONTINUOUS
10
154.031
20
-101.111
11
154.04
21
-101.117
0
LINE
8
BLACK
6
CONTINUOUS
10
154.04
20
-101.117
11
154.052
21
-101.12
0
LINE
8
BLACK
6
CONTINUOUS
10
154.052
20
-101.12
11
154.078
21
-101.141
0
LINE
8
BLACK
6
CONTINUOUS
10
154.078
20
-101.141
11
154.106
21
-101.159
0
LINE
8
BLACK
6
CONTINUOUS
10
154.106
20
-101.159
11
155.041
21
-102.093
0
LINE
8
BLACK
6
CONTINUOUS
10
155.041
20
-102.093
11
155.058
21
-102.122
0
LINE
8
BLACK
6
CONTINUOUS
10
155.058
20
-102.122
11
155.079
21
-102.148
0
LINE
8
BLACK
6
CONTINUOUS
10
155.079
20
-102.148
11
155.082
21
-102.159
0
LINE
8
BLACK
6
CONTINUOUS
10
155.082
20
-102.159
11
155.088
21
-102.169
0
LINE
8
BLACK
6
CONTINUOUS
10
155.088
20
-102.169
11
155.092
21
-102.202
0
LINE
8
BLACK
6
CONTINUOUS
10
155.092
20
-102.202
11
155.099
21
-102.234
0
LINE
8
BLACK
6
CONTINUOUS
10
155.099
20
-102.234
11
155.099
21
-104.425
0
LINE
8
BLACK
6
CONTINUOUS
10
155.099
20
-104.425
11
155.091
21
-104.463
0
LINE
8
BLACK
6
CONTINUOUS
10
146.229
20
-97.7536
11
146.262
21
-97.7753
0
LINE
8
BLACK
6
CONTINUOUS
10
146.262
20
-97.7753
11
146.283
21
-97.8077
0
LINE
8
BLACK
6
CONTINUOUS
10
146.283
20
-97.8077
11
146.291
21
-97.846
0
LINE
8
BLACK
6
CONTINUOUS
10
146.291
20
-97.846
11
146.291
21
-98.4255
0
LINE
8
BLACK
6
CONTINUOUS
10
146.291
20
-98.4255
11
146.297
21
-98.4344
0
LINE
8
BLACK
6
CONTINUOUS
10
146.297
20
-98.4344
11
146.3
21
-98.4676
0
LINE
8
BLACK
6
CONTINUOUS
10
146.3
20
-98.4676
11
146.308
21
-98.5002
0
LINE
8
BLACK
6
CONTINUOUS
10
146.308
20
-98.5002
11
146.308
21
-100.439
0
LINE
8
BLACK
6
CONTINUOUS
10
146.308
20
-100.439
11
146.343
21
-100.457
0
LINE
8
BLACK
6
CONTINUOUS
10
146.343
20
-100.457
11
146.431
21
-100.545
0
LINE
8
BLACK
6
CONTINUOUS
10
146.431
20
-100.545
11
146.488
21
-100.657
0
LINE
8
BLACK
6
CONTINUOUS
10
146.488
20
-100.657
11
146.508
21
-100.78
0
LINE
8
BLACK
6
CONTINUOUS
10
146.508
20
-100.78
11
146.488
21
-100.904
0
LINE
8
BLACK
6
CONTINUOUS
10
146.488
20
-100.904
11
146.431
21
-101.015
0
LINE
8
BLACK
6
CONTINUOUS
10
146.431
20
-101.015
11
146.343
21
-101.104
0
LINE
8
BLACK
6
CONTINUOUS
10
146.343
20
-101.104
11
146.231
21
-101.161
0
LINE
8
BLACK
6
CONTINUOUS
10
146.231
20
-101.161
11
146.108
21
-101.18
0
LINE
8
BLACK
6
CONTINUOUS
10
146.108
20
-101.18
11
145.984
21
-101.161
0
LINE
8
BLACK
6
CONTINUOUS
10
145.984
20
-101.161
11
145.873
21
-101.104
0
LINE
8
BLACK
6
CONTINUOUS
10
145.873
20
-101.104
11
145.784
21
-101.015
0
LINE
8
BLACK
6
CONTINUOUS
10
145.784
20
-101.015
11
145.727
21
-100.904
0
LINE
8
BLACK
6
CONTINUOUS
10
145.727
20
-100.904
11
145.708
21
-100.78
0
LINE
8
BLACK
6
CONTINUOUS
10
145.708
20
-100.78
11
145.727
21
-100.657
0
LINE
8
BLACK
6
CONTINUOUS
10
145.727
20
-100.657
11
145.784
21
-100.545
0
LINE
8
BLACK
6
CONTINUOUS
10
145.784
20
-100.545
11
145.873
21
-100.457
0
LINE
8
BLACK
6
CONTINUOUS
10
145.873
20
-100.457
11
145.908
21
-100.439
0
LINE
8
BLACK
6
CONTINUOUS
10
145.908
20
-100.439
11
145.908
21
-99.1728
0
LINE
8
BLACK
6
CONTINUOUS
10
145.908
20
-99.1728
11
145.899
21
-99.1593
0
LINE
8
BLACK
6
CONTINUOUS
10
145.899
20
-99.1593
11
145.891
21
-99.121
0
LINE
8
BLACK
6
CONTINUOUS
10
145.891
20
-99.121
11
145.891
21
-97.846
0
LINE
8
BLACK
6
CONTINUOUS
10
145.891
20
-97.846
11
145.899
21
-97.8077
0
LINE
8
BLACK
6
CONTINUOUS
10
145.899
20
-97.8077
11
145.92
21
-97.7753
0
LINE
8
BLACK
6
CONTINUOUS
10
145.92
20
-97.7753
11
145.953
21
-97.7536
0
LINE
8
BLACK
6
CONTINUOUS
10
145.953
20
-97.7536
11
145.991
21
-97.746
0
LINE
8
BLACK
6
CONTINUOUS
10
145.991
20
-97.746
11
146.191
21
-97.746
0
LINE
8
BLACK
6
CONTINUOUS
10
146.191
20
-97.746
11
146.229
21
-97.7536
0
LINE
8
BLACK
6
CONTINUOUS
10
145.634
20
-99.8313
11
145.63
21
-99.8645
0
LINE
8
BLACK
6
CONTINUOUS
10
145.63
20
-99.8645
11
145.624
21
-99.8743
0
LINE
8
BLACK
6
CONTINUOUS
10
145.624
20
-99.8743
11
145.621
21
-99.8855
0
LINE
8
BLACK
6
CONTINUOUS
10
145.621
20
-99.8855
11
145.6
21
-99.9116
0
LINE
8
BLACK
6
CONTINUOUS
10
145.6
20
-99.9116
11
145.582
21
-99.9398
0
LINE
8
BLACK
6
CONTINUOUS
10
145.582
20
-99.9398
11
145.476
21
-100.046
0
LINE
8
BLACK
6
CONTINUOUS
10
145.476
20
-100.046
11
145.492
21
-100.147
0
LINE
8
BLACK
6
CONTINUOUS
10
145.492
20
-100.147
11
145.473
21
-100.271
0
LINE
8
BLACK
6
CONTINUOUS
10
145.473
20
-100.271
11
145.416
21
-100.382
0
LINE
8
BLACK
6
CONTINUOUS
10
145.416
20
-100.382
11
145.327
21
-100.471
0
LINE
8
BLACK
6
CONTINUOUS
10
145.327
20
-100.471
11
145.216
21
-100.528
0
LINE
8
BLACK
6
CONTINUOUS
10
145.216
20
-100.528
11
145.092
21
-100.547
0
LINE
8
BLACK
6
CONTINUOUS
10
145.092
20
-100.547
11
144.969
21
-100.528
0
LINE
8
BLACK
6
CONTINUOUS
10
144.969
20
-100.528
11
144.857
21
-100.471
0
LINE
8
BLACK
6
CONTINUOUS
10
144.857
20
-100.471
11
144.769
21
-100.382
0
LINE
8
BLACK
6
CONTINUOUS
10
144.769
20
-100.382
11
144.712
21
-100.271
0
LINE
8
BLACK
6
CONTINUOUS
10
144.712
20
-100.271
11
144.692
21
-100.147
0
LINE
8
BLACK
6
CONTINUOUS
10
144.692
20
-100.147
11
144.712
21
-100.024
0
LINE
8
BLACK
6
CONTINUOUS
10
144.712
20
-100.024
11
144.769
21
-99.912
0
LINE
8
BLACK
6
CONTINUOUS
10
144.769
20
-99.912
11
144.857
21
-99.8235
0
LINE
8
BLACK
6
CONTINUOUS
10
144.857
20
-99.8235
11
144.969
21
-99.7667
0
LINE
8
BLACK
6
CONTINUOUS
10
144.969
20
-99.7667
11
145.092
21
-99.7471
0
LINE
8
BLACK
6
CONTINUOUS
10
145.092
20
-99.7471
11
145.193
21
-99.7631
0
LINE
8
BLACK
6
CONTINUOUS
10
145.193
20
-99.7631
11
145.241
21
-99.7156
0
LINE
8
BLACK
6
CONTINUOUS
10
145.241
20
-99.7156
11
145.241
21
-97.846
0
LINE
8
BLACK
6
CONTINUOUS
10
145.241
20
-97.846
11
145.249
21
-97.8077
0
LINE
8
BLACK
6
CONTINUOUS
10
145.249
20
-97.8077
11
145.27
21
-97.7753
0
LINE
8
BLACK
6
CONTINUOUS
10
145.27
20
-97.7753
11
145.303
21
-97.7536
0
LINE
8
BLACK
6
CONTINUOUS
10
145.303
20
-97.7536
11
145.341
21
-97.746
0
LINE
8
BLACK
6
CONTINUOUS
10
145.341
20
-97.746
11
145.541
21
-97.746
0
LINE
8
BLACK
6
CONTINUOUS
10
145.541
20
-97.746
11
145.579
21
-97.7536
0
LINE
8
BLACK
6
CONTINUOUS
10
145.579
20
-97.7536
11
145.612
21
-97.7753
0
LINE
8
BLACK
6
CONTINUOUS
10
145.612
20
-97.7753
11
145.633
21
-97.8077
0
LINE
8
BLACK
6
CONTINUOUS
10
145.633
20
-97.8077
11
145.641
21
-97.846
0
LINE
8
BLACK
6
CONTINUOUS
10
145.641
20
-97.846
11
145.641
21
-99.7988
0
LINE
8
BLACK
6
CONTINUOUS
10
145.641
20
-99.7988
11
145.634
21
-99.8313
0
LINE
8
BLACK
6
CONTINUOUS
10
149.534
20
-99.8659
11
149.53
21
-99.8991
0
LINE
8
BLACK
6
CONTINUOUS
10
149.53
20
-99.8991
11
149.524
21
-99.9088
0
LINE
8
BLACK
6
CONTINUOUS
10
149.524
20
-99.9088
11
149.521
21
-99.92
0
LINE
8
BLACK
6
CONTINUOUS
10
149.521
20
-99.92
11
149.5
21
-99.9461
0
LINE
8
BLACK
6
CONTINUOUS
10
149.5
20
-99.9461
11
149.482
21
-99.9744
0
LINE
8
BLACK
6
CONTINUOUS
10
149.482
20
-99.9744
11
149.482
21
-99.9749
0
LINE
8
BLACK
6
CONTINUOUS
10
149.482
20
-99.9749
11
149.498
21
-100.076
0
LINE
8
BLACK
6
CONTINUOUS
10
149.498
20
-100.076
11
149.478
21
-100.2
0
LINE
8
BLACK
6
CONTINUOUS
10
149.478
20
-100.2
11
149.422
21
-100.311
0
LINE
8
BLACK
6
CONTINUOUS
10
149.422
20
-100.311
11
149.333
21
-100.4
0
LINE
8
BLACK
6
CONTINUOUS
10
149.333
20
-100.4
11
149.222
21
-100.456
0
LINE
8
BLACK
6
CONTINUOUS
10
149.222
20
-100.456
11
149.098
21
-100.476
0
LINE
8
BLACK
6
CONTINUOUS
10
149.098
20
-100.476
11
148.974
21
-100.456
0
LINE
8
BLACK
6
CONTINUOUS
10
148.974
20
-100.456
11
148.863
21
-100.4
0
LINE
8
BLACK
6
CONTINUOUS
10
148.863
20
-100.4
11
148.774
21
-100.311
0
LINE
8
BLACK
6
CONTINUOUS
10
148.774
20
-100.311
11
148.718
21
-100.2
0
LINE
8
BLACK
6
CONTINUOUS
10
148.718
20
-100.2
11
148.698
21
-100.076
0
LINE
8
BLACK
6
CONTINUOUS
10
148.698
20
-100.076
11
148.718
21
-99.9524
0
LINE
8
BLACK
6
CONTINUOUS
10
148.718
20
-99.9524
11
148.774
21
-99.8409
0
LINE
8
BLACK
6
CONTINUOUS
10
148.774
20
-99.8409
11
148.863
21
-99.7524
0
LINE
8
BLACK
6
CONTINUOUS
10
148.863
20
-99.7524
11
148.974
21
-99.6956
0
LINE
8
BLACK
6
CONTINUOUS
10
148.974
20
-99.6956
11
149.098
21
-99.676
0
LINE
8
BLACK
6
CONTINUOUS
10
149.098
20
-99.676
11
149.141
21
-99.6828
0
LINE
8
BLACK
6
CONTINUOUS
10
149.141
20
-99.6828
11
149.141
21
-97.846
0
LINE
8
BLACK
6
CONTINUOUS
10
149.141
20
-97.846
11
149.149
21
-97.8077
0
LINE
8
BLACK
6
CONTINUOUS
10
149.149
20
-97.8077
11
149.17
21
-97.7753
0
LINE
8
BLACK
6
CONTINUOUS
10
149.17
20
-97.7753
11
149.203
21
-97.7536
0
LINE
8
BLACK
6
CONTINUOUS
10
149.203
20
-97.7536
11
149.241
21
-97.746
0
LINE
8
BLACK
6
CONTINUOUS
10
149.241
20
-97.746
11
149.441
21
-97.746
0
LINE
8
BLACK
6
CONTINUOUS
10
149.441
20
-97.746
11
149.479
21
-97.7536
0
LINE
8
BLACK
6
CONTINUOUS
10
149.479
20
-97.7536
11
149.512
21
-97.7753
0
LINE
8
BLACK
6
CONTINUOUS
10
149.512
20
-97.7753
11
149.533
21
-97.8077
0
LINE
8
BLACK
6
CONTINUOUS
10
149.533
20
-97.8077
11
149.541
21
-97.846
0
LINE
8
BLACK
6
CONTINUOUS
10
149.541
20
-97.846
11
149.541
21
-99.8333
0
LINE
8
BLACK
6
CONTINUOUS
10
149.541
20
-99.8333
11
149.534
21
-99.8659
0
LINE
8
BLACK
6
CONTINUOUS
10
154.441
20
-100.238
11
154.42
21
-100.271
0
LINE
8
BLACK
6
CONTINUOUS
10
154.42
20
-100.271
11
154.387
21
-100.292
0
LINE
8
BLACK
6
CONTINUOUS
10
154.387
20
-100.292
11
154.349
21
-100.3
0
LINE
8
BLACK
6
CONTINUOUS
10
154.349
20
-100.3
11
154.149
21
-100.3
0
LINE
8
BLACK
6
CONTINUOUS
10
154.149
20
-100.3
11
154.111
21
-100.292
0
LINE
8
BLACK
6
CONTINUOUS
10
154.111
20
-100.292
11
154.078
21
-100.271
0
LINE
8
BLACK
6
CONTINUOUS
10
154.078
20
-100.271
11
154.057
21
-100.238
0
LINE
8
BLACK
6
CONTINUOUS
10
154.057
20
-100.238
11
154.049
21
-100.2
0
LINE
8
BLACK
6
CONTINUOUS
10
154.049
20
-100.2
11
154.049
21
-97.2107
0
LINE
8
BLACK
6
CONTINUOUS
10
154.049
20
-97.2107
11
154.056
21
-97.1781
0
LINE
8
BLACK
6
CONTINUOUS
10
154.056
20
-97.1781
11
154.06
21
-97.1449
0
LINE
8
BLACK
6
CONTINUOUS
10
154.06
20
-97.1449
11
154.066
21
-97.1352
0
LINE
8
BLACK
6
CONTINUOUS
10
154.066
20
-97.1352
11
154.069
21
-97.124
0
LINE
8
BLACK
6
CONTINUOUS
10
154.069
20
-97.124
11
154.09
21
-97.0979
0
LINE
8
BLACK
6
CONTINUOUS
10
154.09
20
-97.0979
11
154.108
21
-97.0696
0
LINE
8
BLACK
6
CONTINUOUS
10
154.108
20
-97.0696
11
154.44
21
-96.7372
0
LINE
8
BLACK
6
CONTINUOUS
10
154.44
20
-96.7372
11
154.44
21
-96.3028
0
LINE
8
BLACK
6
CONTINUOUS
10
154.44
20
-96.3028
11
152.841
21
-94.7042
0
LINE
8
BLACK
6
CONTINUOUS
10
152.841
20
-94.7042
11
152.825
21
-94.7161
0
LINE
8
BLACK
6
CONTINUOUS
10
152.825
20
-94.7161
11
152.663
21
-94.7884
0
LINE
8
BLACK
6
CONTINUOUS
10
152.663
20
-94.7884
11
152.489
21
-94.8253
0
LINE
8
BLACK
6
CONTINUOUS
10
152.489
20
-94.8253
11
152.311
21
-94.8253
0
LINE
8
BLACK
6
CONTINUOUS
10
152.311
20
-94.8253
11
152.137
21
-94.7884
0
LINE
8
BLACK
6
CONTINUOUS
10
152.137
20
-94.7884
11
151.975
21
-94.7161
0
LINE
8
BLACK
6
CONTINUOUS
10
151.975
20
-94.7161
11
151.831
21
-94.6117
0
LINE
8
BLACK
6
CONTINUOUS
10
151.831
20
-94.6117
11
151.712
21
-94.4796
0
LINE
8
BLACK
6
CONTINUOUS
10
151.712
20
-94.4796
11
151.623
21
-94.3257
0
LINE
8
BLACK
6
CONTINUOUS
10
151.623
20
-94.3257
11
151.569
21
-94.1567
0
LINE
8
BLACK
6
CONTINUOUS
10
151.569
20
-94.1567
11
151.55
21
-93.98
0
LINE
8
BLACK
6
CONTINUOUS
10
151.55
20
-93.98
11
151.569
21
-93.8033
0
LINE
8
BLACK
6
CONTINUOUS
10
151.569
20
-93.8033
11
151.623
21
-93.6343
0
LINE
8
BLACK
6
CONTINUOUS
10
151.623
20
-93.6343
11
151.712
21
-93.4804
0
LINE
8
BLACK
6
CONTINUOUS
10
151.712
20
-93.4804
11
151.831
21
-93.3483
0
LINE
8
BLACK
6
CONTINUOUS
10
151.831
20
-93.3483
11
151.975
21
-93.2439
0
LINE
8
BLACK
6
CONTINUOUS
10
151.975
20
-93.2439
11
152.137
21
-93.1716
0
LINE
8
BLACK
6
CONTINUOUS
10
152.137
20
-93.1716
11
152.311
21
-93.1347
0
LINE
8
BLACK
6
CONTINUOUS
10
152.311
20
-93.1347
11
152.489
21
-93.1347
0
LINE
8
BLACK
6
CONTINUOUS
10
152.489
20
-93.1347
11
152.663
21
-93.1716
0
LINE
8
BLACK
6
CONTINUOUS
10
152.663
20
-93.1716
11
152.825
21
-93.2439
0
LINE
8
BLACK
6
CONTINUOUS
10
152.825
20
-93.2439
11
152.969
21
-93.3483
0
LINE
8
BLACK
6
CONTINUOUS
10
152.969
20
-93.3483
11
153.088
21
-93.4804
0
LINE
8
BLACK
6
CONTINUOUS
10
153.088
20
-93.4804
11
153.177
21
-93.6343
0
LINE
8
BLACK
6
CONTINUOUS
10
153.177
20
-93.6343
11
153.231
21
-93.8033
0
LINE
8
BLACK
6
CONTINUOUS
10
153.231
20
-93.8033
11
153.25
21
-93.98
0
LINE
8
BLACK
6
CONTINUOUS
10
153.25
20
-93.98
11
153.231
21
-94.1567
0
LINE
8
BLACK
6
CONTINUOUS
10
153.231
20
-94.1567
11
153.177
21
-94.3257
0
LINE
8
BLACK
6
CONTINUOUS
10
153.177
20
-94.3257
11
153.122
21
-94.4195
0
LINE
8
BLACK
6
CONTINUOUS
10
153.122
20
-94.4195
11
154.548
21
-95.8451
0
LINE
8
BLACK
6
CONTINUOUS
10
154.548
20
-95.8451
11
154.594
21
-95.814
0
LINE
8
BLACK
6
CONTINUOUS
10
154.594
20
-95.814
11
154.69
21
-95.795
0
LINE
8
BLACK
6
CONTINUOUS
10
154.69
20
-95.795
11
155.19
21
-95.795
0
LINE
8
BLACK
6
CONTINUOUS
10
155.19
20
-95.795
11
155.286
21
-95.814
0
LINE
8
BLACK
6
CONTINUOUS
10
155.286
20
-95.814
11
155.367
21
-95.8682
0
LINE
8
BLACK
6
CONTINUOUS
10
155.367
20
-95.8682
11
155.421
21
-95.9493
0
LINE
8
BLACK
6
CONTINUOUS
10
155.421
20
-95.9493
11
155.44
21
-96.045
0
LINE
8
BLACK
6
CONTINUOUS
10
155.44
20
-96.045
11
155.44
21
-96.995
0
LINE
8
BLACK
6
CONTINUOUS
10
155.44
20
-96.995
11
155.421
21
-97.0907
0
LINE
8
BLACK
6
CONTINUOUS
10
155.421
20
-97.0907
11
155.367
21
-97.1718
0
LINE
8
BLACK
6
CONTINUOUS
10
155.367
20
-97.1718
11
155.286
21
-97.226
0
LINE
8
BLACK
6
CONTINUOUS
10
155.286
20
-97.226
11
155.19
21
-97.245
0
LINE
8
BLACK
6
CONTINUOUS
10
155.19
20
-97.245
11
154.69
21
-97.245
0
LINE
8
BLACK
6
CONTINUOUS
10
154.69
20
-97.245
11
154.594
21
-97.226
0
LINE
8
BLACK
6
CONTINUOUS
10
154.594
20
-97.226
11
154.548
21
-97.1949
0
LINE
8
BLACK
6
CONTINUOUS
10
154.548
20
-97.1949
11
154.449
21
-97.2938
0
LINE
8
BLACK
6
CONTINUOUS
10
154.449
20
-97.2938
11
154.449
21
-100.2
0
LINE
8
BLACK
6
CONTINUOUS
10
154.449
20
-100.2
11
154.441
21
-100.238
0
LINE
8
BLACK
6
CONTINUOUS
10
153.141
20
-100.238
11
153.12
21
-100.271
0
LINE
8
BLACK
6
CONTINUOUS
10
153.12
20
-100.271
11
153.087
21
-100.292
0
LINE
8
BLACK
6
CONTINUOUS
10
153.087
20
-100.292
11
153.049
21
-100.3
0
LINE
8
BLACK
6
CONTINUOUS
10
153.049
20
-100.3
11
152.849
21
-100.3
0
LINE
8
BLACK
6
CONTINUOUS
10
152.849
20
-100.3
11
152.811
21
-100.292
0
LINE
8
BLACK
6
CONTINUOUS
10
152.811
20
-100.292
11
152.778
21
-100.271
0
LINE
8
BLACK
6
CONTINUOUS
10
152.778
20
-100.271
11
152.757
21
-100.238
0
LINE
8
BLACK
6
CONTINUOUS
10
152.757
20
-100.238
11
152.749
21
-100.2
0
LINE
8
BLACK
6
CONTINUOUS
10
152.749
20
-100.2
11
152.749
21
-97.1518
0
LINE
8
BLACK
6
CONTINUOUS
10
152.749
20
-97.1518
11
151.174
21
-95.577
0
LINE
8
BLACK
6
CONTINUOUS
10
151.174
20
-95.577
11
148.463
21
-95.577
0
LINE
8
BLACK
6
CONTINUOUS
10
148.463
20
-95.577
11
148.43
21
-95.5695
0
LINE
8
BLACK
6
CONTINUOUS
10
148.43
20
-95.5695
11
148.397
21
-95.5658
0
LINE
8
BLACK
6
CONTINUOUS
10
148.397
20
-95.5658
11
148.387
21
-95.5596
0
LINE
8
BLACK
6
CONTINUOUS
10
148.387
20
-95.5596
11
148.376
21
-95.5571
0
LINE
8
BLACK
6
CONTINUOUS
10
148.376
20
-95.5571
11
148.35
21
-95.5362
0
LINE
8
BLACK
6
CONTINUOUS
10
148.35
20
-95.5362
11
148.322
21
-95.5184
0
LINE
8
BLACK
6
CONTINUOUS
10
148.322
20
-95.5184
11
147.508
21
-94.705
0
LINE
8
BLACK
6
CONTINUOUS
10
147.508
20
-94.705
11
147.192
21
-94.705
0
LINE
8
BLACK
6
CONTINUOUS
10
147.192
20
-94.705
11
147.096
21
-94.686
0
LINE
8
BLACK
6
CONTINUOUS
10
147.096
20
-94.686
11
147.015
21
-94.6318
0
LINE
8
BLACK
6
CONTINUOUS
10
147.015
20
-94.6318
11
146.961
21
-94.5507
0
LINE
8
BLACK
6
CONTINUOUS
10
146.961
20
-94.5507
11
146.942
21
-94.455
0
LINE
8
BLACK
6
CONTINUOUS
10
146.942
20
-94.455
11
146.942
21
-93.505
0
LINE
8
BLACK
6
CONTINUOUS
10
146.942
20
-93.505
11
146.961
21
-93.4093
0
LINE
8
BLACK
6
CONTINUOUS
10
146.961
20
-93.4093
11
147.015
21
-93.3282
0
LINE
8
BLACK
6
CONTINUOUS
10
147.015
20
-93.3282
11
147.096
21
-93.274
0
LINE
8
BLACK
6
CONTINUOUS
10
147.096
20
-93.274
11
147.192
21
-93.255
0
LINE
8
BLACK
6
CONTINUOUS
10
147.192
20
-93.255
11
147.692
21
-93.255
0
LINE
8
BLACK
6
CONTINUOUS
10
147.692
20
-93.255
11
147.788
21
-93.274
0
LINE
8
BLACK
6
CONTINUOUS
10
147.788
20
-93.274
11
147.869
21
-93.3282
0
LINE
8
BLACK
6
CONTINUOUS
10
147.869
20
-93.3282
11
147.923
21
-93.4093
0
LINE
8
BLACK
6
CONTINUOUS
10
147.923
20
-93.4093
11
147.942
21
-93.505
0
LINE
8
BLACK
6
CONTINUOUS
10
147.942
20
-93.505
11
147.942
21
-93.63
0
LINE
8
BLACK
6
CONTINUOUS
10
147.942
20
-93.63
11
149.01
21
-93.63
0
LINE
8
BLACK
6
CONTINUOUS
10
149.01
20
-93.63
11
149.01
21
-93.13
0
LINE
8
BLACK
6
CONTINUOUS
10
149.01
20
-93.13
11
150.71
21
-93.13
0
LINE
8
BLACK
6
CONTINUOUS
10
150.71
20
-93.13
11
150.71
21
-94.83
0
LINE
8
BLACK
6
CONTINUOUS
10
150.71
20
-94.83
11
149.01
21
-94.83
0
LINE
8
BLACK
6
CONTINUOUS
10
149.01
20
-94.83
11
149.01
21
-94.33
0
LINE
8
BLACK
6
CONTINUOUS
10
149.01
20
-94.33
11
147.942
21
-94.33
0
LINE
8
BLACK
6
CONTINUOUS
10
147.942
20
-94.33
11
147.942
21
-94.455
0
LINE
8
BLACK
6
CONTINUOUS
10
147.942
20
-94.455
11
147.923
21
-94.5507
0
LINE
8
BLACK
6
CONTINUOUS
10
147.923
20
-94.5507
11
147.922
21
-94.5527
0
LINE
8
BLACK
6
CONTINUOUS
10
147.922
20
-94.5527
11
148.546
21
-95.177
0
LINE
8
BLACK
6
CONTINUOUS
10
148.546
20
-95.177
11
151.257
21
-95.177
0
LINE
8
BLACK
6
CONTINUOUS
10
151.257
20
-95.177
11
151.29
21
-95.1845
0
LINE
8
BLACK
6
CONTINUOUS
10
151.29
20
-95.1845
11
151.323
21
-95.1882
0
LINE
8
BLACK
6
CONTINUOUS
10
151.323
20
-95.1882
11
151.333
21
-95.1944
0
LINE
8
BLACK
6
CONTINUOUS
10
151.333
20
-95.1944
11
151.344
21
-95.1969
0
LINE
8
BLACK
6
CONTINUOUS
10
151.344
20
-95.1969
11
151.37
21
-95.2178
0
LINE
8
BLACK
6
CONTINUOUS
10
151.37
20
-95.2178
11
151.398
21
-95.2356
0
LINE
8
BLACK
6
CONTINUOUS
10
151.398
20
-95.2356
11
153.091
21
-96.9278
0
LINE
8
BLACK
6
CONTINUOUS
10
153.091
20
-96.9278
11
153.108
21
-96.9561
0
LINE
8
BLACK
6
CONTINUOUS
10
153.108
20
-96.9561
11
153.129
21
-96.9823
0
LINE
8
BLACK
6
CONTINUOUS
10
153.129
20
-96.9823
11
153.132
21
-96.9935
0
LINE
8
BLACK
6
CONTINUOUS
10
153.132
20
-96.9935
11
153.138
21
-97.0032
0
LINE
8
BLACK
6
CONTINUOUS
10
153.138
20
-97.0032
11
153.142
21
-97.0364
0
LINE
8
BLACK
6
CONTINUOUS
10
153.142
20
-97.0364
11
153.149
21
-97.069
0
LINE
8
BLACK
6
CONTINUOUS
10
153.149
20
-97.069
11
153.149
21
-100.2
0
LINE
8
BLACK
6
CONTINUOUS
10
153.149
20
-100.2
11
153.141
21
-100.238
0
LINE
8
BLACK
6
CONTINUOUS
10
141.56
20
-99.1351
11
141.633
21
-99.1839
0
LINE
8
BLACK
6
CONTINUOUS
10
141.633
20
-99.1839
11
141.682
21
-99.2569
0
LINE
8
BLACK
6
CONTINUOUS
10
141.682
20
-99.2569
11
141.699
21
-99.343
0
LINE
8
BLACK
6
CONTINUOUS
10
141.699
20
-99.343
11
141.699
21
-99.495
0
LINE
8
BLACK
6
CONTINUOUS
10
141.699
20
-99.495
11
142.915
21
-99.495
0
LINE
8
BLACK
6
CONTINUOUS
10
142.915
20
-99.495
11
142.932
21
-99.4599
0
LINE
8
BLACK
6
CONTINUOUS
10
142.932
20
-99.4599
11
143.021
21
-99.3714
0
LINE
8
BLACK
6
CONTINUOUS
10
143.021
20
-99.3714
11
143.132
21
-99.3146
0
LINE
8
BLACK
6
CONTINUOUS
10
143.132
20
-99.3146
11
143.256
21
-99.295
0
LINE
8
BLACK
6
CONTINUOUS
10
143.256
20
-99.295
11
143.38
21
-99.3146
0
LINE
8
BLACK
6
CONTINUOUS
10
143.38
20
-99.3146
11
143.491
21
-99.3714
0
LINE
8
BLACK
6
CONTINUOUS
10
143.491
20
-99.3714
11
143.58
21
-99.4599
0
LINE
8
BLACK
6
CONTINUOUS
10
143.58
20
-99.4599
11
143.636
21
-99.5714
0
LINE
8
BLACK
6
CONTINUOUS
10
143.636
20
-99.5714
11
143.656
21
-99.695
0
LINE
8
BLACK
6
CONTINUOUS
10
143.656
20
-99.695
11
143.636
21
-99.8186
0
LINE
8
BLACK
6
CONTINUOUS
10
143.636
20
-99.8186
11
143.58
21
-99.9301
0
LINE
8
BLACK
6
CONTINUOUS
10
143.58
20
-99.9301
11
143.491
21
-100.019
0
LINE
8
BLACK
6
CONTINUOUS
10
143.491
20
-100.019
11
143.38
21
-100.075
0
LINE
8
BLACK
6
CONTINUOUS
10
143.38
20
-100.075
11
143.256
21
-100.095
0
LINE
8
BLACK
6
CONTINUOUS
10
143.256
20
-100.095
11
143.132
21
-100.075
0
LINE
8
BLACK
6
CONTINUOUS
10
143.132
20
-100.075
11
143.021
21
-100.019
0
LINE
8
BLACK
6
CONTINUOUS
10
143.021
20
-100.019
11
142.932
21
-99.9301
0
LINE
8
BLACK
6
CONTINUOUS
10
142.932
20
-99.9301
11
142.915
21
-99.895
0
LINE
8
BLACK
6
CONTINUOUS
10
142.915
20
-99.895
11
141.671
21
-99.895
0
LINE
8
BLACK
6
CONTINUOUS
10
141.671
20
-99.895
11
141.633
21
-99.9521
0
LINE
8
BLACK
6
CONTINUOUS
10
141.633
20
-99.9521
11
141.56
21
-100.001
0
LINE
8
BLACK
6
CONTINUOUS
10
141.56
20
-100.001
11
141.474
21
-100.018
0
LINE
8
BLACK
6
CONTINUOUS
10
141.474
20
-100.018
11
140.974
21
-100.018
0
LINE
8
BLACK
6
CONTINUOUS
10
140.974
20
-100.018
11
140.888
21
-100.001
0
LINE
8
BLACK
6
CONTINUOUS
10
140.888
20
-100.001
11
140.815
21
-99.9521
0
LINE
8
BLACK
6
CONTINUOUS
10
140.815
20
-99.9521
11
140.766
21
-99.8791
0
LINE
8
BLACK
6
CONTINUOUS
10
140.766
20
-99.8791
11
140.749
21
-99.793
0
LINE
8
BLACK
6
CONTINUOUS
10
140.749
20
-99.793
11
140.749
21
-99.343
0
LINE
8
BLACK
6
CONTINUOUS
10
140.749
20
-99.343
11
140.766
21
-99.2569
0
LINE
8
BLACK
6
CONTINUOUS
10
140.766
20
-99.2569
11
140.815
21
-99.1839
0
LINE
8
BLACK
6
CONTINUOUS
10
140.815
20
-99.1839
11
140.888
21
-99.1351
0
LINE
8
BLACK
6
CONTINUOUS
10
140.888
20
-99.1351
11
140.974
21
-99.118
0
LINE
8
BLACK
6
CONTINUOUS
10
140.974
20
-99.118
11
141.474
21
-99.118
0
LINE
8
BLACK
6
CONTINUOUS
10
141.474
20
-99.118
11
141.56
21
-99.1351
0
LINE
8
BLACK
6
CONTINUOUS
10
148.179
20
-97.7536
11
148.212
21
-97.7753
0
LINE
8
BLACK
6
CONTINUOUS
10
148.212
20
-97.7753
11
148.233
21
-97.8077
0
LINE
8
BLACK
6
CONTINUOUS
10
148.233
20
-97.8077
11
148.241
21
-97.846
0
LINE
8
BLACK
6
CONTINUOUS
10
148.241
20
-97.846
11
148.241
21
-99.121
0
LINE
8
BLACK
6
CONTINUOUS
10
148.241
20
-99.121
11
148.233
21
-99.1593
0
LINE
8
BLACK
6
CONTINUOUS
10
148.233
20
-99.1593
11
148.212
21
-99.1917
0
LINE
8
BLACK
6
CONTINUOUS
10
148.212
20
-99.1917
11
148.179
21
-99.2134
0
LINE
8
BLACK
6
CONTINUOUS
10
148.179
20
-99.2134
11
148.141
21
-99.221
0
LINE
8
BLACK
6
CONTINUOUS
10
148.141
20
-99.221
11
147.941
21
-99.221
0
LINE
8
BLACK
6
CONTINUOUS
10
147.941
20
-99.221
11
147.903
21
-99.2134
0
LINE
8
BLACK
6
CONTINUOUS
10
147.903
20
-99.2134
11
147.87
21
-99.1917
0
LINE
8
BLACK
6
CONTINUOUS
10
147.87
20
-99.1917
11
147.849
21
-99.1593
0
LINE
8
BLACK
6
CONTINUOUS
10
147.849
20
-99.1593
11
147.841
21
-99.121
0
LINE
8
BLACK
6
CONTINUOUS
10
147.841
20
-99.121
11
147.841
21
-97.846
0
LINE
8
BLACK
6
CONTINUOUS
10
147.841
20
-97.846
11
147.849
21
-97.8077
0
LINE
8
BLACK
6
CONTINUOUS
10
147.849
20
-97.8077
11
147.87
21
-97.7753
0
LINE
8
BLACK
6
CONTINUOUS
10
147.87
20
-97.7753
11
147.903
21
-97.7536
0
LINE
8
BLACK
6
CONTINUOUS
10
147.903
20
-97.7536
11
147.941
21
-97.746
0
LINE
8
BLACK
6
CONTINUOUS
10
147.941
20
-97.746
11
148.141
21
-97.746
0
LINE
8
BLACK
6
CONTINUOUS
10
148.141
20
-97.746
11
148.179
21
-97.7536
0
LINE
8
BLACK
6
CONTINUOUS
10
147.583
20
-99.1593
11
147.562
21
-99.1917
0
LINE
8
BLACK
6
CONTINUOUS
10
147.562
20
-99.1917
11
147.529
21
-99.2134
0
LINE
8
BLACK
6
CONTINUOUS
10
147.529
20
-99.2134
11
147.491
21
-99.221
0
LINE
8
BLACK
6
CONTINUOUS
10
147.491
20
-99.221
11
147.291
21
-99.221
0
LINE
8
BLACK
6
CONTINUOUS
10
147.291
20
-99.221
11
147.253
21
-99.2134
0
LINE
8
BLACK
6
CONTINUOUS
10
147.253
20
-99.2134
11
147.22
21
-99.1917
0
LINE
8
BLACK
6
CONTINUOUS
10
147.22
20
-99.1917
11
147.199
21
-99.1593
0
LINE
8
BLACK
6
CONTINUOUS
10
147.199
20
-99.1593
11
147.191
21
-99.121
0
LINE
8
BLACK
6
CONTINUOUS
10
147.191
20
-99.121
11
147.191
21
-96.7157
0
LINE
8
BLACK
6
CONTINUOUS
10
147.191
20
-96.7157
11
147.198
21
-96.6831
0
LINE
8
BLACK
6
CONTINUOUS
10
147.198
20
-96.6831
11
147.202
21
-96.6499
0
LINE
8
BLACK
6
CONTINUOUS
10
147.202
20
-96.6499
11
147.208
21
-96.6402
0
LINE
8
BLACK
6
CONTINUOUS
10
147.208
20
-96.6402
11
147.211
21
-96.629
0
LINE
8
BLACK
6
CONTINUOUS
10
147.211
20
-96.629
11
147.232
21
-96.6029
0
LINE
8
BLACK
6
CONTINUOUS
10
147.232
20
-96.6029
11
147.25
21
-96.5746
0
LINE
8
BLACK
6
CONTINUOUS
10
147.25
20
-96.5746
11
147.391
21
-96.4332
0
LINE
8
BLACK
6
CONTINUOUS
10
147.391
20
-96.4332
11
147.391
21
-96.016
0
LINE
8
BLACK
6
CONTINUOUS
10
147.391
20
-96.016
11
147.408
21
-95.9299
0
LINE
8
BLACK
6
CONTINUOUS
10
147.408
20
-95.9299
11
147.457
21
-95.8569
0
LINE
8
BLACK
6
CONTINUOUS
10
147.457
20
-95.8569
11
147.53
21
-95.8081
0
LINE
8
BLACK
6
CONTINUOUS
10
147.53
20
-95.8081
11
147.616
21
-95.791
0
LINE
8
BLACK
6
CONTINUOUS
10
147.616
20
-95.791
11
148.066
21
-95.791
0
LINE
8
BLACK
6
CONTINUOUS
10
148.066
20
-95.791
11
148.152
21
-95.8081
0
LINE
8
BLACK
6
CONTINUOUS
10
148.152
20
-95.8081
11
148.225
21
-95.8569
0
LINE
8
BLACK
6
CONTINUOUS
10
148.225
20
-95.8569
11
148.274
21
-95.9299
0
LINE
8
BLACK
6
CONTINUOUS
10
148.274
20
-95.9299
11
148.291
21
-96.016
0
LINE
8
BLACK
6
CONTINUOUS
10
148.291
20
-96.016
11
148.291
21
-96.066
0
LINE
8
BLACK
6
CONTINUOUS
10
148.291
20
-96.066
11
148.629
21
-96.066
0
LINE
8
BLACK
6
CONTINUOUS
10
148.629
20
-96.066
11
148.647
21
-96.0309
0
LINE
8
BLACK
6
CONTINUOUS
10
148.647
20
-96.0309
11
148.736
21
-95.9424
0
LINE
8
BLACK
6
CONTINUOUS
10
148.736
20
-95.9424
11
148.847
21
-95.8856
0
LINE
8
BLACK
6
CONTINUOUS
10
148.847
20
-95.8856
11
148.971
21
-95.866
0
LINE
8
BLACK
6
CONTINUOUS
10
148.971
20
-95.866
11
149.095
21
-95.8856
0
LINE
8
BLACK
6
CONTINUOUS
10
149.095
20
-95.8856
11
149.206
21
-95.9424
0
LINE
8
BLACK
6
CONTINUOUS
10
149.206
20
-95.9424
11
149.295
21
-96.0309
0
LINE
8
BLACK
6
CONTINUOUS
10
149.295
20
-96.0309
11
149.351
21
-96.1424
0
LINE
8
BLACK
6
CONTINUOUS
10
149.351
20
-96.1424
11
149.371
21
-96.266
0
LINE
8
BLACK
6
CONTINUOUS
10
149.371
20
-96.266
11
149.351
21
-96.3896
0
LINE
8
BLACK
6
CONTINUOUS
10
149.351
20
-96.3896
11
149.295
21
-96.5011
0
LINE
8
BLACK
6
CONTINUOUS
10
149.295
20
-96.5011
11
149.206
21
-96.5896
0
LINE
8
BLACK
6
CONTINUOUS
10
149.206
20
-96.5896
11
149.095
21
-96.6464
0
LINE
8
BLACK
6
CONTINUOUS
10
149.095
20
-96.6464
11
148.971
21
-96.666
0
LINE
8
BLACK
6
CONTINUOUS
10
148.971
20
-96.666
11
148.847
21
-96.6464
0
LINE
8
BLACK
6
CONTINUOUS
10
148.847
20
-96.6464
11
148.736
21
-96.5896
0
LINE
8
BLACK
6
CONTINUOUS
10
148.736
20
-96.5896
11
148.647
21
-96.5011
0
LINE
8
BLACK
6
CONTINUOUS
10
148.647
20
-96.5011
11
148.629
21
-96.466
0
LINE
8
BLACK
6
CONTINUOUS
10
148.629
20
-96.466
11
148.291
21
-96.466
0
LINE
8
BLACK
6
CONTINUOUS
10
148.291
20
-96.466
11
148.291
21
-96.516
0
LINE
8
BLACK
6
CONTINUOUS
10
148.291
20
-96.516
11
148.274
21
-96.6021
0
LINE
8
BLACK
6
CONTINUOUS
10
148.274
20
-96.6021
11
148.225
21
-96.6751
0
LINE
8
BLACK
6
CONTINUOUS
10
148.225
20
-96.6751
11
148.152
21
-96.7239
0
LINE
8
BLACK
6
CONTINUOUS
10
148.152
20
-96.7239
11
148.066
21
-96.741
0
LINE
8
BLACK
6
CONTINUOUS
10
148.066
20
-96.741
11
147.649
21
-96.741
0
LINE
8
BLACK
6
CONTINUOUS
10
147.649
20
-96.741
11
147.591
21
-96.7988
0
LINE
8
BLACK
6
CONTINUOUS
10
147.591
20
-96.7988
11
147.591
21
-99.121
0
LINE
8
BLACK
6
CONTINUOUS
10
147.591
20
-99.121
11
147.583
21
-99.1593
0
LINE
8
BLACK
6
CONTINUOUS
10
146.933
20
-99.1593
11
146.912
21
-99.1917
0
LINE
8
BLACK
6
CONTINUOUS
10
146.912
20
-99.1917
11
146.879
21
-99.2134
0
LINE
8
BLACK
6
CONTINUOUS
10
146.879
20
-99.2134
11
146.841
21
-99.221
0
LINE
8
BLACK
6
CONTINUOUS
10
146.841
20
-99.221
11
146.641
21
-99.221
0
LINE
8
BLACK
6
CONTINUOUS
10
146.641
20
-99.221
11
146.603
21
-99.2134
0
LINE
8
BLACK
6
CONTINUOUS
10
146.603
20
-99.2134
11
146.57
21
-99.1917
0
LINE
8
BLACK
6
CONTINUOUS
10
146.57
20
-99.1917
11
146.549
21
-99.1593
0
LINE
8
BLACK
6
CONTINUOUS
10
146.549
20
-99.1593
11
146.541
21
-99.121
0
LINE
8
BLACK
6
CONTINUOUS
10
146.541
20
-99.121
11
146.541
21
-96.7988
0
LINE
8
BLACK
6
CONTINUOUS
10
146.541
20
-96.7988
11
146.483
21
-96.741
0
LINE
8
BLACK
6
CONTINUOUS
10
146.483
20
-96.741
11
146.066
21
-96.741
0
LINE
8
BLACK
6
CONTINUOUS
10
146.066
20
-96.741
11
145.98
21
-96.7239
0
LINE
8
BLACK
6
CONTINUOUS
10
145.98
20
-96.7239
11
145.907
21
-96.6751
0
LINE
8
BLACK
6
CONTINUOUS
10
145.907
20
-96.6751
11
145.858
21
-96.6021
0
LINE
8
BLACK
6
CONTINUOUS
10
145.858
20
-96.6021
11
145.841
21
-96.516
0
LINE
8
BLACK
6
CONTINUOUS
10
145.841
20
-96.516
11
145.841
21
-96.466
0
LINE
8
BLACK
6
CONTINUOUS
10
145.841
20
-96.466
11
143.992
21
-96.466
0
LINE
8
BLACK
6
CONTINUOUS
10
143.992
20
-96.466
11
143.888
21
-96.5194
0
LINE
8
BLACK
6
CONTINUOUS
10
143.888
20
-96.5194
11
143.764
21
-96.539
0
LINE
8
BLACK
6
CONTINUOUS
10
143.764
20
-96.539
11
143.64
21
-96.5194
0
LINE
8
BLACK
6
CONTINUOUS
10
143.64
20
-96.5194
11
143.529
21
-96.4626
0
LINE
8
BLACK
6
CONTINUOUS
10
143.529
20
-96.4626
11
143.44
21
-96.3741
0
LINE
8
BLACK
6
CONTINUOUS
10
143.44
20
-96.3741
11
143.384
21
-96.2626
0
LINE
8
BLACK
6
CONTINUOUS
10
143.384
20
-96.2626
11
143.364
21
-96.139
0
LINE
8
BLACK
6
CONTINUOUS
10
143.364
20
-96.139
11
143.384
21
-96.0154
0
LINE
8
BLACK
6
CONTINUOUS
10
143.384
20
-96.0154
11
143.44
21
-95.9039
0
LINE
8
BLACK
6
CONTINUOUS
10
143.44
20
-95.9039
11
143.529
21
-95.8154
0
LINE
8
BLACK
6
CONTINUOUS
10
143.529
20
-95.8154
11
143.64
21
-95.7586
0
LINE
8
BLACK
6
CONTINUOUS
10
143.64
20
-95.7586
11
143.764
21
-95.739
0
LINE
8
BLACK
6
CONTINUOUS
10
143.764
20
-95.739
11
143.888
21
-95.7586
0
LINE
8
BLACK
6
CONTINUOUS
10
143.888
20
-95.7586
11
143.999
21
-95.8154
0
LINE
8
BLACK
6
CONTINUOUS
10
143.999
20
-95.8154
11
144.088
21
-95.9039
0
LINE
8
BLACK
6
CONTINUOUS
10
144.088
20
-95.9039
11
144.144
21
-96.0154
0
LINE
8
BLACK
6
CONTINUOUS
10
144.144
20
-96.0154
11
144.152
21
-96.066
0
LINE
8
BLACK
6
CONTINUOUS
10
144.152
20
-96.066
11
145.841
21
-96.066
0
LINE
8
BLACK
6
CONTINUOUS
10
145.841
20
-96.066
11
145.841
21
-96.016
0
LINE
8
BLACK
6
CONTINUOUS
10
145.841
20
-96.016
11
145.858
21
-95.9299
0
LINE
8
BLACK
6
CONTINUOUS
10
145.858
20
-95.9299
11
145.907
21
-95.8569
0
LINE
8
BLACK
6
CONTINUOUS
10
145.907
20
-95.8569
11
145.98
21
-95.8081
0
LINE
8
BLACK
6
CONTINUOUS
10
145.98
20
-95.8081
11
146.066
21
-95.791
0
LINE
8
BLACK
6
CONTINUOUS
10
146.066
20
-95.791
11
146.516
21
-95.791
0
LINE
8
BLACK
6
CONTINUOUS
10
146.516
20
-95.791
11
146.602
21
-95.8081
0
LINE
8
BLACK
6
CONTINUOUS
10
146.602
20
-95.8081
11
146.675
21
-95.8569
0
LINE
8
BLACK
6
CONTINUOUS
10
146.675
20
-95.8569
11
146.724
21
-95.9299
0
LINE
8
BLACK
6
CONTINUOUS
10
146.724
20
-95.9299
11
146.741
21
-96.016
0
LINE
8
BLACK
6
CONTINUOUS
10
146.741
20
-96.016
11
146.741
21
-96.4332
0
LINE
8
BLACK
6
CONTINUOUS
10
146.741
20
-96.4332
11
146.883
21
-96.5748
0
LINE
8
BLACK
6
CONTINUOUS
10
146.883
20
-96.5748
11
146.9
21
-96.6031
0
LINE
8
BLACK
6
CONTINUOUS
10
146.9
20
-96.6031
11
146.921
21
-96.6293
0
LINE
8
BLACK
6
CONTINUOUS
10
146.921
20
-96.6293
11
146.924
21
-96.6405
0
LINE
8
BLACK
6
CONTINUOUS
10
146.924
20
-96.6405
11
146.93
21
-96.6502
0
LINE
8
BLACK
6
CONTINUOUS
10
146.93
20
-96.6502
11
146.934
21
-96.6834
0
LINE
8
BLACK
6
CONTINUOUS
10
146.934
20
-96.6834
11
146.941
21
-96.716
0
LINE
8
BLACK
6
CONTINUOUS
10
146.941
20
-96.716
11
146.941
21
-99.121
0
LINE
8
BLACK
6
CONTINUOUS
10
146.941
20
-99.121
11
146.933
21
-99.1593
0
LINE
8
BLACK
6
CONTINUOUS
10
142.503
20
-93.1716
11
142.665
21
-93.2439
0
LINE
8
BLACK
6
CONTINUOUS
10
142.665
20
-93.2439
11
142.809
21
-93.3483
0
LINE
8
BLACK
6
CONTINUOUS
10
142.809
20
-93.3483
11
142.928
21
-93.4804
0
LINE
8
BLACK
6
CONTINUOUS
10
142.928
20
-93.4804
11
143.017
21
-93.6343
0
LINE
8
BLACK
6
CONTINUOUS
10
143.017
20
-93.6343
11
143.071
21
-93.8033
0
LINE
8
BLACK
6
CONTINUOUS
10
143.071
20
-93.8033
11
143.09
21
-93.98
0
LINE
8
BLACK
6
CONTINUOUS
10
143.09
20
-93.98
11
143.071
21
-94.1567
0
LINE
8
BLACK
6
CONTINUOUS
10
143.071
20
-94.1567
11
143.017
21
-94.3257
0
LINE
8
BLACK
6
CONTINUOUS
10
143.017
20
-94.3257
11
142.928
21
-94.4796
0
LINE
8
BLACK
6
CONTINUOUS
10
142.928
20
-94.4796
11
142.809
21
-94.6117
0
LINE
8
BLACK
6
CONTINUOUS
10
142.809
20
-94.6117
11
142.665
21
-94.7161
0
LINE
8
BLACK
6
CONTINUOUS
10
142.665
20
-94.7161
11
142.503
21
-94.7884
0
LINE
8
BLACK
6
CONTINUOUS
10
142.503
20
-94.7884
11
142.44
21
-94.8017
0
LINE
8
BLACK
6
CONTINUOUS
10
142.44
20
-94.8017
11
142.44
21
-96.1832
0
LINE
8
BLACK
6
CONTINUOUS
10
142.44
20
-96.1832
11
143.212
21
-96.955
0
LINE
8
BLACK
6
CONTINUOUS
10
143.212
20
-96.955
11
144.357
21
-96.955
0
LINE
8
BLACK
6
CONTINUOUS
10
144.357
20
-96.955
11
144.39
21
-96.9625
0
LINE
8
BLACK
6
CONTINUOUS
10
144.39
20
-96.9625
11
144.423
21
-96.9662
0
LINE
8
BLACK
6
CONTINUOUS
10
144.423
20
-96.9662
11
144.433
21
-96.9724
0
LINE
8
BLACK
6
CONTINUOUS
10
144.433
20
-96.9724
11
144.444
21
-96.9749
0
LINE
8
BLACK
6
CONTINUOUS
10
144.444
20
-96.9749
11
144.47
21
-96.9958
0
LINE
8
BLACK
6
CONTINUOUS
10
144.47
20
-96.9958
11
144.499
21
-97.0136
0
LINE
8
BLACK
6
CONTINUOUS
10
144.499
20
-97.0136
11
144.983
21
-97.4977
0
LINE
8
BLACK
6
CONTINUOUS
10
144.983
20
-97.4977
11
145
21
-97.526
0
LINE
8
BLACK
6
CONTINUOUS
10
145
20
-97.526
11
145.021
21
-97.5522
0
LINE
8
BLACK
6
CONTINUOUS
10
145.021
20
-97.5522
11
145.024
21
-97.5634
0
LINE
8
BLACK
6
CONTINUOUS
10
145.024
20
-97.5634
11
145.03
21
-97.5731
0
LINE
8
BLACK
6
CONTINUOUS
10
145.03
20
-97.5731
11
145.034
21
-97.6063
0
LINE
8
BLACK
6
CONTINUOUS
10
145.034
20
-97.6063
11
145.041
21
-97.6389
0
LINE
8
BLACK
6
CONTINUOUS
10
145.041
20
-97.6389
11
145.041
21
-98.4339
0
LINE
8
BLACK
6
CONTINUOUS
10
145.041
20
-98.4339
11
145.034
21
-98.4664
0
LINE
8
BLACK
6
CONTINUOUS
10
145.034
20
-98.4664
11
145.03
21
-98.4996
0
LINE
8
BLACK
6
CONTINUOUS
10
145.03
20
-98.4996
11
145.024
21
-98.5093
0
LINE
8
BLACK
6
CONTINUOUS
10
145.024
20
-98.5093
11
145.021
21
-98.5206
0
LINE
8
BLACK
6
CONTINUOUS
10
145.021
20
-98.5206
11
145
21
-98.5466
0
LINE
8
BLACK
6
CONTINUOUS
10
145
20
-98.5466
11
144.991
21
-98.5613
0
LINE
8
BLACK
6
CONTINUOUS
10
144.991
20
-98.5613
11
144.991
21
-99.121
0
LINE
8
BLACK
6
CONTINUOUS
10
144.991
20
-99.121
11
144.983
21
-99.1593
0
LINE
8
BLACK
6
CONTINUOUS
10
144.983
20
-99.1593
11
144.962
21
-99.1917
0
LINE
8
BLACK
6
CONTINUOUS
10
144.962
20
-99.1917
11
144.929
21
-99.2134
0
LINE
8
BLACK
6
CONTINUOUS
10
144.929
20
-99.2134
11
144.891
21
-99.221
0
LINE
8
BLACK
6
CONTINUOUS
10
144.891
20
-99.221
11
144.691
21
-99.221
0
LINE
8
BLACK
6
CONTINUOUS
10
144.691
20
-99.221
11
144.653
21
-99.2134
0
LINE
8
BLACK
6
CONTINUOUS
10
144.653
20
-99.2134
11
144.62
21
-99.1917
0
LINE
8
BLACK
6
CONTINUOUS
10
144.62
20
-99.1917
11
144.599
21
-99.1593
0
LINE
8
BLACK
6
CONTINUOUS
10
144.599
20
-99.1593
11
144.591
21
-99.121
0
LINE
8
BLACK
6
CONTINUOUS
10
144.591
20
-99.121
11
144.591
21
-97.846
0
LINE
8
BLACK
6
CONTINUOUS
10
144.591
20
-97.846
11
144.599
21
-97.8077
0
LINE
8
BLACK
6
CONTINUOUS
10
144.599
20
-97.8077
11
144.62
21
-97.7753
0
LINE
8
BLACK
6
CONTINUOUS
10
144.62
20
-97.7753
11
144.641
21
-97.7615
0
LINE
8
BLACK
6
CONTINUOUS
10
144.641
20
-97.7615
11
144.641
21
-97.7217
0
LINE
8
BLACK
6
CONTINUOUS
10
144.641
20
-97.7217
11
144.274
21
-97.355
0
LINE
8
BLACK
6
CONTINUOUS
10
144.274
20
-97.355
11
143.129
21
-97.355
0
LINE
8
BLACK
6
CONTINUOUS
10
143.129
20
-97.355
11
143.096
21
-97.3475
0
LINE
8
BLACK
6
CONTINUOUS
10
143.096
20
-97.3475
11
143.063
21
-97.3438
0
LINE
8
BLACK
6
CONTINUOUS
10
143.063
20
-97.3438
11
143.053
21
-97.3376
0
LINE
8
BLACK
6
CONTINUOUS
10
143.053
20
-97.3376
11
143.042
21
-97.3351
0
LINE
8
BLACK
6
CONTINUOUS
10
143.042
20
-97.3351
11
143.016
21
-97.3142
0
LINE
8
BLACK
6
CONTINUOUS
10
143.016
20
-97.3142
11
142.988
21
-97.2964
0
LINE
8
BLACK
6
CONTINUOUS
10
142.988
20
-97.2964
11
142.098
21
-96.4072
0
LINE
8
BLACK
6
CONTINUOUS
10
142.098
20
-96.4072
11
142.081
21
-96.3789
0
LINE
8
BLACK
6
CONTINUOUS
10
142.081
20
-96.3789
11
142.06
21
-96.3527
0
LINE
8
BLACK
6
CONTINUOUS
10
142.06
20
-96.3527
11
142.057
21
-96.3415
0
LINE
8
BLACK
6
CONTINUOUS
10
142.057
20
-96.3415
11
142.051
21
-96.3318
0
LINE
8
BLACK
6
CONTINUOUS
10
142.051
20
-96.3318
11
142.047
21
-96.2986
0
LINE
8
BLACK
6
CONTINUOUS
10
142.047
20
-96.2986
11
142.04
21
-96.266
0
LINE
8
BLACK
6
CONTINUOUS
10
142.04
20
-96.266
11
142.04
21
-94.8017
0
LINE
8
BLACK
6
CONTINUOUS
10
142.04
20
-94.8017
11
141.977
21
-94.7884
0
LINE
8
BLACK
6
CONTINUOUS
10
141.977
20
-94.7884
11
141.815
21
-94.7161
0
LINE
8
BLACK
6
CONTINUOUS
10
141.815
20
-94.7161
11
141.671
21
-94.6117
0
LINE
8
BLACK
6
CONTINUOUS
10
141.671
20
-94.6117
11
141.552
21
-94.4796
0
LINE
8
BLACK
6
CONTINUOUS
10
141.552
20
-94.4796
11
141.463
21
-94.3257
0
LINE
8
BLACK
6
CONTINUOUS
10
141.463
20
-94.3257
11
141.409
21
-94.1567
0
LINE
8
BLACK
6
CONTINUOUS
10
141.409
20
-94.1567
11
141.39
21
-93.98
0
LINE
8
BLACK
6
CONTINUOUS
10
141.39
20
-93.98
11
141.409
21
-93.8033
0
LINE
8
BLACK
6
CONTINUOUS
10
141.409
20
-93.8033
11
141.463
21
-93.6343
0
LINE
8
BLACK
6
CONTINUOUS
10
141.463
20
-93.6343
11
141.552
21
-93.4804
0
LINE
8
BLACK
6
CONTINUOUS
10
141.552
20
-93.4804
11
141.671
21
-93.3483
0
LINE
8
BLACK
6
CONTINUOUS
10
141.671
20
-93.3483
11
141.815
21
-93.2439
0
LINE
8
BLACK
6
CONTINUOUS
10
141.815
20
-93.2439
11
141.977
21
-93.1716
0
LINE
8
BLACK
6
CONTINUOUS
10
141.977
20
-93.1716
11
142.151
21
-93.1347
0
LINE
8
BLACK
6
CONTINUOUS
10
142.151
20
-93.1347
11
142.329
21
-93.1347
0
LINE
8
BLACK
6
CONTINUOUS
10
142.329
20
-93.1347
11
142.503
21
-93.1716
0
LINE
8
BLACK
6
CONTINUOUS
10
144.279
20
-97.7536
11
144.312
21
-97.7753
0
LINE
8
BLACK
6
CONTINUOUS
10
144.312
20
-97.7753
11
144.333
21
-97.8077
0
LINE
8
BLACK
6
CONTINUOUS
10
144.333
20
-97.8077
11
144.341
21
-97.846
0
LINE
8
BLACK
6
CONTINUOUS
10
144.341
20
-97.846
11
144.341
21
-99.121
0
LINE
8
BLACK
6
CONTINUOUS
10
144.341
20
-99.121
11
144.333
21
-99.1593
0
LINE
8
BLACK
6
CONTINUOUS
10
144.333
20
-99.1593
11
144.312
21
-99.1917
0
LINE
8
BLACK
6
CONTINUOUS
10
144.312
20
-99.1917
11
144.279
21
-99.2134
0
LINE
8
BLACK
6
CONTINUOUS
10
144.279
20
-99.2134
11
144.241
21
-99.221
0
LINE
8
BLACK
6
CONTINUOUS
10
144.241
20
-99.221
11
144.041
21
-99.221
0
LINE
8
BLACK
6
CONTINUOUS
10
144.041
20
-99.221
11
144.003
21
-99.2134
0
LINE
8
BLACK
6
CONTINUOUS
10
144.003
20
-99.2134
11
143.97
21
-99.1917
0
LINE
8
BLACK
6
CONTINUOUS
10
143.97
20
-99.1917
11
143.949
21
-99.1593
0
LINE
8
BLACK
6
CONTINUOUS
10
143.949
20
-99.1593
11
143.941
21
-99.121
0
LINE
8
BLACK
6
CONTINUOUS
10
143.941
20
-99.121
11
143.941
21
-98.6835
0
LINE
8
BLACK
6
CONTINUOUS
10
143.941
20
-98.6835
11
143.314
21
-98.6835
0
LINE
8
BLACK
6
CONTINUOUS
10
143.314
20
-98.6835
11
143.282
21
-98.676
0
LINE
8
BLACK
6
CONTINUOUS
10
143.282
20
-98.676
11
143.262
21
-98.6738
0
LINE
8
BLACK
6
CONTINUOUS
10
143.262
20
-98.6738
11
143.253
21
-98.6784
0
LINE
8
BLACK
6
CONTINUOUS
10
143.253
20
-98.6784
11
143.129
21
-98.698
0
LINE
8
BLACK
6
CONTINUOUS
10
143.129
20
-98.698
11
143.005
21
-98.6784
0
LINE
8
BLACK
6
CONTINUOUS
10
143.005
20
-98.6784
11
142.894
21
-98.6216
0
LINE
8
BLACK
6
CONTINUOUS
10
142.894
20
-98.6216
11
142.805
21
-98.5331
0
LINE
8
BLACK
6
CONTINUOUS
10
142.805
20
-98.5331
11
142.749
21
-98.4216
0
LINE
8
BLACK
6
CONTINUOUS
10
142.749
20
-98.4216
11
142.729
21
-98.298
0
LINE
8
BLACK
6
CONTINUOUS
10
142.729
20
-98.298
11
142.749
21
-98.1744
0
LINE
8
BLACK
6
CONTINUOUS
10
142.749
20
-98.1744
11
142.805
21
-98.0629
0
LINE
8
BLACK
6
CONTINUOUS
10
142.805
20
-98.0629
11
142.894
21
-97.9744
0
LINE
8
BLACK
6
CONTINUOUS
10
142.894
20
-97.9744
11
143.005
21
-97.9176
0
LINE
8
BLACK
6
CONTINUOUS
10
143.005
20
-97.9176
11
143.129
21
-97.898
0
LINE
8
BLACK
6
CONTINUOUS
10
143.129
20
-97.898
11
143.253
21
-97.9176
0
LINE
8
BLACK
6
CONTINUOUS
10
143.253
20
-97.9176
11
143.364
21
-97.9744
0
LINE
8
BLACK
6
CONTINUOUS
10
143.364
20
-97.9744
11
143.453
21
-98.0629
0
LINE
8
BLACK
6
CONTINUOUS
10
143.453
20
-98.0629
11
143.509
21
-98.1744
0
LINE
8
BLACK
6
CONTINUOUS
10
143.509
20
-98.1744
11
143.527
21
-98.2835
0
LINE
8
BLACK
6
CONTINUOUS
10
143.527
20
-98.2835
11
143.941
21
-98.2835
0
LINE
8
BLACK
6
CONTINUOUS
10
143.941
20
-98.2835
11
143.941
21
-97.846
0
LINE
8
BLACK
6
CONTINUOUS
10
143.941
20
-97.846
11
143.949
21
-97.8077
0
LINE
8
BLACK
6
CONTINUOUS
10
143.949
20
-97.8077
11
143.97
21
-97.7753
0
LINE
8
BLACK
6
CONTINUOUS
10
143.97
20
-97.7753
11
144.003
21
-97.7536
0
LINE
8
BLACK
6
CONTINUOUS
10
144.003
20
-97.7536
11
144.041
21
-97.746
0
LINE
8
BLACK
6
CONTINUOUS
10
144.041
20
-97.746
11
144.241
21
-97.746
0
LINE
8
BLACK
6
CONTINUOUS
10
144.241
20
-97.746
11
144.279
21
-97.7536
0
LINE
8
BLACK
6
CONTINUOUS
10
139.347
20
-97.1259
11
139.396
21
-97.1989
0
LINE
8
BLACK
6
CONTINUOUS
10
139.396
20
-97.1989
11
139.413
21
-97.285
0
LINE
8
BLACK
6
CONTINUOUS
10
139.413
20
-97.285
11
139.413
21
-97.49
0
LINE
8
BLACK
6
CONTINUOUS
10
139.413
20
-97.49
11
139.591
21
-97.668
0
LINE
8
BLACK
6
CONTINUOUS
10
139.591
20
-97.668
11
140.792
21
-97.668
0
LINE
8
BLACK
6
CONTINUOUS
10
140.792
20
-97.668
11
140.815
21
-97.6339
0
LINE
8
BLACK
6
CONTINUOUS
10
140.815
20
-97.6339
11
140.888
21
-97.5851
0
LINE
8
BLACK
6
CONTINUOUS
10
140.888
20
-97.5851
11
140.974
21
-97.568
0
LINE
8
BLACK
6
CONTINUOUS
10
140.974
20
-97.568
11
141.474
21
-97.568
0
LINE
8
BLACK
6
CONTINUOUS
10
141.474
20
-97.568
11
141.56
21
-97.5851
0
LINE
8
BLACK
6
CONTINUOUS
10
141.56
20
-97.5851
11
141.633
21
-97.6339
0
LINE
8
BLACK
6
CONTINUOUS
10
141.633
20
-97.6339
11
141.682
21
-97.7069
0
LINE
8
BLACK
6
CONTINUOUS
10
141.682
20
-97.7069
11
141.699
21
-97.793
0
LINE
8
BLACK
6
CONTINUOUS
10
141.699
20
-97.793
11
141.699
21
-98.243
0
LINE
8
BLACK
6
CONTINUOUS
10
141.699
20
-98.243
11
141.682
21
-98.3291
0
LINE
8
BLACK
6
CONTINUOUS
10
141.682
20
-98.3291
11
141.633
21
-98.4021
0
LINE
8
BLACK
6
CONTINUOUS
10
141.633
20
-98.4021
11
141.56
21
-98.4509
0
LINE
8
BLACK
6
CONTINUOUS
10
141.56
20
-98.4509
11
141.474
21
-98.468
0
LINE
8
BLACK
6
CONTINUOUS
10
141.474
20
-98.468
11
140.974
21
-98.468
0
LINE
8
BLACK
6
CONTINUOUS
10
140.974
20
-98.468
11
140.888
21
-98.4509
0
LINE
8
BLACK
6
CONTINUOUS
10
140.888
20
-98.4509
11
140.815
21
-98.4021
0
LINE
8
BLACK
6
CONTINUOUS
10
140.815
20
-98.4021
11
140.792
21
-98.368
0
LINE
8
BLACK
6
CONTINUOUS
10
140.792
20
-98.368
11
139.446
21
-98.368
0
LINE
8
BLACK
6
CONTINUOUS
10
139.446
20
-98.368
11
139.41
21
-98.3649
0
LINE
8
BLACK
6
CONTINUOUS
10
139.41
20
-98.3649
11
139.402
21
-98.3652
0
LINE
8
BLACK
6
CONTINUOUS
10
139.402
20
-98.3652
11
139.397
21
-98.3638
0
LINE
8
BLACK
6
CONTINUOUS
10
139.397
20
-98.3638
11
139.386
21
-98.3628
0
LINE
8
BLACK
6
CONTINUOUS
10
139.386
20
-98.3628
11
139.339
21
-98.3464
0
LINE
8
BLACK
6
CONTINUOUS
10
139.339
20
-98.3464
11
139.292
21
-98.3323
0
LINE
8
BLACK
6
CONTINUOUS
10
139.292
20
-98.3323
11
139.285
21
-98.3275
0
LINE
8
BLACK
6
CONTINUOUS
10
139.285
20
-98.3275
11
139.277
21
-98.3247
0
LINE
8
BLACK
6
CONTINUOUS
10
139.277
20
-98.3247
11
139.239
21
-98.2942
0
LINE
8
BLACK
6
CONTINUOUS
10
139.239
20
-98.2942
11
139.199
21
-98.2655
0
LINE
8
BLACK
6
CONTINUOUS
10
139.199
20
-98.2655
11
138.893
21
-97.96
0
LINE
8
BLACK
6
CONTINUOUS
10
138.893
20
-97.96
11
138.688
21
-97.96
0
LINE
8
BLACK
6
CONTINUOUS
10
138.688
20
-97.96
11
138.602
21
-97.9429
0
LINE
8
BLACK
6
CONTINUOUS
10
138.602
20
-97.9429
11
138.529
21
-97.8941
0
LINE
8
BLACK
6
CONTINUOUS
10
138.529
20
-97.8941
11
138.48
21
-97.8211
0
LINE
8
BLACK
6
CONTINUOUS
10
138.48
20
-97.8211
11
138.463
21
-97.735
0
LINE
8
BLACK
6
CONTINUOUS
10
138.463
20
-97.735
11
138.463
21
-97.285
0
LINE
8
BLACK
6
CONTINUOUS
10
138.463
20
-97.285
11
138.48
21
-97.1989
0
LINE
8
BLACK
6
CONTINUOUS
10
138.48
20
-97.1989
11
138.529
21
-97.1259
0
LINE
8
BLACK
6
CONTINUOUS
10
138.529
20
-97.1259
11
138.532
21
-97.124
0
LINE
8
BLACK
6
CONTINUOUS
10
138.532
20
-97.124
11
136.53
21
-97.124
0
LINE
8
BLACK
6
CONTINUOUS
10
136.53
20
-97.124
11
136.49
21
-97.1831
0
LINE
8
BLACK
6
CONTINUOUS
10
136.49
20
-97.1831
11
136.417
21
-97.2319
0
LINE
8
BLACK
6
CONTINUOUS
10
136.417
20
-97.2319
11
136.331
21
-97.249
0
LINE
8
BLACK
6
CONTINUOUS
10
136.331
20
-97.249
11
135.881
21
-97.249
0
LINE
8
BLACK
6
CONTINUOUS
10
135.881
20
-97.249
11
135.795
21
-97.2319
0
LINE
8
BLACK
6
CONTINUOUS
10
135.795
20
-97.2319
11
135.722
21
-97.1831
0
LINE
8
BLACK
6
CONTINUOUS
10
135.722
20
-97.1831
11
135.673
21
-97.1101
0
LINE
8
BLACK
6
CONTINUOUS
10
135.673
20
-97.1101
11
135.656
21
-97.024
0
LINE
8
BLACK
6
CONTINUOUS
10
135.656
20
-97.024
11
135.656
21
-96.524
0
LINE
8
BLACK
6
CONTINUOUS
10
135.656
20
-96.524
11
135.673
21
-96.4379
0
LINE
8
BLACK
6
CONTINUOUS
10
135.673
20
-96.4379
11
135.722
21
-96.3649
0
LINE
8
BLACK
6
CONTINUOUS
10
135.722
20
-96.3649
11
135.795
21
-96.3161
0
LINE
8
BLACK
6
CONTINUOUS
10
135.795
20
-96.3161
11
135.881
21
-96.299
0
LINE
8
BLACK
6
CONTINUOUS
10
135.881
20
-96.299
11
136.331
21
-96.299
0
LINE
8
BLACK
6
CONTINUOUS
10
136.331
20
-96.299
11
136.417
21
-96.3161
0
LINE
8
BLACK
6
CONTINUOUS
10
136.417
20
-96.3161
11
136.49
21
-96.3649
0
LINE
8
BLACK
6
CONTINUOUS
10
136.49
20
-96.3649
11
136.53
21
-96.424
0
LINE
8
BLACK
6
CONTINUOUS
10
136.53
20
-96.424
11
138.588
21
-96.424
0
LINE
8
BLACK
6
CONTINUOUS
10
138.588
20
-96.424
11
138.588
21
-94.742
0
LINE
8
BLACK
6
CONTINUOUS
10
138.588
20
-94.742
11
138.591
21
-94.7064
0
LINE
8
BLACK
6
CONTINUOUS
10
138.591
20
-94.7064
11
138.591
21
-94.6981
0
LINE
8
BLACK
6
CONTINUOUS
10
138.591
20
-94.6981
11
138.592
21
-94.6932
0
LINE
8
BLACK
6
CONTINUOUS
10
138.592
20
-94.6932
11
138.593
21
-94.6818
0
LINE
8
BLACK
6
CONTINUOUS
10
138.593
20
-94.6818
11
138.61
21
-94.6353
0
LINE
8
BLACK
6
CONTINUOUS
10
138.61
20
-94.6353
11
138.624
21
-94.588
0
LINE
8
BLACK
6
CONTINUOUS
10
138.624
20
-94.588
11
138.629
21
-94.5812
0
LINE
8
BLACK
6
CONTINUOUS
10
138.629
20
-94.5812
11
138.631
21
-94.5734
0
LINE
8
BLACK
6
CONTINUOUS
10
138.631
20
-94.5734
11
138.662
21
-94.5346
0
LINE
8
BLACK
6
CONTINUOUS
10
138.662
20
-94.5346
11
138.691
21
-94.4945
0
LINE
8
BLACK
6
CONTINUOUS
10
138.691
20
-94.4945
11
138.908
21
-94.2773
0
LINE
8
BLACK
6
CONTINUOUS
10
138.908
20
-94.2773
11
138.869
21
-94.1567
0
LINE
8
BLACK
6
CONTINUOUS
10
138.869
20
-94.1567
11
138.85
21
-93.98
0
LINE
8
BLACK
6
CONTINUOUS
10
138.85
20
-93.98
11
138.869
21
-93.8033
0
LINE
8
BLACK
6
CONTINUOUS
10
138.869
20
-93.8033
11
138.923
21
-93.6343
0
LINE
8
BLACK
6
CONTINUOUS
10
138.923
20
-93.6343
11
139.012
21
-93.4804
0
LINE
8
BLACK
6
CONTINUOUS
10
139.012
20
-93.4804
11
139.131
21
-93.3483
0
LINE
8
BLACK
6
CONTINUOUS
10
139.131
20
-93.3483
11
139.275
21
-93.2439
0
LINE
8
BLACK
6
CONTINUOUS
10
139.275
20
-93.2439
11
139.437
21
-93.1716
0
LINE
8
BLACK
6
CONTINUOUS
10
139.437
20
-93.1716
11
139.611
21
-93.1347
0
LINE
8
BLACK
6
CONTINUOUS
10
139.611
20
-93.1347
11
139.789
21
-93.1347
0
LINE
8
BLACK
6
CONTINUOUS
10
139.789
20
-93.1347
11
139.963
21
-93.1716
0
LINE
8
BLACK
6
CONTINUOUS
10
139.963
20
-93.1716
11
140.125
21
-93.2439
0
LINE
8
BLACK
6
CONTINUOUS
10
140.125
20
-93.2439
11
140.269
21
-93.3483
0
LINE
8
BLACK
6
CONTINUOUS
10
140.269
20
-93.3483
11
140.388
21
-93.4804
0
LINE
8
BLACK
6
CONTINUOUS
10
140.388
20
-93.4804
11
140.477
21
-93.6343
0
LINE
8
BLACK
6
CONTINUOUS
10
140.477
20
-93.6343
11
140.531
21
-93.8033
0
LINE
8
BLACK
6
CONTINUOUS
10
140.531
20
-93.8033
11
140.55
21
-93.98
0
LINE
8
BLACK
6
CONTINUOUS
10
140.55
20
-93.98
11
140.531
21
-94.1567
0
LINE
8
BLACK
6
CONTINUOUS
10
140.531
20
-94.1567
11
140.477
21
-94.3257
0
LINE
8
BLACK
6
CONTINUOUS
10
140.477
20
-94.3257
11
140.388
21
-94.4796
0
LINE
8
BLACK
6
CONTINUOUS
10
140.388
20
-94.4796
11
140.269
21
-94.6117
0
LINE
8
BLACK
6
CONTINUOUS
10
140.269
20
-94.6117
11
140.125
21
-94.7161
0
LINE
8
BLACK
6
CONTINUOUS
10
140.125
20
-94.7161
11
139.963
21
-94.7884
0
LINE
8
BLACK
6
CONTINUOUS
10
139.963
20
-94.7884
11
139.789
21
-94.8253
0
LINE
8
BLACK
6
CONTINUOUS
10
139.789
20
-94.8253
11
139.611
21
-94.8253
0
LINE
8
BLACK
6
CONTINUOUS
10
139.611
20
-94.8253
11
139.437
21
-94.7884
0
LINE
8
BLACK
6
CONTINUOUS
10
139.437
20
-94.7884
11
139.402
21
-94.7728
0
LINE
8
BLACK
6
CONTINUOUS
10
139.402
20
-94.7728
11
139.288
21
-94.887
0
LINE
8
BLACK
6
CONTINUOUS
10
139.288
20
-94.887
11
139.288
21
-97.0864
0
LINE
8
BLACK
6
CONTINUOUS
10
139.288
20
-97.0864
11
139.347
21
-97.1259
0
LINE
8
BLACK
6
CONTINUOUS
10
155.611
20
-91.7281
11
155.619
21
-91.7278
0
LINE
8
BLACK
6
CONTINUOUS
10
155.619
20
-91.7278
11
155.624
21
-91.7292
0
LINE
8
BLACK
6
CONTINUOUS
10
155.624
20
-91.7292
11
155.635
21
-91.7302
0
LINE
8
BLACK
6
CONTINUOUS
10
155.635
20
-91.7302
11
155.682
21
-91.7466
0
LINE
8
BLACK
6
CONTINUOUS
10
155.682
20
-91.7466
11
155.729
21
-91.7607
0
LINE
8
BLACK
6
CONTINUOUS
10
155.729
20
-91.7607
11
155.736
21
-91.7655
0
LINE
8
BLACK
6
CONTINUOUS
10
155.736
20
-91.7655
11
155.744
21
-91.7683
0
LINE
8
BLACK
6
CONTINUOUS
10
155.744
20
-91.7683
11
155.782
21
-91.7988
0
LINE
8
BLACK
6
CONTINUOUS
10
155.782
20
-91.7988
11
155.822
21
-91.8275
0
LINE
8
BLACK
6
CONTINUOUS
10
155.822
20
-91.8275
11
157.182
21
-93.1872
0
LINE
8
BLACK
6
CONTINUOUS
10
157.182
20
-93.1872
11
157.217
21
-93.1716
0
LINE
8
BLACK
6
CONTINUOUS
10
157.217
20
-93.1716
11
157.391
21
-93.1347
0
LINE
8
BLACK
6
CONTINUOUS
10
157.391
20
-93.1347
11
157.569
21
-93.1347
0
LINE
8
BLACK
6
CONTINUOUS
10
157.569
20
-93.1347
11
157.743
21
-93.1716
0
LINE
8
BLACK
6
CONTINUOUS
10
157.743
20
-93.1716
11
157.905
21
-93.2439
0
LINE
8
BLACK
6
CONTINUOUS
10
157.905
20
-93.2439
11
158.049
21
-93.3483
0
LINE
8
BLACK
6
CONTINUOUS
10
158.049
20
-93.3483
11
158.168
21
-93.4804
0
LINE
8
BLACK
6
CONTINUOUS
10
158.168
20
-93.4804
11
158.257
21
-93.6343
0
LINE
8
BLACK
6
CONTINUOUS
10
158.257
20
-93.6343
11
158.311
21
-93.8033
0
LINE
8
BLACK
6
CONTINUOUS
10
158.311
20
-93.8033
11
158.33
21
-93.98
0
LINE
8
BLACK
6
CONTINUOUS
10
158.33
20
-93.98
11
158.311
21
-94.1567
0
LINE
8
BLACK
6
CONTINUOUS
10
158.311
20
-94.1567
11
158.257
21
-94.3257
0
LINE
8
BLACK
6
CONTINUOUS
10
158.257
20
-94.3257
11
158.168
21
-94.4796
0
LINE
8
BLACK
6
CONTINUOUS
10
158.168
20
-94.4796
11
158.049
21
-94.6117
0
LINE
8
BLACK
6
CONTINUOUS
10
158.049
20
-94.6117
11
157.905
21
-94.7161
0
LINE
8
BLACK
6
CONTINUOUS
10
157.905
20
-94.7161
11
157.83
21
-94.7495
0
LINE
8
BLACK
6
CONTINUOUS
10
157.83
20
-94.7495
11
157.83
21
-95.88
0
LINE
8
BLACK
6
CONTINUOUS
10
157.83
20
-95.88
11
157.827
21
-95.9156
0
LINE
8
BLACK
6
CONTINUOUS
10
157.827
20
-95.9156
11
157.827
21
-95.9239
0
LINE
8
BLACK
6
CONTINUOUS
10
157.827
20
-95.9239
11
157.826
21
-95.9288
0
LINE
8
BLACK
6
CONTINUOUS
10
157.826
20
-95.9288
11
157.825
21
-95.9402
0
LINE
8
BLACK
6
CONTINUOUS
10
157.825
20
-95.9402
11
157.808
21
-95.9867
0
LINE
8
BLACK
6
CONTINUOUS
10
157.808
20
-95.9867
11
157.794
21
-96.034
0
LINE
8
BLACK
6
CONTINUOUS
10
157.794
20
-96.034
11
157.789
21
-96.0408
0
LINE
8
BLACK
6
CONTINUOUS
10
157.789
20
-96.0408
11
157.787
21
-96.0486
0
LINE
8
BLACK
6
CONTINUOUS
10
157.787
20
-96.0486
11
157.756
21
-96.0873
0
LINE
8
BLACK
6
CONTINUOUS
10
157.756
20
-96.0873
11
157.727
21
-96.1275
0
LINE
8
BLACK
6
CONTINUOUS
10
157.727
20
-96.1275
11
157.34
21
-96.515
0
LINE
8
BLACK
6
CONTINUOUS
10
157.34
20
-96.515
11
157.34
21
-96.995
0
LINE
8
BLACK
6
CONTINUOUS
10
157.34
20
-96.995
11
157.321
21
-97.0907
0
LINE
8
BLACK
6
CONTINUOUS
10
157.321
20
-97.0907
11
157.267
21
-97.1718
0
LINE
8
BLACK
6
CONTINUOUS
10
157.267
20
-97.1718
11
157.186
21
-97.226
0
LINE
8
BLACK
6
CONTINUOUS
10
157.186
20
-97.226
11
157.09
21
-97.245
0
LINE
8
BLACK
6
CONTINUOUS
10
157.09
20
-97.245
11
156.59
21
-97.245
0
LINE
8
BLACK
6
CONTINUOUS
10
156.59
20
-97.245
11
156.494
21
-97.226
0
LINE
8
BLACK
6
CONTINUOUS
10
156.494
20
-97.226
11
156.413
21
-97.1718
0
LINE
8
BLACK
6
CONTINUOUS
10
156.413
20
-97.1718
11
156.359
21
-97.0907
0
LINE
8
BLACK
6
CONTINUOUS
10
156.359
20
-97.0907
11
156.34
21
-96.995
0
LINE
8
BLACK
6
CONTINUOUS
10
156.34
20
-96.995
11
156.34
21
-96.045
0
LINE
8
BLACK
6
CONTINUOUS
10
156.34
20
-96.045
11
156.359
21
-95.9493
0
LINE
8
BLACK
6
CONTINUOUS
10
156.359
20
-95.9493
11
156.413
21
-95.8682
0
LINE
8
BLACK
6
CONTINUOUS
10
156.413
20
-95.8682
11
156.494
21
-95.814
0
LINE
8
BLACK
6
CONTINUOUS
10
156.494
20
-95.814
11
156.59
21
-95.795
0
LINE
8
BLACK
6
CONTINUOUS
10
156.59
20
-95.795
11
157.07
21
-95.795
0
LINE
8
BLACK
6
CONTINUOUS
10
157.07
20
-95.795
11
157.13
21
-95.735
0
LINE
8
BLACK
6
CONTINUOUS
10
157.13
20
-95.735
11
157.13
21
-94.7495
0
LINE
8
BLACK
6
CONTINUOUS
10
157.13
20
-94.7495
11
157.055
21
-94.7161
0
LINE
8
BLACK
6
CONTINUOUS
10
157.055
20
-94.7161
11
156.911
21
-94.6117
0
LINE
8
BLACK
6
CONTINUOUS
10
156.911
20
-94.6117
11
156.792
21
-94.4796
0
LINE
8
BLACK
6
CONTINUOUS
10
156.792
20
-94.4796
11
156.703
21
-94.3257
0
LINE
8
BLACK
6
CONTINUOUS
10
156.703
20
-94.3257
11
156.649
21
-94.1567
0
LINE
8
BLACK
6
CONTINUOUS
10
156.649
20
-94.1567
11
156.63
21
-93.98
0
LINE
8
BLACK
6
CONTINUOUS
10
156.63
20
-93.98
11
156.649
21
-93.8033
0
LINE
8
BLACK
6
CONTINUOUS
10
156.649
20
-93.8033
11
156.688
21
-93.6827
0
LINE
8
BLACK
6
CONTINUOUS
10
156.688
20
-93.6827
11
155.43
21
-92.425
0
LINE
8
BLACK
6
CONTINUOUS
10
155.43
20
-92.425
11
147.592
21
-92.425
0
LINE
8
BLACK
6
CONTINUOUS
10
147.592
20
-92.425
11
146.042
21
-93.975
0
LINE
8
BLACK
6
CONTINUOUS
10
146.042
20
-93.975
11
146.042
21
-94.455
0
LINE
8
BLACK
6
CONTINUOUS
10
146.042
20
-94.455
11
146.023
21
-94.5507
0
LINE
8
BLACK
6
CONTINUOUS
10
146.023
20
-94.5507
11
145.969
21
-94.6318
0
LINE
8
BLACK
6
CONTINUOUS
10
145.969
20
-94.6318
11
145.888
21
-94.686
0
LINE
8
BLACK
6
CONTINUOUS
10
145.888
20
-94.686
11
145.792
21
-94.705
0
LINE
8
BLACK
6
CONTINUOUS
10
145.792
20
-94.705
11
145.292
21
-94.705
0
LINE
8
BLACK
6
CONTINUOUS
10
145.292
20
-94.705
11
145.196
21
-94.686
0
LINE
8
BLACK
6
CONTINUOUS
10
145.196
20
-94.686
11
145.115
21
-94.6318
0
LINE
8
BLACK
6
CONTINUOUS
10
145.115
20
-94.6318
11
145.061
21
-94.5507
0
LINE
8
BLACK
6
CONTINUOUS
10
145.061
20
-94.5507
11
145.042
21
-94.455
0
LINE
8
BLACK
6
CONTINUOUS
10
145.042
20
-94.455
11
145.042
21
-93.505
0
LINE
8
BLACK
6
CONTINUOUS
10
145.042
20
-93.505
11
145.061
21
-93.4093
0
LINE
8
BLACK
6
CONTINUOUS
10
145.061
20
-93.4093
11
145.115
21
-93.3282
0
LINE
8
BLACK
6
CONTINUOUS
10
145.115
20
-93.3282
11
145.196
21
-93.274
0
LINE
8
BLACK
6
CONTINUOUS
10
145.196
20
-93.274
11
145.292
21
-93.255
0
LINE
8
BLACK
6
CONTINUOUS
10
145.292
20
-93.255
11
145.772
21
-93.255
0
LINE
8
BLACK
6
CONTINUOUS
10
145.772
20
-93.255
11
147.2
21
-91.8275
0
LINE
8
BLACK
6
CONTINUOUS
10
147.2
20
-91.8275
11
147.227
21
-91.8045
0
LINE
8
BLACK
6
CONTINUOUS
10
147.227
20
-91.8045
11
147.232
21
-91.7984
0
LINE
8
BLACK
6
CONTINUOUS
10
147.232
20
-91.7984
11
147.237
21
-91.796
0
LINE
8
BLACK
6
CONTINUOUS
10
147.237
20
-91.796
11
147.246
21
-91.7886
0
LINE
8
BLACK
6
CONTINUOUS
10
147.246
20
-91.7886
11
147.29
21
-91.7673
0
LINE
8
BLACK
6
CONTINUOUS
10
147.29
20
-91.7673
11
147.334
21
-91.7439
0
LINE
8
BLACK
6
CONTINUOUS
10
147.334
20
-91.7439
11
147.342
21
-91.7425
0
LINE
8
BLACK
6
CONTINUOUS
10
147.342
20
-91.7425
11
147.349
21
-91.7389
0
LINE
8
BLACK
6
CONTINUOUS
10
147.349
20
-91.7389
11
147.398
21
-91.7331
0
LINE
8
BLACK
6
CONTINUOUS
10
147.398
20
-91.7331
11
147.447
21
-91.725
0
LINE
8
BLACK
6
CONTINUOUS
10
147.447
20
-91.725
11
155.575
21
-91.725
0
LINE
8
BLACK
6
CONTINUOUS
10
155.575
20
-91.725
11
155.611
21
-91.7281
0
LINE
8
BLACK
6
CONTINUOUS
10
155.203
20
-93.1716
11
155.365
21
-93.2439
0
LINE
8
BLACK
6
CONTINUOUS
10
155.365
20
-93.2439
11
155.509
21
-93.3483
0
LINE
8
BLACK
6
CONTINUOUS
10
155.509
20
-93.3483
11
155.628
21
-93.4804
0
LINE
8
BLACK
6
CONTINUOUS
10
155.628
20
-93.4804
11
155.717
21
-93.6343
0
LINE
8
BLACK
6
CONTINUOUS
10
155.717
20
-93.6343
11
155.771
21
-93.8033
0
LINE
8
BLACK
6
CONTINUOUS
10
155.771
20
-93.8033
11
155.79
21
-93.98
0
LINE
8
BLACK
6
CONTINUOUS
10
155.79
20
-93.98
11
155.771
21
-94.1567
0
LINE
8
BLACK
6
CONTINUOUS
10
155.771
20
-94.1567
11
155.717
21
-94.3257
0
LINE
8
BLACK
6
CONTINUOUS
10
155.717
20
-94.3257
11
155.628
21
-94.4796
0
LINE
8
BLACK
6
CONTINUOUS
10
155.628
20
-94.4796
11
155.509
21
-94.6117
0
LINE
8
BLACK
6
CONTINUOUS
10
155.509
20
-94.6117
11
155.365
21
-94.7161
0
LINE
8
BLACK
6
CONTINUOUS
10
155.365
20
-94.7161
11
155.203
21
-94.7884
0
LINE
8
BLACK
6
CONTINUOUS
10
155.203
20
-94.7884
11
155.029
21
-94.8253
0
LINE
8
BLACK
6
CONTINUOUS
10
155.029
20
-94.8253
11
154.851
21
-94.8253
0
LINE
8
BLACK
6
CONTINUOUS
10
154.851
20
-94.8253
11
154.677
21
-94.7884
0
LINE
8
BLACK
6
CONTINUOUS
10
154.677
20
-94.7884
11
154.515
21
-94.7161
0
LINE
8
BLACK
6
CONTINUOUS
10
154.515
20
-94.7161
11
154.371
21
-94.6117
0
LINE
8
BLACK
6
CONTINUOUS
10
154.371
20
-94.6117
11
154.252
21
-94.4796
0
LINE
8
BLACK
6
CONTINUOUS
10
154.252
20
-94.4796
11
154.163
21
-94.3257
0
LINE
8
BLACK
6
CONTINUOUS
10
154.163
20
-94.3257
11
154.109
21
-94.1567
0
LINE
8
BLACK
6
CONTINUOUS
10
154.109
20
-94.1567
11
154.09
21
-93.98
0
LINE
8
BLACK
6
CONTINUOUS
10
154.09
20
-93.98
11
154.109
21
-93.8033
0
LINE
8
BLACK
6
CONTINUOUS
10
154.109
20
-93.8033
11
154.163
21
-93.6343
0
LINE
8
BLACK
6
CONTINUOUS
10
154.163
20
-93.6343
11
154.252
21
-93.4804
0
LINE
8
BLACK
6
CONTINUOUS
10
154.252
20
-93.4804
11
154.371
21
-93.3483
0
LINE
8
BLACK
6
CONTINUOUS
10
154.371
20
-93.3483
11
154.515
21
-93.2439
0
LINE
8
BLACK
6
CONTINUOUS
10
154.515
20
-93.2439
11
154.677
21
-93.1716
0
LINE
8
BLACK
6
CONTINUOUS
10
154.677
20
-93.1716
11
154.851
21
-93.1347
0
LINE
8
BLACK
6
CONTINUOUS
10
154.851
20
-93.1347
11
155.029
21
-93.1347
0
LINE
8
BLACK
6
CONTINUOUS
10
155.029
20
-93.1347
11
155.203
21
-93.1716
0
LINE
8
BLACK
6
CONTINUOUS
10
137.423
20
-93.1716
11
137.585
21
-93.2439
0
LINE
8
BLACK
6
CONTINUOUS
10
137.585
20
-93.2439
11
137.729
21
-93.3483
0
LINE
8
BLACK
6
CONTINUOUS
10
137.729
20
-93.3483
11
137.848
21
-93.4804
0
LINE
8
BLACK
6
CONTINUOUS
10
137.848
20
-93.4804
11
137.937
21
-93.6343
0
LINE
8
BLACK
6
CONTINUOUS
10
137.937
20
-93.6343
11
137.991
21
-93.8033
0
LINE
8
BLACK
6
CONTINUOUS
10
137.991
20
-93.8033
11
138.01
21
-93.98
0
LINE
8
BLACK
6
CONTINUOUS
10
138.01
20
-93.98
11
137.991
21
-94.1567
0
LINE
8
BLACK
6
CONTINUOUS
10
137.991
20
-94.1567
11
137.937
21
-94.3257
0
LINE
8
BLACK
6
CONTINUOUS
10
137.937
20
-94.3257
11
137.848
21
-94.4796
0
LINE
8
BLACK
6
CONTINUOUS
10
137.848
20
-94.4796
11
137.729
21
-94.6117
0
LINE
8
BLACK
6
CONTINUOUS
10
137.729
20
-94.6117
11
137.585
21
-94.7161
0
LINE
8
BLACK
6
CONTINUOUS
10
137.585
20
-94.7161
11
137.423
21
-94.7884
0
LINE
8
BLACK
6
CONTINUOUS
10
137.423
20
-94.7884
11
137.249
21
-94.8253
0
LINE
8
BLACK
6
CONTINUOUS
10
137.249
20
-94.8253
11
137.071
21
-94.8253
0
LINE
8
BLACK
6
CONTINUOUS
10
137.071
20
-94.8253
11
136.897
21
-94.7884
0
LINE
8
BLACK
6
CONTINUOUS
10
136.897
20
-94.7884
11
136.735
21
-94.7161
0
LINE
8
BLACK
6
CONTINUOUS
10
136.735
20
-94.7161
11
136.591
21
-94.6117
0
LINE
8
BLACK
6
CONTINUOUS
10
136.591
20
-94.6117
11
136.472
21
-94.4796
0
LINE
8
BLACK
6
CONTINUOUS
10
136.472
20
-94.4796
11
136.383
21
-94.3257
0
LINE
8
BLACK
6
CONTINUOUS
10
136.383
20
-94.3257
11
136.329
21
-94.1567
0
LINE
8
BLACK
6
CONTINUOUS
10
136.329
20
-94.1567
11
136.31
21
-93.98
0
LINE
8
BLACK
6
CONTINUOUS
10
136.31
20
-93.98
11
136.329
21
-93.8033
0
LINE
8
BLACK
6
CONTINUOUS
10
136.329
20
-93.8033
11
136.383
21
-93.6343
0
LINE
8
BLACK
6
CONTINUOUS
10
136.383
20
-93.6343
11
136.472
21
-93.4804
0
LINE
8
BLACK
6
CONTINUOUS
10
136.472
20
-93.4804
11
136.591
21
-93.3483
0
LINE
8
BLACK
6
CONTINUOUS
10
136.591
20
-93.3483
11
136.735
21
-93.2439
0
LINE
8
BLACK
6
CONTINUOUS
10
136.735
20
-93.2439
11
136.897
21
-93.1716
0
LINE
8
BLACK
6
CONTINUOUS
10
136.897
20
-93.1716
11
137.071
21
-93.1347
0
LINE
8
BLACK
6
CONTINUOUS
10
137.071
20
-93.1347
11
137.249
21
-93.1347
0
LINE
8
BLACK
6
CONTINUOUS
10
137.249
20
-93.1347
11
137.423
21
-93.1716
0
CIRCLE
8
BLACK
10
149.86
20
-93.98
40
0.5
0
CIRCLE
8
BLACK
10
152.4
20
-93.98
40
0.5
0
CIRCLE
8
BLACK
10
154.94
20
-93.98
40
0.5
0
CIRCLE
8
BLACK
10
157.48
20
-93.98
40
0.5
0
CIRCLE
8
BLACK
10
134.62
20
-93.98
40
0.5
0
CIRCLE
8
BLACK
10
137.16
20
-93.98
40
0.5
0
CIRCLE
8
BLACK
10
139.7
20
-93.98
40
0.5
0
CIRCLE
8
BLACK
10
142.24
20
-93.98
40
0.5
0
CIRCLE
8
BLACK
10
134.62
20
-106.68
40
0.5
0
CIRCLE
8
BLACK
10
137.16
20
-106.68
40
0.5
0
CIRCLE
8
BLACK
10
139.7
20
-106.68
40
0.5
0
CIRCLE
8
BLACK
10
142.24
20
-106.68
40
0.5
0
CIRCLE
8
BLACK
10
144.78
20
-106.68
40
0.5
0
CIRCLE
8
BLACK
10
147.32
20
-106.68
40
0.5
0
CIRCLE
8
BLACK
10
149.86
20
-106.68
40
0.5
0
CIRCLE
8
BLACK
10
152.4
20
-106.68
40
0.5
0
CIRCLE
8
BLACK
10
154.94
20
-106.68
40
0.5
0
CIRCLE
8
BLACK
10
157.48
20
-106.68
40
0.5
0
CIRCLE
8
BLACK
10
148.971
20
-96.266
40
0.2
0
CIRCLE
8
BLACK
10
145.161
20
-102.489
40
0.2
0
CIRCLE
8
BLACK
10
143.256
20
-99.695
40
0.2
0
CIRCLE
8
BLACK
10
148.463
20
-102.616
40
0.2
0
CIRCLE
8
BLACK
10
149.098
20
-100.076
40
0.2
0
CIRCLE
8
BLACK
10
143.129
20
-98.298
40
0.2
0
CIRCLE
8
BLACK
10
145.092
20
-100.147
40
0.2
0
CIRCLE
8
BLACK
10
146.108
20
-100.78
40
0.2
0
CIRCLE
8
BLACK
10
143.764
20
-96.139
40
0.2
0
CIRCLE
8
BLACK
10
156.337
20
-100.457
40
0.2
  0
ENDSEC
  0
EOF
