  0
SECTION
  2
HEADER
  9
$ANGBASE
  50
0.0
  9
$ANGDIR
  70
1
  9
$MEASUREMENT
  70
1
  0
ENDSEC
  0
SECTION
  2
TABLES
  0
TABLE
  2
LTYPE
  70
4
  0
LTYPE
  5
40F
  2
CONTINUOUS
  70
0
  3
Solid line
  72
65
  73
0
  40
0.0
  0
LTYPE
  5
410
  2
DASHDOT
 70
0
  3
Dash Dot ____ _ ____ _
 72
65
 73
4
 40
2.0
 49
1.25
 49
-0.25
 49
0.25
 49
-0.25
  0
LTYPE
  5
411
  2
DASHED
 70
0
  3
Dashed __ __ __ __ __
 72
65
 73
2
 40
0.75
 49
0.5
 49
-0.25
  0
LTYPE
  5
43B
  2
DOTTED
 70
0
  3
Dotted .  .  .  .
 72
65
 73
2
 40
0.2
 49
0.0
 49
-0.2
  0
ENDTAB
  0
TABLE
  2
STYLE
  70
4
  0
STYLE
  2
KICAD
  70
0
  40
0
  41
1
  42
1
  50
0
  71
0
  3
isocp.shx
  0
STYLE
  2
KICADB
  70
0
  40
0
  41
1
  42
1
  50
0
  71
0
  3
isocp.shx
  0
STYLE
  2
KICADI
  70
0
  40
0
  41
1
  42
1
  50
15
  71
0
  3
isocp.shx
  0
STYLE
  2
KICADBI
  70
0
  40
0
  41
1
  42
1
  50
15
  71
0
  3
isocp.shx
  0
ENDTAB
  0
TABLE
  2
LAYER
  70
1
  0
LAYER
  2
BLACK
  70
0
  62
7
  6
CONTINUOUS
  0
ENDTAB
  0
ENDSEC
  0
SECTION
  2
ENTITIES
0
LINE
8
BLACK
6
CONTINUOUS
10
135.47
20
-107.53
11
133.77
21
-107.53
0
LINE
8
BLACK
6
CONTINUOUS
10
133.77
20
-107.53
11
133.77
21
-105.83
0
LINE
8
BLACK
6
CONTINUOUS
10
133.77
20
-105.83
11
135.47
21
-105.83
0
LINE
8
BLACK
6
CONTINUOUS
10
135.47
20
-105.83
11
135.47
21
-107.53
0
LINE
8
BLACK
6
CONTINUOUS
10
157.743
20
-105.872
11
157.905
21
-105.944
0
LINE
8
BLACK
6
CONTINUOUS
10
157.905
20
-105.944
11
158.049
21
-106.048
0
LINE
8
BLACK
6
CONTINUOUS
10
158.049
20
-106.048
11
158.168
21
-106.18
0
LINE
8
BLACK
6
CONTINUOUS
10
158.168
20
-106.18
11
158.257
21
-106.334
0
LINE
8
BLACK
6
CONTINUOUS
10
158.257
20
-106.334
11
158.311
21
-106.503
0
LINE
8
BLACK
6
CONTINUOUS
10
158.311
20
-106.503
11
158.33
21
-106.68
0
LINE
8
BLACK
6
CONTINUOUS
10
158.33
20
-106.68
11
158.311
21
-106.857
0
LINE
8
BLACK
6
CONTINUOUS
10
158.311
20
-106.857
11
158.257
21
-107.026
0
LINE
8
BLACK
6
CONTINUOUS
10
158.257
20
-107.026
11
158.168
21
-107.18
0
LINE
8
BLACK
6
CONTINUOUS
10
158.168
20
-107.18
11
158.049
21
-107.312
0
LINE
8
BLACK
6
CONTINUOUS
10
158.049
20
-107.312
11
157.905
21
-107.416
0
LINE
8
BLACK
6
CONTINUOUS
10
157.905
20
-107.416
11
157.743
21
-107.488
0
LINE
8
BLACK
6
CONTINUOUS
10
157.743
20
-107.488
11
157.569
21
-107.525
0
LINE
8
BLACK
6
CONTINUOUS
10
157.569
20
-107.525
11
157.391
21
-107.525
0
LINE
8
BLACK
6
CONTINUOUS
10
157.391
20
-107.525
11
157.217
21
-107.488
0
LINE
8
BLACK
6
CONTINUOUS
10
157.217
20
-107.488
11
157.055
21
-107.416
0
LINE
8
BLACK
6
CONTINUOUS
10
157.055
20
-107.416
11
156.911
21
-107.312
0
LINE
8
BLACK
6
CONTINUOUS
10
156.911
20
-107.312
11
156.792
21
-107.18
0
LINE
8
BLACK
6
CONTINUOUS
10
156.792
20
-107.18
11
156.703
21
-107.026
0
LINE
8
BLACK
6
CONTINUOUS
10
156.703
20
-107.026
11
156.649
21
-106.857
0
LINE
8
BLACK
6
CONTINUOUS
10
156.649
20
-106.857
11
156.63
21
-106.68
0
LINE
8
BLACK
6
CONTINUOUS
10
156.63
20
-106.68
11
156.649
21
-106.503
0
LINE
8
BLACK
6
CONTINUOUS
10
156.649
20
-106.503
11
156.703
21
-106.334
0
LINE
8
BLACK
6
CONTINUOUS
10
156.703
20
-106.334
11
156.792
21
-106.18
0
LINE
8
BLACK
6
CONTINUOUS
10
156.792
20
-106.18
11
156.911
21
-106.048
0
LINE
8
BLACK
6
CONTINUOUS
10
156.911
20
-106.048
11
157.055
21
-105.944
0
LINE
8
BLACK
6
CONTINUOUS
10
157.055
20
-105.944
11
157.217
21
-105.872
0
LINE
8
BLACK
6
CONTINUOUS
10
157.217
20
-105.872
11
157.391
21
-105.835
0
LINE
8
BLACK
6
CONTINUOUS
10
157.391
20
-105.835
11
157.569
21
-105.835
0
LINE
8
BLACK
6
CONTINUOUS
10
157.569
20
-105.835
11
157.743
21
-105.872
0
LINE
8
BLACK
6
CONTINUOUS
10
137.423
20
-105.872
11
137.585
21
-105.944
0
LINE
8
BLACK
6
CONTINUOUS
10
137.585
20
-105.944
11
137.729
21
-106.048
0
LINE
8
BLACK
6
CONTINUOUS
10
137.729
20
-106.048
11
137.848
21
-106.18
0
LINE
8
BLACK
6
CONTINUOUS
10
137.848
20
-106.18
11
137.937
21
-106.334
0
LINE
8
BLACK
6
CONTINUOUS
10
137.937
20
-106.334
11
137.991
21
-106.503
0
LINE
8
BLACK
6
CONTINUOUS
10
137.991
20
-106.503
11
138.01
21
-106.68
0
LINE
8
BLACK
6
CONTINUOUS
10
138.01
20
-106.68
11
137.991
21
-106.857
0
LINE
8
BLACK
6
CONTINUOUS
10
137.991
20
-106.857
11
137.937
21
-107.026
0
LINE
8
BLACK
6
CONTINUOUS
10
137.937
20
-107.026
11
137.848
21
-107.18
0
LINE
8
BLACK
6
CONTINUOUS
10
137.848
20
-107.18
11
137.729
21
-107.312
0
LINE
8
BLACK
6
CONTINUOUS
10
137.729
20
-107.312
11
137.585
21
-107.416
0
LINE
8
BLACK
6
CONTINUOUS
10
137.585
20
-107.416
11
137.423
21
-107.488
0
LINE
8
BLACK
6
CONTINUOUS
10
137.423
20
-107.488
11
137.249
21
-107.525
0
LINE
8
BLACK
6
CONTINUOUS
10
137.249
20
-107.525
11
137.071
21
-107.525
0
LINE
8
BLACK
6
CONTINUOUS
10
137.071
20
-107.525
11
136.897
21
-107.488
0
LINE
8
BLACK
6
CONTINUOUS
10
136.897
20
-107.488
11
136.735
21
-107.416
0
LINE
8
BLACK
6
CONTINUOUS
10
136.735
20
-107.416
11
136.591
21
-107.312
0
LINE
8
BLACK
6
CONTINUOUS
10
136.591
20
-107.312
11
136.472
21
-107.18
0
LINE
8
BLACK
6
CONTINUOUS
10
136.472
20
-107.18
11
136.383
21
-107.026
0
LINE
8
BLACK
6
CONTINUOUS
10
136.383
20
-107.026
11
136.329
21
-106.857
0
LINE
8
BLACK
6
CONTINUOUS
10
136.329
20
-106.857
11
136.31
21
-106.68
0
LINE
8
BLACK
6
CONTINUOUS
10
136.31
20
-106.68
11
136.329
21
-106.503
0
LINE
8
BLACK
6
CONTINUOUS
10
136.329
20
-106.503
11
136.383
21
-106.334
0
LINE
8
BLACK
6
CONTINUOUS
10
136.383
20
-106.334
11
136.472
21
-106.18
0
LINE
8
BLACK
6
CONTINUOUS
10
136.472
20
-106.18
11
136.591
21
-106.048
0
LINE
8
BLACK
6
CONTINUOUS
10
136.591
20
-106.048
11
136.735
21
-105.944
0
LINE
8
BLACK
6
CONTINUOUS
10
136.735
20
-105.944
11
136.897
21
-105.872
0
LINE
8
BLACK
6
CONTINUOUS
10
136.897
20
-105.872
11
137.071
21
-105.835
0
LINE
8
BLACK
6
CONTINUOUS
10
137.071
20
-105.835
11
137.249
21
-105.835
0
LINE
8
BLACK
6
CONTINUOUS
10
137.249
20
-105.835
11
137.423
21
-105.872
0
LINE
8
BLACK
6
CONTINUOUS
10
139.963
20
-105.872
11
140.125
21
-105.944
0
LINE
8
BLACK
6
CONTINUOUS
10
140.125
20
-105.944
11
140.269
21
-106.048
0
LINE
8
BLACK
6
CONTINUOUS
10
140.269
20
-106.048
11
140.388
21
-106.18
0
LINE
8
BLACK
6
CONTINUOUS
10
140.388
20
-106.18
11
140.477
21
-106.334
0
LINE
8
BLACK
6
CONTINUOUS
10
140.477
20
-106.334
11
140.531
21
-106.503
0
LINE
8
BLACK
6
CONTINUOUS
10
140.531
20
-106.503
11
140.55
21
-106.68
0
LINE
8
BLACK
6
CONTINUOUS
10
140.55
20
-106.68
11
140.531
21
-106.857
0
LINE
8
BLACK
6
CONTINUOUS
10
140.531
20
-106.857
11
140.477
21
-107.026
0
LINE
8
BLACK
6
CONTINUOUS
10
140.477
20
-107.026
11
140.388
21
-107.18
0
LINE
8
BLACK
6
CONTINUOUS
10
140.388
20
-107.18
11
140.269
21
-107.312
0
LINE
8
BLACK
6
CONTINUOUS
10
140.269
20
-107.312
11
140.125
21
-107.416
0
LINE
8
BLACK
6
CONTINUOUS
10
140.125
20
-107.416
11
139.963
21
-107.488
0
LINE
8
BLACK
6
CONTINUOUS
10
139.963
20
-107.488
11
139.789
21
-107.525
0
LINE
8
BLACK
6
CONTINUOUS
10
139.789
20
-107.525
11
139.611
21
-107.525
0
LINE
8
BLACK
6
CONTINUOUS
10
139.611
20
-107.525
11
139.437
21
-107.488
0
LINE
8
BLACK
6
CONTINUOUS
10
139.437
20
-107.488
11
139.275
21
-107.416
0
LINE
8
BLACK
6
CONTINUOUS
10
139.275
20
-107.416
11
139.131
21
-107.312
0
LINE
8
BLACK
6
CONTINUOUS
10
139.131
20
-107.312
11
139.012
21
-107.18
0
LINE
8
BLACK
6
CONTINUOUS
10
139.012
20
-107.18
11
138.923
21
-107.026
0
LINE
8
BLACK
6
CONTINUOUS
10
138.923
20
-107.026
11
138.869
21
-106.857
0
LINE
8
BLACK
6
CONTINUOUS
10
138.869
20
-106.857
11
138.85
21
-106.68
0
LINE
8
BLACK
6
CONTINUOUS
10
138.85
20
-106.68
11
138.869
21
-106.503
0
LINE
8
BLACK
6
CONTINUOUS
10
138.869
20
-106.503
11
138.923
21
-106.334
0
LINE
8
BLACK
6
CONTINUOUS
10
138.923
20
-106.334
11
139.012
21
-106.18
0
LINE
8
BLACK
6
CONTINUOUS
10
139.012
20
-106.18
11
139.131
21
-106.048
0
LINE
8
BLACK
6
CONTINUOUS
10
139.131
20
-106.048
11
139.275
21
-105.944
0
LINE
8
BLACK
6
CONTINUOUS
10
139.275
20
-105.944
11
139.437
21
-105.872
0
LINE
8
BLACK
6
CONTINUOUS
10
139.437
20
-105.872
11
139.611
21
-105.835
0
LINE
8
BLACK
6
CONTINUOUS
10
139.611
20
-105.835
11
139.789
21
-105.835
0
LINE
8
BLACK
6
CONTINUOUS
10
139.789
20
-105.835
11
139.963
21
-105.872
0
LINE
8
BLACK
6
CONTINUOUS
10
142.503
20
-105.872
11
142.665
21
-105.944
0
LINE
8
BLACK
6
CONTINUOUS
10
142.665
20
-105.944
11
142.809
21
-106.048
0
LINE
8
BLACK
6
CONTINUOUS
10
142.809
20
-106.048
11
142.928
21
-106.18
0
LINE
8
BLACK
6
CONTINUOUS
10
142.928
20
-106.18
11
143.017
21
-106.334
0
LINE
8
BLACK
6
CONTINUOUS
10
143.017
20
-106.334
11
143.071
21
-106.503
0
LINE
8
BLACK
6
CONTINUOUS
10
143.071
20
-106.503
11
143.09
21
-106.68
0
LINE
8
BLACK
6
CONTINUOUS
10
143.09
20
-106.68
11
143.071
21
-106.857
0
LINE
8
BLACK
6
CONTINUOUS
10
143.071
20
-106.857
11
143.017
21
-107.026
0
LINE
8
BLACK
6
CONTINUOUS
10
143.017
20
-107.026
11
142.928
21
-107.18
0
LINE
8
BLACK
6
CONTINUOUS
10
142.928
20
-107.18
11
142.809
21
-107.312
0
LINE
8
BLACK
6
CONTINUOUS
10
142.809
20
-107.312
11
142.665
21
-107.416
0
LINE
8
BLACK
6
CONTINUOUS
10
142.665
20
-107.416
11
142.503
21
-107.488
0
LINE
8
BLACK
6
CONTINUOUS
10
142.503
20
-107.488
11
142.329
21
-107.525
0
LINE
8
BLACK
6
CONTINUOUS
10
142.329
20
-107.525
11
142.151
21
-107.525
0
LINE
8
BLACK
6
CONTINUOUS
10
142.151
20
-107.525
11
141.977
21
-107.488
0
LINE
8
BLACK
6
CONTINUOUS
10
141.977
20
-107.488
11
141.815
21
-107.416
0
LINE
8
BLACK
6
CONTINUOUS
10
141.815
20
-107.416
11
141.671
21
-107.312
0
LINE
8
BLACK
6
CONTINUOUS
10
141.671
20
-107.312
11
141.552
21
-107.18
0
LINE
8
BLACK
6
CONTINUOUS
10
141.552
20
-107.18
11
141.463
21
-107.026
0
LINE
8
BLACK
6
CONTINUOUS
10
141.463
20
-107.026
11
141.409
21
-106.857
0
LINE
8
BLACK
6
CONTINUOUS
10
141.409
20
-106.857
11
141.39
21
-106.68
0
LINE
8
BLACK
6
CONTINUOUS
10
141.39
20
-106.68
11
141.409
21
-106.503
0
LINE
8
BLACK
6
CONTINUOUS
10
141.409
20
-106.503
11
141.463
21
-106.334
0
LINE
8
BLACK
6
CONTINUOUS
10
141.463
20
-106.334
11
141.552
21
-106.18
0
LINE
8
BLACK
6
CONTINUOUS
10
141.552
20
-106.18
11
141.671
21
-106.048
0
LINE
8
BLACK
6
CONTINUOUS
10
141.671
20
-106.048
11
141.815
21
-105.944
0
LINE
8
BLACK
6
CONTINUOUS
10
141.815
20
-105.944
11
141.977
21
-105.872
0
LINE
8
BLACK
6
CONTINUOUS
10
141.977
20
-105.872
11
142.151
21
-105.835
0
LINE
8
BLACK
6
CONTINUOUS
10
142.151
20
-105.835
11
142.329
21
-105.835
0
LINE
8
BLACK
6
CONTINUOUS
10
142.329
20
-105.835
11
142.503
21
-105.872
0
LINE
8
BLACK
6
CONTINUOUS
10
148.587
20
-102.236
11
148.698
21
-102.292
0
LINE
8
BLACK
6
CONTINUOUS
10
148.698
20
-102.292
11
148.787
21
-102.381
0
LINE
8
BLACK
6
CONTINUOUS
10
148.787
20
-102.381
11
148.843
21
-102.492
0
LINE
8
BLACK
6
CONTINUOUS
10
148.843
20
-102.492
11
148.863
21
-102.616
0
LINE
8
BLACK
6
CONTINUOUS
10
148.863
20
-102.616
11
148.843
21
-102.74
0
LINE
8
BLACK
6
CONTINUOUS
10
148.843
20
-102.74
11
148.787
21
-102.851
0
LINE
8
BLACK
6
CONTINUOUS
10
148.787
20
-102.851
11
148.698
21
-102.94
0
LINE
8
BLACK
6
CONTINUOUS
10
148.698
20
-102.94
11
148.663
21
-102.957
0
LINE
8
BLACK
6
CONTINUOUS
10
148.663
20
-102.957
11
148.663
21
-102.997
0
LINE
8
BLACK
6
CONTINUOUS
10
148.663
20
-102.997
11
148.656
21
-103.03
0
LINE
8
BLACK
6
CONTINUOUS
10
148.656
20
-103.03
11
148.652
21
-103.063
0
LINE
8
BLACK
6
CONTINUOUS
10
148.652
20
-103.063
11
148.646
21
-103.073
0
LINE
8
BLACK
6
CONTINUOUS
10
148.646
20
-103.073
11
148.643
21
-103.084
0
LINE
8
BLACK
6
CONTINUOUS
10
148.643
20
-103.084
11
148.622
21
-103.11
0
LINE
8
BLACK
6
CONTINUOUS
10
148.622
20
-103.11
11
148.604
21
-103.138
0
LINE
8
BLACK
6
CONTINUOUS
10
148.604
20
-103.138
11
145.502
21
-106.24
0
LINE
8
BLACK
6
CONTINUOUS
10
145.502
20
-106.24
11
145.557
21
-106.334
0
LINE
8
BLACK
6
CONTINUOUS
10
145.557
20
-106.334
11
145.611
21
-106.503
0
LINE
8
BLACK
6
CONTINUOUS
10
145.611
20
-106.503
11
145.63
21
-106.68
0
LINE
8
BLACK
6
CONTINUOUS
10
145.63
20
-106.68
11
145.611
21
-106.857
0
LINE
8
BLACK
6
CONTINUOUS
10
145.611
20
-106.857
11
145.557
21
-107.026
0
LINE
8
BLACK
6
CONTINUOUS
10
145.557
20
-107.026
11
145.468
21
-107.18
0
LINE
8
BLACK
6
CONTINUOUS
10
145.468
20
-107.18
11
145.349
21
-107.312
0
LINE
8
BLACK
6
CONTINUOUS
10
145.349
20
-107.312
11
145.205
21
-107.416
0
LINE
8
BLACK
6
CONTINUOUS
10
145.205
20
-107.416
11
145.043
21
-107.488
0
LINE
8
BLACK
6
CONTINUOUS
10
145.043
20
-107.488
11
144.869
21
-107.525
0
LINE
8
BLACK
6
CONTINUOUS
10
144.869
20
-107.525
11
144.691
21
-107.525
0
LINE
8
BLACK
6
CONTINUOUS
10
144.691
20
-107.525
11
144.517
21
-107.488
0
LINE
8
BLACK
6
CONTINUOUS
10
144.517
20
-107.488
11
144.355
21
-107.416
0
LINE
8
BLACK
6
CONTINUOUS
10
144.355
20
-107.416
11
144.211
21
-107.312
0
LINE
8
BLACK
6
CONTINUOUS
10
144.211
20
-107.312
11
144.092
21
-107.18
0
LINE
8
BLACK
6
CONTINUOUS
10
144.092
20
-107.18
11
144.003
21
-107.026
0
LINE
8
BLACK
6
CONTINUOUS
10
144.003
20
-107.026
11
143.949
21
-106.857
0
LINE
8
BLACK
6
CONTINUOUS
10
143.949
20
-106.857
11
143.93
21
-106.68
0
LINE
8
BLACK
6
CONTINUOUS
10
143.93
20
-106.68
11
143.949
21
-106.503
0
LINE
8
BLACK
6
CONTINUOUS
10
143.949
20
-106.503
11
144.003
21
-106.334
0
LINE
8
BLACK
6
CONTINUOUS
10
144.003
20
-106.334
11
144.092
21
-106.18
0
LINE
8
BLACK
6
CONTINUOUS
10
144.092
20
-106.18
11
144.211
21
-106.048
0
LINE
8
BLACK
6
CONTINUOUS
10
144.211
20
-106.048
11
144.355
21
-105.944
0
LINE
8
BLACK
6
CONTINUOUS
10
144.355
20
-105.944
11
144.517
21
-105.872
0
LINE
8
BLACK
6
CONTINUOUS
10
144.517
20
-105.872
11
144.691
21
-105.835
0
LINE
8
BLACK
6
CONTINUOUS
10
144.691
20
-105.835
11
144.869
21
-105.835
0
LINE
8
BLACK
6
CONTINUOUS
10
144.869
20
-105.835
11
145.043
21
-105.872
0
LINE
8
BLACK
6
CONTINUOUS
10
145.043
20
-105.872
11
145.205
21
-105.944
0
LINE
8
BLACK
6
CONTINUOUS
10
145.205
20
-105.944
11
145.221
21
-105.956
0
LINE
8
BLACK
6
CONTINUOUS
10
145.221
20
-105.956
11
148.234
21
-102.943
0
LINE
8
BLACK
6
CONTINUOUS
10
148.234
20
-102.943
11
148.228
21
-102.94
0
LINE
8
BLACK
6
CONTINUOUS
10
148.228
20
-102.94
11
148.139
21
-102.851
0
LINE
8
BLACK
6
CONTINUOUS
10
148.139
20
-102.851
11
148.083
21
-102.74
0
LINE
8
BLACK
6
CONTINUOUS
10
148.083
20
-102.74
11
148.063
21
-102.616
0
LINE
8
BLACK
6
CONTINUOUS
10
148.063
20
-102.616
11
148.083
21
-102.492
0
LINE
8
BLACK
6
CONTINUOUS
10
148.083
20
-102.492
11
148.139
21
-102.381
0
LINE
8
BLACK
6
CONTINUOUS
10
148.139
20
-102.381
11
148.228
21
-102.292
0
LINE
8
BLACK
6
CONTINUOUS
10
148.228
20
-102.292
11
148.339
21
-102.236
0
LINE
8
BLACK
6
CONTINUOUS
10
148.339
20
-102.236
11
148.463
21
-102.216
0
LINE
8
BLACK
6
CONTINUOUS
10
148.463
20
-102.216
11
148.587
21
-102.236
0
LINE
8
BLACK
6
CONTINUOUS
10
147.583
20
-105.872
11
147.745
21
-105.944
0
LINE
8
BLACK
6
CONTINUOUS
10
147.745
20
-105.944
11
147.889
21
-106.048
0
LINE
8
BLACK
6
CONTINUOUS
10
147.889
20
-106.048
11
148.008
21
-106.18
0
LINE
8
BLACK
6
CONTINUOUS
10
148.008
20
-106.18
11
148.097
21
-106.334
0
LINE
8
BLACK
6
CONTINUOUS
10
148.097
20
-106.334
11
148.151
21
-106.503
0
LINE
8
BLACK
6
CONTINUOUS
10
148.151
20
-106.503
11
148.17
21
-106.68
0
LINE
8
BLACK
6
CONTINUOUS
10
148.17
20
-106.68
11
148.151
21
-106.857
0
LINE
8
BLACK
6
CONTINUOUS
10
148.151
20
-106.857
11
148.097
21
-107.026
0
LINE
8
BLACK
6
CONTINUOUS
10
148.097
20
-107.026
11
148.008
21
-107.18
0
LINE
8
BLACK
6
CONTINUOUS
10
148.008
20
-107.18
11
147.889
21
-107.312
0
LINE
8
BLACK
6
CONTINUOUS
10
147.889
20
-107.312
11
147.745
21
-107.416
0
LINE
8
BLACK
6
CONTINUOUS
10
147.745
20
-107.416
11
147.583
21
-107.488
0
LINE
8
BLACK
6
CONTINUOUS
10
147.583
20
-107.488
11
147.409
21
-107.525
0
LINE
8
BLACK
6
CONTINUOUS
10
147.409
20
-107.525
11
147.231
21
-107.525
0
LINE
8
BLACK
6
CONTINUOUS
10
147.231
20
-107.525
11
147.057
21
-107.488
0
LINE
8
BLACK
6
CONTINUOUS
10
147.057
20
-107.488
11
146.895
21
-107.416
0
LINE
8
BLACK
6
CONTINUOUS
10
146.895
20
-107.416
11
146.751
21
-107.312
0
LINE
8
BLACK
6
CONTINUOUS
10
146.751
20
-107.312
11
146.632
21
-107.18
0
LINE
8
BLACK
6
CONTINUOUS
10
146.632
20
-107.18
11
146.543
21
-107.026
0
LINE
8
BLACK
6
CONTINUOUS
10
146.543
20
-107.026
11
146.489
21
-106.857
0
LINE
8
BLACK
6
CONTINUOUS
10
146.489
20
-106.857
11
146.47
21
-106.68
0
LINE
8
BLACK
6
CONTINUOUS
10
146.47
20
-106.68
11
146.489
21
-106.503
0
LINE
8
BLACK
6
CONTINUOUS
10
146.489
20
-106.503
11
146.543
21
-106.334
0
LINE
8
BLACK
6
CONTINUOUS
10
146.543
20
-106.334
11
146.632
21
-106.18
0
LINE
8
BLACK
6
CONTINUOUS
10
146.632
20
-106.18
11
146.751
21
-106.048
0
LINE
8
BLACK
6
CONTINUOUS
10
146.751
20
-106.048
11
146.895
21
-105.944
0
LINE
8
BLACK
6
CONTINUOUS
10
146.895
20
-105.944
11
147.057
21
-105.872
0
LINE
8
BLACK
6
CONTINUOUS
10
147.057
20
-105.872
11
147.231
21
-105.835
0
LINE
8
BLACK
6
CONTINUOUS
10
147.231
20
-105.835
11
147.409
21
-105.835
0
LINE
8
BLACK
6
CONTINUOUS
10
147.409
20
-105.835
11
147.583
21
-105.872
0
LINE
8
BLACK
6
CONTINUOUS
10
150.123
20
-105.872
11
150.285
21
-105.944
0
LINE
8
BLACK
6
CONTINUOUS
10
150.285
20
-105.944
11
150.429
21
-106.048
0
LINE
8
BLACK
6
CONTINUOUS
10
150.429
20
-106.048
11
150.548
21
-106.18
0
LINE
8
BLACK
6
CONTINUOUS
10
150.548
20
-106.18
11
150.637
21
-106.334
0
LINE
8
BLACK
6
CONTINUOUS
10
150.637
20
-106.334
11
150.691
21
-106.503
0
LINE
8
BLACK
6
CONTINUOUS
10
150.691
20
-106.503
11
150.71
21
-106.68
0
LINE
8
BLACK
6
CONTINUOUS
10
150.71
20
-106.68
11
150.691
21
-106.857
0
LINE
8
BLACK
6
CONTINUOUS
10
150.691
20
-106.857
11
150.637
21
-107.026
0
LINE
8
BLACK
6
CONTINUOUS
10
150.637
20
-107.026
11
150.548
21
-107.18
0
LINE
8
BLACK
6
CONTINUOUS
10
150.548
20
-107.18
11
150.429
21
-107.312
0
LINE
8
BLACK
6
CONTINUOUS
10
150.429
20
-107.312
11
150.285
21
-107.416
0
LINE
8
BLACK
6
CONTINUOUS
10
150.285
20
-107.416
11
150.123
21
-107.488
0
LINE
8
BLACK
6
CONTINUOUS
10
150.123
20
-107.488
11
149.949
21
-107.525
0
LINE
8
BLACK
6
CONTINUOUS
10
149.949
20
-107.525
11
149.771
21
-107.525
0
LINE
8
BLACK
6
CONTINUOUS
10
149.771
20
-107.525
11
149.597
21
-107.488
0
LINE
8
BLACK
6
CONTINUOUS
10
149.597
20
-107.488
11
149.435
21
-107.416
0
LINE
8
BLACK
6
CONTINUOUS
10
149.435
20
-107.416
11
149.291
21
-107.312
0
LINE
8
BLACK
6
CONTINUOUS
10
149.291
20
-107.312
11
149.172
21
-107.18
0
LINE
8
BLACK
6
CONTINUOUS
10
149.172
20
-107.18
11
149.083
21
-107.026
0
LINE
8
BLACK
6
CONTINUOUS
10
149.083
20
-107.026
11
149.029
21
-106.857
0
LINE
8
BLACK
6
CONTINUOUS
10
149.029
20
-106.857
11
149.01
21
-106.68
0
LINE
8
BLACK
6
CONTINUOUS
10
149.01
20
-106.68
11
149.029
21
-106.503
0
LINE
8
BLACK
6
CONTINUOUS
10
149.029
20
-106.503
11
149.083
21
-106.334
0
LINE
8
BLACK
6
CONTINUOUS
10
149.083
20
-106.334
11
149.172
21
-106.18
0
LINE
8
BLACK
6
CONTINUOUS
10
149.172
20
-106.18
11
149.291
21
-106.048
0
LINE
8
BLACK
6
CONTINUOUS
10
149.291
20
-106.048
11
149.435
21
-105.944
0
LINE
8
BLACK
6
CONTINUOUS
10
149.435
20
-105.944
11
149.597
21
-105.872
0
LINE
8
BLACK
6
CONTINUOUS
10
149.597
20
-105.872
11
149.771
21
-105.835
0
LINE
8
BLACK
6
CONTINUOUS
10
149.771
20
-105.835
11
149.949
21
-105.835
0
LINE
8
BLACK
6
CONTINUOUS
10
149.949
20
-105.835
11
150.123
21
-105.872
0
LINE
8
BLACK
6
CONTINUOUS
10
146.231
20
-100.4
11
146.343
21
-100.457
0
LINE
8
BLACK
6
CONTINUOUS
10
146.343
20
-100.457
11
146.431
21
-100.545
0
LINE
8
BLACK
6
CONTINUOUS
10
146.431
20
-100.545
11
146.488
21
-100.657
0
LINE
8
BLACK
6
CONTINUOUS
10
146.488
20
-100.657
11
146.508
21
-100.78
0
LINE
8
BLACK
6
CONTINUOUS
10
146.508
20
-100.78
11
146.492
21
-100.881
0
LINE
8
BLACK
6
CONTINUOUS
10
146.492
20
-100.881
11
147.137
21
-101.527
0
LINE
8
BLACK
6
CONTINUOUS
10
147.137
20
-101.527
11
148.758
21
-101.527
0
LINE
8
BLACK
6
CONTINUOUS
10
148.758
20
-101.527
11
148.791
21
-101.534
0
LINE
8
BLACK
6
CONTINUOUS
10
148.791
20
-101.534
11
148.824
21
-101.538
0
LINE
8
BLACK
6
CONTINUOUS
10
148.824
20
-101.538
11
148.834
21
-101.544
0
LINE
8
BLACK
6
CONTINUOUS
10
148.834
20
-101.544
11
148.845
21
-101.547
0
LINE
8
BLACK
6
CONTINUOUS
10
148.845
20
-101.547
11
148.871
21
-101.568
0
LINE
8
BLACK
6
CONTINUOUS
10
148.871
20
-101.568
11
148.899
21
-101.586
0
LINE
8
BLACK
6
CONTINUOUS
10
148.899
20
-101.586
11
150.129
21
-102.815
0
LINE
8
BLACK
6
CONTINUOUS
10
150.129
20
-102.815
11
150.146
21
-102.843
0
LINE
8
BLACK
6
CONTINUOUS
10
150.146
20
-102.843
11
150.167
21
-102.869
0
LINE
8
BLACK
6
CONTINUOUS
10
150.167
20
-102.869
11
150.17
21
-102.88
0
LINE
8
BLACK
6
CONTINUOUS
10
150.17
20
-102.88
11
150.176
21
-102.89
0
LINE
8
BLACK
6
CONTINUOUS
10
150.176
20
-102.89
11
150.18
21
-102.923
0
LINE
8
BLACK
6
CONTINUOUS
10
150.18
20
-102.923
11
150.187
21
-102.956
0
LINE
8
BLACK
6
CONTINUOUS
10
150.187
20
-102.956
11
150.187
21
-104.184
0
LINE
8
BLACK
6
CONTINUOUS
10
150.187
20
-104.184
11
151.959
21
-105.956
0
LINE
8
BLACK
6
CONTINUOUS
10
151.959
20
-105.956
11
151.975
21
-105.944
0
LINE
8
BLACK
6
CONTINUOUS
10
151.975
20
-105.944
11
152.137
21
-105.872
0
LINE
8
BLACK
6
CONTINUOUS
10
152.137
20
-105.872
11
152.311
21
-105.835
0
LINE
8
BLACK
6
CONTINUOUS
10
152.311
20
-105.835
11
152.489
21
-105.835
0
LINE
8
BLACK
6
CONTINUOUS
10
152.489
20
-105.835
11
152.663
21
-105.872
0
LINE
8
BLACK
6
CONTINUOUS
10
152.663
20
-105.872
11
152.825
21
-105.944
0
LINE
8
BLACK
6
CONTINUOUS
10
152.825
20
-105.944
11
152.969
21
-106.048
0
LINE
8
BLACK
6
CONTINUOUS
10
152.969
20
-106.048
11
153.088
21
-106.18
0
LINE
8
BLACK
6
CONTINUOUS
10
153.088
20
-106.18
11
153.177
21
-106.334
0
LINE
8
BLACK
6
CONTINUOUS
10
153.177
20
-106.334
11
153.231
21
-106.503
0
LINE
8
BLACK
6
CONTINUOUS
10
153.231
20
-106.503
11
153.25
21
-106.68
0
LINE
8
BLACK
6
CONTINUOUS
10
153.25
20
-106.68
11
153.231
21
-106.857
0
LINE
8
BLACK
6
CONTINUOUS
10
153.231
20
-106.857
11
153.177
21
-107.026
0
LINE
8
BLACK
6
CONTINUOUS
10
153.177
20
-107.026
11
153.088
21
-107.18
0
LINE
8
BLACK
6
CONTINUOUS
10
153.088
20
-107.18
11
152.969
21
-107.312
0
LINE
8
BLACK
6
CONTINUOUS
10
152.969
20
-107.312
11
152.825
21
-107.416
0
LINE
8
BLACK
6
CONTINUOUS
10
152.825
20
-107.416
11
152.663
21
-107.488
0
LINE
8
BLACK
6
CONTINUOUS
10
152.663
20
-107.488
11
152.489
21
-107.525
0
LINE
8
BLACK
6
CONTINUOUS
10
152.489
20
-107.525
11
152.311
21
-107.525
0
LINE
8
BLACK
6
CONTINUOUS
10
152.311
20
-107.525
11
152.137
21
-107.488
0
LINE
8
BLACK
6
CONTINUOUS
10
152.137
20
-107.488
11
151.975
21
-107.416
0
LINE
8
BLACK
6
CONTINUOUS
10
151.975
20
-107.416
11
151.831
21
-107.312
0
LINE
8
BLACK
6
CONTINUOUS
10
151.831
20
-107.312
11
151.712
21
-107.18
0
LINE
8
BLACK
6
CONTINUOUS
10
151.712
20
-107.18
11
151.623
21
-107.026
0
LINE
8
BLACK
6
CONTINUOUS
10
151.623
20
-107.026
11
151.569
21
-106.857
0
LINE
8
BLACK
6
CONTINUOUS
10
151.569
20
-106.857
11
151.55
21
-106.68
0
LINE
8
BLACK
6
CONTINUOUS
10
151.55
20
-106.68
11
151.569
21
-106.503
0
LINE
8
BLACK
6
CONTINUOUS
10
151.569
20
-106.503
11
151.623
21
-106.334
0
LINE
8
BLACK
6
CONTINUOUS
10
151.623
20
-106.334
11
151.678
21
-106.24
0
LINE
8
BLACK
6
CONTINUOUS
10
151.678
20
-106.24
11
149.845
21
-104.408
0
LINE
8
BLACK
6
CONTINUOUS
10
149.845
20
-104.408
11
149.828
21
-104.38
0
LINE
8
BLACK
6
CONTINUOUS
10
149.828
20
-104.38
11
149.807
21
-104.354
0
LINE
8
BLACK
6
CONTINUOUS
10
149.807
20
-104.354
11
149.804
21
-104.343
0
LINE
8
BLACK
6
CONTINUOUS
10
149.804
20
-104.343
11
149.798
21
-104.333
0
LINE
8
BLACK
6
CONTINUOUS
10
149.798
20
-104.333
11
149.794
21
-104.3
0
LINE
8
BLACK
6
CONTINUOUS
10
149.794
20
-104.3
11
149.787
21
-104.267
0
LINE
8
BLACK
6
CONTINUOUS
10
149.787
20
-104.267
11
149.787
21
-103.039
0
LINE
8
BLACK
6
CONTINUOUS
10
149.787
20
-103.039
11
148.675
21
-101.927
0
LINE
8
BLACK
6
CONTINUOUS
10
148.675
20
-101.927
11
147.054
21
-101.927
0
LINE
8
BLACK
6
CONTINUOUS
10
147.054
20
-101.927
11
147.021
21
-101.92
0
LINE
8
BLACK
6
CONTINUOUS
10
147.021
20
-101.92
11
146.988
21
-101.916
0
LINE
8
BLACK
6
CONTINUOUS
10
146.988
20
-101.916
11
146.979
21
-101.91
0
LINE
8
BLACK
6
CONTINUOUS
10
146.979
20
-101.91
11
146.967
21
-101.907
0
LINE
8
BLACK
6
CONTINUOUS
10
146.967
20
-101.907
11
146.941
21
-101.886
0
LINE
8
BLACK
6
CONTINUOUS
10
146.941
20
-101.886
11
146.913
21
-101.868
0
LINE
8
BLACK
6
CONTINUOUS
10
146.913
20
-101.868
11
146.209
21
-101.164
0
LINE
8
BLACK
6
CONTINUOUS
10
146.209
20
-101.164
11
146.108
21
-101.18
0
LINE
8
BLACK
6
CONTINUOUS
10
146.108
20
-101.18
11
145.984
21
-101.161
0
LINE
8
BLACK
6
CONTINUOUS
10
145.984
20
-101.161
11
145.873
21
-101.104
0
LINE
8
BLACK
6
CONTINUOUS
10
145.873
20
-101.104
11
145.784
21
-101.015
0
LINE
8
BLACK
6
CONTINUOUS
10
145.784
20
-101.015
11
145.727
21
-100.904
0
LINE
8
BLACK
6
CONTINUOUS
10
145.727
20
-100.904
11
145.708
21
-100.78
0
LINE
8
BLACK
6
CONTINUOUS
10
145.708
20
-100.78
11
145.727
21
-100.657
0
LINE
8
BLACK
6
CONTINUOUS
10
145.727
20
-100.657
11
145.784
21
-100.545
0
LINE
8
BLACK
6
CONTINUOUS
10
145.784
20
-100.545
11
145.873
21
-100.457
0
LINE
8
BLACK
6
CONTINUOUS
10
145.873
20
-100.457
11
145.984
21
-100.4
0
LINE
8
BLACK
6
CONTINUOUS
10
145.984
20
-100.4
11
146.108
21
-100.38
0
LINE
8
BLACK
6
CONTINUOUS
10
146.108
20
-100.38
11
146.231
21
-100.4
0
LINE
8
BLACK
6
CONTINUOUS
10
146.291
20
-99.5546
11
146.325
21
-99.5584
0
LINE
8
BLACK
6
CONTINUOUS
10
146.325
20
-99.5584
11
146.334
21
-99.5645
0
LINE
8
BLACK
6
CONTINUOUS
10
146.334
20
-99.5645
11
146.346
21
-99.5671
0
LINE
8
BLACK
6
CONTINUOUS
10
146.346
20
-99.5671
11
146.372
21
-99.5879
0
LINE
8
BLACK
6
CONTINUOUS
10
146.372
20
-99.5879
11
146.4
21
-99.6057
0
LINE
8
BLACK
6
CONTINUOUS
10
146.4
20
-99.6057
11
147.47
21
-100.676
0
LINE
8
BLACK
6
CONTINUOUS
10
147.47
20
-100.676
11
148.882
21
-100.676
0
LINE
8
BLACK
6
CONTINUOUS
10
148.882
20
-100.676
11
148.915
21
-100.683
0
LINE
8
BLACK
6
CONTINUOUS
10
148.915
20
-100.683
11
148.948
21
-100.687
0
LINE
8
BLACK
6
CONTINUOUS
10
148.948
20
-100.687
11
148.958
21
-100.693
0
LINE
8
BLACK
6
CONTINUOUS
10
148.958
20
-100.693
11
148.969
21
-100.696
0
LINE
8
BLACK
6
CONTINUOUS
10
148.969
20
-100.696
11
148.995
21
-100.717
0
LINE
8
BLACK
6
CONTINUOUS
10
148.995
20
-100.717
11
149.023
21
-100.735
0
LINE
8
BLACK
6
CONTINUOUS
10
149.023
20
-100.735
11
150.891
21
-102.602
0
LINE
8
BLACK
6
CONTINUOUS
10
150.891
20
-102.602
11
150.908
21
-102.63
0
LINE
8
BLACK
6
CONTINUOUS
10
150.908
20
-102.63
11
150.929
21
-102.656
0
LINE
8
BLACK
6
CONTINUOUS
10
150.929
20
-102.656
11
150.932
21
-102.667
0
LINE
8
BLACK
6
CONTINUOUS
10
150.932
20
-102.667
11
150.938
21
-102.677
0
LINE
8
BLACK
6
CONTINUOUS
10
150.938
20
-102.677
11
150.942
21
-102.71
0
LINE
8
BLACK
6
CONTINUOUS
10
150.942
20
-102.71
11
150.949
21
-102.743
0
LINE
8
BLACK
6
CONTINUOUS
10
150.949
20
-102.743
11
150.949
21
-103.93
0
LINE
8
BLACK
6
CONTINUOUS
10
150.949
20
-103.93
11
152.102
21
-105.083
0
LINE
8
BLACK
6
CONTINUOUS
10
152.102
20
-105.083
11
153.543
21
-105.083
0
LINE
8
BLACK
6
CONTINUOUS
10
153.543
20
-105.083
11
153.576
21
-105.09
0
LINE
8
BLACK
6
CONTINUOUS
10
153.576
20
-105.09
11
153.609
21
-105.094
0
LINE
8
BLACK
6
CONTINUOUS
10
153.609
20
-105.094
11
153.619
21
-105.1
0
LINE
8
BLACK
6
CONTINUOUS
10
153.619
20
-105.1
11
153.63
21
-105.103
0
LINE
8
BLACK
6
CONTINUOUS
10
153.63
20
-105.103
11
153.656
21
-105.124
0
LINE
8
BLACK
6
CONTINUOUS
10
153.656
20
-105.124
11
153.684
21
-105.142
0
LINE
8
BLACK
6
CONTINUOUS
10
153.684
20
-105.142
11
154.499
21
-105.956
0
LINE
8
BLACK
6
CONTINUOUS
10
154.499
20
-105.956
11
154.515
21
-105.944
0
LINE
8
BLACK
6
CONTINUOUS
10
154.515
20
-105.944
11
154.677
21
-105.872
0
LINE
8
BLACK
6
CONTINUOUS
10
154.677
20
-105.872
11
154.851
21
-105.835
0
LINE
8
BLACK
6
CONTINUOUS
10
154.851
20
-105.835
11
155.029
21
-105.835
0
LINE
8
BLACK
6
CONTINUOUS
10
155.029
20
-105.835
11
155.203
21
-105.872
0
LINE
8
BLACK
6
CONTINUOUS
10
155.203
20
-105.872
11
155.365
21
-105.944
0
LINE
8
BLACK
6
CONTINUOUS
10
155.365
20
-105.944
11
155.509
21
-106.048
0
LINE
8
BLACK
6
CONTINUOUS
10
155.509
20
-106.048
11
155.628
21
-106.18
0
LINE
8
BLACK
6
CONTINUOUS
10
155.628
20
-106.18
11
155.717
21
-106.334
0
LINE
8
BLACK
6
CONTINUOUS
10
155.717
20
-106.334
11
155.771
21
-106.503
0
LINE
8
BLACK
6
CONTINUOUS
10
155.771
20
-106.503
11
155.79
21
-106.68
0
LINE
8
BLACK
6
CONTINUOUS
10
155.79
20
-106.68
11
155.771
21
-106.857
0
LINE
8
BLACK
6
CONTINUOUS
10
155.771
20
-106.857
11
155.717
21
-107.026
0
LINE
8
BLACK
6
CONTINUOUS
10
155.717
20
-107.026
11
155.628
21
-107.18
0
LINE
8
BLACK
6
CONTINUOUS
10
155.628
20
-107.18
11
155.509
21
-107.312
0
LINE
8
BLACK
6
CONTINUOUS
10
155.509
20
-107.312
11
155.365
21
-107.416
0
LINE
8
BLACK
6
CONTINUOUS
10
155.365
20
-107.416
11
155.203
21
-107.488
0
LINE
8
BLACK
6
CONTINUOUS
10
155.203
20
-107.488
11
155.029
21
-107.525
0
LINE
8
BLACK
6
CONTINUOUS
10
155.029
20
-107.525
11
154.851
21
-107.525
0
LINE
8
BLACK
6
CONTINUOUS
10
154.851
20
-107.525
11
154.677
21
-107.488
0
LINE
8
BLACK
6
CONTINUOUS
10
154.677
20
-107.488
11
154.515
21
-107.416
0
LINE
8
BLACK
6
CONTINUOUS
10
154.515
20
-107.416
11
154.371
21
-107.312
0
LINE
8
BLACK
6
CONTINUOUS
10
154.371
20
-107.312
11
154.252
21
-107.18
0
LINE
8
BLACK
6
CONTINUOUS
10
154.252
20
-107.18
11
154.163
21
-107.026
0
LINE
8
BLACK
6
CONTINUOUS
10
154.163
20
-107.026
11
154.109
21
-106.857
0
LINE
8
BLACK
6
CONTINUOUS
10
154.109
20
-106.857
11
154.09
21
-106.68
0
LINE
8
BLACK
6
CONTINUOUS
10
154.09
20
-106.68
11
154.109
21
-106.503
0
LINE
8
BLACK
6
CONTINUOUS
10
154.109
20
-106.503
11
154.163
21
-106.334
0
LINE
8
BLACK
6
CONTINUOUS
10
154.163
20
-106.334
11
154.218
21
-106.24
0
LINE
8
BLACK
6
CONTINUOUS
10
154.218
20
-106.24
11
153.46
21
-105.483
0
LINE
8
BLACK
6
CONTINUOUS
10
153.46
20
-105.483
11
152.019
21
-105.483
0
LINE
8
BLACK
6
CONTINUOUS
10
152.019
20
-105.483
11
151.986
21
-105.476
0
LINE
8
BLACK
6
CONTINUOUS
10
151.986
20
-105.476
11
151.953
21
-105.472
0
LINE
8
BLACK
6
CONTINUOUS
10
151.953
20
-105.472
11
151.943
21
-105.466
0
LINE
8
BLACK
6
CONTINUOUS
10
151.943
20
-105.466
11
151.932
21
-105.463
0
LINE
8
BLACK
6
CONTINUOUS
10
151.932
20
-105.463
11
151.906
21
-105.442
0
LINE
8
BLACK
6
CONTINUOUS
10
151.906
20
-105.442
11
151.878
21
-105.424
0
LINE
8
BLACK
6
CONTINUOUS
10
151.878
20
-105.424
11
150.607
21
-104.154
0
LINE
8
BLACK
6
CONTINUOUS
10
150.607
20
-104.154
11
150.59
21
-104.126
0
LINE
8
BLACK
6
CONTINUOUS
10
150.59
20
-104.126
11
150.569
21
-104.1
0
LINE
8
BLACK
6
CONTINUOUS
10
150.569
20
-104.1
11
150.566
21
-104.089
0
LINE
8
BLACK
6
CONTINUOUS
10
150.566
20
-104.089
11
150.56
21
-104.079
0
LINE
8
BLACK
6
CONTINUOUS
10
150.56
20
-104.079
11
150.556
21
-104.046
0
LINE
8
BLACK
6
CONTINUOUS
10
150.556
20
-104.046
11
150.549
21
-104.013
0
LINE
8
BLACK
6
CONTINUOUS
10
150.549
20
-104.013
11
150.549
21
-102.826
0
LINE
8
BLACK
6
CONTINUOUS
10
150.549
20
-102.826
11
148.799
21
-101.076
0
LINE
8
BLACK
6
CONTINUOUS
10
148.799
20
-101.076
11
147.387
21
-101.076
0
LINE
8
BLACK
6
CONTINUOUS
10
147.387
20
-101.076
11
147.354
21
-101.069
0
LINE
8
BLACK
6
CONTINUOUS
10
147.354
20
-101.069
11
147.321
21
-101.065
0
LINE
8
BLACK
6
CONTINUOUS
10
147.321
20
-101.065
11
147.312
21
-101.059
0
LINE
8
BLACK
6
CONTINUOUS
10
147.312
20
-101.059
11
147.3
21
-101.056
0
LINE
8
BLACK
6
CONTINUOUS
10
147.3
20
-101.056
11
147.274
21
-101.035
0
LINE
8
BLACK
6
CONTINUOUS
10
147.274
20
-101.035
11
147.246
21
-101.017
0
LINE
8
BLACK
6
CONTINUOUS
10
147.246
20
-101.017
11
146.176
21
-99.9471
0
LINE
8
BLACK
6
CONTINUOUS
10
146.176
20
-99.9471
11
145.575
21
-99.9471
0
LINE
8
BLACK
6
CONTINUOUS
10
145.575
20
-99.9471
11
145.476
21
-100.046
0
LINE
8
BLACK
6
CONTINUOUS
10
145.476
20
-100.046
11
145.492
21
-100.147
0
LINE
8
BLACK
6
CONTINUOUS
10
145.492
20
-100.147
11
145.473
21
-100.271
0
LINE
8
BLACK
6
CONTINUOUS
10
145.473
20
-100.271
11
145.416
21
-100.382
0
LINE
8
BLACK
6
CONTINUOUS
10
145.416
20
-100.382
11
145.327
21
-100.471
0
LINE
8
BLACK
6
CONTINUOUS
10
145.327
20
-100.471
11
145.216
21
-100.528
0
LINE
8
BLACK
6
CONTINUOUS
10
145.216
20
-100.528
11
145.092
21
-100.547
0
LINE
8
BLACK
6
CONTINUOUS
10
145.092
20
-100.547
11
144.969
21
-100.528
0
LINE
8
BLACK
6
CONTINUOUS
10
144.969
20
-100.528
11
144.857
21
-100.471
0
LINE
8
BLACK
6
CONTINUOUS
10
144.857
20
-100.471
11
144.769
21
-100.382
0
LINE
8
BLACK
6
CONTINUOUS
10
144.769
20
-100.382
11
144.712
21
-100.271
0
LINE
8
BLACK
6
CONTINUOUS
10
144.712
20
-100.271
11
144.692
21
-100.147
0
LINE
8
BLACK
6
CONTINUOUS
10
144.692
20
-100.147
11
144.712
21
-100.024
0
LINE
8
BLACK
6
CONTINUOUS
10
144.712
20
-100.024
11
144.769
21
-99.912
0
LINE
8
BLACK
6
CONTINUOUS
10
144.769
20
-99.912
11
144.857
21
-99.8235
0
LINE
8
BLACK
6
CONTINUOUS
10
144.857
20
-99.8235
11
144.969
21
-99.7667
0
LINE
8
BLACK
6
CONTINUOUS
10
144.969
20
-99.7667
11
145.092
21
-99.7471
0
LINE
8
BLACK
6
CONTINUOUS
10
145.092
20
-99.7471
11
145.193
21
-99.7631
0
LINE
8
BLACK
6
CONTINUOUS
10
145.193
20
-99.7631
11
145.351
21
-99.6055
0
LINE
8
BLACK
6
CONTINUOUS
10
145.351
20
-99.6055
11
145.379
21
-99.5877
0
LINE
8
BLACK
6
CONTINUOUS
10
145.379
20
-99.5877
11
145.406
21
-99.5669
0
LINE
8
BLACK
6
CONTINUOUS
10
145.406
20
-99.5669
11
145.417
21
-99.5643
0
LINE
8
BLACK
6
CONTINUOUS
10
145.417
20
-99.5643
11
145.427
21
-99.5582
0
LINE
8
BLACK
6
CONTINUOUS
10
145.427
20
-99.5582
11
145.46
21
-99.5545
0
LINE
8
BLACK
6
CONTINUOUS
10
145.46
20
-99.5545
11
145.492
21
-99.5471
0
LINE
8
BLACK
6
CONTINUOUS
10
145.492
20
-99.5471
11
146.259
21
-99.5471
0
LINE
8
BLACK
6
CONTINUOUS
10
146.259
20
-99.5471
11
146.291
21
-99.5546
0
LINE
8
BLACK
6
CONTINUOUS
10
143.38
20
-99.3146
11
143.491
21
-99.3714
0
LINE
8
BLACK
6
CONTINUOUS
10
143.491
20
-99.3714
11
143.58
21
-99.4599
0
LINE
8
BLACK
6
CONTINUOUS
10
143.58
20
-99.4599
11
143.636
21
-99.5714
0
LINE
8
BLACK
6
CONTINUOUS
10
143.636
20
-99.5714
11
143.656
21
-99.695
0
LINE
8
BLACK
6
CONTINUOUS
10
143.656
20
-99.695
11
143.64
21
-99.7961
0
LINE
8
BLACK
6
CONTINUOUS
10
143.64
20
-99.7961
11
145.303
21
-101.459
0
LINE
8
BLACK
6
CONTINUOUS
10
145.303
20
-101.459
11
145.32
21
-101.487
0
LINE
8
BLACK
6
CONTINUOUS
10
145.32
20
-101.487
11
145.341
21
-101.513
0
LINE
8
BLACK
6
CONTINUOUS
10
145.341
20
-101.513
11
145.344
21
-101.524
0
LINE
8
BLACK
6
CONTINUOUS
10
145.344
20
-101.524
11
145.35
21
-101.534
0
LINE
8
BLACK
6
CONTINUOUS
10
145.35
20
-101.534
11
145.354
21
-101.567
0
LINE
8
BLACK
6
CONTINUOUS
10
145.354
20
-101.567
11
145.361
21
-101.6
0
LINE
8
BLACK
6
CONTINUOUS
10
145.361
20
-101.6
11
145.361
21
-102.148
0
LINE
8
BLACK
6
CONTINUOUS
10
145.361
20
-102.148
11
145.396
21
-102.165
0
LINE
8
BLACK
6
CONTINUOUS
10
145.396
20
-102.165
11
145.485
21
-102.254
0
LINE
8
BLACK
6
CONTINUOUS
10
145.485
20
-102.254
11
145.541
21
-102.365
0
LINE
8
BLACK
6
CONTINUOUS
10
145.541
20
-102.365
11
145.561
21
-102.489
0
LINE
8
BLACK
6
CONTINUOUS
10
145.561
20
-102.489
11
145.541
21
-102.613
0
LINE
8
BLACK
6
CONTINUOUS
10
145.541
20
-102.613
11
145.485
21
-102.724
0
LINE
8
BLACK
6
CONTINUOUS
10
145.485
20
-102.724
11
145.396
21
-102.813
0
LINE
8
BLACK
6
CONTINUOUS
10
145.396
20
-102.813
11
145.285
21
-102.869
0
LINE
8
BLACK
6
CONTINUOUS
10
145.285
20
-102.869
11
145.161
21
-102.889
0
LINE
8
BLACK
6
CONTINUOUS
10
145.161
20
-102.889
11
145.037
21
-102.869
0
LINE
8
BLACK
6
CONTINUOUS
10
145.037
20
-102.869
11
144.926
21
-102.813
0
LINE
8
BLACK
6
CONTINUOUS
10
144.926
20
-102.813
11
144.837
21
-102.724
0
LINE
8
BLACK
6
CONTINUOUS
10
144.837
20
-102.724
11
144.781
21
-102.613
0
LINE
8
BLACK
6
CONTINUOUS
10
144.781
20
-102.613
11
144.761
21
-102.489
0
LINE
8
BLACK
6
CONTINUOUS
10
144.761
20
-102.489
11
144.781
21
-102.365
0
LINE
8
BLACK
6
CONTINUOUS
10
144.781
20
-102.365
11
144.837
21
-102.254
0
LINE
8
BLACK
6
CONTINUOUS
10
144.837
20
-102.254
11
144.926
21
-102.165
0
LINE
8
BLACK
6
CONTINUOUS
10
144.926
20
-102.165
11
144.961
21
-102.148
0
LINE
8
BLACK
6
CONTINUOUS
10
144.961
20
-102.148
11
144.961
21
-101.683
0
LINE
8
BLACK
6
CONTINUOUS
10
144.961
20
-101.683
11
143.357
21
-100.079
0
LINE
8
BLACK
6
CONTINUOUS
10
143.357
20
-100.079
11
143.256
21
-100.095
0
LINE
8
BLACK
6
CONTINUOUS
10
143.256
20
-100.095
11
143.132
21
-100.075
0
LINE
8
BLACK
6
CONTINUOUS
10
143.132
20
-100.075
11
143.021
21
-100.019
0
LINE
8
BLACK
6
CONTINUOUS
10
143.021
20
-100.019
11
142.932
21
-99.9301
0
LINE
8
BLACK
6
CONTINUOUS
10
142.932
20
-99.9301
11
142.876
21
-99.8186
0
LINE
8
BLACK
6
CONTINUOUS
10
142.876
20
-99.8186
11
142.856
21
-99.695
0
LINE
8
BLACK
6
CONTINUOUS
10
142.856
20
-99.695
11
142.876
21
-99.5714
0
LINE
8
BLACK
6
CONTINUOUS
10
142.876
20
-99.5714
11
142.932
21
-99.4599
0
LINE
8
BLACK
6
CONTINUOUS
10
142.932
20
-99.4599
11
143.021
21
-99.3714
0
LINE
8
BLACK
6
CONTINUOUS
10
143.021
20
-99.3714
11
143.132
21
-99.3146
0
LINE
8
BLACK
6
CONTINUOUS
10
143.132
20
-99.3146
11
143.256
21
-99.295
0
LINE
8
BLACK
6
CONTINUOUS
10
143.256
20
-99.295
11
143.38
21
-99.3146
0
LINE
8
BLACK
6
CONTINUOUS
10
156.461
20
-100.077
11
156.572
21
-100.133
0
LINE
8
BLACK
6
CONTINUOUS
10
156.572
20
-100.133
11
156.661
21
-100.222
0
LINE
8
BLACK
6
CONTINUOUS
10
156.661
20
-100.222
11
156.717
21
-100.333
0
LINE
8
BLACK
6
CONTINUOUS
10
156.717
20
-100.333
11
156.737
21
-100.457
0
LINE
8
BLACK
6
CONTINUOUS
10
156.737
20
-100.457
11
156.717
21
-100.581
0
LINE
8
BLACK
6
CONTINUOUS
10
156.717
20
-100.581
11
156.661
21
-100.692
0
LINE
8
BLACK
6
CONTINUOUS
10
156.661
20
-100.692
11
156.572
21
-100.781
0
LINE
8
BLACK
6
CONTINUOUS
10
156.572
20
-100.781
11
156.461
21
-100.837
0
LINE
8
BLACK
6
CONTINUOUS
10
156.461
20
-100.837
11
156.337
21
-100.857
0
LINE
8
BLACK
6
CONTINUOUS
10
156.337
20
-100.857
11
156.213
21
-100.837
0
LINE
8
BLACK
6
CONTINUOUS
10
156.213
20
-100.837
11
156.102
21
-100.781
0
LINE
8
BLACK
6
CONTINUOUS
10
156.102
20
-100.781
11
156.013
21
-100.692
0
LINE
8
BLACK
6
CONTINUOUS
10
156.013
20
-100.692
11
155.957
21
-100.581
0
LINE
8
BLACK
6
CONTINUOUS
10
155.957
20
-100.581
11
155.937
21
-100.457
0
LINE
8
BLACK
6
CONTINUOUS
10
155.937
20
-100.457
11
155.957
21
-100.333
0
LINE
8
BLACK
6
CONTINUOUS
10
155.957
20
-100.333
11
156.013
21
-100.222
0
LINE
8
BLACK
6
CONTINUOUS
10
156.013
20
-100.222
11
156.102
21
-100.133
0
LINE
8
BLACK
6
CONTINUOUS
10
156.102
20
-100.133
11
156.213
21
-100.077
0
LINE
8
BLACK
6
CONTINUOUS
10
156.213
20
-100.077
11
156.337
21
-100.057
0
LINE
8
BLACK
6
CONTINUOUS
10
156.337
20
-100.057
11
156.461
21
-100.077
0
LINE
8
BLACK
6
CONTINUOUS
10
155.203
20
-93.1716
11
155.365
21
-93.2439
0
LINE
8
BLACK
6
CONTINUOUS
10
155.365
20
-93.2439
11
155.509
21
-93.3483
0
LINE
8
BLACK
6
CONTINUOUS
10
155.509
20
-93.3483
11
155.628
21
-93.4804
0
LINE
8
BLACK
6
CONTINUOUS
10
155.628
20
-93.4804
11
155.717
21
-93.6343
0
LINE
8
BLACK
6
CONTINUOUS
10
155.717
20
-93.6343
11
155.771
21
-93.8033
0
LINE
8
BLACK
6
CONTINUOUS
10
155.771
20
-93.8033
11
155.79
21
-93.98
0
LINE
8
BLACK
6
CONTINUOUS
10
155.79
20
-93.98
11
155.771
21
-94.1567
0
LINE
8
BLACK
6
CONTINUOUS
10
155.771
20
-94.1567
11
155.717
21
-94.3257
0
LINE
8
BLACK
6
CONTINUOUS
10
155.717
20
-94.3257
11
155.628
21
-94.4796
0
LINE
8
BLACK
6
CONTINUOUS
10
155.628
20
-94.4796
11
155.509
21
-94.6117
0
LINE
8
BLACK
6
CONTINUOUS
10
155.509
20
-94.6117
11
155.365
21
-94.7161
0
LINE
8
BLACK
6
CONTINUOUS
10
155.365
20
-94.7161
11
155.203
21
-94.7884
0
LINE
8
BLACK
6
CONTINUOUS
10
155.203
20
-94.7884
11
155.029
21
-94.8253
0
LINE
8
BLACK
6
CONTINUOUS
10
155.029
20
-94.8253
11
154.851
21
-94.8253
0
LINE
8
BLACK
6
CONTINUOUS
10
154.851
20
-94.8253
11
154.677
21
-94.7884
0
LINE
8
BLACK
6
CONTINUOUS
10
154.677
20
-94.7884
11
154.515
21
-94.7161
0
LINE
8
BLACK
6
CONTINUOUS
10
154.515
20
-94.7161
11
154.499
21
-94.7042
0
LINE
8
BLACK
6
CONTINUOUS
10
154.499
20
-94.7042
11
149.392
21
-99.8111
0
LINE
8
BLACK
6
CONTINUOUS
10
149.392
20
-99.8111
11
149.422
21
-99.8409
0
LINE
8
BLACK
6
CONTINUOUS
10
149.422
20
-99.8409
11
149.478
21
-99.9524
0
LINE
8
BLACK
6
CONTINUOUS
10
149.478
20
-99.9524
11
149.498
21
-100.076
0
LINE
8
BLACK
6
CONTINUOUS
10
149.498
20
-100.076
11
149.478
21
-100.2
0
LINE
8
BLACK
6
CONTINUOUS
10
149.478
20
-100.2
11
149.422
21
-100.311
0
LINE
8
BLACK
6
CONTINUOUS
10
149.422
20
-100.311
11
149.333
21
-100.4
0
LINE
8
BLACK
6
CONTINUOUS
10
149.333
20
-100.4
11
149.222
21
-100.456
0
LINE
8
BLACK
6
CONTINUOUS
10
149.222
20
-100.456
11
149.098
21
-100.476
0
LINE
8
BLACK
6
CONTINUOUS
10
149.098
20
-100.476
11
148.974
21
-100.456
0
LINE
8
BLACK
6
CONTINUOUS
10
148.974
20
-100.456
11
148.863
21
-100.4
0
LINE
8
BLACK
6
CONTINUOUS
10
148.863
20
-100.4
11
148.774
21
-100.311
0
LINE
8
BLACK
6
CONTINUOUS
10
148.774
20
-100.311
11
148.718
21
-100.2
0
LINE
8
BLACK
6
CONTINUOUS
10
148.718
20
-100.2
11
148.698
21
-100.076
0
LINE
8
BLACK
6
CONTINUOUS
10
148.698
20
-100.076
11
148.718
21
-99.9524
0
LINE
8
BLACK
6
CONTINUOUS
10
148.718
20
-99.9524
11
148.774
21
-99.8409
0
LINE
8
BLACK
6
CONTINUOUS
10
148.774
20
-99.8409
11
148.863
21
-99.7524
0
LINE
8
BLACK
6
CONTINUOUS
10
148.863
20
-99.7524
11
148.932
21
-99.717
0
LINE
8
BLACK
6
CONTINUOUS
10
148.932
20
-99.717
11
148.939
21
-99.7089
0
LINE
8
BLACK
6
CONTINUOUS
10
148.939
20
-99.7089
11
148.957
21
-99.6806
0
LINE
8
BLACK
6
CONTINUOUS
10
148.957
20
-99.6806
11
154.218
21
-94.4195
0
LINE
8
BLACK
6
CONTINUOUS
10
154.218
20
-94.4195
11
154.163
21
-94.3257
0
LINE
8
BLACK
6
CONTINUOUS
10
154.163
20
-94.3257
11
154.109
21
-94.1567
0
LINE
8
BLACK
6
CONTINUOUS
10
154.109
20
-94.1567
11
154.09
21
-93.98
0
LINE
8
BLACK
6
CONTINUOUS
10
154.09
20
-93.98
11
154.109
21
-93.8033
0
LINE
8
BLACK
6
CONTINUOUS
10
154.109
20
-93.8033
11
154.163
21
-93.6343
0
LINE
8
BLACK
6
CONTINUOUS
10
154.163
20
-93.6343
11
154.252
21
-93.4804
0
LINE
8
BLACK
6
CONTINUOUS
10
154.252
20
-93.4804
11
154.371
21
-93.3483
0
LINE
8
BLACK
6
CONTINUOUS
10
154.371
20
-93.3483
11
154.515
21
-93.2439
0
LINE
8
BLACK
6
CONTINUOUS
10
154.515
20
-93.2439
11
154.677
21
-93.1716
0
LINE
8
BLACK
6
CONTINUOUS
10
154.677
20
-93.1716
11
154.851
21
-93.1347
0
LINE
8
BLACK
6
CONTINUOUS
10
154.851
20
-93.1347
11
155.029
21
-93.1347
0
LINE
8
BLACK
6
CONTINUOUS
10
155.029
20
-93.1347
11
155.203
21
-93.1716
0
LINE
8
BLACK
6
CONTINUOUS
10
137.423
20
-93.1716
11
137.585
21
-93.2439
0
LINE
8
BLACK
6
CONTINUOUS
10
137.585
20
-93.2439
11
137.729
21
-93.3483
0
LINE
8
BLACK
6
CONTINUOUS
10
137.729
20
-93.3483
11
137.848
21
-93.4804
0
LINE
8
BLACK
6
CONTINUOUS
10
137.848
20
-93.4804
11
137.937
21
-93.6343
0
LINE
8
BLACK
6
CONTINUOUS
10
137.937
20
-93.6343
11
137.991
21
-93.8033
0
LINE
8
BLACK
6
CONTINUOUS
10
137.991
20
-93.8033
11
138.01
21
-93.98
0
LINE
8
BLACK
6
CONTINUOUS
10
138.01
20
-93.98
11
137.991
21
-94.1567
0
LINE
8
BLACK
6
CONTINUOUS
10
137.991
20
-94.1567
11
137.937
21
-94.3257
0
LINE
8
BLACK
6
CONTINUOUS
10
137.937
20
-94.3257
11
137.882
21
-94.4195
0
LINE
8
BLACK
6
CONTINUOUS
10
137.882
20
-94.4195
11
141.561
21
-98.098
0
LINE
8
BLACK
6
CONTINUOUS
10
141.561
20
-98.098
11
142.788
21
-98.098
0
LINE
8
BLACK
6
CONTINUOUS
10
142.788
20
-98.098
11
142.805
21
-98.0629
0
LINE
8
BLACK
6
CONTINUOUS
10
142.805
20
-98.0629
11
142.894
21
-97.9744
0
LINE
8
BLACK
6
CONTINUOUS
10
142.894
20
-97.9744
11
143.005
21
-97.9176
0
LINE
8
BLACK
6
CONTINUOUS
10
143.005
20
-97.9176
11
143.129
21
-97.898
0
LINE
8
BLACK
6
CONTINUOUS
10
143.129
20
-97.898
11
143.253
21
-97.9176
0
LINE
8
BLACK
6
CONTINUOUS
10
143.253
20
-97.9176
11
143.364
21
-97.9744
0
LINE
8
BLACK
6
CONTINUOUS
10
143.364
20
-97.9744
11
143.453
21
-98.0629
0
LINE
8
BLACK
6
CONTINUOUS
10
143.453
20
-98.0629
11
143.509
21
-98.1744
0
LINE
8
BLACK
6
CONTINUOUS
10
143.509
20
-98.1744
11
143.529
21
-98.298
0
LINE
8
BLACK
6
CONTINUOUS
10
143.529
20
-98.298
11
143.509
21
-98.4216
0
LINE
8
BLACK
6
CONTINUOUS
10
143.509
20
-98.4216
11
143.453
21
-98.5331
0
LINE
8
BLACK
6
CONTINUOUS
10
143.453
20
-98.5331
11
143.364
21
-98.6216
0
LINE
8
BLACK
6
CONTINUOUS
10
143.364
20
-98.6216
11
143.253
21
-98.6784
0
LINE
8
BLACK
6
CONTINUOUS
10
143.253
20
-98.6784
11
143.129
21
-98.698
0
LINE
8
BLACK
6
CONTINUOUS
10
143.129
20
-98.698
11
143.005
21
-98.6784
0
LINE
8
BLACK
6
CONTINUOUS
10
143.005
20
-98.6784
11
142.894
21
-98.6216
0
LINE
8
BLACK
6
CONTINUOUS
10
142.894
20
-98.6216
11
142.805
21
-98.5331
0
LINE
8
BLACK
6
CONTINUOUS
10
142.805
20
-98.5331
11
142.788
21
-98.498
0
LINE
8
BLACK
6
CONTINUOUS
10
142.788
20
-98.498
11
141.478
21
-98.498
0
LINE
8
BLACK
6
CONTINUOUS
10
141.478
20
-98.498
11
141.445
21
-98.4905
0
LINE
8
BLACK
6
CONTINUOUS
10
141.445
20
-98.4905
11
141.412
21
-98.4868
0
LINE
8
BLACK
6
CONTINUOUS
10
141.412
20
-98.4868
11
141.402
21
-98.4806
0
LINE
8
BLACK
6
CONTINUOUS
10
141.402
20
-98.4806
11
141.391
21
-98.4781
0
LINE
8
BLACK
6
CONTINUOUS
10
141.391
20
-98.4781
11
141.365
21
-98.4572
0
LINE
8
BLACK
6
CONTINUOUS
10
141.365
20
-98.4572
11
141.337
21
-98.4394
0
LINE
8
BLACK
6
CONTINUOUS
10
141.337
20
-98.4394
11
137.601
21
-94.7042
0
LINE
8
BLACK
6
CONTINUOUS
10
137.601
20
-94.7042
11
137.585
21
-94.7161
0
LINE
8
BLACK
6
CONTINUOUS
10
137.585
20
-94.7161
11
137.423
21
-94.7884
0
LINE
8
BLACK
6
CONTINUOUS
10
137.423
20
-94.7884
11
137.249
21
-94.8253
0
LINE
8
BLACK
6
CONTINUOUS
10
137.249
20
-94.8253
11
137.071
21
-94.8253
0
LINE
8
BLACK
6
CONTINUOUS
10
137.071
20
-94.8253
11
136.897
21
-94.7884
0
LINE
8
BLACK
6
CONTINUOUS
10
136.897
20
-94.7884
11
136.735
21
-94.7161
0
LINE
8
BLACK
6
CONTINUOUS
10
136.735
20
-94.7161
11
136.591
21
-94.6117
0
LINE
8
BLACK
6
CONTINUOUS
10
136.591
20
-94.6117
11
136.472
21
-94.4796
0
LINE
8
BLACK
6
CONTINUOUS
10
136.472
20
-94.4796
11
136.383
21
-94.3257
0
LINE
8
BLACK
6
CONTINUOUS
10
136.383
20
-94.3257
11
136.329
21
-94.1567
0
LINE
8
BLACK
6
CONTINUOUS
10
136.329
20
-94.1567
11
136.31
21
-93.98
0
LINE
8
BLACK
6
CONTINUOUS
10
136.31
20
-93.98
11
136.329
21
-93.8033
0
LINE
8
BLACK
6
CONTINUOUS
10
136.329
20
-93.8033
11
136.383
21
-93.6343
0
LINE
8
BLACK
6
CONTINUOUS
10
136.383
20
-93.6343
11
136.472
21
-93.4804
0
LINE
8
BLACK
6
CONTINUOUS
10
136.472
20
-93.4804
11
136.591
21
-93.3483
0
LINE
8
BLACK
6
CONTINUOUS
10
136.591
20
-93.3483
11
136.735
21
-93.2439
0
LINE
8
BLACK
6
CONTINUOUS
10
136.735
20
-93.2439
11
136.897
21
-93.1716
0
LINE
8
BLACK
6
CONTINUOUS
10
136.897
20
-93.1716
11
137.071
21
-93.1347
0
LINE
8
BLACK
6
CONTINUOUS
10
137.071
20
-93.1347
11
137.249
21
-93.1347
0
LINE
8
BLACK
6
CONTINUOUS
10
137.249
20
-93.1347
11
137.423
21
-93.1716
0
LINE
8
BLACK
6
CONTINUOUS
10
149.095
20
-95.8856
11
149.206
21
-95.9424
0
LINE
8
BLACK
6
CONTINUOUS
10
149.206
20
-95.9424
11
149.295
21
-96.0309
0
LINE
8
BLACK
6
CONTINUOUS
10
149.295
20
-96.0309
11
149.351
21
-96.1424
0
LINE
8
BLACK
6
CONTINUOUS
10
149.351
20
-96.1424
11
149.371
21
-96.266
0
LINE
8
BLACK
6
CONTINUOUS
10
149.371
20
-96.266
11
149.351
21
-96.3896
0
LINE
8
BLACK
6
CONTINUOUS
10
149.351
20
-96.3896
11
149.295
21
-96.5011
0
LINE
8
BLACK
6
CONTINUOUS
10
149.295
20
-96.5011
11
149.206
21
-96.5896
0
LINE
8
BLACK
6
CONTINUOUS
10
149.206
20
-96.5896
11
149.095
21
-96.6464
0
LINE
8
BLACK
6
CONTINUOUS
10
149.095
20
-96.6464
11
148.971
21
-96.666
0
LINE
8
BLACK
6
CONTINUOUS
10
148.971
20
-96.666
11
148.847
21
-96.6464
0
LINE
8
BLACK
6
CONTINUOUS
10
148.847
20
-96.6464
11
148.736
21
-96.5896
0
LINE
8
BLACK
6
CONTINUOUS
10
148.736
20
-96.5896
11
148.647
21
-96.5011
0
LINE
8
BLACK
6
CONTINUOUS
10
148.647
20
-96.5011
11
148.591
21
-96.3896
0
LINE
8
BLACK
6
CONTINUOUS
10
148.591
20
-96.3896
11
148.571
21
-96.266
0
LINE
8
BLACK
6
CONTINUOUS
10
148.571
20
-96.266
11
148.591
21
-96.1424
0
LINE
8
BLACK
6
CONTINUOUS
10
148.591
20
-96.1424
11
148.647
21
-96.0309
0
LINE
8
BLACK
6
CONTINUOUS
10
148.647
20
-96.0309
11
148.736
21
-95.9424
0
LINE
8
BLACK
6
CONTINUOUS
10
148.736
20
-95.9424
11
148.847
21
-95.8856
0
LINE
8
BLACK
6
CONTINUOUS
10
148.847
20
-95.8856
11
148.971
21
-95.866
0
LINE
8
BLACK
6
CONTINUOUS
10
148.971
20
-95.866
11
149.095
21
-95.8856
0
LINE
8
BLACK
6
CONTINUOUS
10
143.888
20
-95.7586
11
143.999
21
-95.8154
0
LINE
8
BLACK
6
CONTINUOUS
10
143.999
20
-95.8154
11
144.088
21
-95.9039
0
LINE
8
BLACK
6
CONTINUOUS
10
144.088
20
-95.9039
11
144.144
21
-96.0154
0
LINE
8
BLACK
6
CONTINUOUS
10
144.144
20
-96.0154
11
144.164
21
-96.139
0
LINE
8
BLACK
6
CONTINUOUS
10
144.164
20
-96.139
11
144.144
21
-96.2626
0
LINE
8
BLACK
6
CONTINUOUS
10
144.144
20
-96.2626
11
144.088
21
-96.3741
0
LINE
8
BLACK
6
CONTINUOUS
10
144.088
20
-96.3741
11
143.999
21
-96.4626
0
LINE
8
BLACK
6
CONTINUOUS
10
143.999
20
-96.4626
11
143.888
21
-96.5194
0
LINE
8
BLACK
6
CONTINUOUS
10
143.888
20
-96.5194
11
143.764
21
-96.539
0
LINE
8
BLACK
6
CONTINUOUS
10
143.764
20
-96.539
11
143.64
21
-96.5194
0
LINE
8
BLACK
6
CONTINUOUS
10
143.64
20
-96.5194
11
143.529
21
-96.4626
0
LINE
8
BLACK
6
CONTINUOUS
10
143.529
20
-96.4626
11
143.44
21
-96.3741
0
LINE
8
BLACK
6
CONTINUOUS
10
143.44
20
-96.3741
11
143.384
21
-96.2626
0
LINE
8
BLACK
6
CONTINUOUS
10
143.384
20
-96.2626
11
143.364
21
-96.139
0
LINE
8
BLACK
6
CONTINUOUS
10
143.364
20
-96.139
11
143.384
21
-96.0154
0
LINE
8
BLACK
6
CONTINUOUS
10
143.384
20
-96.0154
11
143.44
21
-95.9039
0
LINE
8
BLACK
6
CONTINUOUS
10
143.44
20
-95.9039
11
143.529
21
-95.8154
0
LINE
8
BLACK
6
CONTINUOUS
10
143.529
20
-95.8154
11
143.64
21
-95.7586
0
LINE
8
BLACK
6
CONTINUOUS
10
143.64
20
-95.7586
11
143.764
21
-95.739
0
LINE
8
BLACK
6
CONTINUOUS
10
143.764
20
-95.739
11
143.888
21
-95.7586
0
LINE
8
BLACK
6
CONTINUOUS
10
135.47
20
-94.83
11
133.77
21
-94.83
0
LINE
8
BLACK
6
CONTINUOUS
10
133.77
20
-94.83
11
133.77
21
-93.13
0
LINE
8
BLACK
6
CONTINUOUS
10
133.77
20
-93.13
11
135.47
21
-93.13
0
LINE
8
BLACK
6
CONTINUOUS
10
135.47
20
-93.13
11
135.47
21
-94.83
0
LINE
8
BLACK
6
CONTINUOUS
10
150.71
20
-94.83
11
149.01
21
-94.83
0
LINE
8
BLACK
6
CONTINUOUS
10
149.01
20
-94.83
11
149.01
21
-93.13
0
LINE
8
BLACK
6
CONTINUOUS
10
149.01
20
-93.13
11
150.71
21
-93.13
0
LINE
8
BLACK
6
CONTINUOUS
10
150.71
20
-93.13
11
150.71
21
-94.83
0
LINE
8
BLACK
6
CONTINUOUS
10
142.503
20
-93.1716
11
142.665
21
-93.2439
0
LINE
8
BLACK
6
CONTINUOUS
10
142.665
20
-93.2439
11
142.809
21
-93.3483
0
LINE
8
BLACK
6
CONTINUOUS
10
142.809
20
-93.3483
11
142.928
21
-93.4804
0
LINE
8
BLACK
6
CONTINUOUS
10
142.928
20
-93.4804
11
143.017
21
-93.6343
0
LINE
8
BLACK
6
CONTINUOUS
10
143.017
20
-93.6343
11
143.071
21
-93.8033
0
LINE
8
BLACK
6
CONTINUOUS
10
143.071
20
-93.8033
11
143.09
21
-93.98
0
LINE
8
BLACK
6
CONTINUOUS
10
143.09
20
-93.98
11
143.071
21
-94.1567
0
LINE
8
BLACK
6
CONTINUOUS
10
143.071
20
-94.1567
11
143.017
21
-94.3257
0
LINE
8
BLACK
6
CONTINUOUS
10
143.017
20
-94.3257
11
142.928
21
-94.4796
0
LINE
8
BLACK
6
CONTINUOUS
10
142.928
20
-94.4796
11
142.809
21
-94.6117
0
LINE
8
BLACK
6
CONTINUOUS
10
142.809
20
-94.6117
11
142.665
21
-94.7161
0
LINE
8
BLACK
6
CONTINUOUS
10
142.665
20
-94.7161
11
142.503
21
-94.7884
0
LINE
8
BLACK
6
CONTINUOUS
10
142.503
20
-94.7884
11
142.329
21
-94.8253
0
LINE
8
BLACK
6
CONTINUOUS
10
142.329
20
-94.8253
11
142.151
21
-94.8253
0
LINE
8
BLACK
6
CONTINUOUS
10
142.151
20
-94.8253
11
141.977
21
-94.7884
0
LINE
8
BLACK
6
CONTINUOUS
10
141.977
20
-94.7884
11
141.815
21
-94.7161
0
LINE
8
BLACK
6
CONTINUOUS
10
141.815
20
-94.7161
11
141.671
21
-94.6117
0
LINE
8
BLACK
6
CONTINUOUS
10
141.671
20
-94.6117
11
141.552
21
-94.4796
0
LINE
8
BLACK
6
CONTINUOUS
10
141.552
20
-94.4796
11
141.463
21
-94.3257
0
LINE
8
BLACK
6
CONTINUOUS
10
141.463
20
-94.3257
11
141.409
21
-94.1567
0
LINE
8
BLACK
6
CONTINUOUS
10
141.409
20
-94.1567
11
141.39
21
-93.98
0
LINE
8
BLACK
6
CONTINUOUS
10
141.39
20
-93.98
11
141.409
21
-93.8033
0
LINE
8
BLACK
6
CONTINUOUS
10
141.409
20
-93.8033
11
141.463
21
-93.6343
0
LINE
8
BLACK
6
CONTINUOUS
10
141.463
20
-93.6343
11
141.552
21
-93.4804
0
LINE
8
BLACK
6
CONTINUOUS
10
141.552
20
-93.4804
11
141.671
21
-93.3483
0
LINE
8
BLACK
6
CONTINUOUS
10
141.671
20
-93.3483
11
141.815
21
-93.2439
0
LINE
8
BLACK
6
CONTINUOUS
10
141.815
20
-93.2439
11
141.977
21
-93.1716
0
LINE
8
BLACK
6
CONTINUOUS
10
141.977
20
-93.1716
11
142.151
21
-93.1347
0
LINE
8
BLACK
6
CONTINUOUS
10
142.151
20
-93.1347
11
142.329
21
-93.1347
0
LINE
8
BLACK
6
CONTINUOUS
10
142.329
20
-93.1347
11
142.503
21
-93.1716
0
LINE
8
BLACK
6
CONTINUOUS
10
139.963
20
-93.1716
11
140.125
21
-93.2439
0
LINE
8
BLACK
6
CONTINUOUS
10
140.125
20
-93.2439
11
140.269
21
-93.3483
0
LINE
8
BLACK
6
CONTINUOUS
10
140.269
20
-93.3483
11
140.388
21
-93.4804
0
LINE
8
BLACK
6
CONTINUOUS
10
140.388
20
-93.4804
11
140.477
21
-93.6343
0
LINE
8
BLACK
6
CONTINUOUS
10
140.477
20
-93.6343
11
140.531
21
-93.8033
0
LINE
8
BLACK
6
CONTINUOUS
10
140.531
20
-93.8033
11
140.55
21
-93.98
0
LINE
8
BLACK
6
CONTINUOUS
10
140.55
20
-93.98
11
140.531
21
-94.1567
0
LINE
8
BLACK
6
CONTINUOUS
10
140.531
20
-94.1567
11
140.477
21
-94.3257
0
LINE
8
BLACK
6
CONTINUOUS
10
140.477
20
-94.3257
11
140.388
21
-94.4796
0
LINE
8
BLACK
6
CONTINUOUS
10
140.388
20
-94.4796
11
140.269
21
-94.6117
0
LINE
8
BLACK
6
CONTINUOUS
10
140.269
20
-94.6117
11
140.125
21
-94.7161
0
LINE
8
BLACK
6
CONTINUOUS
10
140.125
20
-94.7161
11
139.963
21
-94.7884
0
LINE
8
BLACK
6
CONTINUOUS
10
139.963
20
-94.7884
11
139.789
21
-94.8253
0
LINE
8
BLACK
6
CONTINUOUS
10
139.789
20
-94.8253
11
139.611
21
-94.8253
0
LINE
8
BLACK
6
CONTINUOUS
10
139.611
20
-94.8253
11
139.437
21
-94.7884
0
LINE
8
BLACK
6
CONTINUOUS
10
139.437
20
-94.7884
11
139.275
21
-94.7161
0
LINE
8
BLACK
6
CONTINUOUS
10
139.275
20
-94.7161
11
139.131
21
-94.6117
0
LINE
8
BLACK
6
CONTINUOUS
10
139.131
20
-94.6117
11
139.012
21
-94.4796
0
LINE
8
BLACK
6
CONTINUOUS
10
139.012
20
-94.4796
11
138.923
21
-94.3257
0
LINE
8
BLACK
6
CONTINUOUS
10
138.923
20
-94.3257
11
138.869
21
-94.1567
0
LINE
8
BLACK
6
CONTINUOUS
10
138.869
20
-94.1567
11
138.85
21
-93.98
0
LINE
8
BLACK
6
CONTINUOUS
10
138.85
20
-93.98
11
138.869
21
-93.8033
0
LINE
8
BLACK
6
CONTINUOUS
10
138.869
20
-93.8033
11
138.923
21
-93.6343
0
LINE
8
BLACK
6
CONTINUOUS
10
138.923
20
-93.6343
11
139.012
21
-93.4804
0
LINE
8
BLACK
6
CONTINUOUS
10
139.012
20
-93.4804
11
139.131
21
-93.3483
0
LINE
8
BLACK
6
CONTINUOUS
10
139.131
20
-93.3483
11
139.275
21
-93.2439
0
LINE
8
BLACK
6
CONTINUOUS
10
139.275
20
-93.2439
11
139.437
21
-93.1716
0
LINE
8
BLACK
6
CONTINUOUS
10
139.437
20
-93.1716
11
139.611
21
-93.1347
0
LINE
8
BLACK
6
CONTINUOUS
10
139.611
20
-93.1347
11
139.789
21
-93.1347
0
LINE
8
BLACK
6
CONTINUOUS
10
139.789
20
-93.1347
11
139.963
21
-93.1716
0
LINE
8
BLACK
6
CONTINUOUS
10
157.743
20
-93.1716
11
157.905
21
-93.2439
0
LINE
8
BLACK
6
CONTINUOUS
10
157.905
20
-93.2439
11
158.049
21
-93.3483
0
LINE
8
BLACK
6
CONTINUOUS
10
158.049
20
-93.3483
11
158.168
21
-93.4804
0
LINE
8
BLACK
6
CONTINUOUS
10
158.168
20
-93.4804
11
158.257
21
-93.6343
0
LINE
8
BLACK
6
CONTINUOUS
10
158.257
20
-93.6343
11
158.311
21
-93.8033
0
LINE
8
BLACK
6
CONTINUOUS
10
158.311
20
-93.8033
11
158.33
21
-93.98
0
LINE
8
BLACK
6
CONTINUOUS
10
158.33
20
-93.98
11
158.311
21
-94.1567
0
LINE
8
BLACK
6
CONTINUOUS
10
158.311
20
-94.1567
11
158.257
21
-94.3257
0
LINE
8
BLACK
6
CONTINUOUS
10
158.257
20
-94.3257
11
158.168
21
-94.4796
0
LINE
8
BLACK
6
CONTINUOUS
10
158.168
20
-94.4796
11
158.049
21
-94.6117
0
LINE
8
BLACK
6
CONTINUOUS
10
158.049
20
-94.6117
11
157.905
21
-94.7161
0
LINE
8
BLACK
6
CONTINUOUS
10
157.905
20
-94.7161
11
157.743
21
-94.7884
0
LINE
8
BLACK
6
CONTINUOUS
10
157.743
20
-94.7884
11
157.569
21
-94.8253
0
LINE
8
BLACK
6
CONTINUOUS
10
157.569
20
-94.8253
11
157.391
21
-94.8253
0
LINE
8
BLACK
6
CONTINUOUS
10
157.391
20
-94.8253
11
157.217
21
-94.7884
0
LINE
8
BLACK
6
CONTINUOUS
10
157.217
20
-94.7884
11
157.055
21
-94.7161
0
LINE
8
BLACK
6
CONTINUOUS
10
157.055
20
-94.7161
11
156.911
21
-94.6117
0
LINE
8
BLACK
6
CONTINUOUS
10
156.911
20
-94.6117
11
156.792
21
-94.4796
0
LINE
8
BLACK
6
CONTINUOUS
10
156.792
20
-94.4796
11
156.703
21
-94.3257
0
LINE
8
BLACK
6
CONTINUOUS
10
156.703
20
-94.3257
11
156.649
21
-94.1567
0
LINE
8
BLACK
6
CONTINUOUS
10
156.649
20
-94.1567
11
156.63
21
-93.98
0
LINE
8
BLACK
6
CONTINUOUS
10
156.63
20
-93.98
11
156.649
21
-93.8033
0
LINE
8
BLACK
6
CONTINUOUS
10
156.649
20
-93.8033
11
156.703
21
-93.6343
0
LINE
8
BLACK
6
CONTINUOUS
10
156.703
20
-93.6343
11
156.792
21
-93.4804
0
LINE
8
BLACK
6
CONTINUOUS
10
156.792
20
-93.4804
11
156.911
21
-93.3483
0
LINE
8
BLACK
6
CONTINUOUS
10
156.911
20
-93.3483
11
157.055
21
-93.2439
0
LINE
8
BLACK
6
CONTINUOUS
10
157.055
20
-93.2439
11
157.217
21
-93.1716
0
LINE
8
BLACK
6
CONTINUOUS
10
157.217
20
-93.1716
11
157.391
21
-93.1347
0
LINE
8
BLACK
6
CONTINUOUS
10
157.391
20
-93.1347
11
157.569
21
-93.1347
0
LINE
8
BLACK
6
CONTINUOUS
10
157.569
20
-93.1347
11
157.743
21
-93.1716
0
LINE
8
BLACK
6
CONTINUOUS
10
152.663
20
-93.1716
11
152.825
21
-93.2439
0
LINE
8
BLACK
6
CONTINUOUS
10
152.825
20
-93.2439
11
152.969
21
-93.3483
0
LINE
8
BLACK
6
CONTINUOUS
10
152.969
20
-93.3483
11
153.088
21
-93.4804
0
LINE
8
BLACK
6
CONTINUOUS
10
153.088
20
-93.4804
11
153.177
21
-93.6343
0
LINE
8
BLACK
6
CONTINUOUS
10
153.177
20
-93.6343
11
153.231
21
-93.8033
0
LINE
8
BLACK
6
CONTINUOUS
10
153.231
20
-93.8033
11
153.25
21
-93.98
0
LINE
8
BLACK
6
CONTINUOUS
10
153.25
20
-93.98
11
153.231
21
-94.1567
0
LINE
8
BLACK
6
CONTINUOUS
10
153.231
20
-94.1567
11
153.177
21
-94.3257
0
LINE
8
BLACK
6
CONTINUOUS
10
153.177
20
-94.3257
11
153.088
21
-94.4796
0
LINE
8
BLACK
6
CONTINUOUS
10
153.088
20
-94.4796
11
152.969
21
-94.6117
0
LINE
8
BLACK
6
CONTINUOUS
10
152.969
20
-94.6117
11
152.825
21
-94.7161
0
LINE
8
BLACK
6
CONTINUOUS
10
152.825
20
-94.7161
11
152.663
21
-94.7884
0
LINE
8
BLACK
6
CONTINUOUS
10
152.663
20
-94.7884
11
152.489
21
-94.8253
0
LINE
8
BLACK
6
CONTINUOUS
10
152.489
20
-94.8253
11
152.311
21
-94.8253
0
LINE
8
BLACK
6
CONTINUOUS
10
152.311
20
-94.8253
11
152.137
21
-94.7884
0
LINE
8
BLACK
6
CONTINUOUS
10
152.137
20
-94.7884
11
151.975
21
-94.7161
0
LINE
8
BLACK
6
CONTINUOUS
10
151.975
20
-94.7161
11
151.831
21
-94.6117
0
LINE
8
BLACK
6
CONTINUOUS
10
151.831
20
-94.6117
11
151.712
21
-94.4796
0
LINE
8
BLACK
6
CONTINUOUS
10
151.712
20
-94.4796
11
151.623
21
-94.3257
0
LINE
8
BLACK
6
CONTINUOUS
10
151.623
20
-94.3257
11
151.569
21
-94.1567
0
LINE
8
BLACK
6
CONTINUOUS
10
151.569
20
-94.1567
11
151.55
21
-93.98
0
LINE
8
BLACK
6
CONTINUOUS
10
151.55
20
-93.98
11
151.569
21
-93.8033
0
LINE
8
BLACK
6
CONTINUOUS
10
151.569
20
-93.8033
11
151.623
21
-93.6343
0
LINE
8
BLACK
6
CONTINUOUS
10
151.623
20
-93.6343
11
151.712
21
-93.4804
0
LINE
8
BLACK
6
CONTINUOUS
10
151.712
20
-93.4804
11
151.831
21
-93.3483
0
LINE
8
BLACK
6
CONTINUOUS
10
151.831
20
-93.3483
11
151.975
21
-93.2439
0
LINE
8
BLACK
6
CONTINUOUS
10
151.975
20
-93.2439
11
152.137
21
-93.1716
0
LINE
8
BLACK
6
CONTINUOUS
10
152.137
20
-93.1716
11
152.311
21
-93.1347
0
LINE
8
BLACK
6
CONTINUOUS
10
152.311
20
-93.1347
11
152.489
21
-93.1347
0
LINE
8
BLACK
6
CONTINUOUS
10
152.489
20
-93.1347
11
152.663
21
-93.1716
0
CIRCLE
8
BLACK
10
149.86
20
-93.98
40
0.5
0
CIRCLE
8
BLACK
10
152.4
20
-93.98
40
0.5
0
CIRCLE
8
BLACK
10
154.94
20
-93.98
40
0.5
0
CIRCLE
8
BLACK
10
157.48
20
-93.98
40
0.5
0
CIRCLE
8
BLACK
10
134.62
20
-93.98
40
0.5
0
CIRCLE
8
BLACK
10
137.16
20
-93.98
40
0.5
0
CIRCLE
8
BLACK
10
139.7
20
-93.98
40
0.5
0
CIRCLE
8
BLACK
10
142.24
20
-93.98
40
0.5
0
CIRCLE
8
BLACK
10
134.62
20
-106.68
40
0.5
0
CIRCLE
8
BLACK
10
137.16
20
-106.68
40
0.5
0
CIRCLE
8
BLACK
10
139.7
20
-106.68
40
0.5
0
CIRCLE
8
BLACK
10
142.24
20
-106.68
40
0.5
0
CIRCLE
8
BLACK
10
144.78
20
-106.68
40
0.5
0
CIRCLE
8
BLACK
10
147.32
20
-106.68
40
0.5
0
CIRCLE
8
BLACK
10
149.86
20
-106.68
40
0.5
0
CIRCLE
8
BLACK
10
152.4
20
-106.68
40
0.5
0
CIRCLE
8
BLACK
10
154.94
20
-106.68
40
0.5
0
CIRCLE
8
BLACK
10
157.48
20
-106.68
40
0.5
0
CIRCLE
8
BLACK
10
148.971
20
-96.266
40
0.2
0
CIRCLE
8
BLACK
10
145.161
20
-102.489
40
0.2
0
CIRCLE
8
BLACK
10
143.256
20
-99.695
40
0.2
0
CIRCLE
8
BLACK
10
148.463
20
-102.616
40
0.2
0
CIRCLE
8
BLACK
10
149.098
20
-100.076
40
0.2
0
CIRCLE
8
BLACK
10
143.129
20
-98.298
40
0.2
0
CIRCLE
8
BLACK
10
145.092
20
-100.147
40
0.2
0
CIRCLE
8
BLACK
10
146.108
20
-100.78
40
0.2
0
CIRCLE
8
BLACK
10
143.764
20
-96.139
40
0.2
0
CIRCLE
8
BLACK
10
156.337
20
-100.457
40
0.2
  0
ENDSEC
  0
EOF
