G04 #@! TF.GenerationSoftware,KiCad,Pcbnew,6.0.5+dfsg-1~bpo11+1*
G04 #@! TF.CreationDate,2022-12-25T14:08:46+00:00*
G04 #@! TF.ProjectId,stm32l0_mod_source,73746d33-326c-4305-9f6d-6f645f736f75,0.1*
G04 #@! TF.SameCoordinates,Original*
G04 #@! TF.FileFunction,Copper,L2,Inr*
G04 #@! TF.FilePolarity,Positive*
%FSLAX46Y46*%
G04 Gerber Fmt 4.6, Leading zero omitted, Abs format (unit mm)*
G04 Created by KiCad (PCBNEW 6.0.5+dfsg-1~bpo11+1) date 2022-12-25 14:08:46*
%MOMM*%
%LPD*%
G01*
G04 APERTURE LIST*
G04 #@! TA.AperFunction,ComponentPad*
%ADD10R,1.700000X1.700000*%
G04 #@! TD*
G04 #@! TA.AperFunction,ComponentPad*
%ADD11O,1.700000X1.700000*%
G04 #@! TD*
G04 #@! TA.AperFunction,ViaPad*
%ADD12C,0.800000*%
G04 #@! TD*
G04 APERTURE END LIST*
D10*
X149860000Y-93980000D03*
D11*
X152400000Y-93980000D03*
X154940000Y-93980000D03*
X157480000Y-93980000D03*
D10*
X134620000Y-93980000D03*
D11*
X137160000Y-93980000D03*
X139700000Y-93980000D03*
X142240000Y-93980000D03*
D10*
X134620000Y-106680000D03*
D11*
X137160000Y-106680000D03*
X139700000Y-106680000D03*
X142240000Y-106680000D03*
X144780000Y-106680000D03*
X147320000Y-106680000D03*
X149860000Y-106680000D03*
X152400000Y-106680000D03*
X154940000Y-106680000D03*
X157480000Y-106680000D03*
D12*
X148970992Y-96266000D03*
X145161000Y-102489000D03*
X143256000Y-99695000D03*
X148463000Y-102616000D03*
X149098000Y-100076000D03*
X143129000Y-98298000D03*
X145092293Y-100147120D03*
X146107686Y-100780314D03*
X143764000Y-96139000D03*
X156337000Y-100457000D03*
G04 #@! TA.AperFunction,Conductor*
G36*
X159453621Y-91968502D02*
G01*
X159500114Y-92022158D01*
X159511500Y-92074500D01*
X159511500Y-108585500D01*
X159491498Y-108653621D01*
X159437842Y-108700114D01*
X159385500Y-108711500D01*
X132714500Y-108711500D01*
X132646379Y-108691498D01*
X132599886Y-108637842D01*
X132588500Y-108585500D01*
X132588500Y-107578134D01*
X133261500Y-107578134D01*
X133268255Y-107640316D01*
X133319385Y-107776705D01*
X133406739Y-107893261D01*
X133523295Y-107980615D01*
X133659684Y-108031745D01*
X133721866Y-108038500D01*
X135518134Y-108038500D01*
X135580316Y-108031745D01*
X135716705Y-107980615D01*
X135833261Y-107893261D01*
X135920615Y-107776705D01*
X135942799Y-107717529D01*
X135964598Y-107659382D01*
X136007240Y-107602618D01*
X136073802Y-107577918D01*
X136143150Y-107593126D01*
X136177817Y-107621114D01*
X136206250Y-107653938D01*
X136378126Y-107796632D01*
X136571000Y-107909338D01*
X136779692Y-107989030D01*
X136784760Y-107990061D01*
X136784763Y-107990062D01*
X136879862Y-108009410D01*
X136998597Y-108033567D01*
X137003772Y-108033757D01*
X137003774Y-108033757D01*
X137216673Y-108041564D01*
X137216677Y-108041564D01*
X137221837Y-108041753D01*
X137226957Y-108041097D01*
X137226959Y-108041097D01*
X137438288Y-108014025D01*
X137438289Y-108014025D01*
X137443416Y-108013368D01*
X137448366Y-108011883D01*
X137652429Y-107950661D01*
X137652434Y-107950659D01*
X137657384Y-107949174D01*
X137857994Y-107850896D01*
X138039860Y-107721173D01*
X138198096Y-107563489D01*
X138328453Y-107382077D01*
X138329640Y-107382930D01*
X138376960Y-107339362D01*
X138446897Y-107327145D01*
X138512338Y-107354678D01*
X138540166Y-107386511D01*
X138597694Y-107480388D01*
X138603777Y-107488699D01*
X138743213Y-107649667D01*
X138750580Y-107656883D01*
X138914434Y-107792916D01*
X138922881Y-107798831D01*
X139106756Y-107906279D01*
X139116042Y-107910729D01*
X139315001Y-107986703D01*
X139324899Y-107989579D01*
X139428250Y-108010606D01*
X139442299Y-108009410D01*
X139446000Y-107999065D01*
X139446000Y-107998517D01*
X139954000Y-107998517D01*
X139958064Y-108012359D01*
X139971478Y-108014393D01*
X139978184Y-108013534D01*
X139988262Y-108011392D01*
X140192255Y-107950191D01*
X140201842Y-107946433D01*
X140393095Y-107852739D01*
X140401945Y-107847464D01*
X140575328Y-107723792D01*
X140583200Y-107717139D01*
X140734052Y-107566812D01*
X140740730Y-107558965D01*
X140868022Y-107381819D01*
X140869279Y-107382722D01*
X140916373Y-107339362D01*
X140986311Y-107327145D01*
X141051751Y-107354678D01*
X141079579Y-107386511D01*
X141139987Y-107485088D01*
X141286250Y-107653938D01*
X141458126Y-107796632D01*
X141651000Y-107909338D01*
X141859692Y-107989030D01*
X141864760Y-107990061D01*
X141864763Y-107990062D01*
X141959862Y-108009410D01*
X142078597Y-108033567D01*
X142083772Y-108033757D01*
X142083774Y-108033757D01*
X142296673Y-108041564D01*
X142296677Y-108041564D01*
X142301837Y-108041753D01*
X142306957Y-108041097D01*
X142306959Y-108041097D01*
X142518288Y-108014025D01*
X142518289Y-108014025D01*
X142523416Y-108013368D01*
X142528366Y-108011883D01*
X142732429Y-107950661D01*
X142732434Y-107950659D01*
X142737384Y-107949174D01*
X142937994Y-107850896D01*
X143119860Y-107721173D01*
X143278096Y-107563489D01*
X143408453Y-107382077D01*
X143409776Y-107383028D01*
X143456645Y-107339857D01*
X143526580Y-107327625D01*
X143592026Y-107355144D01*
X143619875Y-107386994D01*
X143679987Y-107485088D01*
X143826250Y-107653938D01*
X143998126Y-107796632D01*
X144191000Y-107909338D01*
X144399692Y-107989030D01*
X144404760Y-107990061D01*
X144404763Y-107990062D01*
X144499862Y-108009410D01*
X144618597Y-108033567D01*
X144623772Y-108033757D01*
X144623774Y-108033757D01*
X144836673Y-108041564D01*
X144836677Y-108041564D01*
X144841837Y-108041753D01*
X144846957Y-108041097D01*
X144846959Y-108041097D01*
X145058288Y-108014025D01*
X145058289Y-108014025D01*
X145063416Y-108013368D01*
X145068366Y-108011883D01*
X145272429Y-107950661D01*
X145272434Y-107950659D01*
X145277384Y-107949174D01*
X145477994Y-107850896D01*
X145659860Y-107721173D01*
X145818096Y-107563489D01*
X145948453Y-107382077D01*
X145949776Y-107383028D01*
X145996645Y-107339857D01*
X146066580Y-107327625D01*
X146132026Y-107355144D01*
X146159875Y-107386994D01*
X146219987Y-107485088D01*
X146366250Y-107653938D01*
X146538126Y-107796632D01*
X146731000Y-107909338D01*
X146939692Y-107989030D01*
X146944760Y-107990061D01*
X146944763Y-107990062D01*
X147039862Y-108009410D01*
X147158597Y-108033567D01*
X147163772Y-108033757D01*
X147163774Y-108033757D01*
X147376673Y-108041564D01*
X147376677Y-108041564D01*
X147381837Y-108041753D01*
X147386957Y-108041097D01*
X147386959Y-108041097D01*
X147598288Y-108014025D01*
X147598289Y-108014025D01*
X147603416Y-108013368D01*
X147608366Y-108011883D01*
X147812429Y-107950661D01*
X147812434Y-107950659D01*
X147817384Y-107949174D01*
X148017994Y-107850896D01*
X148199860Y-107721173D01*
X148358096Y-107563489D01*
X148488453Y-107382077D01*
X148489776Y-107383028D01*
X148536645Y-107339857D01*
X148606580Y-107327625D01*
X148672026Y-107355144D01*
X148699875Y-107386994D01*
X148759987Y-107485088D01*
X148906250Y-107653938D01*
X149078126Y-107796632D01*
X149271000Y-107909338D01*
X149479692Y-107989030D01*
X149484760Y-107990061D01*
X149484763Y-107990062D01*
X149579862Y-108009410D01*
X149698597Y-108033567D01*
X149703772Y-108033757D01*
X149703774Y-108033757D01*
X149916673Y-108041564D01*
X149916677Y-108041564D01*
X149921837Y-108041753D01*
X149926957Y-108041097D01*
X149926959Y-108041097D01*
X150138288Y-108014025D01*
X150138289Y-108014025D01*
X150143416Y-108013368D01*
X150148366Y-108011883D01*
X150352429Y-107950661D01*
X150352434Y-107950659D01*
X150357384Y-107949174D01*
X150557994Y-107850896D01*
X150739860Y-107721173D01*
X150898096Y-107563489D01*
X151028453Y-107382077D01*
X151029776Y-107383028D01*
X151076645Y-107339857D01*
X151146580Y-107327625D01*
X151212026Y-107355144D01*
X151239875Y-107386994D01*
X151299987Y-107485088D01*
X151446250Y-107653938D01*
X151618126Y-107796632D01*
X151811000Y-107909338D01*
X152019692Y-107989030D01*
X152024760Y-107990061D01*
X152024763Y-107990062D01*
X152119862Y-108009410D01*
X152238597Y-108033567D01*
X152243772Y-108033757D01*
X152243774Y-108033757D01*
X152456673Y-108041564D01*
X152456677Y-108041564D01*
X152461837Y-108041753D01*
X152466957Y-108041097D01*
X152466959Y-108041097D01*
X152678288Y-108014025D01*
X152678289Y-108014025D01*
X152683416Y-108013368D01*
X152688366Y-108011883D01*
X152892429Y-107950661D01*
X152892434Y-107950659D01*
X152897384Y-107949174D01*
X153097994Y-107850896D01*
X153279860Y-107721173D01*
X153438096Y-107563489D01*
X153568453Y-107382077D01*
X153569776Y-107383028D01*
X153616645Y-107339857D01*
X153686580Y-107327625D01*
X153752026Y-107355144D01*
X153779875Y-107386994D01*
X153839987Y-107485088D01*
X153986250Y-107653938D01*
X154158126Y-107796632D01*
X154351000Y-107909338D01*
X154559692Y-107989030D01*
X154564760Y-107990061D01*
X154564763Y-107990062D01*
X154659862Y-108009410D01*
X154778597Y-108033567D01*
X154783772Y-108033757D01*
X154783774Y-108033757D01*
X154996673Y-108041564D01*
X154996677Y-108041564D01*
X155001837Y-108041753D01*
X155006957Y-108041097D01*
X155006959Y-108041097D01*
X155218288Y-108014025D01*
X155218289Y-108014025D01*
X155223416Y-108013368D01*
X155228366Y-108011883D01*
X155432429Y-107950661D01*
X155432434Y-107950659D01*
X155437384Y-107949174D01*
X155637994Y-107850896D01*
X155819860Y-107721173D01*
X155978096Y-107563489D01*
X156108453Y-107382077D01*
X156109640Y-107382930D01*
X156156960Y-107339362D01*
X156226897Y-107327145D01*
X156292338Y-107354678D01*
X156320166Y-107386511D01*
X156377694Y-107480388D01*
X156383777Y-107488699D01*
X156523213Y-107649667D01*
X156530580Y-107656883D01*
X156694434Y-107792916D01*
X156702881Y-107798831D01*
X156886756Y-107906279D01*
X156896042Y-107910729D01*
X157095001Y-107986703D01*
X157104899Y-107989579D01*
X157208250Y-108010606D01*
X157222299Y-108009410D01*
X157226000Y-107999065D01*
X157226000Y-107998517D01*
X157734000Y-107998517D01*
X157738064Y-108012359D01*
X157751478Y-108014393D01*
X157758184Y-108013534D01*
X157768262Y-108011392D01*
X157972255Y-107950191D01*
X157981842Y-107946433D01*
X158173095Y-107852739D01*
X158181945Y-107847464D01*
X158355328Y-107723792D01*
X158363200Y-107717139D01*
X158514052Y-107566812D01*
X158520730Y-107558965D01*
X158645003Y-107386020D01*
X158650313Y-107377183D01*
X158744670Y-107186267D01*
X158748469Y-107176672D01*
X158810377Y-106972910D01*
X158812555Y-106962837D01*
X158813986Y-106951962D01*
X158811775Y-106937778D01*
X158798617Y-106934000D01*
X157752115Y-106934000D01*
X157736876Y-106938475D01*
X157735671Y-106939865D01*
X157734000Y-106947548D01*
X157734000Y-107998517D01*
X157226000Y-107998517D01*
X157226000Y-106407885D01*
X157734000Y-106407885D01*
X157738475Y-106423124D01*
X157739865Y-106424329D01*
X157747548Y-106426000D01*
X158798344Y-106426000D01*
X158811875Y-106422027D01*
X158813180Y-106412947D01*
X158771214Y-106245875D01*
X158767894Y-106236124D01*
X158682972Y-106040814D01*
X158678105Y-106031739D01*
X158562426Y-105852926D01*
X158556136Y-105844757D01*
X158412806Y-105687240D01*
X158405273Y-105680215D01*
X158238139Y-105548222D01*
X158229552Y-105542517D01*
X158043117Y-105439599D01*
X158033705Y-105435369D01*
X157832959Y-105364280D01*
X157822988Y-105361646D01*
X157751837Y-105348972D01*
X157738540Y-105350432D01*
X157734000Y-105364989D01*
X157734000Y-106407885D01*
X157226000Y-106407885D01*
X157226000Y-105363102D01*
X157222082Y-105349758D01*
X157207806Y-105347771D01*
X157169324Y-105353660D01*
X157159288Y-105356051D01*
X156956868Y-105422212D01*
X156947359Y-105426209D01*
X156758463Y-105524542D01*
X156749738Y-105530036D01*
X156579433Y-105657905D01*
X156571726Y-105664748D01*
X156424590Y-105818717D01*
X156418109Y-105826722D01*
X156313498Y-105980074D01*
X156258587Y-106025076D01*
X156188062Y-106033247D01*
X156124315Y-106001993D01*
X156103618Y-105977509D01*
X156022822Y-105852617D01*
X156022820Y-105852614D01*
X156020014Y-105848277D01*
X155869670Y-105683051D01*
X155865619Y-105679852D01*
X155865615Y-105679848D01*
X155698414Y-105547800D01*
X155698410Y-105547798D01*
X155694359Y-105544598D01*
X155658028Y-105524542D01*
X155642136Y-105515769D01*
X155498789Y-105436638D01*
X155493920Y-105434914D01*
X155493916Y-105434912D01*
X155293087Y-105363795D01*
X155293083Y-105363794D01*
X155288212Y-105362069D01*
X155283119Y-105361162D01*
X155283116Y-105361161D01*
X155073373Y-105323800D01*
X155073367Y-105323799D01*
X155068284Y-105322894D01*
X154994452Y-105321992D01*
X154850081Y-105320228D01*
X154850079Y-105320228D01*
X154844911Y-105320165D01*
X154624091Y-105353955D01*
X154411756Y-105423357D01*
X154213607Y-105526507D01*
X154209474Y-105529610D01*
X154209471Y-105529612D01*
X154039100Y-105657530D01*
X154034965Y-105660635D01*
X154031393Y-105664373D01*
X153923729Y-105777037D01*
X153880629Y-105822138D01*
X153773201Y-105979621D01*
X153718293Y-106024621D01*
X153647768Y-106032792D01*
X153584021Y-106001538D01*
X153563324Y-105977054D01*
X153482822Y-105852617D01*
X153482820Y-105852614D01*
X153480014Y-105848277D01*
X153329670Y-105683051D01*
X153325619Y-105679852D01*
X153325615Y-105679848D01*
X153158414Y-105547800D01*
X153158410Y-105547798D01*
X153154359Y-105544598D01*
X153118028Y-105524542D01*
X153102136Y-105515769D01*
X152958789Y-105436638D01*
X152953920Y-105434914D01*
X152953916Y-105434912D01*
X152753087Y-105363795D01*
X152753083Y-105363794D01*
X152748212Y-105362069D01*
X152743119Y-105361162D01*
X152743116Y-105361161D01*
X152533373Y-105323800D01*
X152533367Y-105323799D01*
X152528284Y-105322894D01*
X152454452Y-105321992D01*
X152310081Y-105320228D01*
X152310079Y-105320228D01*
X152304911Y-105320165D01*
X152084091Y-105353955D01*
X151871756Y-105423357D01*
X151673607Y-105526507D01*
X151669474Y-105529610D01*
X151669471Y-105529612D01*
X151499100Y-105657530D01*
X151494965Y-105660635D01*
X151491393Y-105664373D01*
X151383729Y-105777037D01*
X151340629Y-105822138D01*
X151233201Y-105979621D01*
X151178293Y-106024621D01*
X151107768Y-106032792D01*
X151044021Y-106001538D01*
X151023324Y-105977054D01*
X150942822Y-105852617D01*
X150942820Y-105852614D01*
X150940014Y-105848277D01*
X150789670Y-105683051D01*
X150785619Y-105679852D01*
X150785615Y-105679848D01*
X150618414Y-105547800D01*
X150618410Y-105547798D01*
X150614359Y-105544598D01*
X150578028Y-105524542D01*
X150562136Y-105515769D01*
X150418789Y-105436638D01*
X150413920Y-105434914D01*
X150413916Y-105434912D01*
X150213087Y-105363795D01*
X150213083Y-105363794D01*
X150208212Y-105362069D01*
X150203119Y-105361162D01*
X150203116Y-105361161D01*
X149993373Y-105323800D01*
X149993367Y-105323799D01*
X149988284Y-105322894D01*
X149914452Y-105321992D01*
X149770081Y-105320228D01*
X149770079Y-105320228D01*
X149764911Y-105320165D01*
X149544091Y-105353955D01*
X149331756Y-105423357D01*
X149133607Y-105526507D01*
X149129474Y-105529610D01*
X149129471Y-105529612D01*
X148959100Y-105657530D01*
X148954965Y-105660635D01*
X148951393Y-105664373D01*
X148843729Y-105777037D01*
X148800629Y-105822138D01*
X148693201Y-105979621D01*
X148638293Y-106024621D01*
X148567768Y-106032792D01*
X148504021Y-106001538D01*
X148483324Y-105977054D01*
X148402822Y-105852617D01*
X148402820Y-105852614D01*
X148400014Y-105848277D01*
X148249670Y-105683051D01*
X148245619Y-105679852D01*
X148245615Y-105679848D01*
X148078414Y-105547800D01*
X148078410Y-105547798D01*
X148074359Y-105544598D01*
X148038028Y-105524542D01*
X148022136Y-105515769D01*
X147878789Y-105436638D01*
X147873920Y-105434914D01*
X147873916Y-105434912D01*
X147673087Y-105363795D01*
X147673083Y-105363794D01*
X147668212Y-105362069D01*
X147663119Y-105361162D01*
X147663116Y-105361161D01*
X147453373Y-105323800D01*
X147453367Y-105323799D01*
X147448284Y-105322894D01*
X147374452Y-105321992D01*
X147230081Y-105320228D01*
X147230079Y-105320228D01*
X147224911Y-105320165D01*
X147004091Y-105353955D01*
X146791756Y-105423357D01*
X146593607Y-105526507D01*
X146589474Y-105529610D01*
X146589471Y-105529612D01*
X146419100Y-105657530D01*
X146414965Y-105660635D01*
X146411393Y-105664373D01*
X146303729Y-105777037D01*
X146260629Y-105822138D01*
X146153201Y-105979621D01*
X146098293Y-106024621D01*
X146027768Y-106032792D01*
X145964021Y-106001538D01*
X145943324Y-105977054D01*
X145862822Y-105852617D01*
X145862820Y-105852614D01*
X145860014Y-105848277D01*
X145709670Y-105683051D01*
X145705619Y-105679852D01*
X145705615Y-105679848D01*
X145538414Y-105547800D01*
X145538410Y-105547798D01*
X145534359Y-105544598D01*
X145498028Y-105524542D01*
X145482136Y-105515769D01*
X145338789Y-105436638D01*
X145333920Y-105434914D01*
X145333916Y-105434912D01*
X145133087Y-105363795D01*
X145133083Y-105363794D01*
X145128212Y-105362069D01*
X145123119Y-105361162D01*
X145123116Y-105361161D01*
X144913373Y-105323800D01*
X144913367Y-105323799D01*
X144908284Y-105322894D01*
X144834452Y-105321992D01*
X144690081Y-105320228D01*
X144690079Y-105320228D01*
X144684911Y-105320165D01*
X144464091Y-105353955D01*
X144251756Y-105423357D01*
X144053607Y-105526507D01*
X144049474Y-105529610D01*
X144049471Y-105529612D01*
X143879100Y-105657530D01*
X143874965Y-105660635D01*
X143871393Y-105664373D01*
X143763729Y-105777037D01*
X143720629Y-105822138D01*
X143613201Y-105979621D01*
X143558293Y-106024621D01*
X143487768Y-106032792D01*
X143424021Y-106001538D01*
X143403324Y-105977054D01*
X143322822Y-105852617D01*
X143322820Y-105852614D01*
X143320014Y-105848277D01*
X143169670Y-105683051D01*
X143165619Y-105679852D01*
X143165615Y-105679848D01*
X142998414Y-105547800D01*
X142998410Y-105547798D01*
X142994359Y-105544598D01*
X142958028Y-105524542D01*
X142942136Y-105515769D01*
X142798789Y-105436638D01*
X142793920Y-105434914D01*
X142793916Y-105434912D01*
X142593087Y-105363795D01*
X142593083Y-105363794D01*
X142588212Y-105362069D01*
X142583119Y-105361162D01*
X142583116Y-105361161D01*
X142373373Y-105323800D01*
X142373367Y-105323799D01*
X142368284Y-105322894D01*
X142294452Y-105321992D01*
X142150081Y-105320228D01*
X142150079Y-105320228D01*
X142144911Y-105320165D01*
X141924091Y-105353955D01*
X141711756Y-105423357D01*
X141513607Y-105526507D01*
X141509474Y-105529610D01*
X141509471Y-105529612D01*
X141339100Y-105657530D01*
X141334965Y-105660635D01*
X141331393Y-105664373D01*
X141223729Y-105777037D01*
X141180629Y-105822138D01*
X141073204Y-105979618D01*
X141072898Y-105980066D01*
X141017987Y-106025069D01*
X140947462Y-106033240D01*
X140883715Y-106001986D01*
X140863018Y-105977502D01*
X140782426Y-105852926D01*
X140776136Y-105844757D01*
X140632806Y-105687240D01*
X140625273Y-105680215D01*
X140458139Y-105548222D01*
X140449552Y-105542517D01*
X140263117Y-105439599D01*
X140253705Y-105435369D01*
X140052959Y-105364280D01*
X140042988Y-105361646D01*
X139971837Y-105348972D01*
X139958540Y-105350432D01*
X139954000Y-105364989D01*
X139954000Y-107998517D01*
X139446000Y-107998517D01*
X139446000Y-105363102D01*
X139442082Y-105349758D01*
X139427806Y-105347771D01*
X139389324Y-105353660D01*
X139379288Y-105356051D01*
X139176868Y-105422212D01*
X139167359Y-105426209D01*
X138978463Y-105524542D01*
X138969738Y-105530036D01*
X138799433Y-105657905D01*
X138791726Y-105664748D01*
X138644590Y-105818717D01*
X138638109Y-105826722D01*
X138533498Y-105980074D01*
X138478587Y-106025076D01*
X138408062Y-106033247D01*
X138344315Y-106001993D01*
X138323618Y-105977509D01*
X138242822Y-105852617D01*
X138242820Y-105852614D01*
X138240014Y-105848277D01*
X138089670Y-105683051D01*
X138085619Y-105679852D01*
X138085615Y-105679848D01*
X137918414Y-105547800D01*
X137918410Y-105547798D01*
X137914359Y-105544598D01*
X137878028Y-105524542D01*
X137862136Y-105515769D01*
X137718789Y-105436638D01*
X137713920Y-105434914D01*
X137713916Y-105434912D01*
X137513087Y-105363795D01*
X137513083Y-105363794D01*
X137508212Y-105362069D01*
X137503119Y-105361162D01*
X137503116Y-105361161D01*
X137293373Y-105323800D01*
X137293367Y-105323799D01*
X137288284Y-105322894D01*
X137214452Y-105321992D01*
X137070081Y-105320228D01*
X137070079Y-105320228D01*
X137064911Y-105320165D01*
X136844091Y-105353955D01*
X136631756Y-105423357D01*
X136433607Y-105526507D01*
X136429474Y-105529610D01*
X136429471Y-105529612D01*
X136259100Y-105657530D01*
X136254965Y-105660635D01*
X136198537Y-105719684D01*
X136174283Y-105745064D01*
X136112759Y-105780494D01*
X136041846Y-105777037D01*
X135984060Y-105735791D01*
X135965207Y-105702243D01*
X135923767Y-105591703D01*
X135920615Y-105583295D01*
X135833261Y-105466739D01*
X135716705Y-105379385D01*
X135580316Y-105328255D01*
X135518134Y-105321500D01*
X133721866Y-105321500D01*
X133659684Y-105328255D01*
X133523295Y-105379385D01*
X133406739Y-105466739D01*
X133319385Y-105583295D01*
X133268255Y-105719684D01*
X133261500Y-105781866D01*
X133261500Y-107578134D01*
X132588500Y-107578134D01*
X132588500Y-98298000D01*
X142215496Y-98298000D01*
X142235458Y-98487928D01*
X142294473Y-98669556D01*
X142389960Y-98834944D01*
X142394375Y-98839847D01*
X142394379Y-98839852D01*
X142399187Y-98845192D01*
X142517747Y-98976866D01*
X142517111Y-98977439D01*
X142551478Y-99033226D01*
X142550124Y-99104209D01*
X142525237Y-99147792D01*
X142525259Y-99147808D01*
X142525111Y-99148012D01*
X142523563Y-99150723D01*
X142516960Y-99158056D01*
X142421473Y-99323444D01*
X142362458Y-99505072D01*
X142361768Y-99511633D01*
X142361768Y-99511635D01*
X142353758Y-99587848D01*
X142342496Y-99695000D01*
X142343186Y-99701565D01*
X142361080Y-99871814D01*
X142362458Y-99884928D01*
X142421473Y-100066556D01*
X142424776Y-100072278D01*
X142424777Y-100072279D01*
X142429074Y-100079721D01*
X142516960Y-100231944D01*
X142521378Y-100236851D01*
X142521379Y-100236852D01*
X142611596Y-100337048D01*
X142644747Y-100373866D01*
X142684895Y-100403035D01*
X142768207Y-100463565D01*
X142799248Y-100486118D01*
X142805276Y-100488802D01*
X142805278Y-100488803D01*
X142967681Y-100561109D01*
X142973712Y-100563794D01*
X143067113Y-100583647D01*
X143154056Y-100602128D01*
X143154061Y-100602128D01*
X143160513Y-100603500D01*
X143351487Y-100603500D01*
X143357939Y-100602128D01*
X143357944Y-100602128D01*
X143444887Y-100583647D01*
X143538288Y-100563794D01*
X143544319Y-100561109D01*
X143706722Y-100488803D01*
X143706724Y-100488802D01*
X143712752Y-100486118D01*
X143743794Y-100463565D01*
X143827105Y-100403035D01*
X143867253Y-100373866D01*
X143978202Y-100250644D01*
X144038647Y-100213406D01*
X144109631Y-100214758D01*
X144168615Y-100254272D01*
X144197147Y-100321786D01*
X144198751Y-100337048D01*
X144257766Y-100518676D01*
X144353253Y-100684064D01*
X144357671Y-100688971D01*
X144357672Y-100688972D01*
X144434006Y-100773749D01*
X144481040Y-100825986D01*
X144635541Y-100938238D01*
X144641569Y-100940922D01*
X144641571Y-100940923D01*
X144747816Y-100988226D01*
X144810005Y-101015914D01*
X144903405Y-101035767D01*
X144990349Y-101054248D01*
X144990354Y-101054248D01*
X144996806Y-101055620D01*
X145150341Y-101055620D01*
X145218462Y-101075622D01*
X145264955Y-101129278D01*
X145270173Y-101142680D01*
X145273159Y-101151870D01*
X145368646Y-101317258D01*
X145373064Y-101322165D01*
X145373065Y-101322166D01*
X145428836Y-101384106D01*
X145459554Y-101448113D01*
X145450789Y-101518567D01*
X145405326Y-101573098D01*
X145337599Y-101594393D01*
X145309002Y-101591662D01*
X145262951Y-101581873D01*
X145262942Y-101581872D01*
X145256487Y-101580500D01*
X145065513Y-101580500D01*
X145059061Y-101581872D01*
X145059056Y-101581872D01*
X144972113Y-101600353D01*
X144878712Y-101620206D01*
X144872682Y-101622891D01*
X144872681Y-101622891D01*
X144710278Y-101695197D01*
X144710276Y-101695198D01*
X144704248Y-101697882D01*
X144698907Y-101701762D01*
X144698906Y-101701763D01*
X144648843Y-101738136D01*
X144549747Y-101810134D01*
X144421960Y-101952056D01*
X144326473Y-102117444D01*
X144267458Y-102299072D01*
X144247496Y-102489000D01*
X144267458Y-102678928D01*
X144326473Y-102860556D01*
X144421960Y-103025944D01*
X144549747Y-103167866D01*
X144704248Y-103280118D01*
X144710276Y-103282802D01*
X144710278Y-103282803D01*
X144746094Y-103298749D01*
X144878712Y-103357794D01*
X144972112Y-103377647D01*
X145059056Y-103396128D01*
X145059061Y-103396128D01*
X145065513Y-103397500D01*
X145256487Y-103397500D01*
X145262939Y-103396128D01*
X145262944Y-103396128D01*
X145349888Y-103377647D01*
X145443288Y-103357794D01*
X145575906Y-103298749D01*
X145611722Y-103282803D01*
X145611724Y-103282802D01*
X145617752Y-103280118D01*
X145772253Y-103167866D01*
X145900040Y-103025944D01*
X145995527Y-102860556D01*
X146054542Y-102678928D01*
X146061156Y-102616000D01*
X147549496Y-102616000D01*
X147569458Y-102805928D01*
X147628473Y-102987556D01*
X147723960Y-103152944D01*
X147851747Y-103294866D01*
X147934664Y-103355109D01*
X147991122Y-103396128D01*
X148006248Y-103407118D01*
X148012276Y-103409802D01*
X148012278Y-103409803D01*
X148174681Y-103482109D01*
X148180712Y-103484794D01*
X148274113Y-103504647D01*
X148361056Y-103523128D01*
X148361061Y-103523128D01*
X148367513Y-103524500D01*
X148558487Y-103524500D01*
X148564939Y-103523128D01*
X148564944Y-103523128D01*
X148651888Y-103504647D01*
X148745288Y-103484794D01*
X148751319Y-103482109D01*
X148913722Y-103409803D01*
X148913724Y-103409802D01*
X148919752Y-103407118D01*
X148934879Y-103396128D01*
X148991336Y-103355109D01*
X149074253Y-103294866D01*
X149202040Y-103152944D01*
X149297527Y-102987556D01*
X149356542Y-102805928D01*
X149376504Y-102616000D01*
X149356542Y-102426072D01*
X149297527Y-102244444D01*
X149202040Y-102079056D01*
X149074253Y-101937134D01*
X148919752Y-101824882D01*
X148913724Y-101822198D01*
X148913722Y-101822197D01*
X148751319Y-101749891D01*
X148751318Y-101749891D01*
X148745288Y-101747206D01*
X148651887Y-101727353D01*
X148564944Y-101708872D01*
X148564939Y-101708872D01*
X148558487Y-101707500D01*
X148367513Y-101707500D01*
X148361061Y-101708872D01*
X148361056Y-101708872D01*
X148274113Y-101727353D01*
X148180712Y-101747206D01*
X148174682Y-101749891D01*
X148174681Y-101749891D01*
X148012278Y-101822197D01*
X148012276Y-101822198D01*
X148006248Y-101824882D01*
X147851747Y-101937134D01*
X147723960Y-102079056D01*
X147628473Y-102244444D01*
X147569458Y-102426072D01*
X147549496Y-102616000D01*
X146061156Y-102616000D01*
X146074504Y-102489000D01*
X146054542Y-102299072D01*
X145995527Y-102117444D01*
X145900040Y-101952056D01*
X145839850Y-101885208D01*
X145809132Y-101821201D01*
X145817897Y-101750747D01*
X145863360Y-101696216D01*
X145931087Y-101674921D01*
X145959684Y-101677652D01*
X146005735Y-101687441D01*
X146005744Y-101687442D01*
X146012199Y-101688814D01*
X146203173Y-101688814D01*
X146209625Y-101687442D01*
X146209630Y-101687442D01*
X146296573Y-101668961D01*
X146389974Y-101649108D01*
X146448859Y-101622891D01*
X146558408Y-101574117D01*
X146558410Y-101574116D01*
X146564438Y-101571432D01*
X146718939Y-101459180D01*
X146846726Y-101317258D01*
X146942213Y-101151870D01*
X147001228Y-100970242D01*
X147003759Y-100946166D01*
X147020500Y-100786879D01*
X147021190Y-100780314D01*
X147002998Y-100607226D01*
X147001918Y-100596949D01*
X147001918Y-100596947D01*
X147001228Y-100590386D01*
X146942213Y-100408758D01*
X146846726Y-100243370D01*
X146831290Y-100226226D01*
X146723361Y-100106359D01*
X146723360Y-100106358D01*
X146718939Y-100101448D01*
X146683913Y-100076000D01*
X148184496Y-100076000D01*
X148204458Y-100265928D01*
X148263473Y-100447556D01*
X148266776Y-100453278D01*
X148266777Y-100453279D01*
X148272716Y-100463565D01*
X148358960Y-100612944D01*
X148486747Y-100754866D01*
X148641248Y-100867118D01*
X148647276Y-100869802D01*
X148647278Y-100869803D01*
X148809681Y-100942109D01*
X148815712Y-100944794D01*
X148909112Y-100964647D01*
X148996056Y-100983128D01*
X148996061Y-100983128D01*
X149002513Y-100984500D01*
X149193487Y-100984500D01*
X149199939Y-100983128D01*
X149199944Y-100983128D01*
X149286888Y-100964647D01*
X149380288Y-100944794D01*
X149386319Y-100942109D01*
X149548722Y-100869803D01*
X149548724Y-100869802D01*
X149554752Y-100867118D01*
X149709253Y-100754866D01*
X149837040Y-100612944D01*
X149923284Y-100463565D01*
X149927075Y-100457000D01*
X155423496Y-100457000D01*
X155424186Y-100463565D01*
X155438894Y-100603500D01*
X155443458Y-100646928D01*
X155502473Y-100828556D01*
X155597960Y-100993944D01*
X155725747Y-101135866D01*
X155880248Y-101248118D01*
X155886276Y-101250802D01*
X155886278Y-101250803D01*
X156046563Y-101322166D01*
X156054712Y-101325794D01*
X156148112Y-101345647D01*
X156235056Y-101364128D01*
X156235061Y-101364128D01*
X156241513Y-101365500D01*
X156432487Y-101365500D01*
X156438939Y-101364128D01*
X156438944Y-101364128D01*
X156525888Y-101345647D01*
X156619288Y-101325794D01*
X156627437Y-101322166D01*
X156787722Y-101250803D01*
X156787724Y-101250802D01*
X156793752Y-101248118D01*
X156948253Y-101135866D01*
X157076040Y-100993944D01*
X157171527Y-100828556D01*
X157230542Y-100646928D01*
X157235107Y-100603500D01*
X157249814Y-100463565D01*
X157250504Y-100457000D01*
X157244832Y-100403035D01*
X157231232Y-100273635D01*
X157231232Y-100273633D01*
X157230542Y-100267072D01*
X157171527Y-100085444D01*
X157166075Y-100076000D01*
X157114408Y-99986511D01*
X157076040Y-99920056D01*
X157050064Y-99891206D01*
X156952675Y-99783045D01*
X156952674Y-99783044D01*
X156948253Y-99778134D01*
X156833829Y-99695000D01*
X156799094Y-99669763D01*
X156799093Y-99669762D01*
X156793752Y-99665882D01*
X156787724Y-99663198D01*
X156787722Y-99663197D01*
X156625319Y-99590891D01*
X156625318Y-99590891D01*
X156619288Y-99588206D01*
X156525888Y-99568353D01*
X156438944Y-99549872D01*
X156438939Y-99549872D01*
X156432487Y-99548500D01*
X156241513Y-99548500D01*
X156235061Y-99549872D01*
X156235056Y-99549872D01*
X156148112Y-99568353D01*
X156054712Y-99588206D01*
X156048682Y-99590891D01*
X156048681Y-99590891D01*
X155886278Y-99663197D01*
X155886276Y-99663198D01*
X155880248Y-99665882D01*
X155874907Y-99669762D01*
X155874906Y-99669763D01*
X155840171Y-99695000D01*
X155725747Y-99778134D01*
X155721326Y-99783044D01*
X155721325Y-99783045D01*
X155623937Y-99891206D01*
X155597960Y-99920056D01*
X155559592Y-99986511D01*
X155507926Y-100076000D01*
X155502473Y-100085444D01*
X155443458Y-100267072D01*
X155442768Y-100273633D01*
X155442768Y-100273635D01*
X155429168Y-100403035D01*
X155423496Y-100457000D01*
X149927075Y-100457000D01*
X149929223Y-100453279D01*
X149929224Y-100453278D01*
X149932527Y-100447556D01*
X149991542Y-100265928D01*
X150011504Y-100076000D01*
X150002381Y-99989196D01*
X149992232Y-99892635D01*
X149992232Y-99892633D01*
X149991542Y-99886072D01*
X149932527Y-99704444D01*
X149927075Y-99695000D01*
X149888024Y-99627362D01*
X149837040Y-99539056D01*
X149769794Y-99464371D01*
X149713675Y-99402045D01*
X149713674Y-99402044D01*
X149709253Y-99397134D01*
X149554752Y-99284882D01*
X149548724Y-99282198D01*
X149548722Y-99282197D01*
X149386319Y-99209891D01*
X149386318Y-99209891D01*
X149380288Y-99207206D01*
X149286888Y-99187353D01*
X149199944Y-99168872D01*
X149199939Y-99168872D01*
X149193487Y-99167500D01*
X149002513Y-99167500D01*
X148996061Y-99168872D01*
X148996056Y-99168872D01*
X148909113Y-99187353D01*
X148815712Y-99207206D01*
X148809682Y-99209891D01*
X148809681Y-99209891D01*
X148647278Y-99282197D01*
X148647276Y-99282198D01*
X148641248Y-99284882D01*
X148486747Y-99397134D01*
X148482326Y-99402044D01*
X148482325Y-99402045D01*
X148426207Y-99464371D01*
X148358960Y-99539056D01*
X148307976Y-99627362D01*
X148268926Y-99695000D01*
X148263473Y-99704444D01*
X148204458Y-99886072D01*
X148203768Y-99892633D01*
X148203768Y-99892635D01*
X148193619Y-99989196D01*
X148184496Y-100076000D01*
X146683913Y-100076000D01*
X146564438Y-99989196D01*
X146558410Y-99986512D01*
X146558408Y-99986511D01*
X146396005Y-99914205D01*
X146396004Y-99914205D01*
X146389974Y-99911520D01*
X146294405Y-99891206D01*
X146209630Y-99873186D01*
X146209625Y-99873186D01*
X146203173Y-99871814D01*
X146049638Y-99871814D01*
X145981517Y-99851812D01*
X145935024Y-99798156D01*
X145929806Y-99784754D01*
X145928862Y-99781848D01*
X145928861Y-99781846D01*
X145926820Y-99775564D01*
X145831333Y-99610176D01*
X145742607Y-99511635D01*
X145707968Y-99473165D01*
X145707964Y-99473161D01*
X145703546Y-99468254D01*
X145549045Y-99356002D01*
X145543017Y-99353318D01*
X145543015Y-99353317D01*
X145380612Y-99281011D01*
X145380611Y-99281011D01*
X145374581Y-99278326D01*
X145281181Y-99258473D01*
X145194237Y-99239992D01*
X145194232Y-99239992D01*
X145187780Y-99238620D01*
X144996806Y-99238620D01*
X144990354Y-99239992D01*
X144990349Y-99239992D01*
X144903406Y-99258473D01*
X144810005Y-99278326D01*
X144803975Y-99281011D01*
X144803974Y-99281011D01*
X144641571Y-99353317D01*
X144641569Y-99353318D01*
X144635541Y-99356002D01*
X144481040Y-99468254D01*
X144370091Y-99591476D01*
X144309646Y-99628714D01*
X144238662Y-99627362D01*
X144179678Y-99587848D01*
X144151146Y-99520334D01*
X144150232Y-99511635D01*
X144150232Y-99511633D01*
X144149542Y-99505072D01*
X144090527Y-99323444D01*
X143995040Y-99158056D01*
X143985997Y-99148012D01*
X143871674Y-99021044D01*
X143867253Y-99016134D01*
X143867889Y-99015561D01*
X143833522Y-98959774D01*
X143834876Y-98888791D01*
X143859763Y-98845208D01*
X143859741Y-98845192D01*
X143859889Y-98844988D01*
X143861437Y-98842277D01*
X143868040Y-98834944D01*
X143963527Y-98669556D01*
X144022542Y-98487928D01*
X144042504Y-98298000D01*
X144022542Y-98108072D01*
X143963527Y-97926444D01*
X143868040Y-97761056D01*
X143740253Y-97619134D01*
X143585752Y-97506882D01*
X143579724Y-97504198D01*
X143579722Y-97504197D01*
X143417319Y-97431891D01*
X143417318Y-97431891D01*
X143411288Y-97429206D01*
X143317887Y-97409353D01*
X143230944Y-97390872D01*
X143230939Y-97390872D01*
X143224487Y-97389500D01*
X143033513Y-97389500D01*
X143027061Y-97390872D01*
X143027056Y-97390872D01*
X142940113Y-97409353D01*
X142846712Y-97429206D01*
X142840682Y-97431891D01*
X142840681Y-97431891D01*
X142678278Y-97504197D01*
X142678276Y-97504198D01*
X142672248Y-97506882D01*
X142517747Y-97619134D01*
X142389960Y-97761056D01*
X142294473Y-97926444D01*
X142235458Y-98108072D01*
X142215496Y-98298000D01*
X132588500Y-98298000D01*
X132588500Y-96139000D01*
X142850496Y-96139000D01*
X142870458Y-96328928D01*
X142929473Y-96510556D01*
X143024960Y-96675944D01*
X143152747Y-96817866D01*
X143307248Y-96930118D01*
X143313276Y-96932802D01*
X143313278Y-96932803D01*
X143475681Y-97005109D01*
X143481712Y-97007794D01*
X143575112Y-97027647D01*
X143662056Y-97046128D01*
X143662061Y-97046128D01*
X143668513Y-97047500D01*
X143859487Y-97047500D01*
X143865939Y-97046128D01*
X143865944Y-97046128D01*
X143952888Y-97027647D01*
X144046288Y-97007794D01*
X144052319Y-97005109D01*
X144214722Y-96932803D01*
X144214724Y-96932802D01*
X144220752Y-96930118D01*
X144375253Y-96817866D01*
X144503040Y-96675944D01*
X144598527Y-96510556D01*
X144657542Y-96328928D01*
X144677504Y-96139000D01*
X144657542Y-95949072D01*
X144598527Y-95767444D01*
X144503040Y-95602056D01*
X144375253Y-95460134D01*
X144220752Y-95347882D01*
X144214724Y-95345198D01*
X144214722Y-95345197D01*
X144052319Y-95272891D01*
X144052318Y-95272891D01*
X144046288Y-95270206D01*
X143936619Y-95246895D01*
X143865944Y-95231872D01*
X143865939Y-95231872D01*
X143859487Y-95230500D01*
X143668513Y-95230500D01*
X143662061Y-95231872D01*
X143662056Y-95231872D01*
X143591381Y-95246895D01*
X143481712Y-95270206D01*
X143475682Y-95272891D01*
X143475681Y-95272891D01*
X143313278Y-95345197D01*
X143313276Y-95345198D01*
X143307248Y-95347882D01*
X143152747Y-95460134D01*
X143024960Y-95602056D01*
X142929473Y-95767444D01*
X142870458Y-95949072D01*
X142850496Y-96139000D01*
X132588500Y-96139000D01*
X132588500Y-94878134D01*
X133261500Y-94878134D01*
X133268255Y-94940316D01*
X133319385Y-95076705D01*
X133406739Y-95193261D01*
X133523295Y-95280615D01*
X133659684Y-95331745D01*
X133721866Y-95338500D01*
X135518134Y-95338500D01*
X135580316Y-95331745D01*
X135716705Y-95280615D01*
X135833261Y-95193261D01*
X135920615Y-95076705D01*
X135942799Y-95017529D01*
X135964598Y-94959382D01*
X136007240Y-94902618D01*
X136073802Y-94877918D01*
X136143150Y-94893126D01*
X136177817Y-94921114D01*
X136206250Y-94953938D01*
X136378126Y-95096632D01*
X136571000Y-95209338D01*
X136575825Y-95211180D01*
X136575826Y-95211181D01*
X136648612Y-95238975D01*
X136779692Y-95289030D01*
X136784760Y-95290061D01*
X136784763Y-95290062D01*
X136879862Y-95309410D01*
X136998597Y-95333567D01*
X137003772Y-95333757D01*
X137003774Y-95333757D01*
X137216673Y-95341564D01*
X137216677Y-95341564D01*
X137221837Y-95341753D01*
X137226957Y-95341097D01*
X137226959Y-95341097D01*
X137438288Y-95314025D01*
X137438289Y-95314025D01*
X137443416Y-95313368D01*
X137448366Y-95311883D01*
X137652429Y-95250661D01*
X137652434Y-95250659D01*
X137657384Y-95249174D01*
X137857994Y-95150896D01*
X138039860Y-95021173D01*
X138198096Y-94863489D01*
X138328453Y-94682077D01*
X138329640Y-94682930D01*
X138376960Y-94639362D01*
X138446897Y-94627145D01*
X138512338Y-94654678D01*
X138540166Y-94686511D01*
X138597694Y-94780388D01*
X138603777Y-94788699D01*
X138743213Y-94949667D01*
X138750580Y-94956883D01*
X138914434Y-95092916D01*
X138922881Y-95098831D01*
X139106756Y-95206279D01*
X139116042Y-95210729D01*
X139315001Y-95286703D01*
X139324899Y-95289579D01*
X139428250Y-95310606D01*
X139442299Y-95309410D01*
X139446000Y-95299065D01*
X139446000Y-95298517D01*
X139954000Y-95298517D01*
X139958064Y-95312359D01*
X139971478Y-95314393D01*
X139978184Y-95313534D01*
X139988262Y-95311392D01*
X140192255Y-95250191D01*
X140201842Y-95246433D01*
X140393095Y-95152739D01*
X140401945Y-95147464D01*
X140575328Y-95023792D01*
X140583200Y-95017139D01*
X140734052Y-94866812D01*
X140740730Y-94858965D01*
X140868022Y-94681819D01*
X140869279Y-94682722D01*
X140916373Y-94639362D01*
X140986311Y-94627145D01*
X141051751Y-94654678D01*
X141079579Y-94686511D01*
X141139987Y-94785088D01*
X141286250Y-94953938D01*
X141458126Y-95096632D01*
X141651000Y-95209338D01*
X141655825Y-95211180D01*
X141655826Y-95211181D01*
X141728612Y-95238975D01*
X141859692Y-95289030D01*
X141864760Y-95290061D01*
X141864763Y-95290062D01*
X141959862Y-95309410D01*
X142078597Y-95333567D01*
X142083772Y-95333757D01*
X142083774Y-95333757D01*
X142296673Y-95341564D01*
X142296677Y-95341564D01*
X142301837Y-95341753D01*
X142306957Y-95341097D01*
X142306959Y-95341097D01*
X142518288Y-95314025D01*
X142518289Y-95314025D01*
X142523416Y-95313368D01*
X142528366Y-95311883D01*
X142732429Y-95250661D01*
X142732434Y-95250659D01*
X142737384Y-95249174D01*
X142937994Y-95150896D01*
X143119860Y-95021173D01*
X143263400Y-94878134D01*
X148501500Y-94878134D01*
X148508255Y-94940316D01*
X148559385Y-95076705D01*
X148646739Y-95193261D01*
X148763295Y-95280615D01*
X148899684Y-95331745D01*
X148961866Y-95338500D01*
X150758134Y-95338500D01*
X150820316Y-95331745D01*
X150956705Y-95280615D01*
X151073261Y-95193261D01*
X151160615Y-95076705D01*
X151182799Y-95017529D01*
X151204598Y-94959382D01*
X151247240Y-94902618D01*
X151313802Y-94877918D01*
X151383150Y-94893126D01*
X151417817Y-94921114D01*
X151446250Y-94953938D01*
X151618126Y-95096632D01*
X151811000Y-95209338D01*
X151815825Y-95211180D01*
X151815826Y-95211181D01*
X151888612Y-95238975D01*
X152019692Y-95289030D01*
X152024760Y-95290061D01*
X152024763Y-95290062D01*
X152119862Y-95309410D01*
X152238597Y-95333567D01*
X152243772Y-95333757D01*
X152243774Y-95333757D01*
X152456673Y-95341564D01*
X152456677Y-95341564D01*
X152461837Y-95341753D01*
X152466957Y-95341097D01*
X152466959Y-95341097D01*
X152678288Y-95314025D01*
X152678289Y-95314025D01*
X152683416Y-95313368D01*
X152688366Y-95311883D01*
X152892429Y-95250661D01*
X152892434Y-95250659D01*
X152897384Y-95249174D01*
X153097994Y-95150896D01*
X153279860Y-95021173D01*
X153438096Y-94863489D01*
X153568453Y-94682077D01*
X153569776Y-94683028D01*
X153616645Y-94639857D01*
X153686580Y-94627625D01*
X153752026Y-94655144D01*
X153779875Y-94686994D01*
X153839987Y-94785088D01*
X153986250Y-94953938D01*
X154158126Y-95096632D01*
X154351000Y-95209338D01*
X154355825Y-95211180D01*
X154355826Y-95211181D01*
X154428612Y-95238975D01*
X154559692Y-95289030D01*
X154564760Y-95290061D01*
X154564763Y-95290062D01*
X154659862Y-95309410D01*
X154778597Y-95333567D01*
X154783772Y-95333757D01*
X154783774Y-95333757D01*
X154996673Y-95341564D01*
X154996677Y-95341564D01*
X155001837Y-95341753D01*
X155006957Y-95341097D01*
X155006959Y-95341097D01*
X155218288Y-95314025D01*
X155218289Y-95314025D01*
X155223416Y-95313368D01*
X155228366Y-95311883D01*
X155432429Y-95250661D01*
X155432434Y-95250659D01*
X155437384Y-95249174D01*
X155637994Y-95150896D01*
X155819860Y-95021173D01*
X155978096Y-94863489D01*
X156108453Y-94682077D01*
X156109640Y-94682930D01*
X156156960Y-94639362D01*
X156226897Y-94627145D01*
X156292338Y-94654678D01*
X156320166Y-94686511D01*
X156377694Y-94780388D01*
X156383777Y-94788699D01*
X156523213Y-94949667D01*
X156530580Y-94956883D01*
X156694434Y-95092916D01*
X156702881Y-95098831D01*
X156886756Y-95206279D01*
X156896042Y-95210729D01*
X157095001Y-95286703D01*
X157104899Y-95289579D01*
X157208250Y-95310606D01*
X157222299Y-95309410D01*
X157226000Y-95299065D01*
X157226000Y-95298517D01*
X157734000Y-95298517D01*
X157738064Y-95312359D01*
X157751478Y-95314393D01*
X157758184Y-95313534D01*
X157768262Y-95311392D01*
X157972255Y-95250191D01*
X157981842Y-95246433D01*
X158173095Y-95152739D01*
X158181945Y-95147464D01*
X158355328Y-95023792D01*
X158363200Y-95017139D01*
X158514052Y-94866812D01*
X158520730Y-94858965D01*
X158645003Y-94686020D01*
X158650313Y-94677183D01*
X158744670Y-94486267D01*
X158748469Y-94476672D01*
X158810377Y-94272910D01*
X158812555Y-94262837D01*
X158813986Y-94251962D01*
X158811775Y-94237778D01*
X158798617Y-94234000D01*
X157752115Y-94234000D01*
X157736876Y-94238475D01*
X157735671Y-94239865D01*
X157734000Y-94247548D01*
X157734000Y-95298517D01*
X157226000Y-95298517D01*
X157226000Y-93707885D01*
X157734000Y-93707885D01*
X157738475Y-93723124D01*
X157739865Y-93724329D01*
X157747548Y-93726000D01*
X158798344Y-93726000D01*
X158811875Y-93722027D01*
X158813180Y-93712947D01*
X158771214Y-93545875D01*
X158767894Y-93536124D01*
X158682972Y-93340814D01*
X158678105Y-93331739D01*
X158562426Y-93152926D01*
X158556136Y-93144757D01*
X158412806Y-92987240D01*
X158405273Y-92980215D01*
X158238139Y-92848222D01*
X158229552Y-92842517D01*
X158043117Y-92739599D01*
X158033705Y-92735369D01*
X157832959Y-92664280D01*
X157822988Y-92661646D01*
X157751837Y-92648972D01*
X157738540Y-92650432D01*
X157734000Y-92664989D01*
X157734000Y-93707885D01*
X157226000Y-93707885D01*
X157226000Y-92663102D01*
X157222082Y-92649758D01*
X157207806Y-92647771D01*
X157169324Y-92653660D01*
X157159288Y-92656051D01*
X156956868Y-92722212D01*
X156947359Y-92726209D01*
X156758463Y-92824542D01*
X156749738Y-92830036D01*
X156579433Y-92957905D01*
X156571726Y-92964748D01*
X156424590Y-93118717D01*
X156418109Y-93126722D01*
X156313498Y-93280074D01*
X156258587Y-93325076D01*
X156188062Y-93333247D01*
X156124315Y-93301993D01*
X156103618Y-93277509D01*
X156022822Y-93152617D01*
X156022820Y-93152614D01*
X156020014Y-93148277D01*
X155869670Y-92983051D01*
X155865619Y-92979852D01*
X155865615Y-92979848D01*
X155698414Y-92847800D01*
X155698410Y-92847798D01*
X155694359Y-92844598D01*
X155658028Y-92824542D01*
X155642136Y-92815769D01*
X155498789Y-92736638D01*
X155493920Y-92734914D01*
X155493916Y-92734912D01*
X155293087Y-92663795D01*
X155293083Y-92663794D01*
X155288212Y-92662069D01*
X155283119Y-92661162D01*
X155283116Y-92661161D01*
X155073373Y-92623800D01*
X155073367Y-92623799D01*
X155068284Y-92622894D01*
X154994452Y-92621992D01*
X154850081Y-92620228D01*
X154850079Y-92620228D01*
X154844911Y-92620165D01*
X154624091Y-92653955D01*
X154411756Y-92723357D01*
X154213607Y-92826507D01*
X154209474Y-92829610D01*
X154209471Y-92829612D01*
X154039100Y-92957530D01*
X154034965Y-92960635D01*
X154031393Y-92964373D01*
X153923729Y-93077037D01*
X153880629Y-93122138D01*
X153773201Y-93279621D01*
X153718293Y-93324621D01*
X153647768Y-93332792D01*
X153584021Y-93301538D01*
X153563324Y-93277054D01*
X153482822Y-93152617D01*
X153482820Y-93152614D01*
X153480014Y-93148277D01*
X153329670Y-92983051D01*
X153325619Y-92979852D01*
X153325615Y-92979848D01*
X153158414Y-92847800D01*
X153158410Y-92847798D01*
X153154359Y-92844598D01*
X153118028Y-92824542D01*
X153102136Y-92815769D01*
X152958789Y-92736638D01*
X152953920Y-92734914D01*
X152953916Y-92734912D01*
X152753087Y-92663795D01*
X152753083Y-92663794D01*
X152748212Y-92662069D01*
X152743119Y-92661162D01*
X152743116Y-92661161D01*
X152533373Y-92623800D01*
X152533367Y-92623799D01*
X152528284Y-92622894D01*
X152454452Y-92621992D01*
X152310081Y-92620228D01*
X152310079Y-92620228D01*
X152304911Y-92620165D01*
X152084091Y-92653955D01*
X151871756Y-92723357D01*
X151673607Y-92826507D01*
X151669474Y-92829610D01*
X151669471Y-92829612D01*
X151499100Y-92957530D01*
X151494965Y-92960635D01*
X151438537Y-93019684D01*
X151414283Y-93045064D01*
X151352759Y-93080494D01*
X151281846Y-93077037D01*
X151224060Y-93035791D01*
X151205207Y-93002243D01*
X151163767Y-92891703D01*
X151160615Y-92883295D01*
X151073261Y-92766739D01*
X150956705Y-92679385D01*
X150820316Y-92628255D01*
X150758134Y-92621500D01*
X148961866Y-92621500D01*
X148899684Y-92628255D01*
X148763295Y-92679385D01*
X148646739Y-92766739D01*
X148559385Y-92883295D01*
X148508255Y-93019684D01*
X148501500Y-93081866D01*
X148501500Y-94878134D01*
X143263400Y-94878134D01*
X143278096Y-94863489D01*
X143408453Y-94682077D01*
X143421995Y-94654678D01*
X143505136Y-94486453D01*
X143505137Y-94486451D01*
X143507430Y-94481811D01*
X143572370Y-94268069D01*
X143601529Y-94046590D01*
X143603156Y-93980000D01*
X143584852Y-93757361D01*
X143530431Y-93540702D01*
X143441354Y-93335840D01*
X143320014Y-93148277D01*
X143169670Y-92983051D01*
X143165619Y-92979852D01*
X143165615Y-92979848D01*
X142998414Y-92847800D01*
X142998410Y-92847798D01*
X142994359Y-92844598D01*
X142958028Y-92824542D01*
X142942136Y-92815769D01*
X142798789Y-92736638D01*
X142793920Y-92734914D01*
X142793916Y-92734912D01*
X142593087Y-92663795D01*
X142593083Y-92663794D01*
X142588212Y-92662069D01*
X142583119Y-92661162D01*
X142583116Y-92661161D01*
X142373373Y-92623800D01*
X142373367Y-92623799D01*
X142368284Y-92622894D01*
X142294452Y-92621992D01*
X142150081Y-92620228D01*
X142150079Y-92620228D01*
X142144911Y-92620165D01*
X141924091Y-92653955D01*
X141711756Y-92723357D01*
X141513607Y-92826507D01*
X141509474Y-92829610D01*
X141509471Y-92829612D01*
X141339100Y-92957530D01*
X141334965Y-92960635D01*
X141331393Y-92964373D01*
X141223729Y-93077037D01*
X141180629Y-93122138D01*
X141073204Y-93279618D01*
X141072898Y-93280066D01*
X141017987Y-93325069D01*
X140947462Y-93333240D01*
X140883715Y-93301986D01*
X140863018Y-93277502D01*
X140782426Y-93152926D01*
X140776136Y-93144757D01*
X140632806Y-92987240D01*
X140625273Y-92980215D01*
X140458139Y-92848222D01*
X140449552Y-92842517D01*
X140263117Y-92739599D01*
X140253705Y-92735369D01*
X140052959Y-92664280D01*
X140042988Y-92661646D01*
X139971837Y-92648972D01*
X139958540Y-92650432D01*
X139954000Y-92664989D01*
X139954000Y-95298517D01*
X139446000Y-95298517D01*
X139446000Y-92663102D01*
X139442082Y-92649758D01*
X139427806Y-92647771D01*
X139389324Y-92653660D01*
X139379288Y-92656051D01*
X139176868Y-92722212D01*
X139167359Y-92726209D01*
X138978463Y-92824542D01*
X138969738Y-92830036D01*
X138799433Y-92957905D01*
X138791726Y-92964748D01*
X138644590Y-93118717D01*
X138638109Y-93126722D01*
X138533498Y-93280074D01*
X138478587Y-93325076D01*
X138408062Y-93333247D01*
X138344315Y-93301993D01*
X138323618Y-93277509D01*
X138242822Y-93152617D01*
X138242820Y-93152614D01*
X138240014Y-93148277D01*
X138089670Y-92983051D01*
X138085619Y-92979852D01*
X138085615Y-92979848D01*
X137918414Y-92847800D01*
X137918410Y-92847798D01*
X137914359Y-92844598D01*
X137878028Y-92824542D01*
X137862136Y-92815769D01*
X137718789Y-92736638D01*
X137713920Y-92734914D01*
X137713916Y-92734912D01*
X137513087Y-92663795D01*
X137513083Y-92663794D01*
X137508212Y-92662069D01*
X137503119Y-92661162D01*
X137503116Y-92661161D01*
X137293373Y-92623800D01*
X137293367Y-92623799D01*
X137288284Y-92622894D01*
X137214452Y-92621992D01*
X137070081Y-92620228D01*
X137070079Y-92620228D01*
X137064911Y-92620165D01*
X136844091Y-92653955D01*
X136631756Y-92723357D01*
X136433607Y-92826507D01*
X136429474Y-92829610D01*
X136429471Y-92829612D01*
X136259100Y-92957530D01*
X136254965Y-92960635D01*
X136198537Y-93019684D01*
X136174283Y-93045064D01*
X136112759Y-93080494D01*
X136041846Y-93077037D01*
X135984060Y-93035791D01*
X135965207Y-93002243D01*
X135923767Y-92891703D01*
X135920615Y-92883295D01*
X135833261Y-92766739D01*
X135716705Y-92679385D01*
X135580316Y-92628255D01*
X135518134Y-92621500D01*
X133721866Y-92621500D01*
X133659684Y-92628255D01*
X133523295Y-92679385D01*
X133406739Y-92766739D01*
X133319385Y-92883295D01*
X133268255Y-93019684D01*
X133261500Y-93081866D01*
X133261500Y-94878134D01*
X132588500Y-94878134D01*
X132588500Y-92074500D01*
X132608502Y-92006379D01*
X132662158Y-91959886D01*
X132714500Y-91948500D01*
X159385500Y-91948500D01*
X159453621Y-91968502D01*
G37*
G04 #@! TD.AperFunction*
M02*
