G04 #@! TF.GenerationSoftware,KiCad,Pcbnew,6.0.5+dfsg-1~bpo11+1*
G04 #@! TF.CreationDate,2022-12-25T14:08:46+00:00*
G04 #@! TF.ProjectId,stm32l0_mod_source,73746d33-326c-4305-9f6d-6f645f736f75,0.1*
G04 #@! TF.SameCoordinates,Original*
G04 #@! TF.FileFunction,Copper,L1,Top*
G04 #@! TF.FilePolarity,Positive*
%FSLAX46Y46*%
G04 Gerber Fmt 4.6, Leading zero omitted, Abs format (unit mm)*
G04 Created by KiCad (PCBNEW 6.0.5+dfsg-1~bpo11+1) date 2022-12-25 14:08:46*
%MOMM*%
%LPD*%
G01*
G04 APERTURE LIST*
G04 #@! TA.AperFunction,ComponentPad*
%ADD10R,1.700000X1.700000*%
G04 #@! TD*
G04 #@! TA.AperFunction,ComponentPad*
%ADD11O,1.700000X1.700000*%
G04 #@! TD*
G04 #@! TA.AperFunction,ViaPad*
%ADD12C,0.800000*%
G04 #@! TD*
G04 #@! TA.AperFunction,Conductor*
%ADD13C,0.400000*%
G04 #@! TD*
G04 #@! TA.AperFunction,Conductor*
%ADD14C,0.700000*%
G04 #@! TD*
G04 APERTURE END LIST*
G04 #@! TA.AperFunction,SMDPad,CuDef*
G36*
G01*
X145841000Y-96516000D02*
X145841000Y-96016000D01*
G75*
G02*
X146066000Y-95791000I225000J0D01*
G01*
X146516000Y-95791000D01*
G75*
G02*
X146741000Y-96016000I0J-225000D01*
G01*
X146741000Y-96516000D01*
G75*
G02*
X146516000Y-96741000I-225000J0D01*
G01*
X146066000Y-96741000D01*
G75*
G02*
X145841000Y-96516000I0J225000D01*
G01*
G37*
G04 #@! TD.AperFunction*
G04 #@! TA.AperFunction,SMDPad,CuDef*
G36*
G01*
X147391000Y-96516000D02*
X147391000Y-96016000D01*
G75*
G02*
X147616000Y-95791000I225000J0D01*
G01*
X148066000Y-95791000D01*
G75*
G02*
X148291000Y-96016000I0J-225000D01*
G01*
X148291000Y-96516000D01*
G75*
G02*
X148066000Y-96741000I-225000J0D01*
G01*
X147616000Y-96741000D01*
G75*
G02*
X147391000Y-96516000I0J225000D01*
G01*
G37*
G04 #@! TD.AperFunction*
G04 #@! TA.AperFunction,SMDPad,CuDef*
G36*
G01*
X138463000Y-102248000D02*
X139413000Y-102248000D01*
G75*
G02*
X139663000Y-102498000I0J-250000D01*
G01*
X139663000Y-102998000D01*
G75*
G02*
X139413000Y-103248000I-250000J0D01*
G01*
X138463000Y-103248000D01*
G75*
G02*
X138213000Y-102998000I0J250000D01*
G01*
X138213000Y-102498000D01*
G75*
G02*
X138463000Y-102248000I250000J0D01*
G01*
G37*
G04 #@! TD.AperFunction*
G04 #@! TA.AperFunction,SMDPad,CuDef*
G36*
G01*
X138463000Y-104148000D02*
X139413000Y-104148000D01*
G75*
G02*
X139663000Y-104398000I0J-250000D01*
G01*
X139663000Y-104898000D01*
G75*
G02*
X139413000Y-105148000I-250000J0D01*
G01*
X138463000Y-105148000D01*
G75*
G02*
X138213000Y-104898000I0J250000D01*
G01*
X138213000Y-104398000D01*
G75*
G02*
X138463000Y-104148000I250000J0D01*
G01*
G37*
G04 #@! TD.AperFunction*
G04 #@! TA.AperFunction,SMDPad,CuDef*
G36*
G01*
X139188000Y-99510000D02*
X138688000Y-99510000D01*
G75*
G02*
X138463000Y-99285000I0J225000D01*
G01*
X138463000Y-98835000D01*
G75*
G02*
X138688000Y-98610000I225000J0D01*
G01*
X139188000Y-98610000D01*
G75*
G02*
X139413000Y-98835000I0J-225000D01*
G01*
X139413000Y-99285000D01*
G75*
G02*
X139188000Y-99510000I-225000J0D01*
G01*
G37*
G04 #@! TD.AperFunction*
G04 #@! TA.AperFunction,SMDPad,CuDef*
G36*
G01*
X139188000Y-97960000D02*
X138688000Y-97960000D01*
G75*
G02*
X138463000Y-97735000I0J225000D01*
G01*
X138463000Y-97285000D01*
G75*
G02*
X138688000Y-97060000I225000J0D01*
G01*
X139188000Y-97060000D01*
G75*
G02*
X139413000Y-97285000I0J-225000D01*
G01*
X139413000Y-97735000D01*
G75*
G02*
X139188000Y-97960000I-225000J0D01*
G01*
G37*
G04 #@! TD.AperFunction*
G04 #@! TA.AperFunction,SMDPad,CuDef*
G36*
G01*
X156751000Y-101928000D02*
X157701000Y-101928000D01*
G75*
G02*
X157951000Y-102178000I0J-250000D01*
G01*
X157951000Y-102678000D01*
G75*
G02*
X157701000Y-102928000I-250000J0D01*
G01*
X156751000Y-102928000D01*
G75*
G02*
X156501000Y-102678000I0J250000D01*
G01*
X156501000Y-102178000D01*
G75*
G02*
X156751000Y-101928000I250000J0D01*
G01*
G37*
G04 #@! TD.AperFunction*
G04 #@! TA.AperFunction,SMDPad,CuDef*
G36*
G01*
X156751000Y-103828000D02*
X157701000Y-103828000D01*
G75*
G02*
X157951000Y-104078000I0J-250000D01*
G01*
X157951000Y-104578000D01*
G75*
G02*
X157701000Y-104828000I-250000J0D01*
G01*
X156751000Y-104828000D01*
G75*
G02*
X156501000Y-104578000I0J250000D01*
G01*
X156501000Y-104078000D01*
G75*
G02*
X156751000Y-103828000I250000J0D01*
G01*
G37*
G04 #@! TD.AperFunction*
G04 #@! TA.AperFunction,SMDPad,CuDef*
G36*
G01*
X157730000Y-100793000D02*
X157230000Y-100793000D01*
G75*
G02*
X157005000Y-100568000I0J225000D01*
G01*
X157005000Y-100118000D01*
G75*
G02*
X157230000Y-99893000I225000J0D01*
G01*
X157730000Y-99893000D01*
G75*
G02*
X157955000Y-100118000I0J-225000D01*
G01*
X157955000Y-100568000D01*
G75*
G02*
X157730000Y-100793000I-225000J0D01*
G01*
G37*
G04 #@! TD.AperFunction*
G04 #@! TA.AperFunction,SMDPad,CuDef*
G36*
G01*
X157730000Y-99243000D02*
X157230000Y-99243000D01*
G75*
G02*
X157005000Y-99018000I0J225000D01*
G01*
X157005000Y-98568000D01*
G75*
G02*
X157230000Y-98343000I225000J0D01*
G01*
X157730000Y-98343000D01*
G75*
G02*
X157955000Y-98568000I0J-225000D01*
G01*
X157955000Y-99018000D01*
G75*
G02*
X157730000Y-99243000I-225000J0D01*
G01*
G37*
G04 #@! TD.AperFunction*
G04 #@! TA.AperFunction,SMDPad,CuDef*
G36*
G01*
X154440000Y-96995000D02*
X154440000Y-96045000D01*
G75*
G02*
X154690000Y-95795000I250000J0D01*
G01*
X155190000Y-95795000D01*
G75*
G02*
X155440000Y-96045000I0J-250000D01*
G01*
X155440000Y-96995000D01*
G75*
G02*
X155190000Y-97245000I-250000J0D01*
G01*
X154690000Y-97245000D01*
G75*
G02*
X154440000Y-96995000I0J250000D01*
G01*
G37*
G04 #@! TD.AperFunction*
G04 #@! TA.AperFunction,SMDPad,CuDef*
G36*
G01*
X156340000Y-96995000D02*
X156340000Y-96045000D01*
G75*
G02*
X156590000Y-95795000I250000J0D01*
G01*
X157090000Y-95795000D01*
G75*
G02*
X157340000Y-96045000I0J-250000D01*
G01*
X157340000Y-96995000D01*
G75*
G02*
X157090000Y-97245000I-250000J0D01*
G01*
X156590000Y-97245000D01*
G75*
G02*
X156340000Y-96995000I0J250000D01*
G01*
G37*
G04 #@! TD.AperFunction*
G04 #@! TA.AperFunction,SMDPad,CuDef*
G36*
G01*
X147942000Y-93505000D02*
X147942000Y-94455000D01*
G75*
G02*
X147692000Y-94705000I-250000J0D01*
G01*
X147192000Y-94705000D01*
G75*
G02*
X146942000Y-94455000I0J250000D01*
G01*
X146942000Y-93505000D01*
G75*
G02*
X147192000Y-93255000I250000J0D01*
G01*
X147692000Y-93255000D01*
G75*
G02*
X147942000Y-93505000I0J-250000D01*
G01*
G37*
G04 #@! TD.AperFunction*
G04 #@! TA.AperFunction,SMDPad,CuDef*
G36*
G01*
X146042000Y-93505000D02*
X146042000Y-94455000D01*
G75*
G02*
X145792000Y-94705000I-250000J0D01*
G01*
X145292000Y-94705000D01*
G75*
G02*
X145042000Y-94455000I0J250000D01*
G01*
X145042000Y-93505000D01*
G75*
G02*
X145292000Y-93255000I250000J0D01*
G01*
X145792000Y-93255000D01*
G75*
G02*
X146042000Y-93505000I0J-250000D01*
G01*
G37*
G04 #@! TD.AperFunction*
G04 #@! TA.AperFunction,SMDPad,CuDef*
G36*
G01*
X144241000Y-104946000D02*
X144041000Y-104946000D01*
G75*
G02*
X143941000Y-104846000I0J100000D01*
G01*
X143941000Y-103571000D01*
G75*
G02*
X144041000Y-103471000I100000J0D01*
G01*
X144241000Y-103471000D01*
G75*
G02*
X144341000Y-103571000I0J-100000D01*
G01*
X144341000Y-104846000D01*
G75*
G02*
X144241000Y-104946000I-100000J0D01*
G01*
G37*
G04 #@! TD.AperFunction*
G04 #@! TA.AperFunction,SMDPad,CuDef*
G36*
G01*
X144891000Y-104946000D02*
X144691000Y-104946000D01*
G75*
G02*
X144591000Y-104846000I0J100000D01*
G01*
X144591000Y-103571000D01*
G75*
G02*
X144691000Y-103471000I100000J0D01*
G01*
X144891000Y-103471000D01*
G75*
G02*
X144991000Y-103571000I0J-100000D01*
G01*
X144991000Y-104846000D01*
G75*
G02*
X144891000Y-104946000I-100000J0D01*
G01*
G37*
G04 #@! TD.AperFunction*
G04 #@! TA.AperFunction,SMDPad,CuDef*
G36*
G01*
X145541000Y-104946000D02*
X145341000Y-104946000D01*
G75*
G02*
X145241000Y-104846000I0J100000D01*
G01*
X145241000Y-103571000D01*
G75*
G02*
X145341000Y-103471000I100000J0D01*
G01*
X145541000Y-103471000D01*
G75*
G02*
X145641000Y-103571000I0J-100000D01*
G01*
X145641000Y-104846000D01*
G75*
G02*
X145541000Y-104946000I-100000J0D01*
G01*
G37*
G04 #@! TD.AperFunction*
G04 #@! TA.AperFunction,SMDPad,CuDef*
G36*
G01*
X146191000Y-104946000D02*
X145991000Y-104946000D01*
G75*
G02*
X145891000Y-104846000I0J100000D01*
G01*
X145891000Y-103571000D01*
G75*
G02*
X145991000Y-103471000I100000J0D01*
G01*
X146191000Y-103471000D01*
G75*
G02*
X146291000Y-103571000I0J-100000D01*
G01*
X146291000Y-104846000D01*
G75*
G02*
X146191000Y-104946000I-100000J0D01*
G01*
G37*
G04 #@! TD.AperFunction*
G04 #@! TA.AperFunction,SMDPad,CuDef*
G36*
G01*
X146841000Y-104946000D02*
X146641000Y-104946000D01*
G75*
G02*
X146541000Y-104846000I0J100000D01*
G01*
X146541000Y-103571000D01*
G75*
G02*
X146641000Y-103471000I100000J0D01*
G01*
X146841000Y-103471000D01*
G75*
G02*
X146941000Y-103571000I0J-100000D01*
G01*
X146941000Y-104846000D01*
G75*
G02*
X146841000Y-104946000I-100000J0D01*
G01*
G37*
G04 #@! TD.AperFunction*
G04 #@! TA.AperFunction,SMDPad,CuDef*
G36*
G01*
X147491000Y-104946000D02*
X147291000Y-104946000D01*
G75*
G02*
X147191000Y-104846000I0J100000D01*
G01*
X147191000Y-103571000D01*
G75*
G02*
X147291000Y-103471000I100000J0D01*
G01*
X147491000Y-103471000D01*
G75*
G02*
X147591000Y-103571000I0J-100000D01*
G01*
X147591000Y-104846000D01*
G75*
G02*
X147491000Y-104946000I-100000J0D01*
G01*
G37*
G04 #@! TD.AperFunction*
G04 #@! TA.AperFunction,SMDPad,CuDef*
G36*
G01*
X148141000Y-104946000D02*
X147941000Y-104946000D01*
G75*
G02*
X147841000Y-104846000I0J100000D01*
G01*
X147841000Y-103571000D01*
G75*
G02*
X147941000Y-103471000I100000J0D01*
G01*
X148141000Y-103471000D01*
G75*
G02*
X148241000Y-103571000I0J-100000D01*
G01*
X148241000Y-104846000D01*
G75*
G02*
X148141000Y-104946000I-100000J0D01*
G01*
G37*
G04 #@! TD.AperFunction*
G04 #@! TA.AperFunction,SMDPad,CuDef*
G36*
G01*
X148791000Y-104946000D02*
X148591000Y-104946000D01*
G75*
G02*
X148491000Y-104846000I0J100000D01*
G01*
X148491000Y-103571000D01*
G75*
G02*
X148591000Y-103471000I100000J0D01*
G01*
X148791000Y-103471000D01*
G75*
G02*
X148891000Y-103571000I0J-100000D01*
G01*
X148891000Y-104846000D01*
G75*
G02*
X148791000Y-104946000I-100000J0D01*
G01*
G37*
G04 #@! TD.AperFunction*
G04 #@! TA.AperFunction,SMDPad,CuDef*
G36*
G01*
X149441000Y-104946000D02*
X149241000Y-104946000D01*
G75*
G02*
X149141000Y-104846000I0J100000D01*
G01*
X149141000Y-103571000D01*
G75*
G02*
X149241000Y-103471000I100000J0D01*
G01*
X149441000Y-103471000D01*
G75*
G02*
X149541000Y-103571000I0J-100000D01*
G01*
X149541000Y-104846000D01*
G75*
G02*
X149441000Y-104946000I-100000J0D01*
G01*
G37*
G04 #@! TD.AperFunction*
G04 #@! TA.AperFunction,SMDPad,CuDef*
G36*
G01*
X150091000Y-104946000D02*
X149891000Y-104946000D01*
G75*
G02*
X149791000Y-104846000I0J100000D01*
G01*
X149791000Y-103571000D01*
G75*
G02*
X149891000Y-103471000I100000J0D01*
G01*
X150091000Y-103471000D01*
G75*
G02*
X150191000Y-103571000I0J-100000D01*
G01*
X150191000Y-104846000D01*
G75*
G02*
X150091000Y-104946000I-100000J0D01*
G01*
G37*
G04 #@! TD.AperFunction*
G04 #@! TA.AperFunction,SMDPad,CuDef*
G36*
G01*
X150091000Y-99221000D02*
X149891000Y-99221000D01*
G75*
G02*
X149791000Y-99121000I0J100000D01*
G01*
X149791000Y-97846000D01*
G75*
G02*
X149891000Y-97746000I100000J0D01*
G01*
X150091000Y-97746000D01*
G75*
G02*
X150191000Y-97846000I0J-100000D01*
G01*
X150191000Y-99121000D01*
G75*
G02*
X150091000Y-99221000I-100000J0D01*
G01*
G37*
G04 #@! TD.AperFunction*
G04 #@! TA.AperFunction,SMDPad,CuDef*
G36*
G01*
X149441000Y-99221000D02*
X149241000Y-99221000D01*
G75*
G02*
X149141000Y-99121000I0J100000D01*
G01*
X149141000Y-97846000D01*
G75*
G02*
X149241000Y-97746000I100000J0D01*
G01*
X149441000Y-97746000D01*
G75*
G02*
X149541000Y-97846000I0J-100000D01*
G01*
X149541000Y-99121000D01*
G75*
G02*
X149441000Y-99221000I-100000J0D01*
G01*
G37*
G04 #@! TD.AperFunction*
G04 #@! TA.AperFunction,SMDPad,CuDef*
G36*
G01*
X148791000Y-99221000D02*
X148591000Y-99221000D01*
G75*
G02*
X148491000Y-99121000I0J100000D01*
G01*
X148491000Y-97846000D01*
G75*
G02*
X148591000Y-97746000I100000J0D01*
G01*
X148791000Y-97746000D01*
G75*
G02*
X148891000Y-97846000I0J-100000D01*
G01*
X148891000Y-99121000D01*
G75*
G02*
X148791000Y-99221000I-100000J0D01*
G01*
G37*
G04 #@! TD.AperFunction*
G04 #@! TA.AperFunction,SMDPad,CuDef*
G36*
G01*
X148141000Y-99221000D02*
X147941000Y-99221000D01*
G75*
G02*
X147841000Y-99121000I0J100000D01*
G01*
X147841000Y-97846000D01*
G75*
G02*
X147941000Y-97746000I100000J0D01*
G01*
X148141000Y-97746000D01*
G75*
G02*
X148241000Y-97846000I0J-100000D01*
G01*
X148241000Y-99121000D01*
G75*
G02*
X148141000Y-99221000I-100000J0D01*
G01*
G37*
G04 #@! TD.AperFunction*
G04 #@! TA.AperFunction,SMDPad,CuDef*
G36*
G01*
X147491000Y-99221000D02*
X147291000Y-99221000D01*
G75*
G02*
X147191000Y-99121000I0J100000D01*
G01*
X147191000Y-97846000D01*
G75*
G02*
X147291000Y-97746000I100000J0D01*
G01*
X147491000Y-97746000D01*
G75*
G02*
X147591000Y-97846000I0J-100000D01*
G01*
X147591000Y-99121000D01*
G75*
G02*
X147491000Y-99221000I-100000J0D01*
G01*
G37*
G04 #@! TD.AperFunction*
G04 #@! TA.AperFunction,SMDPad,CuDef*
G36*
G01*
X146841000Y-99221000D02*
X146641000Y-99221000D01*
G75*
G02*
X146541000Y-99121000I0J100000D01*
G01*
X146541000Y-97846000D01*
G75*
G02*
X146641000Y-97746000I100000J0D01*
G01*
X146841000Y-97746000D01*
G75*
G02*
X146941000Y-97846000I0J-100000D01*
G01*
X146941000Y-99121000D01*
G75*
G02*
X146841000Y-99221000I-100000J0D01*
G01*
G37*
G04 #@! TD.AperFunction*
G04 #@! TA.AperFunction,SMDPad,CuDef*
G36*
G01*
X146191000Y-99221000D02*
X145991000Y-99221000D01*
G75*
G02*
X145891000Y-99121000I0J100000D01*
G01*
X145891000Y-97846000D01*
G75*
G02*
X145991000Y-97746000I100000J0D01*
G01*
X146191000Y-97746000D01*
G75*
G02*
X146291000Y-97846000I0J-100000D01*
G01*
X146291000Y-99121000D01*
G75*
G02*
X146191000Y-99221000I-100000J0D01*
G01*
G37*
G04 #@! TD.AperFunction*
G04 #@! TA.AperFunction,SMDPad,CuDef*
G36*
G01*
X145541000Y-99221000D02*
X145341000Y-99221000D01*
G75*
G02*
X145241000Y-99121000I0J100000D01*
G01*
X145241000Y-97846000D01*
G75*
G02*
X145341000Y-97746000I100000J0D01*
G01*
X145541000Y-97746000D01*
G75*
G02*
X145641000Y-97846000I0J-100000D01*
G01*
X145641000Y-99121000D01*
G75*
G02*
X145541000Y-99221000I-100000J0D01*
G01*
G37*
G04 #@! TD.AperFunction*
G04 #@! TA.AperFunction,SMDPad,CuDef*
G36*
G01*
X144891000Y-99221000D02*
X144691000Y-99221000D01*
G75*
G02*
X144591000Y-99121000I0J100000D01*
G01*
X144591000Y-97846000D01*
G75*
G02*
X144691000Y-97746000I100000J0D01*
G01*
X144891000Y-97746000D01*
G75*
G02*
X144991000Y-97846000I0J-100000D01*
G01*
X144991000Y-99121000D01*
G75*
G02*
X144891000Y-99221000I-100000J0D01*
G01*
G37*
G04 #@! TD.AperFunction*
G04 #@! TA.AperFunction,SMDPad,CuDef*
G36*
G01*
X144241000Y-99221000D02*
X144041000Y-99221000D01*
G75*
G02*
X143941000Y-99121000I0J100000D01*
G01*
X143941000Y-97846000D01*
G75*
G02*
X144041000Y-97746000I100000J0D01*
G01*
X144241000Y-97746000D01*
G75*
G02*
X144341000Y-97846000I0J-100000D01*
G01*
X144341000Y-99121000D01*
G75*
G02*
X144241000Y-99221000I-100000J0D01*
G01*
G37*
G04 #@! TD.AperFunction*
G04 #@! TA.AperFunction,SMDPad,CuDef*
G36*
G01*
X153049000Y-104525000D02*
X152849000Y-104525000D01*
G75*
G02*
X152749000Y-104425000I0J100000D01*
G01*
X152749000Y-103000000D01*
G75*
G02*
X152849000Y-102900000I100000J0D01*
G01*
X153049000Y-102900000D01*
G75*
G02*
X153149000Y-103000000I0J-100000D01*
G01*
X153149000Y-104425000D01*
G75*
G02*
X153049000Y-104525000I-100000J0D01*
G01*
G37*
G04 #@! TD.AperFunction*
G04 #@! TA.AperFunction,SMDPad,CuDef*
G36*
G01*
X153699000Y-104525000D02*
X153499000Y-104525000D01*
G75*
G02*
X153399000Y-104425000I0J100000D01*
G01*
X153399000Y-103000000D01*
G75*
G02*
X153499000Y-102900000I100000J0D01*
G01*
X153699000Y-102900000D01*
G75*
G02*
X153799000Y-103000000I0J-100000D01*
G01*
X153799000Y-104425000D01*
G75*
G02*
X153699000Y-104525000I-100000J0D01*
G01*
G37*
G04 #@! TD.AperFunction*
G04 #@! TA.AperFunction,SMDPad,CuDef*
G36*
G01*
X154349000Y-104525000D02*
X154149000Y-104525000D01*
G75*
G02*
X154049000Y-104425000I0J100000D01*
G01*
X154049000Y-103000000D01*
G75*
G02*
X154149000Y-102900000I100000J0D01*
G01*
X154349000Y-102900000D01*
G75*
G02*
X154449000Y-103000000I0J-100000D01*
G01*
X154449000Y-104425000D01*
G75*
G02*
X154349000Y-104525000I-100000J0D01*
G01*
G37*
G04 #@! TD.AperFunction*
G04 #@! TA.AperFunction,SMDPad,CuDef*
G36*
G01*
X154999000Y-104525000D02*
X154799000Y-104525000D01*
G75*
G02*
X154699000Y-104425000I0J100000D01*
G01*
X154699000Y-103000000D01*
G75*
G02*
X154799000Y-102900000I100000J0D01*
G01*
X154999000Y-102900000D01*
G75*
G02*
X155099000Y-103000000I0J-100000D01*
G01*
X155099000Y-104425000D01*
G75*
G02*
X154999000Y-104525000I-100000J0D01*
G01*
G37*
G04 #@! TD.AperFunction*
G04 #@! TA.AperFunction,SMDPad,CuDef*
G36*
G01*
X154999000Y-100300000D02*
X154799000Y-100300000D01*
G75*
G02*
X154699000Y-100200000I0J100000D01*
G01*
X154699000Y-98775000D01*
G75*
G02*
X154799000Y-98675000I100000J0D01*
G01*
X154999000Y-98675000D01*
G75*
G02*
X155099000Y-98775000I0J-100000D01*
G01*
X155099000Y-100200000D01*
G75*
G02*
X154999000Y-100300000I-100000J0D01*
G01*
G37*
G04 #@! TD.AperFunction*
G04 #@! TA.AperFunction,SMDPad,CuDef*
G36*
G01*
X154349000Y-100300000D02*
X154149000Y-100300000D01*
G75*
G02*
X154049000Y-100200000I0J100000D01*
G01*
X154049000Y-98775000D01*
G75*
G02*
X154149000Y-98675000I100000J0D01*
G01*
X154349000Y-98675000D01*
G75*
G02*
X154449000Y-98775000I0J-100000D01*
G01*
X154449000Y-100200000D01*
G75*
G02*
X154349000Y-100300000I-100000J0D01*
G01*
G37*
G04 #@! TD.AperFunction*
G04 #@! TA.AperFunction,SMDPad,CuDef*
G36*
G01*
X153699000Y-100300000D02*
X153499000Y-100300000D01*
G75*
G02*
X153399000Y-100200000I0J100000D01*
G01*
X153399000Y-98775000D01*
G75*
G02*
X153499000Y-98675000I100000J0D01*
G01*
X153699000Y-98675000D01*
G75*
G02*
X153799000Y-98775000I0J-100000D01*
G01*
X153799000Y-100200000D01*
G75*
G02*
X153699000Y-100300000I-100000J0D01*
G01*
G37*
G04 #@! TD.AperFunction*
G04 #@! TA.AperFunction,SMDPad,CuDef*
G36*
G01*
X153049000Y-100300000D02*
X152849000Y-100300000D01*
G75*
G02*
X152749000Y-100200000I0J100000D01*
G01*
X152749000Y-98775000D01*
G75*
G02*
X152849000Y-98675000I100000J0D01*
G01*
X153049000Y-98675000D01*
G75*
G02*
X153149000Y-98775000I0J-100000D01*
G01*
X153149000Y-100200000D01*
G75*
G02*
X153049000Y-100300000I-100000J0D01*
G01*
G37*
G04 #@! TD.AperFunction*
G04 #@! TA.AperFunction,SMDPad,CuDef*
G36*
G01*
X140949000Y-102598000D02*
X141499000Y-102598000D01*
G75*
G02*
X141699000Y-102798000I0J-200000D01*
G01*
X141699000Y-103198000D01*
G75*
G02*
X141499000Y-103398000I-200000J0D01*
G01*
X140949000Y-103398000D01*
G75*
G02*
X140749000Y-103198000I0J200000D01*
G01*
X140749000Y-102798000D01*
G75*
G02*
X140949000Y-102598000I200000J0D01*
G01*
G37*
G04 #@! TD.AperFunction*
G04 #@! TA.AperFunction,SMDPad,CuDef*
G36*
G01*
X140949000Y-104248000D02*
X141499000Y-104248000D01*
G75*
G02*
X141699000Y-104448000I0J-200000D01*
G01*
X141699000Y-104848000D01*
G75*
G02*
X141499000Y-105048000I-200000J0D01*
G01*
X140949000Y-105048000D01*
G75*
G02*
X140749000Y-104848000I0J200000D01*
G01*
X140749000Y-104448000D01*
G75*
G02*
X140949000Y-104248000I200000J0D01*
G01*
G37*
G04 #@! TD.AperFunction*
G04 #@! TA.AperFunction,SMDPad,CuDef*
G36*
G01*
X141474000Y-100018000D02*
X140974000Y-100018000D01*
G75*
G02*
X140749000Y-99793000I0J225000D01*
G01*
X140749000Y-99343000D01*
G75*
G02*
X140974000Y-99118000I225000J0D01*
G01*
X141474000Y-99118000D01*
G75*
G02*
X141699000Y-99343000I0J-225000D01*
G01*
X141699000Y-99793000D01*
G75*
G02*
X141474000Y-100018000I-225000J0D01*
G01*
G37*
G04 #@! TD.AperFunction*
G04 #@! TA.AperFunction,SMDPad,CuDef*
G36*
G01*
X141474000Y-98468000D02*
X140974000Y-98468000D01*
G75*
G02*
X140749000Y-98243000I0J225000D01*
G01*
X140749000Y-97793000D01*
G75*
G02*
X140974000Y-97568000I225000J0D01*
G01*
X141474000Y-97568000D01*
G75*
G02*
X141699000Y-97793000I0J-225000D01*
G01*
X141699000Y-98243000D01*
G75*
G02*
X141474000Y-98468000I-225000J0D01*
G01*
G37*
G04 #@! TD.AperFunction*
G04 #@! TA.AperFunction,SMDPad,CuDef*
G36*
G01*
X134186000Y-104361000D02*
X134186000Y-103411000D01*
G75*
G02*
X134436000Y-103161000I250000J0D01*
G01*
X134936000Y-103161000D01*
G75*
G02*
X135186000Y-103411000I0J-250000D01*
G01*
X135186000Y-104361000D01*
G75*
G02*
X134936000Y-104611000I-250000J0D01*
G01*
X134436000Y-104611000D01*
G75*
G02*
X134186000Y-104361000I0J250000D01*
G01*
G37*
G04 #@! TD.AperFunction*
G04 #@! TA.AperFunction,SMDPad,CuDef*
G36*
G01*
X136086000Y-104361000D02*
X136086000Y-103411000D01*
G75*
G02*
X136336000Y-103161000I250000J0D01*
G01*
X136836000Y-103161000D01*
G75*
G02*
X137086000Y-103411000I0J-250000D01*
G01*
X137086000Y-104361000D01*
G75*
G02*
X136836000Y-104611000I-250000J0D01*
G01*
X136336000Y-104611000D01*
G75*
G02*
X136086000Y-104361000I0J250000D01*
G01*
G37*
G04 #@! TD.AperFunction*
G04 #@! TA.AperFunction,SMDPad,CuDef*
G36*
G01*
X134106200Y-97024000D02*
X134106200Y-96524000D01*
G75*
G02*
X134331200Y-96299000I225000J0D01*
G01*
X134781200Y-96299000D01*
G75*
G02*
X135006200Y-96524000I0J-225000D01*
G01*
X135006200Y-97024000D01*
G75*
G02*
X134781200Y-97249000I-225000J0D01*
G01*
X134331200Y-97249000D01*
G75*
G02*
X134106200Y-97024000I0J225000D01*
G01*
G37*
G04 #@! TD.AperFunction*
G04 #@! TA.AperFunction,SMDPad,CuDef*
G36*
G01*
X135656200Y-97024000D02*
X135656200Y-96524000D01*
G75*
G02*
X135881200Y-96299000I225000J0D01*
G01*
X136331200Y-96299000D01*
G75*
G02*
X136556200Y-96524000I0J-225000D01*
G01*
X136556200Y-97024000D01*
G75*
G02*
X136331200Y-97249000I-225000J0D01*
G01*
X135881200Y-97249000D01*
G75*
G02*
X135656200Y-97024000I0J225000D01*
G01*
G37*
G04 #@! TD.AperFunction*
G04 #@! TA.AperFunction,SMDPad,CuDef*
G36*
G01*
X134136000Y-100711250D02*
X134136000Y-99948750D01*
G75*
G02*
X134354750Y-99730000I218750J0D01*
G01*
X134792250Y-99730000D01*
G75*
G02*
X135011000Y-99948750I0J-218750D01*
G01*
X135011000Y-100711250D01*
G75*
G02*
X134792250Y-100930000I-218750J0D01*
G01*
X134354750Y-100930000D01*
G75*
G02*
X134136000Y-100711250I0J218750D01*
G01*
G37*
G04 #@! TD.AperFunction*
G04 #@! TA.AperFunction,SMDPad,CuDef*
G36*
G01*
X136261000Y-100711250D02*
X136261000Y-99948750D01*
G75*
G02*
X136479750Y-99730000I218750J0D01*
G01*
X136917250Y-99730000D01*
G75*
G02*
X137136000Y-99948750I0J-218750D01*
G01*
X137136000Y-100711250D01*
G75*
G02*
X136917250Y-100930000I-218750J0D01*
G01*
X136479750Y-100930000D01*
G75*
G02*
X136261000Y-100711250I0J218750D01*
G01*
G37*
G04 #@! TD.AperFunction*
D10*
X149860000Y-93980000D03*
D11*
X152400000Y-93980000D03*
X154940000Y-93980000D03*
X157480000Y-93980000D03*
D10*
X134620000Y-93980000D03*
D11*
X137160000Y-93980000D03*
X139700000Y-93980000D03*
X142240000Y-93980000D03*
D10*
X134620000Y-106680000D03*
D11*
X137160000Y-106680000D03*
X139700000Y-106680000D03*
X142240000Y-106680000D03*
X144780000Y-106680000D03*
X147320000Y-106680000D03*
X149860000Y-106680000D03*
X152400000Y-106680000D03*
X154940000Y-106680000D03*
X157480000Y-106680000D03*
D12*
X148970992Y-96266000D03*
X145161000Y-102489000D03*
X143256000Y-99695000D03*
X148463000Y-102616000D03*
X149098000Y-100076000D03*
X143129000Y-98298000D03*
X145092293Y-100147120D03*
X146107686Y-100780314D03*
X143764000Y-96139000D03*
X156337000Y-100457000D03*
D13*
X154899000Y-99487500D02*
X156785500Y-99487500D01*
D14*
X158877000Y-99715000D02*
X157955000Y-98793000D01*
X157955000Y-98793000D02*
X157480000Y-98793000D01*
D13*
X147841000Y-96266000D02*
X148970992Y-96266000D01*
D14*
X138684000Y-96774000D02*
X138938000Y-97028000D01*
X141224000Y-98018000D02*
X139446000Y-98018000D01*
D13*
X153941886Y-100700010D02*
X153599000Y-100357124D01*
D14*
X136586000Y-103886000D02*
X138176000Y-103886000D01*
X157480000Y-106680000D02*
X158877000Y-105283000D01*
D13*
X153599000Y-100357124D02*
X153599000Y-99487500D01*
D14*
X139446000Y-98018000D02*
X138938000Y-97510000D01*
D13*
X154556114Y-100700010D02*
X153941886Y-100700010D01*
X154899000Y-100357124D02*
X154556114Y-100700010D01*
D14*
X157480000Y-93980000D02*
X155575000Y-92075000D01*
X138176000Y-103886000D02*
X138938000Y-104648000D01*
D13*
X156785500Y-99487500D02*
X157480000Y-98793000D01*
D14*
X136398000Y-96774000D02*
X138684000Y-96774000D01*
X158877000Y-105283000D02*
X158877000Y-99715000D01*
X157226000Y-106426000D02*
X157480000Y-106680000D01*
X138938000Y-97510000D02*
X138938000Y-97028000D01*
X157480000Y-93980000D02*
X157480000Y-95880000D01*
X157226000Y-104328000D02*
X157226000Y-106426000D01*
D13*
X147391000Y-96716000D02*
X147841000Y-96266000D01*
D14*
X138938000Y-104648000D02*
X138938000Y-105918000D01*
X141224000Y-104648000D02*
X138938000Y-104648000D01*
X147447000Y-92075000D02*
X145542000Y-93980000D01*
X155575000Y-92075000D02*
X147447000Y-92075000D01*
X138938000Y-94742000D02*
X139700000Y-93980000D01*
D13*
X154899000Y-99487500D02*
X154899000Y-100357124D01*
D14*
X138938000Y-97028000D02*
X138938000Y-94742000D01*
D13*
X147391000Y-98483500D02*
X147391000Y-96716000D01*
D14*
X138938000Y-105918000D02*
X139700000Y-106680000D01*
X157480000Y-95880000D02*
X156840000Y-96520000D01*
X138938000Y-102748000D02*
X138938000Y-99060000D01*
D13*
X141224000Y-101346000D02*
X138938000Y-99060000D01*
X145542000Y-101346000D02*
X141224000Y-101346000D01*
X146741000Y-102545000D02*
X145542000Y-101346000D01*
X146741000Y-104208500D02*
X146741000Y-102545000D01*
D14*
X136698500Y-100330000D02*
X136698500Y-100508500D01*
X136698500Y-100508500D02*
X138938000Y-102748000D01*
D13*
X142434500Y-104208500D02*
X141224000Y-102998000D01*
X144141000Y-104208500D02*
X142434500Y-104208500D01*
X143256000Y-99695000D02*
X141351000Y-99695000D01*
X146091000Y-104208500D02*
X146091000Y-103413876D01*
X146091000Y-103413876D02*
X145166124Y-102489000D01*
X141351000Y-99695000D02*
X141224000Y-99568000D01*
X145166124Y-102489000D02*
X145161000Y-102489000D01*
X154249000Y-99487500D02*
X154249000Y-97211000D01*
X154940000Y-96520000D02*
X152400000Y-93980000D01*
X154249000Y-97211000D02*
X154940000Y-96520000D01*
X148463000Y-95377000D02*
X147442000Y-94356000D01*
X147442000Y-94356000D02*
X147442000Y-93980000D01*
X151257000Y-95377000D02*
X148463000Y-95377000D01*
X152949000Y-99487500D02*
X152949000Y-97069000D01*
X152949000Y-97069000D02*
X151257000Y-95377000D01*
D14*
X147442000Y-93980000D02*
X149860000Y-93980000D01*
D13*
X149341000Y-104208500D02*
X149341000Y-106161000D01*
X149341000Y-106161000D02*
X149860000Y-106680000D01*
X148691000Y-104208500D02*
X148691000Y-105309000D01*
X148691000Y-105309000D02*
X147320000Y-106680000D01*
X148041000Y-104208500D02*
X148041000Y-103038000D01*
X148041000Y-103038000D02*
X148463000Y-102616000D01*
X143490001Y-105429999D02*
X142240000Y-106680000D01*
X146964125Y-105429999D02*
X143490001Y-105429999D01*
X147391000Y-104208500D02*
X147391000Y-105003124D01*
X147391000Y-105003124D02*
X146964125Y-105429999D01*
X149341000Y-99833000D02*
X149341000Y-98483500D01*
X149098000Y-100076000D02*
X149341000Y-99833000D01*
X143129000Y-97155000D02*
X142240000Y-96266000D01*
X144840990Y-97638886D02*
X144357104Y-97155000D01*
X144357104Y-97155000D02*
X143129000Y-97155000D01*
X144840990Y-98433510D02*
X144840990Y-97638886D01*
X144791000Y-98483500D02*
X144840990Y-98433510D01*
X142240000Y-96266000D02*
X142240000Y-93980000D01*
X143314500Y-98483500D02*
X143129000Y-98298000D01*
X144141000Y-98483500D02*
X143314500Y-98483500D01*
X154899000Y-103712500D02*
X154899000Y-102234457D01*
X151257000Y-100974468D02*
X150591010Y-100308478D01*
X150591010Y-97638886D02*
X150298114Y-97345990D01*
X154899000Y-102234457D02*
X153964564Y-101300021D01*
X150591010Y-100308478D02*
X150591010Y-97638886D01*
X153693354Y-101300021D02*
X153367801Y-100974468D01*
X153964564Y-101300021D02*
X153693354Y-101300021D01*
X150298114Y-97345990D02*
X149033886Y-97345990D01*
X148691000Y-97688876D02*
X148691000Y-98483500D01*
X149033886Y-97345990D02*
X148691000Y-97688876D01*
X153367801Y-100974468D02*
X151257000Y-100974468D01*
X153716032Y-101900032D02*
X153444822Y-101900032D01*
X153271790Y-101727000D02*
X151003000Y-101727000D01*
X153444822Y-101900032D02*
X153271790Y-101727000D01*
X154249000Y-103712500D02*
X154249000Y-102433000D01*
X154249000Y-102433000D02*
X153716032Y-101900032D01*
X151003000Y-101727000D02*
X149991000Y-100715000D01*
X149991000Y-100715000D02*
X149991000Y-98483500D01*
X150495000Y-102489000D02*
X149991000Y-102993000D01*
X153245124Y-102489000D02*
X150495000Y-102489000D01*
X149991000Y-102993000D02*
X149991000Y-104208500D01*
X153599000Y-103712500D02*
X153599000Y-102842876D01*
X153599000Y-102842876D02*
X153245124Y-102489000D01*
X145441000Y-98483500D02*
X145441000Y-99798413D01*
X145441000Y-99798413D02*
X145092293Y-100147120D01*
X146107686Y-100780314D02*
X146107686Y-98500186D01*
X146107686Y-98500186D02*
X146091000Y-98483500D01*
X156451000Y-100343000D02*
X156337000Y-100457000D01*
X152949000Y-104582124D02*
X153291886Y-104925010D01*
X155206114Y-104925010D02*
X156100990Y-104030134D01*
D14*
X134620000Y-103952000D02*
X134686000Y-103886000D01*
D13*
X146741000Y-98483500D02*
X146741000Y-96716000D01*
D14*
X134620000Y-106680000D02*
X134620000Y-103952000D01*
D13*
X156100990Y-103553010D02*
X157226000Y-102428000D01*
D14*
X134573500Y-94026500D02*
X134620000Y-93980000D01*
X157480000Y-102174000D02*
X157226000Y-102428000D01*
D13*
X152949000Y-103712500D02*
X152949000Y-104582124D01*
D14*
X134686000Y-100442500D02*
X134573500Y-100330000D01*
X134573500Y-100330000D02*
X134573500Y-94026500D01*
X157480000Y-100343000D02*
X157480000Y-102174000D01*
D13*
X156100990Y-104030134D02*
X156100990Y-103553010D01*
X157480000Y-100343000D02*
X156451000Y-100343000D01*
X143891000Y-96266000D02*
X143764000Y-96139000D01*
X153291886Y-104925010D02*
X155206114Y-104925010D01*
X146741000Y-96716000D02*
X146291000Y-96266000D01*
D14*
X134686000Y-103886000D02*
X134686000Y-100442500D01*
D13*
X146291000Y-96266000D02*
X143891000Y-96266000D01*
M02*
