G04 #@! TF.GenerationSoftware,KiCad,Pcbnew,6.0.5+dfsg-1~bpo11+1*
G04 #@! TF.CreationDate,2022-12-25T14:08:46+00:00*
G04 #@! TF.ProjectId,stm32l0_mod_source,73746d33-326c-4305-9f6d-6f645f736f75,0.1*
G04 #@! TF.SameCoordinates,Original*
G04 #@! TF.FileFunction,Copper,L3,Inr*
G04 #@! TF.FilePolarity,Positive*
%FSLAX46Y46*%
G04 Gerber Fmt 4.6, Leading zero omitted, Abs format (unit mm)*
G04 Created by KiCad (PCBNEW 6.0.5+dfsg-1~bpo11+1) date 2022-12-25 14:08:46*
%MOMM*%
%LPD*%
G01*
G04 APERTURE LIST*
G04 #@! TA.AperFunction,ComponentPad*
%ADD10R,1.700000X1.700000*%
G04 #@! TD*
G04 #@! TA.AperFunction,ComponentPad*
%ADD11O,1.700000X1.700000*%
G04 #@! TD*
G04 #@! TA.AperFunction,ViaPad*
%ADD12C,0.800000*%
G04 #@! TD*
G04 APERTURE END LIST*
D10*
X149860000Y-93980000D03*
D11*
X152400000Y-93980000D03*
X154940000Y-93980000D03*
X157480000Y-93980000D03*
D10*
X134620000Y-93980000D03*
D11*
X137160000Y-93980000D03*
X139700000Y-93980000D03*
X142240000Y-93980000D03*
D10*
X134620000Y-106680000D03*
D11*
X137160000Y-106680000D03*
X139700000Y-106680000D03*
X142240000Y-106680000D03*
X144780000Y-106680000D03*
X147320000Y-106680000D03*
X149860000Y-106680000D03*
X152400000Y-106680000D03*
X154940000Y-106680000D03*
X157480000Y-106680000D03*
D12*
X148970992Y-96266000D03*
X145161000Y-102489000D03*
X143256000Y-99695000D03*
X148463000Y-102616000D03*
X149098000Y-100076000D03*
X143129000Y-98298000D03*
X145092293Y-100147120D03*
X146107686Y-100780314D03*
X143764000Y-96139000D03*
X156337000Y-100457000D03*
G04 #@! TA.AperFunction,Conductor*
G36*
X159453621Y-91968502D02*
G01*
X159500114Y-92022158D01*
X159511500Y-92074500D01*
X159511500Y-108585500D01*
X159491498Y-108653621D01*
X159437842Y-108700114D01*
X159385500Y-108711500D01*
X132714500Y-108711500D01*
X132646379Y-108691498D01*
X132599886Y-108637842D01*
X132588500Y-108585500D01*
X132588500Y-107574669D01*
X133262001Y-107574669D01*
X133262371Y-107581490D01*
X133267895Y-107632352D01*
X133271521Y-107647604D01*
X133316676Y-107768054D01*
X133325214Y-107783649D01*
X133401715Y-107885724D01*
X133414276Y-107898285D01*
X133516351Y-107974786D01*
X133531946Y-107983324D01*
X133652394Y-108028478D01*
X133667649Y-108032105D01*
X133718514Y-108037631D01*
X133725328Y-108038000D01*
X134347885Y-108038000D01*
X134363124Y-108033525D01*
X134364329Y-108032135D01*
X134366000Y-108024452D01*
X134366000Y-108019884D01*
X134874000Y-108019884D01*
X134878475Y-108035123D01*
X134879865Y-108036328D01*
X134887548Y-108037999D01*
X135514669Y-108037999D01*
X135521490Y-108037629D01*
X135572352Y-108032105D01*
X135587604Y-108028479D01*
X135708054Y-107983324D01*
X135723649Y-107974786D01*
X135825724Y-107898285D01*
X135838285Y-107885724D01*
X135914786Y-107783649D01*
X135923325Y-107768052D01*
X135964425Y-107658418D01*
X136007066Y-107601653D01*
X136073628Y-107576953D01*
X136142977Y-107592160D01*
X136177645Y-107620150D01*
X136203219Y-107649674D01*
X136210580Y-107656883D01*
X136374434Y-107792916D01*
X136382881Y-107798831D01*
X136566756Y-107906279D01*
X136576042Y-107910729D01*
X136775001Y-107986703D01*
X136784899Y-107989579D01*
X136888250Y-108010606D01*
X136902299Y-108009410D01*
X136906000Y-107999065D01*
X136906000Y-107998517D01*
X137414000Y-107998517D01*
X137418064Y-108012359D01*
X137431478Y-108014393D01*
X137438184Y-108013534D01*
X137448262Y-108011392D01*
X137652255Y-107950191D01*
X137661842Y-107946433D01*
X137853095Y-107852739D01*
X137861945Y-107847464D01*
X138035328Y-107723792D01*
X138043200Y-107717139D01*
X138194052Y-107566812D01*
X138200730Y-107558965D01*
X138328022Y-107381819D01*
X138329279Y-107382722D01*
X138376373Y-107339362D01*
X138446311Y-107327145D01*
X138511751Y-107354678D01*
X138539579Y-107386511D01*
X138599987Y-107485088D01*
X138746250Y-107653938D01*
X138918126Y-107796632D01*
X139111000Y-107909338D01*
X139319692Y-107989030D01*
X139324760Y-107990061D01*
X139324763Y-107990062D01*
X139419862Y-108009410D01*
X139538597Y-108033567D01*
X139543772Y-108033757D01*
X139543774Y-108033757D01*
X139756673Y-108041564D01*
X139756677Y-108041564D01*
X139761837Y-108041753D01*
X139766957Y-108041097D01*
X139766959Y-108041097D01*
X139978288Y-108014025D01*
X139978289Y-108014025D01*
X139983416Y-108013368D01*
X139988366Y-108011883D01*
X140192429Y-107950661D01*
X140192434Y-107950659D01*
X140197384Y-107949174D01*
X140397994Y-107850896D01*
X140579860Y-107721173D01*
X140738096Y-107563489D01*
X140868453Y-107382077D01*
X140869776Y-107383028D01*
X140916645Y-107339857D01*
X140986580Y-107327625D01*
X141052026Y-107355144D01*
X141079875Y-107386994D01*
X141139987Y-107485088D01*
X141286250Y-107653938D01*
X141458126Y-107796632D01*
X141651000Y-107909338D01*
X141859692Y-107989030D01*
X141864760Y-107990061D01*
X141864763Y-107990062D01*
X141959862Y-108009410D01*
X142078597Y-108033567D01*
X142083772Y-108033757D01*
X142083774Y-108033757D01*
X142296673Y-108041564D01*
X142296677Y-108041564D01*
X142301837Y-108041753D01*
X142306957Y-108041097D01*
X142306959Y-108041097D01*
X142518288Y-108014025D01*
X142518289Y-108014025D01*
X142523416Y-108013368D01*
X142528366Y-108011883D01*
X142732429Y-107950661D01*
X142732434Y-107950659D01*
X142737384Y-107949174D01*
X142937994Y-107850896D01*
X143119860Y-107721173D01*
X143278096Y-107563489D01*
X143408453Y-107382077D01*
X143409776Y-107383028D01*
X143456645Y-107339857D01*
X143526580Y-107327625D01*
X143592026Y-107355144D01*
X143619875Y-107386994D01*
X143679987Y-107485088D01*
X143826250Y-107653938D01*
X143998126Y-107796632D01*
X144191000Y-107909338D01*
X144399692Y-107989030D01*
X144404760Y-107990061D01*
X144404763Y-107990062D01*
X144499862Y-108009410D01*
X144618597Y-108033567D01*
X144623772Y-108033757D01*
X144623774Y-108033757D01*
X144836673Y-108041564D01*
X144836677Y-108041564D01*
X144841837Y-108041753D01*
X144846957Y-108041097D01*
X144846959Y-108041097D01*
X145058288Y-108014025D01*
X145058289Y-108014025D01*
X145063416Y-108013368D01*
X145068366Y-108011883D01*
X145272429Y-107950661D01*
X145272434Y-107950659D01*
X145277384Y-107949174D01*
X145477994Y-107850896D01*
X145659860Y-107721173D01*
X145818096Y-107563489D01*
X145948453Y-107382077D01*
X145949776Y-107383028D01*
X145996645Y-107339857D01*
X146066580Y-107327625D01*
X146132026Y-107355144D01*
X146159875Y-107386994D01*
X146219987Y-107485088D01*
X146366250Y-107653938D01*
X146538126Y-107796632D01*
X146731000Y-107909338D01*
X146939692Y-107989030D01*
X146944760Y-107990061D01*
X146944763Y-107990062D01*
X147039862Y-108009410D01*
X147158597Y-108033567D01*
X147163772Y-108033757D01*
X147163774Y-108033757D01*
X147376673Y-108041564D01*
X147376677Y-108041564D01*
X147381837Y-108041753D01*
X147386957Y-108041097D01*
X147386959Y-108041097D01*
X147598288Y-108014025D01*
X147598289Y-108014025D01*
X147603416Y-108013368D01*
X147608366Y-108011883D01*
X147812429Y-107950661D01*
X147812434Y-107950659D01*
X147817384Y-107949174D01*
X148017994Y-107850896D01*
X148199860Y-107721173D01*
X148358096Y-107563489D01*
X148488453Y-107382077D01*
X148489776Y-107383028D01*
X148536645Y-107339857D01*
X148606580Y-107327625D01*
X148672026Y-107355144D01*
X148699875Y-107386994D01*
X148759987Y-107485088D01*
X148906250Y-107653938D01*
X149078126Y-107796632D01*
X149271000Y-107909338D01*
X149479692Y-107989030D01*
X149484760Y-107990061D01*
X149484763Y-107990062D01*
X149579862Y-108009410D01*
X149698597Y-108033567D01*
X149703772Y-108033757D01*
X149703774Y-108033757D01*
X149916673Y-108041564D01*
X149916677Y-108041564D01*
X149921837Y-108041753D01*
X149926957Y-108041097D01*
X149926959Y-108041097D01*
X150138288Y-108014025D01*
X150138289Y-108014025D01*
X150143416Y-108013368D01*
X150148366Y-108011883D01*
X150352429Y-107950661D01*
X150352434Y-107950659D01*
X150357384Y-107949174D01*
X150557994Y-107850896D01*
X150739860Y-107721173D01*
X150898096Y-107563489D01*
X151028453Y-107382077D01*
X151029776Y-107383028D01*
X151076645Y-107339857D01*
X151146580Y-107327625D01*
X151212026Y-107355144D01*
X151239875Y-107386994D01*
X151299987Y-107485088D01*
X151446250Y-107653938D01*
X151618126Y-107796632D01*
X151811000Y-107909338D01*
X152019692Y-107989030D01*
X152024760Y-107990061D01*
X152024763Y-107990062D01*
X152119862Y-108009410D01*
X152238597Y-108033567D01*
X152243772Y-108033757D01*
X152243774Y-108033757D01*
X152456673Y-108041564D01*
X152456677Y-108041564D01*
X152461837Y-108041753D01*
X152466957Y-108041097D01*
X152466959Y-108041097D01*
X152678288Y-108014025D01*
X152678289Y-108014025D01*
X152683416Y-108013368D01*
X152688366Y-108011883D01*
X152892429Y-107950661D01*
X152892434Y-107950659D01*
X152897384Y-107949174D01*
X153097994Y-107850896D01*
X153279860Y-107721173D01*
X153438096Y-107563489D01*
X153568453Y-107382077D01*
X153569776Y-107383028D01*
X153616645Y-107339857D01*
X153686580Y-107327625D01*
X153752026Y-107355144D01*
X153779875Y-107386994D01*
X153839987Y-107485088D01*
X153986250Y-107653938D01*
X154158126Y-107796632D01*
X154351000Y-107909338D01*
X154559692Y-107989030D01*
X154564760Y-107990061D01*
X154564763Y-107990062D01*
X154659862Y-108009410D01*
X154778597Y-108033567D01*
X154783772Y-108033757D01*
X154783774Y-108033757D01*
X154996673Y-108041564D01*
X154996677Y-108041564D01*
X155001837Y-108041753D01*
X155006957Y-108041097D01*
X155006959Y-108041097D01*
X155218288Y-108014025D01*
X155218289Y-108014025D01*
X155223416Y-108013368D01*
X155228366Y-108011883D01*
X155432429Y-107950661D01*
X155432434Y-107950659D01*
X155437384Y-107949174D01*
X155637994Y-107850896D01*
X155819860Y-107721173D01*
X155978096Y-107563489D01*
X156108453Y-107382077D01*
X156109776Y-107383028D01*
X156156645Y-107339857D01*
X156226580Y-107327625D01*
X156292026Y-107355144D01*
X156319875Y-107386994D01*
X156379987Y-107485088D01*
X156526250Y-107653938D01*
X156698126Y-107796632D01*
X156891000Y-107909338D01*
X157099692Y-107989030D01*
X157104760Y-107990061D01*
X157104763Y-107990062D01*
X157199862Y-108009410D01*
X157318597Y-108033567D01*
X157323772Y-108033757D01*
X157323774Y-108033757D01*
X157536673Y-108041564D01*
X157536677Y-108041564D01*
X157541837Y-108041753D01*
X157546957Y-108041097D01*
X157546959Y-108041097D01*
X157758288Y-108014025D01*
X157758289Y-108014025D01*
X157763416Y-108013368D01*
X157768366Y-108011883D01*
X157972429Y-107950661D01*
X157972434Y-107950659D01*
X157977384Y-107949174D01*
X158177994Y-107850896D01*
X158359860Y-107721173D01*
X158518096Y-107563489D01*
X158648453Y-107382077D01*
X158661995Y-107354678D01*
X158745136Y-107186453D01*
X158745137Y-107186451D01*
X158747430Y-107181811D01*
X158812370Y-106968069D01*
X158841529Y-106746590D01*
X158843156Y-106680000D01*
X158824852Y-106457361D01*
X158770431Y-106240702D01*
X158681354Y-106035840D01*
X158560014Y-105848277D01*
X158409670Y-105683051D01*
X158405619Y-105679852D01*
X158405615Y-105679848D01*
X158238414Y-105547800D01*
X158238410Y-105547798D01*
X158234359Y-105544598D01*
X158198028Y-105524542D01*
X158106970Y-105474276D01*
X158038789Y-105436638D01*
X158033920Y-105434914D01*
X158033916Y-105434912D01*
X157833087Y-105363795D01*
X157833083Y-105363794D01*
X157828212Y-105362069D01*
X157823119Y-105361162D01*
X157823116Y-105361161D01*
X157613373Y-105323800D01*
X157613367Y-105323799D01*
X157608284Y-105322894D01*
X157534452Y-105321992D01*
X157390081Y-105320228D01*
X157390079Y-105320228D01*
X157384911Y-105320165D01*
X157164091Y-105353955D01*
X156951756Y-105423357D01*
X156753607Y-105526507D01*
X156749474Y-105529610D01*
X156749471Y-105529612D01*
X156666450Y-105591946D01*
X156574965Y-105660635D01*
X156420629Y-105822138D01*
X156313201Y-105979621D01*
X156258293Y-106024621D01*
X156187768Y-106032792D01*
X156124021Y-106001538D01*
X156103324Y-105977054D01*
X156022822Y-105852617D01*
X156022820Y-105852614D01*
X156020014Y-105848277D01*
X155869670Y-105683051D01*
X155865619Y-105679852D01*
X155865615Y-105679848D01*
X155698414Y-105547800D01*
X155698410Y-105547798D01*
X155694359Y-105544598D01*
X155658028Y-105524542D01*
X155566970Y-105474276D01*
X155498789Y-105436638D01*
X155493920Y-105434914D01*
X155493916Y-105434912D01*
X155293087Y-105363795D01*
X155293083Y-105363794D01*
X155288212Y-105362069D01*
X155283119Y-105361162D01*
X155283116Y-105361161D01*
X155073373Y-105323800D01*
X155073367Y-105323799D01*
X155068284Y-105322894D01*
X154994452Y-105321992D01*
X154850081Y-105320228D01*
X154850079Y-105320228D01*
X154844911Y-105320165D01*
X154624091Y-105353955D01*
X154411756Y-105423357D01*
X154213607Y-105526507D01*
X154209474Y-105529610D01*
X154209471Y-105529612D01*
X154126450Y-105591946D01*
X154034965Y-105660635D01*
X153880629Y-105822138D01*
X153773201Y-105979621D01*
X153718293Y-106024621D01*
X153647768Y-106032792D01*
X153584021Y-106001538D01*
X153563324Y-105977054D01*
X153482822Y-105852617D01*
X153482820Y-105852614D01*
X153480014Y-105848277D01*
X153329670Y-105683051D01*
X153325619Y-105679852D01*
X153325615Y-105679848D01*
X153158414Y-105547800D01*
X153158410Y-105547798D01*
X153154359Y-105544598D01*
X153118028Y-105524542D01*
X153026970Y-105474276D01*
X152958789Y-105436638D01*
X152953920Y-105434914D01*
X152953916Y-105434912D01*
X152753087Y-105363795D01*
X152753083Y-105363794D01*
X152748212Y-105362069D01*
X152743119Y-105361162D01*
X152743116Y-105361161D01*
X152533373Y-105323800D01*
X152533367Y-105323799D01*
X152528284Y-105322894D01*
X152454452Y-105321992D01*
X152310081Y-105320228D01*
X152310079Y-105320228D01*
X152304911Y-105320165D01*
X152084091Y-105353955D01*
X151871756Y-105423357D01*
X151673607Y-105526507D01*
X151669474Y-105529610D01*
X151669471Y-105529612D01*
X151586450Y-105591946D01*
X151494965Y-105660635D01*
X151340629Y-105822138D01*
X151233201Y-105979621D01*
X151178293Y-106024621D01*
X151107768Y-106032792D01*
X151044021Y-106001538D01*
X151023324Y-105977054D01*
X150942822Y-105852617D01*
X150942820Y-105852614D01*
X150940014Y-105848277D01*
X150789670Y-105683051D01*
X150785619Y-105679852D01*
X150785615Y-105679848D01*
X150618414Y-105547800D01*
X150618410Y-105547798D01*
X150614359Y-105544598D01*
X150578028Y-105524542D01*
X150486970Y-105474276D01*
X150418789Y-105436638D01*
X150413920Y-105434914D01*
X150413916Y-105434912D01*
X150213087Y-105363795D01*
X150213083Y-105363794D01*
X150208212Y-105362069D01*
X150203119Y-105361162D01*
X150203116Y-105361161D01*
X149993373Y-105323800D01*
X149993367Y-105323799D01*
X149988284Y-105322894D01*
X149914452Y-105321992D01*
X149770081Y-105320228D01*
X149770079Y-105320228D01*
X149764911Y-105320165D01*
X149544091Y-105353955D01*
X149331756Y-105423357D01*
X149133607Y-105526507D01*
X149129474Y-105529610D01*
X149129471Y-105529612D01*
X149046450Y-105591946D01*
X148954965Y-105660635D01*
X148800629Y-105822138D01*
X148693201Y-105979621D01*
X148638293Y-106024621D01*
X148567768Y-106032792D01*
X148504021Y-106001538D01*
X148483324Y-105977054D01*
X148402822Y-105852617D01*
X148402820Y-105852614D01*
X148400014Y-105848277D01*
X148249670Y-105683051D01*
X148245619Y-105679852D01*
X148245615Y-105679848D01*
X148078414Y-105547800D01*
X148078410Y-105547798D01*
X148074359Y-105544598D01*
X148038028Y-105524542D01*
X147946970Y-105474276D01*
X147878789Y-105436638D01*
X147873920Y-105434914D01*
X147873916Y-105434912D01*
X147673087Y-105363795D01*
X147673083Y-105363794D01*
X147668212Y-105362069D01*
X147663119Y-105361162D01*
X147663116Y-105361161D01*
X147453373Y-105323800D01*
X147453367Y-105323799D01*
X147448284Y-105322894D01*
X147374452Y-105321992D01*
X147230081Y-105320228D01*
X147230079Y-105320228D01*
X147224911Y-105320165D01*
X147004091Y-105353955D01*
X146791756Y-105423357D01*
X146593607Y-105526507D01*
X146589474Y-105529610D01*
X146589471Y-105529612D01*
X146506450Y-105591946D01*
X146414965Y-105660635D01*
X146260629Y-105822138D01*
X146153201Y-105979621D01*
X146098293Y-106024621D01*
X146027768Y-106032792D01*
X145964021Y-106001538D01*
X145943324Y-105977054D01*
X145862822Y-105852617D01*
X145862820Y-105852614D01*
X145860014Y-105848277D01*
X145709670Y-105683051D01*
X145705619Y-105679852D01*
X145705615Y-105679848D01*
X145538414Y-105547800D01*
X145538410Y-105547798D01*
X145534359Y-105544598D01*
X145498028Y-105524542D01*
X145406970Y-105474276D01*
X145338789Y-105436638D01*
X145333920Y-105434914D01*
X145333916Y-105434912D01*
X145133087Y-105363795D01*
X145133083Y-105363794D01*
X145128212Y-105362069D01*
X145123119Y-105361162D01*
X145123116Y-105361161D01*
X144913373Y-105323800D01*
X144913367Y-105323799D01*
X144908284Y-105322894D01*
X144834452Y-105321992D01*
X144690081Y-105320228D01*
X144690079Y-105320228D01*
X144684911Y-105320165D01*
X144464091Y-105353955D01*
X144251756Y-105423357D01*
X144053607Y-105526507D01*
X144049474Y-105529610D01*
X144049471Y-105529612D01*
X143966450Y-105591946D01*
X143874965Y-105660635D01*
X143720629Y-105822138D01*
X143613201Y-105979621D01*
X143558293Y-106024621D01*
X143487768Y-106032792D01*
X143424021Y-106001538D01*
X143403324Y-105977054D01*
X143322822Y-105852617D01*
X143322820Y-105852614D01*
X143320014Y-105848277D01*
X143169670Y-105683051D01*
X143165619Y-105679852D01*
X143165615Y-105679848D01*
X142998414Y-105547800D01*
X142998410Y-105547798D01*
X142994359Y-105544598D01*
X142958028Y-105524542D01*
X142866970Y-105474276D01*
X142798789Y-105436638D01*
X142793920Y-105434914D01*
X142793916Y-105434912D01*
X142593087Y-105363795D01*
X142593083Y-105363794D01*
X142588212Y-105362069D01*
X142583119Y-105361162D01*
X142583116Y-105361161D01*
X142373373Y-105323800D01*
X142373367Y-105323799D01*
X142368284Y-105322894D01*
X142294452Y-105321992D01*
X142150081Y-105320228D01*
X142150079Y-105320228D01*
X142144911Y-105320165D01*
X141924091Y-105353955D01*
X141711756Y-105423357D01*
X141513607Y-105526507D01*
X141509474Y-105529610D01*
X141509471Y-105529612D01*
X141426450Y-105591946D01*
X141334965Y-105660635D01*
X141180629Y-105822138D01*
X141073201Y-105979621D01*
X141018293Y-106024621D01*
X140947768Y-106032792D01*
X140884021Y-106001538D01*
X140863324Y-105977054D01*
X140782822Y-105852617D01*
X140782820Y-105852614D01*
X140780014Y-105848277D01*
X140629670Y-105683051D01*
X140625619Y-105679852D01*
X140625615Y-105679848D01*
X140458414Y-105547800D01*
X140458410Y-105547798D01*
X140454359Y-105544598D01*
X140418028Y-105524542D01*
X140326970Y-105474276D01*
X140258789Y-105436638D01*
X140253920Y-105434914D01*
X140253916Y-105434912D01*
X140053087Y-105363795D01*
X140053083Y-105363794D01*
X140048212Y-105362069D01*
X140043119Y-105361162D01*
X140043116Y-105361161D01*
X139833373Y-105323800D01*
X139833367Y-105323799D01*
X139828284Y-105322894D01*
X139754452Y-105321992D01*
X139610081Y-105320228D01*
X139610079Y-105320228D01*
X139604911Y-105320165D01*
X139384091Y-105353955D01*
X139171756Y-105423357D01*
X138973607Y-105526507D01*
X138969474Y-105529610D01*
X138969471Y-105529612D01*
X138886450Y-105591946D01*
X138794965Y-105660635D01*
X138640629Y-105822138D01*
X138533204Y-105979618D01*
X138532898Y-105980066D01*
X138477987Y-106025069D01*
X138407462Y-106033240D01*
X138343715Y-106001986D01*
X138323018Y-105977502D01*
X138242426Y-105852926D01*
X138236136Y-105844757D01*
X138092806Y-105687240D01*
X138085273Y-105680215D01*
X137918139Y-105548222D01*
X137909552Y-105542517D01*
X137723117Y-105439599D01*
X137713705Y-105435369D01*
X137512959Y-105364280D01*
X137502988Y-105361646D01*
X137431837Y-105348972D01*
X137418540Y-105350432D01*
X137414000Y-105364989D01*
X137414000Y-107998517D01*
X136906000Y-107998517D01*
X136906000Y-106952115D01*
X136901525Y-106936876D01*
X136900135Y-106935671D01*
X136892452Y-106934000D01*
X134892115Y-106934000D01*
X134876876Y-106938475D01*
X134875671Y-106939865D01*
X134874000Y-106947548D01*
X134874000Y-108019884D01*
X134366000Y-108019884D01*
X134366000Y-106952115D01*
X134361525Y-106936876D01*
X134360135Y-106935671D01*
X134352452Y-106934000D01*
X133280116Y-106934000D01*
X133264877Y-106938475D01*
X133263672Y-106939865D01*
X133262001Y-106947548D01*
X133262001Y-107574669D01*
X132588500Y-107574669D01*
X132588500Y-106407885D01*
X133262000Y-106407885D01*
X133266475Y-106423124D01*
X133267865Y-106424329D01*
X133275548Y-106426000D01*
X134347885Y-106426000D01*
X134363124Y-106421525D01*
X134364329Y-106420135D01*
X134366000Y-106412452D01*
X134366000Y-106407885D01*
X134874000Y-106407885D01*
X134878475Y-106423124D01*
X134879865Y-106424329D01*
X134887548Y-106426000D01*
X136887885Y-106426000D01*
X136903124Y-106421525D01*
X136904329Y-106420135D01*
X136906000Y-106412452D01*
X136906000Y-105363102D01*
X136902082Y-105349758D01*
X136887806Y-105347771D01*
X136849324Y-105353660D01*
X136839288Y-105356051D01*
X136636868Y-105422212D01*
X136627359Y-105426209D01*
X136438463Y-105524542D01*
X136429738Y-105530036D01*
X136259433Y-105657905D01*
X136251726Y-105664748D01*
X136174094Y-105745985D01*
X136112570Y-105781415D01*
X136041657Y-105777958D01*
X135983871Y-105736712D01*
X135965018Y-105703164D01*
X135923324Y-105591946D01*
X135914786Y-105576351D01*
X135838285Y-105474276D01*
X135825724Y-105461715D01*
X135723649Y-105385214D01*
X135708054Y-105376676D01*
X135587606Y-105331522D01*
X135572351Y-105327895D01*
X135521486Y-105322369D01*
X135514672Y-105322000D01*
X134892115Y-105322000D01*
X134876876Y-105326475D01*
X134875671Y-105327865D01*
X134874000Y-105335548D01*
X134874000Y-106407885D01*
X134366000Y-106407885D01*
X134366000Y-105340116D01*
X134361525Y-105324877D01*
X134360135Y-105323672D01*
X134352452Y-105322001D01*
X133725331Y-105322001D01*
X133718510Y-105322371D01*
X133667648Y-105327895D01*
X133652396Y-105331521D01*
X133531946Y-105376676D01*
X133516351Y-105385214D01*
X133414276Y-105461715D01*
X133401715Y-105474276D01*
X133325214Y-105576351D01*
X133316676Y-105591946D01*
X133271522Y-105712394D01*
X133267895Y-105727649D01*
X133262369Y-105778514D01*
X133262000Y-105785328D01*
X133262000Y-106407885D01*
X132588500Y-106407885D01*
X132588500Y-98298000D01*
X142215496Y-98298000D01*
X142235458Y-98487928D01*
X142294473Y-98669556D01*
X142389960Y-98834944D01*
X142394375Y-98839847D01*
X142394379Y-98839852D01*
X142399187Y-98845192D01*
X142517747Y-98976866D01*
X142517111Y-98977439D01*
X142551478Y-99033226D01*
X142550124Y-99104209D01*
X142525237Y-99147792D01*
X142525259Y-99147808D01*
X142525111Y-99148012D01*
X142523563Y-99150723D01*
X142516960Y-99158056D01*
X142421473Y-99323444D01*
X142362458Y-99505072D01*
X142342496Y-99695000D01*
X142343186Y-99701565D01*
X142361080Y-99871814D01*
X142362458Y-99884928D01*
X142421473Y-100066556D01*
X142424776Y-100072278D01*
X142424777Y-100072279D01*
X142430716Y-100082565D01*
X142516960Y-100231944D01*
X142521378Y-100236851D01*
X142521379Y-100236852D01*
X142611596Y-100337048D01*
X142644747Y-100373866D01*
X142799248Y-100486118D01*
X142805276Y-100488802D01*
X142805278Y-100488803D01*
X142967681Y-100561109D01*
X142973712Y-100563794D01*
X143067113Y-100583647D01*
X143154056Y-100602128D01*
X143154061Y-100602128D01*
X143160513Y-100603500D01*
X143351487Y-100603500D01*
X143357939Y-100602128D01*
X143357944Y-100602128D01*
X143444887Y-100583647D01*
X143538288Y-100563794D01*
X143544319Y-100561109D01*
X143706722Y-100488803D01*
X143706724Y-100488802D01*
X143712752Y-100486118D01*
X143867253Y-100373866D01*
X143978202Y-100250644D01*
X144038647Y-100213406D01*
X144109631Y-100214758D01*
X144168615Y-100254272D01*
X144197147Y-100321786D01*
X144198751Y-100337048D01*
X144257766Y-100518676D01*
X144353253Y-100684064D01*
X144357671Y-100688971D01*
X144357672Y-100688972D01*
X144434006Y-100773749D01*
X144481040Y-100825986D01*
X144635541Y-100938238D01*
X144641569Y-100940922D01*
X144641571Y-100940923D01*
X144803974Y-101013229D01*
X144810005Y-101015914D01*
X144903405Y-101035767D01*
X144990349Y-101054248D01*
X144990354Y-101054248D01*
X144996806Y-101055620D01*
X145150341Y-101055620D01*
X145218462Y-101075622D01*
X145264955Y-101129278D01*
X145270173Y-101142680D01*
X145273159Y-101151870D01*
X145368646Y-101317258D01*
X145373064Y-101322165D01*
X145373065Y-101322166D01*
X145428836Y-101384106D01*
X145459554Y-101448113D01*
X145450789Y-101518567D01*
X145405326Y-101573098D01*
X145337599Y-101594393D01*
X145309002Y-101591662D01*
X145262951Y-101581873D01*
X145262942Y-101581872D01*
X145256487Y-101580500D01*
X145065513Y-101580500D01*
X145059061Y-101581872D01*
X145059056Y-101581872D01*
X144972113Y-101600353D01*
X144878712Y-101620206D01*
X144872682Y-101622891D01*
X144872681Y-101622891D01*
X144710278Y-101695197D01*
X144710276Y-101695198D01*
X144704248Y-101697882D01*
X144698907Y-101701762D01*
X144698906Y-101701763D01*
X144648843Y-101738136D01*
X144549747Y-101810134D01*
X144421960Y-101952056D01*
X144326473Y-102117444D01*
X144267458Y-102299072D01*
X144247496Y-102489000D01*
X144267458Y-102678928D01*
X144326473Y-102860556D01*
X144421960Y-103025944D01*
X144549747Y-103167866D01*
X144704248Y-103280118D01*
X144710276Y-103282802D01*
X144710278Y-103282803D01*
X144746094Y-103298749D01*
X144878712Y-103357794D01*
X144972112Y-103377647D01*
X145059056Y-103396128D01*
X145059061Y-103396128D01*
X145065513Y-103397500D01*
X145256487Y-103397500D01*
X145262939Y-103396128D01*
X145262944Y-103396128D01*
X145349888Y-103377647D01*
X145443288Y-103357794D01*
X145575906Y-103298749D01*
X145611722Y-103282803D01*
X145611724Y-103282802D01*
X145617752Y-103280118D01*
X145772253Y-103167866D01*
X145900040Y-103025944D01*
X145995527Y-102860556D01*
X146054542Y-102678928D01*
X146061156Y-102616000D01*
X147549496Y-102616000D01*
X147569458Y-102805928D01*
X147628473Y-102987556D01*
X147723960Y-103152944D01*
X147851747Y-103294866D01*
X147934664Y-103355109D01*
X147991122Y-103396128D01*
X148006248Y-103407118D01*
X148012276Y-103409802D01*
X148012278Y-103409803D01*
X148174681Y-103482109D01*
X148180712Y-103484794D01*
X148274113Y-103504647D01*
X148361056Y-103523128D01*
X148361061Y-103523128D01*
X148367513Y-103524500D01*
X148558487Y-103524500D01*
X148564939Y-103523128D01*
X148564944Y-103523128D01*
X148651888Y-103504647D01*
X148745288Y-103484794D01*
X148751319Y-103482109D01*
X148913722Y-103409803D01*
X148913724Y-103409802D01*
X148919752Y-103407118D01*
X148934879Y-103396128D01*
X148991336Y-103355109D01*
X149074253Y-103294866D01*
X149202040Y-103152944D01*
X149297527Y-102987556D01*
X149356542Y-102805928D01*
X149376504Y-102616000D01*
X149356542Y-102426072D01*
X149297527Y-102244444D01*
X149202040Y-102079056D01*
X149074253Y-101937134D01*
X148919752Y-101824882D01*
X148913724Y-101822198D01*
X148913722Y-101822197D01*
X148751319Y-101749891D01*
X148751318Y-101749891D01*
X148745288Y-101747206D01*
X148651887Y-101727353D01*
X148564944Y-101708872D01*
X148564939Y-101708872D01*
X148558487Y-101707500D01*
X148367513Y-101707500D01*
X148361061Y-101708872D01*
X148361056Y-101708872D01*
X148274113Y-101727353D01*
X148180712Y-101747206D01*
X148174682Y-101749891D01*
X148174681Y-101749891D01*
X148012278Y-101822197D01*
X148012276Y-101822198D01*
X148006248Y-101824882D01*
X147851747Y-101937134D01*
X147723960Y-102079056D01*
X147628473Y-102244444D01*
X147569458Y-102426072D01*
X147549496Y-102616000D01*
X146061156Y-102616000D01*
X146074504Y-102489000D01*
X146054542Y-102299072D01*
X145995527Y-102117444D01*
X145900040Y-101952056D01*
X145839850Y-101885208D01*
X145809132Y-101821201D01*
X145817897Y-101750747D01*
X145863360Y-101696216D01*
X145931087Y-101674921D01*
X145959684Y-101677652D01*
X146005735Y-101687441D01*
X146005744Y-101687442D01*
X146012199Y-101688814D01*
X146203173Y-101688814D01*
X146209625Y-101687442D01*
X146209630Y-101687442D01*
X146296573Y-101668961D01*
X146389974Y-101649108D01*
X146448859Y-101622891D01*
X146558408Y-101574117D01*
X146558410Y-101574116D01*
X146564438Y-101571432D01*
X146718939Y-101459180D01*
X146846726Y-101317258D01*
X146942213Y-101151870D01*
X147001228Y-100970242D01*
X147003759Y-100946166D01*
X147020500Y-100786879D01*
X147021190Y-100780314D01*
X147002998Y-100607226D01*
X147001918Y-100596949D01*
X147001918Y-100596947D01*
X147001228Y-100590386D01*
X146942213Y-100408758D01*
X146846726Y-100243370D01*
X146831290Y-100226226D01*
X146723361Y-100106359D01*
X146723360Y-100106358D01*
X146718939Y-100101448D01*
X146683913Y-100076000D01*
X148184496Y-100076000D01*
X148204458Y-100265928D01*
X148263473Y-100447556D01*
X148358960Y-100612944D01*
X148486747Y-100754866D01*
X148641248Y-100867118D01*
X148647276Y-100869802D01*
X148647278Y-100869803D01*
X148809681Y-100942109D01*
X148815712Y-100944794D01*
X148909112Y-100964647D01*
X148996056Y-100983128D01*
X148996061Y-100983128D01*
X149002513Y-100984500D01*
X149193487Y-100984500D01*
X149199939Y-100983128D01*
X149199944Y-100983128D01*
X149286888Y-100964647D01*
X149380288Y-100944794D01*
X149386319Y-100942109D01*
X149548722Y-100869803D01*
X149548724Y-100869802D01*
X149554752Y-100867118D01*
X149709253Y-100754866D01*
X149837040Y-100612944D01*
X149932527Y-100447556D01*
X149991542Y-100265928D01*
X150011504Y-100076000D01*
X150002381Y-99989196D01*
X149992232Y-99892635D01*
X149992232Y-99892633D01*
X149991542Y-99886072D01*
X149932527Y-99704444D01*
X149927075Y-99695000D01*
X149888024Y-99627362D01*
X149837040Y-99539056D01*
X149769794Y-99464371D01*
X149713675Y-99402045D01*
X149713674Y-99402044D01*
X149709253Y-99397134D01*
X149554752Y-99284882D01*
X149548724Y-99282198D01*
X149548722Y-99282197D01*
X149386319Y-99209891D01*
X149386318Y-99209891D01*
X149380288Y-99207206D01*
X149286888Y-99187353D01*
X149199944Y-99168872D01*
X149199939Y-99168872D01*
X149193487Y-99167500D01*
X149002513Y-99167500D01*
X148996061Y-99168872D01*
X148996056Y-99168872D01*
X148909113Y-99187353D01*
X148815712Y-99207206D01*
X148809682Y-99209891D01*
X148809681Y-99209891D01*
X148647278Y-99282197D01*
X148647276Y-99282198D01*
X148641248Y-99284882D01*
X148486747Y-99397134D01*
X148482326Y-99402044D01*
X148482325Y-99402045D01*
X148426207Y-99464371D01*
X148358960Y-99539056D01*
X148307976Y-99627362D01*
X148268926Y-99695000D01*
X148263473Y-99704444D01*
X148204458Y-99886072D01*
X148203768Y-99892633D01*
X148203768Y-99892635D01*
X148193619Y-99989196D01*
X148184496Y-100076000D01*
X146683913Y-100076000D01*
X146564438Y-99989196D01*
X146558410Y-99986512D01*
X146558408Y-99986511D01*
X146396005Y-99914205D01*
X146396004Y-99914205D01*
X146389974Y-99911520D01*
X146294405Y-99891206D01*
X146209630Y-99873186D01*
X146209625Y-99873186D01*
X146203173Y-99871814D01*
X146049638Y-99871814D01*
X145981517Y-99851812D01*
X145935024Y-99798156D01*
X145929806Y-99784754D01*
X145928862Y-99781848D01*
X145928861Y-99781846D01*
X145926820Y-99775564D01*
X145831333Y-99610176D01*
X145742607Y-99511635D01*
X145707968Y-99473165D01*
X145707964Y-99473161D01*
X145703546Y-99468254D01*
X145549045Y-99356002D01*
X145543017Y-99353318D01*
X145543015Y-99353317D01*
X145380612Y-99281011D01*
X145380611Y-99281011D01*
X145374581Y-99278326D01*
X145281181Y-99258473D01*
X145194237Y-99239992D01*
X145194232Y-99239992D01*
X145187780Y-99238620D01*
X144996806Y-99238620D01*
X144990354Y-99239992D01*
X144990349Y-99239992D01*
X144903406Y-99258473D01*
X144810005Y-99278326D01*
X144803975Y-99281011D01*
X144803974Y-99281011D01*
X144641571Y-99353317D01*
X144641569Y-99353318D01*
X144635541Y-99356002D01*
X144481040Y-99468254D01*
X144370091Y-99591476D01*
X144309646Y-99628714D01*
X144238662Y-99627362D01*
X144179678Y-99587848D01*
X144151146Y-99520334D01*
X144150232Y-99511635D01*
X144150232Y-99511633D01*
X144149542Y-99505072D01*
X144090527Y-99323444D01*
X143995040Y-99158056D01*
X143985997Y-99148012D01*
X143871674Y-99021044D01*
X143867253Y-99016134D01*
X143867889Y-99015561D01*
X143833522Y-98959774D01*
X143834876Y-98888791D01*
X143859763Y-98845208D01*
X143859741Y-98845192D01*
X143859889Y-98844988D01*
X143861437Y-98842277D01*
X143868040Y-98834944D01*
X143963527Y-98669556D01*
X144022542Y-98487928D01*
X144042504Y-98298000D01*
X144022542Y-98108072D01*
X143963527Y-97926444D01*
X143868040Y-97761056D01*
X143740253Y-97619134D01*
X143585752Y-97506882D01*
X143579724Y-97504198D01*
X143579722Y-97504197D01*
X143417319Y-97431891D01*
X143417318Y-97431891D01*
X143411288Y-97429206D01*
X143317887Y-97409353D01*
X143230944Y-97390872D01*
X143230939Y-97390872D01*
X143224487Y-97389500D01*
X143033513Y-97389500D01*
X143027061Y-97390872D01*
X143027056Y-97390872D01*
X142940113Y-97409353D01*
X142846712Y-97429206D01*
X142840682Y-97431891D01*
X142840681Y-97431891D01*
X142678278Y-97504197D01*
X142678276Y-97504198D01*
X142672248Y-97506882D01*
X142517747Y-97619134D01*
X142389960Y-97761056D01*
X142294473Y-97926444D01*
X142235458Y-98108072D01*
X142215496Y-98298000D01*
X132588500Y-98298000D01*
X132588500Y-96266000D01*
X148057488Y-96266000D01*
X148077450Y-96455928D01*
X148136465Y-96637556D01*
X148231952Y-96802944D01*
X148359739Y-96944866D01*
X148514240Y-97057118D01*
X148520268Y-97059802D01*
X148520270Y-97059803D01*
X148682673Y-97132109D01*
X148688704Y-97134794D01*
X148782105Y-97154647D01*
X148869048Y-97173128D01*
X148869053Y-97173128D01*
X148875505Y-97174500D01*
X149066479Y-97174500D01*
X149072931Y-97173128D01*
X149072936Y-97173128D01*
X149159879Y-97154647D01*
X149253280Y-97134794D01*
X149259311Y-97132109D01*
X149421714Y-97059803D01*
X149421716Y-97059802D01*
X149427744Y-97057118D01*
X149582245Y-96944866D01*
X149710032Y-96802944D01*
X149805519Y-96637556D01*
X149864534Y-96455928D01*
X149884496Y-96266000D01*
X149864534Y-96076072D01*
X149805519Y-95894444D01*
X149710032Y-95729056D01*
X149582245Y-95587134D01*
X149553755Y-95566435D01*
X149510403Y-95510213D01*
X149504328Y-95439477D01*
X149537460Y-95376685D01*
X149599280Y-95341774D01*
X149627818Y-95338500D01*
X150758134Y-95338500D01*
X150820316Y-95331745D01*
X150956705Y-95280615D01*
X151073261Y-95193261D01*
X151160615Y-95076705D01*
X151182799Y-95017529D01*
X151204598Y-94959382D01*
X151247240Y-94902618D01*
X151313802Y-94877918D01*
X151383150Y-94893126D01*
X151417817Y-94921114D01*
X151446250Y-94953938D01*
X151618126Y-95096632D01*
X151811000Y-95209338D01*
X152019692Y-95289030D01*
X152024760Y-95290061D01*
X152024763Y-95290062D01*
X152132017Y-95311883D01*
X152238597Y-95333567D01*
X152243772Y-95333757D01*
X152243774Y-95333757D01*
X152456673Y-95341564D01*
X152456677Y-95341564D01*
X152461837Y-95341753D01*
X152466957Y-95341097D01*
X152466959Y-95341097D01*
X152678288Y-95314025D01*
X152678289Y-95314025D01*
X152683416Y-95313368D01*
X152688366Y-95311883D01*
X152892429Y-95250661D01*
X152892434Y-95250659D01*
X152897384Y-95249174D01*
X153097994Y-95150896D01*
X153279860Y-95021173D01*
X153438096Y-94863489D01*
X153568453Y-94682077D01*
X153569776Y-94683028D01*
X153616645Y-94639857D01*
X153686580Y-94627625D01*
X153752026Y-94655144D01*
X153779875Y-94686994D01*
X153839987Y-94785088D01*
X153986250Y-94953938D01*
X154158126Y-95096632D01*
X154351000Y-95209338D01*
X154559692Y-95289030D01*
X154564760Y-95290061D01*
X154564763Y-95290062D01*
X154672017Y-95311883D01*
X154778597Y-95333567D01*
X154783772Y-95333757D01*
X154783774Y-95333757D01*
X154996673Y-95341564D01*
X154996677Y-95341564D01*
X155001837Y-95341753D01*
X155006957Y-95341097D01*
X155006959Y-95341097D01*
X155218288Y-95314025D01*
X155218289Y-95314025D01*
X155223416Y-95313368D01*
X155228366Y-95311883D01*
X155432429Y-95250661D01*
X155432434Y-95250659D01*
X155437384Y-95249174D01*
X155637994Y-95150896D01*
X155819860Y-95021173D01*
X155978096Y-94863489D01*
X156108453Y-94682077D01*
X156109776Y-94683028D01*
X156156645Y-94639857D01*
X156226580Y-94627625D01*
X156292026Y-94655144D01*
X156319875Y-94686994D01*
X156379987Y-94785088D01*
X156526250Y-94953938D01*
X156698126Y-95096632D01*
X156891000Y-95209338D01*
X157099692Y-95289030D01*
X157104760Y-95290061D01*
X157104763Y-95290062D01*
X157212017Y-95311883D01*
X157318597Y-95333567D01*
X157323772Y-95333757D01*
X157323774Y-95333757D01*
X157536673Y-95341564D01*
X157536677Y-95341564D01*
X157541837Y-95341753D01*
X157546957Y-95341097D01*
X157546959Y-95341097D01*
X157758288Y-95314025D01*
X157758289Y-95314025D01*
X157763416Y-95313368D01*
X157768366Y-95311883D01*
X157972429Y-95250661D01*
X157972434Y-95250659D01*
X157977384Y-95249174D01*
X158177994Y-95150896D01*
X158359860Y-95021173D01*
X158518096Y-94863489D01*
X158648453Y-94682077D01*
X158669320Y-94639857D01*
X158745136Y-94486453D01*
X158745137Y-94486451D01*
X158747430Y-94481811D01*
X158812370Y-94268069D01*
X158841529Y-94046590D01*
X158843156Y-93980000D01*
X158824852Y-93757361D01*
X158770431Y-93540702D01*
X158681354Y-93335840D01*
X158560014Y-93148277D01*
X158409670Y-92983051D01*
X158405619Y-92979852D01*
X158405615Y-92979848D01*
X158238414Y-92847800D01*
X158238410Y-92847798D01*
X158234359Y-92844598D01*
X158038789Y-92736638D01*
X158033920Y-92734914D01*
X158033916Y-92734912D01*
X157833087Y-92663795D01*
X157833083Y-92663794D01*
X157828212Y-92662069D01*
X157823119Y-92661162D01*
X157823116Y-92661161D01*
X157613373Y-92623800D01*
X157613367Y-92623799D01*
X157608284Y-92622894D01*
X157534452Y-92621992D01*
X157390081Y-92620228D01*
X157390079Y-92620228D01*
X157384911Y-92620165D01*
X157164091Y-92653955D01*
X156951756Y-92723357D01*
X156753607Y-92826507D01*
X156749474Y-92829610D01*
X156749471Y-92829612D01*
X156666450Y-92891946D01*
X156574965Y-92960635D01*
X156571393Y-92964373D01*
X156463729Y-93077037D01*
X156420629Y-93122138D01*
X156313201Y-93279621D01*
X156258293Y-93324621D01*
X156187768Y-93332792D01*
X156124021Y-93301538D01*
X156103324Y-93277054D01*
X156022822Y-93152617D01*
X156022820Y-93152614D01*
X156020014Y-93148277D01*
X155869670Y-92983051D01*
X155865619Y-92979852D01*
X155865615Y-92979848D01*
X155698414Y-92847800D01*
X155698410Y-92847798D01*
X155694359Y-92844598D01*
X155498789Y-92736638D01*
X155493920Y-92734914D01*
X155493916Y-92734912D01*
X155293087Y-92663795D01*
X155293083Y-92663794D01*
X155288212Y-92662069D01*
X155283119Y-92661162D01*
X155283116Y-92661161D01*
X155073373Y-92623800D01*
X155073367Y-92623799D01*
X155068284Y-92622894D01*
X154994452Y-92621992D01*
X154850081Y-92620228D01*
X154850079Y-92620228D01*
X154844911Y-92620165D01*
X154624091Y-92653955D01*
X154411756Y-92723357D01*
X154213607Y-92826507D01*
X154209474Y-92829610D01*
X154209471Y-92829612D01*
X154126450Y-92891946D01*
X154034965Y-92960635D01*
X154031393Y-92964373D01*
X153923729Y-93077037D01*
X153880629Y-93122138D01*
X153773201Y-93279621D01*
X153718293Y-93324621D01*
X153647768Y-93332792D01*
X153584021Y-93301538D01*
X153563324Y-93277054D01*
X153482822Y-93152617D01*
X153482820Y-93152614D01*
X153480014Y-93148277D01*
X153329670Y-92983051D01*
X153325619Y-92979852D01*
X153325615Y-92979848D01*
X153158414Y-92847800D01*
X153158410Y-92847798D01*
X153154359Y-92844598D01*
X152958789Y-92736638D01*
X152953920Y-92734914D01*
X152953916Y-92734912D01*
X152753087Y-92663795D01*
X152753083Y-92663794D01*
X152748212Y-92662069D01*
X152743119Y-92661162D01*
X152743116Y-92661161D01*
X152533373Y-92623800D01*
X152533367Y-92623799D01*
X152528284Y-92622894D01*
X152454452Y-92621992D01*
X152310081Y-92620228D01*
X152310079Y-92620228D01*
X152304911Y-92620165D01*
X152084091Y-92653955D01*
X151871756Y-92723357D01*
X151673607Y-92826507D01*
X151669474Y-92829610D01*
X151669471Y-92829612D01*
X151586450Y-92891946D01*
X151494965Y-92960635D01*
X151438537Y-93019684D01*
X151414283Y-93045064D01*
X151352759Y-93080494D01*
X151281846Y-93077037D01*
X151224060Y-93035791D01*
X151205207Y-93002243D01*
X151163767Y-92891703D01*
X151160615Y-92883295D01*
X151073261Y-92766739D01*
X150956705Y-92679385D01*
X150820316Y-92628255D01*
X150758134Y-92621500D01*
X148961866Y-92621500D01*
X148899684Y-92628255D01*
X148763295Y-92679385D01*
X148646739Y-92766739D01*
X148559385Y-92883295D01*
X148508255Y-93019684D01*
X148501500Y-93081866D01*
X148501500Y-94878134D01*
X148508255Y-94940316D01*
X148559385Y-95076705D01*
X148646739Y-95193261D01*
X148661406Y-95204253D01*
X148703921Y-95261111D01*
X148708947Y-95331929D01*
X148674888Y-95394223D01*
X148637090Y-95420186D01*
X148520270Y-95472197D01*
X148520268Y-95472198D01*
X148514240Y-95474882D01*
X148359739Y-95587134D01*
X148231952Y-95729056D01*
X148136465Y-95894444D01*
X148077450Y-96076072D01*
X148057488Y-96266000D01*
X132588500Y-96266000D01*
X132588500Y-94874669D01*
X133262001Y-94874669D01*
X133262371Y-94881490D01*
X133267895Y-94932352D01*
X133271521Y-94947604D01*
X133316676Y-95068054D01*
X133325214Y-95083649D01*
X133401715Y-95185724D01*
X133414276Y-95198285D01*
X133516351Y-95274786D01*
X133531946Y-95283324D01*
X133652394Y-95328478D01*
X133667649Y-95332105D01*
X133718514Y-95337631D01*
X133725328Y-95338000D01*
X134347885Y-95338000D01*
X134363124Y-95333525D01*
X134364329Y-95332135D01*
X134366000Y-95324452D01*
X134366000Y-95319884D01*
X134874000Y-95319884D01*
X134878475Y-95335123D01*
X134879865Y-95336328D01*
X134887548Y-95337999D01*
X135514669Y-95337999D01*
X135521490Y-95337629D01*
X135572352Y-95332105D01*
X135587604Y-95328479D01*
X135708054Y-95283324D01*
X135723649Y-95274786D01*
X135825724Y-95198285D01*
X135838285Y-95185724D01*
X135914786Y-95083649D01*
X135923324Y-95068054D01*
X135964225Y-94958952D01*
X136006867Y-94902188D01*
X136073428Y-94877488D01*
X136142777Y-94892696D01*
X136177444Y-94920684D01*
X136202865Y-94950031D01*
X136202869Y-94950035D01*
X136206250Y-94953938D01*
X136378126Y-95096632D01*
X136571000Y-95209338D01*
X136779692Y-95289030D01*
X136784760Y-95290061D01*
X136784763Y-95290062D01*
X136892017Y-95311883D01*
X136998597Y-95333567D01*
X137003772Y-95333757D01*
X137003774Y-95333757D01*
X137216673Y-95341564D01*
X137216677Y-95341564D01*
X137221837Y-95341753D01*
X137226957Y-95341097D01*
X137226959Y-95341097D01*
X137438288Y-95314025D01*
X137438289Y-95314025D01*
X137443416Y-95313368D01*
X137448366Y-95311883D01*
X137652429Y-95250661D01*
X137652434Y-95250659D01*
X137657384Y-95249174D01*
X137857994Y-95150896D01*
X138039860Y-95021173D01*
X138198096Y-94863489D01*
X138328453Y-94682077D01*
X138329776Y-94683028D01*
X138376645Y-94639857D01*
X138446580Y-94627625D01*
X138512026Y-94655144D01*
X138539875Y-94686994D01*
X138599987Y-94785088D01*
X138746250Y-94953938D01*
X138918126Y-95096632D01*
X139111000Y-95209338D01*
X139319692Y-95289030D01*
X139324760Y-95290061D01*
X139324763Y-95290062D01*
X139432017Y-95311883D01*
X139538597Y-95333567D01*
X139543772Y-95333757D01*
X139543774Y-95333757D01*
X139756673Y-95341564D01*
X139756677Y-95341564D01*
X139761837Y-95341753D01*
X139766957Y-95341097D01*
X139766959Y-95341097D01*
X139978288Y-95314025D01*
X139978289Y-95314025D01*
X139983416Y-95313368D01*
X139988366Y-95311883D01*
X140192429Y-95250661D01*
X140192434Y-95250659D01*
X140197384Y-95249174D01*
X140397994Y-95150896D01*
X140579860Y-95021173D01*
X140738096Y-94863489D01*
X140868453Y-94682077D01*
X140869776Y-94683028D01*
X140916645Y-94639857D01*
X140986580Y-94627625D01*
X141052026Y-94655144D01*
X141079875Y-94686994D01*
X141139987Y-94785088D01*
X141286250Y-94953938D01*
X141458126Y-95096632D01*
X141651000Y-95209338D01*
X141859692Y-95289030D01*
X141864760Y-95290061D01*
X141864763Y-95290062D01*
X141972017Y-95311883D01*
X142078597Y-95333567D01*
X142083772Y-95333757D01*
X142083774Y-95333757D01*
X142296673Y-95341564D01*
X142296677Y-95341564D01*
X142301837Y-95341753D01*
X142306957Y-95341097D01*
X142306959Y-95341097D01*
X142518288Y-95314025D01*
X142518289Y-95314025D01*
X142523416Y-95313368D01*
X142528366Y-95311883D01*
X142732429Y-95250661D01*
X142732434Y-95250659D01*
X142737384Y-95249174D01*
X142937994Y-95150896D01*
X143119860Y-95021173D01*
X143278096Y-94863489D01*
X143408453Y-94682077D01*
X143429320Y-94639857D01*
X143505136Y-94486453D01*
X143505137Y-94486451D01*
X143507430Y-94481811D01*
X143572370Y-94268069D01*
X143601529Y-94046590D01*
X143603156Y-93980000D01*
X143584852Y-93757361D01*
X143530431Y-93540702D01*
X143441354Y-93335840D01*
X143320014Y-93148277D01*
X143169670Y-92983051D01*
X143165619Y-92979852D01*
X143165615Y-92979848D01*
X142998414Y-92847800D01*
X142998410Y-92847798D01*
X142994359Y-92844598D01*
X142798789Y-92736638D01*
X142793920Y-92734914D01*
X142793916Y-92734912D01*
X142593087Y-92663795D01*
X142593083Y-92663794D01*
X142588212Y-92662069D01*
X142583119Y-92661162D01*
X142583116Y-92661161D01*
X142373373Y-92623800D01*
X142373367Y-92623799D01*
X142368284Y-92622894D01*
X142294452Y-92621992D01*
X142150081Y-92620228D01*
X142150079Y-92620228D01*
X142144911Y-92620165D01*
X141924091Y-92653955D01*
X141711756Y-92723357D01*
X141513607Y-92826507D01*
X141509474Y-92829610D01*
X141509471Y-92829612D01*
X141426450Y-92891946D01*
X141334965Y-92960635D01*
X141331393Y-92964373D01*
X141223729Y-93077037D01*
X141180629Y-93122138D01*
X141073201Y-93279621D01*
X141018293Y-93324621D01*
X140947768Y-93332792D01*
X140884021Y-93301538D01*
X140863324Y-93277054D01*
X140782822Y-93152617D01*
X140782820Y-93152614D01*
X140780014Y-93148277D01*
X140629670Y-92983051D01*
X140625619Y-92979852D01*
X140625615Y-92979848D01*
X140458414Y-92847800D01*
X140458410Y-92847798D01*
X140454359Y-92844598D01*
X140258789Y-92736638D01*
X140253920Y-92734914D01*
X140253916Y-92734912D01*
X140053087Y-92663795D01*
X140053083Y-92663794D01*
X140048212Y-92662069D01*
X140043119Y-92661162D01*
X140043116Y-92661161D01*
X139833373Y-92623800D01*
X139833367Y-92623799D01*
X139828284Y-92622894D01*
X139754452Y-92621992D01*
X139610081Y-92620228D01*
X139610079Y-92620228D01*
X139604911Y-92620165D01*
X139384091Y-92653955D01*
X139171756Y-92723357D01*
X138973607Y-92826507D01*
X138969474Y-92829610D01*
X138969471Y-92829612D01*
X138886450Y-92891946D01*
X138794965Y-92960635D01*
X138791393Y-92964373D01*
X138683729Y-93077037D01*
X138640629Y-93122138D01*
X138533201Y-93279621D01*
X138478293Y-93324621D01*
X138407768Y-93332792D01*
X138344021Y-93301538D01*
X138323324Y-93277054D01*
X138242822Y-93152617D01*
X138242820Y-93152614D01*
X138240014Y-93148277D01*
X138089670Y-92983051D01*
X138085619Y-92979852D01*
X138085615Y-92979848D01*
X137918414Y-92847800D01*
X137918410Y-92847798D01*
X137914359Y-92844598D01*
X137718789Y-92736638D01*
X137713920Y-92734914D01*
X137713916Y-92734912D01*
X137513087Y-92663795D01*
X137513083Y-92663794D01*
X137508212Y-92662069D01*
X137503119Y-92661162D01*
X137503116Y-92661161D01*
X137293373Y-92623800D01*
X137293367Y-92623799D01*
X137288284Y-92622894D01*
X137214452Y-92621992D01*
X137070081Y-92620228D01*
X137070079Y-92620228D01*
X137064911Y-92620165D01*
X136844091Y-92653955D01*
X136631756Y-92723357D01*
X136433607Y-92826507D01*
X136429474Y-92829610D01*
X136429471Y-92829612D01*
X136346450Y-92891946D01*
X136254965Y-92960635D01*
X136251393Y-92964373D01*
X136173898Y-93045466D01*
X136112374Y-93080895D01*
X136041462Y-93077438D01*
X135983676Y-93036192D01*
X135964823Y-93002644D01*
X135923324Y-92891946D01*
X135914786Y-92876351D01*
X135838285Y-92774276D01*
X135825724Y-92761715D01*
X135723649Y-92685214D01*
X135708054Y-92676676D01*
X135587606Y-92631522D01*
X135572351Y-92627895D01*
X135521486Y-92622369D01*
X135514672Y-92622000D01*
X134892115Y-92622000D01*
X134876876Y-92626475D01*
X134875671Y-92627865D01*
X134874000Y-92635548D01*
X134874000Y-95319884D01*
X134366000Y-95319884D01*
X134366000Y-94252115D01*
X134361525Y-94236876D01*
X134360135Y-94235671D01*
X134352452Y-94234000D01*
X133280116Y-94234000D01*
X133264877Y-94238475D01*
X133263672Y-94239865D01*
X133262001Y-94247548D01*
X133262001Y-94874669D01*
X132588500Y-94874669D01*
X132588500Y-93707885D01*
X133262000Y-93707885D01*
X133266475Y-93723124D01*
X133267865Y-93724329D01*
X133275548Y-93726000D01*
X134347885Y-93726000D01*
X134363124Y-93721525D01*
X134364329Y-93720135D01*
X134366000Y-93712452D01*
X134366000Y-92640116D01*
X134361525Y-92624877D01*
X134360135Y-92623672D01*
X134352452Y-92622001D01*
X133725331Y-92622001D01*
X133718510Y-92622371D01*
X133667648Y-92627895D01*
X133652396Y-92631521D01*
X133531946Y-92676676D01*
X133516351Y-92685214D01*
X133414276Y-92761715D01*
X133401715Y-92774276D01*
X133325214Y-92876351D01*
X133316676Y-92891946D01*
X133271522Y-93012394D01*
X133267895Y-93027649D01*
X133262369Y-93078514D01*
X133262000Y-93085328D01*
X133262000Y-93707885D01*
X132588500Y-93707885D01*
X132588500Y-92074500D01*
X132608502Y-92006379D01*
X132662158Y-91959886D01*
X132714500Y-91948500D01*
X159385500Y-91948500D01*
X159453621Y-91968502D01*
G37*
G04 #@! TD.AperFunction*
M02*
