G04 #@! TF.GenerationSoftware,KiCad,Pcbnew,6.0.5+dfsg-1~bpo11+1*
G04 #@! TF.CreationDate,2022-12-25T14:08:46+00:00*
G04 #@! TF.ProjectId,stm32l0_mod_source,73746d33-326c-4305-9f6d-6f645f736f75,0.1*
G04 #@! TF.SameCoordinates,Original*
G04 #@! TF.FileFunction,Copper,L4,Bot*
G04 #@! TF.FilePolarity,Positive*
%FSLAX46Y46*%
G04 Gerber Fmt 4.6, Leading zero omitted, Abs format (unit mm)*
G04 Created by KiCad (PCBNEW 6.0.5+dfsg-1~bpo11+1) date 2022-12-25 14:08:46*
%MOMM*%
%LPD*%
G01*
G04 APERTURE LIST*
G04 #@! TA.AperFunction,ComponentPad*
%ADD10R,1.700000X1.700000*%
G04 #@! TD*
G04 #@! TA.AperFunction,ComponentPad*
%ADD11O,1.700000X1.700000*%
G04 #@! TD*
G04 #@! TA.AperFunction,ViaPad*
%ADD12C,0.800000*%
G04 #@! TD*
G04 #@! TA.AperFunction,Conductor*
%ADD13C,0.400000*%
G04 #@! TD*
G04 APERTURE END LIST*
D10*
X149860000Y-93980000D03*
D11*
X152400000Y-93980000D03*
X154940000Y-93980000D03*
X157480000Y-93980000D03*
D10*
X134620000Y-93980000D03*
D11*
X137160000Y-93980000D03*
X139700000Y-93980000D03*
X142240000Y-93980000D03*
D10*
X134620000Y-106680000D03*
D11*
X137160000Y-106680000D03*
X139700000Y-106680000D03*
X142240000Y-106680000D03*
X144780000Y-106680000D03*
X147320000Y-106680000D03*
X149860000Y-106680000D03*
X152400000Y-106680000D03*
X154940000Y-106680000D03*
X157480000Y-106680000D03*
D12*
X148970992Y-96266000D03*
X145161000Y-102489000D03*
X143256000Y-99695000D03*
X148463000Y-102616000D03*
X149098000Y-100076000D03*
X143129000Y-98298000D03*
X145092293Y-100147120D03*
X146107686Y-100780314D03*
X143764000Y-96139000D03*
X156337000Y-100457000D03*
D13*
X145161000Y-101600000D02*
X143256000Y-99695000D01*
X145161000Y-102489000D02*
X145161000Y-101600000D01*
X144780000Y-106680000D02*
X148463000Y-102997000D01*
X148463000Y-102997000D02*
X148463000Y-102616000D01*
X154940000Y-93980000D02*
X149098000Y-99822000D01*
X149098000Y-99822000D02*
X149098000Y-100076000D01*
X141478000Y-98298000D02*
X143129000Y-98298000D01*
X137160000Y-93980000D02*
X141478000Y-98298000D01*
X147387375Y-100876001D02*
X146258495Y-99747121D01*
X148882001Y-100876001D02*
X147387375Y-100876001D01*
X154940000Y-106680000D02*
X153543000Y-105283000D01*
X152019000Y-105283000D02*
X150749000Y-104013000D01*
X150749000Y-102743000D02*
X148882001Y-100876001D01*
X153543000Y-105283000D02*
X152019000Y-105283000D01*
X150749000Y-104013000D02*
X150749000Y-102743000D01*
X145492292Y-99747121D02*
X145092293Y-100147120D01*
X146258495Y-99747121D02*
X145492292Y-99747121D01*
X148758002Y-101727000D02*
X147054372Y-101727000D01*
X149987000Y-104267000D02*
X149987000Y-102955998D01*
X147054372Y-101727000D02*
X146107686Y-100780314D01*
X152400000Y-106680000D02*
X149987000Y-104267000D01*
X149987000Y-102955998D02*
X148758002Y-101727000D01*
M02*
