G04 #@! TF.GenerationSoftware,KiCad,Pcbnew,6.0.5+dfsg-1~bpo11+1*
G04 #@! TF.CreationDate,2022-12-25T14:08:46+00:00*
G04 #@! TF.ProjectId,stm32l0_mod_source,73746d33-326c-4305-9f6d-6f645f736f75,0.1*
G04 #@! TF.SameCoordinates,Original*
G04 #@! TF.FileFunction,Legend,Bot*
G04 #@! TF.FilePolarity,Positive*
%FSLAX46Y46*%
G04 Gerber Fmt 4.6, Leading zero omitted, Abs format (unit mm)*
G04 Created by KiCad (PCBNEW 6.0.5+dfsg-1~bpo11+1) date 2022-12-25 14:08:46*
%MOMM*%
%LPD*%
G01*
G04 APERTURE LIST*
%ADD10C,0.120000*%
%ADD11C,0.150000*%
%ADD12R,1.700000X1.700000*%
%ADD13O,1.700000X1.700000*%
G04 APERTURE END LIST*
D10*
X134620000Y-104140000D02*
X134620000Y-105206800D01*
X134620000Y-102235000D02*
X134620000Y-104140000D01*
X134620000Y-104140000D02*
X137160000Y-104140000D01*
X134620000Y-96520000D02*
X134620000Y-95250000D01*
X137160000Y-105206800D02*
X137160000Y-104140000D01*
D11*
X147486666Y-103217261D02*
X147486666Y-103693452D01*
X147772380Y-103122023D02*
X146772380Y-103455357D01*
X147772380Y-103788690D01*
X147772380Y-104122023D02*
X146772380Y-104122023D01*
X146867619Y-104550595D02*
X146820000Y-104598214D01*
X146772380Y-104693452D01*
X146772380Y-104931547D01*
X146820000Y-105026785D01*
X146867619Y-105074404D01*
X146962857Y-105122023D01*
X147058095Y-105122023D01*
X147200952Y-105074404D01*
X147772380Y-104502976D01*
X147772380Y-105122023D01*
X155392380Y-95585595D02*
X154392380Y-95585595D01*
X154392380Y-95823690D01*
X154440000Y-95966547D01*
X154535238Y-96061785D01*
X154630476Y-96109404D01*
X154820952Y-96157023D01*
X154963809Y-96157023D01*
X155154285Y-96109404D01*
X155249523Y-96061785D01*
X155344761Y-95966547D01*
X155392380Y-95823690D01*
X155392380Y-95585595D01*
X155392380Y-96585595D02*
X154392380Y-96585595D01*
X154392380Y-97252261D02*
X154392380Y-97442738D01*
X154440000Y-97537976D01*
X154535238Y-97633214D01*
X154725714Y-97680833D01*
X155059047Y-97680833D01*
X155249523Y-97633214D01*
X155344761Y-97537976D01*
X155392380Y-97442738D01*
X155392380Y-97252261D01*
X155344761Y-97157023D01*
X155249523Y-97061785D01*
X155059047Y-97014166D01*
X154725714Y-97014166D01*
X154535238Y-97061785D01*
X154440000Y-97157023D01*
X154392380Y-97252261D01*
X154487619Y-98061785D02*
X154440000Y-98109404D01*
X154392380Y-98204642D01*
X154392380Y-98442738D01*
X154440000Y-98537976D01*
X154487619Y-98585595D01*
X154582857Y-98633214D01*
X154678095Y-98633214D01*
X154820952Y-98585595D01*
X155392380Y-98014166D01*
X155392380Y-98633214D01*
X156980000Y-96109404D02*
X156932380Y-96014166D01*
X156932380Y-95871309D01*
X156980000Y-95728452D01*
X157075238Y-95633214D01*
X157170476Y-95585595D01*
X157360952Y-95537976D01*
X157503809Y-95537976D01*
X157694285Y-95585595D01*
X157789523Y-95633214D01*
X157884761Y-95728452D01*
X157932380Y-95871309D01*
X157932380Y-95966547D01*
X157884761Y-96109404D01*
X157837142Y-96157023D01*
X157503809Y-96157023D01*
X157503809Y-95966547D01*
X157932380Y-96585595D02*
X156932380Y-96585595D01*
X157932380Y-97157023D01*
X156932380Y-97157023D01*
X157932380Y-97633214D02*
X156932380Y-97633214D01*
X156932380Y-97871309D01*
X156980000Y-98014166D01*
X157075238Y-98109404D01*
X157170476Y-98157023D01*
X157360952Y-98204642D01*
X157503809Y-98204642D01*
X157694285Y-98157023D01*
X157789523Y-98109404D01*
X157884761Y-98014166D01*
X157932380Y-97871309D01*
X157932380Y-97633214D01*
X144946666Y-103217261D02*
X144946666Y-103693452D01*
X145232380Y-103122023D02*
X144232380Y-103455357D01*
X145232380Y-103788690D01*
X145232380Y-104122023D02*
X144232380Y-104122023D01*
X145232380Y-105122023D02*
X145232380Y-104550595D01*
X145232380Y-104836309D02*
X144232380Y-104836309D01*
X144375238Y-104741071D01*
X144470476Y-104645833D01*
X144518095Y-104550595D01*
X155392380Y-102074404D02*
X154392380Y-102074404D01*
X154392380Y-102312500D01*
X154440000Y-102455357D01*
X154535238Y-102550595D01*
X154630476Y-102598214D01*
X154820952Y-102645833D01*
X154963809Y-102645833D01*
X155154285Y-102598214D01*
X155249523Y-102550595D01*
X155344761Y-102455357D01*
X155392380Y-102312500D01*
X155392380Y-102074404D01*
X155392380Y-103074404D02*
X154392380Y-103074404D01*
X154392380Y-103741071D02*
X154392380Y-103931547D01*
X154440000Y-104026785D01*
X154535238Y-104122023D01*
X154725714Y-104169642D01*
X155059047Y-104169642D01*
X155249523Y-104122023D01*
X155344761Y-104026785D01*
X155392380Y-103931547D01*
X155392380Y-103741071D01*
X155344761Y-103645833D01*
X155249523Y-103550595D01*
X155059047Y-103502976D01*
X154725714Y-103502976D01*
X154535238Y-103550595D01*
X154440000Y-103645833D01*
X154392380Y-103741071D01*
X155392380Y-105122023D02*
X155392380Y-104550595D01*
X155392380Y-104836309D02*
X154392380Y-104836309D01*
X154535238Y-104741071D01*
X154630476Y-104645833D01*
X154678095Y-104550595D01*
X139200000Y-96109404D02*
X139152380Y-96014166D01*
X139152380Y-95871309D01*
X139200000Y-95728452D01*
X139295238Y-95633214D01*
X139390476Y-95585595D01*
X139580952Y-95537976D01*
X139723809Y-95537976D01*
X139914285Y-95585595D01*
X140009523Y-95633214D01*
X140104761Y-95728452D01*
X140152380Y-95871309D01*
X140152380Y-95966547D01*
X140104761Y-96109404D01*
X140057142Y-96157023D01*
X139723809Y-96157023D01*
X139723809Y-95966547D01*
X140152380Y-96585595D02*
X139152380Y-96585595D01*
X140152380Y-97157023D01*
X139152380Y-97157023D01*
X140152380Y-97633214D02*
X139152380Y-97633214D01*
X139152380Y-97871309D01*
X139200000Y-98014166D01*
X139295238Y-98109404D01*
X139390476Y-98157023D01*
X139580952Y-98204642D01*
X139723809Y-98204642D01*
X139914285Y-98157023D01*
X140009523Y-98109404D01*
X140104761Y-98014166D01*
X140152380Y-97871309D01*
X140152380Y-97633214D01*
X139200000Y-103026785D02*
X139152380Y-102931547D01*
X139152380Y-102788690D01*
X139200000Y-102645833D01*
X139295238Y-102550595D01*
X139390476Y-102502976D01*
X139580952Y-102455357D01*
X139723809Y-102455357D01*
X139914285Y-102502976D01*
X140009523Y-102550595D01*
X140104761Y-102645833D01*
X140152380Y-102788690D01*
X140152380Y-102883928D01*
X140104761Y-103026785D01*
X140057142Y-103074404D01*
X139723809Y-103074404D01*
X139723809Y-102883928D01*
X140152380Y-103502976D02*
X139152380Y-103502976D01*
X140152380Y-104074404D01*
X139152380Y-104074404D01*
X140152380Y-104550595D02*
X139152380Y-104550595D01*
X139152380Y-104788690D01*
X139200000Y-104931547D01*
X139295238Y-105026785D01*
X139390476Y-105074404D01*
X139580952Y-105122023D01*
X139723809Y-105122023D01*
X139914285Y-105074404D01*
X140009523Y-105026785D01*
X140104761Y-104931547D01*
X140152380Y-104788690D01*
X140152380Y-104550595D01*
X145649761Y-92997976D02*
X145697380Y-93140833D01*
X145697380Y-93378928D01*
X145649761Y-93474166D01*
X145602142Y-93521785D01*
X145506904Y-93569404D01*
X145411666Y-93569404D01*
X145316428Y-93521785D01*
X145268809Y-93474166D01*
X145221190Y-93378928D01*
X145173571Y-93188452D01*
X145125952Y-93093214D01*
X145078333Y-93045595D01*
X144983095Y-92997976D01*
X144887857Y-92997976D01*
X144792619Y-93045595D01*
X144745000Y-93093214D01*
X144697380Y-93188452D01*
X144697380Y-93426547D01*
X144745000Y-93569404D01*
X144697380Y-93855119D02*
X144697380Y-94426547D01*
X145697380Y-94140833D02*
X144697380Y-94140833D01*
X145697380Y-94759880D02*
X144697380Y-94759880D01*
X145411666Y-95093214D01*
X144697380Y-95426547D01*
X145697380Y-95426547D01*
X144697380Y-95807500D02*
X144697380Y-96426547D01*
X145078333Y-96093214D01*
X145078333Y-96236071D01*
X145125952Y-96331309D01*
X145173571Y-96378928D01*
X145268809Y-96426547D01*
X145506904Y-96426547D01*
X145602142Y-96378928D01*
X145649761Y-96331309D01*
X145697380Y-96236071D01*
X145697380Y-95950357D01*
X145649761Y-95855119D01*
X145602142Y-95807500D01*
X144792619Y-96807500D02*
X144745000Y-96855119D01*
X144697380Y-96950357D01*
X144697380Y-97188452D01*
X144745000Y-97283690D01*
X144792619Y-97331309D01*
X144887857Y-97378928D01*
X144983095Y-97378928D01*
X145125952Y-97331309D01*
X145697380Y-96759880D01*
X145697380Y-97378928D01*
X145697380Y-98283690D02*
X145697380Y-97807500D01*
X144697380Y-97807500D01*
X144697380Y-98807500D02*
X144697380Y-98902738D01*
X144745000Y-98997976D01*
X144792619Y-99045595D01*
X144887857Y-99093214D01*
X145078333Y-99140833D01*
X145316428Y-99140833D01*
X145506904Y-99093214D01*
X145602142Y-99045595D01*
X145649761Y-98997976D01*
X145697380Y-98902738D01*
X145697380Y-98807500D01*
X145649761Y-98712261D01*
X145602142Y-98664642D01*
X145506904Y-98617023D01*
X145316428Y-98569404D01*
X145078333Y-98569404D01*
X144887857Y-98617023D01*
X144792619Y-98664642D01*
X144745000Y-98712261D01*
X144697380Y-98807500D01*
X147307380Y-93045595D02*
X146640714Y-93045595D01*
X146735952Y-93045595D02*
X146688333Y-93093214D01*
X146640714Y-93188452D01*
X146640714Y-93331309D01*
X146688333Y-93426547D01*
X146783571Y-93474166D01*
X147307380Y-93474166D01*
X146783571Y-93474166D02*
X146688333Y-93521785D01*
X146640714Y-93617023D01*
X146640714Y-93759880D01*
X146688333Y-93855119D01*
X146783571Y-93902738D01*
X147307380Y-93902738D01*
X147307380Y-94521785D02*
X147259761Y-94426547D01*
X147212142Y-94378928D01*
X147116904Y-94331309D01*
X146831190Y-94331309D01*
X146735952Y-94378928D01*
X146688333Y-94426547D01*
X146640714Y-94521785D01*
X146640714Y-94664642D01*
X146688333Y-94759880D01*
X146735952Y-94807500D01*
X146831190Y-94855119D01*
X147116904Y-94855119D01*
X147212142Y-94807500D01*
X147259761Y-94759880D01*
X147307380Y-94664642D01*
X147307380Y-94521785D01*
X147307380Y-95712261D02*
X146307380Y-95712261D01*
X147259761Y-95712261D02*
X147307380Y-95617023D01*
X147307380Y-95426547D01*
X147259761Y-95331309D01*
X147212142Y-95283690D01*
X147116904Y-95236071D01*
X146831190Y-95236071D01*
X146735952Y-95283690D01*
X146688333Y-95331309D01*
X146640714Y-95426547D01*
X146640714Y-95617023D01*
X146688333Y-95712261D01*
X147259761Y-96902738D02*
X147307380Y-96997976D01*
X147307380Y-97188452D01*
X147259761Y-97283690D01*
X147164523Y-97331309D01*
X147116904Y-97331309D01*
X147021666Y-97283690D01*
X146974047Y-97188452D01*
X146974047Y-97045595D01*
X146926428Y-96950357D01*
X146831190Y-96902738D01*
X146783571Y-96902738D01*
X146688333Y-96950357D01*
X146640714Y-97045595D01*
X146640714Y-97188452D01*
X146688333Y-97283690D01*
X147307380Y-97902738D02*
X147259761Y-97807500D01*
X147212142Y-97759880D01*
X147116904Y-97712261D01*
X146831190Y-97712261D01*
X146735952Y-97759880D01*
X146688333Y-97807500D01*
X146640714Y-97902738D01*
X146640714Y-98045595D01*
X146688333Y-98140833D01*
X146735952Y-98188452D01*
X146831190Y-98236071D01*
X147116904Y-98236071D01*
X147212142Y-98188452D01*
X147259761Y-98140833D01*
X147307380Y-98045595D01*
X147307380Y-97902738D01*
X146640714Y-99093214D02*
X147307380Y-99093214D01*
X146640714Y-98664642D02*
X147164523Y-98664642D01*
X147259761Y-98712261D01*
X147307380Y-98807500D01*
X147307380Y-98950357D01*
X147259761Y-99045595D01*
X147212142Y-99093214D01*
X147307380Y-99569404D02*
X146640714Y-99569404D01*
X146831190Y-99569404D02*
X146735952Y-99617023D01*
X146688333Y-99664642D01*
X146640714Y-99759880D01*
X146640714Y-99855119D01*
X147259761Y-100617023D02*
X147307380Y-100521785D01*
X147307380Y-100331309D01*
X147259761Y-100236071D01*
X147212142Y-100188452D01*
X147116904Y-100140833D01*
X146831190Y-100140833D01*
X146735952Y-100188452D01*
X146688333Y-100236071D01*
X146640714Y-100331309D01*
X146640714Y-100521785D01*
X146688333Y-100617023D01*
X147259761Y-101426547D02*
X147307380Y-101331309D01*
X147307380Y-101140833D01*
X147259761Y-101045595D01*
X147164523Y-100997976D01*
X146783571Y-100997976D01*
X146688333Y-101045595D01*
X146640714Y-101140833D01*
X146640714Y-101331309D01*
X146688333Y-101426547D01*
X146783571Y-101474166D01*
X146878809Y-101474166D01*
X146974047Y-100997976D01*
X156980000Y-103026785D02*
X156932380Y-102931547D01*
X156932380Y-102788690D01*
X156980000Y-102645833D01*
X157075238Y-102550595D01*
X157170476Y-102502976D01*
X157360952Y-102455357D01*
X157503809Y-102455357D01*
X157694285Y-102502976D01*
X157789523Y-102550595D01*
X157884761Y-102645833D01*
X157932380Y-102788690D01*
X157932380Y-102883928D01*
X157884761Y-103026785D01*
X157837142Y-103074404D01*
X157503809Y-103074404D01*
X157503809Y-102883928D01*
X157932380Y-103502976D02*
X156932380Y-103502976D01*
X157932380Y-104074404D01*
X156932380Y-104074404D01*
X157932380Y-104550595D02*
X156932380Y-104550595D01*
X156932380Y-104788690D01*
X156980000Y-104931547D01*
X157075238Y-105026785D01*
X157170476Y-105074404D01*
X157360952Y-105122023D01*
X157503809Y-105122023D01*
X157694285Y-105074404D01*
X157789523Y-105026785D01*
X157884761Y-104931547D01*
X157932380Y-104788690D01*
X157932380Y-104550595D01*
X150026666Y-103217261D02*
X150026666Y-103693452D01*
X150312380Y-103122023D02*
X149312380Y-103455357D01*
X150312380Y-103788690D01*
X150312380Y-104122023D02*
X149312380Y-104122023D01*
X149312380Y-104502976D02*
X149312380Y-105122023D01*
X149693333Y-104788690D01*
X149693333Y-104931547D01*
X149740952Y-105026785D01*
X149788571Y-105074404D01*
X149883809Y-105122023D01*
X150121904Y-105122023D01*
X150217142Y-105074404D01*
X150264761Y-105026785D01*
X150312380Y-104931547D01*
X150312380Y-104645833D01*
X150264761Y-104550595D01*
X150217142Y-104502976D01*
X142406666Y-103217261D02*
X142406666Y-103693452D01*
X142692380Y-103122023D02*
X141692380Y-103455357D01*
X142692380Y-103788690D01*
X142692380Y-104122023D02*
X141692380Y-104122023D01*
X141692380Y-104788690D02*
X141692380Y-104883928D01*
X141740000Y-104979166D01*
X141787619Y-105026785D01*
X141882857Y-105074404D01*
X142073333Y-105122023D01*
X142311428Y-105122023D01*
X142501904Y-105074404D01*
X142597142Y-105026785D01*
X142644761Y-104979166D01*
X142692380Y-104883928D01*
X142692380Y-104788690D01*
X142644761Y-104693452D01*
X142597142Y-104645833D01*
X142501904Y-104598214D01*
X142311428Y-104550595D01*
X142073333Y-104550595D01*
X141882857Y-104598214D01*
X141787619Y-104645833D01*
X141740000Y-104693452D01*
X141692380Y-104788690D01*
X142644761Y-95537976D02*
X142692380Y-95680833D01*
X142692380Y-95918928D01*
X142644761Y-96014166D01*
X142597142Y-96061785D01*
X142501904Y-96109404D01*
X142406666Y-96109404D01*
X142311428Y-96061785D01*
X142263809Y-96014166D01*
X142216190Y-95918928D01*
X142168571Y-95728452D01*
X142120952Y-95633214D01*
X142073333Y-95585595D01*
X141978095Y-95537976D01*
X141882857Y-95537976D01*
X141787619Y-95585595D01*
X141740000Y-95633214D01*
X141692380Y-95728452D01*
X141692380Y-95966547D01*
X141740000Y-96109404D01*
X141692380Y-96442738D02*
X142692380Y-96680833D01*
X141978095Y-96871309D01*
X142692380Y-97061785D01*
X141692380Y-97299880D01*
X142692380Y-97680833D02*
X141692380Y-97680833D01*
X141692380Y-97918928D01*
X141740000Y-98061785D01*
X141835238Y-98157023D01*
X141930476Y-98204642D01*
X142120952Y-98252261D01*
X142263809Y-98252261D01*
X142454285Y-98204642D01*
X142549523Y-98157023D01*
X142644761Y-98061785D01*
X142692380Y-97918928D01*
X142692380Y-97680833D01*
X142692380Y-98680833D02*
X141692380Y-98680833D01*
X141692380Y-99347500D02*
X141692380Y-99537976D01*
X141740000Y-99633214D01*
X141835238Y-99728452D01*
X142025714Y-99776071D01*
X142359047Y-99776071D01*
X142549523Y-99728452D01*
X142644761Y-99633214D01*
X142692380Y-99537976D01*
X142692380Y-99347500D01*
X142644761Y-99252261D01*
X142549523Y-99157023D01*
X142359047Y-99109404D01*
X142025714Y-99109404D01*
X141835238Y-99157023D01*
X141740000Y-99252261D01*
X141692380Y-99347500D01*
X134691428Y-97490595D02*
X134691428Y-98252500D01*
X135072380Y-97871547D02*
X134310476Y-97871547D01*
X134072380Y-98633452D02*
X134072380Y-99252500D01*
X134453333Y-98919166D01*
X134453333Y-99062023D01*
X134500952Y-99157261D01*
X134548571Y-99204880D01*
X134643809Y-99252500D01*
X134881904Y-99252500D01*
X134977142Y-99204880D01*
X135024761Y-99157261D01*
X135072380Y-99062023D01*
X135072380Y-98776309D01*
X135024761Y-98681071D01*
X134977142Y-98633452D01*
X134977142Y-99681071D02*
X135024761Y-99728690D01*
X135072380Y-99681071D01*
X135024761Y-99633452D01*
X134977142Y-99681071D01*
X135072380Y-99681071D01*
X134072380Y-100062023D02*
X134072380Y-100681071D01*
X134453333Y-100347738D01*
X134453333Y-100490595D01*
X134500952Y-100585833D01*
X134548571Y-100633452D01*
X134643809Y-100681071D01*
X134881904Y-100681071D01*
X134977142Y-100633452D01*
X135024761Y-100585833D01*
X135072380Y-100490595D01*
X135072380Y-100204880D01*
X135024761Y-100109642D01*
X134977142Y-100062023D01*
X134072380Y-100966785D02*
X135072380Y-101300119D01*
X134072380Y-101633452D01*
X152566666Y-95537976D02*
X152566666Y-96014166D01*
X152852380Y-95442738D02*
X151852380Y-95776071D01*
X152852380Y-96109404D01*
X151852380Y-96633214D02*
X151852380Y-96823690D01*
X151900000Y-96918928D01*
X151995238Y-97014166D01*
X152185714Y-97061785D01*
X152519047Y-97061785D01*
X152709523Y-97014166D01*
X152804761Y-96918928D01*
X152852380Y-96823690D01*
X152852380Y-96633214D01*
X152804761Y-96537976D01*
X152709523Y-96442738D01*
X152519047Y-96395119D01*
X152185714Y-96395119D01*
X151995238Y-96442738D01*
X151900000Y-96537976D01*
X151852380Y-96633214D01*
X152852380Y-98014166D02*
X152852380Y-97442738D01*
X152852380Y-97728452D02*
X151852380Y-97728452D01*
X151995238Y-97633214D01*
X152090476Y-97537976D01*
X152138095Y-97442738D01*
X152852380Y-102074404D02*
X151852380Y-102074404D01*
X151852380Y-102312500D01*
X151900000Y-102455357D01*
X151995238Y-102550595D01*
X152090476Y-102598214D01*
X152280952Y-102645833D01*
X152423809Y-102645833D01*
X152614285Y-102598214D01*
X152709523Y-102550595D01*
X152804761Y-102455357D01*
X152852380Y-102312500D01*
X152852380Y-102074404D01*
X152852380Y-103074404D02*
X151852380Y-103074404D01*
X151852380Y-103741071D02*
X151852380Y-103931547D01*
X151900000Y-104026785D01*
X151995238Y-104122023D01*
X152185714Y-104169642D01*
X152519047Y-104169642D01*
X152709523Y-104122023D01*
X152804761Y-104026785D01*
X152852380Y-103931547D01*
X152852380Y-103741071D01*
X152804761Y-103645833D01*
X152709523Y-103550595D01*
X152519047Y-103502976D01*
X152185714Y-103502976D01*
X151995238Y-103550595D01*
X151900000Y-103645833D01*
X151852380Y-103741071D01*
X151852380Y-104788690D02*
X151852380Y-104883928D01*
X151900000Y-104979166D01*
X151947619Y-105026785D01*
X152042857Y-105074404D01*
X152233333Y-105122023D01*
X152471428Y-105122023D01*
X152661904Y-105074404D01*
X152757142Y-105026785D01*
X152804761Y-104979166D01*
X152852380Y-104883928D01*
X152852380Y-104788690D01*
X152804761Y-104693452D01*
X152757142Y-104645833D01*
X152661904Y-104598214D01*
X152471428Y-104550595D01*
X152233333Y-104550595D01*
X152042857Y-104598214D01*
X151947619Y-104645833D01*
X151900000Y-104693452D01*
X151852380Y-104788690D01*
X150026666Y-95537976D02*
X150026666Y-96014166D01*
X150312380Y-95442738D02*
X149312380Y-95776071D01*
X150312380Y-96109404D01*
X149312380Y-96633214D02*
X149312380Y-96823690D01*
X149360000Y-96918928D01*
X149455238Y-97014166D01*
X149645714Y-97061785D01*
X149979047Y-97061785D01*
X150169523Y-97014166D01*
X150264761Y-96918928D01*
X150312380Y-96823690D01*
X150312380Y-96633214D01*
X150264761Y-96537976D01*
X150169523Y-96442738D01*
X149979047Y-96395119D01*
X149645714Y-96395119D01*
X149455238Y-96442738D01*
X149360000Y-96537976D01*
X149312380Y-96633214D01*
X149312380Y-97680833D02*
X149312380Y-97776071D01*
X149360000Y-97871309D01*
X149407619Y-97918928D01*
X149502857Y-97966547D01*
X149693333Y-98014166D01*
X149931428Y-98014166D01*
X150121904Y-97966547D01*
X150217142Y-97918928D01*
X150264761Y-97871309D01*
X150312380Y-97776071D01*
X150312380Y-97680833D01*
X150264761Y-97585595D01*
X150217142Y-97537976D01*
X150121904Y-97490357D01*
X149931428Y-97442738D01*
X149693333Y-97442738D01*
X149502857Y-97490357D01*
X149407619Y-97537976D01*
X149360000Y-97585595D01*
X149312380Y-97680833D01*
X137564761Y-95537976D02*
X137612380Y-95680833D01*
X137612380Y-95918928D01*
X137564761Y-96014166D01*
X137517142Y-96061785D01*
X137421904Y-96109404D01*
X137326666Y-96109404D01*
X137231428Y-96061785D01*
X137183809Y-96014166D01*
X137136190Y-95918928D01*
X137088571Y-95728452D01*
X137040952Y-95633214D01*
X136993333Y-95585595D01*
X136898095Y-95537976D01*
X136802857Y-95537976D01*
X136707619Y-95585595D01*
X136660000Y-95633214D01*
X136612380Y-95728452D01*
X136612380Y-95966547D01*
X136660000Y-96109404D01*
X136612380Y-96442738D02*
X137612380Y-96680833D01*
X136898095Y-96871309D01*
X137612380Y-97061785D01*
X136612380Y-97299880D01*
X137517142Y-98252261D02*
X137564761Y-98204642D01*
X137612380Y-98061785D01*
X137612380Y-97966547D01*
X137564761Y-97823690D01*
X137469523Y-97728452D01*
X137374285Y-97680833D01*
X137183809Y-97633214D01*
X137040952Y-97633214D01*
X136850476Y-97680833D01*
X136755238Y-97728452D01*
X136660000Y-97823690D01*
X136612380Y-97966547D01*
X136612380Y-98061785D01*
X136660000Y-98204642D01*
X136707619Y-98252261D01*
X137612380Y-99157023D02*
X137612380Y-98680833D01*
X136612380Y-98680833D01*
X137612380Y-99490357D02*
X136612380Y-99490357D01*
X137612380Y-100061785D02*
X137040952Y-99633214D01*
X136612380Y-100061785D02*
X137183809Y-99490357D01*
D10*
X151130000Y-92650000D02*
X158810000Y-92650000D01*
X151130000Y-95310000D02*
X158810000Y-95310000D01*
X158810000Y-92650000D02*
X158810000Y-95310000D01*
X149860000Y-92650000D02*
X148530000Y-92650000D01*
X151130000Y-92650000D02*
X151130000Y-95310000D01*
X148530000Y-92650000D02*
X148530000Y-93980000D01*
X135890000Y-92650000D02*
X135890000Y-95310000D01*
X135890000Y-92650000D02*
X143570000Y-92650000D01*
X134620000Y-92650000D02*
X133290000Y-92650000D01*
X135890000Y-95310000D02*
X143570000Y-95310000D01*
X133290000Y-92650000D02*
X133290000Y-93980000D01*
X143570000Y-92650000D02*
X143570000Y-95310000D01*
X135890000Y-108010000D02*
X158810000Y-108010000D01*
X134620000Y-105350000D02*
X133290000Y-105350000D01*
X135890000Y-105350000D02*
X158810000Y-105350000D01*
X158810000Y-105350000D02*
X158810000Y-108010000D01*
X133290000Y-105350000D02*
X133290000Y-106680000D01*
X135890000Y-105350000D02*
X135890000Y-108010000D01*
%LPC*%
D12*
X149860000Y-93980000D03*
D13*
X152400000Y-93980000D03*
X154940000Y-93980000D03*
X157480000Y-93980000D03*
D12*
X134620000Y-93980000D03*
D13*
X137160000Y-93980000D03*
X139700000Y-93980000D03*
X142240000Y-93980000D03*
D12*
X134620000Y-106680000D03*
D13*
X137160000Y-106680000D03*
X139700000Y-106680000D03*
X142240000Y-106680000D03*
X144780000Y-106680000D03*
X147320000Y-106680000D03*
X149860000Y-106680000D03*
X152400000Y-106680000D03*
X154940000Y-106680000D03*
X157480000Y-106680000D03*
M02*
