G04 #@! TF.GenerationSoftware,KiCad,Pcbnew,6.0.5+dfsg-1~bpo11+1*
G04 #@! TF.CreationDate,2022-12-25T14:08:46+00:00*
G04 #@! TF.ProjectId,stm32l0_mod_source,73746d33-326c-4305-9f6d-6f645f736f75,0.1*
G04 #@! TF.SameCoordinates,Original*
G04 #@! TF.FileFunction,Paste,Top*
G04 #@! TF.FilePolarity,Positive*
%FSLAX46Y46*%
G04 Gerber Fmt 4.6, Leading zero omitted, Abs format (unit mm)*
G04 Created by KiCad (PCBNEW 6.0.5+dfsg-1~bpo11+1) date 2022-12-25 14:08:46*
%MOMM*%
%LPD*%
G01*
G04 APERTURE LIST*
G04 APERTURE END LIST*
G36*
G01*
X145841000Y-96516000D02*
X145841000Y-96016000D01*
G75*
G02*
X146066000Y-95791000I225000J0D01*
G01*
X146516000Y-95791000D01*
G75*
G02*
X146741000Y-96016000I0J-225000D01*
G01*
X146741000Y-96516000D01*
G75*
G02*
X146516000Y-96741000I-225000J0D01*
G01*
X146066000Y-96741000D01*
G75*
G02*
X145841000Y-96516000I0J225000D01*
G01*
G37*
G36*
G01*
X147391000Y-96516000D02*
X147391000Y-96016000D01*
G75*
G02*
X147616000Y-95791000I225000J0D01*
G01*
X148066000Y-95791000D01*
G75*
G02*
X148291000Y-96016000I0J-225000D01*
G01*
X148291000Y-96516000D01*
G75*
G02*
X148066000Y-96741000I-225000J0D01*
G01*
X147616000Y-96741000D01*
G75*
G02*
X147391000Y-96516000I0J225000D01*
G01*
G37*
G36*
G01*
X138463000Y-102248000D02*
X139413000Y-102248000D01*
G75*
G02*
X139663000Y-102498000I0J-250000D01*
G01*
X139663000Y-102998000D01*
G75*
G02*
X139413000Y-103248000I-250000J0D01*
G01*
X138463000Y-103248000D01*
G75*
G02*
X138213000Y-102998000I0J250000D01*
G01*
X138213000Y-102498000D01*
G75*
G02*
X138463000Y-102248000I250000J0D01*
G01*
G37*
G36*
G01*
X138463000Y-104148000D02*
X139413000Y-104148000D01*
G75*
G02*
X139663000Y-104398000I0J-250000D01*
G01*
X139663000Y-104898000D01*
G75*
G02*
X139413000Y-105148000I-250000J0D01*
G01*
X138463000Y-105148000D01*
G75*
G02*
X138213000Y-104898000I0J250000D01*
G01*
X138213000Y-104398000D01*
G75*
G02*
X138463000Y-104148000I250000J0D01*
G01*
G37*
G36*
G01*
X139188000Y-99510000D02*
X138688000Y-99510000D01*
G75*
G02*
X138463000Y-99285000I0J225000D01*
G01*
X138463000Y-98835000D01*
G75*
G02*
X138688000Y-98610000I225000J0D01*
G01*
X139188000Y-98610000D01*
G75*
G02*
X139413000Y-98835000I0J-225000D01*
G01*
X139413000Y-99285000D01*
G75*
G02*
X139188000Y-99510000I-225000J0D01*
G01*
G37*
G36*
G01*
X139188000Y-97960000D02*
X138688000Y-97960000D01*
G75*
G02*
X138463000Y-97735000I0J225000D01*
G01*
X138463000Y-97285000D01*
G75*
G02*
X138688000Y-97060000I225000J0D01*
G01*
X139188000Y-97060000D01*
G75*
G02*
X139413000Y-97285000I0J-225000D01*
G01*
X139413000Y-97735000D01*
G75*
G02*
X139188000Y-97960000I-225000J0D01*
G01*
G37*
G36*
G01*
X156751000Y-101928000D02*
X157701000Y-101928000D01*
G75*
G02*
X157951000Y-102178000I0J-250000D01*
G01*
X157951000Y-102678000D01*
G75*
G02*
X157701000Y-102928000I-250000J0D01*
G01*
X156751000Y-102928000D01*
G75*
G02*
X156501000Y-102678000I0J250000D01*
G01*
X156501000Y-102178000D01*
G75*
G02*
X156751000Y-101928000I250000J0D01*
G01*
G37*
G36*
G01*
X156751000Y-103828000D02*
X157701000Y-103828000D01*
G75*
G02*
X157951000Y-104078000I0J-250000D01*
G01*
X157951000Y-104578000D01*
G75*
G02*
X157701000Y-104828000I-250000J0D01*
G01*
X156751000Y-104828000D01*
G75*
G02*
X156501000Y-104578000I0J250000D01*
G01*
X156501000Y-104078000D01*
G75*
G02*
X156751000Y-103828000I250000J0D01*
G01*
G37*
G36*
G01*
X157730000Y-100793000D02*
X157230000Y-100793000D01*
G75*
G02*
X157005000Y-100568000I0J225000D01*
G01*
X157005000Y-100118000D01*
G75*
G02*
X157230000Y-99893000I225000J0D01*
G01*
X157730000Y-99893000D01*
G75*
G02*
X157955000Y-100118000I0J-225000D01*
G01*
X157955000Y-100568000D01*
G75*
G02*
X157730000Y-100793000I-225000J0D01*
G01*
G37*
G36*
G01*
X157730000Y-99243000D02*
X157230000Y-99243000D01*
G75*
G02*
X157005000Y-99018000I0J225000D01*
G01*
X157005000Y-98568000D01*
G75*
G02*
X157230000Y-98343000I225000J0D01*
G01*
X157730000Y-98343000D01*
G75*
G02*
X157955000Y-98568000I0J-225000D01*
G01*
X157955000Y-99018000D01*
G75*
G02*
X157730000Y-99243000I-225000J0D01*
G01*
G37*
G36*
G01*
X154440000Y-96995000D02*
X154440000Y-96045000D01*
G75*
G02*
X154690000Y-95795000I250000J0D01*
G01*
X155190000Y-95795000D01*
G75*
G02*
X155440000Y-96045000I0J-250000D01*
G01*
X155440000Y-96995000D01*
G75*
G02*
X155190000Y-97245000I-250000J0D01*
G01*
X154690000Y-97245000D01*
G75*
G02*
X154440000Y-96995000I0J250000D01*
G01*
G37*
G36*
G01*
X156340000Y-96995000D02*
X156340000Y-96045000D01*
G75*
G02*
X156590000Y-95795000I250000J0D01*
G01*
X157090000Y-95795000D01*
G75*
G02*
X157340000Y-96045000I0J-250000D01*
G01*
X157340000Y-96995000D01*
G75*
G02*
X157090000Y-97245000I-250000J0D01*
G01*
X156590000Y-97245000D01*
G75*
G02*
X156340000Y-96995000I0J250000D01*
G01*
G37*
G36*
G01*
X147942000Y-93505000D02*
X147942000Y-94455000D01*
G75*
G02*
X147692000Y-94705000I-250000J0D01*
G01*
X147192000Y-94705000D01*
G75*
G02*
X146942000Y-94455000I0J250000D01*
G01*
X146942000Y-93505000D01*
G75*
G02*
X147192000Y-93255000I250000J0D01*
G01*
X147692000Y-93255000D01*
G75*
G02*
X147942000Y-93505000I0J-250000D01*
G01*
G37*
G36*
G01*
X146042000Y-93505000D02*
X146042000Y-94455000D01*
G75*
G02*
X145792000Y-94705000I-250000J0D01*
G01*
X145292000Y-94705000D01*
G75*
G02*
X145042000Y-94455000I0J250000D01*
G01*
X145042000Y-93505000D01*
G75*
G02*
X145292000Y-93255000I250000J0D01*
G01*
X145792000Y-93255000D01*
G75*
G02*
X146042000Y-93505000I0J-250000D01*
G01*
G37*
G36*
G01*
X144241000Y-104946000D02*
X144041000Y-104946000D01*
G75*
G02*
X143941000Y-104846000I0J100000D01*
G01*
X143941000Y-103571000D01*
G75*
G02*
X144041000Y-103471000I100000J0D01*
G01*
X144241000Y-103471000D01*
G75*
G02*
X144341000Y-103571000I0J-100000D01*
G01*
X144341000Y-104846000D01*
G75*
G02*
X144241000Y-104946000I-100000J0D01*
G01*
G37*
G36*
G01*
X144891000Y-104946000D02*
X144691000Y-104946000D01*
G75*
G02*
X144591000Y-104846000I0J100000D01*
G01*
X144591000Y-103571000D01*
G75*
G02*
X144691000Y-103471000I100000J0D01*
G01*
X144891000Y-103471000D01*
G75*
G02*
X144991000Y-103571000I0J-100000D01*
G01*
X144991000Y-104846000D01*
G75*
G02*
X144891000Y-104946000I-100000J0D01*
G01*
G37*
G36*
G01*
X145541000Y-104946000D02*
X145341000Y-104946000D01*
G75*
G02*
X145241000Y-104846000I0J100000D01*
G01*
X145241000Y-103571000D01*
G75*
G02*
X145341000Y-103471000I100000J0D01*
G01*
X145541000Y-103471000D01*
G75*
G02*
X145641000Y-103571000I0J-100000D01*
G01*
X145641000Y-104846000D01*
G75*
G02*
X145541000Y-104946000I-100000J0D01*
G01*
G37*
G36*
G01*
X146191000Y-104946000D02*
X145991000Y-104946000D01*
G75*
G02*
X145891000Y-104846000I0J100000D01*
G01*
X145891000Y-103571000D01*
G75*
G02*
X145991000Y-103471000I100000J0D01*
G01*
X146191000Y-103471000D01*
G75*
G02*
X146291000Y-103571000I0J-100000D01*
G01*
X146291000Y-104846000D01*
G75*
G02*
X146191000Y-104946000I-100000J0D01*
G01*
G37*
G36*
G01*
X146841000Y-104946000D02*
X146641000Y-104946000D01*
G75*
G02*
X146541000Y-104846000I0J100000D01*
G01*
X146541000Y-103571000D01*
G75*
G02*
X146641000Y-103471000I100000J0D01*
G01*
X146841000Y-103471000D01*
G75*
G02*
X146941000Y-103571000I0J-100000D01*
G01*
X146941000Y-104846000D01*
G75*
G02*
X146841000Y-104946000I-100000J0D01*
G01*
G37*
G36*
G01*
X147491000Y-104946000D02*
X147291000Y-104946000D01*
G75*
G02*
X147191000Y-104846000I0J100000D01*
G01*
X147191000Y-103571000D01*
G75*
G02*
X147291000Y-103471000I100000J0D01*
G01*
X147491000Y-103471000D01*
G75*
G02*
X147591000Y-103571000I0J-100000D01*
G01*
X147591000Y-104846000D01*
G75*
G02*
X147491000Y-104946000I-100000J0D01*
G01*
G37*
G36*
G01*
X148141000Y-104946000D02*
X147941000Y-104946000D01*
G75*
G02*
X147841000Y-104846000I0J100000D01*
G01*
X147841000Y-103571000D01*
G75*
G02*
X147941000Y-103471000I100000J0D01*
G01*
X148141000Y-103471000D01*
G75*
G02*
X148241000Y-103571000I0J-100000D01*
G01*
X148241000Y-104846000D01*
G75*
G02*
X148141000Y-104946000I-100000J0D01*
G01*
G37*
G36*
G01*
X148791000Y-104946000D02*
X148591000Y-104946000D01*
G75*
G02*
X148491000Y-104846000I0J100000D01*
G01*
X148491000Y-103571000D01*
G75*
G02*
X148591000Y-103471000I100000J0D01*
G01*
X148791000Y-103471000D01*
G75*
G02*
X148891000Y-103571000I0J-100000D01*
G01*
X148891000Y-104846000D01*
G75*
G02*
X148791000Y-104946000I-100000J0D01*
G01*
G37*
G36*
G01*
X149441000Y-104946000D02*
X149241000Y-104946000D01*
G75*
G02*
X149141000Y-104846000I0J100000D01*
G01*
X149141000Y-103571000D01*
G75*
G02*
X149241000Y-103471000I100000J0D01*
G01*
X149441000Y-103471000D01*
G75*
G02*
X149541000Y-103571000I0J-100000D01*
G01*
X149541000Y-104846000D01*
G75*
G02*
X149441000Y-104946000I-100000J0D01*
G01*
G37*
G36*
G01*
X150091000Y-104946000D02*
X149891000Y-104946000D01*
G75*
G02*
X149791000Y-104846000I0J100000D01*
G01*
X149791000Y-103571000D01*
G75*
G02*
X149891000Y-103471000I100000J0D01*
G01*
X150091000Y-103471000D01*
G75*
G02*
X150191000Y-103571000I0J-100000D01*
G01*
X150191000Y-104846000D01*
G75*
G02*
X150091000Y-104946000I-100000J0D01*
G01*
G37*
G36*
G01*
X150091000Y-99221000D02*
X149891000Y-99221000D01*
G75*
G02*
X149791000Y-99121000I0J100000D01*
G01*
X149791000Y-97846000D01*
G75*
G02*
X149891000Y-97746000I100000J0D01*
G01*
X150091000Y-97746000D01*
G75*
G02*
X150191000Y-97846000I0J-100000D01*
G01*
X150191000Y-99121000D01*
G75*
G02*
X150091000Y-99221000I-100000J0D01*
G01*
G37*
G36*
G01*
X149441000Y-99221000D02*
X149241000Y-99221000D01*
G75*
G02*
X149141000Y-99121000I0J100000D01*
G01*
X149141000Y-97846000D01*
G75*
G02*
X149241000Y-97746000I100000J0D01*
G01*
X149441000Y-97746000D01*
G75*
G02*
X149541000Y-97846000I0J-100000D01*
G01*
X149541000Y-99121000D01*
G75*
G02*
X149441000Y-99221000I-100000J0D01*
G01*
G37*
G36*
G01*
X148791000Y-99221000D02*
X148591000Y-99221000D01*
G75*
G02*
X148491000Y-99121000I0J100000D01*
G01*
X148491000Y-97846000D01*
G75*
G02*
X148591000Y-97746000I100000J0D01*
G01*
X148791000Y-97746000D01*
G75*
G02*
X148891000Y-97846000I0J-100000D01*
G01*
X148891000Y-99121000D01*
G75*
G02*
X148791000Y-99221000I-100000J0D01*
G01*
G37*
G36*
G01*
X148141000Y-99221000D02*
X147941000Y-99221000D01*
G75*
G02*
X147841000Y-99121000I0J100000D01*
G01*
X147841000Y-97846000D01*
G75*
G02*
X147941000Y-97746000I100000J0D01*
G01*
X148141000Y-97746000D01*
G75*
G02*
X148241000Y-97846000I0J-100000D01*
G01*
X148241000Y-99121000D01*
G75*
G02*
X148141000Y-99221000I-100000J0D01*
G01*
G37*
G36*
G01*
X147491000Y-99221000D02*
X147291000Y-99221000D01*
G75*
G02*
X147191000Y-99121000I0J100000D01*
G01*
X147191000Y-97846000D01*
G75*
G02*
X147291000Y-97746000I100000J0D01*
G01*
X147491000Y-97746000D01*
G75*
G02*
X147591000Y-97846000I0J-100000D01*
G01*
X147591000Y-99121000D01*
G75*
G02*
X147491000Y-99221000I-100000J0D01*
G01*
G37*
G36*
G01*
X146841000Y-99221000D02*
X146641000Y-99221000D01*
G75*
G02*
X146541000Y-99121000I0J100000D01*
G01*
X146541000Y-97846000D01*
G75*
G02*
X146641000Y-97746000I100000J0D01*
G01*
X146841000Y-97746000D01*
G75*
G02*
X146941000Y-97846000I0J-100000D01*
G01*
X146941000Y-99121000D01*
G75*
G02*
X146841000Y-99221000I-100000J0D01*
G01*
G37*
G36*
G01*
X146191000Y-99221000D02*
X145991000Y-99221000D01*
G75*
G02*
X145891000Y-99121000I0J100000D01*
G01*
X145891000Y-97846000D01*
G75*
G02*
X145991000Y-97746000I100000J0D01*
G01*
X146191000Y-97746000D01*
G75*
G02*
X146291000Y-97846000I0J-100000D01*
G01*
X146291000Y-99121000D01*
G75*
G02*
X146191000Y-99221000I-100000J0D01*
G01*
G37*
G36*
G01*
X145541000Y-99221000D02*
X145341000Y-99221000D01*
G75*
G02*
X145241000Y-99121000I0J100000D01*
G01*
X145241000Y-97846000D01*
G75*
G02*
X145341000Y-97746000I100000J0D01*
G01*
X145541000Y-97746000D01*
G75*
G02*
X145641000Y-97846000I0J-100000D01*
G01*
X145641000Y-99121000D01*
G75*
G02*
X145541000Y-99221000I-100000J0D01*
G01*
G37*
G36*
G01*
X144891000Y-99221000D02*
X144691000Y-99221000D01*
G75*
G02*
X144591000Y-99121000I0J100000D01*
G01*
X144591000Y-97846000D01*
G75*
G02*
X144691000Y-97746000I100000J0D01*
G01*
X144891000Y-97746000D01*
G75*
G02*
X144991000Y-97846000I0J-100000D01*
G01*
X144991000Y-99121000D01*
G75*
G02*
X144891000Y-99221000I-100000J0D01*
G01*
G37*
G36*
G01*
X144241000Y-99221000D02*
X144041000Y-99221000D01*
G75*
G02*
X143941000Y-99121000I0J100000D01*
G01*
X143941000Y-97846000D01*
G75*
G02*
X144041000Y-97746000I100000J0D01*
G01*
X144241000Y-97746000D01*
G75*
G02*
X144341000Y-97846000I0J-100000D01*
G01*
X144341000Y-99121000D01*
G75*
G02*
X144241000Y-99221000I-100000J0D01*
G01*
G37*
G36*
G01*
X153049000Y-104525000D02*
X152849000Y-104525000D01*
G75*
G02*
X152749000Y-104425000I0J100000D01*
G01*
X152749000Y-103000000D01*
G75*
G02*
X152849000Y-102900000I100000J0D01*
G01*
X153049000Y-102900000D01*
G75*
G02*
X153149000Y-103000000I0J-100000D01*
G01*
X153149000Y-104425000D01*
G75*
G02*
X153049000Y-104525000I-100000J0D01*
G01*
G37*
G36*
G01*
X153699000Y-104525000D02*
X153499000Y-104525000D01*
G75*
G02*
X153399000Y-104425000I0J100000D01*
G01*
X153399000Y-103000000D01*
G75*
G02*
X153499000Y-102900000I100000J0D01*
G01*
X153699000Y-102900000D01*
G75*
G02*
X153799000Y-103000000I0J-100000D01*
G01*
X153799000Y-104425000D01*
G75*
G02*
X153699000Y-104525000I-100000J0D01*
G01*
G37*
G36*
G01*
X154349000Y-104525000D02*
X154149000Y-104525000D01*
G75*
G02*
X154049000Y-104425000I0J100000D01*
G01*
X154049000Y-103000000D01*
G75*
G02*
X154149000Y-102900000I100000J0D01*
G01*
X154349000Y-102900000D01*
G75*
G02*
X154449000Y-103000000I0J-100000D01*
G01*
X154449000Y-104425000D01*
G75*
G02*
X154349000Y-104525000I-100000J0D01*
G01*
G37*
G36*
G01*
X154999000Y-104525000D02*
X154799000Y-104525000D01*
G75*
G02*
X154699000Y-104425000I0J100000D01*
G01*
X154699000Y-103000000D01*
G75*
G02*
X154799000Y-102900000I100000J0D01*
G01*
X154999000Y-102900000D01*
G75*
G02*
X155099000Y-103000000I0J-100000D01*
G01*
X155099000Y-104425000D01*
G75*
G02*
X154999000Y-104525000I-100000J0D01*
G01*
G37*
G36*
G01*
X154999000Y-100300000D02*
X154799000Y-100300000D01*
G75*
G02*
X154699000Y-100200000I0J100000D01*
G01*
X154699000Y-98775000D01*
G75*
G02*
X154799000Y-98675000I100000J0D01*
G01*
X154999000Y-98675000D01*
G75*
G02*
X155099000Y-98775000I0J-100000D01*
G01*
X155099000Y-100200000D01*
G75*
G02*
X154999000Y-100300000I-100000J0D01*
G01*
G37*
G36*
G01*
X154349000Y-100300000D02*
X154149000Y-100300000D01*
G75*
G02*
X154049000Y-100200000I0J100000D01*
G01*
X154049000Y-98775000D01*
G75*
G02*
X154149000Y-98675000I100000J0D01*
G01*
X154349000Y-98675000D01*
G75*
G02*
X154449000Y-98775000I0J-100000D01*
G01*
X154449000Y-100200000D01*
G75*
G02*
X154349000Y-100300000I-100000J0D01*
G01*
G37*
G36*
G01*
X153699000Y-100300000D02*
X153499000Y-100300000D01*
G75*
G02*
X153399000Y-100200000I0J100000D01*
G01*
X153399000Y-98775000D01*
G75*
G02*
X153499000Y-98675000I100000J0D01*
G01*
X153699000Y-98675000D01*
G75*
G02*
X153799000Y-98775000I0J-100000D01*
G01*
X153799000Y-100200000D01*
G75*
G02*
X153699000Y-100300000I-100000J0D01*
G01*
G37*
G36*
G01*
X153049000Y-100300000D02*
X152849000Y-100300000D01*
G75*
G02*
X152749000Y-100200000I0J100000D01*
G01*
X152749000Y-98775000D01*
G75*
G02*
X152849000Y-98675000I100000J0D01*
G01*
X153049000Y-98675000D01*
G75*
G02*
X153149000Y-98775000I0J-100000D01*
G01*
X153149000Y-100200000D01*
G75*
G02*
X153049000Y-100300000I-100000J0D01*
G01*
G37*
G36*
G01*
X140949000Y-102598000D02*
X141499000Y-102598000D01*
G75*
G02*
X141699000Y-102798000I0J-200000D01*
G01*
X141699000Y-103198000D01*
G75*
G02*
X141499000Y-103398000I-200000J0D01*
G01*
X140949000Y-103398000D01*
G75*
G02*
X140749000Y-103198000I0J200000D01*
G01*
X140749000Y-102798000D01*
G75*
G02*
X140949000Y-102598000I200000J0D01*
G01*
G37*
G36*
G01*
X140949000Y-104248000D02*
X141499000Y-104248000D01*
G75*
G02*
X141699000Y-104448000I0J-200000D01*
G01*
X141699000Y-104848000D01*
G75*
G02*
X141499000Y-105048000I-200000J0D01*
G01*
X140949000Y-105048000D01*
G75*
G02*
X140749000Y-104848000I0J200000D01*
G01*
X140749000Y-104448000D01*
G75*
G02*
X140949000Y-104248000I200000J0D01*
G01*
G37*
G36*
G01*
X141474000Y-100018000D02*
X140974000Y-100018000D01*
G75*
G02*
X140749000Y-99793000I0J225000D01*
G01*
X140749000Y-99343000D01*
G75*
G02*
X140974000Y-99118000I225000J0D01*
G01*
X141474000Y-99118000D01*
G75*
G02*
X141699000Y-99343000I0J-225000D01*
G01*
X141699000Y-99793000D01*
G75*
G02*
X141474000Y-100018000I-225000J0D01*
G01*
G37*
G36*
G01*
X141474000Y-98468000D02*
X140974000Y-98468000D01*
G75*
G02*
X140749000Y-98243000I0J225000D01*
G01*
X140749000Y-97793000D01*
G75*
G02*
X140974000Y-97568000I225000J0D01*
G01*
X141474000Y-97568000D01*
G75*
G02*
X141699000Y-97793000I0J-225000D01*
G01*
X141699000Y-98243000D01*
G75*
G02*
X141474000Y-98468000I-225000J0D01*
G01*
G37*
G36*
G01*
X134186000Y-104361000D02*
X134186000Y-103411000D01*
G75*
G02*
X134436000Y-103161000I250000J0D01*
G01*
X134936000Y-103161000D01*
G75*
G02*
X135186000Y-103411000I0J-250000D01*
G01*
X135186000Y-104361000D01*
G75*
G02*
X134936000Y-104611000I-250000J0D01*
G01*
X134436000Y-104611000D01*
G75*
G02*
X134186000Y-104361000I0J250000D01*
G01*
G37*
G36*
G01*
X136086000Y-104361000D02*
X136086000Y-103411000D01*
G75*
G02*
X136336000Y-103161000I250000J0D01*
G01*
X136836000Y-103161000D01*
G75*
G02*
X137086000Y-103411000I0J-250000D01*
G01*
X137086000Y-104361000D01*
G75*
G02*
X136836000Y-104611000I-250000J0D01*
G01*
X136336000Y-104611000D01*
G75*
G02*
X136086000Y-104361000I0J250000D01*
G01*
G37*
G36*
G01*
X134106200Y-97024000D02*
X134106200Y-96524000D01*
G75*
G02*
X134331200Y-96299000I225000J0D01*
G01*
X134781200Y-96299000D01*
G75*
G02*
X135006200Y-96524000I0J-225000D01*
G01*
X135006200Y-97024000D01*
G75*
G02*
X134781200Y-97249000I-225000J0D01*
G01*
X134331200Y-97249000D01*
G75*
G02*
X134106200Y-97024000I0J225000D01*
G01*
G37*
G36*
G01*
X135656200Y-97024000D02*
X135656200Y-96524000D01*
G75*
G02*
X135881200Y-96299000I225000J0D01*
G01*
X136331200Y-96299000D01*
G75*
G02*
X136556200Y-96524000I0J-225000D01*
G01*
X136556200Y-97024000D01*
G75*
G02*
X136331200Y-97249000I-225000J0D01*
G01*
X135881200Y-97249000D01*
G75*
G02*
X135656200Y-97024000I0J225000D01*
G01*
G37*
G36*
G01*
X134136000Y-100711250D02*
X134136000Y-99948750D01*
G75*
G02*
X134354750Y-99730000I218750J0D01*
G01*
X134792250Y-99730000D01*
G75*
G02*
X135011000Y-99948750I0J-218750D01*
G01*
X135011000Y-100711250D01*
G75*
G02*
X134792250Y-100930000I-218750J0D01*
G01*
X134354750Y-100930000D01*
G75*
G02*
X134136000Y-100711250I0J218750D01*
G01*
G37*
G36*
G01*
X136261000Y-100711250D02*
X136261000Y-99948750D01*
G75*
G02*
X136479750Y-99730000I218750J0D01*
G01*
X136917250Y-99730000D01*
G75*
G02*
X137136000Y-99948750I0J-218750D01*
G01*
X137136000Y-100711250D01*
G75*
G02*
X136917250Y-100930000I-218750J0D01*
G01*
X136479750Y-100930000D01*
G75*
G02*
X136261000Y-100711250I0J218750D01*
G01*
G37*
M02*
