M48
; DRILL file {KiCad 6.0.5+dfsg-1~bpo11+1} date Sun Dec 25 14:08:46 2022
; FORMAT={-:-/ absolute / metric / decimal}
; #@! TF.CreationDate,2022-12-25T14:08:46+00:00
; #@! TF.GenerationSoftware,Kicad,Pcbnew,6.0.5+dfsg-1~bpo11+1
; #@! TF.FileFunction,Plated,1,4,PTH
FMAT,2
METRIC
; #@! TA.AperFunction,Plated,PTH,ViaDrill
T1C0.400
; #@! TA.AperFunction,Plated,PTH,ComponentDrill
T2C1.000
%
G90
G05
T1
X143.129Y-98.298
X143.256Y-99.695
X143.764Y-96.139
X145.092Y-100.147
X145.161Y-102.489
X146.108Y-100.78
X148.463Y-102.616
X148.971Y-96.266
X149.098Y-100.076
X156.337Y-100.457
T2
X134.62Y-93.98
X134.62Y-106.68
X137.16Y-93.98
X137.16Y-106.68
X139.7Y-93.98
X139.7Y-106.68
X142.24Y-93.98
X142.24Y-106.68
X144.78Y-106.68
X147.32Y-106.68
X149.86Y-93.98
X149.86Y-106.68
X152.4Y-93.98
X152.4Y-106.68
X154.94Y-93.98
X154.94Y-106.68
X157.48Y-93.98
X157.48Y-106.68
T0
M30
