G04 #@! TF.GenerationSoftware,KiCad,Pcbnew,6.0.5+dfsg-1~bpo11+1*
G04 #@! TF.CreationDate,2022-12-25T14:08:46+00:00*
G04 #@! TF.ProjectId,stm32l0_mod_source,73746d33-326c-4305-9f6d-6f645f736f75,0.1*
G04 #@! TF.SameCoordinates,Original*
G04 #@! TF.FileFunction,Legend,Top*
G04 #@! TF.FilePolarity,Positive*
%FSLAX46Y46*%
G04 Gerber Fmt 4.6, Leading zero omitted, Abs format (unit mm)*
G04 Created by KiCad (PCBNEW 6.0.5+dfsg-1~bpo11+1) date 2022-12-25 14:08:46*
%MOMM*%
%LPD*%
G01*
G04 APERTURE LIST*
%ADD10C,0.150000*%
%ADD11C,0.120000*%
%ADD12R,1.700000X1.700000*%
%ADD13O,1.700000X1.700000*%
G04 APERTURE END LIST*
D10*
X145391142Y-96432666D02*
X145438761Y-96480285D01*
X145486380Y-96623142D01*
X145486380Y-96718380D01*
X145438761Y-96861238D01*
X145343523Y-96956476D01*
X145248285Y-97004095D01*
X145057809Y-97051714D01*
X144914952Y-97051714D01*
X144724476Y-97004095D01*
X144629238Y-96956476D01*
X144534000Y-96861238D01*
X144486380Y-96718380D01*
X144486380Y-96623142D01*
X144534000Y-96480285D01*
X144581619Y-96432666D01*
X144486380Y-96099333D02*
X144486380Y-95480285D01*
X144867333Y-95813619D01*
X144867333Y-95670761D01*
X144914952Y-95575523D01*
X144962571Y-95527904D01*
X145057809Y-95480285D01*
X145295904Y-95480285D01*
X145391142Y-95527904D01*
X145438761Y-95575523D01*
X145486380Y-95670761D01*
X145486380Y-95956476D01*
X145438761Y-96051714D01*
X145391142Y-96099333D01*
X139295142Y-101136666D02*
X139342761Y-101184285D01*
X139390380Y-101327142D01*
X139390380Y-101422380D01*
X139342761Y-101565238D01*
X139247523Y-101660476D01*
X139152285Y-101708095D01*
X138961809Y-101755714D01*
X138818952Y-101755714D01*
X138628476Y-101708095D01*
X138533238Y-101660476D01*
X138438000Y-101565238D01*
X138390380Y-101422380D01*
X138390380Y-101327142D01*
X138438000Y-101184285D01*
X138485619Y-101136666D01*
X138390380Y-100231904D02*
X138390380Y-100708095D01*
X138866571Y-100755714D01*
X138818952Y-100708095D01*
X138771333Y-100612857D01*
X138771333Y-100374761D01*
X138818952Y-100279523D01*
X138866571Y-100231904D01*
X138961809Y-100184285D01*
X139199904Y-100184285D01*
X139295142Y-100231904D01*
X139342761Y-100279523D01*
X139390380Y-100374761D01*
X139390380Y-100612857D01*
X139342761Y-100708095D01*
X139295142Y-100755714D01*
X139295142Y-96051666D02*
X139342761Y-96099285D01*
X139390380Y-96242142D01*
X139390380Y-96337380D01*
X139342761Y-96480238D01*
X139247523Y-96575476D01*
X139152285Y-96623095D01*
X138961809Y-96670714D01*
X138818952Y-96670714D01*
X138628476Y-96623095D01*
X138533238Y-96575476D01*
X138438000Y-96480238D01*
X138390380Y-96337380D01*
X138390380Y-96242142D01*
X138438000Y-96099285D01*
X138485619Y-96051666D01*
X138390380Y-95194523D02*
X138390380Y-95385000D01*
X138438000Y-95480238D01*
X138485619Y-95527857D01*
X138628476Y-95623095D01*
X138818952Y-95670714D01*
X139199904Y-95670714D01*
X139295142Y-95623095D01*
X139342761Y-95575476D01*
X139390380Y-95480238D01*
X139390380Y-95289761D01*
X139342761Y-95194523D01*
X139295142Y-95146904D01*
X139199904Y-95099285D01*
X138961809Y-95099285D01*
X138866571Y-95146904D01*
X138818952Y-95194523D01*
X138771333Y-95289761D01*
X138771333Y-95480238D01*
X138818952Y-95575476D01*
X138866571Y-95623095D01*
X138961809Y-95670714D01*
X159263142Y-103544666D02*
X159310761Y-103592285D01*
X159358380Y-103735142D01*
X159358380Y-103830380D01*
X159310761Y-103973238D01*
X159215523Y-104068476D01*
X159120285Y-104116095D01*
X158929809Y-104163714D01*
X158786952Y-104163714D01*
X158596476Y-104116095D01*
X158501238Y-104068476D01*
X158406000Y-103973238D01*
X158358380Y-103830380D01*
X158358380Y-103735142D01*
X158406000Y-103592285D01*
X158453619Y-103544666D01*
X158358380Y-103211333D02*
X158358380Y-102544666D01*
X159358380Y-102973238D01*
X159361142Y-99734666D02*
X159408761Y-99782285D01*
X159456380Y-99925142D01*
X159456380Y-100020380D01*
X159408761Y-100163238D01*
X159313523Y-100258476D01*
X159218285Y-100306095D01*
X159027809Y-100353714D01*
X158884952Y-100353714D01*
X158694476Y-100306095D01*
X158599238Y-100258476D01*
X158504000Y-100163238D01*
X158456380Y-100020380D01*
X158456380Y-99925142D01*
X158504000Y-99782285D01*
X158551619Y-99734666D01*
X158884952Y-99163238D02*
X158837333Y-99258476D01*
X158789714Y-99306095D01*
X158694476Y-99353714D01*
X158646857Y-99353714D01*
X158551619Y-99306095D01*
X158504000Y-99258476D01*
X158456380Y-99163238D01*
X158456380Y-98972761D01*
X158504000Y-98877523D01*
X158551619Y-98829904D01*
X158646857Y-98782285D01*
X158694476Y-98782285D01*
X158789714Y-98829904D01*
X158837333Y-98877523D01*
X158884952Y-98972761D01*
X158884952Y-99163238D01*
X158932571Y-99258476D01*
X158980190Y-99306095D01*
X159075428Y-99353714D01*
X159265904Y-99353714D01*
X159361142Y-99306095D01*
X159408761Y-99258476D01*
X159456380Y-99163238D01*
X159456380Y-98972761D01*
X159408761Y-98877523D01*
X159361142Y-98829904D01*
X159265904Y-98782285D01*
X159075428Y-98782285D01*
X158980190Y-98829904D01*
X158932571Y-98877523D01*
X158884952Y-98972761D01*
X154027142Y-96686666D02*
X154074761Y-96734285D01*
X154122380Y-96877142D01*
X154122380Y-96972380D01*
X154074761Y-97115238D01*
X153979523Y-97210476D01*
X153884285Y-97258095D01*
X153693809Y-97305714D01*
X153550952Y-97305714D01*
X153360476Y-97258095D01*
X153265238Y-97210476D01*
X153170000Y-97115238D01*
X153122380Y-96972380D01*
X153122380Y-96877142D01*
X153170000Y-96734285D01*
X153217619Y-96686666D01*
X154122380Y-96210476D02*
X154122380Y-96020000D01*
X154074761Y-95924761D01*
X154027142Y-95877142D01*
X153884285Y-95781904D01*
X153693809Y-95734285D01*
X153312857Y-95734285D01*
X153217619Y-95781904D01*
X153170000Y-95829523D01*
X153122380Y-95924761D01*
X153122380Y-96115238D01*
X153170000Y-96210476D01*
X153217619Y-96258095D01*
X153312857Y-96305714D01*
X153550952Y-96305714D01*
X153646190Y-96258095D01*
X153693809Y-96210476D01*
X153741428Y-96115238D01*
X153741428Y-95924761D01*
X153693809Y-95829523D01*
X153646190Y-95781904D01*
X153550952Y-95734285D01*
X144629142Y-94622857D02*
X144676761Y-94670476D01*
X144724380Y-94813333D01*
X144724380Y-94908571D01*
X144676761Y-95051428D01*
X144581523Y-95146666D01*
X144486285Y-95194285D01*
X144295809Y-95241904D01*
X144152952Y-95241904D01*
X143962476Y-95194285D01*
X143867238Y-95146666D01*
X143772000Y-95051428D01*
X143724380Y-94908571D01*
X143724380Y-94813333D01*
X143772000Y-94670476D01*
X143819619Y-94622857D01*
X144724380Y-93670476D02*
X144724380Y-94241904D01*
X144724380Y-93956190D02*
X143724380Y-93956190D01*
X143867238Y-94051428D01*
X143962476Y-94146666D01*
X144010095Y-94241904D01*
X143724380Y-93051428D02*
X143724380Y-92956190D01*
X143772000Y-92860952D01*
X143819619Y-92813333D01*
X143914857Y-92765714D01*
X144105333Y-92718095D01*
X144343428Y-92718095D01*
X144533904Y-92765714D01*
X144629142Y-92813333D01*
X144676761Y-92860952D01*
X144724380Y-92956190D01*
X144724380Y-93051428D01*
X144676761Y-93146666D01*
X144629142Y-93194285D01*
X144533904Y-93241904D01*
X144343428Y-93289523D01*
X144105333Y-93289523D01*
X143914857Y-93241904D01*
X143819619Y-93194285D01*
X143772000Y-93146666D01*
X143724380Y-93051428D01*
X142318380Y-102107904D02*
X143127904Y-102107904D01*
X143223142Y-102060285D01*
X143270761Y-102012666D01*
X143318380Y-101917428D01*
X143318380Y-101726952D01*
X143270761Y-101631714D01*
X143223142Y-101584095D01*
X143127904Y-101536476D01*
X142318380Y-101536476D01*
X143318380Y-100536476D02*
X143318380Y-101107904D01*
X143318380Y-100822190D02*
X142318380Y-100822190D01*
X142461238Y-100917428D01*
X142556476Y-101012666D01*
X142604095Y-101107904D01*
X150926380Y-102361904D02*
X151735904Y-102361904D01*
X151831142Y-102314285D01*
X151878761Y-102266666D01*
X151926380Y-102171428D01*
X151926380Y-101980952D01*
X151878761Y-101885714D01*
X151831142Y-101838095D01*
X151735904Y-101790476D01*
X150926380Y-101790476D01*
X151021619Y-101361904D02*
X150974000Y-101314285D01*
X150926380Y-101219047D01*
X150926380Y-100980952D01*
X150974000Y-100885714D01*
X151021619Y-100838095D01*
X151116857Y-100790476D01*
X151212095Y-100790476D01*
X151354952Y-100838095D01*
X151926380Y-101409523D01*
X151926380Y-100790476D01*
X141676380Y-101640666D02*
X141200190Y-101974000D01*
X141676380Y-102212095D02*
X140676380Y-102212095D01*
X140676380Y-101831142D01*
X140724000Y-101735904D01*
X140771619Y-101688285D01*
X140866857Y-101640666D01*
X141009714Y-101640666D01*
X141104952Y-101688285D01*
X141152571Y-101735904D01*
X141200190Y-101831142D01*
X141200190Y-102212095D01*
X141676380Y-100688285D02*
X141676380Y-101259714D01*
X141676380Y-100974000D02*
X140676380Y-100974000D01*
X140819238Y-101069238D01*
X140914476Y-101164476D01*
X140962095Y-101259714D01*
X141581142Y-96406666D02*
X141628761Y-96454285D01*
X141676380Y-96597142D01*
X141676380Y-96692380D01*
X141628761Y-96835238D01*
X141533523Y-96930476D01*
X141438285Y-96978095D01*
X141247809Y-97025714D01*
X141104952Y-97025714D01*
X140914476Y-96978095D01*
X140819238Y-96930476D01*
X140724000Y-96835238D01*
X140676380Y-96692380D01*
X140676380Y-96597142D01*
X140724000Y-96454285D01*
X140771619Y-96406666D01*
X141009714Y-95549523D02*
X141676380Y-95549523D01*
X140628761Y-95787619D02*
X141343047Y-96025714D01*
X141343047Y-95406666D01*
X133707142Y-104052666D02*
X133754761Y-104100285D01*
X133802380Y-104243142D01*
X133802380Y-104338380D01*
X133754761Y-104481238D01*
X133659523Y-104576476D01*
X133564285Y-104624095D01*
X133373809Y-104671714D01*
X133230952Y-104671714D01*
X133040476Y-104624095D01*
X132945238Y-104576476D01*
X132850000Y-104481238D01*
X132802380Y-104338380D01*
X132802380Y-104243142D01*
X132850000Y-104100285D01*
X132897619Y-104052666D01*
X133802380Y-103100285D02*
X133802380Y-103671714D01*
X133802380Y-103386000D02*
X132802380Y-103386000D01*
X132945238Y-103481238D01*
X133040476Y-103576476D01*
X133088095Y-103671714D01*
X133415342Y-96940666D02*
X133462961Y-96988285D01*
X133510580Y-97131142D01*
X133510580Y-97226380D01*
X133462961Y-97369238D01*
X133367723Y-97464476D01*
X133272485Y-97512095D01*
X133082009Y-97559714D01*
X132939152Y-97559714D01*
X132748676Y-97512095D01*
X132653438Y-97464476D01*
X132558200Y-97369238D01*
X132510580Y-97226380D01*
X132510580Y-97131142D01*
X132558200Y-96988285D01*
X132605819Y-96940666D01*
X132605819Y-96559714D02*
X132558200Y-96512095D01*
X132510580Y-96416857D01*
X132510580Y-96178761D01*
X132558200Y-96083523D01*
X132605819Y-96035904D01*
X132701057Y-95988285D01*
X132796295Y-95988285D01*
X132939152Y-96035904D01*
X133510580Y-96607333D01*
X133510580Y-95988285D01*
X133278571Y-101163333D02*
X133278571Y-101496666D01*
X133802380Y-101496666D02*
X132802380Y-101496666D01*
X132802380Y-101020476D01*
X133278571Y-100306190D02*
X133326190Y-100163333D01*
X133373809Y-100115714D01*
X133469047Y-100068095D01*
X133611904Y-100068095D01*
X133707142Y-100115714D01*
X133754761Y-100163333D01*
X133802380Y-100258571D01*
X133802380Y-100639523D01*
X132802380Y-100639523D01*
X132802380Y-100306190D01*
X132850000Y-100210952D01*
X132897619Y-100163333D01*
X132992857Y-100115714D01*
X133088095Y-100115714D01*
X133183333Y-100163333D01*
X133230952Y-100210952D01*
X133278571Y-100306190D01*
X133278571Y-100639523D01*
X133802380Y-99115714D02*
X133802380Y-99687142D01*
X133802380Y-99401428D02*
X132802380Y-99401428D01*
X132945238Y-99496666D01*
X133040476Y-99591904D01*
X133088095Y-99687142D01*
D11*
X146925420Y-95756000D02*
X147206580Y-95756000D01*
X146925420Y-96776000D02*
X147206580Y-96776000D01*
X138203000Y-103436748D02*
X138203000Y-103959252D01*
X139673000Y-103436748D02*
X139673000Y-103959252D01*
X139448000Y-98425580D02*
X139448000Y-98144420D01*
X138428000Y-98425580D02*
X138428000Y-98144420D01*
X156491000Y-103116748D02*
X156491000Y-103639252D01*
X157961000Y-103116748D02*
X157961000Y-103639252D01*
X157990000Y-99708580D02*
X157990000Y-99427420D01*
X156970000Y-99708580D02*
X156970000Y-99427420D01*
X155628748Y-95785000D02*
X156151252Y-95785000D01*
X155628748Y-97255000D02*
X156151252Y-97255000D01*
X146753252Y-93245000D02*
X146230748Y-93245000D01*
X146753252Y-94715000D02*
X146230748Y-94715000D01*
X143681000Y-101346000D02*
X143681000Y-99146000D01*
X143681000Y-101346000D02*
X143681000Y-104946000D01*
X150451000Y-101346000D02*
X150451000Y-103546000D01*
X150451000Y-101346000D02*
X150451000Y-99146000D01*
X152314000Y-101600000D02*
X152314000Y-100100000D01*
X155534000Y-101600000D02*
X155534000Y-103100000D01*
X152314000Y-101600000D02*
X152314000Y-104525000D01*
X155534000Y-101600000D02*
X155534000Y-100100000D01*
X141746500Y-103585742D02*
X141746500Y-104060258D01*
X140701500Y-103585742D02*
X140701500Y-104060258D01*
X141734000Y-98933580D02*
X141734000Y-98652420D01*
X140714000Y-98933580D02*
X140714000Y-98652420D01*
X135374748Y-104621000D02*
X135897252Y-104621000D01*
X135374748Y-103151000D02*
X135897252Y-103151000D01*
X135190620Y-97284000D02*
X135471780Y-97284000D01*
X135190620Y-96264000D02*
X135471780Y-96264000D01*
X135236378Y-100890000D02*
X136035622Y-100890000D01*
X135236378Y-99770000D02*
X136035622Y-99770000D01*
%LPC*%
G36*
G01*
X145841000Y-96516000D02*
X145841000Y-96016000D01*
G75*
G02*
X146066000Y-95791000I225000J0D01*
G01*
X146516000Y-95791000D01*
G75*
G02*
X146741000Y-96016000I0J-225000D01*
G01*
X146741000Y-96516000D01*
G75*
G02*
X146516000Y-96741000I-225000J0D01*
G01*
X146066000Y-96741000D01*
G75*
G02*
X145841000Y-96516000I0J225000D01*
G01*
G37*
G36*
G01*
X147391000Y-96516000D02*
X147391000Y-96016000D01*
G75*
G02*
X147616000Y-95791000I225000J0D01*
G01*
X148066000Y-95791000D01*
G75*
G02*
X148291000Y-96016000I0J-225000D01*
G01*
X148291000Y-96516000D01*
G75*
G02*
X148066000Y-96741000I-225000J0D01*
G01*
X147616000Y-96741000D01*
G75*
G02*
X147391000Y-96516000I0J225000D01*
G01*
G37*
G36*
G01*
X138463000Y-102248000D02*
X139413000Y-102248000D01*
G75*
G02*
X139663000Y-102498000I0J-250000D01*
G01*
X139663000Y-102998000D01*
G75*
G02*
X139413000Y-103248000I-250000J0D01*
G01*
X138463000Y-103248000D01*
G75*
G02*
X138213000Y-102998000I0J250000D01*
G01*
X138213000Y-102498000D01*
G75*
G02*
X138463000Y-102248000I250000J0D01*
G01*
G37*
G36*
G01*
X138463000Y-104148000D02*
X139413000Y-104148000D01*
G75*
G02*
X139663000Y-104398000I0J-250000D01*
G01*
X139663000Y-104898000D01*
G75*
G02*
X139413000Y-105148000I-250000J0D01*
G01*
X138463000Y-105148000D01*
G75*
G02*
X138213000Y-104898000I0J250000D01*
G01*
X138213000Y-104398000D01*
G75*
G02*
X138463000Y-104148000I250000J0D01*
G01*
G37*
G36*
G01*
X139188000Y-99510000D02*
X138688000Y-99510000D01*
G75*
G02*
X138463000Y-99285000I0J225000D01*
G01*
X138463000Y-98835000D01*
G75*
G02*
X138688000Y-98610000I225000J0D01*
G01*
X139188000Y-98610000D01*
G75*
G02*
X139413000Y-98835000I0J-225000D01*
G01*
X139413000Y-99285000D01*
G75*
G02*
X139188000Y-99510000I-225000J0D01*
G01*
G37*
G36*
G01*
X139188000Y-97960000D02*
X138688000Y-97960000D01*
G75*
G02*
X138463000Y-97735000I0J225000D01*
G01*
X138463000Y-97285000D01*
G75*
G02*
X138688000Y-97060000I225000J0D01*
G01*
X139188000Y-97060000D01*
G75*
G02*
X139413000Y-97285000I0J-225000D01*
G01*
X139413000Y-97735000D01*
G75*
G02*
X139188000Y-97960000I-225000J0D01*
G01*
G37*
G36*
G01*
X156751000Y-101928000D02*
X157701000Y-101928000D01*
G75*
G02*
X157951000Y-102178000I0J-250000D01*
G01*
X157951000Y-102678000D01*
G75*
G02*
X157701000Y-102928000I-250000J0D01*
G01*
X156751000Y-102928000D01*
G75*
G02*
X156501000Y-102678000I0J250000D01*
G01*
X156501000Y-102178000D01*
G75*
G02*
X156751000Y-101928000I250000J0D01*
G01*
G37*
G36*
G01*
X156751000Y-103828000D02*
X157701000Y-103828000D01*
G75*
G02*
X157951000Y-104078000I0J-250000D01*
G01*
X157951000Y-104578000D01*
G75*
G02*
X157701000Y-104828000I-250000J0D01*
G01*
X156751000Y-104828000D01*
G75*
G02*
X156501000Y-104578000I0J250000D01*
G01*
X156501000Y-104078000D01*
G75*
G02*
X156751000Y-103828000I250000J0D01*
G01*
G37*
G36*
G01*
X157730000Y-100793000D02*
X157230000Y-100793000D01*
G75*
G02*
X157005000Y-100568000I0J225000D01*
G01*
X157005000Y-100118000D01*
G75*
G02*
X157230000Y-99893000I225000J0D01*
G01*
X157730000Y-99893000D01*
G75*
G02*
X157955000Y-100118000I0J-225000D01*
G01*
X157955000Y-100568000D01*
G75*
G02*
X157730000Y-100793000I-225000J0D01*
G01*
G37*
G36*
G01*
X157730000Y-99243000D02*
X157230000Y-99243000D01*
G75*
G02*
X157005000Y-99018000I0J225000D01*
G01*
X157005000Y-98568000D01*
G75*
G02*
X157230000Y-98343000I225000J0D01*
G01*
X157730000Y-98343000D01*
G75*
G02*
X157955000Y-98568000I0J-225000D01*
G01*
X157955000Y-99018000D01*
G75*
G02*
X157730000Y-99243000I-225000J0D01*
G01*
G37*
G36*
G01*
X154440000Y-96995000D02*
X154440000Y-96045000D01*
G75*
G02*
X154690000Y-95795000I250000J0D01*
G01*
X155190000Y-95795000D01*
G75*
G02*
X155440000Y-96045000I0J-250000D01*
G01*
X155440000Y-96995000D01*
G75*
G02*
X155190000Y-97245000I-250000J0D01*
G01*
X154690000Y-97245000D01*
G75*
G02*
X154440000Y-96995000I0J250000D01*
G01*
G37*
G36*
G01*
X156340000Y-96995000D02*
X156340000Y-96045000D01*
G75*
G02*
X156590000Y-95795000I250000J0D01*
G01*
X157090000Y-95795000D01*
G75*
G02*
X157340000Y-96045000I0J-250000D01*
G01*
X157340000Y-96995000D01*
G75*
G02*
X157090000Y-97245000I-250000J0D01*
G01*
X156590000Y-97245000D01*
G75*
G02*
X156340000Y-96995000I0J250000D01*
G01*
G37*
G36*
G01*
X147942000Y-93505000D02*
X147942000Y-94455000D01*
G75*
G02*
X147692000Y-94705000I-250000J0D01*
G01*
X147192000Y-94705000D01*
G75*
G02*
X146942000Y-94455000I0J250000D01*
G01*
X146942000Y-93505000D01*
G75*
G02*
X147192000Y-93255000I250000J0D01*
G01*
X147692000Y-93255000D01*
G75*
G02*
X147942000Y-93505000I0J-250000D01*
G01*
G37*
G36*
G01*
X146042000Y-93505000D02*
X146042000Y-94455000D01*
G75*
G02*
X145792000Y-94705000I-250000J0D01*
G01*
X145292000Y-94705000D01*
G75*
G02*
X145042000Y-94455000I0J250000D01*
G01*
X145042000Y-93505000D01*
G75*
G02*
X145292000Y-93255000I250000J0D01*
G01*
X145792000Y-93255000D01*
G75*
G02*
X146042000Y-93505000I0J-250000D01*
G01*
G37*
G36*
G01*
X144241000Y-104946000D02*
X144041000Y-104946000D01*
G75*
G02*
X143941000Y-104846000I0J100000D01*
G01*
X143941000Y-103571000D01*
G75*
G02*
X144041000Y-103471000I100000J0D01*
G01*
X144241000Y-103471000D01*
G75*
G02*
X144341000Y-103571000I0J-100000D01*
G01*
X144341000Y-104846000D01*
G75*
G02*
X144241000Y-104946000I-100000J0D01*
G01*
G37*
G36*
G01*
X144891000Y-104946000D02*
X144691000Y-104946000D01*
G75*
G02*
X144591000Y-104846000I0J100000D01*
G01*
X144591000Y-103571000D01*
G75*
G02*
X144691000Y-103471000I100000J0D01*
G01*
X144891000Y-103471000D01*
G75*
G02*
X144991000Y-103571000I0J-100000D01*
G01*
X144991000Y-104846000D01*
G75*
G02*
X144891000Y-104946000I-100000J0D01*
G01*
G37*
G36*
G01*
X145541000Y-104946000D02*
X145341000Y-104946000D01*
G75*
G02*
X145241000Y-104846000I0J100000D01*
G01*
X145241000Y-103571000D01*
G75*
G02*
X145341000Y-103471000I100000J0D01*
G01*
X145541000Y-103471000D01*
G75*
G02*
X145641000Y-103571000I0J-100000D01*
G01*
X145641000Y-104846000D01*
G75*
G02*
X145541000Y-104946000I-100000J0D01*
G01*
G37*
G36*
G01*
X146191000Y-104946000D02*
X145991000Y-104946000D01*
G75*
G02*
X145891000Y-104846000I0J100000D01*
G01*
X145891000Y-103571000D01*
G75*
G02*
X145991000Y-103471000I100000J0D01*
G01*
X146191000Y-103471000D01*
G75*
G02*
X146291000Y-103571000I0J-100000D01*
G01*
X146291000Y-104846000D01*
G75*
G02*
X146191000Y-104946000I-100000J0D01*
G01*
G37*
G36*
G01*
X146841000Y-104946000D02*
X146641000Y-104946000D01*
G75*
G02*
X146541000Y-104846000I0J100000D01*
G01*
X146541000Y-103571000D01*
G75*
G02*
X146641000Y-103471000I100000J0D01*
G01*
X146841000Y-103471000D01*
G75*
G02*
X146941000Y-103571000I0J-100000D01*
G01*
X146941000Y-104846000D01*
G75*
G02*
X146841000Y-104946000I-100000J0D01*
G01*
G37*
G36*
G01*
X147491000Y-104946000D02*
X147291000Y-104946000D01*
G75*
G02*
X147191000Y-104846000I0J100000D01*
G01*
X147191000Y-103571000D01*
G75*
G02*
X147291000Y-103471000I100000J0D01*
G01*
X147491000Y-103471000D01*
G75*
G02*
X147591000Y-103571000I0J-100000D01*
G01*
X147591000Y-104846000D01*
G75*
G02*
X147491000Y-104946000I-100000J0D01*
G01*
G37*
G36*
G01*
X148141000Y-104946000D02*
X147941000Y-104946000D01*
G75*
G02*
X147841000Y-104846000I0J100000D01*
G01*
X147841000Y-103571000D01*
G75*
G02*
X147941000Y-103471000I100000J0D01*
G01*
X148141000Y-103471000D01*
G75*
G02*
X148241000Y-103571000I0J-100000D01*
G01*
X148241000Y-104846000D01*
G75*
G02*
X148141000Y-104946000I-100000J0D01*
G01*
G37*
G36*
G01*
X148791000Y-104946000D02*
X148591000Y-104946000D01*
G75*
G02*
X148491000Y-104846000I0J100000D01*
G01*
X148491000Y-103571000D01*
G75*
G02*
X148591000Y-103471000I100000J0D01*
G01*
X148791000Y-103471000D01*
G75*
G02*
X148891000Y-103571000I0J-100000D01*
G01*
X148891000Y-104846000D01*
G75*
G02*
X148791000Y-104946000I-100000J0D01*
G01*
G37*
G36*
G01*
X149441000Y-104946000D02*
X149241000Y-104946000D01*
G75*
G02*
X149141000Y-104846000I0J100000D01*
G01*
X149141000Y-103571000D01*
G75*
G02*
X149241000Y-103471000I100000J0D01*
G01*
X149441000Y-103471000D01*
G75*
G02*
X149541000Y-103571000I0J-100000D01*
G01*
X149541000Y-104846000D01*
G75*
G02*
X149441000Y-104946000I-100000J0D01*
G01*
G37*
G36*
G01*
X150091000Y-104946000D02*
X149891000Y-104946000D01*
G75*
G02*
X149791000Y-104846000I0J100000D01*
G01*
X149791000Y-103571000D01*
G75*
G02*
X149891000Y-103471000I100000J0D01*
G01*
X150091000Y-103471000D01*
G75*
G02*
X150191000Y-103571000I0J-100000D01*
G01*
X150191000Y-104846000D01*
G75*
G02*
X150091000Y-104946000I-100000J0D01*
G01*
G37*
G36*
G01*
X150091000Y-99221000D02*
X149891000Y-99221000D01*
G75*
G02*
X149791000Y-99121000I0J100000D01*
G01*
X149791000Y-97846000D01*
G75*
G02*
X149891000Y-97746000I100000J0D01*
G01*
X150091000Y-97746000D01*
G75*
G02*
X150191000Y-97846000I0J-100000D01*
G01*
X150191000Y-99121000D01*
G75*
G02*
X150091000Y-99221000I-100000J0D01*
G01*
G37*
G36*
G01*
X149441000Y-99221000D02*
X149241000Y-99221000D01*
G75*
G02*
X149141000Y-99121000I0J100000D01*
G01*
X149141000Y-97846000D01*
G75*
G02*
X149241000Y-97746000I100000J0D01*
G01*
X149441000Y-97746000D01*
G75*
G02*
X149541000Y-97846000I0J-100000D01*
G01*
X149541000Y-99121000D01*
G75*
G02*
X149441000Y-99221000I-100000J0D01*
G01*
G37*
G36*
G01*
X148791000Y-99221000D02*
X148591000Y-99221000D01*
G75*
G02*
X148491000Y-99121000I0J100000D01*
G01*
X148491000Y-97846000D01*
G75*
G02*
X148591000Y-97746000I100000J0D01*
G01*
X148791000Y-97746000D01*
G75*
G02*
X148891000Y-97846000I0J-100000D01*
G01*
X148891000Y-99121000D01*
G75*
G02*
X148791000Y-99221000I-100000J0D01*
G01*
G37*
G36*
G01*
X148141000Y-99221000D02*
X147941000Y-99221000D01*
G75*
G02*
X147841000Y-99121000I0J100000D01*
G01*
X147841000Y-97846000D01*
G75*
G02*
X147941000Y-97746000I100000J0D01*
G01*
X148141000Y-97746000D01*
G75*
G02*
X148241000Y-97846000I0J-100000D01*
G01*
X148241000Y-99121000D01*
G75*
G02*
X148141000Y-99221000I-100000J0D01*
G01*
G37*
G36*
G01*
X147491000Y-99221000D02*
X147291000Y-99221000D01*
G75*
G02*
X147191000Y-99121000I0J100000D01*
G01*
X147191000Y-97846000D01*
G75*
G02*
X147291000Y-97746000I100000J0D01*
G01*
X147491000Y-97746000D01*
G75*
G02*
X147591000Y-97846000I0J-100000D01*
G01*
X147591000Y-99121000D01*
G75*
G02*
X147491000Y-99221000I-100000J0D01*
G01*
G37*
G36*
G01*
X146841000Y-99221000D02*
X146641000Y-99221000D01*
G75*
G02*
X146541000Y-99121000I0J100000D01*
G01*
X146541000Y-97846000D01*
G75*
G02*
X146641000Y-97746000I100000J0D01*
G01*
X146841000Y-97746000D01*
G75*
G02*
X146941000Y-97846000I0J-100000D01*
G01*
X146941000Y-99121000D01*
G75*
G02*
X146841000Y-99221000I-100000J0D01*
G01*
G37*
G36*
G01*
X146191000Y-99221000D02*
X145991000Y-99221000D01*
G75*
G02*
X145891000Y-99121000I0J100000D01*
G01*
X145891000Y-97846000D01*
G75*
G02*
X145991000Y-97746000I100000J0D01*
G01*
X146191000Y-97746000D01*
G75*
G02*
X146291000Y-97846000I0J-100000D01*
G01*
X146291000Y-99121000D01*
G75*
G02*
X146191000Y-99221000I-100000J0D01*
G01*
G37*
G36*
G01*
X145541000Y-99221000D02*
X145341000Y-99221000D01*
G75*
G02*
X145241000Y-99121000I0J100000D01*
G01*
X145241000Y-97846000D01*
G75*
G02*
X145341000Y-97746000I100000J0D01*
G01*
X145541000Y-97746000D01*
G75*
G02*
X145641000Y-97846000I0J-100000D01*
G01*
X145641000Y-99121000D01*
G75*
G02*
X145541000Y-99221000I-100000J0D01*
G01*
G37*
G36*
G01*
X144891000Y-99221000D02*
X144691000Y-99221000D01*
G75*
G02*
X144591000Y-99121000I0J100000D01*
G01*
X144591000Y-97846000D01*
G75*
G02*
X144691000Y-97746000I100000J0D01*
G01*
X144891000Y-97746000D01*
G75*
G02*
X144991000Y-97846000I0J-100000D01*
G01*
X144991000Y-99121000D01*
G75*
G02*
X144891000Y-99221000I-100000J0D01*
G01*
G37*
G36*
G01*
X144241000Y-99221000D02*
X144041000Y-99221000D01*
G75*
G02*
X143941000Y-99121000I0J100000D01*
G01*
X143941000Y-97846000D01*
G75*
G02*
X144041000Y-97746000I100000J0D01*
G01*
X144241000Y-97746000D01*
G75*
G02*
X144341000Y-97846000I0J-100000D01*
G01*
X144341000Y-99121000D01*
G75*
G02*
X144241000Y-99221000I-100000J0D01*
G01*
G37*
G36*
G01*
X153049000Y-104525000D02*
X152849000Y-104525000D01*
G75*
G02*
X152749000Y-104425000I0J100000D01*
G01*
X152749000Y-103000000D01*
G75*
G02*
X152849000Y-102900000I100000J0D01*
G01*
X153049000Y-102900000D01*
G75*
G02*
X153149000Y-103000000I0J-100000D01*
G01*
X153149000Y-104425000D01*
G75*
G02*
X153049000Y-104525000I-100000J0D01*
G01*
G37*
G36*
G01*
X153699000Y-104525000D02*
X153499000Y-104525000D01*
G75*
G02*
X153399000Y-104425000I0J100000D01*
G01*
X153399000Y-103000000D01*
G75*
G02*
X153499000Y-102900000I100000J0D01*
G01*
X153699000Y-102900000D01*
G75*
G02*
X153799000Y-103000000I0J-100000D01*
G01*
X153799000Y-104425000D01*
G75*
G02*
X153699000Y-104525000I-100000J0D01*
G01*
G37*
G36*
G01*
X154349000Y-104525000D02*
X154149000Y-104525000D01*
G75*
G02*
X154049000Y-104425000I0J100000D01*
G01*
X154049000Y-103000000D01*
G75*
G02*
X154149000Y-102900000I100000J0D01*
G01*
X154349000Y-102900000D01*
G75*
G02*
X154449000Y-103000000I0J-100000D01*
G01*
X154449000Y-104425000D01*
G75*
G02*
X154349000Y-104525000I-100000J0D01*
G01*
G37*
G36*
G01*
X154999000Y-104525000D02*
X154799000Y-104525000D01*
G75*
G02*
X154699000Y-104425000I0J100000D01*
G01*
X154699000Y-103000000D01*
G75*
G02*
X154799000Y-102900000I100000J0D01*
G01*
X154999000Y-102900000D01*
G75*
G02*
X155099000Y-103000000I0J-100000D01*
G01*
X155099000Y-104425000D01*
G75*
G02*
X154999000Y-104525000I-100000J0D01*
G01*
G37*
G36*
G01*
X154999000Y-100300000D02*
X154799000Y-100300000D01*
G75*
G02*
X154699000Y-100200000I0J100000D01*
G01*
X154699000Y-98775000D01*
G75*
G02*
X154799000Y-98675000I100000J0D01*
G01*
X154999000Y-98675000D01*
G75*
G02*
X155099000Y-98775000I0J-100000D01*
G01*
X155099000Y-100200000D01*
G75*
G02*
X154999000Y-100300000I-100000J0D01*
G01*
G37*
G36*
G01*
X154349000Y-100300000D02*
X154149000Y-100300000D01*
G75*
G02*
X154049000Y-100200000I0J100000D01*
G01*
X154049000Y-98775000D01*
G75*
G02*
X154149000Y-98675000I100000J0D01*
G01*
X154349000Y-98675000D01*
G75*
G02*
X154449000Y-98775000I0J-100000D01*
G01*
X154449000Y-100200000D01*
G75*
G02*
X154349000Y-100300000I-100000J0D01*
G01*
G37*
G36*
G01*
X153699000Y-100300000D02*
X153499000Y-100300000D01*
G75*
G02*
X153399000Y-100200000I0J100000D01*
G01*
X153399000Y-98775000D01*
G75*
G02*
X153499000Y-98675000I100000J0D01*
G01*
X153699000Y-98675000D01*
G75*
G02*
X153799000Y-98775000I0J-100000D01*
G01*
X153799000Y-100200000D01*
G75*
G02*
X153699000Y-100300000I-100000J0D01*
G01*
G37*
G36*
G01*
X153049000Y-100300000D02*
X152849000Y-100300000D01*
G75*
G02*
X152749000Y-100200000I0J100000D01*
G01*
X152749000Y-98775000D01*
G75*
G02*
X152849000Y-98675000I100000J0D01*
G01*
X153049000Y-98675000D01*
G75*
G02*
X153149000Y-98775000I0J-100000D01*
G01*
X153149000Y-100200000D01*
G75*
G02*
X153049000Y-100300000I-100000J0D01*
G01*
G37*
G36*
G01*
X140949000Y-102598000D02*
X141499000Y-102598000D01*
G75*
G02*
X141699000Y-102798000I0J-200000D01*
G01*
X141699000Y-103198000D01*
G75*
G02*
X141499000Y-103398000I-200000J0D01*
G01*
X140949000Y-103398000D01*
G75*
G02*
X140749000Y-103198000I0J200000D01*
G01*
X140749000Y-102798000D01*
G75*
G02*
X140949000Y-102598000I200000J0D01*
G01*
G37*
G36*
G01*
X140949000Y-104248000D02*
X141499000Y-104248000D01*
G75*
G02*
X141699000Y-104448000I0J-200000D01*
G01*
X141699000Y-104848000D01*
G75*
G02*
X141499000Y-105048000I-200000J0D01*
G01*
X140949000Y-105048000D01*
G75*
G02*
X140749000Y-104848000I0J200000D01*
G01*
X140749000Y-104448000D01*
G75*
G02*
X140949000Y-104248000I200000J0D01*
G01*
G37*
G36*
G01*
X141474000Y-100018000D02*
X140974000Y-100018000D01*
G75*
G02*
X140749000Y-99793000I0J225000D01*
G01*
X140749000Y-99343000D01*
G75*
G02*
X140974000Y-99118000I225000J0D01*
G01*
X141474000Y-99118000D01*
G75*
G02*
X141699000Y-99343000I0J-225000D01*
G01*
X141699000Y-99793000D01*
G75*
G02*
X141474000Y-100018000I-225000J0D01*
G01*
G37*
G36*
G01*
X141474000Y-98468000D02*
X140974000Y-98468000D01*
G75*
G02*
X140749000Y-98243000I0J225000D01*
G01*
X140749000Y-97793000D01*
G75*
G02*
X140974000Y-97568000I225000J0D01*
G01*
X141474000Y-97568000D01*
G75*
G02*
X141699000Y-97793000I0J-225000D01*
G01*
X141699000Y-98243000D01*
G75*
G02*
X141474000Y-98468000I-225000J0D01*
G01*
G37*
G36*
G01*
X134186000Y-104361000D02*
X134186000Y-103411000D01*
G75*
G02*
X134436000Y-103161000I250000J0D01*
G01*
X134936000Y-103161000D01*
G75*
G02*
X135186000Y-103411000I0J-250000D01*
G01*
X135186000Y-104361000D01*
G75*
G02*
X134936000Y-104611000I-250000J0D01*
G01*
X134436000Y-104611000D01*
G75*
G02*
X134186000Y-104361000I0J250000D01*
G01*
G37*
G36*
G01*
X136086000Y-104361000D02*
X136086000Y-103411000D01*
G75*
G02*
X136336000Y-103161000I250000J0D01*
G01*
X136836000Y-103161000D01*
G75*
G02*
X137086000Y-103411000I0J-250000D01*
G01*
X137086000Y-104361000D01*
G75*
G02*
X136836000Y-104611000I-250000J0D01*
G01*
X136336000Y-104611000D01*
G75*
G02*
X136086000Y-104361000I0J250000D01*
G01*
G37*
G36*
G01*
X134106200Y-97024000D02*
X134106200Y-96524000D01*
G75*
G02*
X134331200Y-96299000I225000J0D01*
G01*
X134781200Y-96299000D01*
G75*
G02*
X135006200Y-96524000I0J-225000D01*
G01*
X135006200Y-97024000D01*
G75*
G02*
X134781200Y-97249000I-225000J0D01*
G01*
X134331200Y-97249000D01*
G75*
G02*
X134106200Y-97024000I0J225000D01*
G01*
G37*
G36*
G01*
X135656200Y-97024000D02*
X135656200Y-96524000D01*
G75*
G02*
X135881200Y-96299000I225000J0D01*
G01*
X136331200Y-96299000D01*
G75*
G02*
X136556200Y-96524000I0J-225000D01*
G01*
X136556200Y-97024000D01*
G75*
G02*
X136331200Y-97249000I-225000J0D01*
G01*
X135881200Y-97249000D01*
G75*
G02*
X135656200Y-97024000I0J225000D01*
G01*
G37*
G36*
G01*
X134136000Y-100711250D02*
X134136000Y-99948750D01*
G75*
G02*
X134354750Y-99730000I218750J0D01*
G01*
X134792250Y-99730000D01*
G75*
G02*
X135011000Y-99948750I0J-218750D01*
G01*
X135011000Y-100711250D01*
G75*
G02*
X134792250Y-100930000I-218750J0D01*
G01*
X134354750Y-100930000D01*
G75*
G02*
X134136000Y-100711250I0J218750D01*
G01*
G37*
G36*
G01*
X136261000Y-100711250D02*
X136261000Y-99948750D01*
G75*
G02*
X136479750Y-99730000I218750J0D01*
G01*
X136917250Y-99730000D01*
G75*
G02*
X137136000Y-99948750I0J-218750D01*
G01*
X137136000Y-100711250D01*
G75*
G02*
X136917250Y-100930000I-218750J0D01*
G01*
X136479750Y-100930000D01*
G75*
G02*
X136261000Y-100711250I0J218750D01*
G01*
G37*
D12*
X149860000Y-93980000D03*
D13*
X152400000Y-93980000D03*
X154940000Y-93980000D03*
X157480000Y-93980000D03*
D12*
X134620000Y-93980000D03*
D13*
X137160000Y-93980000D03*
X139700000Y-93980000D03*
X142240000Y-93980000D03*
D12*
X134620000Y-106680000D03*
D13*
X137160000Y-106680000D03*
X139700000Y-106680000D03*
X142240000Y-106680000D03*
X144780000Y-106680000D03*
X147320000Y-106680000D03*
X149860000Y-106680000D03*
X152400000Y-106680000D03*
X154940000Y-106680000D03*
X157480000Y-106680000D03*
M02*
