%FSLAX45Y45*%
G04 Gerber Fmt 4.5, Leading zero omitted, Abs format (unit mm)*
G04 Created by KiCad (PCBNEW 6.0.5+dfsg-1~bpo11+1) date 2022-12-25 14:08:46*
%MOMM*%
%LPD*%
G01*
G04 APERTURE LIST*
%TA.AperFunction,Profile*%
%ADD10C,0.050000*%
%TD*%
%ADD11C,0.200000*%
G04 APERTURE END LIST*
D10*
X13208000Y-10922000D02*
X16002000Y-10922000D01*
X16002000Y-10922000D02*
X16002000Y-9144000D01*
X13208000Y-9144000D02*
X13208000Y-10922000D01*
X16002000Y-9144000D02*
X13208000Y-9144000D01*
D11*
X13463119Y-11234976D02*
X13463119Y-11034976D01*
X13510738Y-11034976D01*
X13539309Y-11044500D01*
X13558357Y-11063548D01*
X13567881Y-11082595D01*
X13577405Y-11120690D01*
X13577405Y-11149262D01*
X13567881Y-11187357D01*
X13558357Y-11206405D01*
X13539309Y-11225452D01*
X13510738Y-11234976D01*
X13463119Y-11234976D01*
X13663119Y-11234976D02*
X13663119Y-11101643D01*
X13663119Y-11139738D02*
X13672643Y-11120690D01*
X13682167Y-11111167D01*
X13701214Y-11101643D01*
X13720262Y-11101643D01*
X13786928Y-11234976D02*
X13786928Y-11101643D01*
X13786928Y-11034976D02*
X13777405Y-11044500D01*
X13786928Y-11054024D01*
X13796452Y-11044500D01*
X13786928Y-11034976D01*
X13786928Y-11054024D01*
X13910738Y-11234976D02*
X13891690Y-11225452D01*
X13882167Y-11206405D01*
X13882167Y-11034976D01*
X14015500Y-11234976D02*
X13996452Y-11225452D01*
X13986928Y-11206405D01*
X13986928Y-11034976D01*
X14244071Y-11234976D02*
X14244071Y-11034976D01*
X14310738Y-11177833D01*
X14377405Y-11034976D01*
X14377405Y-11234976D01*
X14558357Y-11234976D02*
X14558357Y-11130214D01*
X14548833Y-11111167D01*
X14529786Y-11101643D01*
X14491690Y-11101643D01*
X14472643Y-11111167D01*
X14558357Y-11225452D02*
X14539309Y-11234976D01*
X14491690Y-11234976D01*
X14472643Y-11225452D01*
X14463119Y-11206405D01*
X14463119Y-11187357D01*
X14472643Y-11168310D01*
X14491690Y-11158786D01*
X14539309Y-11158786D01*
X14558357Y-11149262D01*
X14653595Y-11101643D02*
X14653595Y-11301643D01*
X14653595Y-11111167D02*
X14672643Y-11101643D01*
X14710738Y-11101643D01*
X14729786Y-11111167D01*
X14739309Y-11120690D01*
X14748833Y-11139738D01*
X14748833Y-11196881D01*
X14739309Y-11215928D01*
X14729786Y-11225452D01*
X14710738Y-11234976D01*
X14672643Y-11234976D01*
X14653595Y-11225452D01*
X14834548Y-11215928D02*
X14844071Y-11225452D01*
X14834548Y-11234976D01*
X14825024Y-11225452D01*
X14834548Y-11215928D01*
X14834548Y-11234976D01*
X14834548Y-11111167D02*
X14844071Y-11120690D01*
X14834548Y-11130214D01*
X14825024Y-11120690D01*
X14834548Y-11111167D01*
X14834548Y-11130214D01*
M02*
